<svg width="231" height="61" viewBox="0 0 231 61" fill="none" xmlns="http://www.w3.org/2000/svg">
<path d="M221.561 31.3414V34.4208H227.503V37.5339C226.194 38.6722 224.522 39.3074 222.788 39.326C218.846 39.326 215.912 36.2718 215.912 32.0902C215.912 27.9085 218.846 24.8796 222.788 24.8796C223.799 24.8802 224.796 25.1226 225.695 25.5865C226.594 26.0504 227.37 26.7224 227.957 27.5467L230.823 25.9313C229.944 24.6155 228.745 23.5443 227.34 22.8174C225.935 22.0906 224.369 21.7319 222.788 21.7749C217.022 21.7749 212.331 25.8387 212.331 32.0902C212.331 38.3416 217.022 42.4391 222.788 42.4391C224.336 42.4598 225.87 42.1475 227.287 41.5234C228.703 40.8992 229.97 39.9777 231 38.8212V31.3414H221.561Z" fill="black"/>
<path d="M99 21.7749C93.0237 21.7749 88.8125 26.1417 88.8125 32.0902C88.8125 38.0388 93.0152 42.4055 99 42.4055C104.985 42.4055 109.187 38.0388 109.187 32.0902C109.187 26.1417 104.968 21.7749 99 21.7749ZM99 39.2924C94.9653 39.2924 92.3932 36.1877 92.3932 32.0902C92.3932 27.9927 94.9653 24.8796 99 24.8796C103.035 24.8796 105.598 27.959 105.598 32.0902C105.598 36.2214 103.001 39.2924 99 39.2924Z" fill="black"/>
<path d="M78.9108 24.8796C79.9299 24.8885 80.9294 25.1604 81.8128 25.6688C82.6963 26.1773 83.4338 26.9053 83.9541 27.7824L86.9465 26.2595C86.1345 24.8627 84.9628 23.7098 83.5538 22.921C82.1447 22.1321 80.55 21.7363 78.9361 21.7749C73.0522 21.7749 68.4796 25.9818 68.4796 32.0902C68.4796 38.1986 73.027 42.4055 78.9108 42.4055C80.524 42.4397 82.117 42.042 83.5253 41.2536C84.9335 40.4652 86.1059 39.3147 86.9213 37.921L83.9289 36.3981C83.4107 37.2764 82.6734 38.0049 81.7893 38.5123C80.9052 39.0196 79.9047 39.2885 78.8856 39.2924C74.9434 39.2924 72.0183 36.2719 72.0183 32.0902C72.0183 27.9086 74.9687 24.8796 78.9108 24.8796Z" fill="black"/>
<path d="M187.493 22.103H183.996V42.069H187.493V22.103Z" fill="black"/>
<path d="M132.067 42.069H145.718V38.9643H135.564V33.4364H145.508V30.357H135.564V25.1825H145.718V22.103H132.067V42.069Z" fill="black"/>
<path d="M119.888 38.2491L113.853 22.103H109.885L117.677 42.069H122.039L129.865 22.1283H125.889L119.888 38.2491Z" fill="black"/>
<path d="M152.24 27.3953C152.24 25.8977 153.552 24.8712 155.603 24.8712C156.666 24.8522 157.722 25.0431 158.711 25.4329C159.701 25.8226 160.604 26.4037 161.369 27.1429L163.369 24.543C162.37 23.6094 161.196 22.8827 159.915 22.4047C158.634 21.9268 157.271 21.707 155.905 21.7581C151.543 21.7581 148.643 24.2822 148.643 27.5888C148.643 34.9509 160.268 32.3426 160.268 36.5327C160.268 37.8453 159.133 39.2504 156.258 39.2504C155.076 39.2525 153.906 39.0092 152.822 38.5356C151.738 38.062 150.765 37.3686 149.963 36.4991L148.021 39.1915C149.778 41.0762 152.442 42.3635 156.115 42.3635C161.486 42.3635 163.823 39.5196 163.823 36.2046C163.832 28.8004 152.24 31.1311 152.24 27.3953Z" fill="black"/>
<path d="M165.479 25.1825H171.472V42.069H174.969V25.2414H181.004V22.103H165.479V25.1825Z" fill="black"/>
<path d="M205.506 35.9437L195.319 22.103H191.729V42.069H195.226V27.816L205.624 42.069H208.986V22.103H205.489L205.506 35.9437Z" fill="black"/>
<path d="M50.7356 27.4711C50.2723 24.3254 49.0806 21.3317 47.2558 18.7291C46.8859 18.2075 46.4825 17.6858 46.0538 17.1894C45.3515 16.3689 44.5872 15.6038 43.7675 14.9008C43.2757 14.4763 42.7622 14.0775 42.2293 13.7061C39.6256 11.8862 36.6365 10.694 33.496 10.2228C32.8655 10.1386 32.2183 10.0713 31.5543 10.0377C31.1844 10.0377 30.8146 10.0377 30.4616 10.0377C29.7429 10.0357 29.0246 10.0722 28.3098 10.1471C27.6709 10.2144 27.0153 10.3153 26.3765 10.4415C23.3698 11.0608 20.5386 12.3427 18.0887 14.1941C17.5759 14.5895 17.08 15.0355 16.6009 15.4393C15.8087 16.1741 15.0726 16.9672 14.3987 17.812C14.0036 18.3168 13.6169 18.8469 13.2555 19.4022C11.6651 21.8504 10.6241 24.6148 10.2043 27.5047C10.0866 28.1021 10.0866 28.7584 10.011 29.4483C10.011 29.8017 10.011 30.1719 10.011 30.5253C9.99877 31.2357 10.024 31.9462 10.0866 32.6539C10.1623 33.2934 10.2631 33.9497 10.3808 34.5891C10.9389 37.3458 12.0639 39.9561 13.6842 42.2541C14.0587 42.79 14.4599 43.3067 14.8862 43.8022C15.5905 44.6234 16.3547 45.3912 17.1725 46.0992C17.66 46.5115 18.1811 46.9406 18.7107 47.2855C21.0064 48.9074 23.6141 50.0335 26.3681 50.5922C27.0099 50.721 27.658 50.8165 28.3098 50.8782C29.0269 50.9603 29.7482 50.9996 30.47 50.996H31.5459C32.1931 50.996 32.8487 50.8951 33.4875 50.8025C36.3746 50.3823 39.1363 49.3403 41.582 47.7483C42.1284 47.3865 42.6664 47.0079 43.1707 46.604C44.0165 45.9316 44.809 45.1946 45.541 44.3996C45.9781 43.92 46.3816 43.4236 46.7935 42.9104C48.638 40.4582 49.9182 37.6281 50.5423 34.6228C50.6716 33.9804 50.767 33.3316 50.8281 32.6792C50.9099 31.9642 50.9492 31.2449 50.9458 30.5253C50.9458 30.1719 50.9458 29.8185 50.9458 29.4483C50.8953 28.7668 50.8281 28.1189 50.7356 27.4711ZM47.8441 32.3426C47.7853 32.8895 47.6928 33.4533 47.5836 34.0254C47.0572 36.5938 45.9629 39.0116 44.3811 41.1014C44.0449 41.5389 43.6918 41.9428 43.3136 42.3803C42.691 43.0573 42.0165 43.6847 41.2963 44.2566C40.8583 44.6075 40.4009 44.9334 39.9262 45.2326C37.8402 46.589 35.4863 47.4787 33.0252 47.8408C32.4873 47.9166 31.9241 47.9755 31.3441 48.0091H30.4616C29.8466 48.0092 29.2321 47.9755 28.6208 47.9082C28.0563 47.8537 27.4952 47.7695 26.9397 47.6557C24.5911 47.1754 22.3656 46.219 20.4002 44.8455C19.9457 44.5263 19.508 44.1837 19.0889 43.819C18.3895 43.2198 17.7375 42.5672 17.1388 41.867C16.7774 41.4464 16.4412 41.0257 16.1134 40.5461C14.7344 38.5856 13.7783 36.3592 13.3059 34.0086C13.1941 33.4525 13.1128 32.8907 13.0622 32.3258C12.9949 31.7139 12.9612 31.0988 12.9613 30.4832C12.9613 30.1803 12.9613 29.8774 12.9613 29.5577C12.9613 28.9939 13.0538 28.4471 13.1294 27.8749C13.5223 25.4339 14.4244 23.1032 15.7772 21.0345C16.0789 20.5639 16.4043 20.109 16.7522 19.6715C17.3293 18.945 17.9616 18.2643 18.6434 17.6353C19.0469 17.2651 19.484 16.9033 19.9127 16.5668C21.9957 14.9825 24.4093 13.8896 26.9733 13.3695C27.5288 13.2556 28.0899 13.1713 28.6544 13.1171C29.2657 13.0498 29.8802 13.0161 30.4952 13.0162H31.4198C31.983 13.0162 32.5293 13.1087 33.1009 13.1844C35.7827 13.5871 38.3347 14.6066 40.5566 16.1629C41.0021 16.4742 41.456 16.8276 41.8678 17.181C42.5701 17.783 43.2249 18.4384 43.8263 19.1414C44.1793 19.5705 44.5324 19.9828 44.8434 20.4539C46.3982 22.678 47.4167 25.2325 47.8189 27.917C47.8946 28.4555 47.9534 29.0192 47.987 29.5997C47.987 29.9195 47.987 30.2224 47.987 30.5253C47.9722 31.1332 47.9245 31.7399 47.8441 32.3426Z" fill="black"/>
<path d="M6.48062 29.1959C6.67716 29.2206 6.87664 29.2062 7.06762 29.1535C7.2586 29.1009 7.43731 29.011 7.5935 28.8891C7.74969 28.7671 7.88029 28.6155 7.9778 28.4429C8.07531 28.2703 8.13781 28.0801 8.16172 27.8833C8.60625 24.134 9.98177 20.5559 12.1627 17.4754C12.4906 17.0127 12.8436 16.5499 13.1966 16.1292C13.7906 15.4016 14.4367 14.7183 15.1299 14.0847C15.5417 13.6977 15.9704 13.319 16.4075 12.9657C19.4372 10.5163 23.053 8.90093 26.8976 8.27917C27.2637 8.21183 27.5919 8.01102 27.8187 7.71556C28.0455 7.42009 28.1549 7.05095 28.1256 6.67948C28.0963 6.30801 27.9305 5.96059 27.6602 5.70437C27.39 5.44815 27.0344 5.30132 26.6622 5.29227C26.5812 5.284 26.4995 5.284 26.4185 5.29227C22.0469 5.99155 17.9346 7.8249 14.4911 10.6098C13.9951 10.9968 13.516 11.4512 13.0369 11.8634C12.2594 12.5928 11.5295 13.3713 10.8515 14.1941C10.448 14.6737 10.053 15.1869 9.68311 15.7085C7.20655 19.1907 5.64822 23.2423 5.15255 27.4879C5.12433 27.6878 5.13657 27.8914 5.18853 28.0865C5.24049 28.2816 5.33111 28.4642 5.45501 28.6236C5.57891 28.7829 5.73355 28.9157 5.90974 29.014C6.08593 29.1123 6.28007 29.1742 6.48062 29.1959Z" fill="black"/>
<path d="M47.3146 11.3755C46.8439 10.9548 46.3479 10.5341 45.8352 10.1555C42.2194 7.41813 37.9396 5.6958 33.4371 5.16608H33.269C32.902 5.16603 32.548 5.30174 32.2749 5.54712C32.0019 5.79251 31.829 6.13025 31.7896 6.49546C31.7649 6.69219 31.7793 6.89187 31.8319 7.08304C31.8845 7.2742 31.9743 7.45309 32.0961 7.60944C32.2179 7.76578 32.3694 7.89651 32.5418 7.99411C32.7143 8.09172 32.9042 8.15428 33.1009 8.17821C37.0725 8.63991 40.8468 10.1627 44.028 12.587C44.4903 12.932 44.9274 13.2938 45.3309 13.6556C46.0356 14.2725 46.6983 14.9359 47.3146 15.6412C47.4465 15.791 47.6066 15.9132 47.7857 16.001C47.9648 16.0888 48.1594 16.1404 48.3584 16.1529C48.5575 16.1654 48.757 16.1385 48.9457 16.0739C49.1343 16.0092 49.3084 15.9079 49.458 15.7759C49.6076 15.6438 49.7297 15.4836 49.8174 15.3043C49.9051 15.125 49.9567 14.9302 49.9691 14.731C49.9816 14.5318 49.9548 14.332 49.8902 14.1432C49.8255 13.9543 49.7244 13.7801 49.5925 13.6304C48.8848 12.8282 48.1237 12.0749 47.3146 11.3755Z" fill="black"/>
<path d="M13.6085 49.6414C14.0792 50.0537 14.5835 50.4828 15.0879 50.853C18.4141 53.3733 22.3078 55.0375 26.4269 55.6993C26.8237 55.7618 27.229 55.6639 27.5538 55.4272C27.8785 55.1906 28.096 54.8344 28.1584 54.4372C28.2208 54.04 28.1231 53.6343 27.8866 53.3092C27.6502 52.9842 27.2944 52.7665 26.8976 52.704C23.2638 52.1214 19.8289 50.6536 16.895 48.4298C16.4495 48.0932 15.9956 47.7399 15.5922 47.3697C14.8895 46.7476 14.2269 46.0816 13.6085 45.3756C13.2304 44.9567 12.8741 44.5186 12.541 44.063C10.3161 41.1282 8.84935 37.689 8.27099 34.0506C8.20958 33.703 8.02746 33.3883 7.75679 33.162C7.48612 32.9357 7.14429 32.8124 6.79163 32.8138H6.55627C6.17043 32.8761 5.82425 33.087 5.59177 33.4015C5.35929 33.716 5.25897 34.109 5.31226 34.4966C5.96692 38.6201 7.62694 42.5185 10.1454 45.8468C10.5321 46.3684 10.9439 46.8564 11.3642 47.336C12.0635 48.1506 12.8131 48.9206 13.6085 49.6414Z" fill="black"/>
<path d="M47.9786 45.4345C47.7726 45.4329 47.5684 45.4739 47.3789 45.555C47.1894 45.6361 47.0187 45.7555 46.8775 45.9057C46.2318 46.5869 45.55 47.2329 44.835 47.8408C44.4063 48.1942 43.9524 48.5476 43.4901 48.8841C40.4156 51.0655 36.8435 52.4397 33.1009 52.8807C32.7063 52.9276 32.3465 53.1294 32.1006 53.4418C31.8547 53.7543 31.7428 54.1517 31.7896 54.5466C31.8364 54.9416 32.0381 55.3018 32.3502 55.5479C32.6623 55.7941 33.0593 55.906 33.4539 55.8592C37.6943 55.3591 41.741 53.7996 45.2216 51.3242C45.7512 50.9371 46.2639 50.5417 46.7514 50.1378C47.5736 49.4624 48.3514 48.7345 49.0797 47.9586C49.3507 47.6664 49.4956 47.279 49.4831 46.8805C49.4705 46.4819 49.3014 46.1045 49.0125 45.8299C48.726 45.579 48.3593 45.4387 47.9786 45.4345Z" fill="black"/>
<path d="M47.0708 52.4432C43.0309 55.511 38.2163 57.3903 33.1681 57.8701C32.5882 57.929 32.0166 57.9626 31.487 57.9879C30.5204 57.9879 29.5622 57.9879 28.646 57.9374C28.0744 57.9374 27.4944 57.8532 26.9649 57.7691C22.0281 57.1242 17.3608 55.1431 13.4656 52.0393C13.2115 51.8191 12.8856 51.6994 12.5494 51.7028C12.3227 51.704 12.099 51.7552 11.8942 51.8526C11.6894 51.95 11.5085 52.0913 11.3643 52.2665C11.1175 52.5792 11.0047 52.977 11.0504 53.3728C11.096 53.7686 11.2966 54.1302 11.608 54.3783C15.9206 57.8279 21.0954 60.0279 26.5698 60.7392C27.2002 60.8149 27.8222 60.8822 28.4527 60.9327C29.4613 61 30.5456 61.0168 31.5963 60.9832C32.2267 60.9832 32.8571 60.9159 33.4875 60.8654C39.0592 60.3059 44.3694 58.2217 48.836 54.8411C49.0275 54.7399 49.1949 54.5986 49.3268 54.4267C49.4587 54.2549 49.552 54.0566 49.6003 53.8453C49.6487 53.634 49.6509 53.4148 49.6068 53.2026C49.5627 52.9904 49.4734 52.7903 49.345 52.6158C49.2165 52.4413 49.052 52.2966 48.8626 52.1916C48.6732 52.0866 48.4633 52.0238 48.2475 52.0074C48.0316 51.991 47.8147 52.0215 47.6116 52.0967C47.4085 52.1719 47.2241 52.2901 47.0708 52.4432Z" fill="black"/>
<path d="M3.23612 34.0675C3.15206 33.5121 3.10163 32.94 3.06801 32.3847C3.03439 31.8294 3.00076 31.131 3.00076 30.4663C3.00076 30.1466 3.00076 29.8269 3.00076 29.524C3.00076 28.9603 3.0596 28.3881 3.11004 27.8412C3.59692 22.7873 5.47356 17.9673 8.53158 13.9164C8.65585 13.7588 8.74737 13.5779 8.80077 13.3843C8.85417 13.1908 8.86836 12.9885 8.84252 12.7894C8.81667 12.5903 8.75131 12.3983 8.65028 12.2249C8.54924 12.0514 8.41458 11.8999 8.2542 11.7793C7.98489 11.6084 7.67366 11.5152 7.35481 11.5101C7.12194 11.5097 6.89218 11.5635 6.6836 11.6672C6.47502 11.7709 6.29333 11.9216 6.15283 12.1075C2.75729 16.5993 0.676469 21.9477 0.142894 27.5552C0.0924605 28.1862 0.0420275 28.8088 0 29.4483C0 29.8017 0 30.1466 0 30.4916C0 31.2068 0 31.9135 0.067244 32.595C0.134488 33.2766 0.16811 33.8487 0.260571 34.4966C0.980282 39.9739 3.17713 45.1514 6.61513 49.4731C6.87293 49.7543 7.22778 49.9271 7.60796 49.9565C7.98814 49.9858 8.36528 49.8696 8.66314 49.6313C8.96099 49.393 9.15735 49.0504 9.2125 48.6727C9.26766 48.2951 9.17751 47.9105 8.96026 47.5968C5.85564 43.6938 3.87622 39.0153 3.23612 34.0675Z" fill="black"/>
<path d="M12.852 9.39821C16.8519 6.04747 21.7251 3.91062 26.8976 3.23931C27.4608 3.15517 28.0323 3.10469 28.5787 3.07103C29.5269 3.00361 30.4781 2.98676 31.4282 3.02055C31.9913 3.02055 32.5629 3.07945 33.1093 3.13835C38.3867 3.64139 43.4041 5.67019 47.5499 8.97752C47.7018 9.11707 47.8808 9.22387 48.0757 9.29129C48.2706 9.35871 48.4773 9.3853 48.6829 9.36941C48.8885 9.35353 49.0887 9.29551 49.2709 9.19895C49.4532 9.1024 49.6137 8.96937 49.7424 8.80813C49.8712 8.64689 49.9654 8.46088 50.0194 8.26164C50.0733 8.06241 50.0857 7.8542 50.0559 7.64995C50.0261 7.44571 49.9546 7.24978 49.846 7.07433C49.7373 6.89889 49.5938 6.74767 49.4243 6.63007C44.8295 2.96243 39.2698 0.708888 33.4203 0.143034C32.7814 0.0925517 32.1594 0.042069 31.529 0C31.176 0 30.8146 0 30.4699 0C29.7555 0 29.0494 0 28.3685 0.0673103C27.6877 0.134621 27.1077 0.168276 26.4773 0.260828C20.7498 1.00981 15.355 3.38003 10.9271 7.09283C10.7759 7.21879 10.6509 7.37333 10.5594 7.54763C10.4678 7.72193 10.4115 7.91258 10.3935 8.10868C10.3756 8.30478 10.3964 8.50251 10.4548 8.69056C10.5132 8.87862 10.608 9.05332 10.7338 9.20469C10.8596 9.35606 11.014 9.48114 11.1882 9.57279C11.3623 9.66444 11.5527 9.72086 11.7487 9.73883C11.9446 9.7568 12.1421 9.73597 12.33 9.67752C12.5178 9.61908 12.6924 9.52417 12.8436 9.39821H12.852Z" fill="black"/>
<path d="M23.7455 30.4579C23.3605 30.4602 22.992 30.6142 22.7197 30.8867C22.4475 31.1592 22.2936 31.5282 22.2914 31.9135V35.5062C22.2914 35.8923 22.4446 36.2625 22.7173 36.5355C22.99 36.8085 23.3599 36.9618 23.7455 36.9618C24.1312 36.9618 24.5011 36.8085 24.7738 36.5355C25.0465 36.2625 25.1997 35.8923 25.1997 35.5062V31.9135C25.1975 31.5282 25.0436 31.1592 24.7713 30.8867C24.4991 30.6142 24.1305 30.4602 23.7455 30.4579Z" fill="black"/>
<path d="M29.3268 25.965C29.1355 25.9639 28.9459 26.0008 28.769 26.0735C28.592 26.1463 28.4313 26.2534 28.296 26.3888C28.1608 26.5242 28.0537 26.6851 27.981 26.8622C27.9083 27.0393 27.8715 27.2291 27.8726 27.4206V35.4978C27.8574 35.6977 27.8836 35.8986 27.9496 36.0879C28.0155 36.2771 28.1198 36.4507 28.256 36.5978C28.3921 36.7448 28.5571 36.8621 28.7406 36.9424C28.9242 37.0226 29.1223 37.064 29.3226 37.064C29.5228 37.064 29.7209 37.0226 29.9045 36.9424C30.088 36.8621 30.253 36.7448 30.3891 36.5978C30.5253 36.4507 30.6296 36.2771 30.6956 36.0879C30.7615 35.8986 30.7877 35.6977 30.7725 35.4978V27.4206C30.7736 27.2298 30.737 27.0407 30.6649 26.8642C30.5927 26.6876 30.4864 26.5271 30.352 26.3918C30.2177 26.2566 30.0579 26.1492 29.882 26.0759C29.706 26.0027 29.5173 25.965 29.3268 25.965Z" fill="black"/>
<path d="M34.8996 20.4287C34.5154 20.4287 34.1468 20.5809 33.8744 20.8521C33.6019 21.1232 33.4477 21.4913 33.4455 21.8759V35.4978C33.4455 35.8839 33.5987 36.2541 33.8714 36.5271C34.1441 36.8 34.514 36.9534 34.8996 36.9534C35.2853 36.9534 35.6552 36.8 35.9279 36.5271C36.2006 36.2541 36.3538 35.8839 36.3538 35.4978V21.8759C36.3516 21.4913 36.1974 21.1232 35.9249 20.8521C35.6525 20.5809 35.2839 20.4287 34.8996 20.4287Z" fill="black"/>
</svg>
