<svg width="185" height="58" viewBox="0 0 185 58" fill="none" xmlns="http://www.w3.org/2000/svg">
<path fill-rule="evenodd" clip-rule="evenodd" d="M69.4716 49.9531H68.7755L68.0794 49.9082L67.4283 49.8633L66.7996 49.7735L66.1933 49.6838L65.5871 49.5491L65.0257 49.3919L64.4868 49.2348L63.9704 49.0328L63.4764 48.8308L62.9824 48.5839L62.5334 48.3146L62.1067 48.0228L61.7026 47.7085L61.3209 47.3943L60.9616 47.0352L60.6248 46.6536L60.3104 46.2496L59.9961 45.8231L59.7266 45.3517L59.4797 44.8804L59.2551 44.3866L59.0531 43.8703L58.851 43.3092L58.6938 42.748L58.5591 42.142L58.4468 41.5135L58.3345 40.8851L58.2672 40.2117L58.2223 39.5159L58.1774 38.7976V38.0569V31.1436V30.4029L58.2223 29.6847L58.2672 28.9888L58.3345 28.3155L58.4468 27.687L58.5591 27.0585L58.6938 26.4525L58.851 25.8913L59.0531 25.3302L59.2551 24.8139L59.4797 24.3202L59.7266 23.8264L59.9961 23.3774L60.3104 22.951L60.6248 22.5469L60.9616 22.1654L61.3209 21.8062L61.7026 21.4696L62.1067 21.1778L62.5334 20.886L62.9824 20.6166L63.4764 20.3697L63.9704 20.1677L64.4868 19.9657L65.0257 19.7861L65.5871 19.6514L66.1933 19.5168L66.7996 19.427L67.4283 19.3372L68.0794 19.2923L68.7755 19.2474H69.4716H70.1451L70.7963 19.2923L71.4475 19.3372L72.0537 19.4046L72.6375 19.4943L73.1988 19.6066L73.7602 19.7412L74.2766 19.8984L74.7706 20.0779L75.2646 20.2799L75.7137 20.4819L76.1627 20.7289L76.5669 20.9982L76.9711 21.2675L77.3528 21.5818L77.712 21.896L78.0489 22.2327L78.3632 22.6143L78.6551 22.9959L78.9245 23.3999L79.1715 23.8264L79.3961 24.2977L79.6206 24.7691L79.8002 25.2629L79.9799 25.7791L80.1146 26.3178L80.2493 26.879L80.3616 27.4625L80.4514 28.0686L80.5187 28.697L80.5637 29.348L80.6086 30.0213H75.4442L75.3993 29.2582L75.3095 28.5399L75.1748 27.889L75.0176 27.283L74.9278 26.9912L74.8155 26.7218L74.6808 26.4749L74.5461 26.228L74.4113 26.0036L74.2542 25.7791L74.097 25.5771L73.9174 25.3751L73.7378 25.1955L73.5356 25.0384L73.3336 24.8813L73.109 24.7242L72.8845 24.5895L72.6375 24.4773L72.3905 24.365L72.1211 24.2753L71.8292 24.1855L71.5373 24.1181L71.2454 24.0508L70.9086 24.0059L70.235 23.9386L69.5164 23.9161L68.753 23.9386L68.3713 23.961L68.0345 24.0059L67.6977 24.0732L67.3834 24.1406L67.069 24.2304L66.7771 24.3202L66.4852 24.4548L66.2158 24.5671L65.9688 24.7242L65.7218 24.8813L65.4972 25.0384L65.2952 25.218L65.0931 25.42L64.891 25.6444L64.7338 25.8689L64.5542 26.1158L64.4195 26.3852L64.2623 26.6545L64.15 26.9463L64.0378 27.2605L63.9255 27.5748L63.8357 27.9115L63.7459 28.2706L63.6785 28.6522L63.5887 29.4377L63.5213 30.3131L63.4989 31.2334V37.9671L63.5213 38.8874L63.5887 39.7628L63.6785 40.5484L63.7459 40.9299L63.8357 41.2666L63.9255 41.6258L64.0378 41.94L64.15 42.2542L64.2623 42.546L64.4195 42.8154L64.5542 43.0847L64.7338 43.3316L64.891 43.5561L65.0931 43.7805L65.2952 43.9601L65.4972 44.1621L65.7218 44.3192L65.9688 44.4764L66.2158 44.6335L66.4852 44.7457L66.7771 44.8579L67.069 44.9701L67.3834 45.0599L67.6977 45.1273L68.0345 45.1946L68.3713 45.2395L68.753 45.2619L69.5164 45.2844L70.235 45.2619L70.9086 45.1946L71.2454 45.1497L71.5373 45.0824L71.8292 45.0151L72.1211 44.9253L72.3905 44.8355L72.6375 44.7233L72.8845 44.611L73.109 44.4764L73.3336 44.3192L73.5356 44.1846L73.7378 44.005L73.9174 43.8254L74.097 43.6459L74.2542 43.4214L74.4113 43.2194L74.5461 42.9725L74.6808 42.748L74.8155 42.4787L74.9278 42.2094L75.0176 41.94L75.1748 41.334L75.3095 40.683L75.3993 39.9872L75.4442 39.2241H80.6086L80.5637 39.8974L80.5187 40.5484L80.4514 41.1544L80.3616 41.7604L80.2493 42.344L80.1146 42.9051L79.9799 43.4439L79.8002 43.9601L79.6206 44.4539L79.3961 44.9253L79.1715 45.3742L78.9245 45.8007L78.6551 46.2047L78.3632 46.5862L78.0489 46.9678L77.712 47.3045L77.3528 47.6187L76.9711 47.933L76.5669 48.2023L76.1627 48.4717L75.7137 48.7186L75.2646 48.9206L74.7706 49.1226L74.2766 49.3022L73.7602 49.4593L73.1988 49.594L72.6375 49.7062L72.0537 49.796L71.4475 49.8633L70.7963 49.9082L70.1451 49.9531H69.4716Z" fill="black"/>
<path fill-rule="evenodd" clip-rule="evenodd" d="M84.6278 49.4369V26.7892H89.0736L89.2982 30.9417L89.4778 30.3581L89.7023 29.8418L89.9493 29.348L90.2188 28.8991L90.5107 28.4726L90.825 28.1135L91.1618 27.7768L91.5211 27.4626L91.9028 27.1932L92.3294 26.9688L92.7785 26.7892L93.25 26.6321L93.744 26.4974L94.2604 26.4301L94.8218 26.3627H95.4056H97.0222V31.3232H95.8322L95.2035 31.3457L94.5972 31.3906L94.0359 31.4803L93.5194 31.615L93.0479 31.7721L92.5988 31.9966L92.1722 32.2435L91.7905 32.5128L91.4537 32.8495L91.1394 33.2311L90.8475 33.6351L90.6005 34.1065L90.3759 34.6227L90.1739 35.1839L89.9942 35.7675L89.8595 36.4408V49.4369H84.6278Z" fill="black"/>
<path fill-rule="evenodd" clip-rule="evenodd" d="M100.772 57.3826V53.1404H102.995L103.511 53.1179L103.736 53.0955L103.96 53.0506L104.14 52.9833L104.342 52.9159L104.499 52.8261L104.657 52.7364L104.814 52.6017L104.948 52.467L105.061 52.2875L105.195 52.1079L105.308 51.9059L105.398 51.6814L105.6 51.1427L106.363 48.8308L98.4594 26.7892H104.05L109.057 42.2318L113.728 26.7892H119.004L110.584 51.7488L110.315 52.5343L110.023 53.2302L109.731 53.8811L109.417 54.4647L109.102 54.9809L108.766 55.4523L108.586 55.6543L108.406 55.8563L108.227 56.0359L108.025 56.193L107.823 56.3501L107.598 56.4848L107.396 56.6195L107.149 56.7541L106.924 56.8439L106.677 56.9561L106.138 57.1133L105.577 57.2255L104.948 57.3153L104.275 57.3602L103.556 57.3826H100.772Z" fill="black"/>
<path fill-rule="evenodd" clip-rule="evenodd" d="M129.176 49.9531H128.592L128.008 49.9307L127.469 49.8858L126.93 49.8409L126.414 49.7735L125.92 49.7062L125.448 49.6164L124.999 49.5042L124.55 49.3695L124.146 49.2348L123.742 49.1002L123.36 48.9206L123.001 48.741L122.664 48.5615L122.35 48.337L122.036 48.135L121.744 47.8881L121.497 47.6412L121.25 47.3719L121.003 47.1025L120.801 46.8107L120.621 46.4965L120.441 46.1598L120.284 45.8231L120.149 45.4864L120.037 45.1273L119.925 44.7457L119.857 44.3417L119.79 43.9377L119.745 43.5112L119.723 43.0847L119.7 42.6358H124.685L124.708 43.0398L124.752 43.399L124.842 43.7581L124.955 44.0948L125.112 44.3866L125.291 44.6559L125.516 44.9028L125.785 45.1273L126.077 45.3069L126.414 45.4864L126.773 45.6211L127.177 45.7333L127.626 45.8231L128.098 45.8904L128.614 45.9353H129.176H129.692L130.164 45.8904L130.59 45.8455L130.995 45.7782L131.376 45.666L131.713 45.5537L132.027 45.4191L132.297 45.2619L132.544 45.0824L132.746 44.8804L132.926 44.6784L133.06 44.4315L133.173 44.1846L133.262 43.8928L133.307 43.601L133.33 43.2868L133.307 42.9501L133.262 42.6358L133.173 42.344L133.06 42.0747L132.903 41.8278L132.701 41.5809L132.454 41.3789L132.162 41.1769L131.848 41.0197L131.466 40.8402L131.039 40.7055L130.568 40.5708L130.029 40.4586L129.445 40.3464L128.817 40.2341L128.12 40.1444L127.088 39.9872L126.122 39.8301L125.246 39.6281L124.46 39.3812L124.079 39.2465L123.72 39.1119L123.383 38.9772L123.068 38.8201L122.776 38.6405L122.485 38.4609L122.215 38.2814L121.968 38.0794L121.744 37.8773L121.542 37.6753L121.339 37.4509L121.16 37.204L120.98 36.9571L120.845 36.6877L120.711 36.4184L120.576 36.149L120.486 35.8348L120.396 35.543L120.307 35.2063L120.239 34.8921L120.194 34.5329L120.172 34.1738L120.149 33.8147V33.4106V32.9842L120.172 32.5802L120.217 32.1762L120.284 31.7721L120.374 31.3906L120.486 31.0314L120.598 30.6723L120.733 30.3356L120.89 29.9989L121.07 29.6847L121.272 29.3929L121.474 29.1011L121.699 28.8317L121.946 28.5624L122.215 28.3155L122.485 28.091L122.776 27.8666L123.091 27.6646L123.428 27.485L123.764 27.3054L124.124 27.1259L124.505 26.9912L124.91 26.8565L125.314 26.7219L125.74 26.6096L126.189 26.5198L126.639 26.4525L127.132 26.3852L127.604 26.3403L128.12 26.2954L128.637 26.2729H129.176H129.715L130.231 26.2954L130.748 26.3403L131.219 26.3852L131.691 26.4525L132.14 26.5198L132.589 26.6096L133.015 26.7219L133.397 26.8341L133.801 26.9688L134.161 27.1259L134.52 27.283L134.857 27.4626L135.171 27.6421L135.485 27.8441L135.755 28.0686L136.024 28.2931L136.294 28.5399L136.518 28.8093L136.743 29.0787L136.945 29.3704L137.124 29.6622L137.282 29.9765L137.439 30.2907L137.573 30.6274L137.686 30.9865L137.776 31.3456L137.843 31.7272L137.91 32.1313L137.955 32.5353L137.978 32.9393L138 33.3882H132.97V33.0066L132.926 32.6475L132.836 32.3108L132.746 32.019L132.611 31.7272L132.454 31.4803L132.252 31.2559L132.027 31.0538L131.78 30.8743L131.511 30.7172L131.174 30.5825L130.837 30.4703L130.456 30.3805L130.051 30.3356L129.602 30.2907H129.131H128.682L128.255 30.3131L127.851 30.3805L127.492 30.4478L127.132 30.5601L126.818 30.6723L126.549 30.807L126.279 30.9641L126.055 31.1437L125.853 31.3232L125.673 31.5477L125.538 31.7721L125.426 32.019L125.359 32.2884L125.314 32.5577L125.291 32.8495L125.314 33.1862L125.359 33.478L125.448 33.7473L125.561 34.0167L125.718 34.2412L125.92 34.4656L126.145 34.6676L126.436 34.8472L126.751 35.0043L127.132 35.1614L127.537 35.2961L128.008 35.4083L128.502 35.5206L129.064 35.6103L129.692 35.7001L130.366 35.7675L131.421 35.9246L132.387 36.0817L133.285 36.3062L133.711 36.4184L134.116 36.553L134.497 36.6877L134.857 36.8224L135.193 36.9795L135.508 37.1591L135.822 37.3162L136.114 37.5182L136.383 37.6978L136.63 37.9222L136.855 38.1243L137.079 38.3712L137.282 38.5956L137.461 38.8425L137.618 39.1119L137.776 39.3812L137.91 39.673L138.045 39.9648L138.135 40.279L138.225 40.6157L138.314 40.93L138.359 41.2891L138.404 41.6482L138.449 42.0073L138.472 42.4114V42.7929V43.2419L138.449 43.6683L138.382 44.0723L138.337 44.4764L138.247 44.8579L138.157 45.2171L138.023 45.5762L137.888 45.9353L137.731 46.2496L137.573 46.5638L137.371 46.878L137.169 47.1474L136.945 47.4392L136.698 47.6861L136.428 47.933L136.159 48.1575L135.845 48.3819L135.53 48.5839L135.193 48.7635L134.834 48.9431L134.475 49.1002L134.071 49.2573L133.667 49.3919L133.24 49.5042L132.791 49.6164L132.342 49.7062L131.848 49.7735L131.354 49.8409L130.837 49.8858L130.298 49.9307L129.76 49.9531H129.176Z" fill="black"/>
<path fill-rule="evenodd" clip-rule="evenodd" d="M149.429 49.4369L148.621 49.4144L148.239 49.3696L147.857 49.3247L147.498 49.2798L147.161 49.2124L146.847 49.1227L146.533 49.0104L146.241 48.8982L145.949 48.786L145.679 48.6513L145.432 48.4942L145.185 48.3146L144.961 48.135L144.736 47.933L144.534 47.731L144.355 47.5066L144.175 47.2597L144.018 46.9903L143.86 46.721L143.726 46.4292L143.591 46.1374L143.479 45.8232L143.389 45.4864L143.299 45.1273L143.209 44.7457L143.164 44.3642L143.097 43.9601L143.03 43.1072L143.007 42.1869V30.8519H139.437V26.7892H143.097L143.456 20.9758H148.239V26.7892H153.358V30.8519H148.239V42.0074L148.261 42.4563L148.284 42.8603L148.306 43.2419L148.374 43.5561L148.441 43.8479L148.553 44.1173L148.666 44.3417L148.823 44.5437L148.98 44.7008L149.182 44.858L149.407 44.9702L149.676 45.06L149.968 45.1273L150.282 45.1722L150.642 45.1947H151.046H153.583V49.4369H149.429Z" fill="black"/>
<path fill-rule="evenodd" clip-rule="evenodd" d="M162.25 49.9531H161.846L161.419 49.9307L161.038 49.8858L160.633 49.8409L160.252 49.7735L159.892 49.6838L159.533 49.594L159.196 49.4817L158.86 49.3695L158.545 49.2348L158.231 49.0777L157.939 48.9206L157.669 48.741L157.4 48.5615L157.131 48.3594L156.884 48.135L156.659 47.9105L156.435 47.6637L156.232 47.4168L156.053 47.1474L155.873 46.8556L155.716 46.5638L155.559 46.272L155.424 45.9353L155.312 45.6211L155.222 45.2619L155.132 44.9253L155.065 44.5437L154.998 44.1846L154.953 43.7805L154.93 43.399V42.9725V42.546L154.953 42.1196L154.998 41.7155L155.065 41.334L155.155 40.9524L155.245 40.5708L155.357 40.2117L155.492 39.875L155.649 39.5383L155.806 39.2241L156.008 38.9323L156.21 38.6405L156.435 38.3487L156.659 38.1018L156.929 37.8325L157.198 37.608L157.49 37.3835L157.804 37.1815L158.141 36.9795L158.478 36.8L158.86 36.6204L159.241 36.4633L159.645 36.3286L160.072 36.2163L160.499 36.1041L160.97 35.9919L161.442 35.9246L161.936 35.8572L162.452 35.7899L162.969 35.7675L163.53 35.745L164.091 35.7226H168.896V34.7349L168.874 34.2187L168.829 33.7249L168.762 33.276L168.649 32.8495L168.515 32.4679L168.335 32.1313L168.133 31.817L167.908 31.5252L167.639 31.2783L167.325 31.0763L166.988 30.8967L166.629 30.7621L166.224 30.6499L165.775 30.5601L165.304 30.5152L164.787 30.4927L164.316 30.5152L163.844 30.5601L163.44 30.6274L163.036 30.7172L162.677 30.8294L162.34 30.9641L162.048 31.1437L161.779 31.3232L161.532 31.5477L161.307 31.7946L161.127 32.0639L160.97 32.3557L160.858 32.6699L160.746 33.0066L160.678 33.3882L160.633 33.7698H155.581L155.626 33.3209L155.671 32.872L155.761 32.4455L155.828 32.019L155.941 31.615L156.075 31.2334L156.21 30.8519L156.345 30.4927L156.524 30.156L156.704 29.8194L156.906 29.5051L157.131 29.2133L157.355 28.9215L157.602 28.6522L157.872 28.4053L158.164 28.1584L158.455 27.9339L158.77 27.7095L159.107 27.5074L159.466 27.3279L159.825 27.1483L160.207 27.0137L160.611 26.8565L161.015 26.7443L161.464 26.6321L161.913 26.5423L162.385 26.4525L162.856 26.3852L163.35 26.3403L163.867 26.2954L164.406 26.2729H164.967H165.551L166.09 26.2954L166.629 26.3403L167.145 26.3852L167.639 26.4749L168.133 26.5647L168.582 26.6545L169.031 26.7892L169.458 26.9239L169.862 27.081L170.244 27.2381L170.603 27.4177L170.962 27.6421L171.276 27.8441L171.591 28.091L171.883 28.3379L172.152 28.6073L172.422 28.8991L172.646 29.2133L172.871 29.5276L173.073 29.8642L173.252 30.2234L173.432 30.6049L173.567 30.9865L173.701 31.413L173.814 31.8395L173.926 32.2884L173.993 32.7373L174.061 33.2311L174.106 33.7249L174.128 34.2412V34.7799V49.4369H169.682L169.503 46.474L169.188 46.878L168.829 47.2821L168.47 47.6412L168.11 47.9779L167.706 48.2921L167.302 48.5839L166.875 48.8533L166.449 49.0777L165.977 49.2797L165.506 49.4593L165.012 49.6164L164.495 49.7286L163.957 49.8409L163.418 49.9082L162.856 49.9531H162.25ZM163.62 39.5383L163.103 39.6057L162.632 39.6954L162.205 39.8077L161.823 39.9423L161.487 40.0994L161.172 40.3015L160.925 40.5035L160.701 40.7504L160.521 40.9973L160.364 41.2891L160.252 41.6033L160.184 41.94L160.139 42.2991L160.117 42.6807L160.139 43.0174L160.184 43.3765L160.252 43.6908L160.341 43.9826L160.454 44.2519L160.611 44.4988L160.791 44.7233L160.993 44.9253L161.217 45.1273L161.487 45.2844L161.756 45.4191L162.07 45.5313L162.407 45.6211L162.767 45.666L163.148 45.7109L163.575 45.7333L164.001 45.7109L164.428 45.666L164.855 45.5987L165.259 45.5089L165.641 45.3742L166 45.2395L166.359 45.06L166.696 44.8579L167.033 44.6335L167.347 44.3641L167.639 44.0723L167.931 43.7805L168.178 43.4439L168.447 43.0847L168.672 42.6807L168.896 42.2767V39.4934H164.787H164.181L163.62 39.5383Z" fill="black"/>
<path fill-rule="evenodd" clip-rule="evenodd" d="M179.023 17.5865H184.255V49.4369H179.023V17.5865Z" fill="black"/>
<path fill-rule="evenodd" clip-rule="evenodd" d="M63.4989 9.86513H59.3V0H63.7041L63.9929 0.0339603L64.3296 0.0788515L64.6665 0.146166L64.9584 0.235971L65.2278 0.325754L65.4523 0.460427L65.6769 0.617547L65.8565 0.774666L66.0137 0.976677L66.1484 1.17867L66.2607 1.40314L66.3505 1.67249L66.4178 1.94184L66.4403 2.23363L66.4628 2.57032L66.4403 2.95187L66.3954 3.31102L66.2831 3.62526L66.2158 3.75994L66.1484 3.89461L66.0586 4.02928L65.9688 4.14149L65.8565 4.25372L65.7442 4.34352L65.6095 4.43328L65.4523 4.52309L65.138 4.68018V4.70263L65.34 4.76999L65.5422 4.85975L65.7218 4.94955L65.879 5.03932L66.0361 5.15154L66.1708 5.26379L66.2831 5.39847L66.3954 5.55559L66.4852 5.71271L66.575 5.8698L66.6424 6.04937L66.6873 6.22896L66.7322 6.43097L66.7546 6.6554L66.7771 7.10431V7.46347L66.7322 7.7777L66.6648 8.0695L66.5975 8.33885L66.4852 8.60819L66.3505 8.83263L66.1708 9.03464L65.9912 9.21423L65.7667 9.37135L65.5422 9.50602L65.2727 9.61823L64.9808 9.70803L64.644 9.77534L64.2847 9.8427L63.9255 9.86513H63.4989ZM61.0739 8.33885H63.207L63.6785 8.3164L64.0378 8.24904L64.2174 8.22662L64.3521 8.15928L64.4868 8.09192L64.5991 8.02461L64.7114 7.93482L64.7787 7.84502L64.8461 7.73281L64.9134 7.59814L64.9584 7.46347L64.9808 7.32879L65.0033 6.99211V6.79007L64.9808 6.63296L64.9584 6.47584L64.9134 6.34116L64.8461 6.22896L64.7787 6.11673L64.6665 6.0045L64.5766 5.91469L64.4419 5.84738L64.3072 5.78002L64.15 5.73513L63.9704 5.69026L63.5438 5.6229H63.0498H61.0739V8.33885ZM61.0739 4.07418H62.9824L63.4315 4.05173L63.7908 4.00684L63.9479 3.96192L64.0827 3.91706L64.2174 3.8497L64.3072 3.78238L64.4195 3.71504L64.4868 3.60282L64.5542 3.51301L64.5991 3.40078L64.644 3.26613L64.6889 3.10899V2.79475V2.48051L64.644 2.32339L64.6215 2.21116L64.5542 2.07649L64.4868 1.98673L64.4195 1.89693L64.3296 1.80717L64.2174 1.73981L64.1051 1.67249L63.9704 1.62758L63.8132 1.60513L63.454 1.53782H63.0498H61.0739V4.07418Z" fill="black"/>
<path fill-rule="evenodd" clip-rule="evenodd" d="M68.5958 0H70.3697V9.86514H68.5958V0Z" fill="black"/>
<path fill-rule="evenodd" clip-rule="evenodd" d="M74.4562 9.86513V1.56026H71.672V0H79.0143V1.56026H76.2301V9.86513H74.4562Z" fill="black"/>
<path fill-rule="evenodd" clip-rule="evenodd" d="M80.3167 9.86513V0H86.8507V1.53782H82.0905V4.0966H86.1097V5.66782H82.0905V9.86513H80.3167Z" fill="black"/>
<path fill-rule="evenodd" clip-rule="evenodd" d="M91.7681 10.0447H91.2966L90.8699 9.99987L90.4882 9.93251L90.1065 9.84275L89.7922 9.7305L89.5003 9.59582L89.2308 9.41628L88.9838 9.21425L88.7817 8.98979L88.6021 8.74289L88.4449 8.45109L88.3327 8.1593L88.2429 7.80017L88.1755 7.44106L88.1306 7.01459V6.58812V0H89.9044V6.54321V6.81256L89.9269 7.03704L89.9493 7.26147L89.9942 7.44106L90.0616 7.62063L90.129 7.77775L90.2188 7.93487L90.331 8.04709L90.4433 8.1593L90.578 8.24908L90.7352 8.33889L90.9148 8.38376L91.0945 8.42865L91.319 8.47354L91.5436 8.49601H91.7905H92.0375L92.2621 8.47354L92.4866 8.42865L92.6662 8.38376L92.8459 8.33889L93.003 8.24908L93.1378 8.1593L93.25 8.04709L93.3623 7.93487L93.4521 7.77775L93.5195 7.62063L93.5868 7.44106L93.6317 7.26147L93.6542 7.03704L93.6766 6.81256V6.54321V0H95.4055V6.58812L95.3831 7.01459L95.3382 7.44106L95.2708 7.80017L95.181 8.1593L95.0688 8.45109L94.9116 8.74289L94.7544 8.98979L94.5299 9.21425L94.3053 9.41628L94.0359 9.59582L93.744 9.7305L93.4072 9.84275L93.0479 9.93251L92.6438 9.99987L92.2172 10.0447H91.7681Z" fill="black"/>
<path fill-rule="evenodd" clip-rule="evenodd" d="M102.748 9.86513L100.615 6.04937H98.9756V9.86513H97.2018V0H101.651L101.939 0.0339603L102.299 0.0788515L102.636 0.168634L102.927 0.258394L103.197 0.370645L103.444 0.527764L103.646 0.707307L103.826 0.886872L103.983 1.11135L104.118 1.35825L104.23 1.65005L104.32 1.94184L104.365 2.27852L104.409 2.63763V3.01923V3.33347L104.387 3.60282L104.365 3.87216L104.297 4.11904L104.252 4.34352L104.162 4.56796L104.073 4.76999L103.96 4.94955L103.848 5.1291L103.713 5.28622L103.556 5.42089L103.377 5.55559L103.197 5.64537L102.995 5.75758L102.77 5.82493L102.523 5.91469L104.791 9.86513H102.748ZM98.9756 4.50064H100.952L101.378 4.4782L101.58 4.45575L101.737 4.43328L101.895 4.38839L102.029 4.32108L102.164 4.25372L102.276 4.16396L102.366 4.07418L102.434 3.96192L102.501 3.8497L102.546 3.71504L102.591 3.5579L102.613 3.40078L102.636 3.01923L102.613 2.66008L102.591 2.48051L102.546 2.34584L102.501 2.21116L102.434 2.07649L102.366 1.98673L102.276 1.87448L102.164 1.80717L102.029 1.71738L101.895 1.67249L101.737 1.62758L101.58 1.58269L101.378 1.56026L100.952 1.53782H98.9756V4.50064Z" fill="black"/>
<path fill-rule="evenodd" clip-rule="evenodd" d="M107.98 9.86513V5.71271L104.64 0H106.684L108.945 3.91706L111.184 0H113.093L109.753 5.66782V9.86513H107.98Z" fill="black"/>
<path fill-rule="evenodd" clip-rule="evenodd" d="M0 29.6623L7.43214 19.7637H19.7817H32.1536L39.5858 29.6623L19.7817 49.4369L0 29.6623Z" fill="#F7BE00"/>
</svg>
