<svg width="297" height="53" viewBox="0 0 297 53" fill="none" xmlns="http://www.w3.org/2000/svg">
    <g clip-path="url(#clip0)">
        <path d="M37.5438 17.8904L16.9602 6.65886H37.5438V0H0V23.1374H6.77011V9.01294L32.278 23.1374H37.5438V17.8904Z" fill="#F4511E"/>
        <path d="M37.5438 46.3411H15.934L37.5438 34.503V29.8625H31.2518L6.77011 43.4482V29.8625H0V53H37.5438V46.3411Z" fill="#F4511E"/>
        <path d="M75.9073 0H43.3561V6.65886H63.9397L43.3561 17.8242V23.1374H48.5536L74.198 8.94522V23.1374H80.9682V0H75.9073Z" fill="#F4511E"/>
        <path d="M74.198 29.8625V43.4482L49.5797 29.8625H43.3561V34.5737L64.8975 46.3441H43.3561V53.0029H80.9682V29.8625H74.198Z" fill="#F4511E"/>
        <path d="M119.608 26.5662C119.608 21.0513 117.146 18.2938 112.153 18.2938H109.213V35.0418H111.607C116.872 35.0418 119.608 32.2166 119.608 26.5677V26.5662ZM125.352 26.4337C125.468 28.2258 125.199 30.0219 124.562 31.7031C123.925 33.3843 122.936 34.9122 121.659 36.1857C119.198 38.4044 115.641 39.5512 111.06 39.5512H103.674V13.7874H111.88C116.12 13.7874 119.471 14.8635 121.795 17.0837C123.001 18.3185 123.938 19.785 124.55 21.3929C125.162 23.0008 125.434 24.7158 125.352 26.4323" fill="#F4511E"/>
        <path d="M137.319 23.3318C136.812 23.3019 136.304 23.3827 135.831 23.5687C135.359 23.7546 134.933 24.0412 134.584 24.408C133.86 25.2765 133.471 26.3728 133.49 27.4997H141.149C141.189 26.381 140.825 25.285 140.123 24.408C139.761 24.0402 139.323 23.7538 138.839 23.5682C138.355 23.3825 137.837 23.3019 137.319 23.3318ZM138.141 39.8781C136.774 39.9611 135.403 39.7716 134.111 39.3211C132.819 38.8705 131.631 38.1678 130.618 37.2546C129.669 36.2783 128.936 35.1168 128.465 33.8441C127.994 32.5714 127.796 31.2155 127.882 29.8626C127.693 27.0795 128.598 24.3319 130.407 22.1953C132.241 20.5249 134.624 19.5705 137.113 19.5087C139.603 19.447 142.031 20.2823 143.947 21.8596C144.769 22.7448 145.404 23.7839 145.815 24.9157C146.226 26.0476 146.405 27.2494 146.341 28.4508V31.0743H133.347C133.344 32.3889 133.831 33.6583 134.715 34.6385C135.198 35.0862 135.77 35.4307 136.393 35.6505C137.017 35.8703 137.679 35.9608 138.34 35.9164C139.486 35.9112 140.63 35.7988 141.755 35.5807C142.919 35.3177 144.045 34.9122 145.108 34.3735V38.5428C144.125 39.0114 143.093 39.3723 142.031 39.619C140.74 39.7954 139.437 39.8854 138.133 39.8885" fill="#F4511E"/>
        <path d="M154.484 39.5469L146.893 19.9074H152.569L156.399 31.139C156.79 32.4579 157.065 33.8081 157.22 35.1744H157.356C157.47 33.8021 157.746 32.4477 158.178 31.139L162.007 19.9074H167.683L160.092 39.5469H154.484Z" fill="#F4511E"/>
        <path d="M177.187 23.3318C176.679 23.3019 176.171 23.3827 175.699 23.5687C175.226 23.7546 174.8 24.0411 174.452 24.408C173.727 25.2765 173.339 26.3728 173.357 27.4997H181.017C181.056 26.381 180.692 25.285 179.991 24.408C179.628 24.0402 179.19 23.7538 178.707 23.5681C178.223 23.3825 177.705 23.3019 177.187 23.3318ZM177.94 39.8781C176.573 39.961 175.203 39.7716 173.911 39.321C172.619 38.8704 171.431 38.1678 170.417 37.2546C169.468 36.2776 168.734 35.1152 168.263 33.8414C167.792 32.5676 167.594 31.2106 167.682 29.8567C167.493 27.0736 168.397 24.326 170.206 22.1894C172.04 20.519 174.423 19.5645 176.913 19.5028C179.402 19.4411 181.83 20.2763 183.746 21.8537C184.568 22.7389 185.203 23.778 185.614 24.9098C186.025 26.0417 186.204 27.2435 186.14 28.4448V31.0683H173.221C173.217 32.383 173.705 33.6524 174.588 34.6326C175.072 35.0803 175.643 35.4248 176.267 35.6446C176.89 35.8644 177.553 35.9549 178.213 35.9105C179.36 35.9052 180.503 35.7928 181.629 35.5748C182.792 35.3107 183.917 34.9042 184.979 34.3646V38.534C183.996 39.0026 182.964 39.3634 181.902 39.6102C180.587 39.7862 179.262 39.8762 177.936 39.8796" fill="#F4511E"/>
        <path d="M193.874 29.5269L187.446 19.8412H193.601L197.499 26.1629L201.397 19.8412H207.621L201.124 29.5269L207.894 39.5484H201.671L197.499 32.8218L193.26 39.5484H187.104L193.874 29.5269Z" fill="#F4511E"/>
        <path d="M219.382 23.8088C218.829 23.7586 218.273 23.8426 217.761 24.0535C217.248 24.2643 216.796 24.5957 216.441 25.019C215.706 26.2324 215.371 27.6432 215.484 29.0543V29.6624C215.366 31.2241 215.698 32.7869 216.441 34.1688C216.78 34.6354 217.236 35.0054 217.764 35.2416C218.292 35.4778 218.874 35.5719 219.45 35.5144C221.912 35.5144 223.143 33.5637 223.143 29.5961C223.247 28.0858 222.939 26.5757 222.252 25.2236C221.943 24.7572 221.514 24.3806 221.009 24.1326C220.504 23.8845 219.942 23.7738 219.38 23.8117L219.382 23.8088ZM221.021 39.8869C219.966 39.9334 218.914 39.7323 217.951 39.3C216.989 38.8677 216.143 38.2163 215.482 37.3989H215.21C215.415 39.0183 215.484 40.0224 215.484 40.2241V48.2286H210.013V19.8397H214.458L215.21 22.3955H215.484C216.119 21.5179 216.952 20.7995 217.916 20.2975C218.881 19.7956 219.951 19.524 221.04 19.5044C222.129 19.4848 223.208 19.7178 224.19 20.1847C225.173 20.6516 226.032 21.3396 226.698 22.1938C228.156 24.4045 228.851 27.0239 228.681 29.6594C228.71 31.5187 228.385 33.3668 227.723 35.1066C227.208 36.5309 226.277 37.7713 225.05 38.6709C223.874 39.4996 222.457 39.9246 221.015 39.8811" fill="#F4511E"/>
        <path d="M240.239 23.3318C239.731 23.3018 239.223 23.3827 238.751 23.5686C238.278 23.7546 237.852 24.0411 237.503 24.408C236.779 25.2764 236.391 26.3727 236.409 27.4996H244.069C244.141 26.3766 243.773 25.2692 243.043 24.408C242.676 24.0453 242.238 23.7624 241.755 23.5771C241.272 23.3918 240.756 23.3082 240.239 23.3318ZM240.992 39.8781C239.625 39.961 238.255 39.7716 236.962 39.321C235.67 38.8704 234.482 38.1678 233.469 37.2546C232.519 36.2776 231.786 35.1151 231.315 33.8414C230.844 32.5676 230.646 31.2105 230.733 29.8567C230.544 27.0736 231.449 24.3259 233.258 22.1893C234.153 21.2637 235.242 20.5436 236.448 20.0797C237.654 19.6158 238.948 19.4193 240.239 19.504C242.678 19.3861 245.064 20.2334 246.872 21.8596C247.694 22.7448 248.329 23.7838 248.74 24.9157C249.151 26.0475 249.33 27.2494 249.266 28.4507V31.0742H236.347C236.344 32.3888 236.831 33.6583 237.714 34.6384C238.198 35.0862 238.769 35.4306 239.393 35.6504C240.017 35.8703 240.679 35.9608 241.339 35.9163C242.486 35.9111 243.629 35.7987 244.755 35.5807C245.919 35.3178 247.046 34.9122 248.109 34.3734V38.5428C247.126 39.0114 246.095 39.3722 245.032 39.619C243.694 39.7897 242.347 39.8797 240.998 39.8884" fill="#F4511E"/>
        <path d="M262.739 19.504C263.357 19.5048 263.974 19.5496 264.585 19.638L264.175 24.6818C263.642 24.5311 263.089 24.4631 262.535 24.4801C261.066 24.4046 259.624 24.8857 258.5 25.8258C258.005 26.3033 257.621 26.8812 257.373 27.5198C257.126 28.1584 257.02 28.8426 257.064 29.5254V39.5469H251.593V19.8397H255.696L256.517 23.136H256.791C257.389 22.0423 258.258 21.1169 259.315 20.4463C260.343 19.8229 261.526 19.4966 262.731 19.504" fill="#F4511E"/>
        <path d="M276.348 35.647C277.51 35.6135 278.661 35.4096 279.763 35.0419V39.0169C278.18 39.6528 276.478 39.9508 274.771 39.8914C273.903 39.9657 273.029 39.8602 272.205 39.5813C271.381 39.3025 270.624 38.8566 269.983 38.2719C268.862 36.8887 268.323 35.1297 268.479 33.3621V23.8765H265.885V21.5902L268.893 19.7735L270.466 15.6041H273.954V19.7735H279.561V23.8088H273.954V33.2929C273.923 33.6071 273.968 33.9242 274.088 34.217C274.207 34.5098 274.396 34.7696 274.639 34.9741C274.853 35.2082 275.118 35.3905 275.414 35.5072C275.711 35.6238 276.03 35.6716 276.348 35.647Z" fill="#F4511E"/>
        <path d="M297 33.6962C297.055 34.5818 296.892 35.4675 296.524 36.2762C296.155 37.085 295.593 37.7923 294.887 38.3366C292.997 39.5401 290.767 40.108 288.526 39.9561C287.289 39.9825 286.053 39.8923 284.833 39.6867C283.845 39.5074 282.881 39.2139 281.961 38.8122V34.3013C283.065 34.7958 284.207 35.2005 285.377 35.5114C286.469 35.8103 287.595 35.9686 288.728 35.9826C290.711 35.9826 291.669 35.4452 291.669 34.3013C291.674 34.1143 291.64 33.9283 291.569 33.7548C291.499 33.5813 291.393 33.424 291.259 33.2928C290.852 32.9321 290.39 32.637 289.891 32.4183C289.053 31.9767 288.185 31.5944 287.292 31.2744C286.084 30.8357 284.937 30.2481 283.877 29.5254C283.19 29.0504 282.647 28.3996 282.304 27.6424C281.947 26.8385 281.781 25.9642 281.819 25.0866C281.783 24.2961 281.954 23.5097 282.313 22.8031C282.672 22.0965 283.209 21.4932 283.871 21.0513C285.644 20.0076 287.693 19.5158 289.751 19.6394C292.183 19.6542 294.584 20.1816 296.795 21.1867L295.154 25.0866C294.128 24.6833 293.24 24.3505 292.35 24.0782C291.484 23.8124 290.584 23.6765 289.677 23.6748C288.036 23.6748 287.283 24.0782 287.283 24.9527C287.305 25.2079 287.383 25.4551 287.514 25.6763C287.644 25.8974 287.823 26.0868 288.036 26.2306C289.128 26.8426 290.271 27.3603 291.452 27.7779C292.666 28.2014 293.816 28.79 294.867 29.5269C295.559 30.0176 296.125 30.6625 296.52 31.4098C296.891 32.1131 297.056 32.9048 296.998 33.6962" fill="#F4511E"/>
    </g>
    <defs>
        <clipPath id="clip0">
            <rect width="297" height="53" fill="white"/>
        </clipPath>
    </defs>
</svg>
