<svg width="579" height="371" viewBox="0 0 579 371" fill="none" xmlns="http://www.w3.org/2000/svg">
<path d="M441.967 337.814C445.275 337.814 447.875 338.638 449.766 340.285C451.671 341.918 452.623 344.16 452.623 347.01C452.623 350.261 451.585 352.811 449.508 354.658C447.445 356.506 444.595 357.43 440.957 357.43C437.419 357.43 434.719 356.864 432.857 355.732V352.295C433.86 352.939 435.106 353.448 436.596 353.82C438.085 354.178 439.553 354.357 441 354.357C443.521 354.357 445.476 353.763 446.865 352.574C448.269 351.385 448.971 349.667 448.971 347.418C448.971 343.035 446.285 340.844 440.914 340.844C439.553 340.844 437.734 341.051 435.457 341.467L433.609 340.285L434.791 325.59H450.41V328.877H437.842L437.047 338.309C438.694 337.979 440.334 337.814 441.967 337.814ZM458.445 354.723C458.445 353.763 458.66 353.04 459.09 352.553C459.534 352.051 460.164 351.801 460.98 351.801C461.811 351.801 462.456 352.051 462.914 352.553C463.387 353.04 463.623 353.763 463.623 354.723C463.623 355.654 463.387 356.37 462.914 356.871C462.441 357.372 461.797 357.623 460.98 357.623C460.25 357.623 459.641 357.401 459.154 356.957C458.682 356.499 458.445 355.754 458.445 354.723ZM482.271 357H478.791V334.613C478.791 332.751 478.848 330.99 478.963 329.328C478.662 329.629 478.326 329.944 477.953 330.273C477.581 330.603 475.876 331.999 472.84 334.463L470.949 332.014L479.264 325.59H482.271V357ZM497.289 334.957C497.289 337.392 497.554 339.218 498.084 340.436C498.614 341.653 499.473 342.262 500.662 342.262C503.011 342.262 504.186 339.827 504.186 334.957C504.186 330.116 503.011 327.695 500.662 327.695C499.473 327.695 498.614 328.297 498.084 329.5C497.554 330.703 497.289 332.522 497.289 334.957ZM507.129 334.957C507.129 338.223 506.577 340.693 505.475 342.369C504.386 344.031 502.782 344.861 500.662 344.861C498.657 344.861 497.096 344.009 495.979 342.305C494.876 340.6 494.324 338.151 494.324 334.957C494.324 331.706 494.854 329.257 495.914 327.609C496.988 325.962 498.571 325.139 500.662 325.139C502.739 325.139 504.336 325.991 505.453 327.695C506.57 329.4 507.129 331.82 507.129 334.957ZM516.195 347.547C516.195 349.996 516.46 351.829 516.99 353.047C517.52 354.25 518.387 354.852 519.59 354.852C520.793 354.852 521.681 354.257 522.254 353.068C522.827 351.865 523.113 350.025 523.113 347.547C523.113 345.098 522.827 343.286 522.254 342.111C521.681 340.923 520.793 340.328 519.59 340.328C518.387 340.328 517.52 340.923 516.99 342.111C516.46 343.286 516.195 345.098 516.195 347.547ZM526.057 347.547C526.057 350.798 525.505 353.262 524.402 354.938C523.314 356.599 521.71 357.43 519.59 357.43C517.556 357.43 515.988 356.577 514.885 354.873C513.796 353.169 513.252 350.727 513.252 347.547C513.252 344.296 513.782 341.846 514.842 340.199C515.916 338.552 517.499 337.729 519.59 337.729C521.624 337.729 523.206 338.574 524.338 340.264C525.484 341.939 526.057 344.367 526.057 347.547ZM520.514 325.59L503.09 357H499.932L517.355 325.59H520.514Z" fill="#52AFEE"/>
<path d="M442.459 310H440.66L433.247 298.617H433.173C433.272 299.953 433.321 301.177 433.321 302.291V310H431.865V296.437H433.646L441.04 307.773H441.114C441.102 307.606 441.074 307.071 441.031 306.168C440.987 305.259 440.972 304.61 440.984 304.22V296.437H442.459V310ZM450.252 310.186C448.75 310.186 447.562 309.728 446.69 308.812C445.824 307.897 445.391 306.626 445.391 305C445.391 303.361 445.793 302.059 446.597 301.094C447.407 300.129 448.493 299.646 449.854 299.646C451.128 299.646 452.136 300.067 452.878 300.908C453.62 301.743 453.991 302.847 453.991 304.22V305.194H446.987C447.018 306.388 447.318 307.294 447.887 307.913C448.462 308.531 449.269 308.84 450.308 308.84C451.403 308.84 452.485 308.611 453.555 308.154V309.527C453.011 309.762 452.494 309.929 452.006 310.028C451.523 310.133 450.939 310.186 450.252 310.186ZM449.835 300.936C449.019 300.936 448.366 301.202 447.877 301.734C447.395 302.266 447.111 303.002 447.024 303.942H452.34C452.34 302.971 452.123 302.229 451.69 301.715C451.257 301.196 450.639 300.936 449.835 300.936ZM464.948 299.832V300.806L463.064 301.029C463.238 301.245 463.392 301.53 463.528 301.882C463.664 302.229 463.732 302.621 463.732 303.061C463.732 304.056 463.392 304.851 462.712 305.445C462.032 306.039 461.098 306.335 459.91 306.335C459.607 306.335 459.323 306.311 459.057 306.261C458.401 306.608 458.073 307.044 458.073 307.569C458.073 307.848 458.188 308.055 458.417 308.191C458.645 308.321 459.038 308.386 459.595 308.386H461.395C462.495 308.386 463.34 308.618 463.927 309.082C464.521 309.545 464.818 310.22 464.818 311.104C464.818 312.23 464.366 313.086 463.463 313.674C462.56 314.268 461.243 314.564 459.511 314.564C458.181 314.564 457.155 314.317 456.431 313.822C455.714 313.327 455.355 312.629 455.355 311.726C455.355 311.107 455.553 310.572 455.949 310.121C456.345 309.669 456.901 309.363 457.619 309.202C457.359 309.085 457.139 308.902 456.96 308.655C456.787 308.407 456.7 308.12 456.7 307.792C456.7 307.421 456.799 307.096 456.997 306.818C457.195 306.54 457.507 306.271 457.934 306.011C457.408 305.794 456.979 305.426 456.645 304.907C456.317 304.387 456.153 303.793 456.153 303.125C456.153 302.012 456.487 301.156 457.155 300.556C457.823 299.95 458.769 299.646 459.994 299.646C460.526 299.646 461.005 299.708 461.432 299.832H464.948ZM456.839 311.707C456.839 312.257 457.071 312.675 457.535 312.959C457.999 313.244 458.664 313.386 459.53 313.386C460.822 313.386 461.778 313.191 462.396 312.802C463.021 312.418 463.333 311.896 463.333 311.234C463.333 310.683 463.163 310.3 462.823 310.083C462.483 309.873 461.843 309.768 460.903 309.768H459.057C458.358 309.768 457.813 309.935 457.424 310.269C457.034 310.603 456.839 311.082 456.839 311.707ZM457.674 303.088C457.674 303.8 457.875 304.338 458.277 304.703C458.679 305.068 459.239 305.25 459.957 305.25C461.459 305.25 462.211 304.52 462.211 303.061C462.211 301.533 461.45 300.769 459.929 300.769C459.205 300.769 458.648 300.964 458.259 301.354C457.869 301.743 457.674 302.321 457.674 303.088ZM473.288 310L472.982 308.553H472.908C472.401 309.19 471.893 309.623 471.386 309.852C470.885 310.074 470.257 310.186 469.503 310.186C468.495 310.186 467.703 309.926 467.128 309.406C466.559 308.887 466.274 308.148 466.274 307.189C466.274 305.136 467.917 304.059 471.201 303.96L472.926 303.905V303.274C472.926 302.476 472.753 301.889 472.407 301.511C472.067 301.128 471.519 300.936 470.765 300.936C469.917 300.936 468.959 301.196 467.889 301.715L467.416 300.537C467.917 300.265 468.464 300.052 469.058 299.897C469.658 299.742 470.257 299.665 470.857 299.665C472.07 299.665 472.966 299.934 473.548 300.472C474.135 301.01 474.429 301.873 474.429 303.061V310H473.288ZM469.809 308.915C470.768 308.915 471.519 308.652 472.063 308.126C472.614 307.6 472.889 306.864 472.889 305.918V305L471.349 305.064C470.125 305.108 469.24 305.299 468.696 305.64C468.158 305.974 467.889 306.496 467.889 307.208C467.889 307.764 468.056 308.188 468.39 308.479C468.73 308.769 469.203 308.915 469.809 308.915ZM480.896 308.915C481.168 308.915 481.431 308.896 481.684 308.859C481.938 308.816 482.139 308.772 482.287 308.729V309.907C482.12 309.988 481.873 310.053 481.545 310.102C481.223 310.158 480.933 310.186 480.673 310.186C478.706 310.186 477.723 309.15 477.723 307.078V301.029H476.266V300.287L477.723 299.646L478.372 297.476H479.263V299.832H482.213V301.029H479.263V307.013C479.263 307.625 479.408 308.095 479.699 308.423C479.989 308.751 480.388 308.915 480.896 308.915ZM485.868 310H484.328V299.832H485.868V310ZM484.198 297.077C484.198 296.724 484.285 296.467 484.458 296.307C484.631 296.14 484.848 296.056 485.107 296.056C485.355 296.056 485.568 296.14 485.748 296.307C485.927 296.474 486.017 296.73 486.017 297.077C486.017 297.423 485.927 297.683 485.748 297.856C485.568 298.023 485.355 298.106 485.107 298.106C484.848 298.106 484.631 298.023 484.458 297.856C484.285 297.683 484.198 297.423 484.198 297.077ZM491.36 310L487.501 299.832H489.152L491.342 305.862C491.837 307.272 492.127 308.188 492.214 308.608H492.288C492.356 308.281 492.569 307.603 492.928 306.577C493.293 305.544 494.106 303.296 495.368 299.832H497.02L493.16 310H491.36ZM502.948 310.186C501.445 310.186 500.257 309.728 499.385 308.812C498.519 307.897 498.086 306.626 498.086 305C498.086 303.361 498.488 302.059 499.292 301.094C500.103 300.129 501.188 299.646 502.549 299.646C503.823 299.646 504.831 300.067 505.573 300.908C506.315 301.743 506.687 302.847 506.687 304.22V305.194H499.682C499.713 306.388 500.013 307.294 500.582 307.913C501.157 308.531 501.964 308.84 503.003 308.84C504.098 308.84 505.181 308.611 506.25 308.154V309.527C505.706 309.762 505.19 309.929 504.701 310.028C504.219 310.133 503.634 310.186 502.948 310.186ZM502.53 300.936C501.714 300.936 501.061 301.202 500.573 301.734C500.09 302.266 499.806 303.002 499.719 303.942H505.035C505.035 302.971 504.819 302.229 504.386 301.715C503.953 301.196 503.334 300.936 502.53 300.936Z" fill="black" fill-opacity="0.65"/>
<g filter="url(#filter0_d)">
<path fill-rule="evenodd" clip-rule="evenodd" d="M330.462 331.497C414.368 326.587 478.407 254.588 473.497 170.682C468.587 86.7755 396.588 22.7364 312.682 27.6463C228.776 32.5561 164.737 104.556 169.646 188.462C174.556 272.368 246.556 336.407 330.462 331.497ZM325.844 252.59C366.171 250.23 396.95 215.626 394.59 175.299C392.23 134.972 357.626 104.194 317.299 106.553C276.972 108.913 246.193 143.518 248.553 183.844C250.913 224.171 285.517 254.95 325.844 252.59Z" fill="#F7F7F7"/>
<path fill-rule="evenodd" clip-rule="evenodd" d="M330.462 331.497C414.368 326.587 478.407 254.588 473.497 170.682C468.587 86.7755 396.588 22.7364 312.682 27.6463C228.776 32.5561 164.737 104.556 169.646 188.462C174.556 272.368 246.556 336.407 330.462 331.497ZM325.844 252.59C366.171 250.23 396.95 215.626 394.59 175.299C392.23 134.972 357.626 104.194 317.299 106.553C276.972 108.913 246.193 143.518 248.553 183.844C250.913 224.171 285.517 254.95 325.844 252.59Z" fill="url(#paint0_linear)"/>
</g>
<g filter="url(#filter1_d)">
<path fill-rule="evenodd" clip-rule="evenodd" d="M339.658 250.457C335.211 251.587 330.594 252.312 325.844 252.59C322.667 252.776 319.525 252.756 316.432 252.542L310.879 331.381C327.113 332.524 343.426 331.056 359.195 327.033L339.658 250.457Z" fill="url(#paint1_linear)"/>
</g>
<g filter="url(#filter2_d)">
<path fill-rule="evenodd" clip-rule="evenodd" d="M249.764 193.528L172.182 208.606C178.575 241.5 195.646 271.364 220.745 293.565C245.845 315.765 277.571 329.061 310.999 331.389L316.49 252.546C283.506 250.291 256.024 225.958 249.764 193.528Z" fill="url(#paint2_linear)"/>
</g>
<path d="M338.485 284.5C338.757 284.052 338.913 283.526 338.913 282.963C338.913 281.327 337.59 280 335.957 280C334.324 280 333 281.327 333 282.963C333 284.6 334.324 285.927 335.957 285.927C336.601 285.927 337.196 285.721 337.682 285.37L427.707 368.842C427.816 368.944 427.959 369 428.108 369H578.409C578.735 369 579 368.735 579 368.407C579 368.08 578.735 367.815 578.409 367.815H428.34L338.485 284.5Z" fill="url(#paint3_radial)"/>
<path d="M23.7949 358H3.14844V354.928L11.4199 346.613C13.9408 344.064 15.6022 342.245 16.4043 341.156C17.2064 340.068 17.8079 339.008 18.209 337.977C18.61 336.945 18.8105 335.835 18.8105 334.646C18.8105 332.971 18.3021 331.646 17.2852 330.672C16.2682 329.684 14.8574 329.189 13.0527 329.189C11.7493 329.189 10.5104 329.404 9.33594 329.834C8.17578 330.264 6.87956 331.044 5.44727 332.176L3.55664 329.748C6.44987 327.342 9.60091 326.139 13.0098 326.139C15.9603 326.139 18.2734 326.898 19.9492 328.416C21.625 329.92 22.4629 331.947 22.4629 334.496C22.4629 336.487 21.9043 338.456 20.7871 340.404C19.6699 342.352 17.5788 344.816 14.5137 347.795L7.63867 354.52V354.691H23.7949V358ZM49.1465 342.252C49.1465 347.68 48.2871 351.734 46.5684 354.412C44.8639 357.09 42.25 358.43 38.7266 358.43C35.3464 358.43 32.7754 357.062 31.0137 354.326C29.252 351.576 28.3711 347.551 28.3711 342.252C28.3711 336.781 29.2233 332.72 30.9277 330.07C32.6322 327.421 35.2318 326.096 38.7266 326.096C42.1354 326.096 44.7207 327.478 46.4824 330.242C48.2585 333.007 49.1465 337.01 49.1465 342.252ZM31.9805 342.252C31.9805 346.821 32.5176 350.151 33.5918 352.242C34.666 354.319 36.3776 355.357 38.7266 355.357C41.1042 355.357 42.8229 354.305 43.8828 352.199C44.957 350.079 45.4941 346.764 45.4941 342.252C45.4941 337.74 44.957 334.439 43.8828 332.348C42.8229 330.242 41.1042 329.189 38.7266 329.189C36.3776 329.189 34.666 330.228 33.5918 332.305C32.5176 334.367 31.9805 337.683 31.9805 342.252ZM54.625 355.723C54.625 354.763 54.8398 354.04 55.2695 353.553C55.7135 353.051 56.3438 352.801 57.1602 352.801C57.9909 352.801 58.6354 353.051 59.0938 353.553C59.5664 354.04 59.8027 354.763 59.8027 355.723C59.8027 356.654 59.5664 357.37 59.0938 357.871C58.6211 358.372 57.9766 358.623 57.1602 358.623C56.4297 358.623 55.821 358.401 55.334 357.957C54.8613 357.499 54.625 356.754 54.625 355.723ZM75.6367 326.139C78.5013 326.139 80.7715 326.805 82.4473 328.137C84.123 329.469 84.9609 331.309 84.9609 333.658C84.9609 335.205 84.4811 336.616 83.5215 337.891C82.5618 339.165 81.0293 340.326 78.9238 341.371C81.4733 342.589 83.2852 343.87 84.3594 345.217C85.4336 346.549 85.9707 348.096 85.9707 349.857C85.9707 352.464 85.0612 354.548 83.2422 356.109C81.4232 357.656 78.931 358.43 75.7656 358.43C72.4141 358.43 69.8359 357.699 68.0312 356.238C66.2266 354.763 65.3242 352.679 65.3242 349.986C65.3242 346.391 67.5156 343.591 71.8984 341.586C69.9219 340.469 68.5039 339.266 67.6445 337.977C66.7852 336.673 66.3555 335.219 66.3555 333.615C66.3555 331.338 67.1934 329.526 68.8691 328.18C70.5592 326.819 72.8151 326.139 75.6367 326.139ZM68.8477 350.072C68.8477 351.791 69.4421 353.13 70.6309 354.09C71.834 355.049 73.5169 355.529 75.6797 355.529C77.8138 355.529 79.4753 355.028 80.6641 354.025C81.8529 353.023 82.4473 351.648 82.4473 349.9C82.4473 348.511 81.8887 347.279 80.7715 346.205C79.6543 345.117 77.7064 344.064 74.9277 343.047C72.7936 343.964 71.2467 344.98 70.2871 346.098C69.3275 347.201 68.8477 348.525 68.8477 350.072ZM75.5938 329.039C73.8034 329.039 72.3997 329.469 71.3828 330.328C70.3659 331.188 69.8574 332.333 69.8574 333.766C69.8574 335.083 70.2799 336.215 71.125 337.16C71.9701 338.105 73.5312 339.051 75.8086 339.996C77.8568 339.137 79.3034 338.213 80.1484 337.225C81.0078 336.236 81.4375 335.083 81.4375 333.766C81.4375 332.319 80.9147 331.173 79.8691 330.328C78.8379 329.469 77.4128 329.039 75.5938 329.039ZM93.4688 335.957C93.4688 338.392 93.7337 340.218 94.2637 341.436C94.7936 342.653 95.653 343.262 96.8418 343.262C99.1908 343.262 100.365 340.827 100.365 335.957C100.365 331.116 99.1908 328.695 96.8418 328.695C95.653 328.695 94.7936 329.297 94.2637 330.5C93.7337 331.703 93.4688 333.522 93.4688 335.957ZM103.309 335.957C103.309 339.223 102.757 341.693 101.654 343.369C100.566 345.031 98.9616 345.861 96.8418 345.861C94.8366 345.861 93.2754 345.009 92.1582 343.305C91.0553 341.6 90.5039 339.151 90.5039 335.957C90.5039 332.706 91.0339 330.257 92.0938 328.609C93.168 326.962 94.7507 326.139 96.8418 326.139C98.9186 326.139 100.516 326.991 101.633 328.695C102.75 330.4 103.309 332.82 103.309 335.957ZM112.375 348.547C112.375 350.996 112.64 352.829 113.17 354.047C113.7 355.25 114.566 355.852 115.77 355.852C116.973 355.852 117.861 355.257 118.434 354.068C119.007 352.865 119.293 351.025 119.293 348.547C119.293 346.098 119.007 344.286 118.434 343.111C117.861 341.923 116.973 341.328 115.77 341.328C114.566 341.328 113.7 341.923 113.17 343.111C112.64 344.286 112.375 346.098 112.375 348.547ZM122.236 348.547C122.236 351.798 121.685 354.262 120.582 355.938C119.493 357.599 117.889 358.43 115.77 358.43C113.736 358.43 112.167 357.577 111.064 355.873C109.976 354.169 109.432 351.727 109.432 348.547C109.432 345.296 109.962 342.846 111.021 341.199C112.096 339.552 113.678 338.729 115.77 338.729C117.803 338.729 119.386 339.574 120.518 341.264C121.663 342.939 122.236 345.367 122.236 348.547ZM116.693 326.59L99.2695 358H96.1113L113.535 326.59H116.693Z" fill="#52AFEE"/>
<path d="M11.4648 301.389C11.4648 302.762 10.9948 303.819 10.0547 304.562C9.12077 305.298 7.78174 305.666 6.0376 305.666H4.44189V311H2.86475V297.437H6.38086C9.77018 297.437 11.4648 298.754 11.4648 301.389ZM4.44189 304.311H5.86133C7.25911 304.311 8.27035 304.085 8.89502 303.634C9.51969 303.182 9.83203 302.459 9.83203 301.463C9.83203 300.566 9.53825 299.898 8.95068 299.459C8.36312 299.02 7.44775 298.8 6.20459 298.8H4.44189V304.311ZM22.8574 305.907C22.8574 307.564 22.4399 308.86 21.605 309.794C20.77 310.722 19.6165 311.186 18.1445 311.186C17.2354 311.186 16.4282 310.972 15.7231 310.545C15.0181 310.119 14.4738 309.506 14.0903 308.708C13.7069 307.911 13.5151 306.977 13.5151 305.907C13.5151 304.249 13.9295 302.96 14.7583 302.038C15.5871 301.11 16.7375 300.646 18.2095 300.646C19.632 300.646 20.7607 301.12 21.5957 302.066C22.4368 303.012 22.8574 304.292 22.8574 305.907ZM15.1108 305.907C15.1108 307.206 15.3706 308.195 15.8901 308.875C16.4097 309.556 17.1735 309.896 18.1816 309.896C19.1898 309.896 19.9536 309.559 20.4731 308.885C20.9989 308.204 21.2617 307.212 21.2617 305.907C21.2617 304.614 20.9989 303.634 20.4731 302.966C19.9536 302.292 19.1836 301.955 18.1631 301.955C17.1549 301.955 16.3942 302.285 15.8809 302.947C15.3675 303.609 15.1108 304.596 15.1108 305.907ZM32.1255 308.226C32.1255 309.172 31.7729 309.902 31.0679 310.416C30.3628 310.929 29.3732 311.186 28.0991 311.186C26.7508 311.186 25.6994 310.972 24.9448 310.545V309.117C25.4334 309.364 25.9561 309.559 26.5127 309.701C27.0755 309.843 27.6167 309.915 28.1362 309.915C28.9403 309.915 29.5588 309.788 29.9917 309.534C30.4246 309.274 30.6411 308.882 30.6411 308.356C30.6411 307.96 30.4679 307.623 30.1216 307.345C29.7814 307.06 29.1134 306.726 28.1177 306.343C27.1714 305.99 26.4972 305.684 26.0952 305.424C25.6994 305.158 25.4025 304.858 25.2046 304.524C25.0129 304.19 24.917 303.792 24.917 303.328C24.917 302.499 25.2541 301.846 25.9282 301.37C26.6024 300.888 27.527 300.646 28.7021 300.646C29.7969 300.646 30.8669 300.869 31.9121 301.314L31.3647 302.567C30.3442 302.146 29.4196 301.936 28.5908 301.936C27.861 301.936 27.3105 302.05 26.9395 302.279C26.5684 302.508 26.3828 302.824 26.3828 303.226C26.3828 303.498 26.4508 303.73 26.5869 303.921C26.7292 304.113 26.9549 304.296 27.2642 304.469C27.5734 304.642 28.1672 304.892 29.0454 305.22C30.2515 305.659 31.0648 306.102 31.4854 306.547C31.9121 306.992 32.1255 307.552 32.1255 308.226ZM36.1797 311H34.6396V300.832H36.1797V311ZM34.5098 298.077C34.5098 297.724 34.5964 297.467 34.7695 297.307C34.9427 297.14 35.1592 297.056 35.4189 297.056C35.6663 297.056 35.8797 297.14 36.0591 297.307C36.2384 297.474 36.3281 297.73 36.3281 298.077C36.3281 298.423 36.2384 298.683 36.0591 298.856C35.8797 299.023 35.6663 299.106 35.4189 299.106C35.1592 299.106 34.9427 299.023 34.7695 298.856C34.5964 298.683 34.5098 298.423 34.5098 298.077ZM42.7295 309.915C43.0016 309.915 43.2645 309.896 43.5181 309.859C43.7716 309.816 43.9727 309.772 44.1211 309.729V310.907C43.9541 310.988 43.7067 311.053 43.3789 311.102C43.0573 311.158 42.7666 311.186 42.5068 311.186C40.54 311.186 39.5566 310.15 39.5566 308.078V302.029H38.1001V301.287L39.5566 300.646L40.2061 298.476H41.0967V300.832H44.0469V302.029H41.0967V308.013C41.0967 308.625 41.242 309.095 41.5327 309.423C41.8234 309.751 42.2223 309.915 42.7295 309.915ZM47.7021 311H46.1621V300.832H47.7021V311ZM46.0322 298.077C46.0322 297.724 46.1188 297.467 46.292 297.307C46.4652 297.14 46.6816 297.056 46.9414 297.056C47.1888 297.056 47.4022 297.14 47.5815 297.307C47.7609 297.474 47.8506 297.73 47.8506 298.077C47.8506 298.423 47.7609 298.683 47.5815 298.856C47.4022 299.023 47.1888 299.106 46.9414 299.106C46.6816 299.106 46.4652 299.023 46.292 298.856C46.1188 298.683 46.0322 298.423 46.0322 298.077ZM53.1943 311L49.335 300.832H50.9863L53.1758 306.862C53.6706 308.272 53.9613 309.188 54.0479 309.608H54.1221C54.1901 309.281 54.4035 308.603 54.7622 307.577C55.1271 306.544 55.9404 304.296 57.2021 300.832H58.8535L54.9941 311H53.1943ZM64.7817 311.186C63.2788 311.186 62.0913 310.728 61.2192 309.812C60.3534 308.897 59.9204 307.626 59.9204 306C59.9204 304.361 60.3224 303.059 61.1265 302.094C61.9367 301.129 63.0221 300.646 64.3828 300.646C65.6569 300.646 66.665 301.067 67.4072 301.908C68.1494 302.743 68.5205 303.847 68.5205 305.22V306.194H61.5161C61.547 307.388 61.847 308.294 62.416 308.913C62.9912 309.531 63.7983 309.84 64.8374 309.84C65.9321 309.84 67.0145 309.611 68.0845 309.154V310.527C67.5402 310.762 67.0238 310.929 66.5352 311.028C66.0527 311.133 65.4683 311.186 64.7817 311.186ZM64.3643 301.936C63.5479 301.936 62.8953 302.202 62.4067 302.734C61.9243 303.266 61.6398 304.002 61.5532 304.942H66.8691C66.8691 303.971 66.6527 303.229 66.2197 302.715C65.7868 302.196 65.1683 301.936 64.3643 301.936Z" fill="black" fill-opacity="0.65"/>
<path d="M240.515 284.5C240.243 284.052 240.087 283.526 240.087 282.963C240.087 281.327 241.41 280 243.043 280C244.676 280 246 281.327 246 282.963C246 284.6 244.676 285.927 243.043 285.927C242.399 285.927 241.804 285.721 241.318 285.37L151.293 368.842C151.184 368.944 151.041 369 150.892 369H0.591339C0.264755 369 0 368.735 0 368.407C0 368.08 0.264755 367.815 0.591339 367.815H150.66L240.515 284.5Z" fill="url(#paint4_radial)"/>
<path d="M7.12305 99L20.1426 70.877H3.01953V67.5898H23.9238V70.4473L11.0762 99H7.12305ZM50.457 91.7812H45.7949V99H42.3789V91.7812H27.1035V88.666L42.0137 67.418H45.7949V88.5371H50.457V91.7812ZM42.3789 88.5371V78.0957C42.3789 76.0475 42.4505 73.7344 42.5938 71.1562H42.4219C41.7344 72.5312 41.0898 73.6699 40.4883 74.5723L30.6699 88.5371H42.3789ZM54.625 96.7227C54.625 95.763 54.8398 95.0397 55.2695 94.5527C55.7135 94.0514 56.3438 93.8008 57.1602 93.8008C57.9909 93.8008 58.6354 94.0514 59.0938 94.5527C59.5664 95.0397 59.8027 95.763 59.8027 96.7227C59.8027 97.6536 59.5664 98.3698 59.0938 98.8711C58.6211 99.3724 57.9766 99.623 57.1602 99.623C56.4297 99.623 55.821 99.401 55.334 98.957C54.8613 98.4987 54.625 97.7539 54.625 96.7227ZM78.4512 99H74.9707V76.6133C74.9707 74.7513 75.028 72.9896 75.1426 71.3281C74.8418 71.6289 74.5052 71.944 74.1328 72.2734C73.7604 72.6029 72.056 73.9993 69.0195 76.4629L67.1289 74.0137L75.4434 67.5898H78.4512V99ZM93.4688 76.957C93.4688 79.3919 93.7337 81.2181 94.2637 82.4355C94.7936 83.653 95.653 84.2617 96.8418 84.2617C99.1908 84.2617 100.365 81.8268 100.365 76.957C100.365 72.1159 99.1908 69.6953 96.8418 69.6953C95.653 69.6953 94.7936 70.2969 94.2637 71.5C93.7337 72.7031 93.4688 74.5221 93.4688 76.957ZM103.309 76.957C103.309 80.2227 102.757 82.6934 101.654 84.3691C100.566 86.0306 98.9616 86.8613 96.8418 86.8613C94.8366 86.8613 93.2754 86.0091 92.1582 84.3047C91.0553 82.6003 90.5039 80.151 90.5039 76.957C90.5039 73.7057 91.0339 71.2565 92.0938 69.6094C93.168 67.9622 94.7507 67.1387 96.8418 67.1387C98.9186 67.1387 100.516 67.9909 101.633 69.6953C102.75 71.3997 103.309 73.8203 103.309 76.957ZM112.375 89.5469C112.375 91.9961 112.64 93.8294 113.17 95.0469C113.7 96.25 114.566 96.8516 115.77 96.8516C116.973 96.8516 117.861 96.2572 118.434 95.0684C119.007 93.8652 119.293 92.0247 119.293 89.5469C119.293 87.0977 119.007 85.2858 118.434 84.1113C117.861 82.9225 116.973 82.3281 115.77 82.3281C114.566 82.3281 113.7 82.9225 113.17 84.1113C112.64 85.2858 112.375 87.0977 112.375 89.5469ZM122.236 89.5469C122.236 92.7982 121.685 95.2617 120.582 96.9375C119.493 98.599 117.889 99.4297 115.77 99.4297C113.736 99.4297 112.167 98.5775 111.064 96.873C109.976 95.1686 109.432 92.7266 109.432 89.5469C109.432 86.2956 109.962 83.8464 111.021 82.1992C112.096 80.5521 113.678 79.7285 115.77 79.7285C117.803 79.7285 119.386 80.5736 120.518 82.2637C121.663 83.9395 122.236 86.3672 122.236 89.5469ZM116.693 67.5898L99.2695 99H96.1113L113.535 67.5898H116.693Z" fill="#52AFEE"/>
<path d="M11.3906 52L9.70215 47.686H4.26562L2.5957 52H1L6.3623 38.3809H7.68896L13.0234 52H11.3906ZM9.21045 46.2666L7.6333 42.064C7.4292 41.5321 7.21891 40.8796 7.00244 40.1064C6.86637 40.7002 6.67155 41.3527 6.41797 42.064L4.82227 46.2666H9.21045ZM17.9404 50.9146C18.2126 50.9146 18.4754 50.896 18.729 50.8589C18.9826 50.8156 19.1836 50.7723 19.332 50.729V51.9072C19.165 51.9876 18.9176 52.0526 18.5898 52.1021C18.2682 52.1577 17.9775 52.1855 17.7178 52.1855C15.751 52.1855 14.7676 51.1496 14.7676 49.0776V43.0288H13.311V42.2866L14.7676 41.6465L15.417 39.4756H16.3076V41.832H19.2578V43.0288H16.3076V49.0127C16.3076 49.625 16.453 50.0951 16.7437 50.4229C17.0343 50.7507 17.4333 50.9146 17.9404 50.9146ZM38.3135 45.1997C38.3135 46.9377 37.964 48.3818 37.2651 49.5322C36.5662 50.6826 35.5798 51.4619 34.3057 51.8701L37.5342 55.2285H35.2427L32.5986 52.167L32.0884 52.1855C30.0907 52.1855 28.5475 51.5763 27.459 50.3579C26.3766 49.1333 25.8354 47.4077 25.8354 45.1812C25.8354 42.9731 26.3797 41.263 27.4683 40.0508C28.5568 38.8324 30.103 38.2231 32.1069 38.2231C34.0552 38.2231 35.5767 38.8416 36.6714 40.0786C37.7661 41.3156 38.3135 43.0226 38.3135 45.1997ZM27.5054 45.1997C27.5054 47.0366 27.895 48.4313 28.6743 49.3838C29.4598 50.3301 30.5978 50.8032 32.0884 50.8032C33.5913 50.8032 34.7262 50.3301 35.4932 49.3838C36.2601 48.4375 36.6436 47.0428 36.6436 45.1997C36.6436 43.3752 36.2601 41.9928 35.4932 41.0527C34.7324 40.1064 33.6037 39.6333 32.1069 39.6333C30.604 39.6333 29.4598 40.1095 28.6743 41.062C27.895 42.0083 27.5054 43.3875 27.5054 45.1997ZM42.5625 41.832V48.4282C42.5625 49.257 42.7511 49.8755 43.1284 50.2837C43.5057 50.6919 44.0964 50.896 44.9004 50.896C45.9642 50.896 46.7404 50.6053 47.229 50.0239C47.7238 49.4425 47.9712 48.4932 47.9712 47.1758V41.832H49.5112V52H48.2402L48.0176 50.6362H47.9341C47.6187 51.1372 47.1795 51.5207 46.6167 51.7866C46.0601 52.0526 45.423 52.1855 44.7056 52.1855C43.4686 52.1855 42.5409 51.8918 41.9224 51.3042C41.3101 50.7166 41.0039 49.7765 41.0039 48.4839V41.832H42.5625ZM61.5625 46.9067C61.5625 48.5643 61.145 49.86 60.3101 50.7939C59.4751 51.7217 58.3216 52.1855 56.8496 52.1855C55.9404 52.1855 55.1333 51.9722 54.4282 51.5454C53.7231 51.1187 53.1789 50.5063 52.7954 49.7085C52.4119 48.9106 52.2202 47.9767 52.2202 46.9067C52.2202 45.2492 52.6346 43.9596 53.4634 43.0381C54.2922 42.1104 55.4425 41.6465 56.9146 41.6465C58.3371 41.6465 59.4658 42.1196 60.3008 43.0659C61.1419 44.0122 61.5625 45.2925 61.5625 46.9067ZM53.8159 46.9067C53.8159 48.2056 54.0757 49.1951 54.5952 49.8755C55.1147 50.5558 55.8786 50.896 56.8867 50.896C57.8949 50.896 58.6587 50.5589 59.1782 49.8848C59.7039 49.2044 59.9668 48.2118 59.9668 46.9067C59.9668 45.6141 59.7039 44.6338 59.1782 43.9658C58.6587 43.2917 57.8887 42.9546 56.8682 42.9546C55.86 42.9546 55.0993 43.2855 54.5859 43.9473C54.0726 44.609 53.8159 45.5955 53.8159 46.9067ZM67.5557 50.9146C67.8278 50.9146 68.0907 50.896 68.3442 50.8589C68.5978 50.8156 68.7988 50.7723 68.9473 50.729V51.9072C68.7803 51.9876 68.5329 52.0526 68.2051 52.1021C67.8835 52.1577 67.5928 52.1855 67.333 52.1855C65.3662 52.1855 64.3828 51.1496 64.3828 49.0776V43.0288H62.9263V42.2866L64.3828 41.6465L65.0322 39.4756H65.9229V41.832H68.873V43.0288H65.9229V49.0127C65.9229 49.625 66.0682 50.0951 66.3589 50.4229C66.6496 50.7507 67.0485 50.9146 67.5557 50.9146ZM75.2837 52.1855C73.7808 52.1855 72.5933 51.7279 71.7212 50.8125C70.8553 49.8971 70.4224 48.6261 70.4224 46.9995C70.4224 45.3605 70.8244 44.0586 71.6284 43.0938C72.4386 42.1289 73.5241 41.6465 74.8848 41.6465C76.1589 41.6465 77.167 42.0671 77.9092 42.9082C78.6514 43.7432 79.0225 44.8472 79.0225 46.2202V47.1943H72.0181C72.049 48.388 72.349 49.2941 72.918 49.9126C73.4932 50.5311 74.3003 50.8403 75.3394 50.8403C76.4341 50.8403 77.5164 50.6115 78.5864 50.1538V51.5269C78.0422 51.7619 77.5257 51.9289 77.0371 52.0278C76.5547 52.133 75.9702 52.1855 75.2837 52.1855ZM74.8662 42.936C74.0498 42.936 73.3973 43.202 72.9087 43.7339C72.4263 44.2658 72.1418 45.0018 72.0552 45.9419H77.3711C77.3711 44.9709 77.1546 44.2287 76.7217 43.7153C76.2887 43.1958 75.6702 42.936 74.8662 42.936Z" fill="black" fill-opacity="0.65"/>
<path d="M240.515 105.5C240.243 105.948 240.087 106.474 240.087 107.037C240.087 108.673 241.41 110 243.043 110C244.676 110 246 108.673 246 107.037C246 105.4 244.676 104.073 243.043 104.073C242.399 104.073 241.804 104.279 241.318 104.63L151.293 21.1576C151.184 21.0563 151.041 21 150.892 21H0.591339C0.264755 21 0 21.2654 0 21.5927C0 21.92 0.264755 22.1853 0.591339 22.1853H150.66L240.515 105.5Z" fill="url(#paint5_radial)"/>
<defs>
<filter id="filter0_d" x="160.382" y="20.3818" width="318.38" height="318.38" filterUnits="userSpaceOnUse" color-interpolation-filters="sRGB">
<feFlood flood-opacity="0" result="BackgroundImageFix"/>
<feColorMatrix in="SourceAlpha" type="matrix" values="0 0 0 0 0 0 0 0 0 0 0 0 0 0 0 0 0 0 127 0"/>
<feOffset dx="-2"/>
<feGaussianBlur stdDeviation="3.5"/>
<feColorMatrix type="matrix" values="0 0 0 0 0 0 0 0 0 0 0 0 0 0 0 0 0 0 0.29 0"/>
<feBlend mode="normal" in2="BackgroundImageFix" result="effect1_dropShadow"/>
<feBlend mode="normal" in="SourceGraphic" in2="effect1_dropShadow" result="shape"/>
</filter>
<filter id="filter1_d" x="286.879" y="226.458" width="96.3165" height="129.299" filterUnits="userSpaceOnUse" color-interpolation-filters="sRGB">
<feFlood flood-opacity="0" result="BackgroundImageFix"/>
<feColorMatrix in="SourceAlpha" type="matrix" values="0 0 0 0 0 0 0 0 0 0 0 0 0 0 0 0 0 0 127 0"/>
<feOffset/>
<feGaussianBlur stdDeviation="12"/>
<feColorMatrix type="matrix" values="0 0 0 0 0 0 0 0 0 0 0 0 0 0 0 0 0 0 0.25 0"/>
<feBlend mode="normal" in2="BackgroundImageFix" result="effect1_dropShadow"/>
<feBlend mode="normal" in="SourceGraphic" in2="effect1_dropShadow" result="shape"/>
</filter>
<filter id="filter2_d" x="148.182" y="169.528" width="192.308" height="185.861" filterUnits="userSpaceOnUse" color-interpolation-filters="sRGB">
<feFlood flood-opacity="0" result="BackgroundImageFix"/>
<feColorMatrix in="SourceAlpha" type="matrix" values="0 0 0 0 0 0 0 0 0 0 0 0 0 0 0 0 0 0 127 0"/>
<feOffset/>
<feGaussianBlur stdDeviation="12"/>
<feColorMatrix type="matrix" values="0 0 0 0 0 0 0 0 0 0 0 0 0 0 0 0 0 0 0.4 0"/>
<feBlend mode="normal" in2="BackgroundImageFix" result="effect1_dropShadow"/>
<feBlend mode="normal" in="SourceGraphic" in2="effect1_dropShadow" result="shape"/>
</filter>
<linearGradient id="paint0_linear" x1="156.5" y1="-94" x2="587" y2="466.5" gradientUnits="userSpaceOnUse">
<stop stop-color="#D9D9D9"/>
<stop offset="0.952648" stop-color="#F7F7F7"/>
</linearGradient>
<linearGradient id="paint1_linear" x1="268.099" y1="216.862" x2="398.925" y2="221.49" gradientUnits="userSpaceOnUse">
<stop offset="0.101471" stop-color="#F7B733"/>
<stop offset="0.736165" stop-color="#FC4A1A"/>
</linearGradient>
<linearGradient id="paint2_linear" x1="171.567" y1="198.104" x2="319.391" y2="196.26" gradientUnits="userSpaceOnUse">
<stop stop-color="#0AB157"/>
<stop offset="1" stop-color="#19C96A"/>
</linearGradient>
<radialGradient id="paint3_radial" cx="0" cy="0" r="1" gradientUnits="userSpaceOnUse" gradientTransform="translate(316.28 290.396) rotate(27.3171) scale(126.761 120.718)">
<stop offset="0.441269" stop-color="#0B1937"/>
</radialGradient>
<radialGradient id="paint4_radial" cx="0" cy="0" r="1" gradientUnits="userSpaceOnUse" gradientTransform="translate(262.72 290.396) rotate(152.683) scale(126.761 120.718)">
<stop offset="0.441269" stop-color="#0B1937"/>
</radialGradient>
<radialGradient id="paint5_radial" cx="0" cy="0" r="1" gradientUnits="userSpaceOnUse" gradientTransform="translate(262.72 99.6039) rotate(-152.683) scale(126.761 120.718)">
<stop offset="0.441269" stop-color="#0B1937"/>
</radialGradient>
</defs>
</svg>
