<svg width="74" height="74" viewBox="0 0 74 74" fill="none" xmlns="http://www.w3.org/2000/svg">
<path d="M27.8082 22.107H24.3176V15.824C24.3176 15.4749 23.9685 15.1259 23.6195 15.1259C23.2704 15.1259 22.9214 15.4749 22.9214 15.824V22.107H19.4308C19.0818 22.107 18.7327 22.456 18.7327 22.8051V45.6101C18.7327 45.9592 19.0818 46.3082 19.4308 46.3082H22.9214V70.5095C22.9214 70.8586 23.2704 71.2076 23.6195 71.2076C23.9685 71.2076 24.3176 70.8586 24.3176 70.5095V46.3082H27.8082C28.1572 46.3082 28.5063 45.9592 28.5063 45.6101V22.8051C28.5063 22.456 28.2736 22.107 27.8082 22.107ZM27.1101 44.912H20.1289V23.5032H27.1101V44.912Z" fill="#52AFEE"/>
<path d="M41.4214 38.8616H37.9308V32.5786C37.9308 32.2296 37.5818 31.8805 37.2327 31.8805C36.8836 31.8805 36.5346 32.2296 36.5346 32.5786V38.8616H33.044C32.695 38.8616 32.3459 39.2107 32.3459 39.5597V53.8711C32.3459 54.2201 32.695 54.5692 33.044 54.5692H36.7673V60.9685C36.7673 61.3176 37.1163 61.6667 37.4654 61.6667C37.8145 61.6667 38.1635 61.3176 38.1635 60.9685V54.5692H41.4214C41.7704 54.5692 42.1195 54.2201 42.1195 53.8711V39.5597C42.1195 39.2107 41.8868 38.8616 41.4214 38.8616ZM40.7233 53.1729H33.7421V40.2579H40.7233V53.1729Z" fill="#52AFEE"/>
<path d="M54.5692 23.7359H51.0786V3.49059C51.0786 3.14154 50.7296 2.79248 50.3805 2.79248C50.0315 2.79248 49.6824 3.02518 49.6824 3.49059V23.8522H46.1918C45.8428 23.8522 45.4937 24.2013 45.4937 24.5503V38.8617C45.4937 39.2107 45.8428 39.5598 46.1918 39.5598H49.9151V45.9591C49.9151 46.3082 50.2642 46.6573 50.6132 46.6573C50.9623 46.6573 51.3113 46.3082 51.3113 45.9591V39.5598H54.5692C54.9182 39.5598 55.2673 39.2107 55.2673 38.8617V24.434C55.2673 24.0849 54.9182 23.7359 54.5692 23.7359ZM53.8711 38.1635H46.8899V25.1321H53.8711V38.1635Z" fill="#52AFEE"/>
<path d="M62.8302 63.1792C62.5975 63.1792 62.4811 63.0629 62.3648 62.9465C62.1321 62.7138 62.1321 62.2484 62.3648 62.0157C68.9968 55.2673 72.6038 46.4245 72.6038 37C72.6038 17.3365 56.6635 1.39623 37 1.39623C29.6698 1.39623 22.6887 3.60692 16.7547 7.67924C16.4057 7.91195 16.0566 7.7956 15.8239 7.44654C15.5912 7.09748 15.7075 6.74843 16.0566 6.51572C22.1069 2.32704 29.4371 0 37 0C57.3616 0 74 16.6384 74 37C74 46.7736 70.2767 55.9654 63.4119 62.9465C63.1792 63.0629 63.0629 63.1792 62.8302 63.1792Z" fill="black"/>
<path d="M37 73.9999C16.6384 73.9999 0 57.3616 0 36.9999C0 26.6446 4.30503 16.7547 11.9843 9.77353C12.217 9.54082 12.6824 9.54082 12.9151 9.77353C13.1478 10.0062 13.1478 10.4716 12.9151 10.7043C5.58491 17.4528 1.39623 26.9937 1.39623 36.8836C1.39623 56.5471 17.3365 72.4874 37 72.4874C44.9119 72.4874 52.3585 69.9276 58.5252 65.2735C58.8742 65.0408 59.2233 65.0408 59.456 65.3899C59.6887 65.7389 59.5723 66.088 59.3396 66.3207C52.9403 71.4402 45.1447 73.9999 37 73.9999Z" fill="black"/>
<path d="M12.6824 18.151C12.3333 18.151 11.9843 17.8019 11.9843 17.4529V10.8208H5.23585C4.88679 10.8208 4.53773 10.4717 4.53773 10.1227C4.53773 9.77362 4.88679 9.42456 5.23585 9.42456H12.566C12.9151 9.42456 13.2641 9.77362 13.2641 10.1227V17.4529C13.3805 17.8019 13.0314 18.151 12.6824 18.151Z" fill="black"/>
<path d="M70.1604 63.1793H62.8302C62.4811 63.1793 62.1321 62.8302 62.1321 62.4812V55.151C62.1321 54.8019 62.4811 54.4529 62.8302 54.4529C63.1792 54.4529 63.5283 54.8019 63.5283 55.151V61.7831H70.1604C70.5094 61.7831 70.8585 62.1321 70.8585 62.4812C70.8585 62.8302 70.5094 63.1793 70.1604 63.1793Z" fill="black"/>
</svg>
