<svg width="74" height="71" viewBox="0 0 74 71" fill="none" xmlns="http://www.w3.org/2000/svg">
<g clip-path="url(#clip0)">
<path d="M69.4011 32.8192C69.0876 32.8192 68.8785 32.6102 68.774 32.2966C67.5198 23.935 63.2345 16.5141 56.4407 11.3927C47.9746 4.91243 37 3.1356 26.9661 6.48023C26.6525 6.58475 26.2345 6.37571 26.1299 6.06215C26.0254 5.74859 26.2345 5.33051 26.548 5.22599C37 1.77684 48.3927 3.6582 57.1723 10.2429C64.1751 15.5735 68.6695 23.3079 69.9237 31.9831C70.0282 32.4011 69.8192 32.7147 69.4011 32.8192C69.4011 32.7147 69.4011 32.8192 69.4011 32.8192Z" fill="black"/>
<path d="M37.1045 70.0282C29.9972 70.0282 22.8898 67.7287 17.0367 63.2344C9.61583 57.6948 4.91244 49.2287 4.07628 39.9265C4.07628 39.6129 4.28532 39.2993 4.59888 39.1948C4.91244 39.1948 5.226 39.4039 5.33052 39.7174C6.16667 48.6016 10.7655 56.7541 17.8729 62.1892C27.1751 69.192 39.5085 70.6553 50.1695 65.9519C50.4831 65.8474 50.9011 65.9519 51.0057 66.2654C51.1102 66.579 51.0057 66.9971 50.6921 67.1016C46.3023 69.0875 41.7034 70.0282 37.1045 70.0282Z" fill="black"/>
<path d="M0.668287 45.0892C0.563767 45.0892 0.354727 45.0892 0.250207 44.9847C-0.0633519 44.7757 -0.0633518 44.3576 0.145688 44.1486L4.11744 38.9226C4.32648 38.609 4.74456 38.609 4.9536 38.818L10.1796 42.7898C10.4931 42.9988 10.4931 43.4169 10.2841 43.626C10.0751 43.9395 9.65699 43.9395 9.44795 43.7305L4.64004 40.0723L0.981846 44.8802C1.08637 44.9847 0.877326 45.0892 0.668287 45.0892Z" fill="black"/>
<path d="M69.4011 32.8192C69.2966 32.8192 69.0876 32.8192 68.983 32.7147L63.7571 28.7429C63.4435 28.5339 63.4435 28.1158 63.6525 27.9068C63.8616 27.5932 64.2797 27.5932 64.4887 27.8023L69.2966 31.4605L72.9548 26.6526C73.1638 26.339 73.5819 26.339 73.791 26.548C74.1045 26.7571 74.1045 27.1752 73.8955 27.3842L69.9237 32.6102C69.8192 32.7147 69.6102 32.8192 69.4011 32.8192C69.5056 32.8192 69.4011 32.8192 69.4011 32.8192Z" fill="black"/>
<path d="M34.0734 24.9802H30.9378V19.3361C30.9378 19.0225 30.6243 18.709 30.3107 18.709C29.9972 18.709 29.6836 19.0225 29.6836 19.3361V24.9802H26.548C26.2345 24.9802 25.9209 25.2937 25.9209 25.6073V46.0932C25.9209 46.4067 26.2345 46.7203 26.548 46.7203H29.6836V52.4689C29.6836 52.7824 29.9972 53.096 30.3107 53.096C30.6243 53.096 30.9378 52.7824 30.9378 52.4689V46.7203H34.0734C34.387 46.7203 34.7006 46.4067 34.7006 46.0932V25.6073C34.7006 25.2937 34.387 24.9802 34.0734 24.9802ZM33.4463 45.466H27.1751V26.2344H33.4463V45.466Z" fill="#52AFEE"/>
<path d="M21.5311 7.52542H17.6638V0.627119C17.6638 0.313559 17.3503 0 17.0367 0C16.7232 0 16.4096 0.313559 16.4096 0.627119V7.52542H12.5424C12.2288 7.52542 11.9153 7.83898 11.9153 8.15254V32.5056C11.9153 32.8192 12.2288 33.1328 12.5424 33.1328H16.4096V40.1356C16.4096 40.4492 16.7232 40.7627 17.0367 40.7627C17.3503 40.7627 17.6638 40.4492 17.6638 40.1356V33.1328H21.5311C21.8446 33.1328 22.1582 32.8192 22.1582 32.5056V8.15254C22.1582 7.73446 21.8446 7.52542 21.5311 7.52542ZM20.904 31.8785H13.1695V8.77966H20.904V31.8785Z" fill="#52AFEE"/>
<path d="M47.0339 15.6779H43.8983V10.0339C43.8983 9.61578 43.5847 9.40674 43.2712 9.40674C42.9576 9.40674 42.6441 9.7203 42.6441 10.0339V15.6779H39.5085C39.1949 15.6779 38.8813 15.9915 38.8813 16.305V29.161C38.8813 29.4745 39.1949 29.7881 39.5085 29.7881H42.8531V35.5367C42.8531 35.8502 43.1667 36.1638 43.4802 36.1638C43.7938 36.1638 44.1073 35.8502 44.1073 35.5367V29.7881H47.0339C47.3474 29.7881 47.661 29.4745 47.661 29.161V16.305C47.661 15.887 47.452 15.6779 47.0339 15.6779ZM46.4068 28.5339H40.1356V16.9322H46.4068V28.5339Z" fill="#52AFEE"/>
<path d="M59.3672 43.2711C59.2627 41.0762 54.2458 39.9265 49.3333 39.9265C44.3164 39.9265 39.2994 41.0762 39.2994 43.2711V55.5C39.2994 57.6949 44.3164 58.8446 49.3333 58.8446C54.3503 58.8446 59.3672 57.6949 59.3672 55.5V43.2711ZM58.113 47.3474C58.113 48.0791 54.9774 49.4378 49.3333 49.4378C43.6893 49.4378 40.5537 48.0791 40.5537 47.3474V44.9435C42.3305 45.9887 45.8842 46.6158 49.3333 46.6158C52.7825 46.6158 56.3362 46.0932 58.113 44.9435V47.3474ZM40.4492 49.1243C42.226 50.1694 45.7797 50.7966 49.2288 50.7966C52.678 50.7966 56.2316 50.274 58.0085 49.1243V51.5282C58.0085 52.2598 54.8729 53.6186 49.2288 53.6186C43.5847 53.6186 40.4492 52.2598 40.4492 51.5282V49.1243ZM49.3333 41.1808C55.0819 41.1808 58.113 42.5395 58.113 43.2711C58.113 44.0028 54.9774 45.3615 49.3333 45.3615C43.6893 45.3615 40.5537 44.0028 40.5537 43.2711C40.5537 42.5395 43.5848 41.1808 49.3333 41.1808ZM49.3333 57.5904C43.5848 57.5904 40.5537 56.2316 40.5537 55.5V53.096C42.3305 54.1412 45.8842 54.7683 49.3333 54.7683C52.7825 54.7683 56.3362 54.2457 58.113 53.096V55.5C58.113 56.2316 54.9774 57.5904 49.3333 57.5904Z" fill="#52AFEE"/>
</g>
<defs>
<clipPath id="clip0">
<rect width="74" height="70.0282" fill="white"/>
</clipPath>
</defs>
</svg>
