<svg width="74" height="74" viewBox="0 0 74 74" fill="none" xmlns="http://www.w3.org/2000/svg">
<g clip-path="url(#clip0)">
<path d="M29.0014 48.6108C29.0014 48.3012 28.6918 47.9916 28.3822 47.9916H7.32776C7.01813 47.9916 6.70851 48.3012 6.70851 48.6108C6.70851 48.9204 7.01813 49.2301 7.32776 49.2301H28.4854C28.795 49.2301 29.0014 48.9204 29.0014 48.6108Z" fill="#52AFEE"/>
<path d="M7.32776 32.7169H28.4854C28.795 32.7169 29.1046 32.4073 29.1046 32.0976C29.1046 31.788 28.795 31.4784 28.4854 31.4784H7.32776C7.01813 31.4784 6.70851 31.788 6.70851 32.0976C6.70851 32.4073 6.91493 32.7169 7.32776 32.7169Z" fill="#52AFEE"/>
<path d="M29.0014 40.3542C29.0014 40.0446 28.6918 39.735 28.3821 39.735H0.619247C0.309623 39.735 0 40.0446 0 40.3542C0 40.6639 0.309623 40.9735 0.619247 40.9735H28.3821C28.795 40.9735 29.0014 40.6639 29.0014 40.3542Z" fill="#52AFEE"/>
<path d="M28.3821 56.2482H12.5914C12.2817 56.2482 11.9721 56.5578 11.9721 56.8674C11.9721 57.177 12.2817 57.4867 12.5914 57.4867H28.4854C28.795 57.4867 29.1046 57.177 29.1046 56.8674C29.1046 56.5578 28.795 56.2482 28.3821 56.2482Z" fill="#52AFEE"/>
<path d="M28.3821 23.2217H12.5914C12.2817 23.2217 11.9721 23.5313 11.9721 23.8409C11.9721 24.1506 12.2817 24.4602 12.5914 24.4602H28.4854C28.795 24.4602 29.1046 24.1506 29.1046 23.8409C29.1046 23.5313 28.795 23.2217 28.3821 23.2217Z" fill="#52AFEE"/>
<path d="M23.1185 16.2036H28.3821C28.6918 16.2036 29.0014 15.894 29.0014 15.5843C29.0014 15.2747 28.6918 14.9651 28.3821 14.9651H23.1185C22.8089 14.9651 22.4993 15.2747 22.4993 15.5843C22.4993 15.894 22.8089 16.2036 23.1185 16.2036Z" fill="#52AFEE"/>
<path d="M28.3821 64.5049H23.1185C22.8089 64.5049 22.4993 64.8145 22.4993 65.1241C22.4993 65.4338 22.8089 65.7434 23.1185 65.7434H28.3821C28.6918 65.7434 29.0014 65.4338 29.0014 65.1241C29.0014 64.8145 28.795 64.5049 28.3821 64.5049Z" fill="#52AFEE"/>
<path d="M73.3808 40.9735H67.0851C66.7755 40.9735 66.4658 40.6639 66.4658 40.3542C66.4658 40.0446 66.7755 39.735 67.0851 39.735H73.484C73.7936 39.735 74.1032 40.0446 74.1032 40.3542C74.1032 40.6639 73.7936 40.9735 73.3808 40.9735Z" fill="#52AFEE"/>
<path d="M40.5607 14.5523C40.251 14.5523 39.9414 14.2427 39.9414 13.933V7.53416C39.9414 7.22454 40.251 6.91492 40.5607 6.91492C40.8703 6.91492 41.1799 7.22454 41.1799 7.53416V13.933C41.1799 14.2427 40.9735 14.5523 40.5607 14.5523Z" fill="#52AFEE"/>
<path d="M40.5607 73.7936C40.251 73.7936 39.9414 73.484 39.9414 73.1744V66.7755C39.9414 66.4659 40.251 66.1562 40.5607 66.1562C40.8703 66.1562 41.1799 66.4659 41.1799 66.7755V73.1744C41.1799 73.484 40.9735 73.7936 40.5607 73.7936Z" fill="#52AFEE"/>
<path d="M69.046 57.2804C68.9428 57.2804 68.8396 57.2804 68.7364 57.1772L63.1632 53.9777C62.8536 53.7713 62.7504 53.4617 62.9568 53.1521C63.1632 52.8424 63.4728 52.7392 63.7824 52.9456L69.3557 56.1451C69.6653 56.3515 69.7685 56.6611 69.5621 56.9708C69.4589 57.1772 69.2524 57.2804 69.046 57.2804Z" fill="#000105"/>
<path d="M53.7713 18.0614C53.6681 18.0614 53.5649 18.0614 53.4616 17.9582C53.152 17.7518 53.0488 17.4421 53.2552 17.1325L56.4547 11.5593C56.6611 11.2497 56.9707 11.1465 57.2803 11.3529C57.59 11.5593 57.6932 11.8689 57.4868 12.1785L54.2873 17.7518C54.1841 17.9582 53.9777 18.0614 53.7713 18.0614Z" fill="#000105"/>
<path d="M56.6611 69.5621C56.4547 69.5621 56.2483 69.4589 56.145 69.2525L53.0488 63.6793C52.8424 63.3696 52.9456 62.9568 53.2552 62.8536C53.5648 62.6472 53.9777 62.7504 54.0809 63.06L57.1771 68.6332C57.3835 68.9429 57.2803 69.3557 56.9707 69.4589C56.8675 69.5621 56.7643 69.5621 56.6611 69.5621Z" fill="#000105"/>
<path d="M63.6792 28.0726C63.4728 28.0726 63.2664 27.9693 63.1632 27.7629C62.9568 27.4533 63.06 27.0405 63.3696 26.9373L68.9428 23.841C69.2524 23.6346 69.6653 23.7378 69.7685 24.0474C69.9749 24.3571 69.8717 24.7699 69.5621 24.8731L63.9888 27.9693C63.8856 28.0726 63.7824 28.0726 63.6792 28.0726Z" fill="#000105"/>
<path d="M41.7992 8.05021H39.3222C39.0125 8.05021 38.7029 7.74058 38.7029 7.43096V3.50907H35.0907C34.781 3.50907 34.4714 3.19944 34.4714 2.88982V0.619247C34.4714 0.309623 34.6778 0 35.0907 0H46.2371C46.5467 0 46.8563 0.309623 46.8563 0.619247V2.88982C46.8563 3.19944 46.5467 3.50907 46.2371 3.50907H42.5216V7.43096C42.5216 7.63738 42.4184 7.74059 42.3152 7.84379C42.1088 7.947 42.0056 8.05021 41.7992 8.05021ZM39.9414 6.81171H41.1799V2.88982C41.1799 2.58019 41.4895 2.27057 41.7992 2.27057H45.5146V1.23849H35.6067V2.27057H39.219C39.5286 2.27057 39.8382 2.58019 39.8382 2.88982V6.81171H39.9414Z" fill="black"/>
<path d="M39.0126 45.205C38.1869 45.205 37.3612 44.8954 36.742 44.2761C35.5035 43.0376 35.5035 40.9735 36.742 39.735C37.7741 38.7029 52.1199 27.9693 52.636 27.5565C52.8424 27.35 53.2552 27.35 53.4616 27.6597C53.6681 27.8661 53.6681 28.1757 53.5649 28.4853C53.152 28.8982 42.4184 43.244 41.3863 44.2761C40.7671 44.8954 39.9414 45.205 39.0126 45.205ZM49.9526 31.0655C45.1018 34.781 38.2901 39.9414 37.6709 40.5606C36.8452 41.3863 36.8452 42.6248 37.6709 43.3473C38.3933 44.0697 39.735 44.0697 40.4575 43.3473C41.0767 42.728 46.2371 36.0195 49.9526 31.0655Z" fill="#52AFEE"/>
<path d="M40.5607 73.1743C36.5356 73.1743 32.5105 72.4518 28.795 71.0069C28.4854 70.9037 28.2789 70.4909 28.4854 70.1813C28.5886 69.8716 29.0014 69.6652 29.311 69.8716C32.9233 71.2133 36.742 71.9358 40.6639 71.9358C58.106 71.9358 72.2455 57.7963 72.2455 40.3542C72.2455 22.9121 58.0028 8.77261 40.5607 8.77261C36.6388 8.77261 32.8201 9.49507 29.1046 10.94C28.795 11.0432 28.3821 10.94 28.2789 10.6304C28.1757 10.3207 28.2789 9.9079 28.5886 9.80469C32.4073 8.35978 36.3291 7.63733 40.4575 7.63733C58.5188 7.63733 73.2775 22.396 73.2775 40.4574C73.2775 58.5188 58.7252 73.1743 40.5607 73.1743Z" fill="black"/>
</g>
<defs>
<clipPath id="clip0">
<rect width="74" height="73.7936" fill="white"/>
</clipPath>
</defs>
</svg>
