<svg width="72" height="72" viewBox="0 0 72 72" fill="none" xmlns="http://www.w3.org/2000/svg">
<g clip-path="url(#clip0)">
<path d="M32.9079 62.623C27.9663 62.0363 23.2938 60.0602 19.4354 56.925C15.5771 53.7899 12.6919 49.6251 11.1164 44.9164C9.54093 40.2077 9.34016 35.1492 10.5375 30.3309C11.7348 25.5127 14.2809 21.1334 17.8787 17.7038" stroke="black" stroke-width="1.2" stroke-linecap="round" stroke-linejoin="round"/>
<path d="M17.7657 17.6106C17.7657 17.6106 20.0964 14.5474 19.2704 11.9313C18.4445 9.31513 14.7748 8.13677 14.7748 8.13677C14.7748 8.13677 12.4441 11.2 13.2701 13.8161C14.096 16.4323 17.7657 17.6106 17.7657 17.6106Z" stroke="black" stroke-width="1.2" stroke-linecap="round" stroke-linejoin="round"/>
<path d="M11.8948 25.7107C11.8948 25.7107 13.227 22.1021 11.6712 19.8406C10.1153 17.5791 6.26059 17.5211 6.26059 17.5211C6.26059 17.5211 4.92838 21.1297 6.48423 23.3912C8.04007 25.6527 11.8948 25.7107 11.8948 25.7107Z" stroke="black" stroke-width="1.2" stroke-linecap="round" stroke-linejoin="round"/>
<path d="M9.43619 36.9121C9.43619 36.9121 9.94381 33.1001 7.92923 31.2333C5.91465 29.3666 2.14076 30.1521 2.14076 30.1521C2.14076 30.1521 1.63314 33.9642 3.64771 35.8309C5.66229 37.6976 9.43619 36.9121 9.43619 36.9121Z" stroke="black" stroke-width="1.2" stroke-linecap="round" stroke-linejoin="round"/>
<path d="M11.5155 48.0835C11.5155 48.0835 10.6868 44.3279 8.15403 43.2601C5.62126 42.1924 2.34358 44.2169 2.34358 44.2169C2.34358 44.2169 3.17232 47.9725 5.70509 49.0403C8.23786 50.108 11.5155 48.0835 11.5155 48.0835Z" stroke="black" stroke-width="1.2" stroke-linecap="round" stroke-linejoin="round"/>
<path d="M13.081 59.4127C15.8063 59.0481 17.5974 55.6427 17.5974 55.6427C17.5974 55.6427 14.9699 52.8286 12.2447 53.1933C9.51941 53.5579 7.72833 56.9633 7.72833 56.9633C7.72833 56.9633 10.3558 59.7774 13.081 59.4127Z" stroke="black" stroke-width="1.2" stroke-linecap="round" stroke-linejoin="round"/>
<path d="M24.862 67.1163C27.4062 66.076 28.2757 62.3295 28.2757 62.3295C28.2757 62.3295 25.0202 60.2698 22.4759 61.3101C19.9317 62.3504 19.0623 66.0969 19.0623 66.0969C19.0623 66.0969 22.3178 68.1566 24.862 67.1163Z" stroke="black" stroke-width="1.2" stroke-linecap="round" stroke-linejoin="round"/>
<path d="M39.0685 62.623C44.0117 62.0393 48.6865 60.0653 52.5473 56.9314C56.4082 53.7975 59.2959 49.6329 60.8735 44.9237C62.4511 40.2144 62.6535 35.1547 61.457 30.3351C60.2606 25.5154 57.7146 21.1346 54.1163 17.7038" stroke="black" stroke-width="1.2" stroke-linecap="round" stroke-linejoin="round"/>
<path d="M58.7325 13.8177C59.5584 11.2016 57.2278 8.13832 57.2278 8.13832C57.2278 8.13832 53.5581 9.31668 52.7321 11.9328C51.9062 14.5489 54.2368 17.6122 54.2368 17.6122C54.2368 17.6122 57.9066 16.4338 58.7325 13.8177Z" stroke="black" stroke-width="1.2" stroke-linecap="round" stroke-linejoin="round"/>
<path d="M65.5114 23.3875C67.0672 21.126 65.735 17.5174 65.735 17.5174C65.735 17.5174 61.8803 17.5754 60.3244 19.8369C58.7686 22.0983 60.1008 25.707 60.1008 25.707C60.1008 25.707 63.9555 25.649 65.5114 23.3875Z" stroke="black" stroke-width="1.2" stroke-linecap="round" stroke-linejoin="round"/>
<path d="M68.3523 35.8284C70.3669 33.9617 69.8592 30.1496 69.8592 30.1496C69.8592 30.1496 66.0853 29.3642 64.0708 31.2309C62.0562 33.0976 62.5638 36.9097 62.5638 36.9097C62.5638 36.9097 66.3377 37.6952 68.3523 35.8284Z" stroke="black" stroke-width="1.2" stroke-linecap="round" stroke-linejoin="round"/>
<path d="M66.2815 49.0344C68.8142 47.9667 69.643 44.211 69.643 44.211C69.643 44.211 66.3653 42.1865 63.8325 43.2543C61.2998 44.322 60.471 48.0776 60.471 48.0776C60.471 48.0776 63.7487 50.1021 66.2815 49.0344Z" stroke="black" stroke-width="1.2" stroke-linecap="round" stroke-linejoin="round"/>
<path d="M64.2668 56.9596C64.2668 56.9596 62.4758 53.5543 59.7505 53.1896C57.0252 52.825 54.3978 55.6391 54.3978 55.6391C54.3978 55.6391 56.1889 59.0444 58.9141 59.4091C61.6394 59.7737 64.2668 56.9596 64.2668 56.9596Z" stroke="black" stroke-width="1.2" stroke-linecap="round" stroke-linejoin="round"/>
<path d="M52.9381 66.0843C52.9381 66.0843 52.0686 62.3378 49.5244 61.2975C46.9802 60.2572 43.7247 62.3169 43.7247 62.3169C43.7247 62.3169 44.5941 66.0634 47.1383 67.1037C49.6825 68.144 52.9381 66.0843 52.9381 66.0843Z" stroke="black" stroke-width="1.2" stroke-linecap="round" stroke-linejoin="round"/>
<path fill-rule="evenodd" clip-rule="evenodd" d="M36.6862 25.7359L39.1057 33.1621C39.1541 33.3067 39.2464 33.4327 39.3698 33.5225C39.4932 33.6123 39.6416 33.6616 39.7944 33.6634H47.63C47.7832 33.6634 47.9324 33.7117 48.0564 33.8014C48.1804 33.8911 48.2727 34.0176 48.3202 34.1629C48.3677 34.3081 48.3679 34.4646 48.3209 34.61C48.2738 34.7554 48.1818 34.8822 48.0581 34.9723L41.7207 39.5672C41.5965 39.6564 41.5042 39.783 41.4573 39.9283C41.4104 40.0736 41.4114 40.2301 41.4602 40.3748L43.8797 47.801C43.9264 47.9463 43.9259 48.1025 43.8783 48.2475C43.8306 48.3924 43.7383 48.5187 43.6145 48.6082C43.4907 48.6977 43.3418 48.746 43.1888 48.746C43.0359 48.7461 42.8869 48.698 42.763 48.6086L36.4256 44.0136C36.3013 43.9231 36.1514 43.8743 35.9975 43.8743C35.8436 43.8743 35.6937 43.9231 35.5694 44.0136L29.2321 48.6086C29.1082 48.698 28.9591 48.7461 28.8062 48.746C28.6533 48.746 28.5043 48.6977 28.3805 48.6082C28.2567 48.5187 28.1644 48.3924 28.1168 48.2475C28.0692 48.1025 28.0687 47.9463 28.1153 47.801L30.5349 40.3748C30.5836 40.2301 30.5846 40.0736 30.5377 39.9283C30.4908 39.783 30.3985 39.6564 30.2743 39.5672L23.9369 34.9723C23.8132 34.8822 23.7213 34.7554 23.6742 34.61C23.6271 34.4646 23.6273 34.3081 23.6748 34.1629C23.7223 34.0176 23.8147 33.8911 23.9386 33.8014C24.0626 33.7117 24.2118 33.6634 24.365 33.6634H32.2007C32.3534 33.6616 32.5019 33.6123 32.6253 33.5225C32.7487 33.4327 32.841 33.3067 32.8893 33.1621L35.3089 25.7359C35.357 25.5918 35.4495 25.4663 35.5731 25.3775C35.6967 25.2886 35.8452 25.2408 35.9975 25.2408C36.1499 25.2408 36.2984 25.2886 36.422 25.3775C36.5456 25.4663 36.638 25.5918 36.6862 25.7359V25.7359Z" stroke="#52AFEE" stroke-width="1.2" stroke-miterlimit="10"/>
<path d="M35.9976 12.4869V6.18395" stroke="black" stroke-width="1.2" stroke-linecap="round" stroke-linejoin="round"/>
<path d="M43.8797 12.6819L46.1783 6.38819" stroke="black" stroke-width="1.2" stroke-linecap="round" stroke-linejoin="round"/>
<path d="M28.3666 12.6819L26.068 6.38819" stroke="black" stroke-width="1.2" stroke-linecap="round" stroke-linejoin="round"/>
<path d="M35.9976 3.09289V2.99999" stroke="black" stroke-width="1.2" stroke-linecap="round" stroke-linejoin="round"/>
</g>
<defs>
<clipPath id="clip0">
<rect width="72" height="72" fill="white"/>
</clipPath>
</defs>
</svg>
