<svg width="72" height="72" viewBox="0 0 72 72" fill="none" xmlns="http://www.w3.org/2000/svg">
<path d="M52.633 6.91002C53.1843 6.91002 53.713 7.12547 54.1028 7.50898C54.4925 7.89249 54.7115 8.41264 54.7115 8.95501V23.7403C54.8027 27.4199 53.7296 31.0366 51.6408 34.0901C49.5519 37.1436 46.9991 39.1979 43.5 40.5" stroke="black" stroke-width="1.2" stroke-linecap="round" stroke-linejoin="round"/>
<path d="M28.5 40.5C21.3708 37.9336 17.2365 31.6646 17.2365 23.7403V8.92434C17.2365 8.38197 17.4555 7.86182 17.8453 7.47831C18.2351 7.0948 18.7637 6.87935 19.315 6.87935" stroke="black" stroke-width="1.2" stroke-linecap="round" stroke-linejoin="round"/>
<path d="M32.5341 6.91002H17.4652C16.6686 6.91002 15.9047 6.59869 15.3414 6.04452C14.7782 5.49034 14.4617 4.73873 14.4617 3.95501V3.95501C14.4617 3.17129 14.7782 2.41967 15.3414 1.8655C15.9047 1.31133 16.6686 1 17.4652 1H54.4413C55.2379 1 56.0018 1.31133 56.5651 1.8655C57.1283 2.41967 57.4447 3.17129 57.4447 3.95501V3.95501C57.4447 4.73873 57.1283 5.49034 56.5651 6.04452C56.0018 6.59869 55.2379 6.91002 54.4413 6.91002H39.5698" stroke="black" stroke-width="1.2" stroke-linecap="round" stroke-linejoin="round"/>
<path d="M35.8909 6.93106V6.8282" stroke="black" stroke-width="1.2" stroke-linecap="round" stroke-linejoin="round"/>
<path d="M40.9416 39.139H30.9649C29.6276 39.139 28.5434 40.2057 28.5434 41.5214V42.6666C28.5434 43.9824 29.6276 45.0491 30.9649 45.0491H40.9416C42.2789 45.0491 43.363 43.9824 43.363 42.6666V41.5214C43.363 40.2057 42.2789 39.139 40.9416 39.139Z" stroke="black" stroke-width="1.2" stroke-linecap="round" stroke-linejoin="round"/>
<path d="M19.076 32.1452H17.4755C14.7008 32.1452 12.0395 31.0621 10.0756 29.1336C8.1116 27.2052 7.0055 24.5889 7 21.8589V12.9939C7 12.7959 7.07992 12.606 7.2222 12.4661C7.36447 12.3261 7.55744 12.2474 7.75864 12.2474H17.0183" stroke="black" stroke-width="1.2" stroke-linecap="round" stroke-linejoin="round"/>
<path d="M52.924 32.1452H54.5245C57.2991 32.1452 59.9605 31.0621 61.9244 29.1336C63.8884 27.2052 64.9945 24.5889 65 21.8589V12.9939C65 12.7959 64.9201 12.606 64.7778 12.4661C64.6355 12.3261 64.4426 12.2474 64.2413 12.2474H54.9817" stroke="black" stroke-width="1.2" stroke-linecap="round" stroke-linejoin="round"/>
<path fill-rule="evenodd" clip-rule="evenodd" d="M53.2462 71H18.6707C18.4227 71.0015 18.1776 70.9488 17.9529 70.8457C17.7282 70.7426 17.5296 70.5916 17.3715 70.4038C17.2133 70.2159 17.0996 69.9958 17.0385 69.7594C16.9774 69.523 16.9705 69.2761 17.0183 69.0368L18.7434 60.3149C18.816 59.9385 19.0196 59.5989 19.3194 59.3544C19.6191 59.1099 19.9961 58.9759 20.3854 58.9754H51.5626C51.9406 58.9916 52.302 59.1326 52.5886 59.3756C52.8752 59.6186 53.0702 59.9495 53.1423 60.3149L54.8466 69.0368C54.8936 69.2719 54.8878 69.5144 54.8297 69.7471C54.7716 69.9799 54.6625 70.1973 54.5101 70.3843C54.3576 70.5712 54.1656 70.7232 53.9473 70.8295C53.729 70.9359 53.4897 70.994 53.2462 71V71Z" stroke="black" stroke-width="1.2" stroke-linecap="round" stroke-linejoin="round"/>
<path d="M31.4533 64.8241H40.4531" stroke="black" stroke-width="1.2" stroke-linecap="round" stroke-linejoin="round"/>
<path d="M40.3596 45.0593H31.5469C31.2528 47.4587 30.6087 49.8038 29.6347 52.0225C27.7848 55.6523 22.6821 58.9754 22.6821 58.9754H49.2243" stroke="black" stroke-width="1.2" stroke-linecap="round" stroke-linejoin="round"/>
<path d="M31.5572 45.0593H40.3596C40.6542 47.4597 41.3018 49.8053 42.2822 52.0225C44.1217 55.6523 49.2243 58.9754 49.2243 58.9754H22.6821" stroke="black" stroke-width="1.2" stroke-linecap="round" stroke-linejoin="round"/>
<path fill-rule="evenodd" clip-rule="evenodd" d="M36.4105 14.7935L38.0213 19.681C38.0555 19.7763 38.1188 19.8588 38.2025 19.9174C38.2862 19.9759 38.3863 20.0076 38.489 20.0082H43.6852C43.7883 20.0058 43.8895 20.0362 43.9735 20.095C44.0576 20.1538 44.1201 20.2378 44.1517 20.3345C44.1833 20.4311 44.1822 20.5352 44.1487 20.6312C44.1152 20.7272 44.051 20.8099 43.9658 20.8671L39.7672 23.9039C39.6863 23.9643 39.6259 24.0475 39.5944 24.1425C39.5628 24.2376 39.5615 24.3398 39.5906 24.4356L41.2014 29.3231C41.2352 29.4183 41.2371 29.5216 41.2067 29.6179C41.1763 29.7141 41.1153 29.7983 41.0326 29.8578C40.9499 29.9174 40.85 29.9492 40.7476 29.9487C40.6451 29.9482 40.5455 29.9152 40.4635 29.8548L36.2338 26.8384C36.1529 26.7787 36.0544 26.7464 35.9532 26.7464C35.852 26.7464 35.7536 26.7787 35.6726 26.8384L31.4533 29.8344C31.3702 29.8917 31.271 29.9222 31.1695 29.9215C31.068 29.9208 30.9692 29.889 30.8869 29.8305C30.8046 29.772 30.7428 29.6897 30.7103 29.5952C30.6777 29.5006 30.6759 29.3983 30.7051 29.3027L32.3575 24.4151C32.3897 24.3196 32.39 24.2163 32.3582 24.1206C32.3264 24.0249 32.2642 23.9418 32.1808 23.8834L27.9199 20.8364C27.8405 20.7753 27.7823 20.6915 27.7533 20.5965C27.7242 20.5016 27.7257 20.4001 27.7576 20.306C27.7895 20.2119 27.8501 20.1299 27.9313 20.071C28.0124 20.0122 28.1101 19.9796 28.2109 19.9775H33.4071C33.5088 19.9779 33.6079 19.9464 33.6902 19.8876C33.7724 19.8287 33.8334 19.7456 33.8644 19.6503L35.4752 14.7935C35.4979 14.688 35.5568 14.5934 35.6419 14.5256C35.727 14.4577 35.8333 14.4207 35.9428 14.4207C36.0524 14.4207 36.1586 14.4577 36.2438 14.5256C36.3289 14.5934 36.3878 14.688 36.4105 14.7935Z" stroke="#52AFEE" stroke-width="1.2" stroke-miterlimit="10"/>
</svg>
