<svg width="110" height="30" viewBox="0 0 110 30" fill="none" xmlns="http://www.w3.org/2000/svg">
<path d="M51.4984 11.2773C51.998 11.0275 52.9674 10.5443 52.9674 8.82258C52.9674 7.58698 52.2164 5.74854 49.277 5.74854H43.4536V17.7351H48.5291C50.9838 17.7351 51.6345 17.3177 52.3182 16.6461C52.9494 16.0327 53.3503 15.1277 53.3503 14.1808C53.3503 12.9946 52.9674 11.8263 51.4984 11.2773ZM45.8589 7.82333H48.731C49.8649 7.82333 50.5665 8.1225 50.5665 9.1068C50.5665 10.0612 49.7841 10.4441 48.7954 10.4441H45.8589V7.82333ZM48.927 15.6648H45.8589V12.4591H49.0467C49.9502 12.4591 50.8492 12.8645 50.8492 13.9116C50.8462 15.1277 50.1446 15.6648 48.927 15.6648Z" fill="black"/>
<path d="M43.455 19.6335V20.7225H45.3099V25.7742H46.5889V20.7225H48.4483V19.6335H43.455Z" fill="black"/>
<path d="M84.7264 10.6566L89.6179 5.74707H86.3808L81.8064 10.6192V5.74707H79.3023V17.7306H81.8064V13.6753L82.9747 12.4726L86.6785 17.7306H89.9006L84.7264 10.6566Z" fill="black"/>
<path d="M61.2335 5.74707H58.3464L54.0772 17.7321H56.7129L57.5461 15.2639H61.9695L62.7384 17.7306H65.4579L61.2335 5.74707ZM58.2133 13.1906L59.7496 8.45163H59.784L61.2679 13.1906H58.2133Z" fill="black"/>
<path d="M54.0788 24.3858C54.0788 23.2399 53.8035 23.0514 53.2994 22.83C53.9067 22.6251 54.2493 22.0462 54.2493 21.3656C54.2493 20.836 53.9516 19.6318 52.3181 19.6318H49.2126V25.7695H50.4722V23.3686H51.796C52.7459 23.3686 52.7983 23.6947 52.7983 24.5294C52.7983 25.1606 52.8476 25.4807 52.9329 25.768H54.3525V25.6079C54.0788 25.5062 54.0788 25.2818 54.0788 24.3858ZM51.9711 22.3379H50.4707V20.6924H52.0683C52.8192 20.6924 52.9658 21.1681 52.9658 21.4957C52.9643 22.1 52.6412 22.3379 51.9711 22.3379Z" fill="black"/>
<path d="M77.6553 20.7225V19.6335H73.2874V25.7756H74.5708V23.1937H77.2724V22.1077H74.5708V20.7225H77.6553Z" fill="black"/>
<path d="M79.7737 24.6851V23.0994H82.7655V22.0134H79.7737V20.724H83.0333V19.6365H78.5172V25.7741H83.1769V24.6851H79.7737Z" fill="black"/>
<path d="M70.7026 22.2738L69.2097 21.9058C68.9524 21.8445 68.5575 21.7412 68.5575 21.2626C68.5575 20.7076 69.1424 20.5296 69.6271 20.5296C70.749 20.5296 70.8522 21.1773 70.8866 21.451H72.1132C72.1043 20.6986 71.6016 19.469 69.7198 19.469C67.7273 19.469 67.3608 20.6732 67.3608 21.3568C67.3608 22.7091 68.3167 22.935 69.3099 23.1623L69.9666 23.3179C70.6144 23.475 71.0781 23.6006 71.0781 24.0823C71.0781 24.724 70.4004 24.8736 69.7976 24.8736C68.6757 24.8736 68.5037 24.2244 68.4947 23.8819H67.2681C67.2681 24.6463 67.6495 25.9342 69.8904 25.9342C70.4259 25.9342 72.3092 25.7667 72.3092 23.9252C72.3077 22.8228 71.5388 22.4772 70.7026 22.2738Z" fill="black"/>
<path d="M89.0884 24.3858C89.0884 23.2399 88.8101 23.0514 88.309 22.83C88.9134 22.6251 89.2619 22.0462 89.2619 21.3656C89.2619 20.836 88.9612 19.6318 87.3277 19.6318H84.2253V25.7695H85.4848V23.3686H86.8086C87.7555 23.3686 87.8109 23.6947 87.8109 24.5294C87.8109 25.1606 87.8602 25.4807 87.947 25.768H89.3621V25.6079C89.0884 25.5062 89.0884 25.2818 89.0884 24.3858ZM86.9852 22.3379H85.4833V20.6924H87.0779C87.8318 20.6924 87.9784 21.1681 87.9784 21.4957C87.9784 22.1 87.6538 22.3379 86.9852 22.3379Z" fill="black"/>
<path d="M74.3734 5.75171V14.0958H74.3419L69.5835 5.75171H66.9463V17.7367H69.2829L69.2859 9.19224H69.3173L74.2088 17.7382H76.7099V5.75171H74.3734Z" fill="black"/>
<path d="M58.4109 19.6335H56.9285L54.74 25.7712H56.0923L56.5186 24.5041H58.7834L59.1783 25.7712H60.5725L58.4109 19.6335ZM56.8627 23.4451L57.651 21.0187H57.663L58.4289 23.4451H56.8627Z" fill="black"/>
<path d="M65.1452 19.6335L65.1437 23.9058H65.1287L62.6889 19.6335H61.3397V25.7712H62.5349V21.3927H62.5543L65.0584 25.7712H66.3434V19.6335H65.1452Z" fill="black"/>
<path d="M37.3058 6.19596C36.5549 5.3089 35.7276 4.48167 34.7553 3.76514C34.2736 3.40314 33.7591 3.06956 33.1951 2.77038C32.6267 2.47719 32.0448 2.19447 31.3492 2C31.3612 2.72251 31.4868 3.35826 31.6349 3.98055C31.7755 4.58489 31.9655 5.15183 32.1869 5.69633C31.6573 5.8519 31.0141 6.0703 30.2901 6.35153C29.8219 6.56095 29.3088 6.74943 28.7912 7.02916C28.2662 7.28047 27.7336 7.58563 27.1936 7.9267C26.6446 8.23634 26.133 8.67613 25.596 9.05609C25.1069 9.52131 24.5698 9.9237 24.1345 10.4517C23.6843 10.9574 23.2445 11.463 22.9049 12.0374C22.7329 12.3171 22.5339 12.5759 22.3903 12.8616C22.2527 13.1518 22.1211 13.4405 21.9924 13.7218C21.7007 14.2663 21.5676 14.8526 21.415 15.3867C21.234 15.9162 21.1697 16.4353 21.1203 16.914C21.0799 17.3912 20.9797 17.813 21.0036 18.2019C21.0156 18.5849 21.0246 18.917 21.0336 19.1922C21.05 19.7352 21.0545 20.0449 21.0545 20.0449C21.0545 20.0449 21.1128 19.7382 21.2116 19.2042C21.2609 18.9394 21.3223 18.6208 21.3926 18.2528C21.4479 17.8863 21.6379 17.4974 21.7695 17.068C21.9102 16.6387 22.0732 16.181 22.3425 15.7412C22.5878 15.2939 22.8107 14.8108 23.1727 14.3934C23.3357 14.1795 23.5033 13.9581 23.6693 13.7382C23.8443 13.5243 24.0687 13.3403 24.2617 13.1399C24.6416 12.7255 25.1054 12.3904 25.5646 12.0583C26.0029 11.7098 26.5369 11.4749 26.9992 11.1892C27.5257 10.9783 27.9894 10.715 28.507 10.5624C29.0006 10.3829 29.4868 10.2319 29.9625 10.1242C30.4247 9.98952 30.89 9.92969 31.2953 9.84292C31.5556 9.80553 31.795 9.77411 32.0253 9.74569C31.9984 9.8145 31.97 9.88032 31.946 9.95063C31.7097 10.5983 31.5257 11.279 31.3971 11.9955C31.3387 12.359 31.2908 12.727 31.2535 13.1025C31.2235 13.4839 31.2176 13.8788 31.2445 14.2947C31.6349 14.1451 31.9894 13.9761 32.326 13.7921C32.6506 13.6021 32.9692 13.4046 33.2729 13.2012C33.8757 12.7868 34.4187 12.3366 34.9094 11.8549C35.9027 10.8945 36.7239 9.82198 37.4135 8.66865L37.5018 8.52206C37.9251 7.80553 37.8757 6.86761 37.3058 6.19596Z" fill="black"/>
<path d="M40.489 10.4668C40.4606 9.92534 40.4367 9.61719 40.4367 9.61719C40.4367 9.61719 40.3933 9.92384 40.302 10.4609C40.2587 10.7256 40.2093 11.0473 40.151 11.4167C40.1061 11.7847 39.9281 12.1781 39.8084 12.6119C39.6842 13.0458 39.5362 13.5065 39.2789 13.9553C39.0485 14.41 38.8406 14.8977 38.4905 15.327C38.335 15.5469 38.1749 15.7713 38.0163 15.9986C37.8443 16.2155 37.6289 16.407 37.4359 16.6134C37.0709 17.0368 36.6177 17.3883 36.1674 17.7324C35.7441 18.0944 35.2145 18.3427 34.7598 18.6434C34.2422 18.8692 33.786 19.1475 33.2729 19.3135C32.7867 19.5095 32.3036 19.674 31.8309 19.7952C31.3746 19.9448 30.9139 20.0181 30.51 20.1153C30.2512 20.1617 30.0104 20.2006 29.783 20.235C29.8039 20.1647 29.8323 20.0989 29.8563 20.0285C30.0717 19.3719 30.2362 18.6867 30.3439 17.9672C30.3903 17.6022 30.4247 17.2327 30.4516 16.8558C30.4711 16.4743 30.4651 16.0779 30.4277 15.6651C30.0418 15.8236 29.6917 16.0046 29.3611 16.1991C29.0395 16.398 28.7329 16.6045 28.4322 16.8169C27.8458 17.2492 27.3163 17.7144 26.8406 18.2125C25.8772 19.2013 25.0889 20.2978 24.4337 21.4721L24.3484 21.6187C23.946 22.3487 24.0238 23.2836 24.6147 23.9388C25.3926 24.8019 26.2452 25.6052 27.2355 26.2918C27.7261 26.6404 28.2512 26.9575 28.8271 27.2387C29.4 27.5169 29.9894 27.7832 30.694 27.9552C30.6566 27.2357 30.51 26.6045 30.3499 25.9867C30.1899 25.3868 29.9849 24.8244 29.7456 24.2873C30.2721 24.1153 30.9049 23.879 31.6214 23.5768C32.0822 23.3554 32.5893 23.149 33.0994 22.8543C33.6139 22.5895 34.1405 22.2679 34.6626 21.9104C35.2011 21.5843 35.7007 21.1295 36.2288 20.7331C36.7029 20.2559 37.228 19.8341 37.6483 19.2956C38.0837 18.7765 38.5055 18.2604 38.8286 17.6755C38.9931 17.3898 39.1801 17.125 39.3178 16.8348C39.4434 16.5401 39.5691 16.2484 39.6887 15.9627C39.964 15.4093 40.0807 14.8184 40.2183 14.2814C40.3798 13.7488 40.4337 13.2268 40.4666 12.7481C40.498 12.2709 40.5803 11.8446 40.5474 11.4571C40.5219 11.0757 40.504 10.7421 40.489 10.4668Z" fill="black"/>
</svg>
