<svg width="108" height="30" viewBox="0 0 108 30" fill="none" xmlns="http://www.w3.org/2000/svg">
<path d="M29.8647 17.0422C28.7212 21.375 24.0759 24.0106 19.4886 22.9305C14.9037 21.8505 12.1124 17.4627 13.2564 13.131C14.3994 8.79834 19.0445 6.16198 23.6301 7.24199C28.2169 8.32201 31.0079 12.7103 29.8644 17.0422H29.8647Z" fill="#F7931A"/>
<path d="M25.3348 13.9345C25.5052 12.8585 24.6378 12.2801 23.4518 11.8943L23.8365 10.4367L22.8972 10.2156L22.5226 11.6347C22.2724 11.5767 22.0216 11.5209 21.7703 11.4675L22.1475 10.039L21.2084 9.81787L20.8237 11.2749C20.6193 11.2309 20.4187 11.1875 20.2239 11.1417L20.2249 11.1372L18.9295 10.8317L18.6796 11.7793C18.6796 11.7793 19.3766 11.9301 19.3619 11.9395C19.7423 12.0292 19.8111 12.267 19.7996 12.4555L19.3613 14.116C19.3875 14.1223 19.4215 14.1316 19.459 14.1455L19.3597 14.1223L18.7454 16.4483C18.6989 16.5575 18.5809 16.7212 18.3147 16.6591C18.3243 16.672 17.6322 16.4981 17.6322 16.4981L17.1659 17.5139L18.3883 17.802C18.6157 17.8556 18.8385 17.9119 19.0579 17.965L18.6692 19.4392L19.6075 19.6603L19.9922 18.2015C20.2485 18.2675 20.4973 18.3279 20.7408 18.3852L20.3571 19.837L21.2962 20.0581L21.6852 18.5866C23.287 18.8729 24.4915 18.7575 24.9985 17.3894C25.407 16.2876 24.9781 15.6521 24.1354 15.2374C24.7491 15.1035 25.2114 14.7222 25.3348 13.9345ZM23.1883 16.7768C22.898 17.8786 20.9339 17.2832 20.2972 17.1336L20.813 15.1806C21.4498 15.3309 23.4916 15.6281 23.1883 16.7768ZM23.4788 13.9189C23.2139 14.9208 21.5793 14.4116 21.049 14.2868L21.5166 12.5154C22.0469 12.6402 23.7546 12.8732 23.4788 13.9186V13.9189Z" fill="white"/>
<path d="M38.0885 11.8926C38.7827 11.8926 39.3826 12.0101 39.8864 12.2408C40.3931 12.4738 40.811 12.7876 41.1462 13.1824C41.4769 13.5791 41.723 14.0428 41.882 14.5742C42.0398 15.1074 42.119 15.68 42.119 16.293C42.119 17.2356 41.9363 18.1251 41.5673 18.964C41.1981 19.8042 40.6978 20.5332 40.0611 21.1549C39.4248 21.7757 38.6736 22.265 37.8073 22.6266C36.9423 22.9884 36.0019 23.1693 34.9922 23.1693C34.8616 23.1693 34.6321 23.1658 34.3078 23.1595C33.9835 23.1532 33.6109 23.1216 33.1935 23.0685C32.7449 23.008 32.2999 22.9255 31.8603 22.8214C31.4003 22.7165 30.9534 22.5657 30.5272 22.3716L34.276 7.49344L37.6336 7.0022L36.2914 12.2817C36.5705 12.1626 36.8602 12.0669 37.1571 11.9957C37.4619 11.9257 37.7746 11.8911 38.0882 11.8926H38.0885ZM35.272 20.6535C35.7777 20.6535 36.2539 20.536 36.7018 20.3056C37.152 20.0731 37.547 19.7561 37.8627 19.3741C38.1925 18.9758 38.4521 18.5298 38.6313 18.0533C38.8193 17.5607 38.9147 17.041 38.9133 16.5174C38.9133 15.8624 38.7975 15.3525 38.5666 14.9828C38.3357 14.6151 37.9084 14.4302 37.2877 14.4302C37.0844 14.4302 36.8227 14.4668 36.4979 14.5322C36.1721 14.6017 35.8804 14.746 35.619 14.9631L34.1896 20.5699C34.2757 20.5843 34.352 20.5979 34.417 20.6108C34.4806 20.6247 34.5507 20.6346 34.6211 20.6414C34.6952 20.6492 34.78 20.6533 34.8825 20.6533L35.2718 20.6535H35.272ZM45.6011 22.8848H42.394L45.1024 12.1208H48.3314L45.6011 22.8848ZM47.1617 10.8093C46.7241 10.8127 46.2976 10.6799 45.9481 10.4313C45.585 10.1806 45.405 9.79473 45.405 9.27468C45.405 8.98863 45.4665 8.72027 45.5888 8.46707C45.7069 8.22179 45.8726 7.99956 46.0773 7.81183C46.2824 7.62689 46.5207 7.47777 46.7809 7.37138C47.0518 7.26205 47.3436 7.20649 47.6381 7.20814C48.0855 7.20814 48.4889 7.33399 48.8507 7.58617C49.2108 7.83963 49.3919 8.22549 49.3919 8.74276C49.3937 9.02196 49.3307 9.29815 49.2073 9.55189C49.0903 9.7974 48.9251 10.0197 48.7204 10.2071C48.5157 10.3923 48.2773 10.5411 48.0167 10.6463C47.7486 10.757 47.4645 10.8093 47.1617 10.8093ZM51.1419 9.43893L54.5009 8.94744L53.6761 12.1203H57.2735L56.6239 14.6164H53.0481L52.0957 18.3815C52.0079 18.6951 51.9582 18.9883 51.9443 19.2609C51.9282 19.5346 51.9651 19.7696 52.0518 19.9675C52.138 20.1658 52.2926 20.3187 52.5173 20.4266C52.7413 20.5365 53.0615 20.5919 53.4816 20.5919C53.8275 20.5919 54.1649 20.5608 54.4902 20.4991C54.8245 20.4365 55.1535 20.3512 55.4748 20.2439L55.7145 22.5775C55.2542 22.7349 54.7838 22.8645 54.3061 22.9654C53.7997 23.0756 53.2001 23.1284 52.5072 23.1284C51.5108 23.1284 50.7384 22.9887 50.1881 22.7107C49.6386 22.4307 49.2501 22.0476 49.0176 21.563C48.7883 21.0803 48.6859 20.5236 48.7145 19.8962C48.7439 19.2675 48.8445 18.6064 49.0176 17.9108L51.1419 9.43893ZM57.1325 18.5867C57.1325 17.6593 57.2914 16.7853 57.6087 15.9665C57.9257 15.1473 58.3824 14.4309 58.9748 13.8164C59.5652 13.2048 60.2846 12.7199 61.1317 12.3641C61.9739 12.0104 62.9178 11.832 63.9575 11.832C64.6087 11.832 65.1901 11.8901 65.7019 12.0066C66.2155 12.1241 66.68 12.2759 67.1003 12.4665L65.9946 14.8418C65.6998 14.7299 65.3997 14.6309 65.0953 14.5451C64.785 14.4549 64.4064 14.4115 63.9583 14.4115C62.8876 14.4115 62.0416 14.7602 61.4118 15.4546C60.7842 16.1497 60.4682 17.0855 60.4682 18.2595C60.4682 18.9552 60.6274 19.5174 60.9463 19.9477C61.2636 20.3781 61.8498 20.5924 62.7008 20.5924C63.1206 20.5924 63.5262 20.5509 63.9144 20.4701C64.3056 20.3882 64.651 20.2851 64.9551 20.1633L65.1949 22.5983C64.7561 22.7572 64.3075 22.8909 63.8515 22.9985C63.3593 23.1122 62.7741 23.1709 62.0954 23.1709C61.1996 23.1709 60.4409 23.0473 59.8207 22.8032C59.2 22.5558 58.6871 22.227 58.2829 21.8106C57.8768 21.3932 57.5854 20.9055 57.4051 20.3462C57.2248 19.787 57.1322 19.199 57.1322 18.5867H57.1325ZM71.3791 23.1701C70.6137 23.1701 69.9486 23.0599 69.3846 22.8419C68.8222 22.624 68.3567 22.3178 67.988 21.921C67.6188 21.5263 67.343 21.0586 67.1538 20.5196C66.9647 19.9808 66.8737 19.3842 66.8737 18.7305C66.8737 17.9108 67.0128 17.091 67.2948 16.2731C67.5755 15.4543 67.9915 14.718 68.5416 14.0638C69.0882 13.4085 69.7624 12.8728 70.5554 12.4551C71.3481 12.0402 72.2596 11.8314 73.284 11.8314C74.0356 11.8314 74.6967 11.9419 75.2687 12.1599C75.8377 12.3775 76.3065 12.6861 76.677 13.0808C77.0436 13.4775 77.3223 13.9432 77.5091 14.4832C77.698 15.0207 77.7911 15.6188 77.7911 16.2731C77.7911 17.0903 77.6535 17.9105 77.3809 18.7303C77.1078 19.5465 76.7024 20.2843 76.1673 20.9398C75.6333 21.5943 74.9658 22.1295 74.1634 22.5454C73.3627 22.9616 72.4335 23.1701 71.3791 23.1701ZM72.9817 14.4117C72.5063 14.4117 72.086 14.5418 71.7261 14.7993C71.365 15.0599 71.0618 15.3876 70.8173 15.7823C70.5701 16.1791 70.3871 16.6117 70.2632 17.0819C70.1401 17.5532 70.0799 17.9992 70.0799 18.422C70.0799 19.105 70.1969 19.6374 70.4259 20.02C70.6581 20.4006 71.076 20.5924 71.6828 20.5924C72.1598 20.5924 72.5783 20.4627 72.94 20.2027C73.299 19.9442 73.6029 19.6165 73.8491 19.2205C74.0947 18.8263 74.2796 18.3922 74.4034 17.9209C74.5246 17.4511 74.5864 17.0031 74.5864 16.5806C74.5864 15.8993 74.4703 15.3661 74.2386 14.9838C74.008 14.603 73.5882 14.4115 72.9817 14.4115V14.4117ZM81.286 22.8848H78.0765L80.7849 12.1208H84.0152L81.286 22.8848ZM82.8442 10.8093C82.407 10.8128 81.9809 10.6799 81.6319 10.4313C81.2702 10.1806 81.0888 9.79473 81.0888 9.27468C81.0888 8.98863 81.1514 8.72027 81.2734 8.46707C81.3908 8.2215 81.5564 7.99916 81.7614 7.81183C81.9668 7.62682 82.2053 7.4777 82.4659 7.37138C82.7357 7.26203 83.0265 7.20646 83.3201 7.20814C83.7688 7.20814 84.1736 7.33399 84.5345 7.58617C84.8954 7.83963 85.0773 8.22549 85.0773 8.74276C85.0773 9.02982 85.0126 9.29919 84.8914 9.55189C84.7702 9.80458 84.6073 10.0222 84.4055 10.2071C84.2005 10.3919 83.9622 10.5406 83.7019 10.6463C83.433 10.757 83.1489 10.8093 82.8442 10.8093ZM86.3265 12.6102C86.57 12.543 86.8418 12.4622 87.1372 12.3742C87.4657 12.278 87.799 12.1967 88.1359 12.1306C88.5022 12.0548 88.9155 11.9929 89.3701 11.9452C89.8244 11.8964 90.3426 11.8726 90.9178 11.8726C92.6092 11.8726 93.7752 12.3378 94.4189 13.2655C95.062 14.1931 95.1733 15.4624 94.756 17.0718L93.2808 22.8838H90.0526L91.4826 17.1939C91.5695 16.8388 91.6378 16.4952 91.6886 16.1596C91.74 15.8271 91.7368 15.5337 91.6774 15.2802C91.6249 15.0372 91.4834 14.8195 91.2777 14.6654C91.066 14.509 90.7463 14.4304 90.3129 14.4304C89.8837 14.432 89.4557 14.4737 89.0351 14.5547L86.933 22.883H83.7038L86.3265 12.6102Z" fill="#4D4D4D"/>
</svg>
