<svg width="110" height="30" viewBox="0 0 110 30" fill="none" xmlns="http://www.w3.org/2000/svg">
<path d="M96.4287 9.1034C95.3328 8.37004 93.6741 8.00018 91.5 8.00018H85.8062L83.6894 19.2248H76.2303L76.7097 16.6782H81.2029L81.7354 13.8179L77.2447 13.8242L77.7254 11.289H82.3537L82.9695 8.00083H73.5705L71.561 18.6481H68.1118L70.1349 8.00027H65.2217L63.2122 18.6475H59.8521L61.8772 8.00027H56.9665L54.8472 19.2249H47.3344L47.8094 16.6783H52.3207L52.8538 13.8342L48.3468 13.8298L48.8249 11.2895H53.5051L54.117 8H24.8281L23.161 16.8947L19.8411 8H14.7436L12 22.5161H16.8682L18.5288 13.3761L21.7504 22.5161H39.1976L41.3189 11.2881H44.0476L41.9263 22.5161H87.8334L89.1644 15.4286L91.3174 22.5161H96.1882L93.957 16.7247L94.4675 16.6174C95.5918 16.382 96.4686 15.8765 97.0792 15.1185C97.6892 14.3536 98 13.3715 98 12.1919C98 10.8185 97.4857 9.8081 96.4273 9.10256L96.4287 9.1034ZM34.9612 19.2248H27.5093L27.9907 16.6782H32.6648L33.1946 13.8098H28.5655L29.0114 11.2897H36.4524L34.9598 19.2248L34.9612 19.2248ZM92.4153 14.3353C91.9255 14.6698 91.2154 14.8327 90.2443 14.8327H89.2815L90.02 10.9372H90.7282C91.5346 10.9372 92.1226 11.0634 92.5284 11.3209C92.845 11.5229 93.2217 11.9224 93.2217 12.6779C93.2205 13.5918 92.7823 14.0828 92.414 14.3352L92.4153 14.3353Z" fill="#83BA3B"/>
</svg>
