<svg width="110" height="30" viewBox="0 0 110 30" fill="none" xmlns="http://www.w3.org/2000/svg">
<path d="M48.7148 27.537C48.5905 27.1952 48.3652 26.9621 48.2021 26.6591C47.8058 26.1385 47.3396 25.6879 46.8735 25.2373C46.7103 25.1829 46.6404 25.0275 46.485 24.9653C46.384 24.8333 46.2208 24.7633 46.0888 24.6623C45.8246 24.4603 45.5371 24.2894 45.2419 24.1185C44.6825 23.7611 43.991 23.5357 43.3073 23.3027C42.5692 23.124 41.7922 22.9919 40.9842 22.8831C40.184 22.7666 39.3837 22.6578 38.7777 22.3392C38.4281 22.2382 38.1717 22.044 37.8687 21.8886C37.589 21.7022 37.2859 21.5468 37.0529 21.3137C36.7654 21.1427 36.5867 20.8553 36.3614 20.6222C36.2837 20.4668 36.1516 20.3736 36.0894 20.2026C36.0117 20.1716 35.9884 20.0783 35.9418 20.0239C35.8874 19.9618 35.8874 19.8375 35.7942 19.8142C35.7476 20.1327 35.7631 20.5134 35.7942 20.8397C35.833 20.9796 35.8486 21.1505 35.8874 21.2904C35.9107 21.4147 36.0273 21.6167 35.9807 21.7099C33.5566 21.5856 31.7852 20.8164 30.2468 19.8064C29.4854 19.3014 28.8327 18.6876 28.2267 18.0272C27.9626 17.662 27.6751 17.3124 27.442 16.9084C27.2012 16.5121 26.9992 16.0615 26.7816 15.642C26.4242 14.7329 26.0901 13.8006 25.9658 12.6585C25.8027 11.5941 25.8415 10.2344 26.0824 9.24767C26.1678 8.7038 26.3465 8.2454 26.5019 7.77146C26.6029 7.55392 26.7117 7.33637 26.8049 7.11106C26.937 6.92459 27.0069 6.6682 27.1701 6.50504C27.6129 5.6737 28.2733 5.05215 28.9493 4.45389C29.6796 3.9178 30.511 3.48271 31.5132 3.21855C32.4766 3.001 33.7897 2.96215 34.8308 3.18747C36.9441 3.62256 38.5368 4.57044 39.8732 5.78248C41.2251 6.97121 42.2662 8.47849 42.981 10.3121C43.7191 12.0525 43.9755 14.764 43.3151 16.7374C43.0431 16.5821 42.7712 16.4344 42.4993 16.2868C42.1729 16.1936 41.8544 16.0848 41.4737 16.046C41.0153 16.0382 40.5647 16.046 40.2694 16.1936C40.8677 16.1314 41.3494 16.2946 41.7223 16.4344C41.9399 16.5199 42.0642 16.5743 42.2351 16.6753C42.5692 16.8695 42.8644 17.0482 43.1131 17.3124C43.8201 17.934 44.3251 18.7575 44.5659 19.8452C44.5659 19.8763 44.6048 19.8686 44.597 19.8142C44.6281 19.8064 44.6436 19.7831 44.6592 19.752C44.698 19.7054 44.7446 19.6588 44.7835 19.6044C44.8612 19.5112 44.9389 19.4179 44.9933 19.3014C45.1564 19.1071 45.2885 18.8896 45.4128 18.6643C45.7003 18.2447 45.9178 17.763 46.1665 17.3046C46.5938 16.3257 46.9434 15.269 47.161 14.0725C47.596 11.4154 47.0755 8.89804 46.1665 7.04113C45.2341 5.16869 43.9288 3.66918 42.2429 2.5426C40.5414 1.4238 38.5524 0.60023 35.8175 0.522535C35.802 0.468149 35.7787 0.530305 35.7243 0.522535C34.2792 0.475918 33.1137 0.677925 31.9561 0.973165C31.42 1.15186 30.8606 1.30725 30.3866 1.54811C29.8428 1.72681 29.4077 2.02205 28.9104 2.23959C28.7317 2.41052 28.4598 2.49598 28.2733 2.65914C28.0325 2.77569 27.8538 2.96215 27.6129 3.0787C27.2245 3.42055 26.8127 3.72356 26.432 4.07319C26.059 4.41505 25.7327 4.80352 25.3753 5.16092C25.3209 5.28523 25.2277 5.37069 25.1345 5.46393C25.0723 5.58047 24.9946 5.68147 24.8936 5.76694C24.8548 5.90679 24.7305 5.96117 24.6838 6.10103C24.5828 6.17872 24.5595 6.33411 24.443 6.40404C24.342 6.65266 24.1633 6.83136 24.0467 7.06444C23.9069 7.28976 23.7981 7.53838 23.6583 7.75593C23.4407 8.26094 23.2076 8.75042 23.0289 9.29428C22.8425 9.82261 22.6871 10.382 22.5783 10.988C22.4618 11.5552 22.353 12.2933 22.3685 12.8916C22.2908 13.1091 22.353 13.5131 22.3685 13.7695C22.3685 13.8161 22.3375 13.8317 22.3375 13.8627C22.3375 14.1502 22.4152 14.4998 22.4307 14.6785C22.4929 15.3389 22.6094 15.9527 22.7959 16.4888C22.9124 17.0871 23.161 17.5532 23.3397 18.0893C23.6117 18.54 23.7981 19.0761 24.1244 19.4801C24.3653 19.954 24.7072 20.327 25.0335 20.7154C25.3831 21.0884 25.7327 21.4691 26.1523 21.7721C26.9215 22.4403 27.8227 22.9763 28.8094 23.4347C30.6508 24.3282 33.4012 24.9109 35.8719 24.7633C36.5012 24.6779 37.1383 24.6002 37.7133 24.4603C38.2416 24.2661 38.8554 24.1495 39.4925 24.0718C40.9454 23.9786 42.204 24.1107 43.3228 24.437C44.4572 24.74 45.4361 25.1984 46.283 25.7967C46.7336 26.0608 47.1066 26.4027 47.4873 26.729C47.8757 27.0631 48.1865 27.4749 48.5439 27.8478C48.5905 27.9877 48.6838 28.0887 48.7537 28.213C48.8469 28.314 48.8003 28.5471 49.0256 28.516C49.1655 28.3761 49.0023 28.1741 48.9945 28.0032C48.8547 27.8556 48.8236 27.6613 48.7148 27.537Z" fill="#FCB316"/>
<path d="M43.0742 19.2702C43.0431 19.2702 43.0354 19.2935 43.0121 19.3013C42.9577 19.4178 42.981 19.6043 43.0121 19.7208C43.1752 20.0549 43.2296 20.49 43.587 20.6299C43.7579 20.5755 43.7424 20.3268 43.7346 20.086C43.6569 19.7908 43.5482 19.5266 43.3695 19.3324C43.2451 19.2857 43.1597 19.208 43.0742 19.2702ZM40.9609 20.1171C40.9609 20.1015 40.9376 20.086 40.9298 20.1171C40.6346 20.0782 40.5336 20.2414 40.386 20.3579C40.1296 21.0339 40.5414 21.6943 41.2639 21.6865C41.5514 21.6166 41.7301 21.4301 41.7767 21.1116C41.7379 20.5444 41.497 20.1792 40.9609 20.1171Z" fill="#FCB316"/>
<path d="M58.3802 17.9651C58.4968 18.4546 58.7454 18.8042 59.0251 19.1306C59.3048 19.4569 59.6311 19.7288 60.0273 19.9308C60.4003 20.1639 60.8043 20.3581 61.2705 20.4902C61.4958 20.5679 61.7133 20.6611 61.993 20.6922C62.1873 20.801 62.4203 20.8554 62.4359 21.1351C62.4281 21.4692 62.2028 21.5935 61.9153 21.6556C61.6279 21.5935 61.2705 21.6012 61.0296 21.4925C60.4236 21.4225 59.9341 21.2283 59.4213 21.0496C58.4424 20.6689 57.6188 20.1173 56.9351 19.4413C56.7952 19.2082 56.601 19.0218 56.4534 18.7965C56.3058 18.5711 56.2048 18.2992 56.0494 18.0739C54.8529 17.9185 54.0371 17.3746 53.3223 16.7453C52.6619 15.9917 52.1336 15.0904 51.916 13.8939C51.6596 12.744 51.7373 11.3067 52.0403 10.1956C52.7007 8.0435 54.0837 6.61391 56.6942 6.41968C57.4168 6.44299 58.0461 6.52845 58.6211 6.746C59.2038 6.95577 59.7554 7.34425 60.1905 7.74826C60.2293 7.77934 60.2449 7.78711 60.2682 7.82595C60.3614 7.95803 60.5867 8.1445 60.7111 8.30766C60.7344 8.33874 60.7266 8.39313 60.7499 8.43197C60.7965 8.5019 60.8664 8.53298 60.9131 8.59513C60.9364 8.63398 60.9286 8.6806 60.9519 8.71167C60.983 8.75829 61.0218 8.82822 61.0685 8.91368C61.084 8.94476 61.1384 8.96807 61.1461 8.99138C61.2161 9.12346 61.2471 9.28662 61.3093 9.43424C61.3715 9.58963 61.4569 9.72171 61.5113 9.8771C61.6667 10.3355 61.7677 10.8794 61.8299 11.4388C61.9852 13.0548 61.6667 14.4999 61.0685 15.5721C60.7887 16.1315 60.4003 16.5899 59.9419 16.9784C59.5223 17.4213 58.9474 17.6854 58.3802 17.9651ZM56.4534 7.84926C56.1038 7.87257 55.894 8.03573 55.6065 8.12896C55.42 8.29989 55.187 8.43197 55.0471 8.64952C54.814 8.7816 54.7519 9.07684 54.5654 9.24777C54.41 9.63624 54.2624 10.0713 54.1614 10.5764C54.0682 11.0736 54.006 11.633 53.9982 12.1846C53.9905 13.5676 54.2857 14.9428 54.8373 15.7586C55.1636 16.1548 55.5599 16.4812 56.0416 16.722C56.3213 16.7453 56.5388 16.8386 56.8419 16.8463C57.0128 16.7842 57.2925 16.8463 57.4013 16.722C57.6499 16.7375 57.7043 16.5744 57.9218 16.5589C58.0384 16.4423 58.1627 16.3491 58.3258 16.2792C58.4734 16.116 58.6133 15.9528 58.7687 15.7974C58.8464 15.6809 58.893 15.5177 59.0095 15.4323C59.7088 14.0959 59.7865 11.6485 59.3281 10.0946C59.1572 9.52747 58.9163 9.06907 58.6444 8.68837C58.3491 8.38536 57.9995 8.12896 57.6033 7.92696C57.2847 7.85703 56.9817 7.77157 56.5622 7.81042C56.5388 7.81042 56.5155 7.81818 56.5233 7.84926C56.5078 7.84926 56.4845 7.84926 56.4534 7.84926ZM64.9299 6.72269C65.5592 6.746 66.2973 6.6683 66.8567 6.76154C66.981 6.95577 66.9344 7.18886 66.9344 7.4064C66.981 10.351 66.9344 13.5132 66.9344 16.52C66.9344 16.7609 66.9422 17.0095 66.9344 17.2426C66.9266 17.4446 66.981 17.6621 66.8567 17.8486C66.577 17.9185 66.173 17.8874 65.8156 17.8874C65.4349 17.8874 65.062 17.9418 64.8133 17.8097C64.7434 14.2513 64.7434 10.4132 64.8133 6.847C64.8289 6.78484 64.8677 6.746 64.9299 6.72269ZM69.747 6.72269H71.6349C71.8059 6.95577 71.8603 7.3054 71.9146 7.64726C72.4818 9.80717 73.0412 11.9749 73.5618 14.1892C73.6861 14.2047 73.6472 14.0571 73.6861 13.9872C73.7405 13.9328 73.7094 13.8007 73.7638 13.7463C73.7871 13.5676 73.8959 13.4744 73.8881 13.2646C74.0279 12.9927 74.0746 12.6197 74.2066 12.34C74.3698 11.6874 74.5873 11.0814 74.7738 10.452C74.9525 9.7994 75.1934 9.20892 75.3332 8.52521C75.5974 7.97357 75.6595 7.21993 75.9781 6.72269H76.7783C77.0658 7.26655 77.1746 7.98911 77.4232 8.57182C77.5864 9.22446 77.8117 9.81494 77.9826 10.4598C78.3788 11.7107 78.7906 12.946 79.148 14.2358C79.3112 13.9949 79.3112 13.5909 79.4277 13.3112C79.4976 12.9927 79.5598 12.6663 79.6686 12.3866C79.9794 11.1124 80.2746 9.83048 80.632 8.61067C80.7641 7.97357 80.8962 7.32094 81.1137 6.76154C81.5799 6.69161 82.2947 6.69161 82.7608 6.76154C82.7997 7.23547 82.5821 7.74826 82.4423 8.16781C82.3646 8.6806 82.1781 9.07684 82.0771 9.57409C81.7896 10.4831 81.5721 11.4465 81.2769 12.3478C81.0515 13.3112 80.7485 14.1969 80.5155 15.1603C80.3601 15.6032 80.2513 16.0927 80.1114 16.5666C79.956 17.0017 79.9017 17.5378 79.6686 17.8952H78.542C78.2545 17.3902 78.1535 16.7065 77.8971 16.1704C77.3377 14.3989 76.7162 12.6974 76.1723 10.9104C75.9858 11.1047 75.9858 11.5009 75.8538 11.7495C75.7683 12.0526 75.6828 12.3556 75.5741 12.6353C75.4187 13.2491 75.1856 13.7696 75.0535 14.3989C74.8282 14.9506 74.665 15.5644 74.4941 16.1704C74.261 16.6987 74.1756 17.3746 73.8881 17.8564C73.5928 17.9496 73.1267 17.8719 72.7615 17.8952C72.4818 17.5767 72.4507 17.0017 72.2798 16.5666C72.1477 16.116 72.0545 15.6187 71.8836 15.1992C71.666 14.2202 71.3397 13.3578 71.1222 12.3866C70.8347 11.4854 70.5861 10.5453 70.3219 9.61293C70.1743 9.17007 70.0655 8.69614 69.9179 8.24551C69.848 7.7638 69.5216 7.32871 69.6382 6.80038C69.6537 6.76154 69.7003 6.73823 69.747 6.72269ZM85.6045 6.72269C86.2338 6.746 86.9641 6.6683 87.5313 6.76154C87.6711 7.18109 87.609 7.63172 87.609 8.08235V16.5122C87.609 16.9706 87.6634 17.4135 87.5313 17.8408C87.0962 17.8874 86.4591 17.9107 85.923 17.8797C85.7676 17.8719 85.5812 17.9185 85.4801 17.802C85.3403 17.3824 85.4025 16.9396 85.4025 16.4734V8.12896C85.4025 7.62395 85.3558 7.13447 85.4801 6.80038C85.5112 6.76154 85.5578 6.73823 85.6045 6.72269Z" fill="#0269B3"/>
</svg>
