<svg width="108" height="30" viewBox="0 0 108 30" fill="none" xmlns="http://www.w3.org/2000/svg">
<path fill-rule="evenodd" clip-rule="evenodd" d="M64.0045 11.2984C65.0462 11.2984 65.8905 10.4483 65.8905 9.39991C65.8905 8.35096 65.0462 7.5 64.0045 7.5C62.9641 7.5 62.1202 8.35096 62.1202 9.39991C62.1202 10.4483 62.9641 11.2984 64.0045 11.2984ZM49.5605 12.3237C49.4755 12.539 48.8629 14.282 47.3816 16.0884V8.36443L43.4346 9.15028V23.1508H47.3816V18.8231C48.5248 20.5504 49.0893 23.1508 49.0893 23.1508H53.8169C53.3493 21.1923 51.3037 17.5811 51.3037 17.5811C53.1396 15.2362 53.946 12.7376 54.0743 12.3237H49.5605ZM59.937 12.1775C56.4017 12.2918 54.6071 13.8896 54.6071 17.0659V23.1508H58.464V18.1887C58.464 16.2868 58.7111 15.4715 60.9515 15.3938V12.2332C60.5744 12.1526 59.937 12.1775 59.937 12.1775ZM36.8151 13.8654C36.3317 13.8333 35.2124 13.7604 35.2124 12.7454C35.2124 11.5205 36.8238 11.5205 37.4282 11.5205C38.491 11.5205 39.8673 11.8369 40.8502 12.133C40.8502 12.133 41.3985 12.3277 41.8651 12.5272L41.9085 12.539V9.18436L41.8489 9.16661C40.689 8.75776 39.3401 8.36443 36.8394 8.36443C32.5277 8.36443 31 10.8949 31 13.0626C31 14.3122 31.5317 17.2531 36.4697 17.5923C36.8883 17.6182 37.9992 17.6827 37.9992 18.7317C37.9992 19.5977 37.0897 20.1084 35.5599 20.1084C33.8834 20.1084 32.2572 19.6778 31.2695 19.2693V22.7244C32.7482 23.1149 34.4151 23.31 36.3687 23.31C40.5846 23.31 42.4728 20.9159 42.4728 18.5431C42.4728 15.8526 40.3599 14.1046 36.8151 13.8654ZM62.0926 23.1508H65.9182V12.3359H62.0926V23.1508ZM73.1217 9.05393V23.1508H76.9479V8.36443L73.1217 9.05393ZM67.5388 9.05393L71.3614 8.36443V23.1508H67.5388V9.05393Z" fill="url(#paint0_linear)"/>
<defs>
<linearGradient id="paint0_linear" x1="43.4261" y1="7.5" x2="46.9284" y2="26.9918" gradientUnits="userSpaceOnUse">
<stop stop-color="#6B195F"/>
<stop offset="1" stop-color="#4C255B"/>
</linearGradient>
</defs>
</svg>
