<svg width="110" height="30" viewBox="0 0 110 30" fill="none" xmlns="http://www.w3.org/2000/svg">
<path d="M87.814 5C89.3732 5 90.8567 5.35742 92.188 5.99678C92.3967 6.09102 92.6069 6.20381 92.815 6.3167L91.9022 7.12568L90.5338 5.71494L88.1758 7.78379L86.7873 6.29766L82.4514 10.1537L85.2274 13.182L84.1437 14.1223L86.8825 17.1506L85.7987 18.0904L89.7163 22.3978L92.035 20.2911L94.0517 22.5488C93.652 22.8498 93.2146 23.1513 92.7398 23.4142C91.2943 24.2229 89.6206 24.6923 87.8332 24.6923C82.3369 24.6923 77.8687 20.273 77.8687 14.8377C77.8493 9.43906 82.3183 5 87.814 5ZM85.9881 14.2353L88.3653 12.1286L90.4956 14.4797L88.118 16.5862L85.9881 14.2353ZM87.6811 18.2982L90.0389 16.1728L92.188 18.5237L89.8107 20.6306L87.6811 18.2982ZM84.2966 10.2292L86.6731 8.12246L88.8029 10.4735L86.4257 12.5802L84.2966 10.2292ZM88.6506 9.10029L90.4193 7.52041L92.017 9.26973L90.2484 10.8683L88.6506 9.10029ZM91.8077 16.3418L93.5758 14.7618L95.1735 16.5294L93.4047 18.1103L91.8077 16.3418ZM93.3668 19.8971L95.1356 18.3168L96.732 20.066L94.9639 21.6644L93.3668 19.8971ZM94.0896 11.7712L95.2684 10.7178L96.333 11.8844L95.1543 12.9374L94.0896 11.7712ZM92.5682 8.2915L93.7472 7.21962L94.8125 8.40439L93.6327 9.45771L92.5682 8.2915ZM95.5917 15.2512L96.7706 14.1978L97.8545 15.3641L96.6569 16.4171L95.5917 15.2512ZM90.2862 12.6366L92.055 11.0566L93.652 12.8056L91.884 14.3858L90.2862 12.6366Z" fill="#036CB5"/>
<mask id="mask0" mask-type="alpha" maskUnits="userSpaceOnUse" x="12" y="9" width="11" height="10">
<path d="M12 9.09131V18.1828H22.394V9.09131H12Z" fill="white"/>
</mask>
<g mask="url(#mask0)">
<path d="M17.2162 11.7834H17.1265L15.4425 18.1828H14.0661L12 9.09131H13.4281L14.8565 15.8751H14.9457L16.6034 9.09131H17.7387L19.5115 15.8751H19.6007L20.9018 9.09131H22.394L20.3273 18.1828H18.9499L17.2162 11.7834Z" fill="#036CB5"/>
</g>
<path d="M24.2058 14.3124H27.1257C27.0623 12.9664 26.4116 12.4283 25.7232 12.4283C24.9453 12.4283 24.3455 13.0308 24.2058 14.3124ZM28.1458 16.7238V17.6985C27.572 18.0318 26.8072 18.2884 25.8885 18.2884C23.7466 18.2884 22.8667 16.9548 22.8667 14.9291C22.8667 12.9792 23.8484 11.5686 25.7614 11.5686C27.3551 11.5686 28.3377 12.608 28.3377 14.6976V15.1721H24.1802C24.1802 16.7104 24.8047 17.3902 26.1188 17.3902C26.8073 17.3902 27.4449 17.1461 28.1458 16.7238Z" fill="#036CB5"/>
<path d="M31.304 17.2603C31.7122 17.4398 32.1589 17.4663 32.4782 17.4663C33.4217 17.4663 34.1351 16.8756 34.1351 14.7988C34.1351 13.1703 33.5486 12.6445 32.6945 12.6445C32.184 12.6445 31.8143 12.786 31.304 13.0676V17.2603H31.304ZM31.3174 12.119C31.6991 11.9145 32.3494 11.6442 33.0383 11.6442C34.6198 11.6442 35.4744 12.747 35.4744 14.7988C35.4744 17.1969 34.3264 18.3638 32.4783 18.3638C31.8018 18.3638 30.7561 18.1457 29.9905 17.7345V8.78496L31.3174 8.46484V12.119H31.3174Z" fill="#036CB5"/>
<path d="M41.2143 16.2538H41.2781L44.0067 9.08569H45.5889V18.1779H44.2116V11.5864H44.0967L41.4947 18.1779H40.6792L38.0767 11.7405H37.9623V18.1779H36.8145V9.08569H38.358L41.2143 16.2538Z" fill="#036CB5"/>
<path d="M51.2161 14.9287C51.2161 13.1977 50.5152 12.4671 49.648 12.4671C48.8066 12.4671 48.0791 13.1977 48.0791 14.9287C48.0791 16.6856 48.743 17.3902 49.648 17.3902C50.553 17.3902 51.2161 16.6856 51.2161 14.9287ZM46.7405 14.9287C46.7405 12.6838 47.9651 11.5686 49.648 11.5686C51.3319 11.5686 52.5559 12.6838 52.5559 14.9287C52.5559 17.121 51.3954 18.2884 49.648 18.2884C47.901 18.2884 46.7405 17.121 46.7405 14.9287Z" fill="#036CB5"/>
<path d="M53.5645 12.5182C54.1383 12.1714 55.3503 11.5686 56.8166 11.5686C58.3468 11.5686 58.9196 12.1714 58.9196 13.4918V18.1344H57.5943V13.7872C57.5943 12.7744 57.0978 12.5949 56.4465 12.5949C55.937 12.5949 55.2858 12.826 54.8908 13.0568V18.1344H53.5645V12.5182H53.5645Z" fill="#036CB5"/>
<path d="M61.727 14.3124H64.6471C64.5843 12.9664 63.9332 12.4283 63.2445 12.4283C62.4664 12.4283 61.8678 13.0308 61.727 14.3124ZM65.6671 16.7238V17.6985C65.0935 18.0318 64.3283 18.2884 63.41 18.2884C61.2687 18.2884 60.3882 16.9548 60.3882 14.9291C60.3882 12.9792 61.3696 11.5686 63.2828 11.5686C64.8774 11.5686 65.8598 12.608 65.8598 14.6976V15.1721H61.7019C61.7019 16.7104 62.3268 17.3902 63.6404 17.3902C64.3283 17.3902 64.967 17.1461 65.6671 16.7238Z" fill="#036CB5"/>
<path d="M71.1568 11.5686H72.5217L70.2133 17.9792C69.5748 19.749 68.7977 20.6723 67.3314 20.6723V19.6215C68.1991 19.6215 68.7339 18.9288 69.0407 17.9792L66.592 11.5686H67.995L69.6273 16.2874H69.7038L71.1568 11.5686Z" fill="#036CB5"/>
<path d="M25.7748 24.0925V23.5388C26.2476 23.779 26.6976 23.8997 27.124 23.8997C27.4792 23.8997 27.7512 23.8345 27.9413 23.703C28.1314 23.5723 28.2267 23.3957 28.2267 23.1723C28.2267 22.9491 28.1485 22.7816 27.9921 22.6702C27.8361 22.5589 27.5444 22.4211 27.1178 22.258C26.9698 22.2023 26.8752 22.1661 26.8325 22.1488C26.7905 22.132 26.7081 22.0972 26.5854 22.0459C26.463 21.9948 26.3828 21.9558 26.3449 21.9302C26.3068 21.9038 26.2426 21.865 26.1516 21.8142C26.0609 21.7622 25.9997 21.7164 25.9678 21.6763C25.9365 21.6351 25.8929 21.5831 25.8379 21.5209C25.7831 21.459 25.746 21.3975 25.7269 21.3348C25.7081 21.2727 25.6899 21.2008 25.6732 21.1191C25.6565 21.0373 25.6479 20.9496 25.6479 20.8551C25.6479 20.4903 25.7821 20.1971 26.0502 19.9737C26.3186 19.751 26.689 19.6394 27.1622 19.6394C27.5802 19.6394 27.9966 19.7165 28.4101 19.871V20.4563C28.009 20.2586 27.6077 20.1608 27.2064 20.1608C26.9235 20.1608 26.7123 20.2199 26.5729 20.3399C26.4335 20.4599 26.3637 20.6187 26.3637 20.8163C26.3637 21.0267 26.4335 21.1862 26.5729 21.2958C26.7123 21.4059 26.9616 21.5271 27.3207 21.6597C27.9371 21.8871 28.3618 22.093 28.5939 22.2778C28.8264 22.4617 28.9425 22.7371 28.9425 23.1012C28.9425 23.4834 28.783 23.7958 28.4641 24.0382C28.1452 24.2806 27.7071 24.4019 27.1494 24.4019C26.6386 24.4019 26.1802 24.2984 25.7748 24.0925ZM32.2212 24.3044H31.6194L31.5749 23.9312C31.2114 24.2319 30.8484 24.3823 30.4851 24.3823C30.1811 24.3823 29.9456 24.2999 29.7789 24.1342C29.6118 23.9691 29.5285 23.7605 29.5285 23.5067C29.5285 23.3735 29.5527 23.2462 29.6013 23.1239C29.65 23.0014 29.7303 22.8828 29.8421 22.7669C29.954 22.6509 30.1229 22.5579 30.3488 22.4868C30.5747 22.4156 30.8463 22.3804 31.1631 22.3804H31.556V22.2067C31.556 21.9193 31.5032 21.7236 31.3976 21.6179C31.2917 21.5127 31.1144 21.4602 30.8654 21.4602C30.5613 21.4602 30.1873 21.5862 29.744 21.84V21.3252C30.2002 21.1151 30.6477 21.0091 31.087 21.0091C31.5134 21.0091 31.8094 21.0976 31.9738 21.2739C32.1388 21.4494 32.2212 21.7158 32.2212 22.0711V24.3044ZM31.5624 22.8307H31.2263C30.5335 22.8307 30.1873 23.039 30.1873 23.4553C30.1873 23.6017 30.2336 23.7068 30.3267 23.7737C30.4198 23.8404 30.5359 23.8733 30.6755 23.8733C30.8525 23.8733 31.0237 23.8303 31.1884 23.7443C31.3531 23.659 31.4779 23.5604 31.5624 23.4488V22.8307H31.5624ZM33.2507 25.592V21.4799C33.4366 21.3379 33.6559 21.2238 33.9096 21.1381C34.1632 21.053 34.412 21.0091 34.6573 21.0091C35.5355 21.0091 35.975 21.5479 35.975 22.6252C35.975 23.1829 35.861 23.6099 35.6327 23.9054C35.4047 24.2018 35.0777 24.3492 34.6507 24.3492C34.355 24.3492 34.1079 24.2741 33.9096 24.1248V25.592H33.2507ZM33.9032 21.698V23.6488C33.9877 23.7299 34.0942 23.7904 34.2231 23.8314C34.352 23.8721 34.4651 23.8924 34.5621 23.8924C34.7943 23.8924 34.9772 23.8018 35.1103 23.6195C35.2433 23.4368 35.3095 23.1054 35.3095 22.6252C35.3095 22.2348 35.2413 21.9487 35.104 21.7695C34.9667 21.5886 34.788 21.499 34.5684 21.499C34.3195 21.499 34.0978 21.5651 33.9032 21.698ZM37.4861 21.0422V24.3044H36.8272V21.2028L37.4861 21.0422ZM36.7258 20.0957C36.7258 19.9798 36.769 19.8783 36.8555 19.7898C36.9423 19.7019 37.0427 19.6578 37.1563 19.6578C37.2706 19.6578 37.3709 19.7019 37.4577 19.7898C37.5443 19.8783 37.5875 19.9798 37.5875 20.0957C37.5875 20.2115 37.5443 20.3137 37.4577 20.402C37.3709 20.4891 37.2706 20.5333 37.1563 20.5333C37.0427 20.5333 36.9423 20.4891 36.8555 20.402C36.769 20.3137 36.7258 20.2115 36.7258 20.0957ZM39.9538 23.9312C40.2581 23.9312 40.5935 23.8196 40.9611 23.5969V24.086C40.6233 24.2836 40.2495 24.3823 39.8398 24.3823C39.3245 24.3823 38.9455 24.2341 38.7026 23.9379C38.4597 23.6416 38.3383 23.2279 38.3383 22.6958C38.3383 22.1893 38.463 21.7813 38.7119 21.4734C38.9613 21.1645 39.3158 21.0091 39.7762 21.0091C40.182 21.0091 40.4963 21.1425 40.7207 21.4088C40.9444 21.6752 41.056 22.0651 41.056 22.5798V22.8183H38.9909C38.9909 23.2003 39.069 23.4817 39.2251 23.6608C39.3815 23.8417 39.6244 23.9312 39.9538 23.9312ZM39.7572 21.4411C39.559 21.4411 39.3919 21.5206 39.2567 21.6787C39.1218 21.8376 39.0371 22.0741 39.0034 22.3864H40.4542C40.4372 22.0693 40.3635 21.8329 40.2324 21.6763C40.1017 21.5193 39.9433 21.4411 39.7572 21.4411ZM41.8954 24.3044V21.486C42.4149 21.1682 42.9535 21.0091 43.5113 21.0091C43.8872 21.0091 44.1552 21.087 44.3157 21.2415C44.4762 21.3961 44.5565 21.6405 44.5565 21.9748V24.3044H43.8977V22.123C43.8977 21.8871 43.849 21.7282 43.752 21.6471C43.6547 21.5651 43.5134 21.5246 43.3274 21.5246C43.0741 21.5246 42.8163 21.6022 42.5546 21.7565V24.3044H41.8954V24.3044ZM46.2132 21.1645H47.2143L47.0558 21.6022H46.2132V23.3007C46.2132 23.7299 46.3949 23.9444 46.758 23.9444C46.8974 23.9444 47.0388 23.9146 47.183 23.8543V24.2659C46.9843 24.3433 46.7476 24.3823 46.4731 24.3823C46.1563 24.3823 45.924 24.2909 45.776 24.108C45.6283 23.9264 45.5543 23.687 45.5543 23.3902V20.7393L46.2132 20.2561V21.1645H46.2132ZM48.504 21.0422V24.3044H47.8449V21.2028L48.504 21.0422ZM47.7436 20.0957C47.7436 19.9798 47.787 19.8783 47.8731 19.7898C47.9596 19.7019 48.0599 19.6578 48.1743 19.6578C48.2882 19.6578 48.3887 19.7019 48.475 19.7898C48.5618 19.8783 48.6051 19.9798 48.6051 20.0957C48.6051 20.2115 48.5618 20.3137 48.475 20.402C48.3887 20.4891 48.2882 20.5333 48.1743 20.5333C48.0599 20.5333 47.9596 20.4891 47.8731 20.402C47.787 20.3137 47.7436 20.2115 47.7436 20.0957ZM52.9894 21.2671V21.7813C52.6725 21.567 52.3514 21.4602 52.0265 21.4602C51.8617 21.4602 51.7266 21.4923 51.6207 21.5569C51.5153 21.6208 51.4624 21.7242 51.4624 21.865C51.4624 21.9988 51.5204 22.1046 51.6365 22.1839C51.7528 22.2635 51.9355 22.344 52.1849 22.425C52.3243 22.4722 52.4286 22.5089 52.4982 22.5345C52.5681 22.5609 52.6597 22.6039 52.774 22.6635C52.8879 22.7239 52.9736 22.7834 53.0305 22.8439C53.0876 22.9042 53.1392 22.9831 53.1858 23.0821C53.2323 23.1807 53.2552 23.2898 53.2552 23.41C53.2552 23.7063 53.1381 23.9421 52.904 24.1181C52.6695 24.294 52.3557 24.3823 51.9631 24.3823C51.5237 24.3823 51.1581 24.2879 50.8668 24.0985V23.5969C51.2384 23.8196 51.5785 23.9312 51.8872 23.9312C52.3514 23.9312 52.5839 23.7772 52.5839 23.4679C52.5839 23.4082 52.5701 23.3519 52.5427 23.3007C52.5152 23.2493 52.4836 23.2075 52.4478 23.1752C52.4117 23.143 52.3535 23.1067 52.2732 23.0653C52.1929 23.0254 52.1256 22.9955 52.0706 22.9758C52.0158 22.9567 51.9292 22.9256 51.811 22.8828C51.6377 22.8183 51.5005 22.7628 51.3989 22.7153C51.2974 22.6677 51.1964 22.6068 51.095 22.532C50.9934 22.4569 50.9194 22.3672 50.8732 22.2646C50.8269 22.162 50.8036 22.0393 50.8036 21.8979C50.8036 21.7176 50.8457 21.5636 50.9302 21.4352C51.0146 21.3056 51.1247 21.2134 51.2596 21.1579C51.3947 21.1019 51.5183 21.0631 51.6302 21.0422C51.7423 21.0201 51.8531 21.0091 51.9631 21.0091C52.3222 21.0091 52.6642 21.0952 52.9894 21.2671ZM56.4897 24.3044H55.8879L55.8433 23.9312C55.4798 24.2319 55.117 24.3823 54.7539 24.3823C54.4498 24.3823 54.2143 24.2999 54.0474 24.1342C53.8803 23.9691 53.7971 23.7605 53.7971 23.5067C53.7971 23.3735 53.8213 23.2462 53.8701 23.1239C53.9186 23.0014 53.9988 22.8828 54.1108 22.7669C54.223 22.6509 54.3915 22.5579 54.6175 22.4868C54.8436 22.4156 55.1151 22.3804 55.4314 22.3804H55.8247V22.2067C55.8247 21.9193 55.7716 21.7236 55.6666 21.6179C55.5603 21.5127 55.383 21.4602 55.1342 21.4602C54.8299 21.4602 54.456 21.5862 54.0126 21.84V21.3252C54.4689 21.1151 54.9164 21.0091 55.3556 21.0091C55.7824 21.0091 56.0777 21.0976 56.2425 21.2739C56.4072 21.4494 56.4896 21.7158 56.4896 22.0711V24.3044H56.4897ZM55.8313 22.8307H55.4952C54.8024 22.8307 54.456 23.039 54.456 23.4553C54.456 23.6017 54.5025 23.7068 54.5953 23.7737C54.6884 23.8404 54.8042 23.8733 54.9439 23.8733C55.1211 23.8733 55.2918 23.8303 55.4571 23.7443C55.6218 23.659 55.7466 23.5604 55.8313 23.4488V22.8307H55.8313ZM58.1468 21.1645H59.1477L58.9889 21.6022H58.1468V23.3007C58.1468 23.7299 58.3282 23.9444 58.691 23.9444C58.8306 23.9444 58.9716 23.9146 59.1159 23.8543V24.2659C58.9173 24.3433 58.6811 24.3823 58.4057 24.3823C58.0895 24.3823 57.8573 24.2909 57.7094 24.108C57.5614 23.9264 57.4873 23.687 57.4873 23.3902V20.7393L58.1468 20.2561V21.1645H58.1468Z" fill="#B6B6B6"/>
</svg>
