<svg width="136" height="40" fill="none" xmlns="http://www.w3.org/2000/svg"><path d="M130.664 0h-125a5 5 0 0 0-5 5v30a5 5 0 0 0 5 5h125a5 5 0 0 0 5-5V5a5 5 0 0 0-5-5z" fill="#000"/><path d="M130.664.8a4.2 4.2 0 0 1 4.2 4.2v30a4.198 4.198 0 0 1-4.2 4.2h-125a4.2 4.2 0 0 1-4.2-4.2V5a4.2 4.2 0 0 1 4.2-4.2h125zm0-.8h-125a5 5 0 0 0-5 5v30a5 5 0 0 0 5 5h125a5.002 5.002 0 0 0 5-5V5a5.002 5.002 0 0 0-5-5z" fill="#A6A6A6"/><path d="M48.085 10.24a2.72 2.72 0 0 1-.75 2 2.9 2.9 0 0 1-2.2.88 3 3 0 0 1-2.21-.9 3.19 3.19 0 0 1 0-4.46 3.16 3.16 0 0 1 3.44-.65c.36.148.682.378.94.67l-.53.53a2 2 0 0 0-1.64-.72 2.4 2.4 0 1 0 1.68 4.13 1.92 1.92 0 0 0 .5-1.22h-2.18v-.72h2.91c.022.153.036.306.04.46zM52.664 7.74h-2.7v1.9h2.46v.72h-2.46v1.9h2.7V13h-3.48V7h3.48v.74zM55.944 13h-.77V7.74h-1.68V7h4.17v.74h-1.72V13zM60.603 13V7h.77v6h-.77zM64.794 13h-.77V7.74h-1.68V7h4.12v.74h-1.67V13zM74.274 12.22a3.11 3.11 0 0 1-4.4 0 3.24 3.24 0 0 1 0-4.44 2.93 2.93 0 0 1 2.2-.91 3 3 0 0 1 2.2.91 3.068 3.068 0 0 1 .88 2.22 3 3 0 0 1-.88 2.22zm-3.83-.5a2.29 2.29 0 0 0 3.26 0 2.54 2.54 0 0 0 0-3.44 2.29 2.29 0 0 0-3.26 0 2.54 2.54 0 0 0 0 3.44zM76.244 13V7h.93l2.92 4.67V7h.77v6h-.8l-3.05-4.89V13h-.77z" fill="#fff" stroke="#fff" stroke-width=".2" stroke-miterlimit="10"/><path d="M68.804 21.75a4.26 4.26 0 1 0 4.27 4.25 4.19 4.19 0 0 0-4.27-4.25zm0 6.83a2.58 2.58 0 1 1 2.4-2.58 2.46 2.46 0 0 1-2.4 2.58zm-9.32-6.83a4.26 4.26 0 1 0 4.27 4.25 4.19 4.19 0 0 0-4.27-4.25zm0 6.83a2.58 2.58 0 1 1 2.4-2.58 2.46 2.46 0 0 1-2.4 2.58zm-11.08-5.52v1.8h4.32a3.77 3.77 0 0 1-1 2.27 4.42 4.42 0 0 1-3.34 1.32 4.8 4.8 0 1 1 0-9.6 4.64 4.64 0 0 1 3.28 1.29l1.27-1.27a6.3 6.3 0 0 0-4.53-1.82 6.609 6.609 0 1 0 0 13.21 6.07 6.07 0 0 0 4.61-1.85 6 6 0 0 0 1.56-4.23 6.283 6.283 0 0 0-.09-1.12h-6.08zm45.31 1.4a4 4 0 0 0-3.64-2.71 4 4 0 0 0-4 4.25 4.23 4.23 0 0 0 7.76 2.37l-1.45-1a2.41 2.41 0 0 1-2.09 1.17 2.15 2.15 0 0 1-2.06-1.29l5.69-2.35-.21-.44zm-5.8 1.42a2.34 2.34 0 0 1 2.23-2.49 1.64 1.64 0 0 1 1.57.91l-3.8 1.58zM83.294 30h1.87V17.5h-1.87V30zm-3.06-7.3h-.07a2.941 2.941 0 0 0-2.24-1 4.26 4.26 0 0 0 0 8.51 2.88 2.88 0 0 0 2.24-1h.07v.61c0 1.63-.87 2.5-2.27 2.5a2.36 2.36 0 0 1-2.15-1.51l-1.62.67a4 4 0 0 0 3.77 2.52c2.19 0 4-1.29 4-4.43V22h-1.73v.7zm-2.15 5.88a2.58 2.58 0 0 1 0-5.15 2.388 2.388 0 0 1 2.28 2.57 2.381 2.381 0 0 1-2.28 2.58zm24.39-11.08h-4.48V30h1.87v-4.74h2.61a3.89 3.89 0 1 0 0-7.76zm0 6h-2.61v-4.26h2.65a2.143 2.143 0 0 1 2.14 2.14 2.132 2.132 0 0 1-.627 1.513 2.127 2.127 0 0 1-1.513.627l-.04-.02zm11.54-1.79a3.49 3.49 0 0 0-3.33 1.91l1.65.69a1.78 1.78 0 0 1 1.71-.91 1.803 1.803 0 0 1 1.792.931c.114.21.185.441.208.679v.12a4.177 4.177 0 0 0-1.95-.48c-1.78 0-3.6 1-3.6 2.82a2.899 2.899 0 0 0 .973 2.034 2.889 2.889 0 0 0 2.137.716 2.649 2.649 0 0 0 2.38-1.22h.06v1h1.8v-4.81c0-2.19-1.66-3.46-3.79-3.46l-.04-.02zm-.23 6.85c-.61 0-1.46-.31-1.46-1.06 0-1 1.06-1.34 2-1.34a3.321 3.321 0 0 1 1.7.42 2.259 2.259 0 0 1-2.2 2l-.04-.02zm10.62-6.56-2.14 5.42h-.06l-2.22-5.42h-2l3.33 7.58-1.9 4.21h1.95l5.12-11.79h-2.08zm-16.8 8h1.86V17.5h-1.86V30z" fill="#fff"/><path d="M11.104 7.54a2 2 0 0 0-.47 1.4v22.12a1.94 1.94 0 0 0 .47 1.4l.07.08 12.39-12.39v-.3L11.174 7.47l-.07.07z" fill="url(#a)"/><path d="m27.665 24.28-4.1-4.13v-.3l4.1-4.13.09.06 4.91 2.78c1.4.79 1.4 2.09 0 2.89l-4.89 2.78-.11.05z" fill="url(#b)"/><path d="M27.784 24.22 23.564 20l-12.46 12.46a1.62 1.62 0 0 0 2.07.07l14.61-8.31" fill="url(#c)"/><path d="m27.784 15.78-14.61-8.3a1.61 1.61 0 0 0-2.07.06L23.564 20l4.22-4.22z" fill="url(#d)"/><path opacity=".2" d="m27.663 24.13-14.49 8.25a1.66 1.66 0 0 1-2 0l-.07.07.07.08a1.66 1.66 0 0 0 2 0l14.61-8.31-.12-.09z" fill="#000"/><path opacity=".12" d="M11.104 32.32a2 2 0 0 1-.44-1.41v.15a1.94 1.94 0 0 0 .47 1.4l.07-.07-.1-.07zM32.664 21.3l-5 2.83.09.09 4.91-2.78a1.751 1.751 0 0 0 1.06-1.44 1.861 1.861 0 0 1-1.06 1.3z" fill="#000"/><path opacity=".25" d="m13.174 7.62 19.49 11.08a1.86 1.86 0 0 1 1.06 1.3 1.75 1.75 0 0 0-1.06-1.44L13.174 7.48c-1.39-.8-2.54-.14-2.54 1.46v.15c.03-1.6 1.15-2.26 2.54-1.47z" fill="#fff"/><defs><linearGradient id="a" x1="22.464" y1="8.71" x2="5.684" y2="25.49" gradientUnits="userSpaceOnUse"><stop stop-color="#00A0FF"/><stop offset=".01" stop-color="#00A1FF"/><stop offset=".26" stop-color="#00BEFF"/><stop offset=".51" stop-color="#00D2FF"/><stop offset=".76" stop-color="#00DFFF"/><stop offset="1" stop-color="#00E3FF"/></linearGradient><linearGradient id="b" x1="34.495" y1="20" x2="10.305" y2="20" gradientUnits="userSpaceOnUse"><stop stop-color="#FFE000"/><stop offset=".41" stop-color="#FFBD00"/><stop offset=".78" stop-color="orange"/><stop offset="1" stop-color="#FF9C00"/></linearGradient><linearGradient id="c" x1="25.494" y1="22.3" x2="2.734" y2="45.05" gradientUnits="userSpaceOnUse"><stop stop-color="#FF3A44"/><stop offset="1" stop-color="#C31162"/></linearGradient><linearGradient id="d" x1="7.964" y1=".18" x2="18.123" y2="10.34" gradientUnits="userSpaceOnUse"><stop stop-color="#32A071"/><stop offset=".07" stop-color="#2DA771"/><stop offset=".48" stop-color="#15CF74"/><stop offset=".8" stop-color="#06E775"/><stop offset="1" stop-color="#00F076"/></linearGradient></defs></svg>