<svg width="24" height="25" viewBox="0 0 24 25" fill="none" xmlns="http://www.w3.org/2000/svg">
<g clip-path="url(#clip0)">
<path d="M12 24.5C5.38125 24.5 0 19.1187 0 12.5C0 5.88125 5.38125 0.5 12 0.5C18.6187 0.5 24 5.88125 24 12.5C24 19.1187 18.6187 24.5 12 24.5Z" fill="#48A6EB" fill-opacity="0.2"/>
<path d="M10 19.5C12.7614 19.5 15 17.2614 15 14.5C15 11.7386 12.7614 9.5 10 9.5C7.23858 9.5 5 11.7386 5 14.5C5 17.2614 7.23858 19.5 10 19.5Z" stroke="#48A6EB" stroke-width="1.3" stroke-linecap="round" stroke-linejoin="round"/>
<path d="M14 15.5C16.7614 15.5 19 13.2614 19 10.5C19 7.73858 16.7614 5.5 14 5.5C11.2386 5.5 9 7.73858 9 10.5C9 13.2614 11.2386 15.5 14 15.5Z" stroke="#48A6EB" stroke-width="1.3" stroke-linecap="round" stroke-linejoin="round"/>
</g>
<defs>
<clipPath id="clip0">
<rect width="24" height="24" fill="white" transform="translate(0 0.5)"/>
</clipPath>
</defs>
</svg>
