<svg width="24" height="25" viewBox="0 0 24 25" fill="none" xmlns="http://www.w3.org/2000/svg">
<g clip-path="url(#clip0)">
<path opacity="0.2" d="M12 24.5C5.38125 24.5 0 19.1187 0 12.5C0 5.88125 5.38125 0.5 12 0.5C18.6187 0.5 24 5.88125 24 12.5C24 19.1187 18.6187 24.5 12 24.5Z" fill="#FBCC00"/>
<path d="M12 14.5C14.4853 14.5 16.5 12.4853 16.5 10C16.5 7.51472 14.4853 5.5 12 5.5C9.51472 5.5 7.5 7.51472 7.5 10C7.5 12.4853 9.51472 14.5 12 14.5Z" stroke="#FBCC00" stroke-width="1.5" stroke-linecap="round" stroke-linejoin="round"/>
<path d="M9.347 14.5055L8.5 19.5L12 17.8553L15.5 19.5L14.653 14.5" stroke="#FBCC00" stroke-width="1.5" stroke-linecap="round" stroke-linejoin="round"/>
</g>
<defs>
<clipPath id="clip0">
<rect width="24" height="24" fill="white" transform="translate(0 0.5)"/>
</clipPath>
</defs>
</svg>
