<svg width="24" height="24" viewBox="0 0 24 24" fill="none" xmlns="http://www.w3.org/2000/svg">
  <path d="M12 24C5.38125 24 0 18.6187 0 12C0 5.38125 5.38125 0 12 0C18.6187 0 24 5.38125 24 12C24 18.6187 18.6187 24 12 24Z" fill="#26A17B" fill-opacity="0.2"/>
  <path fill-rule="evenodd" clip-rule="evenodd" d="M13.4649 12.496V12.4945C13.3829 12.5004 12.9602 12.5257 12.0172 12.5257C11.2642 12.5257 10.7342 12.5034 10.5478 12.4945V12.4967C7.64932 12.3699 5.48589 11.8676 5.48589 11.2666C5.48589 10.6663 7.64932 10.164 10.5478 10.0349V11.9967C10.7372 12.01 11.2799 12.0419 12.0299 12.0419C12.9297 12.0419 13.3807 12.0048 13.4649 11.9974V10.0364C16.3575 10.1648 18.5157 10.6671 18.5157 11.2666C18.5157 11.8676 16.3575 12.3684 13.4649 12.496ZM13.4649 9.83239V8.07694H17.5011V5.39999H6.51169V8.07694H10.5478V9.83165C7.26763 9.98152 4.80078 10.6285 4.80078 11.4031C4.80078 12.1777 7.26763 12.8239 10.5478 12.9745V18.6H13.4649V12.9731C16.7399 12.8232 19.2008 12.1769 19.2008 11.4031C19.2008 10.6292 16.7399 9.98301 13.4649 9.83239Z" fill="#26A17B"/>
</svg>
