<svg width="20" height="15" viewBox="0 0 20 15" fill="none" xmlns="http://www.w3.org/2000/svg">
    <path d="M0 0H20V15H0V0Z" fill="#DE2910"/>
    <path d="M2.42761 5.57023L3.75011 1.49992L5.07261 5.57023L1.61011 3.0546H5.89136L2.42761 5.57023Z" fill="#FFDE00"/>
    <path d="M8.24731 1.56582L6.85699 1.88582L7.7945 0.80957L7.66949 2.23082L6.93449 1.00738L8.24731 1.56582Z" fill="#FFDE00"/>
    <path d="M9.66325 3.35059L8.257 3.1059L9.53825 2.47777L8.87138 3.73871L8.6695 2.32652L9.66325 3.35059Z" fill="#FFDE00"/>
    <path d="M9.46225 5.84054L8.27882 5.04398L9.70444 4.99273L8.58132 5.8721L8.97319 4.49992L9.46225 5.84054Z" fill="#FFDE00"/>
    <path d="M7.69853 7.473L6.91447 6.28112L8.2501 6.78456L6.8751 7.16206L7.76635 6.048L7.69853 7.473Z" fill="#FFDE00"/>
</svg>
