<svg width="20" height="15" viewBox="0 0 20 15" fill="none" xmlns="http://www.w3.org/2000/svg">
    <path d="M20 0H0V15H20V0Z" fill="#000066"/>
    <path fill-rule="evenodd" clip-rule="evenodd" d="M0 0.823242V4.1773L6.64616 7.50039L0 10.8235V14.1775L10.0002 9.17742L20 14.1773V10.8232L13.3543 7.50039L20 4.17753V0.823467L10.0002 5.82336L0 0.823242ZM10.0002 5.82336L6.64616 7.50039L10.0002 9.17742L13.3543 7.50039L10.0002 5.82336Z" fill="white"/>
    <path fill-rule="evenodd" clip-rule="evenodd" d="M7.50023 5.00009V0H12.5003V5.00009H20V10.0002H12.5003V15H7.50023V10.0002H0V5.00009H7.50023Z" fill="white"/>
    <path fill-rule="evenodd" clip-rule="evenodd" d="M0 6.00011V9.00016H8.50025V15H11.5003V9.00016H20V6.00011H11.5003V0H8.50025V6.00011H0Z" fill="#CC0000"/>
    <path fill-rule="evenodd" clip-rule="evenodd" d="M20 11.3821V12.5001L15.0004 10.0003H17.2364L20 11.3821ZM20 1.38232V2.50034L15.0004 5.00016H12.7643L20 1.38232ZM0 12.5003L5.00018 10.0003H7.23622L0 13.6184V12.5003ZM0 3.61811V2.50007L5.00018 5.00016H2.76414L0 3.61811Z" fill="#CC0000"/>
</svg>
