<svg width="20" height="15" viewBox="0 0 20 15" fill="none" xmlns="http://www.w3.org/2000/svg">
    <rect width="20" height="15" fill="white"/>
    <path d="M20 10H0V15H20V10Z" fill="#138808"/>
    <path d="M20 0H0V5H20V0Z" fill="#FF9933"/>
    <path fill-rule="evenodd" clip-rule="evenodd" d="M9.32429 7.36396L8.36865 7.03076L9.35814 7.25844L9.786 7.42888L9.32429 7.36396Z" fill="#000058"/>
    <path fill-rule="evenodd" clip-rule="evenodd" d="M8.36768 7.03246L8.36831 7.03027L9.35796 7.25799L9.78581 7.42843L9.78523 7.43061L9.32328 7.36566L8.36768 7.03246ZM8.38808 7.03717L9.32392 7.36344L9.77618 7.42703L9.3572 7.26014L8.38808 7.03717Z" fill="#000058"/>
    <path fill-rule="evenodd" clip-rule="evenodd" d="M9.37604 7.19572L8.53564 6.63184L9.4355 7.1022L9.80638 7.37522L9.37604 7.19572Z" fill="#000058"/>
    <path fill-rule="evenodd" clip-rule="evenodd" d="M8.53516 6.63183L8.53631 6.62988L9.43632 7.10031L9.8072 7.37335L9.80608 7.37533L9.37552 7.19575L8.53516 6.63183ZM8.55371 6.64154L9.37671 7.19377L9.79821 7.36956L9.43501 7.10222L8.55371 6.64154Z" fill="#000058"/>
    <path fill-rule="evenodd" clip-rule="evenodd" d="M9.47219 7.03363L8.80688 6.271L9.55385 6.95872L9.8412 7.31864L9.47219 7.03363Z" fill="#000058"/>
    <path fill-rule="evenodd" clip-rule="evenodd" d="M8.80615 6.2716L8.80779 6.27002L9.55488 6.95786L9.84223 7.31778L9.84065 7.31942L9.47143 7.03426L8.80615 6.2716ZM8.82158 6.28581L9.4731 7.03268L9.83451 7.3118L9.55315 6.95938L8.82158 6.28581Z" fill="#000058"/>
    <path fill-rule="evenodd" clip-rule="evenodd" d="M9.60829 6.9145L9.15967 6.00732L9.7064 6.86293L9.89236 7.28426L9.60829 6.9145Z" fill="#000058"/>
    <path fill-rule="evenodd" clip-rule="evenodd" d="M9.15845 6.00796L9.16042 6.00684L9.70724 6.86257L9.89323 7.28389L9.89129 7.28504L9.60707 6.91513L9.15845 6.00796ZM9.16971 6.0256L9.60907 6.91401L9.88731 7.27615L9.70518 6.86357L9.16971 6.0256Z" fill="#000058"/>
    <path fill-rule="evenodd" clip-rule="evenodd" d="M9.76609 6.82429L9.56689 5.83203L9.87416 6.79975L9.94507 7.25481L9.76609 6.82429Z" fill="#000058"/>
    <path fill-rule="evenodd" clip-rule="evenodd" d="M9.56592 5.83261L9.5681 5.83203L9.87546 6.7999L9.94637 7.25499L9.94418 7.2556L9.76512 6.82483L9.56592 5.83261ZM9.57223 5.85256L9.76736 6.82429L9.94263 7.24597L9.87322 6.80036L9.57223 5.85256Z" fill="#000058"/>
    <path fill-rule="evenodd" clip-rule="evenodd" d="M9.94678 6.79554L10.0128 5.78564L10.0575 6.80001L10.0075 7.25783L9.94678 6.79554Z" fill="#000058"/>
    <path fill-rule="evenodd" clip-rule="evenodd" d="M9.94787 6.79557L10.0073 7.24835L10.0563 6.80004L10.0125 5.80657L9.94787 6.79557ZM9.94556 6.79554L10.0115 5.78564H10.0138L10.0586 6.80019L10.0086 7.25804H10.0063L9.94556 6.79554Z" fill="#000058"/>
    <path fill-rule="evenodd" clip-rule="evenodd" d="M10.1319 6.79543L10.4553 5.83643L10.2378 6.82823L10.0718 7.25781L10.1319 6.79543Z" fill="#000058"/>
    <path fill-rule="evenodd" clip-rule="evenodd" d="M10.133 6.79555L10.074 7.24845L10.2366 6.82777L10.4496 5.8564L10.133 6.79555ZM10.1308 6.79494L10.4541 5.83594L10.4564 5.83654L10.2388 6.8285L10.0727 7.25811L10.0706 7.25753L10.1308 6.79494Z" fill="#000058"/>
    <path fill-rule="evenodd" clip-rule="evenodd" d="M10.3017 6.85617L10.8654 6.01562L10.3952 6.9156L10.1223 7.28655L10.3017 6.85617Z" fill="#000058"/>
    <path fill-rule="evenodd" clip-rule="evenodd" d="M10.3025 6.85684L10.1268 7.27837L10.3941 6.91514L10.8546 6.03372L10.3025 6.85684ZM10.3006 6.85569L10.8643 6.01514L10.8662 6.01632L10.396 6.91642L10.1231 7.28736L10.1211 7.28627L10.3006 6.85569Z" fill="#000058"/>
    <path fill-rule="evenodd" clip-rule="evenodd" d="M10.4571 6.95272L11.2139 6.28076L10.5327 7.03374L10.1753 7.32421L10.4571 6.95272Z" fill="#000058"/>
    <path fill-rule="evenodd" clip-rule="evenodd" d="M10.4576 6.95387L10.1816 7.31771L10.5316 7.03325L11.1987 6.29582L10.4576 6.95387ZM10.456 6.95223L11.2128 6.28027L11.2144 6.28188L10.5331 7.03498L10.1757 7.32546L10.1741 7.32388L10.456 6.95223Z" fill="#000058"/>
    <path fill-rule="evenodd" clip-rule="evenodd" d="M10.5824 7.08812L11.4897 6.63965L10.634 7.1862L10.2126 7.37213L10.5824 7.08812Z" fill="#000058"/>
    <path fill-rule="evenodd" clip-rule="evenodd" d="M10.5833 7.08814L10.2211 7.36629L10.6337 7.18425L11.4718 6.64896L10.5833 7.08814ZM10.5822 7.08613L11.4894 6.6377L11.4905 6.63967L10.6347 7.18631L10.2133 7.37221L10.2122 7.37026L10.5822 7.08613Z" fill="#000058"/>
    <path fill-rule="evenodd" clip-rule="evenodd" d="M10.6749 7.24966L11.6655 7.04248L10.7003 7.35755L10.2458 7.43213L10.6749 7.24966Z" fill="#000058"/>
    <path fill-rule="evenodd" clip-rule="evenodd" d="M10.6755 7.2509L10.2552 7.42961L10.7002 7.35661L11.6456 7.048L10.6755 7.2509ZM10.6749 7.24872L11.6655 7.0415L11.6661 7.04369L10.7007 7.35885L10.2462 7.4334L10.2456 7.43122L10.6749 7.24872Z" fill="#000058"/>
    <path fill-rule="evenodd" clip-rule="evenodd" d="M10.7183 7.4292L11.7286 7.48869L10.7145 7.53997L10.2563 7.49291L10.7183 7.4292Z" fill="#000058"/>
    <path fill-rule="evenodd" clip-rule="evenodd" d="M10.7182 7.42871L11.7285 7.4882V7.49047L10.7143 7.54173L10.2561 7.49466L10.2561 7.49242L10.7182 7.42871ZM10.7182 7.43099L10.2658 7.49336L10.7144 7.53945L11.7076 7.48923L10.7182 7.43099Z" fill="#000058"/>
    <path fill-rule="evenodd" clip-rule="evenodd" d="M9.34643 7.72087L8.35791 7.93783L9.31998 7.61325L9.77367 7.53418L9.34643 7.72087Z" fill="#000058"/>
    <path fill-rule="evenodd" clip-rule="evenodd" d="M9.32038 7.61348L8.37813 7.93138L9.34622 7.71891L9.76468 7.53608L9.32038 7.61348ZM9.31989 7.61127L9.77361 7.53223L9.77425 7.53438L9.34679 7.72113L8.35827 7.93806L8.35767 7.93588L9.31989 7.61127Z" fill="#000058"/>
    <path fill-rule="evenodd" clip-rule="evenodd" d="M9.43198 7.88936L8.52344 8.33519L9.38069 7.7911L9.80262 7.60645L9.43198 7.88936Z" fill="#000058"/>
    <path fill-rule="evenodd" clip-rule="evenodd" d="M9.38135 7.79271L8.54175 8.32556L9.43152 7.88896L9.79451 7.61185L9.38135 7.79271ZM9.38035 7.79064L9.80228 7.60596L9.80343 7.6079L9.43261 7.89097L8.52404 8.3368L8.52295 8.33479L9.38035 7.79064Z" fill="#000058"/>
    <path fill-rule="evenodd" clip-rule="evenodd" d="M9.55144 8.02308L8.79272 8.69285L9.47604 7.94182L9.83426 7.65234L9.55144 8.02308Z" fill="#000058"/>
    <path fill-rule="evenodd" clip-rule="evenodd" d="M9.4767 7.94306L8.80745 8.67861L9.55046 8.02268L9.82749 7.6596L9.4767 7.94306ZM9.47522 7.94133L9.83341 7.65186L9.83505 7.65343L9.55207 8.02432L8.79336 8.69409L8.79175 8.69245L9.47522 7.94133Z" fill="#000058"/>
    <path fill-rule="evenodd" clip-rule="evenodd" d="M9.70274 8.12851L9.15015 8.97638L9.60839 8.0703L9.87643 7.6958L9.70274 8.12851Z" fill="#000058"/>
    <path fill-rule="evenodd" clip-rule="evenodd" d="M9.60918 8.07157L9.16034 8.95898L9.70152 8.12863L9.87166 7.70482L9.60918 8.07157ZM9.60726 8.07033L9.8753 7.6958L9.8773 7.69689L9.70352 8.12982L9.1509 8.97765L9.14893 8.97653L9.60726 8.07033Z" fill="#000058"/>
    <path fill-rule="evenodd" clip-rule="evenodd" d="M9.88265 8.19275L9.55835 9.15146L9.7768 8.1599L9.94326 7.73047L9.88265 8.19275Z" fill="#000058"/>
    <path fill-rule="evenodd" clip-rule="evenodd" d="M9.7778 8.16063L9.56384 9.13175L9.88143 8.19291L9.9408 7.74013L9.7778 8.16063ZM9.77564 8.15987L9.9421 7.73047L9.94429 7.73102L9.88365 8.19354L9.55931 9.15221L9.55713 9.15161L9.77564 8.15987Z" fill="#000058"/>
    <path fill-rule="evenodd" clip-rule="evenodd" d="M10.0643 8.1919L9.9964 9.20168L9.95361 8.18722L10.0045 7.72949L10.0643 8.1919Z" fill="#000058"/>
    <path fill-rule="evenodd" clip-rule="evenodd" d="M10.0036 7.72952L10.0058 7.72949L10.0657 8.19214L9.9977 9.20192L9.99545 9.20189L9.95264 8.18725L10.0036 7.72952ZM10.0048 7.73918L9.95494 8.1874L9.99685 9.18097L10.0634 8.19208L10.0048 7.73918Z" fill="#000058"/>
    <path fill-rule="evenodd" clip-rule="evenodd" d="M10.2427 8.15206L10.4482 9.14304L10.1348 8.17726L10.061 7.72266L10.2427 8.15206Z" fill="#000058"/>
    <path fill-rule="evenodd" clip-rule="evenodd" d="M10.0601 7.72281L10.0622 7.72217L10.244 8.15178L10.4494 9.14276L10.4472 9.14334L10.1338 8.17741L10.0601 7.72281ZM10.0638 7.73179L10.136 8.17695L10.443 9.12284L10.2418 8.15236L10.0638 7.73179Z" fill="#000058"/>
    <path fill-rule="evenodd" clip-rule="evenodd" d="M10.4107 8.06798L10.864 8.97284L10.3129 8.12006L10.1248 7.69971L10.4107 8.06798Z" fill="#000058"/>
    <path fill-rule="evenodd" clip-rule="evenodd" d="M10.1238 7.7004L10.1257 7.69922L10.4118 8.06767L10.8651 8.97254L10.8632 8.97366L10.3119 8.12075L10.1238 7.7004ZM10.1297 7.70812L10.314 8.11972L10.8538 8.95493L10.4098 8.0688L10.1297 7.70812Z" fill="#000058"/>
    <path fill-rule="evenodd" clip-rule="evenodd" d="M10.553 7.94854L11.2264 8.70398L10.4721 8.02431L10.1809 7.66748L10.553 7.94854Z" fill="#000058"/>
    <path fill-rule="evenodd" clip-rule="evenodd" d="M10.1799 7.66863L10.1815 7.66699L10.5537 7.94818L11.2272 8.70364L11.2256 8.70522L10.4711 8.02546L10.1799 7.66863ZM10.1877 7.67452L10.4728 8.02394L11.2116 8.68958L10.5521 7.94979L10.1877 7.67452Z" fill="#000058"/>
    <path fill-rule="evenodd" clip-rule="evenodd" d="M10.6313 7.7792L11.4735 8.34041L10.5722 7.87291L10.2004 7.60107L10.6313 7.7792Z" fill="#000058"/>
    <path fill-rule="evenodd" clip-rule="evenodd" d="M10.1997 7.60256L10.2008 7.60059L10.6319 7.7788L11.4741 8.34005L11.4729 8.34199L10.5714 7.87442L10.1997 7.60256ZM10.2087 7.60633L10.5727 7.87251L11.4555 8.33039L10.6307 7.78078L10.2087 7.60633Z" fill="#000058"/>
    <path fill-rule="evenodd" clip-rule="evenodd" d="M10.686 7.61108L11.648 7.92557L10.6542 7.71724L10.2231 7.55518L10.686 7.61108Z" fill="#000058"/>
    <path fill-rule="evenodd" clip-rule="evenodd" d="M10.2229 7.55642L10.2234 7.5542L10.6866 7.6101L11.6485 7.92463L11.6479 7.92685L10.654 7.71848L10.2229 7.55642ZM10.2326 7.5576L10.6547 7.71629L11.628 7.92035L10.6859 7.61235L10.2326 7.5576Z" fill="#000058"/>
    <path d="M10.3273 7.48915C10.3273 7.57286 10.2934 7.65321 10.2329 7.71254C10.1723 7.77191 10.0902 7.80549 10.0045 7.80592C9.9187 7.80637 9.83623 7.77364 9.77511 7.71491C9.71398 7.65616 9.67915 7.5762 9.67824 7.49249C9.67736 7.40877 9.71043 7.32809 9.77028 7.26811C9.83013 7.20814 9.91187 7.17374 9.99766 7.1724C10.0834 7.1711 10.1662 7.20295 10.228 7.26107C10.2897 7.31916 10.3254 7.39878 10.3272 7.48249L10.3273 7.48915Z" fill="#000058"/>
    <path fill-rule="evenodd" clip-rule="evenodd" d="M10.2198 7.27021C10.1604 7.2144 10.0808 7.18373 9.99826 7.18497C9.91573 7.18625 9.83714 7.21938 9.77966 7.27698C9.72218 7.33458 9.69045 7.41199 9.69133 7.49227C9.69218 7.57256 9.72558 7.64929 9.78428 7.70571C9.84301 7.76216 9.92229 7.79365 10.0048 7.79323C10.0874 7.7928 10.1663 7.76049 10.2244 7.70346C10.2825 7.64647 10.3151 7.56943 10.3151 7.48917L10.315 7.48271C10.315 7.48268 10.315 7.48271 10.315 7.48271C10.3133 7.40245 10.2791 7.32602 10.2198 7.27021ZM9.99787 7.15971C10.0869 7.15834 10.1729 7.19141 10.2371 7.25181C10.3013 7.3122 10.3384 7.39501 10.3403 7.48216V7.48225L10.3404 7.48908C10.3404 7.57626 10.305 7.65983 10.2421 7.72153C10.1793 7.7832 10.094 7.81806 10.0049 7.81852C9.91594 7.81898 9.83028 7.785 9.76676 7.72396C9.70323 7.6629 9.66698 7.57973 9.66603 7.49255C9.66509 7.4054 9.69953 7.32147 9.76175 7.25913C9.82397 7.19679 9.90887 7.16108 9.99787 7.15971Z" fill="#000058"/>
    <path fill-rule="evenodd" clip-rule="evenodd" d="M9.30711 7.54824L8.29688 7.48733L9.31099 7.4375L9.76909 7.4852L9.30711 7.54824Z" fill="#000058"/>
    <path fill-rule="evenodd" clip-rule="evenodd" d="M9.31118 7.43701L9.76924 7.48475L9.7693 7.48699L9.30708 7.55006L8.29688 7.48915V7.48687L9.31118 7.43701ZM8.3178 7.48812L9.30711 7.54775L9.75958 7.48602L9.31102 7.43929L8.3178 7.48812Z" fill="#000058"/>
    <path fill-rule="evenodd" clip-rule="evenodd" d="M11.2267 6.26416C10.8991 5.93904 10.4559 5.75727 9.99445 5.75872C9.53295 5.76021 9.09092 5.94484 8.76543 6.27202C8.43997 6.59921 8.25772 7.04225 8.25869 7.50374C8.25969 7.96524 8.44383 8.40748 8.77068 8.73327C9.09754 9.0591 9.54036 9.24184 10.0019 9.24135C10.4634 9.24083 10.9058 9.05715 11.232 8.73066C11.5576 8.40463 11.7412 7.95431 11.7413 7.49233C11.7393 7.03092 11.5542 6.58919 11.2267 6.26416ZM9.99363 5.50001C10.5237 5.49834 11.0327 5.70713 11.4089 6.08054C11.7851 6.45394 11.9977 6.96144 12 7.49151V7.49205C12 8.02154 11.79 8.53805 11.415 8.91349C11.0404 9.28851 10.5322 9.49949 10.0021 9.50007C9.47207 9.50061 8.96344 9.29073 8.58803 8.9165C8.21262 8.54231 8.00113 8.03435 8 7.50429C7.99885 6.97423 8.20819 6.46539 8.58202 6.08959C8.95582 5.71375 9.46353 5.50171 9.9936 5.50001H9.99363Z" fill="#000058"/>
    <path d="M8.99391 6.10439C8.99391 6.11471 8.9896 6.12461 8.98189 6.1319C8.97417 6.13922 8.96373 6.14332 8.9528 6.14332C8.9419 6.14335 8.93145 6.13925 8.92371 6.13196C8.91599 6.12467 8.91162 6.1148 8.91162 6.10448C8.91159 6.09416 8.9159 6.08423 8.92358 6.07691C8.93127 6.06959 8.94171 6.06546 8.95264 6.06543C8.96355 6.0654 8.97402 6.06947 8.98177 6.07676C8.98951 6.08401 8.99388 6.09391 8.99391 6.10421" fill="#000058"/>
    <path d="M9.3882 5.87831C9.3882 5.88864 9.38389 5.89854 9.37618 5.90583C9.36846 5.91314 9.35802 5.91724 9.34708 5.91724C9.33618 5.91727 9.32574 5.91317 9.31799 5.90589C9.31028 5.8986 9.30591 5.8887 9.30591 5.87838C9.30588 5.86808 9.31019 5.85815 9.31787 5.85083C9.32556 5.84352 9.336 5.83939 9.34693 5.83936C9.35783 5.83933 9.36831 5.84339 9.37605 5.85065C9.3838 5.85794 9.38817 5.86781 9.3882 5.87813" fill="#000058"/>
    <path d="M9.8279 5.7611C9.8279 5.77142 9.82358 5.78132 9.81587 5.78864C9.80816 5.79593 9.79771 5.80006 9.78681 5.80006C9.77588 5.80006 9.76543 5.79599 9.75769 5.7887C9.74998 5.78141 9.74564 5.77151 9.74561 5.76119C9.74558 5.75086 9.74989 5.74096 9.75757 5.73365C9.76528 5.72633 9.77573 5.7222 9.78663 5.72217C9.79753 5.72214 9.80801 5.72621 9.81575 5.73346C9.82349 5.74075 9.82787 5.75062 9.8279 5.76094" fill="#000058"/>
    <path d="M10.2796 5.7582C10.2796 5.76849 10.2752 5.77839 10.2675 5.78571C10.2598 5.793 10.2494 5.79713 10.2385 5.79713C10.2276 5.79713 10.2171 5.79306 10.2094 5.78577C10.2016 5.77848 10.1973 5.76858 10.1973 5.75826C10.1972 5.74793 10.2015 5.73803 10.2093 5.73072C10.2169 5.7234 10.2274 5.71927 10.2383 5.71924C10.2492 5.71921 10.2597 5.72328 10.2674 5.73053C10.2752 5.73782 10.2795 5.74769 10.2796 5.75802" fill="#000058"/>
    <path d="M10.7193 5.87831C10.7193 5.88864 10.7149 5.89854 10.7073 5.90583C10.6995 5.91314 10.6891 5.91724 10.6782 5.91724C10.6673 5.91727 10.6568 5.91317 10.6491 5.90589C10.6413 5.8986 10.637 5.8887 10.637 5.87838C10.6369 5.86808 10.6412 5.85815 10.649 5.85083C10.6566 5.84352 10.6671 5.83939 10.678 5.83936C10.6889 5.83933 10.6994 5.84339 10.7071 5.85065C10.7149 5.85794 10.7192 5.86781 10.7193 5.87813" fill="#000058"/>
    <path d="M11.1157 6.1122C11.1157 6.12253 11.1114 6.13243 11.1037 6.13971C11.096 6.14703 11.0855 6.15113 11.0746 6.15113C11.0637 6.15116 11.0532 6.14706 11.0455 6.13977C11.0378 6.13249 11.0334 6.12259 11.0334 6.11226C11.0334 6.10197 11.0377 6.09204 11.0454 6.08472C11.0531 6.0774 11.0635 6.07327 11.0744 6.07324C11.0854 6.07321 11.0958 6.07728 11.1036 6.08454C11.1113 6.09183 11.1157 6.1017 11.1157 6.11202" fill="#000058"/>
    <path d="M11.439 6.4442C11.439 6.45453 11.4347 6.46443 11.427 6.47174C11.4193 6.47903 11.4088 6.48316 11.3979 6.48316C11.387 6.48316 11.3765 6.47909 11.3688 6.4718C11.3611 6.46452 11.3567 6.45462 11.3567 6.44429C11.3567 6.43397 11.361 6.42407 11.3687 6.41675C11.3764 6.40943 11.3868 6.4053 11.3977 6.40527C11.4086 6.40524 11.4191 6.40931 11.4268 6.41657C11.4346 6.42386 11.4389 6.43373 11.439 6.44405" fill="#000058"/>
    <path d="M11.6631 6.82457C11.6631 6.8349 11.6588 6.8448 11.6511 6.85212C11.6434 6.8594 11.6329 6.86353 11.622 6.86353C11.6111 6.86353 11.6006 6.85946 11.5929 6.85218C11.5852 6.84489 11.5808 6.83499 11.5808 6.82466C11.5808 6.81434 11.5851 6.80444 11.5928 6.79712C11.6005 6.7898 11.6109 6.78568 11.6218 6.78564C11.6327 6.78561 11.6432 6.78968 11.651 6.79694C11.6587 6.80423 11.6631 6.8141 11.6631 6.82442" fill="#000058"/>
    <path d="M11.7859 7.2704C11.7859 7.28073 11.7816 7.29063 11.7739 7.29792C11.7662 7.30523 11.7557 7.30933 11.7448 7.30933C11.7339 7.30936 11.7234 7.30526 11.7157 7.29798C11.708 7.29069 11.7036 7.28082 11.7036 7.2705C11.7036 7.26017 11.7079 7.25024 11.7156 7.24292C11.7233 7.23561 11.7337 7.23148 11.7446 7.23145C11.7555 7.23142 11.766 7.23548 11.7738 7.24277C11.7815 7.25003 11.7859 7.25993 11.7859 7.27022" fill="#000058"/>
    <path d="M11.7703 7.72597C11.7703 7.7363 11.766 7.74619 11.7583 7.75348C11.7505 7.7608 11.7401 7.7649 11.7292 7.7649C11.7183 7.76493 11.7078 7.76083 11.7001 7.75354C11.6924 7.74625 11.688 7.73636 11.688 7.72603C11.688 7.71574 11.6923 7.70581 11.7 7.69849C11.7077 7.69117 11.7181 7.68704 11.729 7.68701C11.7399 7.68698 11.7504 7.69105 11.7581 7.69831C11.7659 7.7056 11.7702 7.71546 11.7703 7.72579" fill="#000058"/>
    <path d="M11.6507 8.15319C11.6507 8.16351 11.6463 8.17341 11.6386 8.18073C11.6309 8.18802 11.6205 8.19212 11.6096 8.19215C11.5986 8.19215 11.5882 8.18808 11.5804 8.18079C11.5727 8.1735 11.5684 8.1636 11.5684 8.15328C11.5683 8.14295 11.5726 8.13305 11.5803 8.12574C11.588 8.11842 11.5985 8.11429 11.6094 8.11426C11.6203 8.1142 11.6308 8.11827 11.6385 8.12555C11.6462 8.13281 11.6506 8.14271 11.6507 8.15303" fill="#000058"/>
    <path d="M11.4356 8.55553C11.4356 8.56585 11.4313 8.57575 11.4235 8.58307C11.4158 8.59036 11.4053 8.59446 11.3944 8.59449C11.3835 8.59449 11.3731 8.59042 11.3654 8.58313C11.3576 8.57585 11.3533 8.56595 11.3533 8.55562C11.3532 8.5453 11.3576 8.5354 11.3652 8.52808C11.3729 8.52076 11.3834 8.51663 11.3943 8.5166C11.4052 8.51657 11.4157 8.52061 11.4234 8.5279C11.4312 8.53516 11.4355 8.54505 11.4356 8.55538" fill="#000058"/>
    <path d="M11.1097 8.87584C11.1097 8.88617 11.1053 8.89607 11.0976 8.90338C11.0899 8.91067 11.0795 8.91477 11.0685 8.9148C11.0576 8.9148 11.0472 8.91073 11.0395 8.90344C11.0317 8.89616 11.0274 8.88626 11.0273 8.87593C11.0273 8.86561 11.0316 8.85571 11.0393 8.84839C11.047 8.84107 11.0575 8.83694 11.0684 8.83691C11.0793 8.83688 11.0897 8.84092 11.0975 8.84821C11.1052 8.85547 11.1096 8.86537 11.1097 8.87569" fill="#000058"/>
    <path d="M10.7129 9.10387C10.7129 9.11419 10.7086 9.12409 10.7009 9.13141C10.6932 9.1387 10.6827 9.14283 10.6718 9.14283C10.6609 9.14283 10.6504 9.13876 10.6427 9.13147C10.635 9.12419 10.6306 9.11429 10.6306 9.10396C10.6306 9.09364 10.6349 9.08374 10.6426 9.07642C10.6503 9.0691 10.6607 9.06497 10.6716 9.06494C10.6826 9.06491 10.693 9.06898 10.7008 9.07624C10.7085 9.0835 10.7129 9.09339 10.7129 9.10372" fill="#000058"/>
    <path d="M10.2703 9.21617C10.2703 9.2265 10.266 9.2364 10.2583 9.24372C10.2505 9.251 10.2401 9.2551 10.2292 9.25513C10.2183 9.25513 10.2078 9.25103 10.2001 9.24378C10.1924 9.23649 10.188 9.22659 10.188 9.21627C10.188 9.20594 10.1923 9.19604 10.2 9.18872C10.2077 9.18141 10.2181 9.17728 10.229 9.17725C10.2399 9.17722 10.2504 9.18125 10.2581 9.18854C10.2659 9.1958 10.2702 9.2057 10.2703 9.21602" fill="#000058"/>
    <path d="M9.81862 9.20742C9.81862 9.21774 9.81431 9.22764 9.80659 9.23493C9.79888 9.24225 9.78844 9.24634 9.7775 9.24634C9.7666 9.24638 9.75613 9.24228 9.74841 9.23499C9.7407 9.2277 9.73633 9.21783 9.73633 9.20751C9.7363 9.19718 9.74061 9.18725 9.74829 9.17994C9.75597 9.17262 9.76642 9.16849 9.77735 9.16846C9.78825 9.16843 9.79873 9.1725 9.80647 9.17978C9.81422 9.18704 9.81859 9.19691 9.81862 9.20723" fill="#000058"/>
    <path d="M9.38506 9.09365C9.38506 9.10397 9.38071 9.11387 9.373 9.12116C9.36532 9.12848 9.35484 9.13258 9.34394 9.13261C9.33304 9.13261 9.32256 9.12851 9.31485 9.12122C9.30711 9.11393 9.30276 9.10406 9.30273 9.09374C9.3027 9.08341 9.30702 9.07351 9.31473 9.0662C9.32241 9.05888 9.33286 9.05475 9.34376 9.05469C9.35466 9.05466 9.36514 9.05873 9.37288 9.06601C9.38062 9.07327 9.38499 9.08317 9.38506 9.0935" fill="#000058"/>
    <path d="M8.99101 8.8666C8.99101 8.87692 8.98667 8.88682 8.97896 8.89411C8.97124 8.90143 8.9608 8.90552 8.9499 8.90552C8.939 8.90555 8.92852 8.90146 8.92081 8.89417C8.91306 8.88688 8.90872 8.87701 8.90869 8.86669C8.90866 8.85636 8.91297 8.84643 8.92066 8.83912C8.92837 8.8318 8.93881 8.82767 8.94971 8.82764C8.96062 8.82761 8.97109 8.83168 8.97884 8.83896C8.98658 8.84622 8.99095 8.85609 8.99101 8.86641" fill="#000058"/>
    <path d="M8.67192 8.54967C8.67192 8.56 8.66761 8.56989 8.6599 8.57721C8.65218 8.5845 8.64171 8.58863 8.63081 8.58863C8.61991 8.58863 8.60943 8.58456 8.60172 8.57727C8.594 8.56999 8.58963 8.56009 8.5896 8.54976C8.5896 8.53944 8.59391 8.52954 8.60159 8.52222C8.60928 8.5149 8.61972 8.51077 8.63062 8.51074C8.64156 8.51071 8.65203 8.51478 8.65977 8.52204C8.66749 8.52933 8.67189 8.5392 8.67192 8.54952" fill="#000058"/>
    <path d="M8.43803 8.15319C8.43803 8.16351 8.43372 8.17341 8.42601 8.18073C8.4183 8.18802 8.40782 8.19212 8.39692 8.19215C8.38602 8.19215 8.37554 8.18808 8.36783 8.18079C8.36012 8.1735 8.35574 8.1636 8.35571 8.15328C8.35571 8.14295 8.36002 8.13305 8.36771 8.12574C8.37539 8.11842 8.38583 8.11429 8.39674 8.11426C8.40767 8.1142 8.41814 8.11827 8.42589 8.12555C8.4336 8.13281 8.438 8.14271 8.43803 8.15303" fill="#000058"/>
    <path d="M8.32082 7.72597C8.32082 7.7363 8.3165 7.74619 8.30879 7.75348C8.30108 7.7608 8.29063 7.7649 8.27973 7.7649C8.2688 7.76493 8.25835 7.76083 8.25061 7.75354C8.2429 7.74625 8.23856 7.73636 8.23853 7.72603C8.2385 7.71574 8.24281 7.70581 8.25049 7.69849C8.25817 7.69117 8.26865 7.68704 8.27955 7.68701C8.29045 7.68698 8.30093 7.69105 8.30867 7.69831C8.31641 7.7056 8.32079 7.71546 8.32082 7.72579" fill="#000058"/>
    <path d="M8.32423 7.25524C8.32423 7.26556 8.31992 7.27546 8.31221 7.28278C8.3045 7.29007 8.29405 7.29417 8.28312 7.2942C8.27222 7.2942 8.26177 7.29013 8.25403 7.28284C8.24632 7.27555 8.24194 7.26565 8.24194 7.25533C8.24191 7.245 8.24623 7.23511 8.25391 7.22779C8.26159 7.22047 8.27204 7.21634 8.28297 7.21631C8.29387 7.21628 8.30434 7.22035 8.31209 7.22761C8.31983 7.23486 8.3242 7.24476 8.32423 7.25509" fill="#000058"/>
    <path d="M8.45 6.81237C8.45 6.82269 8.44565 6.83259 8.43794 6.83991C8.43026 6.8472 8.41978 6.8513 8.40888 6.85133C8.39798 6.85133 8.3875 6.84726 8.37979 6.83997C8.37205 6.83268 8.36771 6.82278 8.36768 6.81246C8.36765 6.80213 8.37196 6.79223 8.37967 6.78492C8.38735 6.7776 8.3978 6.77347 8.4087 6.77344C8.4196 6.77341 8.43008 6.77745 8.43782 6.78473C8.44556 6.79199 8.44994 6.80189 8.45 6.81221" fill="#000058"/>
    <path d="M8.66579 6.41881C8.66579 6.42914 8.66148 6.43904 8.65376 6.44635C8.64605 6.45364 8.6356 6.45777 8.62467 6.45777C8.61377 6.45777 8.60333 6.4537 8.59558 6.44641C8.58787 6.43913 8.5835 6.42923 8.5835 6.4189C8.58347 6.40858 8.58778 6.39868 8.59546 6.39136C8.60314 6.38404 8.61359 6.37991 8.62452 6.37988C8.63542 6.37985 8.6459 6.38392 8.65364 6.39118C8.66138 6.39847 8.66576 6.40852 8.66579 6.41881Z" fill="#000058"/>
    <path d="M8.9935 6.10388C8.9935 6.1142 8.98919 6.1241 8.98148 6.13139C8.97377 6.13871 8.96332 6.14281 8.95239 6.14281C8.94149 6.14284 8.93104 6.13874 8.9233 6.13145C8.91559 6.12416 8.91121 6.11429 8.91121 6.10397C8.91118 6.09365 8.9155 6.08372 8.92318 6.0764C8.93086 6.06908 8.94131 6.06495 8.95224 6.06492C8.96314 6.06489 8.97362 6.06896 8.98136 6.07625C8.9891 6.0835 8.99347 6.0934 8.9935 6.1037V6.10388ZM9.38765 5.87808C9.38765 5.88841 9.38334 5.8983 9.37563 5.90559C9.36791 5.91291 9.35747 5.91701 9.34653 5.91701C9.33563 5.91704 9.32519 5.91294 9.31744 5.90565C9.30973 5.89837 9.30536 5.88847 9.30536 5.87814C9.30533 5.86785 9.30964 5.85792 9.31732 5.8506C9.32501 5.84328 9.33545 5.83915 9.34638 5.83912C9.35728 5.83909 9.36776 5.84316 9.3755 5.85042C9.38325 5.85771 9.38762 5.86757 9.38765 5.8779V5.87808ZM9.82731 5.76133C9.82731 5.77165 9.823 5.78155 9.81529 5.78887C9.80757 5.79615 9.79713 5.80028 9.78623 5.80028C9.7753 5.80028 9.76485 5.79622 9.75711 5.78893C9.74939 5.78164 9.74505 5.77174 9.74502 5.76142C9.74499 5.75109 9.7493 5.74119 9.75699 5.73387C9.7647 5.72656 9.77514 5.72243 9.78605 5.7224C9.79695 5.72237 9.80742 5.72644 9.81517 5.73369C9.82291 5.74098 9.82728 5.75085 9.82731 5.76117V5.76133ZM10.2794 5.7582C10.2794 5.76849 10.2751 5.77839 10.2673 5.78571C10.2597 5.793 10.2492 5.79713 10.2383 5.79713C10.2274 5.79713 10.2169 5.79306 10.2092 5.78577C10.2014 5.77848 10.1971 5.76858 10.1971 5.75826C10.197 5.74793 10.2014 5.73803 10.2091 5.73072C10.2168 5.7234 10.2272 5.71927 10.2381 5.71924C10.249 5.71921 10.2595 5.72328 10.2672 5.73053C10.275 5.73782 10.2793 5.74769 10.2794 5.75802V5.7582ZM10.7191 5.87808C10.7191 5.88841 10.7147 5.8983 10.707 5.90559C10.6993 5.91291 10.6888 5.91701 10.6779 5.91701C10.667 5.91704 10.6566 5.91294 10.6489 5.90565C10.6411 5.89837 10.6368 5.88847 10.6367 5.87814C10.6367 5.86785 10.641 5.85792 10.6487 5.8506C10.6564 5.84328 10.6669 5.83915 10.6778 5.83912C10.6887 5.83909 10.6991 5.84316 10.7069 5.85042C10.7146 5.85771 10.719 5.86757 10.7191 5.8779V5.87808ZM11.1155 6.11177C11.1155 6.1221 11.1111 6.132 11.1034 6.13929C11.0957 6.1466 11.0852 6.1507 11.0743 6.1507C11.0634 6.15073 11.053 6.14663 11.0452 6.13935C11.0375 6.13206 11.0332 6.12216 11.0332 6.11183C11.0331 6.10154 11.0374 6.09161 11.0451 6.08429C11.0528 6.07698 11.0633 6.07285 11.0742 6.07282C11.0851 6.07278 11.0956 6.07685 11.1033 6.08411C11.111 6.0914 11.1154 6.10127 11.1155 6.11159V6.11177ZM11.4384 6.4437C11.4384 6.45402 11.434 6.46392 11.4264 6.47124C11.4187 6.47853 11.4082 6.48266 11.3973 6.48266C11.3864 6.48266 11.3759 6.47859 11.3682 6.4713C11.3604 6.46401 11.3561 6.45412 11.3561 6.44379C11.3561 6.43347 11.3603 6.42357 11.3681 6.41625C11.3757 6.40893 11.3862 6.4048 11.3971 6.40477C11.408 6.40474 11.4185 6.40881 11.4262 6.41607C11.434 6.42336 11.4383 6.43322 11.4384 6.44355V6.4437ZM11.6629 6.825C11.6629 6.83533 11.6585 6.84522 11.6508 6.85254C11.6431 6.85983 11.6326 6.86396 11.6217 6.86396C11.6108 6.86396 11.6004 6.85989 11.5926 6.8526C11.5849 6.84532 11.5806 6.83542 11.5805 6.82509C11.5805 6.81477 11.5848 6.80487 11.5925 6.79755C11.6002 6.79023 11.6107 6.7861 11.6216 6.78607C11.6325 6.78604 11.6429 6.79011 11.6507 6.79737C11.6584 6.80466 11.6628 6.81452 11.6629 6.82485V6.825ZM11.7859 7.27077C11.7859 7.28109 11.7815 7.29099 11.7738 7.29828C11.7662 7.3056 11.7557 7.3097 11.7448 7.3097C11.7339 7.30973 11.7234 7.30563 11.7157 7.29834C11.7079 7.29105 11.7036 7.28118 11.7036 7.27086C11.7035 7.26053 11.7079 7.2506 11.7156 7.24329C11.7232 7.23597 11.7337 7.23184 11.7446 7.23181C11.7555 7.23178 11.766 7.23585 11.7737 7.24313C11.7815 7.25039 11.7858 7.26029 11.7859 7.27058V7.27077ZM11.7703 7.72577C11.7703 7.73609 11.766 7.74599 11.7583 7.75328C11.7506 7.76059 11.7401 7.76469 11.7292 7.76469C11.7183 7.76472 11.7079 7.76062 11.7001 7.75334C11.6924 7.74605 11.6881 7.73615 11.688 7.72583C11.688 7.71553 11.6923 7.7056 11.7 7.69828C11.7077 7.69097 11.7181 7.68684 11.729 7.68681C11.7399 7.68678 11.7504 7.69084 11.7582 7.6981C11.7659 7.70539 11.7703 7.71526 11.7703 7.72558V7.72577ZM11.6505 8.15325C11.6505 8.16358 11.6461 8.17347 11.6384 8.18079C11.6307 8.18808 11.6202 8.19218 11.6093 8.19221C11.5984 8.19221 11.588 8.18814 11.5802 8.18085C11.5725 8.17357 11.5682 8.16367 11.5681 8.15334C11.5681 8.14302 11.5724 8.13312 11.5801 8.1258C11.5878 8.11848 11.5983 8.11435 11.6092 8.11432C11.6201 8.11426 11.6305 8.11833 11.6383 8.12562C11.646 8.13288 11.6504 8.14277 11.6505 8.1531V8.15325ZM11.4352 8.55596C11.4352 8.56628 11.4309 8.57618 11.4232 8.5835C11.4155 8.59079 11.405 8.59489 11.3941 8.59492C11.3832 8.59492 11.3727 8.59085 11.365 8.58356C11.3573 8.57627 11.3529 8.56638 11.3529 8.55605C11.3529 8.54573 11.3572 8.53583 11.3649 8.52851C11.3726 8.52119 11.383 8.51706 11.3939 8.51703C11.4049 8.517 11.4153 8.52104 11.4231 8.52833C11.4308 8.53558 11.4352 8.54548 11.4352 8.55581V8.55596ZM11.1094 8.87574C11.1094 8.88606 11.105 8.89596 11.0973 8.90328C11.0896 8.91057 11.0792 8.91467 11.0683 8.9147C11.0574 8.9147 11.0469 8.91063 11.0392 8.90334C11.0314 8.89605 11.0271 8.88616 11.0271 8.87583C11.027 8.86551 11.0313 8.85561 11.0391 8.84829C11.0467 8.84097 11.0572 8.83684 11.0681 8.83681C11.079 8.83678 11.0895 8.84082 11.0972 8.84811C11.1049 8.85536 11.1093 8.86526 11.1094 8.87559V8.87574ZM10.7127 9.10312C10.7127 9.11344 10.7084 9.12334 10.7007 9.13066C10.693 9.13795 10.6825 9.14208 10.6716 9.14208C10.6607 9.14208 10.6502 9.13801 10.6425 9.13072C10.6348 9.12343 10.6305 9.11353 10.6304 9.10321C10.6304 9.09288 10.6347 9.08298 10.6424 9.07567C10.6501 9.06835 10.6605 9.06422 10.6714 9.06419C10.6824 9.06416 10.6929 9.06823 10.7006 9.07548C10.7083 9.08274 10.7127 9.09264 10.7127 9.10296V9.10312ZM10.2702 9.21693C10.2702 9.22725 10.2658 9.23715 10.2581 9.24447C10.2504 9.25176 10.24 9.25586 10.229 9.25589C10.2181 9.25589 10.2077 9.25179 10.1999 9.24453C10.1922 9.23724 10.1879 9.22734 10.1878 9.21702C10.1878 9.20669 10.1921 9.19679 10.1998 9.18948C10.2075 9.18216 10.218 9.17803 10.2289 9.178C10.2398 9.17797 10.2502 9.18201 10.258 9.18929C10.2657 9.19655 10.2701 9.20645 10.2701 9.21678L10.2702 9.21693ZM9.81808 9.2077C9.81808 9.21802 9.81377 9.22792 9.80606 9.23521C9.79834 9.24253 9.7879 9.24662 9.77697 9.24662C9.76607 9.24665 9.75559 9.24255 9.74788 9.23527C9.74016 9.22798 9.73579 9.21811 9.73579 9.20779C9.73576 9.19746 9.74007 9.18753 9.74775 9.18021C9.75544 9.1729 9.76588 9.16877 9.77681 9.16874C9.78772 9.16871 9.79819 9.17278 9.80594 9.18006C9.81368 9.18732 9.81805 9.19719 9.81808 9.20751V9.2077ZM9.38473 9.09389C9.38473 9.10421 9.38039 9.11411 9.37268 9.1214C9.365 9.12871 9.35452 9.13281 9.34362 9.13284C9.33272 9.13284 9.32224 9.12875 9.31453 9.12146C9.30679 9.11417 9.30244 9.1043 9.30241 9.09398C9.30238 9.08365 9.30669 9.07375 9.31441 9.06643C9.32209 9.05912 9.33254 9.05499 9.34344 9.05493C9.35434 9.0549 9.36481 9.05897 9.37256 9.06625C9.3803 9.07351 9.38467 9.08341 9.38473 9.09373V9.09389ZM8.99105 8.86651C8.99105 8.87683 8.9867 8.88673 8.97899 8.89402C8.97128 8.90134 8.96083 8.90544 8.94993 8.90544C8.93903 8.90547 8.92855 8.90137 8.92084 8.89408C8.9131 8.88679 8.90875 8.87692 8.90872 8.8666C8.90869 8.85627 8.91301 8.84635 8.92069 8.83903C8.9284 8.83171 8.93885 8.82758 8.94975 8.82755C8.96065 8.82752 8.97113 8.83159 8.97887 8.83888C8.98661 8.84613 8.99098 8.856 8.99105 8.86633V8.86651ZM8.67148 8.54964C8.67148 8.55997 8.66717 8.56987 8.65945 8.57718C8.65174 8.58447 8.64126 8.5886 8.63036 8.5886C8.61946 8.5886 8.60899 8.58453 8.60127 8.57725C8.59356 8.56996 8.58919 8.56006 8.58916 8.54973C8.58916 8.53941 8.59347 8.52951 8.60115 8.52219C8.60883 8.51487 8.61928 8.51075 8.63018 8.51071C8.64111 8.51068 8.65159 8.51475 8.65933 8.52201C8.66704 8.5293 8.67145 8.53917 8.67148 8.54949V8.54964ZM8.43778 8.15325C8.43778 8.16358 8.43347 8.17347 8.42576 8.18079C8.41805 8.18808 8.40757 8.19218 8.39667 8.19221C8.38577 8.19221 8.37529 8.18814 8.36758 8.18085C8.35987 8.17357 8.35549 8.16367 8.35546 8.15334C8.35546 8.14302 8.35978 8.13312 8.36746 8.1258C8.37514 8.11848 8.38559 8.11435 8.39649 8.11432C8.40742 8.11426 8.4179 8.11833 8.42564 8.12562C8.43335 8.13288 8.43775 8.14277 8.43778 8.1531V8.15325ZM8.32082 7.72577C8.32082 7.73609 8.3165 7.74599 8.30879 7.75328C8.30108 7.76059 8.29063 7.76469 8.27973 7.76469C8.2688 7.76472 8.25835 7.76062 8.25061 7.75334C8.2429 7.74605 8.23856 7.73615 8.23853 7.72583C8.2385 7.71553 8.24281 7.7056 8.25049 7.69828C8.25817 7.69097 8.26865 7.68684 8.27955 7.68681C8.29045 7.68678 8.30093 7.69084 8.30867 7.6981C8.31641 7.70539 8.32079 7.71526 8.32082 7.72558V7.72577ZM8.32397 7.25543C8.32397 7.26576 8.31966 7.27566 8.31195 7.28297C8.30424 7.29026 8.29379 7.29436 8.28286 7.29439C8.27196 7.29439 8.26151 7.29032 8.25377 7.28303C8.24606 7.27575 8.24168 7.26585 8.24168 7.25552C8.24165 7.2452 8.24597 7.2353 8.25365 7.22798C8.26133 7.22066 8.27178 7.21653 8.28271 7.2165C8.29361 7.21647 8.30408 7.22054 8.31183 7.2278C8.31957 7.23506 8.32394 7.24496 8.32397 7.25528V7.25543ZM8.44996 6.81261C8.44996 6.82294 8.44562 6.83283 8.43791 6.84015C8.43022 6.84744 8.41975 6.85154 8.40885 6.85157C8.39795 6.85157 8.38747 6.8475 8.37976 6.84021C8.37201 6.83293 8.36767 6.82303 8.36764 6.8127C8.36761 6.80238 8.37192 6.79248 8.37963 6.78516C8.38732 6.77784 8.39776 6.77371 8.40866 6.77368C8.41956 6.77365 8.43004 6.77769 8.43778 6.78498C8.44553 6.79224 8.4499 6.80214 8.44996 6.81246V6.81261ZM8.66516 6.41913C8.66516 6.42946 8.66085 6.43936 8.65314 6.44668C8.64542 6.45396 8.63498 6.45809 8.62405 6.45809C8.61315 6.45809 8.6027 6.45402 8.59496 6.44674C8.58724 6.43945 8.58287 6.42955 8.58287 6.41923C8.58284 6.4089 8.58715 6.399 8.59484 6.39168C8.60252 6.38437 8.61296 6.38024 8.6239 6.38021C8.6348 6.38018 8.64527 6.38424 8.65302 6.3915C8.66076 6.39879 8.66513 6.40884 8.66516 6.41913Z" stroke="#000058" stroke-width="0.215365" stroke-miterlimit="0"/>
</svg>
