<svg width="20" height="15" viewBox="0 0 20 15" fill="none" xmlns="http://www.w3.org/2000/svg">
    <path fill-rule="evenodd" clip-rule="evenodd" d="M20 15H0V0H20V15Z" fill="white"/>
    <path fill-rule="evenodd" clip-rule="evenodd" d="M14.3207 7.70471C14.3207 10.0801 12.4154 12.0056 10.065 12.0056C7.71465 12.0056 5.80933 10.0801 5.80933 7.70471C5.80933 5.32932 7.71462 3.40381 10.065 3.40381C12.4155 3.40381 14.3207 5.32935 14.3207 7.70471H14.3207Z" fill="#C70000"/>
    <path d="M1.35913 3.71738L3.8101 0.882324L4.3908 1.38433L1.93982 4.21942L1.35913 3.71738Z" fill="black"/>
    <path d="M2.7425 4.91333L2.16183 4.41133L4.61281 1.57628L5.19347 2.07828L2.7425 4.91333Z" fill="black"/>
    <path d="M2.9817 5.12012L5.43267 2.28506L6.01333 2.78709L3.56237 5.62216L2.9817 5.12012Z" fill="black"/>
    <path d="M17.2361 2.01859L16.2664 0.881348L15.6823 1.37942L16.6507 2.51509L17.2361 2.01859Z" fill="black"/>
    <path d="M17.6646 2.52108L17.0936 3.03447L18.114 4.23101L18.6981 3.73296L17.6646 2.52108Z" fill="black"/>
    <path d="M15.6004 3.40588L14.6344 2.27304L14.0503 2.77112L15.015 3.90237L15.6004 3.40588Z" fill="black"/>
    <path d="M15.4981 4.46896L16.0691 3.95558L17.0661 5.12465L16.482 5.6227L15.4981 4.46896Z" fill="black"/>
    <path fill-rule="evenodd" clip-rule="evenodd" d="M5.87129 6.94682C6.00582 8.03005 6.20225 9.23711 7.8693 9.3625C8.49414 9.39994 9.70963 9.21385 10.1269 7.51123C10.6744 5.87561 12.3235 5.40536 13.4457 6.29209C14.0819 6.70711 14.258 7.3663 14.3036 7.86115C14.2526 9.45031 13.3405 10.826 12.1701 11.4395C10.8245 12.2393 8.96034 12.256 7.32734 11.0443C6.5914 10.3537 5.56311 9.08078 5.87129 6.94679V6.94682Z" fill="#3D5897"/>
    <path d="M16.9332 12.0307L17.8722 10.9118L17.2946 10.4314L16.3647 11.5395L16.9332 12.0307Z" fill="black"/>
    <path d="M16.4928 12.5555L15.9131 12.0776L14.9386 13.2388L15.5162 13.7193L16.4928 12.5555Z" fill="black"/>
    <path d="M15.6742 11.8807L14.7006 13.0409L14.123 12.5605L15.0945 11.4028L15.6742 11.8807Z" fill="black"/>
    <path d="M15.5618 10.8459L16.1304 11.3371L17.0566 10.2334L16.479 9.75297L15.5618 10.8459Z" fill="black"/>
    <path d="M16.7143 12.7381L17.294 13.216L16.3144 14.3833L15.7369 13.9028L16.7143 12.7381Z" fill="black"/>
    <path d="M17.719 12.7095L17.1504 12.2183L18.0928 11.0953L18.6704 11.5758L17.719 12.7095Z" fill="black"/>
    <path d="M17.8905 4.42141L15.4588 1.56982L14.8748 2.0679L17.3065 4.91948L17.8905 4.42141Z" fill="black"/>
    <path d="M5.99083 12.6406L3.5591 9.78906L2.97503 10.2871L5.40673 13.1387L5.99083 12.6406Z" fill="black"/>
    <path d="M4.35881 14.0323L1.92711 11.1808L1.34302 11.6788L3.77475 14.5304L4.35881 14.0323Z" fill="black"/>
    <path d="M2.75157 10.4775L3.72635 11.6206L3.14514 12.1221L2.16748 10.9756L2.75157 10.4775Z" fill="black"/>
    <path d="M3.59715 12.6521L4.16817 12.1388L5.18327 13.3292L4.59918 13.8272L3.59715 12.6521Z" fill="black"/>
</svg>
