<svg width="20" height="15" viewBox="0 0 20 15" fill="none" xmlns="http://www.w3.org/2000/svg">
    <path d="M0 0H8V15H0V0Z" fill="#009900"/>
    <path fill-rule="evenodd" clip-rule="evenodd" d="M8 0H20V15H8V0Z" fill="#FF0000"/>
    <path fill-rule="evenodd" clip-rule="evenodd" d="M7.25528 5.67983L7.22754 6.23878L10.985 5.86709L11.0127 5.30811L7.25528 5.67983Z" fill="black"/>
    <path fill-rule="evenodd" clip-rule="evenodd" d="M7.28882 5.74135L7.26758 6.16941L10.9513 5.80501L10.9726 5.37695L7.28882 5.74135Z" fill="#EFEF00"/>
    <path fill-rule="evenodd" clip-rule="evenodd" d="M7.23589 5.56392L7.22681 5.74738L11.0222 5.37194L11.0312 5.18848L7.23589 5.56392Z" fill="black"/>
    <path fill-rule="evenodd" clip-rule="evenodd" d="M7.26625 5.62612L7.26367 5.67809L10.9916 5.30933L10.9941 5.25732L7.26625 5.62612Z" fill="#EFEF00"/>
    <path fill-rule="evenodd" clip-rule="evenodd" d="M7.20564 6.17522L7.19653 6.35871L10.9919 5.98326L11.001 5.7998L7.20564 6.17522Z" fill="black"/>
    <path fill-rule="evenodd" clip-rule="evenodd" d="M7.23598 6.23793L7.2334 6.28991L10.9613 5.92111L10.9639 5.86914L7.23598 6.23793Z" fill="#EFEF00"/>
    <path fill-rule="evenodd" clip-rule="evenodd" d="M7.82337 7.46449L7.79565 8.02345L11.5531 7.65176L11.5808 7.09277L7.82337 7.46449Z" fill="black"/>
    <path fill-rule="evenodd" clip-rule="evenodd" d="M7.85693 7.52602L7.83569 7.95408L11.5194 7.58968L11.5406 7.16162L7.85693 7.52602Z" fill="#EFEF00"/>
    <path fill-rule="evenodd" clip-rule="evenodd" d="M7.804 7.34856L7.79492 7.53205L11.5903 7.1566L11.5993 6.97314L7.804 7.34856Z" fill="black"/>
    <path fill-rule="evenodd" clip-rule="evenodd" d="M7.83434 7.41124L7.83179 7.46322L11.5597 7.09445L11.5623 7.04248L7.83434 7.41124Z" fill="#EFEF00"/>
    <path fill-rule="evenodd" clip-rule="evenodd" d="M7.77349 7.96038L7.7644 8.14387L11.5597 7.76842L11.5688 7.58496L7.77349 7.96038Z" fill="black"/>
    <path fill-rule="evenodd" clip-rule="evenodd" d="M7.80409 8.02257L7.80151 8.07457L11.5294 7.70581L11.532 7.65381L7.80409 8.02257Z" fill="#EFEF00"/>
    <path fill-rule="evenodd" clip-rule="evenodd" d="M7.59607 9.47618L7.56836 10.0352L11.3258 9.66348L11.3535 9.10449L7.59607 9.47618Z" fill="black"/>
    <path fill-rule="evenodd" clip-rule="evenodd" d="M7.62961 9.53773L7.6084 9.96575L11.2921 9.60139L11.3133 9.17334L7.62961 9.53773Z" fill="#EFEF00"/>
    <path fill-rule="evenodd" clip-rule="evenodd" d="M7.57671 9.36028L7.56763 9.54377L11.3629 9.16832L11.372 8.98486L7.57671 9.36028Z" fill="black"/>
    <path fill-rule="evenodd" clip-rule="evenodd" d="M7.60707 9.42298L7.60449 9.47498L11.3324 9.10617L11.335 9.0542L7.60707 9.42298Z" fill="#EFEF00"/>
    <path fill-rule="evenodd" clip-rule="evenodd" d="M7.54619 9.97212L7.53711 10.1556L11.3324 9.78017L11.3415 9.59668L7.54619 9.97212Z" fill="black"/>
    <path fill-rule="evenodd" clip-rule="evenodd" d="M7.57655 10.0348L7.57397 10.0868L11.3019 9.71799L11.3044 9.66602L7.57655 10.0348Z" fill="#EFEF00"/>
    <path fill-rule="evenodd" clip-rule="evenodd" d="M8.04771 9.33458L8.07543 9.89354L4.318 9.52185L4.29028 8.96289L8.04771 9.33458Z" fill="black"/>
    <path fill-rule="evenodd" clip-rule="evenodd" d="M8.01407 9.39613L8.03531 9.82418L4.35153 9.45979L4.33032 9.03174L8.01407 9.39613Z" fill="#EFEF00"/>
    <path fill-rule="evenodd" clip-rule="evenodd" d="M8.06705 9.21871L8.07613 9.40217L4.28081 9.02672L4.27173 8.84326L8.06705 9.21871Z" fill="black"/>
    <path fill-rule="evenodd" clip-rule="evenodd" d="M8.03647 9.28138L8.03905 9.33335L4.31117 8.96457L4.30859 8.9126L8.03647 9.28138Z" fill="#EFEF00"/>
    <path fill-rule="evenodd" clip-rule="evenodd" d="M8.09732 9.83004L8.10643 10.0135L4.31108 9.63805L4.302 9.45459L8.09732 9.83004Z" fill="black"/>
    <path fill-rule="evenodd" clip-rule="evenodd" d="M8.06703 9.89273L8.06961 9.94471L4.34169 9.57593L4.33911 9.52393L8.06703 9.89273Z" fill="#EFEF00"/>
    <path fill-rule="evenodd" clip-rule="evenodd" d="M7.78543 7.71786L7.62008 8.22188L3.61353 7.79549L3.77888 7.2915L7.78543 7.71786Z" fill="black"/>
    <path fill-rule="evenodd" clip-rule="evenodd" d="M7.72693 7.77201L7.60031 8.15799L3.67236 7.73999L3.79898 7.354L7.72693 7.77201Z" fill="#EFEF00"/>
    <path fill-rule="evenodd" clip-rule="evenodd" d="M7.84736 7.6138L7.79308 7.77921L3.74609 7.34854L3.80035 7.18311L7.84736 7.6138Z" fill="black"/>
    <path fill-rule="evenodd" clip-rule="evenodd" d="M7.79195 7.66914L7.7766 7.71602L3.80151 7.29297L3.81689 7.24609L7.79195 7.66914Z" fill="#EFEF00"/>
    <path fill-rule="evenodd" clip-rule="evenodd" d="M7.66646 8.1651L7.6122 8.33052L3.56519 7.89985L3.61947 7.73438L7.66646 8.1651Z" fill="black"/>
    <path fill-rule="evenodd" clip-rule="evenodd" d="M7.61104 8.2204L7.59566 8.26727L3.62061 7.84424L3.63599 7.79736L7.61104 8.2204Z" fill="#EFEF00"/>
    <path fill-rule="evenodd" clip-rule="evenodd" d="M7.29306 7.63712L6.8856 8.06828L3.93921 6.05714L4.34664 5.62598L7.29306 7.63712Z" fill="black"/>
    <path fill-rule="evenodd" clip-rule="evenodd" d="M7.21677 7.66748L6.90476 7.99766L4.01611 6.02598L4.32818 5.6958L7.21677 7.66748Z" fill="#EFEF00"/>
    <path fill-rule="evenodd" clip-rule="evenodd" d="M7.39917 7.55928L7.26543 7.70079L4.28931 5.66934L4.42305 5.52783L7.39917 7.55928Z" fill="black"/>
    <path fill-rule="evenodd" clip-rule="evenodd" d="M7.32466 7.59203L7.28677 7.63214L4.36353 5.63682L4.40141 5.59668L7.32466 7.59203Z" fill="#EFEF00"/>
    <path fill-rule="evenodd" clip-rule="evenodd" d="M6.95335 8.03093L6.81964 8.17247L3.84351 6.14102L3.97722 5.99951L6.95335 8.03093Z" fill="black"/>
    <path fill-rule="evenodd" clip-rule="evenodd" d="M6.87908 8.0637L6.8412 8.10378L3.91797 6.10847L3.95585 6.06836L6.87908 8.0637Z" fill="#EFEF00"/>
    <path fill-rule="evenodd" clip-rule="evenodd" d="M11.0348 7.64446C11.0363 9.50915 9.52077 11.0225 7.65197 11.0225C5.78312 11.0254 4.26518 9.51451 4.26369 7.64988C4.25918 5.78514 5.77228 4.26943 7.6411 4.26642C9.50996 4.2605 11.0303 5.76905 11.0349 7.63359C11.0349 7.63737 11.0349 7.64056 11.0349 7.64434L11.0348 7.64446ZM11.829 7.64446C11.8308 9.94655 9.95978 11.8148 7.65273 11.8148C5.34551 11.8184 3.47126 9.95302 3.46974 7.65108C3.46417 5.34894 5.33221 3.47775 7.6394 3.47414C9.94663 3.46682 11.8236 5.32925 11.829 7.63116C11.8291 7.63585 11.8291 7.63977 11.8291 7.64446H11.829Z" fill="#EFEF00"/>
    <path fill-rule="evenodd" clip-rule="evenodd" d="M11.7453 7.64454C11.7471 9.90058 9.91352 11.7315 7.65256 11.7315C5.39149 11.735 3.55481 9.90693 3.55299 7.65105C3.54754 5.39496 5.37824 3.56121 7.63952 3.55764C9.90063 3.55049 11.74 5.37565 11.7453 7.63151C11.7455 7.63611 11.7455 7.64 11.7455 7.64454H11.7453ZM11.6634 7.64454C11.6651 9.85546 9.86823 11.6498 7.6525 11.6498C5.43666 11.6533 3.63687 9.86179 3.63508 7.65076C3.62972 5.43978 5.42377 3.64257 7.63976 3.63902C9.85563 3.63199 11.6581 5.42062 11.6634 7.63151C11.6635 7.63602 11.6635 7.6398 11.6635 7.64428L11.6634 7.64454Z" fill="black"/>
    <path fill-rule="evenodd" clip-rule="evenodd" d="M11.2026 7.64457C11.2041 9.60172 9.61352 11.19 7.65215 11.19C5.69061 11.1931 4.09727 9.60726 4.09571 7.65022C4.09097 5.69304 5.67912 4.10222 7.64081 4.09914C9.60232 4.09293 11.198 5.67628 11.2026 7.63329C11.2027 7.63727 11.2027 7.64061 11.2027 7.64457H11.2026ZM11.1316 7.64457C11.1331 9.56258 9.57423 11.1192 7.65206 11.1192C5.72981 11.1222 4.16846 9.56806 4.16691 7.64996C4.16225 5.73195 5.71861 4.17282 7.64102 4.16972C9.5633 4.16362 11.1269 5.7153 11.1316 7.63329C11.1317 7.63718 11.1317 7.64046 11.1317 7.64433L11.1316 7.64457Z" fill="black"/>
    <path fill-rule="evenodd" clip-rule="evenodd" d="M7.46316 3.46387H7.98225V11.8508H7.46313L7.46316 3.46387Z" fill="black"/>
    <path fill-rule="evenodd" clip-rule="evenodd" d="M7.52368 3.54639H7.92124V11.7688H7.52368V3.54639Z" fill="#EFEF00"/>
    <path fill-rule="evenodd" clip-rule="evenodd" d="M7.35327 3.40771H7.52366V11.8793H7.35327V3.40771Z" fill="black"/>
    <path fill-rule="evenodd" clip-rule="evenodd" d="M7.41455 3.48291H7.4628V11.8039H7.41455V3.48291Z" fill="#EFEF00"/>
    <path fill-rule="evenodd" clip-rule="evenodd" d="M7.92114 3.40771H8.09153V11.8793H7.92114V3.40771Z" fill="black"/>
    <path fill-rule="evenodd" clip-rule="evenodd" d="M7.98242 3.48291H8.03067V11.8039H7.98242V3.48291Z" fill="#EFEF00"/>
    <path fill-rule="evenodd" clip-rule="evenodd" d="M7.51013 8.36279L7.7029 8.88829L4.0043 9.64649L3.81152 9.12099L7.51013 8.36279Z" fill="black"/>
    <path fill-rule="evenodd" clip-rule="evenodd" d="M7.49619 8.43164L7.64385 8.83407L4.01777 9.57746L3.87012 9.17501L7.49619 8.43164Z" fill="#EFEF00"/>
    <path fill-rule="evenodd" clip-rule="evenodd" d="M7.49403 8.24658L7.55731 8.41909L3.82134 9.18495L3.75806 9.01248L7.49403 8.24658Z" fill="black"/>
    <path fill-rule="evenodd" clip-rule="evenodd" d="M7.48355 8.31543L7.50148 8.3643L3.83189 9.11654L3.81396 9.06767L7.48355 8.31543Z" fill="#EFEF00"/>
    <path fill-rule="evenodd" clip-rule="evenodd" d="M7.70495 8.82178L7.76823 8.99425L4.03228 9.76015L3.96899 9.58764L7.70495 8.82178Z" fill="black"/>
    <path fill-rule="evenodd" clip-rule="evenodd" d="M7.69445 8.89062L7.71238 8.93949L4.04283 9.69173L4.0249 9.64287L7.69445 8.89062Z" fill="#EFEF00"/>
    <path fill-rule="evenodd" clip-rule="evenodd" d="M7.31409 6.79785L7.33908 7.33407L3.46127 7.75431L3.43628 7.21809L7.31409 6.79785Z" fill="black"/>
    <path fill-rule="evenodd" clip-rule="evenodd" d="M7.27886 6.86475L7.29799 7.2754L3.49621 7.68735L3.47705 7.27669L7.27886 6.86475Z" fill="#EFEF00"/>
    <path fill-rule="evenodd" clip-rule="evenodd" d="M7.33472 6.68164L7.34292 6.85766L3.42593 7.28211L3.41772 7.1061L7.33472 6.68164Z" fill="black"/>
    <path fill-rule="evenodd" clip-rule="evenodd" d="M7.30295 6.74854L7.30529 6.7984L3.45791 7.21531L3.45557 7.16545L7.30295 6.74854Z" fill="#EFEF00"/>
    <path fill-rule="evenodd" clip-rule="evenodd" d="M7.36208 7.26807L7.37028 7.44408L3.45327 7.86855L3.44507 7.69254L7.36208 7.26807Z" fill="black"/>
    <path fill-rule="evenodd" clip-rule="evenodd" d="M7.33032 7.33496L7.33264 7.38482L3.48525 7.80173L3.48291 7.75189L7.33032 7.33496Z" fill="#EFEF00"/>
    <path fill-rule="evenodd" clip-rule="evenodd" d="M7.409 6.6947L7.08761 7.19304L3.82178 5.75472L4.14316 5.25635L7.409 6.6947Z" fill="black"/>
    <path fill-rule="evenodd" clip-rule="evenodd" d="M7.33953 6.73877L7.09343 7.12042L3.8916 5.71027L4.13775 5.32861L7.33953 6.73877Z" fill="#EFEF00"/>
    <path fill-rule="evenodd" clip-rule="evenodd" d="M7.49902 6.59889L7.39355 6.76245L4.09473 5.30959L4.2002 5.146L7.49902 6.59889Z" fill="black"/>
    <path fill-rule="evenodd" clip-rule="evenodd" d="M7.43192 6.64482L7.40204 6.69117L4.16187 5.26412L4.19175 5.21777L7.43192 6.64482Z" fill="#EFEF00"/>
    <path fill-rule="evenodd" clip-rule="evenodd" d="M7.14746 7.1443L7.04199 7.30787L3.74316 5.855L3.84863 5.69141L7.14746 7.1443Z" fill="black"/>
    <path fill-rule="evenodd" clip-rule="evenodd" d="M7.08036 7.19023L7.05048 7.23658L3.8103 5.80953L3.84019 5.76318L7.08036 7.19023Z" fill="#EFEF00"/>
    <path fill-rule="evenodd" clip-rule="evenodd" d="M11.8833 6.84659L11.8764 7.38252L7.979 7.19364L7.98598 6.65771L11.8833 6.84659Z" fill="black"/>
    <path fill-rule="evenodd" clip-rule="evenodd" d="M11.8443 6.90687L11.839 7.31729L8.01807 7.13213L8.02343 6.72168L11.8443 6.90687Z" fill="#EFEF00"/>
    <path fill-rule="evenodd" clip-rule="evenodd" d="M11.9109 6.73424L11.9086 6.91014L7.97192 6.71936L7.97421 6.54346L11.9109 6.73424Z" fill="black"/>
    <path fill-rule="evenodd" clip-rule="evenodd" d="M11.8752 6.79578L11.8745 6.84561L8.00781 6.65823L8.00846 6.6084L11.8752 6.79578Z" fill="#EFEF00"/>
    <path fill-rule="evenodd" clip-rule="evenodd" d="M11.9033 7.32066L11.901 7.49655L7.96436 7.30578L7.96664 7.12988L11.9033 7.32066Z" fill="black"/>
    <path fill-rule="evenodd" clip-rule="evenodd" d="M11.8676 7.38219L11.8669 7.43205L8.00024 7.24463L8.00089 7.19482L11.8676 7.38219Z" fill="#EFEF00"/>
    <path fill-rule="evenodd" clip-rule="evenodd" d="M11.1808 5.30101L11.3335 5.78089L8.11559 5.67958L7.96289 5.19971L11.1808 5.30101Z" fill="black"/>
    <path fill-rule="evenodd" clip-rule="evenodd" d="M11.167 5.35566L11.2839 5.72318L8.12916 5.62387L8.01221 5.25635L11.167 5.35566Z" fill="#EFEF00"/>
    <path fill-rule="evenodd" clip-rule="evenodd" d="M11.17 5.19999L11.2201 5.35753L7.96978 5.25519L7.91968 5.09766L11.17 5.19999Z" fill="black"/>
    <path fill-rule="evenodd" clip-rule="evenodd" d="M11.1592 5.2558L11.1734 5.30042L7.98073 5.19992L7.96655 5.15527L11.1592 5.2558Z" fill="#EFEF00"/>
    <path fill-rule="evenodd" clip-rule="evenodd" d="M11.337 5.72489L11.3872 5.88239L8.13677 5.78005L8.08667 5.62256L11.337 5.72489Z" fill="black"/>
    <path fill-rule="evenodd" clip-rule="evenodd" d="M11.3262 5.78069L11.3404 5.8253L8.14775 5.72479L8.13354 5.68018L11.3262 5.78069Z" fill="#EFEF00"/>
    <path fill-rule="evenodd" clip-rule="evenodd" d="M11.6138 9.09498L11.3821 9.59303L7.79492 8.28418L8.02666 7.78613L11.6138 9.09498Z" fill="black"/>
    <path fill-rule="evenodd" clip-rule="evenodd" d="M11.5517 9.14011L11.3742 9.5215L7.85742 8.23832L8.03487 7.85693L11.5517 9.14011Z" fill="#EFEF00"/>
    <path fill-rule="evenodd" clip-rule="evenodd" d="M11.6868 8.99832L11.6107 9.1618L7.9873 7.83975L8.06339 7.67627L11.6868 8.99832Z" fill="black"/>
    <path fill-rule="evenodd" clip-rule="evenodd" d="M11.6274 9.04514L11.6058 9.09143L8.04688 7.79287L8.06841 7.74658L11.6274 9.04514Z" fill="#EFEF00"/>
    <path fill-rule="evenodd" clip-rule="evenodd" d="M11.4333 9.54325L11.3573 9.70672L7.73389 8.38467L7.80994 8.22119L11.4333 9.54325Z" fill="black"/>
    <path fill-rule="evenodd" clip-rule="evenodd" d="M11.374 9.59005L11.3525 9.63634L7.79346 8.33779L7.81499 8.2915L11.374 9.59005Z" fill="#EFEF00"/>
    <path fill-rule="evenodd" clip-rule="evenodd" d="M5.22876 4.89062H10.0429V8.42658H5.22876V4.89062Z" fill="#F6F6FB"/>
    <path d="M7.63554 10.5622C8.9649 10.5622 10.0426 9.56159 10.0426 8.32725C10.0426 7.09291 8.9649 6.09229 7.63554 6.09229C6.30618 6.09229 5.22852 7.09291 5.22852 8.32725C5.22852 9.56159 6.30618 10.5622 7.63554 10.5622Z" fill="#F6F6FB"/>
    <path fill-rule="evenodd" clip-rule="evenodd" d="M6.33594 5.92529H8.93563V7.83467H6.33594V5.92529Z" fill="#F6F6FB"/>
    <path d="M7.63577 9.25458C8.35364 9.25458 8.93559 8.71424 8.93559 8.0477C8.93559 7.38116 8.35364 6.84082 7.63577 6.84082C6.91789 6.84082 6.33594 7.38116 6.33594 8.0477C6.33594 8.71424 6.91789 9.25458 7.63577 9.25458Z" fill="#F6F6FB"/>
    <path fill-rule="evenodd" clip-rule="evenodd" d="M5.34863 5.03369H9.9223V8.39261H5.34863V5.03369Z" fill="#FF0000"/>
    <path d="M7.63517 10.4214C8.89813 10.4214 9.92195 9.4709 9.92195 8.29836C9.92195 7.12582 8.89813 6.17529 7.63517 6.17529C6.37222 6.17529 5.34839 7.12582 5.34839 8.29836C5.34839 9.4709 6.37222 10.4214 7.63517 10.4214Z" fill="#FF0000"/>
    <path fill-rule="evenodd" clip-rule="evenodd" d="M6.40137 6.01611H8.87117V7.8299H6.40137V6.01611Z" fill="#FF0000"/>
    <path d="M7.63627 9.17864C8.31829 9.17864 8.87118 8.66536 8.87118 8.03219C8.87118 7.39903 8.31829 6.88574 7.63627 6.88574C6.95425 6.88574 6.40137 7.39903 6.40137 8.03219C6.40137 8.66536 6.95425 9.17864 7.63627 9.17864Z" fill="#FF0000"/>
    <path fill-rule="evenodd" clip-rule="evenodd" d="M6.27051 6.11719H9.00035V8.12223H6.27051V6.11719Z" fill="#440000"/>
    <path d="M7.63541 9.33347C8.38922 9.33347 9.00031 8.76607 9.00031 8.06615C9.00031 7.36623 8.38922 6.79883 7.63541 6.79883C6.88159 6.79883 6.27051 7.36623 6.27051 8.06615C6.27051 8.76607 6.88159 9.33347 7.63541 9.33347Z" fill="#440000"/>
    <path fill-rule="evenodd" clip-rule="evenodd" d="M6.89941 6.70459H8.37354V7.7873H6.89941V6.70459Z" fill="#440000"/>
    <path d="M7.63648 8.59237C8.04355 8.59237 8.37355 8.28597 8.37355 7.908C8.37355 7.53004 8.04355 7.22363 7.63648 7.22363C7.22941 7.22363 6.89941 7.53004 6.89941 7.908C6.89941 8.28597 7.22941 8.59237 7.63648 8.59237Z" fill="#440000"/>
    <path fill-rule="evenodd" clip-rule="evenodd" d="M6.40356 6.27441H8.86728V8.08392H6.40356V6.27441Z" fill="white"/>
    <path d="M7.63539 9.17708C8.31571 9.17708 8.86722 8.66502 8.86722 8.03336C8.86722 7.40171 8.31571 6.88965 7.63539 6.88965C6.95507 6.88965 6.40356 7.40171 6.40356 8.03336C6.40356 8.66502 6.95507 9.17708 7.63539 9.17708Z" fill="white"/>
    <path fill-rule="evenodd" clip-rule="evenodd" d="M6.97119 6.8042H8.3016V7.78129H6.97119V6.8042Z" fill="white"/>
    <path d="M7.63639 8.5077C8.00377 8.5077 8.30159 8.23118 8.30159 7.89008C8.30159 7.54898 8.00377 7.27246 7.63639 7.27246C7.26901 7.27246 6.97119 7.54898 6.97119 7.89008C6.97119 8.23118 7.26901 8.5077 7.63639 8.5077Z" fill="white"/>
    <path fill-rule="evenodd" clip-rule="evenodd" d="M7.29346 8.20898H8.01559V8.73938H7.29346V8.20898Z" fill="#3B3BFF"/>
    <path d="M7.65451 9.05962C7.85392 9.05962 8.01557 8.90953 8.01557 8.72439C8.01557 8.53925 7.85392 8.38916 7.65451 8.38916C7.45511 8.38916 7.29346 8.53925 7.29346 8.72439C7.29346 8.90953 7.45511 9.05962 7.65451 9.05962Z" fill="#3B3BFF"/>
    <path fill-rule="evenodd" clip-rule="evenodd" d="M7.45947 8.36426H7.84942V8.65065H7.45947V8.36426Z" fill="#3B3BFF"/>
    <path d="M7.65445 8.86352C7.76213 8.86352 7.84943 8.78247 7.84943 8.68249C7.84943 8.58251 7.76213 8.50146 7.65445 8.50146C7.54677 8.50146 7.45947 8.58251 7.45947 8.68249C7.45947 8.78247 7.54677 8.86352 7.65445 8.86352Z" fill="#3B3BFF"/>
    <path fill-rule="evenodd" clip-rule="evenodd" d="M7.31787 8.28418H7.99185V8.77918H7.31787V8.28418Z" fill="#3B3BFF"/>
    <path d="M7.65485 9.07841C7.84096 9.07841 7.99184 8.93832 7.99184 8.76552C7.99184 8.59272 7.84096 8.45264 7.65485 8.45264C7.46874 8.45264 7.31787 8.59272 7.31787 8.76552C7.31787 8.93832 7.46874 9.07841 7.65485 9.07841Z" fill="#3B3BFF"/>
    <path fill-rule="evenodd" clip-rule="evenodd" d="M7.42773 8.40283H7.7917V8.67012H7.42773V8.40283Z" fill="#3B3BFF"/>
    <path d="M7.60971 8.86868C7.71021 8.86868 7.79168 8.79303 7.79168 8.69972C7.79168 8.60641 7.71021 8.53076 7.60971 8.53076C7.50921 8.53076 7.42773 8.60641 7.42773 8.69972C7.42773 8.79303 7.50921 8.86868 7.60971 8.86868Z" fill="#3B3BFF"/>
    <path fill-rule="evenodd" clip-rule="evenodd" d="M7.45068 8.39404H7.85989V8.6946H7.45068V8.39404Z" fill="#3B3BFF"/>
    <path d="M7.65455 8.87604C7.76755 8.87604 7.85915 8.79099 7.85915 8.68607C7.85915 8.58115 7.76755 8.49609 7.65455 8.49609C7.54155 8.49609 7.44995 8.58115 7.44995 8.68607C7.44995 8.79099 7.54155 8.87604 7.65455 8.87604Z" fill="#3B3BFF"/>
    <path fill-rule="evenodd" clip-rule="evenodd" d="M7.54297 8.48145H7.76394V8.64371H7.54297V8.48145Z" fill="#3B3BFF"/>
    <path d="M7.65346 8.76425C7.71448 8.76425 7.76395 8.71832 7.76395 8.66167C7.76395 8.60501 7.71448 8.55908 7.65346 8.55908C7.59244 8.55908 7.54297 8.60501 7.54297 8.66167C7.54297 8.71832 7.59244 8.76425 7.65346 8.76425Z" fill="#3B3BFF"/>
    <path fill-rule="evenodd" clip-rule="evenodd" d="M7.47021 8.4165H7.83976V8.68791H7.47021V8.4165Z" fill="#3B3BFF"/>
    <path d="M7.65449 8.85189C7.75654 8.85189 7.83926 8.77509 7.83926 8.68034C7.83926 8.5856 7.75654 8.50879 7.65449 8.50879C7.55245 8.50879 7.46973 8.5856 7.46973 8.68034C7.46973 8.77509 7.55245 8.85189 7.65449 8.85189Z" fill="#3B3BFF"/>
    <path fill-rule="evenodd" clip-rule="evenodd" d="M7.55469 8.49609H7.75424V8.64267H7.55469V8.49609Z" fill="#3B3BFF"/>
    <path d="M7.65446 8.7517C7.70957 8.7517 7.75424 8.71022 7.75424 8.65905C7.75424 8.60789 7.70957 8.56641 7.65446 8.56641C7.59936 8.56641 7.55469 8.60789 7.55469 8.65905C7.55469 8.71022 7.59936 8.7517 7.65446 8.7517Z" fill="#3B3BFF"/>
    <path d="M7.43758 8.46699C7.49723 8.46699 7.54558 8.41874 7.54558 8.35923C7.54558 8.29971 7.49723 8.25146 7.43758 8.25146C7.37794 8.25146 7.32959 8.29971 7.32959 8.35923C7.32959 8.41874 7.37794 8.46699 7.43758 8.46699Z" fill="white"/>
    <path d="M7.84237 8.46699C7.90201 8.46699 7.95036 8.41874 7.95036 8.35923C7.95036 8.29971 7.90201 8.25146 7.84237 8.25146C7.78273 8.25146 7.73438 8.29971 7.73438 8.35923C7.73438 8.41874 7.78273 8.46699 7.84237 8.46699Z" fill="white"/>
    <path d="M7.63631 8.69401C7.69596 8.69401 7.74431 8.64577 7.74431 8.58626C7.74431 8.52676 7.69596 8.47852 7.63631 8.47852C7.57667 8.47852 7.52832 8.52676 7.52832 8.58626C7.52832 8.64577 7.57667 8.69401 7.63631 8.69401Z" fill="white"/>
    <path d="M7.45321 8.91377C7.51285 8.91377 7.5612 8.86552 7.5612 8.806C7.5612 8.74649 7.51285 8.69824 7.45321 8.69824C7.39356 8.69824 7.34521 8.74649 7.34521 8.806C7.34521 8.86552 7.39356 8.91377 7.45321 8.91377Z" fill="white"/>
    <path d="M7.83797 8.92057C7.89762 8.92057 7.94597 8.87233 7.94597 8.81283C7.94597 8.75332 7.89762 8.70508 7.83797 8.70508C7.77833 8.70508 7.72998 8.75332 7.72998 8.81283C7.72998 8.87233 7.77833 8.92057 7.83797 8.92057Z" fill="white"/>
    <path fill-rule="evenodd" clip-rule="evenodd" d="M5.42074 5.52615V5.59464H6.3362V5.52615H5.42074ZM5.50019 5.33713V5.52782H6.27831V5.33713H5.50019ZM5.43152 5.96399V6.03251H6.34698V5.96399H5.43152ZM5.67685 5.94281C5.67677 5.81844 5.77254 5.71751 5.89066 5.71751C6.00878 5.71731 6.1047 5.81809 6.10482 5.94245V5.94527L5.67685 5.94281ZM5.65306 5.9552C5.65295 5.81701 5.75941 5.70486 5.89063 5.70486C6.02188 5.70462 6.12846 5.8166 6.12855 5.95479V5.95789L5.65306 5.9552ZM5.50019 5.61342V5.95593H6.27831V5.61345H5.50019V5.61342ZM5.42071 5.27182V5.33657H6.33617V5.27182H5.42071ZM5.42065 5.18042V5.27244H5.49117V5.18042H5.42065ZM6.26601 5.18042V5.27244H6.33653V5.18042H6.26601ZM5.56125 5.18226V5.27429H5.63177V5.18226H5.56125ZM6.12169 5.18039V5.27244H6.19224V5.18039H6.12172H6.12169ZM5.69809 5.09367V5.18569H5.76864V5.09367H5.69809ZM5.97928 5.09364V5.18569H6.0498V5.09364H5.97928ZM5.84238 5.0918V5.18385H5.91293V5.0918H5.84238ZM5.69792 5.18637V5.27434H6.04939V5.18637H5.69789H5.69792Z" fill="#FFFF00"/>
    <path fill-rule="evenodd" clip-rule="evenodd" d="M5.69507 5.32417H5.76559V5.41617H5.69507V5.32417ZM6.01139 5.32227H6.08191V5.41432H6.01139V5.32227Z" fill="#FF0000"/>
    <path fill-rule="evenodd" clip-rule="evenodd" d="M8.93469 5.53689V5.60539H9.85014V5.53689H8.93469ZM9.01411 5.34787V5.53856H9.79224V5.34787H9.01411ZM8.94547 5.97476V6.04325H9.86092V5.97476H8.9455H8.94547ZM9.19077 5.95355C9.19069 5.82918 9.28649 5.72826 9.40458 5.72826C9.52271 5.72805 9.61866 5.82883 9.61875 5.9532V5.95601L9.19077 5.95355ZM9.16698 5.96594C9.1669 5.82775 9.27333 5.7156 9.40458 5.7156C9.53581 5.71537 9.64239 5.82734 9.64248 5.96553V5.96866L9.16698 5.96594ZM9.01411 5.62417V5.9667H9.79224V5.62417H9.01411ZM8.93466 5.28257V5.34731H9.85011V5.28257H8.93466ZM8.93457 5.19116V5.28318H9.00512V5.19116H8.93457ZM9.77994 5.19116V5.28318H9.85049V5.19116H9.77994ZM9.07517 5.19301V5.28506H9.14569V5.19301H9.07517ZM9.63565 5.19113V5.28318H9.7062V5.19113H9.63565ZM9.21201 5.10441V5.19643H9.28256V5.10441H9.21204H9.21201ZM9.49321 5.10441V5.19641H9.56376V5.10441H9.49321ZM9.35633 5.10254V5.19459H9.42685V5.10254H9.35633ZM9.21184 5.19711V5.28509H9.56332V5.19714H9.21184V5.19711Z" fill="#FFFF00"/>
    <path fill-rule="evenodd" clip-rule="evenodd" d="M9.20874 5.33485H9.27926V5.42691H9.20874V5.33485ZM9.52505 5.33301H9.59557V5.425H9.52505V5.33301Z" fill="#FF0000"/>
    <path fill-rule="evenodd" clip-rule="evenodd" d="M7.21081 5.53689V5.60539H8.12624V5.53689H7.21081ZM7.2902 5.34787V5.53856H8.06832V5.34787H7.2902ZM7.22156 5.97476V6.04325H8.13702V5.97476H7.22156ZM7.46689 5.95355C7.4668 5.82918 7.56258 5.72826 7.6807 5.72826C7.79882 5.72805 7.89474 5.82883 7.89486 5.9532V5.95601L7.46689 5.95355ZM7.4431 5.96594C7.44302 5.82775 7.54945 5.7156 7.68067 5.7156C7.81192 5.71537 7.9185 5.82734 7.91859 5.96553V5.96866L7.4431 5.96594ZM7.29023 5.62417V5.9667H8.06835V5.62417H7.29023ZM7.21078 5.28257V5.34731H8.12621V5.28257H7.21078ZM7.21069 5.19116V5.28318H7.28121V5.19116H7.21069ZM8.05605 5.19116V5.28318H8.12657V5.19116H8.05605ZM7.35129 5.19301V5.28506H7.42181V5.19301H7.35129ZM7.91173 5.19113V5.28318H7.98228V5.19113H7.91176H7.91173ZM7.48813 5.10441V5.19643H7.55868V5.10441H7.48813ZM7.76932 5.10441V5.19641H7.83984V5.10441H7.76932ZM7.63242 5.10254V5.19459H7.70297V5.10254H7.63242ZM7.48796 5.19711V5.28509H7.83943V5.19714H7.48796V5.19711Z" fill="#FFFF00"/>
    <path fill-rule="evenodd" clip-rule="evenodd" d="M7.48486 5.33485H7.55538V5.42691H7.48486V5.33485ZM7.80116 5.33301H7.87171V5.425H7.80116V5.33301Z" fill="#FF0000"/>
    <path fill-rule="evenodd" clip-rule="evenodd" d="M5.34411 7.67313V7.74163H6.25955V7.67313H5.34411ZM5.42354 7.4841V7.6748H6.20166V7.4841H5.42354ZM5.35489 8.111V8.1795H6.27033V8.111H5.35489ZM5.6002 8.08979C5.60011 7.96543 5.69591 7.8645 5.814 7.8645C5.93213 7.86429 6.02808 7.96507 6.02817 8.08944V8.09225L5.6002 8.08979ZM5.57641 8.10221C5.57632 7.96399 5.68275 7.85184 5.814 7.85184C5.94523 7.85164 6.05181 7.96361 6.0519 8.10177V8.10491L5.57641 8.10221ZM5.42354 7.76043V8.10292H6.20166V7.76043H5.42354ZM5.34408 7.41877V7.48358H6.25952V7.41877H5.34408ZM5.34399 7.32736V7.41945H5.41454V7.32739H5.34399V7.32736ZM6.18936 7.32736V7.41945H6.2599V7.32739H6.18936V7.32736ZM5.48459 7.32924V7.42129H5.55511V7.32924H5.48459ZM6.04507 7.32736V7.41942H6.11562V7.32736H6.04507ZM5.62144 7.24064V7.3327H5.69198V7.24064H5.62147H5.62144ZM5.90263 7.24064V7.33264H5.97318V7.24064H5.90263ZM5.76575 7.23877V7.33082H5.83627V7.23877H5.76575ZM5.62126 7.33334V7.42135H5.97274V7.33334H5.62126Z" fill="#FFFF00"/>
    <path fill-rule="evenodd" clip-rule="evenodd" d="M5.61844 7.4716H5.68895V7.56361H5.61841L5.61844 7.4716ZM5.93473 7.46973H6.00527V7.56174H5.93473V7.46973Z" fill="#FF0000"/>
    <path fill-rule="evenodd" clip-rule="evenodd" d="M9.00085 7.65164V7.72013H9.91628V7.65164H9.00085ZM9.08024 7.46262V7.65331H9.85836V7.46262H9.08024ZM9.0116 8.0895V8.158H9.92706V8.0895H9.0116ZM9.25693 8.06829C9.25684 7.94393 9.35261 7.843 9.47074 7.843C9.58886 7.8428 9.68478 7.94358 9.6849 8.06794V8.07075L9.25693 8.06829ZM9.23314 8.08072C9.23305 7.94249 9.33949 7.83035 9.47071 7.83035C9.60196 7.83014 9.70854 7.94211 9.70866 8.08028V8.08341L9.23314 8.08072ZM9.08024 7.73894V8.08142H9.85836V7.73894H9.08024ZM9.00082 7.39728V7.46209H9.91625V7.39728H9.00082ZM9.00073 7.30588V7.39796H9.07125V7.30591H9.00073V7.30588ZM9.84609 7.30588V7.39796H9.9166V7.30591H9.84609V7.30588ZM9.14133 7.30775V7.3998H9.21184V7.30775H9.14133ZM9.7018 7.30588V7.39793H9.77232V7.30588H9.70183H9.7018ZM9.27817 7.21916V7.31121H9.34872V7.21916H9.27817ZM9.55936 7.21916V7.31115H9.62988V7.21916H9.55936ZM9.42246 7.21729V7.30934H9.493V7.21729H9.42246ZM9.278 7.31185V7.39986H9.62947V7.31185H9.278Z" fill="#FFFF00"/>
    <path fill-rule="evenodd" clip-rule="evenodd" d="M9.27466 7.44963H9.34518V7.54168H9.27466V7.44963ZM9.59095 7.44775H9.6615V7.53981H9.59095V7.44775Z" fill="#FF0000"/>
    <path fill-rule="evenodd" clip-rule="evenodd" d="M6.13637 9.74505L6.18837 9.78976L6.78593 9.09776L6.73393 9.05306L6.13637 9.74505ZM6.0447 9.56162L6.18948 9.68607L6.6974 9.09791L6.55261 8.97346L6.0447 9.56162ZM6.47586 10.0227L6.52786 10.0674L7.12542 9.37544L7.07342 9.33073L6.47586 10.0227V10.0227ZM6.61988 9.82345C6.5254 9.74232 6.5113 9.60404 6.58838 9.51478C6.66535 9.42536 6.80448 9.41862 6.89896 9.49972L6.9011 9.50156L6.61988 9.82345ZM6.61376 9.84952C6.50879 9.75938 6.49308 9.60574 6.57875 9.50654C6.66426 9.4072 6.81886 9.3997 6.92386 9.48984C6.92468 9.49055 6.92538 9.49113 6.9262 9.49189L6.61376 9.84952ZM6.25449 9.74197L6.51456 9.96557L7.02247 9.37737L6.76241 9.15381L6.25449 9.74197ZM5.94321 9.57902L5.99243 9.62133L6.59 8.92934L6.54078 8.88706L5.94321 9.57905V9.57902ZM5.87378 9.51943L5.94368 9.57952L5.98971 9.5262L5.91983 9.46614L5.87378 9.51946V9.51943ZM6.42561 8.88047L6.49548 8.94053L6.54151 8.88721L6.47164 8.82715L6.42561 8.88047ZM5.96697 9.41438L6.03684 9.47443L6.08287 9.42114L6.013 9.36108L5.96697 9.4144V9.41438ZM6.33142 8.98948L6.4013 9.04957L6.44732 8.99625L6.37745 8.93619L6.33139 8.98951L6.33142 8.98948ZM5.98903 9.2531L6.05891 9.31315L6.10496 9.25983L6.03509 9.19978L5.98903 9.2531ZM6.17255 9.04055L6.24245 9.10061L6.28847 9.04729L6.2186 8.98723L6.17255 9.04055ZM6.08182 9.14279L6.15169 9.20288L6.19771 9.14956L6.12784 9.0895L6.08182 9.14282V9.14279ZM6.05929 9.31374L6.12608 9.37116L6.35553 9.1055L6.28874 9.04808L6.05929 9.31374Z" fill="#FFFF00"/>
    <path fill-rule="evenodd" clip-rule="evenodd" d="M6.16187 9.40591L6.20792 9.35259L6.27779 9.41267L6.23174 9.46599L6.16187 9.40591ZM6.36692 9.16562L6.41297 9.1123L6.48285 9.17236L6.43682 9.22568L6.36692 9.16562Z" fill="#FF0000"/>
    <path fill-rule="evenodd" clip-rule="evenodd" d="M9.16876 9.73431L9.11675 9.77901L8.51918 9.08702L8.57118 9.04231L9.16876 9.73431ZM9.26043 9.55088L9.11564 9.67533L8.60772 9.08717L8.75247 8.96271L9.26043 9.55085V9.55088ZM8.82926 10.012L8.77726 10.0567L8.17969 9.3647L8.23169 9.31999L8.82926 10.012V10.012ZM8.68521 9.8127C8.77972 9.73158 8.79381 9.5933 8.71673 9.50403C8.63977 9.41462 8.50064 9.40788 8.40615 9.48897L8.40401 9.49082L8.68521 9.8127ZM8.69136 9.83878C8.79633 9.74863 8.81201 9.595 8.72634 9.4958C8.64085 9.39643 8.48625 9.38895 8.38125 9.4791C8.38046 9.47977 8.37968 9.48044 8.37891 9.48112L8.69136 9.83878ZM9.05063 9.73123L8.79056 9.95482L8.28264 9.36663L8.54271 9.14307L9.05063 9.73123ZM9.36188 9.56828L9.31269 9.61059L8.71512 8.91859L8.76434 8.87632L9.36188 9.56831V9.56828ZM9.43132 9.50869L9.36144 9.56878L9.31542 9.51546L9.38529 9.4554L9.43134 9.50872L9.43132 9.50869ZM8.87951 8.86973L8.80963 8.92979L8.76358 8.87646L8.83348 8.81641L8.87951 8.86973ZM9.33815 9.40363L9.26828 9.46369L9.22222 9.4104L9.29213 9.35034L9.33815 9.40366V9.40363ZM8.9737 8.97874L8.90382 9.03883L8.8578 8.98551L8.92767 8.92545L8.9737 8.97877V8.97874ZM9.31609 9.24235L9.24619 9.30241L9.20016 9.24909L9.27004 9.18903L9.31609 9.24235ZM9.13254 9.0298L9.06267 9.08986L9.01665 9.03654L9.08652 8.97648L9.13254 9.0298ZM9.22331 9.13205L9.15343 9.19214L9.10738 9.13882L9.17728 9.07876L9.22331 9.13208V9.13205ZM9.24584 9.303L9.17904 9.36042L8.94958 9.09476L9.01638 9.03733L9.24584 9.303Z" fill="#FFFF00"/>
    <path fill-rule="evenodd" clip-rule="evenodd" d="M9.14325 9.39522L9.09719 9.34189L9.02732 9.40198L9.07334 9.45531L9.14325 9.39522ZM8.93817 9.15488L8.89214 9.10156L8.82227 9.16165L8.86829 9.21497L8.93817 9.15488Z" fill="#FF0000"/>
    <path fill-rule="evenodd" clip-rule="evenodd" d="M7.28198 6.3252H8.00412V6.85559H7.28198V6.3252Z" fill="#3B3BFF"/>
    <path d="M7.64304 7.17587C7.84244 7.17587 8.00409 7.02578 8.00409 6.84062C8.00409 6.65547 7.84244 6.50537 7.64304 6.50537C7.44363 6.50537 7.28198 6.65547 7.28198 6.84062C7.28198 7.02578 7.44363 7.17587 7.64304 7.17587Z" fill="#3B3BFF"/>
    <path fill-rule="evenodd" clip-rule="evenodd" d="M7.448 6.48047H7.83795V6.76687H7.448V6.48047Z" fill="#3B3BFF"/>
    <path d="M7.64297 6.97974C7.75065 6.97974 7.83794 6.89869 7.83794 6.79871C7.83794 6.69873 7.75065 6.61768 7.64297 6.61768C7.53529 6.61768 7.448 6.69873 7.448 6.79871C7.448 6.89869 7.53529 6.97974 7.64297 6.97974Z" fill="#3B3BFF"/>
    <path fill-rule="evenodd" clip-rule="evenodd" d="M7.3064 6.40039H7.98038V6.89542H7.3064V6.40039Z" fill="#3B3BFF"/>
    <path d="M7.64338 7.19462C7.82949 7.19462 7.98036 7.05454 7.98036 6.88173C7.98036 6.70893 7.82949 6.56885 7.64338 6.56885C7.45727 6.56885 7.3064 6.70893 7.3064 6.88173C7.3064 7.05454 7.45727 7.19462 7.64338 7.19462Z" fill="#3B3BFF"/>
    <path fill-rule="evenodd" clip-rule="evenodd" d="M7.41626 6.51904H7.78022V6.78636H7.41626V6.51904Z" fill="#3B3BFF"/>
    <path d="M7.59824 6.98491C7.69874 6.98491 7.78022 6.90926 7.78022 6.81594C7.78022 6.72262 7.69874 6.64697 7.59824 6.64697C7.49774 6.64697 7.41626 6.72262 7.41626 6.81594C7.41626 6.90926 7.49774 6.98491 7.59824 6.98491Z" fill="#3B3BFF"/>
    <path fill-rule="evenodd" clip-rule="evenodd" d="M7.43921 6.51025H7.84841V6.81081H7.43921V6.51025Z" fill="#3B3BFF"/>
    <path d="M7.64307 6.99225C7.75607 6.99225 7.84767 6.9072 7.84767 6.80228C7.84767 6.69736 7.75607 6.6123 7.64307 6.6123C7.53008 6.6123 7.43848 6.69736 7.43848 6.80228C7.43848 6.9072 7.53008 6.99225 7.64307 6.99225Z" fill="#3B3BFF"/>
    <path fill-rule="evenodd" clip-rule="evenodd" d="M7.53149 6.59766H7.75247V6.75995H7.53149V6.59766Z" fill="#3B3BFF"/>
    <path d="M7.64198 6.88048C7.703 6.88048 7.75246 6.83455 7.75246 6.77789C7.75246 6.72123 7.703 6.67529 7.64198 6.67529C7.58096 6.67529 7.53149 6.72123 7.53149 6.77789C7.53149 6.83455 7.58096 6.88048 7.64198 6.88048Z" fill="#3B3BFF"/>
    <path fill-rule="evenodd" clip-rule="evenodd" d="M7.45874 6.53271H7.82828V6.80414H7.45874V6.53271Z" fill="#3B3BFF"/>
    <path d="M7.64302 6.9681C7.74506 6.9681 7.82779 6.8913 7.82779 6.79655C7.82779 6.70181 7.74506 6.625 7.64302 6.625C7.54098 6.625 7.45825 6.70181 7.45825 6.79655C7.45825 6.8913 7.54098 6.9681 7.64302 6.9681Z" fill="#3B3BFF"/>
    <path fill-rule="evenodd" clip-rule="evenodd" d="M7.54321 6.6123H7.74277V6.75887H7.54321V6.6123Z" fill="#3B3BFF"/>
    <path d="M7.643 6.8679C7.6981 6.8679 7.74278 6.82642 7.74278 6.77526C7.74278 6.72409 7.6981 6.68262 7.643 6.68262C7.58789 6.68262 7.54321 6.72409 7.54321 6.77526C7.54321 6.82642 7.58789 6.8679 7.643 6.8679Z" fill="#3B3BFF"/>
    <path d="M7.42611 6.58319C7.48575 6.58319 7.5341 6.53494 7.5341 6.47543C7.5341 6.41592 7.48575 6.36768 7.42611 6.36768C7.36647 6.36768 7.31812 6.41592 7.31812 6.47543C7.31812 6.53494 7.36647 6.58319 7.42611 6.58319Z" fill="white"/>
    <path d="M7.83089 6.58319C7.89054 6.58319 7.93889 6.53494 7.93889 6.47543C7.93889 6.41592 7.89054 6.36768 7.83089 6.36768C7.77125 6.36768 7.7229 6.41592 7.7229 6.47543C7.7229 6.53494 7.77125 6.58319 7.83089 6.58319Z" fill="white"/>
    <path d="M7.62484 6.81024C7.68448 6.81024 7.73283 6.76199 7.73283 6.70248C7.73283 6.64297 7.68448 6.59473 7.62484 6.59473C7.5652 6.59473 7.51685 6.64297 7.51685 6.70248C7.51685 6.76199 7.5652 6.81024 7.62484 6.81024Z" fill="white"/>
    <path d="M7.44173 7.02996C7.50138 7.02996 7.54973 6.98172 7.54973 6.92221C7.54973 6.8627 7.50138 6.81445 7.44173 6.81445C7.38209 6.81445 7.33374 6.8627 7.33374 6.92221C7.33374 6.98172 7.38209 7.02996 7.44173 7.02996Z" fill="white"/>
    <path d="M7.8265 7.0368C7.88614 7.0368 7.93449 6.98856 7.93449 6.92904C7.93449 6.86953 7.88614 6.82129 7.8265 6.82129C7.76686 6.82129 7.71851 6.86953 7.71851 6.92904C7.71851 6.98856 7.76686 7.0368 7.8265 7.0368Z" fill="white"/>
    <path fill-rule="evenodd" clip-rule="evenodd" d="M7.28198 7.26123H8.00412V7.79162H7.28198V7.26123Z" fill="#3B3BFF"/>
    <path d="M7.64304 8.11189C7.84244 8.11189 8.00409 7.9618 8.00409 7.77665C8.00409 7.5915 7.84244 7.44141 7.64304 7.44141C7.44363 7.44141 7.28198 7.5915 7.28198 7.77665C7.28198 7.9618 7.44363 8.11189 7.64304 8.11189Z" fill="#3B3BFF"/>
    <path fill-rule="evenodd" clip-rule="evenodd" d="M7.448 7.4165H7.83795V7.70291H7.448V7.4165Z" fill="#3B3BFF"/>
    <path d="M7.64297 7.91577C7.75065 7.91577 7.83794 7.83472 7.83794 7.73474C7.83794 7.63476 7.75065 7.55371 7.64297 7.55371C7.53529 7.55371 7.448 7.63476 7.448 7.73474C7.448 7.83472 7.53529 7.91577 7.64297 7.91577Z" fill="#3B3BFF"/>
    <path fill-rule="evenodd" clip-rule="evenodd" d="M7.3064 7.33643H7.98038V7.83144H7.3064V7.33643Z" fill="#3B3BFF"/>
    <path d="M7.64338 8.1307C7.82949 8.1307 7.98036 7.9906 7.98036 7.81779C7.98036 7.64498 7.82949 7.50488 7.64338 7.50488C7.45727 7.50488 7.3064 7.64498 7.3064 7.81779C7.3064 7.9906 7.45727 8.1307 7.64338 8.1307Z" fill="#3B3BFF"/>
    <path fill-rule="evenodd" clip-rule="evenodd" d="M7.41626 7.45508H7.78022V7.72238H7.41626V7.45508Z" fill="#3B3BFF"/>
    <path d="M7.59824 7.92096C7.69874 7.92096 7.78022 7.8453 7.78022 7.75198C7.78022 7.65866 7.69874 7.58301 7.59824 7.58301C7.49774 7.58301 7.41626 7.65866 7.41626 7.75198C7.41626 7.8453 7.49774 7.92096 7.59824 7.92096Z" fill="#3B3BFF"/>
    <path fill-rule="evenodd" clip-rule="evenodd" d="M7.43921 7.44629H7.84841V7.74685H7.43921V7.44629Z" fill="#3B3BFF"/>
    <path d="M7.64307 7.92826C7.75607 7.92826 7.84767 7.84321 7.84767 7.7383C7.84767 7.63339 7.75607 7.54834 7.64307 7.54834C7.53008 7.54834 7.43848 7.63339 7.43848 7.7383C7.43848 7.84321 7.53008 7.92826 7.64307 7.92826Z" fill="#3B3BFF"/>
    <path fill-rule="evenodd" clip-rule="evenodd" d="M7.53149 7.53369H7.75247V7.69597H7.53149V7.53369Z" fill="#3B3BFF"/>
    <path d="M7.64198 7.81651C7.703 7.81651 7.75246 7.77058 7.75246 7.71392C7.75246 7.65726 7.703 7.61133 7.64198 7.61133C7.58096 7.61133 7.53149 7.65726 7.53149 7.71392C7.53149 7.77058 7.58096 7.81651 7.64198 7.81651Z" fill="#3B3BFF"/>
    <path fill-rule="evenodd" clip-rule="evenodd" d="M7.45874 7.46875H7.82828V7.74017H7.45874V7.46875Z" fill="#3B3BFF"/>
    <path d="M7.64302 7.90414C7.74506 7.90414 7.82779 7.82733 7.82779 7.73259C7.82779 7.63784 7.74506 7.56104 7.64302 7.56104C7.54098 7.56104 7.45825 7.63784 7.45825 7.73259C7.45825 7.82733 7.54098 7.90414 7.64302 7.90414Z" fill="#3B3BFF"/>
    <path fill-rule="evenodd" clip-rule="evenodd" d="M7.54321 7.54834H7.74277V7.6949H7.54321V7.54834Z" fill="#3B3BFF"/>
    <path d="M7.643 7.80392C7.6981 7.80392 7.74278 7.76244 7.74278 7.71129C7.74278 7.66013 7.6981 7.61865 7.643 7.61865C7.58789 7.61865 7.54321 7.66013 7.54321 7.71129C7.54321 7.76244 7.58789 7.80392 7.643 7.80392Z" fill="#3B3BFF"/>
    <path d="M7.42611 7.51922C7.48575 7.51922 7.5341 7.47098 7.5341 7.41147C7.5341 7.35195 7.48575 7.30371 7.42611 7.30371C7.36647 7.30371 7.31812 7.35195 7.31812 7.41147C7.31812 7.47098 7.36647 7.51922 7.42611 7.51922Z" fill="white"/>
    <path d="M7.83089 7.51922C7.89054 7.51922 7.93889 7.47098 7.93889 7.41147C7.93889 7.35195 7.89054 7.30371 7.83089 7.30371C7.77125 7.30371 7.7229 7.35195 7.7229 7.41147C7.7229 7.47098 7.77125 7.51922 7.83089 7.51922Z" fill="white"/>
    <path d="M7.62484 7.74627C7.68448 7.74627 7.73283 7.69803 7.73283 7.63852C7.73283 7.57901 7.68448 7.53076 7.62484 7.53076C7.5652 7.53076 7.51685 7.57901 7.51685 7.63852C7.51685 7.69803 7.5652 7.74627 7.62484 7.74627Z" fill="white"/>
    <path d="M7.44173 7.96601C7.50138 7.96601 7.54973 7.91777 7.54973 7.85825C7.54973 7.79874 7.50138 7.75049 7.44173 7.75049C7.38209 7.75049 7.33374 7.79874 7.33374 7.85825C7.33374 7.91777 7.38209 7.96601 7.44173 7.96601Z" fill="white"/>
    <path d="M7.8265 7.97282C7.88614 7.97282 7.93449 7.92458 7.93449 7.86507C7.93449 7.80556 7.88614 7.75732 7.8265 7.75732C7.76686 7.75732 7.71851 7.80556 7.71851 7.86507C7.71851 7.92458 7.76686 7.97282 7.8265 7.97282Z" fill="white"/>
    <path fill-rule="evenodd" clip-rule="evenodd" d="M8.08301 7.26123H8.80514V7.79162H8.08301V7.26123Z" fill="#3B3BFF"/>
    <path d="M8.44406 8.11189C8.64347 8.11189 8.80512 7.9618 8.80512 7.77665C8.80512 7.5915 8.64347 7.44141 8.44406 7.44141C8.24466 7.44141 8.08301 7.5915 8.08301 7.77665C8.08301 7.9618 8.24466 8.11189 8.44406 8.11189Z" fill="#3B3BFF"/>
    <path fill-rule="evenodd" clip-rule="evenodd" d="M8.24902 7.4165H8.63897V7.70291H8.24902V7.4165Z" fill="#3B3BFF"/>
    <path d="M8.44399 7.91577C8.55167 7.91577 8.63896 7.83472 8.63896 7.73474C8.63896 7.63476 8.55167 7.55371 8.44399 7.55371C8.33631 7.55371 8.24902 7.63476 8.24902 7.73474C8.24902 7.83472 8.33631 7.91577 8.44399 7.91577Z" fill="#3B3BFF"/>
    <path fill-rule="evenodd" clip-rule="evenodd" d="M8.10742 7.33643H8.78141V7.83144H8.10742V7.33643Z" fill="#3B3BFF"/>
    <path d="M8.44441 8.1307C8.63052 8.1307 8.78139 7.9906 8.78139 7.81779C8.78139 7.64498 8.63052 7.50488 8.44441 7.50488C8.25829 7.50488 8.10742 7.64498 8.10742 7.81779C8.10742 7.9906 8.25829 8.1307 8.44441 8.1307Z" fill="#3B3BFF"/>
    <path fill-rule="evenodd" clip-rule="evenodd" d="M8.21729 7.45508H8.58125V7.72238H8.21729V7.45508Z" fill="#3B3BFF"/>
    <path d="M8.39927 7.92096C8.49977 7.92096 8.58125 7.8453 8.58125 7.75198C8.58125 7.65866 8.49977 7.58301 8.39927 7.58301C8.29876 7.58301 8.21729 7.65866 8.21729 7.75198C8.21729 7.8453 8.29876 7.92096 8.39927 7.92096Z" fill="#3B3BFF"/>
    <path fill-rule="evenodd" clip-rule="evenodd" d="M8.24023 7.44629H8.64944V7.74685H8.24023V7.44629Z" fill="#3B3BFF"/>
    <path d="M8.4441 7.92826C8.5571 7.92826 8.6487 7.84321 8.6487 7.7383C8.6487 7.63339 8.5571 7.54834 8.4441 7.54834C8.3311 7.54834 8.2395 7.63339 8.2395 7.7383C8.2395 7.84321 8.3311 7.92826 8.4441 7.92826Z" fill="#3B3BFF"/>
    <path fill-rule="evenodd" clip-rule="evenodd" d="M8.33276 7.53369H8.55373V7.69597H8.33276V7.53369Z" fill="#3B3BFF"/>
    <path d="M8.44325 7.81651C8.50428 7.81651 8.55375 7.77058 8.55375 7.71392C8.55375 7.65726 8.50428 7.61133 8.44325 7.61133C8.38223 7.61133 8.33276 7.65726 8.33276 7.71392C8.33276 7.77058 8.38223 7.81651 8.44325 7.81651Z" fill="#3B3BFF"/>
    <path fill-rule="evenodd" clip-rule="evenodd" d="M8.25977 7.46875H8.62931V7.74017H8.25977V7.46875Z" fill="#3B3BFF"/>
    <path d="M8.44405 7.90414C8.54609 7.90414 8.62881 7.82733 8.62881 7.73259C8.62881 7.63784 8.54609 7.56104 8.44405 7.56104C8.342 7.56104 8.25928 7.63784 8.25928 7.73259C8.25928 7.82733 8.342 7.90414 8.44405 7.90414Z" fill="#3B3BFF"/>
    <path fill-rule="evenodd" clip-rule="evenodd" d="M8.34424 7.54834H8.54379V7.6949H8.34424V7.54834Z" fill="#3B3BFF"/>
    <path d="M8.44402 7.80392C8.49913 7.80392 8.5438 7.76244 8.5438 7.71129C8.5438 7.66013 8.49913 7.61865 8.44402 7.61865C8.38891 7.61865 8.34424 7.66013 8.34424 7.71129C8.34424 7.76244 8.38891 7.80392 8.44402 7.80392Z" fill="#3B3BFF"/>
    <path d="M8.22713 7.51922C8.28678 7.51922 8.33513 7.47098 8.33513 7.41147C8.33513 7.35195 8.28678 7.30371 8.22713 7.30371C8.16749 7.30371 8.11914 7.35195 8.11914 7.41147C8.11914 7.47098 8.16749 7.51922 8.22713 7.51922Z" fill="white"/>
    <path d="M8.63192 7.51922C8.69156 7.51922 8.73991 7.47098 8.73991 7.41147C8.73991 7.35195 8.69156 7.30371 8.63192 7.30371C8.57228 7.30371 8.52393 7.35195 8.52393 7.41147C8.52393 7.47098 8.57228 7.51922 8.63192 7.51922Z" fill="white"/>
    <path d="M8.42586 7.74627C8.48551 7.74627 8.53386 7.69803 8.53386 7.63852C8.53386 7.57901 8.48551 7.53076 8.42586 7.53076C8.36622 7.53076 8.31787 7.57901 8.31787 7.63852C8.31787 7.69803 8.36622 7.74627 8.42586 7.74627Z" fill="white"/>
    <path d="M8.24276 7.96601C8.3024 7.96601 8.35075 7.91777 8.35075 7.85825C8.35075 7.79874 8.3024 7.75049 8.24276 7.75049C8.18312 7.75049 8.13477 7.79874 8.13477 7.85825C8.13477 7.91777 8.18312 7.96601 8.24276 7.96601Z" fill="white"/>
    <path d="M8.62752 7.97282C8.68717 7.97282 8.73552 7.92458 8.73552 7.86507C8.73552 7.80556 8.68717 7.75732 8.62752 7.75732C8.56788 7.75732 8.51953 7.80556 8.51953 7.86507C8.51953 7.92458 8.56788 7.97282 8.62752 7.97282Z" fill="white"/>
    <path fill-rule="evenodd" clip-rule="evenodd" d="M6.48096 7.26123H7.20308V7.79162H6.48096V7.26123Z" fill="#3B3BFF"/>
    <path d="M6.84201 8.11189C7.04142 8.11189 7.20307 7.9618 7.20307 7.77665C7.20307 7.5915 7.04142 7.44141 6.84201 7.44141C6.64261 7.44141 6.48096 7.5915 6.48096 7.77665C6.48096 7.9618 6.64261 8.11189 6.84201 8.11189Z" fill="#3B3BFF"/>
    <path fill-rule="evenodd" clip-rule="evenodd" d="M6.64697 7.4165H7.03692V7.70291H6.64697V7.4165Z" fill="#3B3BFF"/>
    <path d="M6.84195 7.91577C6.94963 7.91577 7.03693 7.83472 7.03693 7.73474C7.03693 7.63476 6.94963 7.55371 6.84195 7.55371C6.73427 7.55371 6.64697 7.63476 6.64697 7.73474C6.64697 7.83472 6.73427 7.91577 6.84195 7.91577Z" fill="#3B3BFF"/>
    <path fill-rule="evenodd" clip-rule="evenodd" d="M6.50537 7.33643H7.17935V7.83144H6.50537V7.33643Z" fill="#3B3BFF"/>
    <path d="M6.84235 8.1307C7.02846 8.1307 7.17934 7.9906 7.17934 7.81779C7.17934 7.64498 7.02846 7.50488 6.84235 7.50488C6.65624 7.50488 6.50537 7.64498 6.50537 7.81779C6.50537 7.9906 6.65624 8.1307 6.84235 8.1307Z" fill="#3B3BFF"/>
    <path fill-rule="evenodd" clip-rule="evenodd" d="M6.61523 7.45508H6.9792V7.72238H6.61523V7.45508Z" fill="#3B3BFF"/>
    <path d="M6.79721 7.92096C6.89771 7.92096 6.97918 7.8453 6.97918 7.75198C6.97918 7.65866 6.89771 7.58301 6.79721 7.58301C6.69671 7.58301 6.61523 7.65866 6.61523 7.75198C6.61523 7.8453 6.69671 7.92096 6.79721 7.92096Z" fill="#3B3BFF"/>
    <path fill-rule="evenodd" clip-rule="evenodd" d="M6.63818 7.44629H7.04739V7.74685H6.63818V7.44629Z" fill="#3B3BFF"/>
    <path d="M6.84205 7.92826C6.95505 7.92826 7.04665 7.84321 7.04665 7.7383C7.04665 7.63339 6.95505 7.54834 6.84205 7.54834C6.72905 7.54834 6.63745 7.63339 6.63745 7.7383C6.63745 7.84321 6.72905 7.92826 6.84205 7.92826Z" fill="#3B3BFF"/>
    <path fill-rule="evenodd" clip-rule="evenodd" d="M6.73071 7.53369H6.95168V7.69597H6.73071V7.53369Z" fill="#3B3BFF"/>
    <path d="M6.8412 7.81651C6.90223 7.81651 6.95169 7.77058 6.95169 7.71392C6.95169 7.65726 6.90223 7.61133 6.8412 7.61133C6.78018 7.61133 6.73071 7.65726 6.73071 7.71392C6.73071 7.77058 6.78018 7.81651 6.8412 7.81651Z" fill="#3B3BFF"/>
    <path fill-rule="evenodd" clip-rule="evenodd" d="M6.65771 7.46875H7.02726V7.74017H6.65771V7.46875Z" fill="#3B3BFF"/>
    <path d="M6.84199 7.90414C6.94403 7.90414 7.02675 7.82733 7.02675 7.73259C7.02675 7.63784 6.94403 7.56104 6.84199 7.56104C6.73995 7.56104 6.65723 7.63784 6.65723 7.73259C6.65723 7.82733 6.73995 7.90414 6.84199 7.90414Z" fill="#3B3BFF"/>
    <path fill-rule="evenodd" clip-rule="evenodd" d="M6.74219 7.54834H6.94174V7.6949H6.74219V7.54834Z" fill="#3B3BFF"/>
    <path d="M6.84196 7.80392C6.89706 7.80392 6.94172 7.76244 6.94172 7.71129C6.94172 7.66013 6.89706 7.61865 6.84196 7.61865C6.78686 7.61865 6.74219 7.66013 6.74219 7.71129C6.74219 7.76244 6.78686 7.80392 6.84196 7.80392Z" fill="#3B3BFF"/>
    <path d="M6.62508 7.51922C6.68473 7.51922 6.73308 7.47098 6.73308 7.41147C6.73308 7.35195 6.68473 7.30371 6.62508 7.30371C6.56544 7.30371 6.51709 7.35195 6.51709 7.41147C6.51709 7.47098 6.56544 7.51922 6.62508 7.51922Z" fill="white"/>
    <path d="M7.02987 7.51922C7.08951 7.51922 7.13786 7.47098 7.13786 7.41147C7.13786 7.35195 7.08951 7.30371 7.02987 7.30371C6.97023 7.30371 6.92188 7.35195 6.92188 7.41147C6.92188 7.47098 6.97023 7.51922 7.02987 7.51922Z" fill="white"/>
    <path d="M6.82382 7.74627C6.88347 7.74627 6.93182 7.69803 6.93182 7.63852C6.93182 7.57901 6.88347 7.53076 6.82382 7.53076C6.76417 7.53076 6.71582 7.57901 6.71582 7.63852C6.71582 7.69803 6.76417 7.74627 6.82382 7.74627Z" fill="white"/>
    <path d="M6.64071 7.96601C6.70035 7.96601 6.7487 7.91777 6.7487 7.85825C6.7487 7.79874 6.70035 7.75049 6.64071 7.75049C6.58106 7.75049 6.53271 7.79874 6.53271 7.85825C6.53271 7.91777 6.58106 7.96601 6.64071 7.96601Z" fill="white"/>
    <path d="M7.02547 7.97282C7.08512 7.97282 7.13347 7.92458 7.13347 7.86507C7.13347 7.80556 7.08512 7.75732 7.02547 7.75732C6.96583 7.75732 6.91748 7.80556 6.91748 7.86507C6.91748 7.92458 6.96583 7.97282 7.02547 7.97282Z" fill="white"/>
</svg>
