<svg width="20" height="15" viewBox="0 0 20 15" fill="none" xmlns="http://www.w3.org/2000/svg">
    <path fill-rule="evenodd" clip-rule="evenodd" d="M0 0H20V15H0V0Z" fill="#F31930"/>
    <path fill-rule="evenodd" clip-rule="evenodd" d="M12.1294 5.73225C11.5711 5.1209 10.761 4.73633 9.85948 4.73633C8.17548 4.73633 6.8103 6.0782 6.8103 7.73352C6.8103 9.38883 8.17545 10.7307 9.85948 10.7307C10.7606 10.7307 11.5704 10.3465 12.1286 9.73563C11.453 10.784 10.2624 11.4799 8.90647 11.4799C6.80138 11.4799 5.09497 9.80254 5.09497 7.73335C5.09497 5.66416 6.80141 3.98682 8.90647 3.98682C10.2629 3.98682 11.4538 4.68328 12.1294 5.73225Z" fill="white"/>
    <path fill-rule="evenodd" clip-rule="evenodd" d="M13.4601 5.9834L13.4293 7.36834L12.1372 7.71912L13.4108 8.17268L13.3801 9.44274L14.2107 8.45093L15.4658 8.88637L14.7398 7.82196L15.6258 6.76362L14.266 7.13855L13.46 5.98343L13.4601 5.9834Z" fill="white"/>
</svg>
