<svg width="308" height="233" viewBox="0 0 308 233" fill="none" xmlns="http://www.w3.org/2000/svg">
<path d="M142 129.5L305 30.5V132.5H142V129.5Z" fill="url(#paint0_linear)"/>
<path d="M142 129.5L305 30.5" stroke="white" stroke-linejoin="round" stroke-dasharray="2 2"/>
<path d="M141 127.5L304 28.5" stroke="#1B87D7" stroke-linejoin="round" stroke-dasharray="2 2"/>
<path d="M0.5 184L8.5 165L21.5 184L29 174.5L41 171.5L59.5 153L80 146.5L99.5 155.5L118.5 153L133 135L134.5 231L0.5 233V184Z" fill="url(#paint1_linear)"/>
<path d="M1.5 181.5L9.5 162.5L22.5 181.5L30 172L42 169L60.5 150.5L81 144L100.5 153L119.5 150.5L134 132.5" stroke="#1B87D7"/>
<path d="M1.5 183.5L9.5 164.5L22.5 183.5L30 174L42 171L60.5 152.5L81 146L100.5 155L119.5 152.5L134 134.5" stroke="white"/>
<path d="M137.5 140C141.918 140 145.5 136.418 145.5 132C145.5 127.582 141.918 124 137.5 124C133.082 124 129.5 127.582 129.5 132C129.5 136.418 133.082 140 137.5 140Z" fill="white" stroke="#077BBD" stroke-width="3"/>
<path d="M98.3229 114V104.758H101.56C102.682 104.758 103.532 104.974 104.112 105.405C104.692 105.833 104.982 106.461 104.982 107.291C104.982 107.743 104.865 108.143 104.633 108.49C104.4 108.833 104.076 109.085 103.661 109.246C104.135 109.364 104.508 109.603 104.779 109.963C105.054 110.323 105.191 110.763 105.191 111.283C105.191 112.172 104.908 112.845 104.341 113.302C103.773 113.759 102.965 113.992 101.916 114H98.3229ZM100.227 109.976V112.47H101.859C102.307 112.47 102.656 112.364 102.906 112.153C103.16 111.937 103.287 111.641 103.287 111.264C103.287 110.418 102.849 109.988 101.973 109.976H100.227ZM100.227 108.63H101.636C102.597 108.613 103.077 108.23 103.077 107.481C103.077 107.062 102.955 106.762 102.709 106.58C102.468 106.393 102.085 106.3 101.56 106.3H100.227V108.63ZM113.621 104.758V110.845C113.621 111.857 113.303 112.656 112.669 113.245C112.038 113.833 111.175 114.127 110.079 114.127C109 114.127 108.143 113.841 107.508 113.27C106.873 112.699 106.549 111.914 106.537 110.915V104.758H108.441V110.858C108.441 111.463 108.585 111.905 108.873 112.185C109.165 112.46 109.567 112.597 110.079 112.597C111.149 112.597 111.693 112.034 111.71 110.909V104.758H113.621ZM118.369 108.922L120.292 104.758H122.374L119.34 110.648V114H117.404V110.648L114.37 104.758H116.458L118.369 108.922Z" fill="#077BBD"/>
<path d="M135 100.5H87C85.8954 100.5 85 101.395 85 102.5V117.5C85 118.605 85.8954 119.5 87 119.5H135C136.105 119.5 137 118.605 137 117.5V102.5C137 101.395 136.105 100.5 135 100.5Z" stroke="#007CC3"/>
<path d="M272.626 11.5752C272.626 11.2155 272.499 10.9404 272.245 10.75C271.991 10.5553 271.534 10.3522 270.874 10.1406C270.213 9.9248 269.691 9.71322 269.306 9.50586C268.256 8.9388 267.732 8.17497 267.732 7.21436C267.732 6.71501 267.871 6.27067 268.15 5.88135C268.434 5.48779 268.838 5.18099 269.363 4.96094C269.892 4.74089 270.484 4.63086 271.14 4.63086C271.8 4.63086 272.389 4.75146 272.905 4.99268C273.421 5.22965 273.821 5.56608 274.105 6.00195C274.392 6.43783 274.536 6.93294 274.536 7.4873H272.632C272.632 7.06413 272.499 6.73617 272.232 6.50342C271.965 6.26644 271.591 6.14795 271.108 6.14795C270.643 6.14795 270.281 6.2474 270.023 6.44629C269.765 6.64095 269.636 6.89909 269.636 7.2207C269.636 7.52116 269.786 7.77295 270.087 7.97607C270.391 8.1792 270.838 8.36963 271.426 8.54736C272.509 8.87321 273.298 9.27734 273.794 9.75977C274.289 10.2422 274.536 10.8431 274.536 11.5625C274.536 12.3623 274.234 12.9907 273.629 13.4478C273.023 13.9006 272.209 14.127 271.185 14.127C270.474 14.127 269.826 13.9979 269.242 13.7397C268.658 13.4774 268.212 13.1198 267.903 12.667C267.598 12.2142 267.446 11.6895 267.446 11.0928H269.357C269.357 12.1126 269.966 12.6226 271.185 12.6226C271.637 12.6226 271.991 12.5316 272.245 12.3496C272.499 12.1634 272.626 11.9053 272.626 11.5752ZM281.392 9.99463H277.735V12.4702H282.026V14H275.831V4.75781H282.014V6.30029H277.735V8.50293H281.392V9.99463ZM285.048 12.4702H289.091V14H283.144V4.75781H285.048V12.4702ZM292.094 12.4702H296.137V14H290.19V4.75781H292.094V12.4702Z" fill="white"/>
<path d="M305 0.5H257C255.895 0.5 255 1.39543 255 2.5V17.5C255 18.6046 255.895 19.5 257 19.5H305C306.105 19.5 307 18.6046 307 17.5V2.5C307 1.39543 306.105 0.5 305 0.5Z" stroke="white"/>
<path d="M241.029 98.3818V102H239.81V92.7578H243.219C244.23 92.7578 245.021 93.016 245.593 93.5322C246.168 94.0485 246.456 94.7319 246.456 95.5825C246.456 96.4797 246.175 97.1715 245.612 97.6582C245.053 98.1406 244.251 98.3818 243.206 98.3818H241.029ZM241.029 97.3853H243.219C243.87 97.3853 244.37 97.2329 244.717 96.9282C245.064 96.6193 245.237 96.175 245.237 95.5952C245.237 95.0451 245.064 94.605 244.717 94.2749C244.37 93.9448 243.894 93.7734 243.288 93.7607H241.029V97.3853ZM251.147 96.1855C250.969 96.1559 250.777 96.1411 250.569 96.1411C249.799 96.1411 249.276 96.4691 249.001 97.125V102H247.827V95.1318H248.97L248.989 95.9253C249.374 95.3117 249.92 95.0049 250.626 95.0049C250.855 95.0049 251.028 95.0345 251.147 95.0938V96.1855ZM251.794 98.5024C251.794 97.8296 251.925 97.2244 252.188 96.687C252.454 96.1496 252.823 95.7349 253.292 95.4429C253.766 95.1509 254.306 95.0049 254.911 95.0049C255.846 95.0049 256.602 95.3286 257.177 95.9761C257.757 96.6235 258.047 97.4847 258.047 98.5596V98.6421C258.047 99.3107 257.918 99.9116 257.66 100.445C257.406 100.974 257.04 101.386 256.561 101.683C256.087 101.979 255.542 102.127 254.924 102.127C253.993 102.127 253.237 101.803 252.658 101.156C252.082 100.508 251.794 99.6514 251.794 98.585V98.5024ZM252.975 98.6421C252.975 99.4038 253.151 100.015 253.502 100.477C253.857 100.938 254.331 101.168 254.924 101.168C255.52 101.168 255.994 100.936 256.346 100.47C256.697 100 256.872 99.3446 256.872 98.5024C256.872 97.7492 256.693 97.1398 256.333 96.6743C255.977 96.2046 255.503 95.9697 254.911 95.9697C254.331 95.9697 253.864 96.2004 253.508 96.6616C253.153 97.1229 252.975 97.783 252.975 98.6421ZM259.913 102V96.0396H258.828V95.1318H259.913V94.5479C259.913 93.7819 260.131 93.1852 260.567 92.7578C261.007 92.3304 261.627 92.1167 262.427 92.1167C262.901 92.1167 263.499 92.2458 264.223 92.5039L264.026 93.4941C263.497 93.2826 262.994 93.1768 262.516 93.1768C262.012 93.1768 261.648 93.291 261.424 93.5195C261.204 93.7438 261.094 94.0824 261.094 94.5352V95.1318H262.496V96.0396H261.094V102H259.913ZM264.807 102H263.626V95.1318H264.807V102ZM268.311 93.4688V95.1318H269.593V96.0396H268.311V100.299C268.311 100.574 268.368 100.781 268.482 100.921C268.597 101.056 268.791 101.124 269.066 101.124C269.202 101.124 269.388 101.099 269.625 101.048V102C269.316 102.085 269.016 102.127 268.724 102.127C268.199 102.127 267.803 101.968 267.536 101.651C267.27 101.333 267.137 100.883 267.137 100.299V96.0396H265.886V95.1318H267.137V93.4688H268.311Z" fill="white"/>
<path d="M20.0877 195.758L23.1092 203.299L26.1306 195.758H27.7112V205H26.4925V201.401L26.6067 197.516L23.5725 205H22.6394L19.6116 197.535L19.7322 201.401V205H18.5135V195.758H20.0877ZM33.9192 205C33.8515 204.865 33.7965 204.623 33.7542 204.276C33.2083 204.843 32.5566 205.127 31.7991 205.127C31.122 205.127 30.5655 204.937 30.1297 204.556C29.698 204.171 29.4822 203.684 29.4822 203.096C29.4822 202.381 29.753 201.826 30.2947 201.433C30.8406 201.035 31.6066 200.836 32.5926 200.836H33.7351V200.296C33.7351 199.886 33.6124 199.56 33.367 199.319C33.1215 199.073 32.7597 198.951 32.2815 198.951C31.8626 198.951 31.5113 199.056 31.2278 199.268C30.9443 199.48 30.8025 199.736 30.8025 200.036H29.6219C29.6219 199.693 29.7425 199.363 29.9837 199.046C30.2291 198.724 30.5592 198.47 30.9739 198.284C31.3929 198.098 31.852 198.005 32.3513 198.005C33.1427 198.005 33.7626 198.204 34.2112 198.602C34.6598 198.995 34.8925 199.539 34.9095 200.233V203.394C34.9095 204.025 34.9899 204.526 35.1507 204.898V205H33.9192ZM31.9705 204.105C32.3387 204.105 32.6878 204.01 33.0179 203.819C33.3479 203.629 33.587 203.381 33.7351 203.077V201.667H32.8147C31.3759 201.667 30.6565 202.089 30.6565 202.931C30.6565 203.299 30.7792 203.587 31.0247 203.794C31.2701 204.001 31.5854 204.105 31.9705 204.105ZM40.0701 199.186C39.8924 199.156 39.6998 199.141 39.4925 199.141C38.7223 199.141 38.1997 199.469 37.9246 200.125V205H36.7503V198.132H37.8929L37.9119 198.925C38.297 198.312 38.8429 198.005 39.5496 198.005C39.7781 198.005 39.9516 198.035 40.0701 198.094V199.186ZM43.0725 201.82L42.3362 202.588V205H41.1619V195.25H42.3362V201.147L42.9646 200.392L45.1038 198.132H46.532L43.8596 201.001L46.843 205H45.4656L43.0725 201.82ZM50.4676 205.127C49.5366 205.127 48.7791 204.822 48.1951 204.213C47.6111 203.599 47.3191 202.78 47.3191 201.756V201.541C47.3191 200.859 47.4482 200.252 47.7063 199.719C47.9687 199.181 48.3326 198.762 48.7981 198.462C49.2679 198.157 49.7757 198.005 50.3216 198.005C51.2145 198.005 51.9085 198.299 52.4036 198.887C52.8987 199.475 53.1463 200.318 53.1463 201.414V201.902H48.4934C48.5104 202.579 48.7071 203.127 49.0838 203.546C49.4646 203.961 49.9471 204.168 50.531 204.168C50.9457 204.168 51.297 204.084 51.5847 203.915C51.8725 203.745 52.1243 203.521 52.3401 203.242L53.0574 203.8C52.4819 204.685 51.6186 205.127 50.4676 205.127ZM50.3216 198.97C49.8476 198.97 49.4498 199.143 49.1282 199.49C48.8066 199.833 48.6077 200.315 48.5315 200.938H51.972V200.849C51.9381 200.252 51.7773 199.791 51.4895 199.465C51.2018 199.135 50.8124 198.97 50.3216 198.97ZM56.1043 196.469V198.132H57.3865V199.04H56.1043V203.299C56.1043 203.574 56.1614 203.781 56.2757 203.921C56.3899 204.056 56.5846 204.124 56.8596 204.124C56.9951 204.124 57.1813 204.099 57.4182 204.048V205C57.1093 205.085 56.8089 205.127 56.5169 205.127C55.9921 205.127 55.5965 204.968 55.3299 204.651C55.0633 204.333 54.93 203.883 54.93 203.299V199.04H53.6795V198.132H54.93V196.469H56.1043ZM67.7903 201.642C67.7903 202.687 67.5512 203.529 67.073 204.168C66.5948 204.807 65.9474 205.127 65.1306 205.127C64.297 205.127 63.6411 204.862 63.1629 204.333V207.641H61.9886V198.132H63.0613L63.1184 198.894C63.5966 198.301 64.261 198.005 65.1116 198.005C65.9368 198.005 66.5885 198.316 67.0667 198.938C67.5491 199.56 67.7903 200.425 67.7903 201.534V201.642ZM66.616 201.509C66.616 200.734 66.451 200.123 66.1209 199.674C65.7908 199.226 65.338 199.001 64.7625 199.001C64.0515 199.001 63.5183 199.317 63.1629 199.947V203.229C63.5141 203.855 64.0515 204.168 64.7752 204.168C65.338 204.168 65.7845 203.946 66.1145 203.502C66.4488 203.053 66.616 202.389 66.616 201.509ZM72.6082 199.186C72.4305 199.156 72.2379 199.141 72.0305 199.141C71.2604 199.141 70.7377 199.469 70.4627 200.125V205H69.2884V198.132H70.4309L70.45 198.925C70.8351 198.312 71.381 198.005 72.0877 198.005C72.3162 198.005 72.4897 198.035 72.6082 198.094V199.186ZM74.9695 205H73.7952V198.132H74.9695V205ZM73.7 196.31C73.7 196.12 73.7571 195.959 73.8714 195.828C73.9899 195.696 74.1634 195.631 74.3919 195.631C74.6204 195.631 74.7939 195.696 74.9124 195.828C75.0309 195.959 75.0901 196.12 75.0901 196.31C75.0901 196.5 75.0309 196.659 74.9124 196.786C74.7939 196.913 74.6204 196.977 74.3919 196.977C74.1634 196.977 73.9899 196.913 73.8714 196.786C73.7571 196.659 73.7 196.5 73.7 196.31ZM79.6096 204.168C80.0286 204.168 80.3946 204.042 80.7078 203.788C81.0209 203.534 81.1944 203.216 81.2283 202.835H82.3391C82.318 203.229 82.1826 203.604 81.9329 203.959C81.6832 204.314 81.3489 204.598 80.93 204.81C80.5152 205.021 80.0751 205.127 79.6096 205.127C78.6744 205.127 77.9296 204.816 77.3753 204.194C76.8251 203.568 76.5501 202.713 76.5501 201.629V201.433C76.5501 200.764 76.6728 200.169 76.9182 199.649C77.1637 199.128 77.5149 198.724 77.972 198.437C78.4332 198.149 78.977 198.005 79.6033 198.005C80.3735 198.005 81.0125 198.236 81.5203 198.697C82.0323 199.158 82.3053 199.757 82.3391 200.493H81.2283C81.1944 200.049 81.0252 199.685 80.7205 199.401C80.42 199.114 80.0476 198.97 79.6033 198.97C79.0066 198.97 78.5432 199.186 78.2132 199.617C77.8873 200.045 77.7244 200.665 77.7244 201.477V201.699C77.7244 202.491 77.8873 203.1 78.2132 203.527C78.539 203.955 79.0045 204.168 79.6096 204.168ZM86.5096 205.127C85.5786 205.127 84.8211 204.822 84.2371 204.213C83.6531 203.599 83.3611 202.78 83.3611 201.756V201.541C83.3611 200.859 83.4902 200.252 83.7483 199.719C84.0107 199.181 84.3746 198.762 84.8401 198.462C85.3098 198.157 85.8177 198.005 86.3636 198.005C87.2565 198.005 87.9505 198.299 88.4456 198.887C88.9407 199.475 89.1883 200.318 89.1883 201.414V201.902H84.5354C84.5524 202.579 84.7491 203.127 85.1258 203.546C85.5066 203.961 85.989 204.168 86.573 204.168C86.9877 204.168 87.339 204.084 87.6267 203.915C87.9145 203.745 88.1663 203.521 88.3821 203.242L89.0994 203.8C88.5239 204.685 87.6606 205.127 86.5096 205.127ZM86.3636 198.97C85.8896 198.97 85.4918 199.143 85.1702 199.49C84.8486 199.833 84.6497 200.315 84.5735 200.938H88.0139V200.849C87.9801 200.252 87.8193 199.791 87.5315 199.465C87.2438 199.135 86.8544 198.97 86.3636 198.97Z" fill="white"/>
<defs>
<linearGradient id="paint0_linear" x1="286.434" y1="122.199" x2="286.434" y2="30.5" gradientUnits="userSpaceOnUse">
<stop stop-opacity="0"/>
<stop offset="0.803536" stop-color="#01AB27" stop-opacity="0.943506"/>
<stop offset="1" stop-color="#01B529"/>
</linearGradient>
<linearGradient id="paint1_linear" x1="84.8822" y1="233" x2="84.8822" y2="129.682" gradientUnits="userSpaceOnUse">
<stop stop-opacity="0"/>
<stop offset="0.961802" stop-color="#11A4E4" stop-opacity="0.928289"/>
<stop offset="1" stop-color="#12B1F6"/>
</linearGradient>
</defs>
</svg>
