<svg width="424" height="216" viewBox="0 0 424 216" fill="none" xmlns="http://www.w3.org/2000/svg">
    <path d="M417.5 40.5H343.5C340.186 40.5 337.5 43.1863 337.5 46.5V66.5C337.5 69.8137 340.186 72.5 343.5 72.5H417.5C420.814 72.5 423.5 69.8137 423.5 66.5V46.5C423.5 43.1863 420.814 40.5 417.5 40.5Z" stroke="#0079C1"/>
    <path d="M353.688 59.0703C353.688 58.5911 353.518 58.1875 353.18 57.8594C352.846 57.5312 352.281 57.2344 351.484 56.9688C350.375 56.6302 349.565 56.1901 349.055 55.6484C348.549 55.1016 348.297 54.4089 348.297 53.5703C348.297 52.7161 348.544 52.0156 349.039 51.4688C349.539 50.9219 350.224 50.5964 351.094 50.4922V48.7812H352.258V50.5C353.133 50.6198 353.812 50.987 354.297 51.6016C354.786 52.2161 355.031 53.0573 355.031 54.125H353.594C353.594 53.3906 353.419 52.8073 353.07 52.375C352.721 51.9427 352.25 51.7266 351.656 51.7266C351.036 51.7266 350.562 51.888 350.234 52.2109C349.906 52.5286 349.742 52.974 349.742 53.5469C349.742 54.0781 349.914 54.5026 350.258 54.8203C350.607 55.1328 351.177 55.4193 351.969 55.6797C352.766 55.9349 353.385 56.2188 353.828 56.5312C354.276 56.8385 354.604 57.1979 354.812 57.6094C355.026 58.0208 355.133 58.5026 355.133 59.0547C355.133 59.9349 354.867 60.6432 354.336 61.1797C353.81 61.7161 353.07 62.0339 352.117 62.1328V63.625H350.961V62.1328C349.992 62.0443 349.232 61.7005 348.68 61.1016C348.133 60.4974 347.859 59.6797 347.859 58.6484H349.305C349.305 59.3724 349.495 59.9297 349.875 60.3203C350.255 60.7109 350.794 60.9062 351.492 60.9062C352.174 60.9062 352.711 60.7422 353.102 60.4141C353.492 60.0859 353.688 59.638 353.688 59.0703ZM361.68 62H360.227V52.3672L357.312 53.4375V52.125L361.453 50.5703H361.68V62ZM373.047 57.1484C373.047 58.8411 372.758 60.099 372.18 60.9219C371.602 61.7448 370.698 62.1562 369.469 62.1562C368.255 62.1562 367.357 61.7552 366.773 60.9531C366.19 60.1458 365.888 58.9427 365.867 57.3438V55.4141C365.867 53.7422 366.156 52.5 366.734 51.6875C367.312 50.875 368.219 50.4688 369.453 50.4688C370.677 50.4688 371.578 50.862 372.156 51.6484C372.734 52.4297 373.031 53.638 373.047 55.2734V57.1484ZM371.602 55.1719C371.602 53.9479 371.43 53.0573 371.086 52.5C370.742 51.9375 370.198 51.6562 369.453 51.6562C368.714 51.6562 368.174 51.9349 367.836 52.4922C367.497 53.0495 367.323 53.9062 367.312 55.0625V57.375C367.312 58.6042 367.49 59.513 367.844 60.1016C368.203 60.6849 368.745 60.9766 369.469 60.9766C370.182 60.9766 370.711 60.7005 371.055 60.1484C371.404 59.5964 371.586 58.7266 371.602 57.5391V55.1719ZM382.031 57.1484C382.031 58.8411 381.742 60.099 381.164 60.9219C380.586 61.7448 379.682 62.1562 378.453 62.1562C377.24 62.1562 376.341 61.7552 375.758 60.9531C375.174 60.1458 374.872 58.9427 374.852 57.3438V55.4141C374.852 53.7422 375.141 52.5 375.719 51.6875C376.297 50.875 377.203 50.4688 378.438 50.4688C379.661 50.4688 380.562 50.862 381.141 51.6484C381.719 52.4297 382.016 53.638 382.031 55.2734V57.1484ZM380.586 55.1719C380.586 53.9479 380.414 53.0573 380.07 52.5C379.727 51.9375 379.182 51.6562 378.438 51.6562C377.698 51.6562 377.159 51.9349 376.82 52.4922C376.482 53.0495 376.307 53.9062 376.297 55.0625V57.375C376.297 58.6042 376.474 59.513 376.828 60.1016C377.188 60.6849 377.729 60.9766 378.453 60.9766C379.167 60.9766 379.695 60.7005 380.039 60.1484C380.388 59.5964 380.57 58.7266 380.586 57.5391V55.1719ZM383.984 64.2656L383.164 63.7031C383.654 63.0208 383.909 62.3177 383.93 61.5938V60.2891H385.344V61.4219C385.344 61.9479 385.214 62.474 384.953 63C384.698 63.526 384.375 63.9479 383.984 64.2656ZM394.156 57.1484C394.156 58.8411 393.867 60.099 393.289 60.9219C392.711 61.7448 391.807 62.1562 390.578 62.1562C389.365 62.1562 388.466 61.7552 387.883 60.9531C387.299 60.1458 386.997 58.9427 386.977 57.3438V55.4141C386.977 53.7422 387.266 52.5 387.844 51.6875C388.422 50.875 389.328 50.4688 390.562 50.4688C391.786 50.4688 392.688 50.862 393.266 51.6484C393.844 52.4297 394.141 53.638 394.156 55.2734V57.1484ZM392.711 55.1719C392.711 53.9479 392.539 53.0573 392.195 52.5C391.852 51.9375 391.307 51.6562 390.562 51.6562C389.823 51.6562 389.284 51.9349 388.945 52.4922C388.607 53.0495 388.432 53.9062 388.422 55.0625V57.375C388.422 58.6042 388.599 59.513 388.953 60.1016C389.312 60.6849 389.854 60.9766 390.578 60.9766C391.292 60.9766 391.82 60.7005 392.164 60.1484C392.513 59.5964 392.695 58.7266 392.711 57.5391V55.1719ZM403.141 57.1484C403.141 58.8411 402.852 60.099 402.273 60.9219C401.695 61.7448 400.792 62.1562 399.562 62.1562C398.349 62.1562 397.451 61.7552 396.867 60.9531C396.284 60.1458 395.982 58.9427 395.961 57.3438V55.4141C395.961 53.7422 396.25 52.5 396.828 51.6875C397.406 50.875 398.312 50.4688 399.547 50.4688C400.771 50.4688 401.672 50.862 402.25 51.6484C402.828 52.4297 403.125 53.638 403.141 55.2734V57.1484ZM401.695 55.1719C401.695 53.9479 401.523 53.0573 401.18 52.5C400.836 51.9375 400.292 51.6562 399.547 51.6562C398.807 51.6562 398.268 51.9349 397.93 52.4922C397.591 53.0495 397.417 53.9062 397.406 55.0625V57.375C397.406 58.6042 397.583 59.513 397.938 60.1016C398.297 60.6849 398.839 60.9766 399.562 60.9766C400.276 60.9766 400.805 60.7005 401.148 60.1484C401.497 59.5964 401.68 58.7266 401.695 57.5391V55.1719ZM412.125 57.1484C412.125 58.8411 411.836 60.099 411.258 60.9219C410.68 61.7448 409.776 62.1562 408.547 62.1562C407.333 62.1562 406.435 61.7552 405.852 60.9531C405.268 60.1458 404.966 58.9427 404.945 57.3438V55.4141C404.945 53.7422 405.234 52.5 405.812 51.6875C406.391 50.875 407.297 50.4688 408.531 50.4688C409.755 50.4688 410.656 50.862 411.234 51.6484C411.812 52.4297 412.109 53.638 412.125 55.2734V57.1484ZM410.68 55.1719C410.68 53.9479 410.508 53.0573 410.164 52.5C409.82 51.9375 409.276 51.6562 408.531 51.6562C407.792 51.6562 407.253 51.9349 406.914 52.4922C406.576 53.0495 406.401 53.9062 406.391 55.0625V57.375C406.391 58.6042 406.568 59.513 406.922 60.1016C407.281 60.6849 407.823 60.9766 408.547 60.9766C409.26 60.9766 409.789 60.7005 410.133 60.1484C410.482 59.5964 410.664 58.7266 410.68 57.5391V55.1719Z" fill="white"/>
    <path d="M418 0H343C339.686 0 337 2.68629 337 6V27C337 30.3137 339.686 33 343 33H418C421.314 33 424 30.3137 424 27V6C424 2.68629 421.314 0 418 0Z" fill="#0079C1"/>
    <path d="M361.688 19.0703C361.688 18.5911 361.518 18.1875 361.18 17.8594C360.846 17.5312 360.281 17.2344 359.484 16.9688C358.375 16.6302 357.565 16.1901 357.055 15.6484C356.549 15.1016 356.297 14.4089 356.297 13.5703C356.297 12.7161 356.544 12.0156 357.039 11.4688C357.539 10.9219 358.224 10.5964 359.094 10.4922V8.78125H360.258V10.5C361.133 10.6198 361.812 10.987 362.297 11.6016C362.786 12.2161 363.031 13.0573 363.031 14.125H361.594C361.594 13.3906 361.419 12.8073 361.07 12.375C360.721 11.9427 360.25 11.7266 359.656 11.7266C359.036 11.7266 358.562 11.888 358.234 12.2109C357.906 12.5286 357.742 12.974 357.742 13.5469C357.742 14.0781 357.914 14.5026 358.258 14.8203C358.607 15.1328 359.177 15.4193 359.969 15.6797C360.766 15.9349 361.385 16.2188 361.828 16.5312C362.276 16.8385 362.604 17.1979 362.812 17.6094C363.026 18.0208 363.133 18.5026 363.133 19.0547C363.133 19.9349 362.867 20.6432 362.336 21.1797C361.81 21.7161 361.07 22.0339 360.117 22.1328V23.625H358.961V22.1328C357.992 22.0443 357.232 21.7005 356.68 21.1016C356.133 20.4974 355.859 19.6797 355.859 18.6484H357.305C357.305 19.3724 357.495 19.9297 357.875 20.3203C358.255 20.7109 358.794 20.9062 359.492 20.9062C360.174 20.9062 360.711 20.7422 361.102 20.4141C361.492 20.0859 361.688 19.638 361.688 19.0703ZM365.594 16.2969L366.172 10.625H372V11.9609H367.398L367.055 15.0625C367.612 14.7344 368.245 14.5703 368.953 14.5703C369.99 14.5703 370.812 14.9141 371.422 15.6016C372.031 16.2839 372.336 17.2083 372.336 18.375C372.336 19.5469 372.018 20.4714 371.383 21.1484C370.753 21.8203 369.87 22.1562 368.734 22.1562C367.729 22.1562 366.909 21.8776 366.273 21.3203C365.638 20.763 365.276 19.9922 365.188 19.0078H366.555C366.643 19.6589 366.875 20.151 367.25 20.4844C367.625 20.8125 368.12 20.9766 368.734 20.9766C369.406 20.9766 369.932 20.7474 370.312 20.2891C370.698 19.8307 370.891 19.1979 370.891 18.3906C370.891 17.6302 370.682 17.0208 370.266 16.5625C369.854 16.099 369.305 15.8672 368.617 15.8672C367.987 15.8672 367.492 16.0052 367.133 16.2812L366.75 16.5938L365.594 16.2969ZM374.016 24.2656L373.195 23.7031C373.685 23.0208 373.94 22.3177 373.961 21.5938V20.2891H375.375V21.4219C375.375 21.9479 375.245 22.474 374.984 23C374.729 23.526 374.406 23.9479 374.016 24.2656ZM384.188 17.1484C384.188 18.8411 383.898 20.099 383.32 20.9219C382.742 21.7448 381.839 22.1562 380.609 22.1562C379.396 22.1562 378.497 21.7552 377.914 20.9531C377.331 20.1458 377.029 18.9427 377.008 17.3438V15.4141C377.008 13.7422 377.297 12.5 377.875 11.6875C378.453 10.875 379.359 10.4688 380.594 10.4688C381.818 10.4688 382.719 10.862 383.297 11.6484C383.875 12.4297 384.172 13.638 384.188 15.2734V17.1484ZM382.742 15.1719C382.742 13.9479 382.57 13.0573 382.227 12.5C381.883 11.9375 381.339 11.6562 380.594 11.6562C379.854 11.6562 379.315 11.9349 378.977 12.4922C378.638 13.0495 378.464 13.9062 378.453 15.0625V17.375C378.453 18.6042 378.63 19.513 378.984 20.1016C379.344 20.6849 379.885 20.9766 380.609 20.9766C381.323 20.9766 381.852 20.7005 382.195 20.1484C382.544 19.5964 382.727 18.7266 382.742 17.5391V15.1719ZM393.172 17.1484C393.172 18.8411 392.883 20.099 392.305 20.9219C391.727 21.7448 390.823 22.1562 389.594 22.1562C388.38 22.1562 387.482 21.7552 386.898 20.9531C386.315 20.1458 386.013 18.9427 385.992 17.3438V15.4141C385.992 13.7422 386.281 12.5 386.859 11.6875C387.438 10.875 388.344 10.4688 389.578 10.4688C390.802 10.4688 391.703 10.862 392.281 11.6484C392.859 12.4297 393.156 13.638 393.172 15.2734V17.1484ZM391.727 15.1719C391.727 13.9479 391.555 13.0573 391.211 12.5C390.867 11.9375 390.323 11.6562 389.578 11.6562C388.839 11.6562 388.299 11.9349 387.961 12.4922C387.622 13.0495 387.448 13.9062 387.438 15.0625V17.375C387.438 18.6042 387.615 19.513 387.969 20.1016C388.328 20.6849 388.87 20.9766 389.594 20.9766C390.307 20.9766 390.836 20.7005 391.18 20.1484C391.529 19.5964 391.711 18.7266 391.727 17.5391V15.1719ZM402.156 17.1484C402.156 18.8411 401.867 20.099 401.289 20.9219C400.711 21.7448 399.807 22.1562 398.578 22.1562C397.365 22.1562 396.466 21.7552 395.883 20.9531C395.299 20.1458 394.997 18.9427 394.977 17.3438V15.4141C394.977 13.7422 395.266 12.5 395.844 11.6875C396.422 10.875 397.328 10.4688 398.562 10.4688C399.786 10.4688 400.688 10.862 401.266 11.6484C401.844 12.4297 402.141 13.638 402.156 15.2734V17.1484ZM400.711 15.1719C400.711 13.9479 400.539 13.0573 400.195 12.5C399.852 11.9375 399.307 11.6562 398.562 11.6562C397.823 11.6562 397.284 11.9349 396.945 12.4922C396.607 13.0495 396.432 13.9062 396.422 15.0625V17.375C396.422 18.6042 396.599 19.513 396.953 20.1016C397.312 20.6849 397.854 20.9766 398.578 20.9766C399.292 20.9766 399.82 20.7005 400.164 20.1484C400.513 19.5964 400.695 18.7266 400.711 17.5391V15.1719Z" fill="white"/>
    <path d="M63 191H269.5L166.25 32L63 191Z" fill="url(#paint0_linear)"/>
    <path d="M118 216H324.5L221.25 57L118 216Z" fill="url(#paint1_linear)"/>
    <path d="M9.6875 61.3906C9.54688 62.5938 9.10156 63.5234 8.35156 64.1797C7.60677 64.8307 6.61458 65.1562 5.375 65.1562C4.03125 65.1562 2.95312 64.6745 2.14062 63.7109C1.33333 62.7474 0.929688 61.4583 0.929688 59.8438V58.75C0.929688 57.6927 1.11719 56.763 1.49219 55.9609C1.8724 55.1589 2.40885 54.5443 3.10156 54.1172C3.79427 53.6849 4.59635 53.4688 5.50781 53.4688C6.71615 53.4688 7.6849 53.8073 8.41406 54.4844C9.14323 55.1562 9.56771 56.0885 9.6875 57.2812H8.17969C8.04948 56.375 7.76562 55.7188 7.32812 55.3125C6.89583 54.9062 6.28906 54.7031 5.50781 54.7031C4.54948 54.7031 3.79688 55.0573 3.25 55.7656C2.70833 56.474 2.4375 57.4818 2.4375 58.7891V59.8906C2.4375 61.125 2.69531 62.1068 3.21094 62.8359C3.72656 63.5651 4.44792 63.9297 5.375 63.9297C6.20833 63.9297 6.84635 63.7422 7.28906 63.3672C7.73698 62.987 8.03385 62.3281 8.17969 61.3906H9.6875ZM16.7344 65C16.651 64.8333 16.5833 64.5365 16.5312 64.1094C15.8594 64.8073 15.0573 65.1562 14.125 65.1562C13.2917 65.1562 12.6068 64.9219 12.0703 64.4531C11.5391 63.9792 11.2734 63.3802 11.2734 62.6562C11.2734 61.776 11.6068 61.0938 12.2734 60.6094C12.9453 60.1198 13.888 59.875 15.1016 59.875H16.5078V59.2109C16.5078 58.7057 16.3568 58.3047 16.0547 58.0078C15.7526 57.7057 15.3073 57.5547 14.7188 57.5547C14.2031 57.5547 13.7708 57.6849 13.4219 57.9453C13.0729 58.2057 12.8984 58.5208 12.8984 58.8906H11.4453C11.4453 58.4688 11.5938 58.0625 11.8906 57.6719C12.1927 57.276 12.599 56.9635 13.1094 56.7344C13.625 56.5052 14.1901 56.3906 14.8047 56.3906C15.7786 56.3906 16.5417 56.6354 17.0938 57.125C17.6458 57.6094 17.9323 58.2786 17.9531 59.1328V63.0234C17.9531 63.7995 18.0521 64.4167 18.25 64.875V65H16.7344ZM14.3359 63.8984C14.7891 63.8984 15.2188 63.7812 15.625 63.5469C16.0312 63.3125 16.3255 63.0078 16.5078 62.6328V60.8984H15.375C13.6042 60.8984 12.7188 61.4167 12.7188 62.4531C12.7188 62.9062 12.8698 63.2604 13.1719 63.5156C13.474 63.7708 13.862 63.8984 14.3359 63.8984ZM27.3594 60.8672C27.3594 62.1536 27.0651 63.1901 26.4766 63.9766C25.888 64.763 25.0911 65.1562 24.0859 65.1562C23.0599 65.1562 22.2526 64.8307 21.6641 64.1797V68.25H20.2188V56.5469H21.5391L21.6094 57.4844C22.1979 56.7552 23.0156 56.3906 24.0625 56.3906C25.0781 56.3906 25.8802 56.7734 26.4688 57.5391C27.0625 58.3047 27.3594 59.3698 27.3594 60.7344V60.8672ZM25.9141 60.7031C25.9141 59.75 25.7109 58.9974 25.3047 58.4453C24.8984 57.8932 24.3411 57.6172 23.6328 57.6172C22.7578 57.6172 22.1016 58.0052 21.6641 58.7812V62.8203C22.0964 63.5911 22.7578 63.9766 23.6484 63.9766C24.3411 63.9766 24.8906 63.7031 25.2969 63.1562C25.7083 62.6042 25.9141 61.7865 25.9141 60.7031ZM30.7734 65H29.3281V56.5469H30.7734V65ZM29.2109 54.3047C29.2109 54.0703 29.2812 53.8724 29.4219 53.7109C29.5677 53.5495 29.7812 53.4688 30.0625 53.4688C30.3438 53.4688 30.5573 53.5495 30.7031 53.7109C30.849 53.8724 30.9219 54.0703 30.9219 54.3047C30.9219 54.5391 30.849 54.7344 30.7031 54.8906C30.5573 55.0469 30.3438 55.125 30.0625 55.125C29.7812 55.125 29.5677 55.0469 29.4219 54.8906C29.2812 54.7344 29.2109 54.5391 29.2109 54.3047ZM35.0547 54.5V56.5469H36.6328V57.6641H35.0547V62.9062C35.0547 63.2448 35.125 63.5 35.2656 63.6719C35.4062 63.8385 35.6458 63.9219 35.9844 63.9219C36.151 63.9219 36.3802 63.8906 36.6719 63.8281V65C36.2917 65.1042 35.9219 65.1562 35.5625 65.1562C34.9167 65.1562 34.4297 64.9609 34.1016 64.5703C33.7734 64.1797 33.6094 63.625 33.6094 62.9062V57.6641H32.0703V56.5469H33.6094V54.5H35.0547ZM43.5469 65C43.4635 64.8333 43.3958 64.5365 43.3438 64.1094C42.6719 64.8073 41.8698 65.1562 40.9375 65.1562C40.1042 65.1562 39.4193 64.9219 38.8828 64.4531C38.3516 63.9792 38.0859 63.3802 38.0859 62.6562C38.0859 61.776 38.4193 61.0938 39.0859 60.6094C39.7578 60.1198 40.7005 59.875 41.9141 59.875H43.3203V59.2109C43.3203 58.7057 43.1693 58.3047 42.8672 58.0078C42.5651 57.7057 42.1198 57.5547 41.5312 57.5547C41.0156 57.5547 40.5833 57.6849 40.2344 57.9453C39.8854 58.2057 39.7109 58.5208 39.7109 58.8906H38.2578C38.2578 58.4688 38.4062 58.0625 38.7031 57.6719C39.0052 57.276 39.4115 56.9635 39.9219 56.7344C40.4375 56.5052 41.0026 56.3906 41.6172 56.3906C42.5911 56.3906 43.3542 56.6354 43.9062 57.125C44.4583 57.6094 44.7448 58.2786 44.7656 59.1328V63.0234C44.7656 63.7995 44.8646 64.4167 45.0625 64.875V65H43.5469ZM41.1484 63.8984C41.6016 63.8984 42.0312 63.7812 42.4375 63.5469C42.8438 63.3125 43.138 63.0078 43.3203 62.6328V60.8984H42.1875C40.4167 60.8984 39.5312 61.4167 39.5312 62.4531C39.5312 62.9062 39.6823 63.2604 39.9844 63.5156C40.2865 63.7708 40.6745 63.8984 41.1484 63.8984ZM48.6016 65H47.1562V53H48.6016V65ZM58.9766 57.8438C58.7578 57.8073 58.5208 57.7891 58.2656 57.7891C57.3177 57.7891 56.6745 58.1927 56.3359 59V65H54.8906V56.5469H56.2969L56.3203 57.5234C56.7943 56.7682 57.4661 56.3906 58.3359 56.3906C58.6172 56.3906 58.8307 56.4271 58.9766 56.5V57.8438ZM63.6641 65.1562C62.5182 65.1562 61.5859 64.7812 60.8672 64.0312C60.1484 63.276 59.7891 62.2682 59.7891 61.0078V60.7422C59.7891 59.9036 59.9479 59.1562 60.2656 58.5C60.5885 57.8385 61.0365 57.3229 61.6094 56.9531C62.1875 56.5781 62.8125 56.3906 63.4844 56.3906C64.5833 56.3906 65.4375 56.7526 66.0469 57.4766C66.6562 58.2005 66.9609 59.237 66.9609 60.5859V61.1875H61.2344C61.2552 62.0208 61.4974 62.6953 61.9609 63.2109C62.4297 63.7214 63.0234 63.9766 63.7422 63.9766C64.2526 63.9766 64.6849 63.8724 65.0391 63.6641C65.3932 63.4557 65.7031 63.1797 65.9688 62.8359L66.8516 63.5234C66.1432 64.612 65.0807 65.1562 63.6641 65.1562ZM63.4844 57.5781C62.901 57.5781 62.4115 57.7917 62.0156 58.2188C61.6198 58.6406 61.375 59.2344 61.2812 60H65.5156V59.8906C65.474 59.1562 65.276 58.5885 64.9219 58.1875C64.5677 57.7812 64.0885 57.5781 63.4844 57.5781ZM68.2891 60.7031C68.2891 59.375 68.5938 58.3255 69.2031 57.5547C69.8125 56.7786 70.6302 56.3906 71.6562 56.3906C72.6562 56.3906 73.4453 56.7266 74.0234 57.3984L74.0859 56.5469H75.4141V68.25H73.9688V64.2188C73.3854 64.8438 72.6094 65.1562 71.6406 65.1562C70.6198 65.1562 69.8047 64.7604 69.1953 63.9688C68.5911 63.1719 68.2891 62.1172 68.2891 60.8047V60.7031ZM69.7344 60.8672C69.7344 61.8359 69.9375 62.5964 70.3438 63.1484C70.7552 63.7005 71.3073 63.9766 72 63.9766C72.8594 63.9766 73.5156 63.5964 73.9688 62.8359V58.6953C73.5104 57.9505 72.8594 57.5781 72.0156 57.5781C71.3177 57.5781 70.763 57.8568 70.3516 58.4141C69.9401 58.9661 69.7344 59.7839 69.7344 60.8672ZM82.9531 64.1641C82.3906 64.8255 81.5651 65.1562 80.4766 65.1562C79.5755 65.1562 78.888 64.8958 78.4141 64.375C77.9453 63.849 77.7083 63.0729 77.7031 62.0469V56.5469H79.1484V62.0078C79.1484 63.2891 79.6693 63.9297 80.7109 63.9297C81.8151 63.9297 82.5495 63.5182 82.9141 62.6953V56.5469H84.3594V65H82.9844L82.9531 64.1641ZM88.1328 65H86.6875V56.5469H88.1328V65ZM86.5703 54.3047C86.5703 54.0703 86.6406 53.8724 86.7812 53.7109C86.9271 53.5495 87.1406 53.4688 87.4219 53.4688C87.7031 53.4688 87.9167 53.5495 88.0625 53.7109C88.2083 53.8724 88.2812 54.0703 88.2812 54.3047C88.2812 54.5391 88.2083 54.7344 88.0625 54.8906C87.9167 55.0469 87.7031 55.125 87.4219 55.125C87.1406 55.125 86.9271 55.0469 86.7812 54.8906C86.6406 54.7344 86.5703 54.5391 86.5703 54.3047ZM94.5391 57.8438C94.3203 57.8073 94.0833 57.7891 93.8281 57.7891C92.8802 57.7891 92.237 58.1927 91.8984 59V65H90.4531V56.5469H91.8594L91.8828 57.5234C92.3568 56.7682 93.0286 56.3906 93.8984 56.3906C94.1797 56.3906 94.3932 56.4271 94.5391 56.5V57.8438ZM99.2266 65.1562C98.0807 65.1562 97.1484 64.7812 96.4297 64.0312C95.7109 63.276 95.3516 62.2682 95.3516 61.0078V60.7422C95.3516 59.9036 95.5104 59.1562 95.8281 58.5C96.151 57.8385 96.599 57.3229 97.1719 56.9531C97.75 56.5781 98.375 56.3906 99.0469 56.3906C100.146 56.3906 101 56.7526 101.609 57.4766C102.219 58.2005 102.523 59.237 102.523 60.5859V61.1875H96.7969C96.8177 62.0208 97.0599 62.6953 97.5234 63.2109C97.9922 63.7214 98.5859 63.9766 99.3047 63.9766C99.8151 63.9766 100.247 63.8724 100.602 63.6641C100.956 63.4557 101.266 63.1797 101.531 62.8359L102.414 63.5234C101.706 64.612 100.643 65.1562 99.2266 65.1562ZM99.0469 57.5781C98.4635 57.5781 97.974 57.7917 97.5781 58.2188C97.1823 58.6406 96.9375 59.2344 96.8438 60H101.078V59.8906C101.036 59.1562 100.839 58.5885 100.484 58.1875C100.13 57.7812 99.651 57.5781 99.0469 57.5781ZM103.852 60.7031C103.852 59.4062 104.159 58.3646 104.773 57.5781C105.388 56.7865 106.193 56.3906 107.188 56.3906C108.177 56.3906 108.961 56.7292 109.539 57.4062V53H110.984V65H109.656L109.586 64.0938C109.008 64.8021 108.203 65.1562 107.172 65.1562C106.193 65.1562 105.393 64.7552 104.773 63.9531C104.159 63.151 103.852 62.1042 103.852 60.8125V60.7031ZM105.297 60.8672C105.297 61.8255 105.495 62.5755 105.891 63.1172C106.286 63.6589 106.833 63.9297 107.531 63.9297C108.448 63.9297 109.117 63.5182 109.539 62.6953V58.8125C109.107 58.0156 108.443 57.6172 107.547 57.6172C106.839 57.6172 106.286 57.8906 105.891 58.4375C105.495 58.9844 105.297 59.7943 105.297 60.8672ZM6.6875 81.0703C6.6875 80.5911 6.51823 80.1875 6.17969 79.8594C5.84635 79.5312 5.28125 79.2344 4.48438 78.9688C3.375 78.6302 2.5651 78.1901 2.05469 77.6484C1.54948 77.1016 1.29688 76.4089 1.29688 75.5703C1.29688 74.7161 1.54427 74.0156 2.03906 73.4688C2.53906 72.9219 3.22396 72.5964 4.09375 72.4922V70.7812H5.25781V72.5C6.13281 72.6198 6.8125 72.987 7.29688 73.6016C7.78646 74.2161 8.03125 75.0573 8.03125 76.125H6.59375C6.59375 75.3906 6.41927 74.8073 6.07031 74.375C5.72135 73.9427 5.25 73.7266 4.65625 73.7266C4.03646 73.7266 3.5625 73.888 3.23438 74.2109C2.90625 74.5286 2.74219 74.974 2.74219 75.5469C2.74219 76.0781 2.91406 76.5026 3.25781 76.8203C3.60677 77.1328 4.17708 77.4193 4.96875 77.6797C5.76562 77.9349 6.38542 78.2188 6.82812 78.5312C7.27604 78.8385 7.60417 79.1979 7.8125 79.6094C8.02604 80.0208 8.13281 80.5026 8.13281 81.0547C8.13281 81.9349 7.86719 82.6432 7.33594 83.1797C6.8099 83.7161 6.07031 84.0339 5.11719 84.1328V85.625H3.96094V84.1328C2.99219 84.0443 2.23177 83.7005 1.67969 83.1016C1.13281 82.4974 0.859375 81.6797 0.859375 80.6484H2.30469C2.30469 81.3724 2.49479 81.9297 2.875 82.3203C3.25521 82.7109 3.79427 82.9062 4.49219 82.9062C5.17448 82.9062 5.71094 82.7422 6.10156 82.4141C6.49219 82.0859 6.6875 81.638 6.6875 81.0703ZM14.6797 84H13.2266V74.3672L10.3125 75.4375V74.125L14.4531 72.5703H14.6797V84ZM26.0469 79.1484C26.0469 80.8411 25.7578 82.099 25.1797 82.9219C24.6016 83.7448 23.6979 84.1562 22.4688 84.1562C21.2552 84.1562 20.3568 83.7552 19.7734 82.9531C19.1901 82.1458 18.888 80.9427 18.8672 79.3438V77.4141C18.8672 75.7422 19.1562 74.5 19.7344 73.6875C20.3125 72.875 21.2188 72.4688 22.4531 72.4688C23.6771 72.4688 24.5781 72.862 25.1562 73.6484C25.7344 74.4297 26.0312 75.638 26.0469 77.2734V79.1484ZM24.6016 77.1719C24.6016 75.9479 24.4297 75.0573 24.0859 74.5C23.7422 73.9375 23.1979 73.6562 22.4531 73.6562C21.7135 73.6562 21.1745 73.9349 20.8359 74.4922C20.4974 75.0495 20.3229 75.9062 20.3125 77.0625V79.375C20.3125 80.6042 20.4896 81.513 20.8438 82.1016C21.2031 82.6849 21.7448 82.9766 22.4688 82.9766C23.1823 82.9766 23.7109 82.7005 24.0547 82.1484C24.4036 81.5964 24.5859 80.7266 24.6016 79.5391V77.1719ZM35.0312 79.1484C35.0312 80.8411 34.7422 82.099 34.1641 82.9219C33.5859 83.7448 32.6823 84.1562 31.4531 84.1562C30.2396 84.1562 29.3411 83.7552 28.7578 82.9531C28.1745 82.1458 27.8724 80.9427 27.8516 79.3438V77.4141C27.8516 75.7422 28.1406 74.5 28.7188 73.6875C29.2969 72.875 30.2031 72.4688 31.4375 72.4688C32.6615 72.4688 33.5625 72.862 34.1406 73.6484C34.7188 74.4297 35.0156 75.638 35.0312 77.2734V79.1484ZM33.5859 77.1719C33.5859 75.9479 33.4141 75.0573 33.0703 74.5C32.7266 73.9375 32.1823 73.6562 31.4375 73.6562C30.6979 73.6562 30.1589 73.9349 29.8203 74.4922C29.4818 75.0495 29.3073 75.9062 29.2969 77.0625V79.375C29.2969 80.6042 29.474 81.513 29.8281 82.1016C30.1875 82.6849 30.7292 82.9766 31.4531 82.9766C32.1667 82.9766 32.6953 82.7005 33.0391 82.1484C33.388 81.5964 33.5703 80.7266 33.5859 79.5391V77.1719ZM36.9844 86.2656L36.1641 85.7031C36.6536 85.0208 36.9089 84.3177 36.9297 83.5938V82.2891H38.3438V83.4219C38.3438 83.9479 38.2135 84.474 37.9531 85C37.6979 85.526 37.375 85.9479 36.9844 86.2656ZM47.1562 79.1484C47.1562 80.8411 46.8672 82.099 46.2891 82.9219C45.7109 83.7448 44.8073 84.1562 43.5781 84.1562C42.3646 84.1562 41.4661 83.7552 40.8828 82.9531C40.2995 82.1458 39.9974 80.9427 39.9766 79.3438V77.4141C39.9766 75.7422 40.2656 74.5 40.8438 73.6875C41.4219 72.875 42.3281 72.4688 43.5625 72.4688C44.7865 72.4688 45.6875 72.862 46.2656 73.6484C46.8438 74.4297 47.1406 75.638 47.1562 77.2734V79.1484ZM45.7109 77.1719C45.7109 75.9479 45.5391 75.0573 45.1953 74.5C44.8516 73.9375 44.3073 73.6562 43.5625 73.6562C42.8229 73.6562 42.2839 73.9349 41.9453 74.4922C41.6068 75.0495 41.4323 75.9062 41.4219 77.0625V79.375C41.4219 80.6042 41.599 81.513 41.9531 82.1016C42.3125 82.6849 42.8542 82.9766 43.5781 82.9766C44.2917 82.9766 44.8203 82.7005 45.1641 82.1484C45.513 81.5964 45.6953 80.7266 45.7109 79.5391V77.1719ZM56.1406 79.1484C56.1406 80.8411 55.8516 82.099 55.2734 82.9219C54.6953 83.7448 53.7917 84.1562 52.5625 84.1562C51.349 84.1562 50.4505 83.7552 49.8672 82.9531C49.2839 82.1458 48.9818 80.9427 48.9609 79.3438V77.4141C48.9609 75.7422 49.25 74.5 49.8281 73.6875C50.4062 72.875 51.3125 72.4688 52.5469 72.4688C53.7708 72.4688 54.6719 72.862 55.25 73.6484C55.8281 74.4297 56.125 75.638 56.1406 77.2734V79.1484ZM54.6953 77.1719C54.6953 75.9479 54.5234 75.0573 54.1797 74.5C53.8359 73.9375 53.2917 73.6562 52.5469 73.6562C51.8073 73.6562 51.2682 73.9349 50.9297 74.4922C50.5911 75.0495 50.4167 75.9062 50.4062 77.0625V79.375C50.4062 80.6042 50.5833 81.513 50.9375 82.1016C51.2969 82.6849 51.8385 82.9766 52.5625 82.9766C53.276 82.9766 53.8047 82.7005 54.1484 82.1484C54.4974 81.5964 54.6797 80.7266 54.6953 79.5391V77.1719ZM65.125 79.1484C65.125 80.8411 64.8359 82.099 64.2578 82.9219C63.6797 83.7448 62.776 84.1562 61.5469 84.1562C60.3333 84.1562 59.4349 83.7552 58.8516 82.9531C58.2682 82.1458 57.9661 80.9427 57.9453 79.3438V77.4141C57.9453 75.7422 58.2344 74.5 58.8125 73.6875C59.3906 72.875 60.2969 72.4688 61.5312 72.4688C62.7552 72.4688 63.6562 72.862 64.2344 73.6484C64.8125 74.4297 65.1094 75.638 65.125 77.2734V79.1484ZM63.6797 77.1719C63.6797 75.9479 63.5078 75.0573 63.1641 74.5C62.8203 73.9375 62.276 73.6562 61.5312 73.6562C60.7917 73.6562 60.2526 73.9349 59.9141 74.4922C59.5755 75.0495 59.401 75.9062 59.3906 77.0625V79.375C59.3906 80.6042 59.5677 81.513 59.9219 82.1016C60.2812 82.6849 60.8229 82.9766 61.5469 82.9766C62.2604 82.9766 62.7891 82.7005 63.1328 82.1484C63.4818 81.5964 63.6641 80.7266 63.6797 79.5391V77.1719Z" fill="white"/>
    <path d="M199.75 29.7422H194.82V33.7734H200.547V35H193.32V23.625H200.469V24.8594H194.82V28.5156H199.75V29.7422ZM205.023 29.6328L206.898 26.5469H208.586L205.82 30.7266L208.672 35H207L205.047 31.8359L203.094 35H201.414L204.266 30.7266L201.5 26.5469H203.172L205.023 29.6328ZM217.266 30.8672C217.266 32.1536 216.971 33.1901 216.383 33.9766C215.794 34.763 214.997 35.1562 213.992 35.1562C212.966 35.1562 212.159 34.8307 211.57 34.1797V38.25H210.125V26.5469H211.445L211.516 27.4844C212.104 26.7552 212.922 26.3906 213.969 26.3906C214.984 26.3906 215.786 26.7734 216.375 27.5391C216.969 28.3047 217.266 29.3698 217.266 30.7344V30.8672ZM215.82 30.7031C215.82 29.75 215.617 28.9974 215.211 28.4453C214.805 27.8932 214.247 27.6172 213.539 27.6172C212.664 27.6172 212.008 28.0052 211.57 28.7812V32.8203C212.003 33.5911 212.664 33.9766 213.555 33.9766C214.247 33.9766 214.797 33.7031 215.203 33.1562C215.615 32.6042 215.82 31.7865 215.82 30.7031ZM218.727 30.6953C218.727 29.8672 218.888 29.1224 219.211 28.4609C219.539 27.7995 219.992 27.2891 220.57 26.9297C221.154 26.5703 221.818 26.3906 222.562 26.3906C223.714 26.3906 224.643 26.7891 225.352 27.5859C226.065 28.3828 226.422 29.4427 226.422 30.7656V30.8672C226.422 31.6901 226.263 32.4297 225.945 33.0859C225.633 33.737 225.182 34.2448 224.594 34.6094C224.01 34.974 223.339 35.1562 222.578 35.1562C221.432 35.1562 220.503 34.7578 219.789 33.9609C219.081 33.1641 218.727 32.1094 218.727 30.7969V30.6953ZM220.18 30.8672C220.18 31.8047 220.396 32.5573 220.828 33.125C221.266 33.6927 221.849 33.9766 222.578 33.9766C223.312 33.9766 223.896 33.6901 224.328 33.1172C224.76 32.5391 224.977 31.7318 224.977 30.6953C224.977 29.7682 224.755 29.0182 224.312 28.4453C223.875 27.8672 223.292 27.5781 222.562 27.5781C221.849 27.5781 221.273 27.862 220.836 28.4297C220.398 28.9974 220.18 29.8099 220.18 30.8672ZM233.156 32.7578C233.156 32.3672 233.008 32.0651 232.711 31.8516C232.419 31.6328 231.906 31.4453 231.172 31.2891C230.443 31.1328 229.862 30.9453 229.43 30.7266C229.003 30.5078 228.685 30.2474 228.477 29.9453C228.273 29.6432 228.172 29.2839 228.172 28.8672C228.172 28.1745 228.464 27.5885 229.047 27.1094C229.635 26.6302 230.385 26.3906 231.297 26.3906C232.255 26.3906 233.031 26.638 233.625 27.1328C234.224 27.6276 234.523 28.2604 234.523 29.0312H233.07C233.07 28.6354 232.901 28.2943 232.562 28.0078C232.229 27.7214 231.807 27.5781 231.297 27.5781C230.771 27.5781 230.359 27.6927 230.062 27.9219C229.766 28.151 229.617 28.4505 229.617 28.8203C229.617 29.1693 229.755 29.4323 230.031 29.6094C230.307 29.7865 230.805 29.9557 231.523 30.1172C232.247 30.2786 232.833 30.4714 233.281 30.6953C233.729 30.9193 234.06 31.1901 234.273 31.5078C234.492 31.8203 234.602 32.2031 234.602 32.6562C234.602 33.4115 234.299 34.0182 233.695 34.4766C233.091 34.9297 232.307 35.1562 231.344 35.1562C230.667 35.1562 230.068 35.0365 229.547 34.7969C229.026 34.5573 228.617 34.224 228.32 33.7969C228.029 33.3646 227.883 32.8984 227.883 32.3984H229.328C229.354 32.8828 229.547 33.2682 229.906 33.5547C230.271 33.8359 230.75 33.9766 231.344 33.9766C231.891 33.9766 232.328 33.8672 232.656 33.6484C232.99 33.4245 233.156 33.1276 233.156 32.7578ZM241.703 34.1641C241.141 34.8255 240.315 35.1562 239.227 35.1562C238.326 35.1562 237.638 34.8958 237.164 34.375C236.695 33.849 236.458 33.0729 236.453 32.0469V26.5469H237.898V32.0078C237.898 33.2891 238.419 33.9297 239.461 33.9297C240.565 33.9297 241.299 33.5182 241.664 32.6953V26.5469H243.109V35H241.734L241.703 34.1641ZM249.398 27.8438C249.18 27.8073 248.943 27.7891 248.688 27.7891C247.74 27.7891 247.096 28.1927 246.758 29V35H245.312V26.5469H246.719L246.742 27.5234C247.216 26.7682 247.888 26.3906 248.758 26.3906C249.039 26.3906 249.253 26.4271 249.398 26.5V27.8438ZM254.086 35.1562C252.94 35.1562 252.008 34.7812 251.289 34.0312C250.57 33.276 250.211 32.2682 250.211 31.0078V30.7422C250.211 29.9036 250.37 29.1562 250.688 28.5C251.01 27.8385 251.458 27.3229 252.031 26.9531C252.609 26.5781 253.234 26.3906 253.906 26.3906C255.005 26.3906 255.859 26.7526 256.469 27.4766C257.078 28.2005 257.383 29.237 257.383 30.5859V31.1875H251.656C251.677 32.0208 251.919 32.6953 252.383 33.2109C252.852 33.7214 253.445 33.9766 254.164 33.9766C254.674 33.9766 255.107 33.8724 255.461 33.6641C255.815 33.4557 256.125 33.1797 256.391 32.8359L257.273 33.5234C256.565 34.612 255.503 35.1562 254.086 35.1562ZM253.906 27.5781C253.323 27.5781 252.833 27.7917 252.438 28.2188C252.042 28.6406 251.797 29.2344 251.703 30H255.938V29.8906C255.896 29.1562 255.698 28.5885 255.344 28.1875C254.99 27.7812 254.51 27.5781 253.906 27.5781Z" fill="white"/>
    <path d="M294.82 15.5469V20H293.32V8.625H297.516C298.76 8.625 299.734 8.94271 300.438 9.57812C301.146 10.2135 301.5 11.0547 301.5 12.1016C301.5 13.2057 301.154 14.0573 300.461 14.6562C299.773 15.25 298.786 15.5469 297.5 15.5469H294.82ZM294.82 14.3203H297.516C298.318 14.3203 298.932 14.1328 299.359 13.7578C299.786 13.3776 300 12.8307 300 12.1172C300 11.4401 299.786 10.8984 299.359 10.4922C298.932 10.0859 298.346 9.875 297.602 9.85938H294.82V14.3203ZM307.273 12.8438C307.055 12.8073 306.818 12.7891 306.562 12.7891C305.615 12.7891 304.971 13.1927 304.633 14V20H303.188V11.5469H304.594L304.617 12.5234C305.091 11.7682 305.763 11.3906 306.633 11.3906C306.914 11.3906 307.128 11.4271 307.273 11.5V12.8438ZM308.07 15.6953C308.07 14.8672 308.232 14.1224 308.555 13.4609C308.883 12.7995 309.336 12.2891 309.914 11.9297C310.497 11.5703 311.161 11.3906 311.906 11.3906C313.057 11.3906 313.987 11.7891 314.695 12.5859C315.409 13.3828 315.766 14.4427 315.766 15.7656V15.8672C315.766 16.6901 315.607 17.4297 315.289 18.0859C314.977 18.737 314.526 19.2448 313.938 19.6094C313.354 19.974 312.682 20.1562 311.922 20.1562C310.776 20.1562 309.846 19.7578 309.133 18.9609C308.424 18.1641 308.07 17.1094 308.07 15.7969V15.6953ZM309.523 15.8672C309.523 16.8047 309.74 17.5573 310.172 18.125C310.609 18.6927 311.193 18.9766 311.922 18.9766C312.656 18.9766 313.24 18.6901 313.672 18.1172C314.104 17.5391 314.32 16.7318 314.32 15.6953C314.32 14.7682 314.099 14.0182 313.656 13.4453C313.219 12.8672 312.635 12.5781 311.906 12.5781C311.193 12.5781 310.617 12.862 310.18 13.4297C309.742 13.9974 309.523 14.8099 309.523 15.8672ZM318.062 20V12.6641H316.727V11.5469H318.062V10.8281C318.062 9.88542 318.331 9.15104 318.867 8.625C319.409 8.09896 320.172 7.83594 321.156 7.83594C321.74 7.83594 322.477 7.99479 323.367 8.3125L323.125 9.53125C322.474 9.27083 321.854 9.14062 321.266 9.14062C320.646 9.14062 320.198 9.28125 319.922 9.5625C319.651 9.83854 319.516 10.2552 319.516 10.8125V11.5469H321.242V12.6641H319.516V20H318.062ZM324.086 20H322.633V11.5469H324.086V20ZM328.398 9.5V11.5469H329.977V12.6641H328.398V17.9062C328.398 18.2448 328.469 18.5 328.609 18.6719C328.75 18.8385 328.99 18.9219 329.328 18.9219C329.495 18.9219 329.724 18.8906 330.016 18.8281V20C329.635 20.1042 329.266 20.1562 328.906 20.1562C328.26 20.1562 327.773 19.9609 327.445 19.5703C327.117 19.1797 326.953 18.625 326.953 17.9062V12.6641H325.414V11.5469H326.953V9.5H328.398Z" fill="white"/>
    <path d="M221.5 57.5H337.083" stroke="white" stroke-width="0.5" stroke-linecap="square"/>
    <path d="M221.5 67C226.747 67 231 62.7467 231 57.5C231 52.2533 226.747 48 221.5 48C216.253 48 212 52.2533 212 57.5C212 62.7467 216.253 67 221.5 67Z" fill="white" fill-opacity="0.24"/>
    <path d="M221.5 62C223.985 62 226 59.9853 226 57.5C226 55.0147 223.985 53 221.5 53C219.015 53 217 55.0147 217 57.5C217 59.9853 219.015 62 221.5 62Z" fill="white"/>
    <path d="M35 91V108H129" stroke="white" stroke-width="0.5"/>
    <defs>
        <linearGradient id="paint0_linear" x1="310.1" y1="177.066" x2="131.724" y2="60.8498" gradientUnits="userSpaceOnUse">
            <stop stop-opacity="0"/>
            <stop offset="1" stop-color="#CB1742" stop-opacity="0.846354"/>
        </linearGradient>
        <linearGradient id="paint1_linear" x1="463.14" y1="278.763" x2="214.834" y2="62.9675" gradientUnits="userSpaceOnUse">
            <stop stop-opacity="0"/>
            <stop offset="1" stop-color="#11A4E4"/>
        </linearGradient>
    </defs>
</svg>
