<svg width="428" height="216" viewBox="0 0 428 216" fill="none" xmlns="http://www.w3.org/2000/svg">
    <path d="M421.5 40.5H347.5C344.186 40.5 341.5 43.1863 341.5 46.5V66.5C341.5 69.8137 344.186 72.5 347.5 72.5H421.5C424.814 72.5 427.5 69.8137 427.5 66.5V46.5C427.5 43.1863 424.814 40.5 421.5 40.5Z" stroke="#0079C1"/>
    <path d="M357.688 59.0703C357.688 58.5911 357.518 58.1875 357.18 57.8594C356.846 57.5312 356.281 57.2344 355.484 56.9688C354.375 56.6302 353.565 56.1901 353.055 55.6484C352.549 55.1016 352.297 54.4089 352.297 53.5703C352.297 52.7161 352.544 52.0156 353.039 51.4688C353.539 50.9219 354.224 50.5964 355.094 50.4922V48.7812H356.258V50.5C357.133 50.6198 357.812 50.987 358.297 51.6016C358.786 52.2161 359.031 53.0573 359.031 54.125H357.594C357.594 53.3906 357.419 52.8073 357.07 52.375C356.721 51.9427 356.25 51.7266 355.656 51.7266C355.036 51.7266 354.562 51.888 354.234 52.2109C353.906 52.5286 353.742 52.974 353.742 53.5469C353.742 54.0781 353.914 54.5026 354.258 54.8203C354.607 55.1328 355.177 55.4193 355.969 55.6797C356.766 55.9349 357.385 56.2188 357.828 56.5312C358.276 56.8385 358.604 57.1979 358.812 57.6094C359.026 58.0208 359.133 58.5026 359.133 59.0547C359.133 59.9349 358.867 60.6432 358.336 61.1797C357.81 61.7161 357.07 62.0339 356.117 62.1328V63.625H354.961V62.1328C353.992 62.0443 353.232 61.7005 352.68 61.1016C352.133 60.4974 351.859 59.6797 351.859 58.6484H353.305C353.305 59.3724 353.495 59.9297 353.875 60.3203C354.255 60.7109 354.794 60.9062 355.492 60.9062C356.174 60.9062 356.711 60.7422 357.102 60.4141C357.492 60.0859 357.688 59.638 357.688 59.0703ZM365.68 62H364.227V52.3672L361.312 53.4375V52.125L365.453 50.5703H365.68V62ZM377.047 57.1484C377.047 58.8411 376.758 60.099 376.18 60.9219C375.602 61.7448 374.698 62.1562 373.469 62.1562C372.255 62.1562 371.357 61.7552 370.773 60.9531C370.19 60.1458 369.888 58.9427 369.867 57.3438V55.4141C369.867 53.7422 370.156 52.5 370.734 51.6875C371.312 50.875 372.219 50.4688 373.453 50.4688C374.677 50.4688 375.578 50.862 376.156 51.6484C376.734 52.4297 377.031 53.638 377.047 55.2734V57.1484ZM375.602 55.1719C375.602 53.9479 375.43 53.0573 375.086 52.5C374.742 51.9375 374.198 51.6562 373.453 51.6562C372.714 51.6562 372.174 51.9349 371.836 52.4922C371.497 53.0495 371.323 53.9062 371.312 55.0625V57.375C371.312 58.6042 371.49 59.513 371.844 60.1016C372.203 60.6849 372.745 60.9766 373.469 60.9766C374.182 60.9766 374.711 60.7005 375.055 60.1484C375.404 59.5964 375.586 58.7266 375.602 57.5391V55.1719ZM386.031 57.1484C386.031 58.8411 385.742 60.099 385.164 60.9219C384.586 61.7448 383.682 62.1562 382.453 62.1562C381.24 62.1562 380.341 61.7552 379.758 60.9531C379.174 60.1458 378.872 58.9427 378.852 57.3438V55.4141C378.852 53.7422 379.141 52.5 379.719 51.6875C380.297 50.875 381.203 50.4688 382.438 50.4688C383.661 50.4688 384.562 50.862 385.141 51.6484C385.719 52.4297 386.016 53.638 386.031 55.2734V57.1484ZM384.586 55.1719C384.586 53.9479 384.414 53.0573 384.07 52.5C383.727 51.9375 383.182 51.6562 382.438 51.6562C381.698 51.6562 381.159 51.9349 380.82 52.4922C380.482 53.0495 380.307 53.9062 380.297 55.0625V57.375C380.297 58.6042 380.474 59.513 380.828 60.1016C381.188 60.6849 381.729 60.9766 382.453 60.9766C383.167 60.9766 383.695 60.7005 384.039 60.1484C384.388 59.5964 384.57 58.7266 384.586 57.5391V55.1719ZM387.984 64.2656L387.164 63.7031C387.654 63.0208 387.909 62.3177 387.93 61.5938V60.2891H389.344V61.4219C389.344 61.9479 389.214 62.474 388.953 63C388.698 63.526 388.375 63.9479 387.984 64.2656ZM398.156 57.1484C398.156 58.8411 397.867 60.099 397.289 60.9219C396.711 61.7448 395.807 62.1562 394.578 62.1562C393.365 62.1562 392.466 61.7552 391.883 60.9531C391.299 60.1458 390.997 58.9427 390.977 57.3438V55.4141C390.977 53.7422 391.266 52.5 391.844 51.6875C392.422 50.875 393.328 50.4688 394.562 50.4688C395.786 50.4688 396.688 50.862 397.266 51.6484C397.844 52.4297 398.141 53.638 398.156 55.2734V57.1484ZM396.711 55.1719C396.711 53.9479 396.539 53.0573 396.195 52.5C395.852 51.9375 395.307 51.6562 394.562 51.6562C393.823 51.6562 393.284 51.9349 392.945 52.4922C392.607 53.0495 392.432 53.9062 392.422 55.0625V57.375C392.422 58.6042 392.599 59.513 392.953 60.1016C393.312 60.6849 393.854 60.9766 394.578 60.9766C395.292 60.9766 395.82 60.7005 396.164 60.1484C396.513 59.5964 396.695 58.7266 396.711 57.5391V55.1719ZM407.141 57.1484C407.141 58.8411 406.852 60.099 406.273 60.9219C405.695 61.7448 404.792 62.1562 403.562 62.1562C402.349 62.1562 401.451 61.7552 400.867 60.9531C400.284 60.1458 399.982 58.9427 399.961 57.3438V55.4141C399.961 53.7422 400.25 52.5 400.828 51.6875C401.406 50.875 402.312 50.4688 403.547 50.4688C404.771 50.4688 405.672 50.862 406.25 51.6484C406.828 52.4297 407.125 53.638 407.141 55.2734V57.1484ZM405.695 55.1719C405.695 53.9479 405.523 53.0573 405.18 52.5C404.836 51.9375 404.292 51.6562 403.547 51.6562C402.807 51.6562 402.268 51.9349 401.93 52.4922C401.591 53.0495 401.417 53.9062 401.406 55.0625V57.375C401.406 58.6042 401.583 59.513 401.938 60.1016C402.297 60.6849 402.839 60.9766 403.562 60.9766C404.276 60.9766 404.805 60.7005 405.148 60.1484C405.497 59.5964 405.68 58.7266 405.695 57.5391V55.1719ZM416.125 57.1484C416.125 58.8411 415.836 60.099 415.258 60.9219C414.68 61.7448 413.776 62.1562 412.547 62.1562C411.333 62.1562 410.435 61.7552 409.852 60.9531C409.268 60.1458 408.966 58.9427 408.945 57.3438V55.4141C408.945 53.7422 409.234 52.5 409.812 51.6875C410.391 50.875 411.297 50.4688 412.531 50.4688C413.755 50.4688 414.656 50.862 415.234 51.6484C415.812 52.4297 416.109 53.638 416.125 55.2734V57.1484ZM414.68 55.1719C414.68 53.9479 414.508 53.0573 414.164 52.5C413.82 51.9375 413.276 51.6562 412.531 51.6562C411.792 51.6562 411.253 51.9349 410.914 52.4922C410.576 53.0495 410.401 53.9062 410.391 55.0625V57.375C410.391 58.6042 410.568 59.513 410.922 60.1016C411.281 60.6849 411.823 60.9766 412.547 60.9766C413.26 60.9766 413.789 60.7005 414.133 60.1484C414.482 59.5964 414.664 58.7266 414.68 57.5391V55.1719Z" fill="white"/>
    <path d="M422 0H347C343.686 0 341 2.68629 341 6V27C341 30.3137 343.686 33 347 33H422C425.314 33 428 30.3137 428 27V6C428 2.68629 425.314 0 422 0Z" fill="#0079C1"/>
    <path d="M365.688 19.0703C365.688 18.5911 365.518 18.1875 365.18 17.8594C364.846 17.5312 364.281 17.2344 363.484 16.9688C362.375 16.6302 361.565 16.1901 361.055 15.6484C360.549 15.1016 360.297 14.4089 360.297 13.5703C360.297 12.7161 360.544 12.0156 361.039 11.4688C361.539 10.9219 362.224 10.5964 363.094 10.4922V8.78125H364.258V10.5C365.133 10.6198 365.812 10.987 366.297 11.6016C366.786 12.2161 367.031 13.0573 367.031 14.125H365.594C365.594 13.3906 365.419 12.8073 365.07 12.375C364.721 11.9427 364.25 11.7266 363.656 11.7266C363.036 11.7266 362.562 11.888 362.234 12.2109C361.906 12.5286 361.742 12.974 361.742 13.5469C361.742 14.0781 361.914 14.5026 362.258 14.8203C362.607 15.1328 363.177 15.4193 363.969 15.6797C364.766 15.9349 365.385 16.2188 365.828 16.5312C366.276 16.8385 366.604 17.1979 366.812 17.6094C367.026 18.0208 367.133 18.5026 367.133 19.0547C367.133 19.9349 366.867 20.6432 366.336 21.1797C365.81 21.7161 365.07 22.0339 364.117 22.1328V23.625H362.961V22.1328C361.992 22.0443 361.232 21.7005 360.68 21.1016C360.133 20.4974 359.859 19.6797 359.859 18.6484H361.305C361.305 19.3724 361.495 19.9297 361.875 20.3203C362.255 20.7109 362.794 20.9062 363.492 20.9062C364.174 20.9062 364.711 20.7422 365.102 20.4141C365.492 20.0859 365.688 19.638 365.688 19.0703ZM369.594 16.2969L370.172 10.625H376V11.9609H371.398L371.055 15.0625C371.612 14.7344 372.245 14.5703 372.953 14.5703C373.99 14.5703 374.812 14.9141 375.422 15.6016C376.031 16.2839 376.336 17.2083 376.336 18.375C376.336 19.5469 376.018 20.4714 375.383 21.1484C374.753 21.8203 373.87 22.1562 372.734 22.1562C371.729 22.1562 370.909 21.8776 370.273 21.3203C369.638 20.763 369.276 19.9922 369.188 19.0078H370.555C370.643 19.6589 370.875 20.151 371.25 20.4844C371.625 20.8125 372.12 20.9766 372.734 20.9766C373.406 20.9766 373.932 20.7474 374.312 20.2891C374.698 19.8307 374.891 19.1979 374.891 18.3906C374.891 17.6302 374.682 17.0208 374.266 16.5625C373.854 16.099 373.305 15.8672 372.617 15.8672C371.987 15.8672 371.492 16.0052 371.133 16.2812L370.75 16.5938L369.594 16.2969ZM378.016 24.2656L377.195 23.7031C377.685 23.0208 377.94 22.3177 377.961 21.5938V20.2891H379.375V21.4219C379.375 21.9479 379.245 22.474 378.984 23C378.729 23.526 378.406 23.9479 378.016 24.2656ZM388.188 17.1484C388.188 18.8411 387.898 20.099 387.32 20.9219C386.742 21.7448 385.839 22.1562 384.609 22.1562C383.396 22.1562 382.497 21.7552 381.914 20.9531C381.331 20.1458 381.029 18.9427 381.008 17.3438V15.4141C381.008 13.7422 381.297 12.5 381.875 11.6875C382.453 10.875 383.359 10.4688 384.594 10.4688C385.818 10.4688 386.719 10.862 387.297 11.6484C387.875 12.4297 388.172 13.638 388.188 15.2734V17.1484ZM386.742 15.1719C386.742 13.9479 386.57 13.0573 386.227 12.5C385.883 11.9375 385.339 11.6562 384.594 11.6562C383.854 11.6562 383.315 11.9349 382.977 12.4922C382.638 13.0495 382.464 13.9062 382.453 15.0625V17.375C382.453 18.6042 382.63 19.513 382.984 20.1016C383.344 20.6849 383.885 20.9766 384.609 20.9766C385.323 20.9766 385.852 20.7005 386.195 20.1484C386.544 19.5964 386.727 18.7266 386.742 17.5391V15.1719ZM397.172 17.1484C397.172 18.8411 396.883 20.099 396.305 20.9219C395.727 21.7448 394.823 22.1562 393.594 22.1562C392.38 22.1562 391.482 21.7552 390.898 20.9531C390.315 20.1458 390.013 18.9427 389.992 17.3438V15.4141C389.992 13.7422 390.281 12.5 390.859 11.6875C391.438 10.875 392.344 10.4688 393.578 10.4688C394.802 10.4688 395.703 10.862 396.281 11.6484C396.859 12.4297 397.156 13.638 397.172 15.2734V17.1484ZM395.727 15.1719C395.727 13.9479 395.555 13.0573 395.211 12.5C394.867 11.9375 394.323 11.6562 393.578 11.6562C392.839 11.6562 392.299 11.9349 391.961 12.4922C391.622 13.0495 391.448 13.9062 391.438 15.0625V17.375C391.438 18.6042 391.615 19.513 391.969 20.1016C392.328 20.6849 392.87 20.9766 393.594 20.9766C394.307 20.9766 394.836 20.7005 395.18 20.1484C395.529 19.5964 395.711 18.7266 395.727 17.5391V15.1719ZM406.156 17.1484C406.156 18.8411 405.867 20.099 405.289 20.9219C404.711 21.7448 403.807 22.1562 402.578 22.1562C401.365 22.1562 400.466 21.7552 399.883 20.9531C399.299 20.1458 398.997 18.9427 398.977 17.3438V15.4141C398.977 13.7422 399.266 12.5 399.844 11.6875C400.422 10.875 401.328 10.4688 402.562 10.4688C403.786 10.4688 404.688 10.862 405.266 11.6484C405.844 12.4297 406.141 13.638 406.156 15.2734V17.1484ZM404.711 15.1719C404.711 13.9479 404.539 13.0573 404.195 12.5C403.852 11.9375 403.307 11.6562 402.562 11.6562C401.823 11.6562 401.284 11.9349 400.945 12.4922C400.607 13.0495 400.432 13.9062 400.422 15.0625V17.375C400.422 18.6042 400.599 19.513 400.953 20.1016C401.312 20.6849 401.854 20.9766 402.578 20.9766C403.292 20.9766 403.82 20.7005 404.164 20.1484C404.513 19.5964 404.695 18.7266 404.711 17.5391V15.1719Z" fill="white"/>
    <path d="M122 216H328.5L225.25 57L122 216Z" fill="url(#paint0_linear)"/>
    <path d="M122 216H151.5L136.75 193L122 216Z" fill="url(#paint1_linear)"/>
    <path d="M9.6875 156.391C9.54688 157.594 9.10156 158.523 8.35156 159.18C7.60677 159.831 6.61458 160.156 5.375 160.156C4.03125 160.156 2.95312 159.674 2.14062 158.711C1.33333 157.747 0.929688 156.458 0.929688 154.844V153.75C0.929688 152.693 1.11719 151.763 1.49219 150.961C1.8724 150.159 2.40885 149.544 3.10156 149.117C3.79427 148.685 4.59635 148.469 5.50781 148.469C6.71615 148.469 7.6849 148.807 8.41406 149.484C9.14323 150.156 9.56771 151.089 9.6875 152.281H8.17969C8.04948 151.375 7.76562 150.719 7.32812 150.312C6.89583 149.906 6.28906 149.703 5.50781 149.703C4.54948 149.703 3.79688 150.057 3.25 150.766C2.70833 151.474 2.4375 152.482 2.4375 153.789V154.891C2.4375 156.125 2.69531 157.107 3.21094 157.836C3.72656 158.565 4.44792 158.93 5.375 158.93C6.20833 158.93 6.84635 158.742 7.28906 158.367C7.73698 157.987 8.03385 157.328 8.17969 156.391H9.6875ZM16.7344 160C16.651 159.833 16.5833 159.536 16.5312 159.109C15.8594 159.807 15.0573 160.156 14.125 160.156C13.2917 160.156 12.6068 159.922 12.0703 159.453C11.5391 158.979 11.2734 158.38 11.2734 157.656C11.2734 156.776 11.6068 156.094 12.2734 155.609C12.9453 155.12 13.888 154.875 15.1016 154.875H16.5078V154.211C16.5078 153.706 16.3568 153.305 16.0547 153.008C15.7526 152.706 15.3073 152.555 14.7188 152.555C14.2031 152.555 13.7708 152.685 13.4219 152.945C13.0729 153.206 12.8984 153.521 12.8984 153.891H11.4453C11.4453 153.469 11.5938 153.062 11.8906 152.672C12.1927 152.276 12.599 151.964 13.1094 151.734C13.625 151.505 14.1901 151.391 14.8047 151.391C15.7786 151.391 16.5417 151.635 17.0938 152.125C17.6458 152.609 17.9323 153.279 17.9531 154.133V158.023C17.9531 158.799 18.0521 159.417 18.25 159.875V160H16.7344ZM14.3359 158.898C14.7891 158.898 15.2188 158.781 15.625 158.547C16.0312 158.312 16.3255 158.008 16.5078 157.633V155.898H15.375C13.6042 155.898 12.7188 156.417 12.7188 157.453C12.7188 157.906 12.8698 158.26 13.1719 158.516C13.474 158.771 13.862 158.898 14.3359 158.898ZM27.3594 155.867C27.3594 157.154 27.0651 158.19 26.4766 158.977C25.888 159.763 25.0911 160.156 24.0859 160.156C23.0599 160.156 22.2526 159.831 21.6641 159.18V163.25H20.2188V151.547H21.5391L21.6094 152.484C22.1979 151.755 23.0156 151.391 24.0625 151.391C25.0781 151.391 25.8802 151.773 26.4688 152.539C27.0625 153.305 27.3594 154.37 27.3594 155.734V155.867ZM25.9141 155.703C25.9141 154.75 25.7109 153.997 25.3047 153.445C24.8984 152.893 24.3411 152.617 23.6328 152.617C22.7578 152.617 22.1016 153.005 21.6641 153.781V157.82C22.0964 158.591 22.7578 158.977 23.6484 158.977C24.3411 158.977 24.8906 158.703 25.2969 158.156C25.7083 157.604 25.9141 156.786 25.9141 155.703ZM30.7734 160H29.3281V151.547H30.7734V160ZM29.2109 149.305C29.2109 149.07 29.2812 148.872 29.4219 148.711C29.5677 148.549 29.7812 148.469 30.0625 148.469C30.3438 148.469 30.5573 148.549 30.7031 148.711C30.849 148.872 30.9219 149.07 30.9219 149.305C30.9219 149.539 30.849 149.734 30.7031 149.891C30.5573 150.047 30.3438 150.125 30.0625 150.125C29.7812 150.125 29.5677 150.047 29.4219 149.891C29.2812 149.734 29.2109 149.539 29.2109 149.305ZM35.0547 149.5V151.547H36.6328V152.664H35.0547V157.906C35.0547 158.245 35.125 158.5 35.2656 158.672C35.4062 158.839 35.6458 158.922 35.9844 158.922C36.151 158.922 36.3802 158.891 36.6719 158.828V160C36.2917 160.104 35.9219 160.156 35.5625 160.156C34.9167 160.156 34.4297 159.961 34.1016 159.57C33.7734 159.18 33.6094 158.625 33.6094 157.906V152.664H32.0703V151.547H33.6094V149.5H35.0547ZM43.5469 160C43.4635 159.833 43.3958 159.536 43.3438 159.109C42.6719 159.807 41.8698 160.156 40.9375 160.156C40.1042 160.156 39.4193 159.922 38.8828 159.453C38.3516 158.979 38.0859 158.38 38.0859 157.656C38.0859 156.776 38.4193 156.094 39.0859 155.609C39.7578 155.12 40.7005 154.875 41.9141 154.875H43.3203V154.211C43.3203 153.706 43.1693 153.305 42.8672 153.008C42.5651 152.706 42.1198 152.555 41.5312 152.555C41.0156 152.555 40.5833 152.685 40.2344 152.945C39.8854 153.206 39.7109 153.521 39.7109 153.891H38.2578C38.2578 153.469 38.4062 153.062 38.7031 152.672C39.0052 152.276 39.4115 151.964 39.9219 151.734C40.4375 151.505 41.0026 151.391 41.6172 151.391C42.5911 151.391 43.3542 151.635 43.9062 152.125C44.4583 152.609 44.7448 153.279 44.7656 154.133V158.023C44.7656 158.799 44.8646 159.417 45.0625 159.875V160H43.5469ZM41.1484 158.898C41.6016 158.898 42.0312 158.781 42.4375 158.547C42.8438 158.312 43.138 158.008 43.3203 157.633V155.898H42.1875C40.4167 155.898 39.5312 156.417 39.5312 157.453C39.5312 157.906 39.6823 158.26 39.9844 158.516C40.2865 158.771 40.6745 158.898 41.1484 158.898ZM48.6016 160H47.1562V148H48.6016V160ZM58.9766 152.844C58.7578 152.807 58.5208 152.789 58.2656 152.789C57.3177 152.789 56.6745 153.193 56.3359 154V160H54.8906V151.547H56.2969L56.3203 152.523C56.7943 151.768 57.4661 151.391 58.3359 151.391C58.6172 151.391 58.8307 151.427 58.9766 151.5V152.844ZM63.6641 160.156C62.5182 160.156 61.5859 159.781 60.8672 159.031C60.1484 158.276 59.7891 157.268 59.7891 156.008V155.742C59.7891 154.904 59.9479 154.156 60.2656 153.5C60.5885 152.839 61.0365 152.323 61.6094 151.953C62.1875 151.578 62.8125 151.391 63.4844 151.391C64.5833 151.391 65.4375 151.753 66.0469 152.477C66.6562 153.201 66.9609 154.237 66.9609 155.586V156.188H61.2344C61.2552 157.021 61.4974 157.695 61.9609 158.211C62.4297 158.721 63.0234 158.977 63.7422 158.977C64.2526 158.977 64.6849 158.872 65.0391 158.664C65.3932 158.456 65.7031 158.18 65.9688 157.836L66.8516 158.523C66.1432 159.612 65.0807 160.156 63.6641 160.156ZM63.4844 152.578C62.901 152.578 62.4115 152.792 62.0156 153.219C61.6198 153.641 61.375 154.234 61.2812 155H65.5156V154.891C65.474 154.156 65.276 153.589 64.9219 153.188C64.5677 152.781 64.0885 152.578 63.4844 152.578ZM68.2891 155.703C68.2891 154.375 68.5938 153.326 69.2031 152.555C69.8125 151.779 70.6302 151.391 71.6562 151.391C72.6562 151.391 73.4453 151.727 74.0234 152.398L74.0859 151.547H75.4141V163.25H73.9688V159.219C73.3854 159.844 72.6094 160.156 71.6406 160.156C70.6198 160.156 69.8047 159.76 69.1953 158.969C68.5911 158.172 68.2891 157.117 68.2891 155.805V155.703ZM69.7344 155.867C69.7344 156.836 69.9375 157.596 70.3438 158.148C70.7552 158.701 71.3073 158.977 72 158.977C72.8594 158.977 73.5156 158.596 73.9688 157.836V153.695C73.5104 152.951 72.8594 152.578 72.0156 152.578C71.3177 152.578 70.763 152.857 70.3516 153.414C69.9401 153.966 69.7344 154.784 69.7344 155.867ZM82.9531 159.164C82.3906 159.826 81.5651 160.156 80.4766 160.156C79.5755 160.156 78.888 159.896 78.4141 159.375C77.9453 158.849 77.7083 158.073 77.7031 157.047V151.547H79.1484V157.008C79.1484 158.289 79.6693 158.93 80.7109 158.93C81.8151 158.93 82.5495 158.518 82.9141 157.695V151.547H84.3594V160H82.9844L82.9531 159.164ZM88.1328 160H86.6875V151.547H88.1328V160ZM86.5703 149.305C86.5703 149.07 86.6406 148.872 86.7812 148.711C86.9271 148.549 87.1406 148.469 87.4219 148.469C87.7031 148.469 87.9167 148.549 88.0625 148.711C88.2083 148.872 88.2812 149.07 88.2812 149.305C88.2812 149.539 88.2083 149.734 88.0625 149.891C87.9167 150.047 87.7031 150.125 87.4219 150.125C87.1406 150.125 86.9271 150.047 86.7812 149.891C86.6406 149.734 86.5703 149.539 86.5703 149.305ZM94.5391 152.844C94.3203 152.807 94.0833 152.789 93.8281 152.789C92.8802 152.789 92.237 153.193 91.8984 154V160H90.4531V151.547H91.8594L91.8828 152.523C92.3568 151.768 93.0286 151.391 93.8984 151.391C94.1797 151.391 94.3932 151.427 94.5391 151.5V152.844ZM99.2266 160.156C98.0807 160.156 97.1484 159.781 96.4297 159.031C95.7109 158.276 95.3516 157.268 95.3516 156.008V155.742C95.3516 154.904 95.5104 154.156 95.8281 153.5C96.151 152.839 96.599 152.323 97.1719 151.953C97.75 151.578 98.375 151.391 99.0469 151.391C100.146 151.391 101 151.753 101.609 152.477C102.219 153.201 102.523 154.237 102.523 155.586V156.188H96.7969C96.8177 157.021 97.0599 157.695 97.5234 158.211C97.9922 158.721 98.5859 158.977 99.3047 158.977C99.8151 158.977 100.247 158.872 100.602 158.664C100.956 158.456 101.266 158.18 101.531 157.836L102.414 158.523C101.706 159.612 100.643 160.156 99.2266 160.156ZM99.0469 152.578C98.4635 152.578 97.974 152.792 97.5781 153.219C97.1823 153.641 96.9375 154.234 96.8438 155H101.078V154.891C101.036 154.156 100.839 153.589 100.484 153.188C100.13 152.781 99.651 152.578 99.0469 152.578ZM103.852 155.703C103.852 154.406 104.159 153.365 104.773 152.578C105.388 151.786 106.193 151.391 107.188 151.391C108.177 151.391 108.961 151.729 109.539 152.406V148H110.984V160H109.656L109.586 159.094C109.008 159.802 108.203 160.156 107.172 160.156C106.193 160.156 105.393 159.755 104.773 158.953C104.159 158.151 103.852 157.104 103.852 155.812V155.703ZM105.297 155.867C105.297 156.826 105.495 157.576 105.891 158.117C106.286 158.659 106.833 158.93 107.531 158.93C108.448 158.93 109.117 158.518 109.539 157.695V153.812C109.107 153.016 108.443 152.617 107.547 152.617C106.839 152.617 106.286 152.891 105.891 153.438C105.495 153.984 105.297 154.794 105.297 155.867ZM6.6875 176.07C6.6875 175.591 6.51823 175.188 6.17969 174.859C5.84635 174.531 5.28125 174.234 4.48438 173.969C3.375 173.63 2.5651 173.19 2.05469 172.648C1.54948 172.102 1.29688 171.409 1.29688 170.57C1.29688 169.716 1.54427 169.016 2.03906 168.469C2.53906 167.922 3.22396 167.596 4.09375 167.492V165.781H5.25781V167.5C6.13281 167.62 6.8125 167.987 7.29688 168.602C7.78646 169.216 8.03125 170.057 8.03125 171.125H6.59375C6.59375 170.391 6.41927 169.807 6.07031 169.375C5.72135 168.943 5.25 168.727 4.65625 168.727C4.03646 168.727 3.5625 168.888 3.23438 169.211C2.90625 169.529 2.74219 169.974 2.74219 170.547C2.74219 171.078 2.91406 171.503 3.25781 171.82C3.60677 172.133 4.17708 172.419 4.96875 172.68C5.76562 172.935 6.38542 173.219 6.82812 173.531C7.27604 173.839 7.60417 174.198 7.8125 174.609C8.02604 175.021 8.13281 175.503 8.13281 176.055C8.13281 176.935 7.86719 177.643 7.33594 178.18C6.8099 178.716 6.07031 179.034 5.11719 179.133V180.625H3.96094V179.133C2.99219 179.044 2.23177 178.701 1.67969 178.102C1.13281 177.497 0.859375 176.68 0.859375 175.648H2.30469C2.30469 176.372 2.49479 176.93 2.875 177.32C3.25521 177.711 3.79427 177.906 4.49219 177.906C5.17448 177.906 5.71094 177.742 6.10156 177.414C6.49219 177.086 6.6875 176.638 6.6875 176.07ZM14.6797 179H13.2266V169.367L10.3125 170.438V169.125L14.4531 167.57H14.6797V179ZM26.0469 174.148C26.0469 175.841 25.7578 177.099 25.1797 177.922C24.6016 178.745 23.6979 179.156 22.4688 179.156C21.2552 179.156 20.3568 178.755 19.7734 177.953C19.1901 177.146 18.888 175.943 18.8672 174.344V172.414C18.8672 170.742 19.1562 169.5 19.7344 168.688C20.3125 167.875 21.2188 167.469 22.4531 167.469C23.6771 167.469 24.5781 167.862 25.1562 168.648C25.7344 169.43 26.0312 170.638 26.0469 172.273V174.148ZM24.6016 172.172C24.6016 170.948 24.4297 170.057 24.0859 169.5C23.7422 168.938 23.1979 168.656 22.4531 168.656C21.7135 168.656 21.1745 168.935 20.8359 169.492C20.4974 170.049 20.3229 170.906 20.3125 172.062V174.375C20.3125 175.604 20.4896 176.513 20.8438 177.102C21.2031 177.685 21.7448 177.977 22.4688 177.977C23.1823 177.977 23.7109 177.701 24.0547 177.148C24.4036 176.596 24.5859 175.727 24.6016 174.539V172.172ZM35.0312 174.148C35.0312 175.841 34.7422 177.099 34.1641 177.922C33.5859 178.745 32.6823 179.156 31.4531 179.156C30.2396 179.156 29.3411 178.755 28.7578 177.953C28.1745 177.146 27.8724 175.943 27.8516 174.344V172.414C27.8516 170.742 28.1406 169.5 28.7188 168.688C29.2969 167.875 30.2031 167.469 31.4375 167.469C32.6615 167.469 33.5625 167.862 34.1406 168.648C34.7188 169.43 35.0156 170.638 35.0312 172.273V174.148ZM33.5859 172.172C33.5859 170.948 33.4141 170.057 33.0703 169.5C32.7266 168.938 32.1823 168.656 31.4375 168.656C30.6979 168.656 30.1589 168.935 29.8203 169.492C29.4818 170.049 29.3073 170.906 29.2969 172.062V174.375C29.2969 175.604 29.474 176.513 29.8281 177.102C30.1875 177.685 30.7292 177.977 31.4531 177.977C32.1667 177.977 32.6953 177.701 33.0391 177.148C33.388 176.596 33.5703 175.727 33.5859 174.539V172.172ZM44.0156 174.148C44.0156 175.841 43.7266 177.099 43.1484 177.922C42.5703 178.745 41.6667 179.156 40.4375 179.156C39.224 179.156 38.3255 178.755 37.7422 177.953C37.1589 177.146 36.8568 175.943 36.8359 174.344V172.414C36.8359 170.742 37.125 169.5 37.7031 168.688C38.2812 167.875 39.1875 167.469 40.4219 167.469C41.6458 167.469 42.5469 167.862 43.125 168.648C43.7031 169.43 44 170.638 44.0156 172.273V174.148ZM42.5703 172.172C42.5703 170.948 42.3984 170.057 42.0547 169.5C41.7109 168.938 41.1667 168.656 40.4219 168.656C39.6823 168.656 39.1432 168.935 38.8047 169.492C38.4661 170.049 38.2917 170.906 38.2812 172.062V174.375C38.2812 175.604 38.4583 176.513 38.8125 177.102C39.1719 177.685 39.7135 177.977 40.4375 177.977C41.151 177.977 41.6797 177.701 42.0234 177.148C42.3724 176.596 42.5547 175.727 42.5703 174.539V172.172Z" fill="white"/>
    <path d="M203.75 29.7422H198.82V33.7734H204.547V35H197.32V23.625H204.469V24.8594H198.82V28.5156H203.75V29.7422ZM209.023 29.6328L210.898 26.5469H212.586L209.82 30.7266L212.672 35H211L209.047 31.8359L207.094 35H205.414L208.266 30.7266L205.5 26.5469H207.172L209.023 29.6328ZM221.266 30.8672C221.266 32.1536 220.971 33.1901 220.383 33.9766C219.794 34.763 218.997 35.1562 217.992 35.1562C216.966 35.1562 216.159 34.8307 215.57 34.1797V38.25H214.125V26.5469H215.445L215.516 27.4844C216.104 26.7552 216.922 26.3906 217.969 26.3906C218.984 26.3906 219.786 26.7734 220.375 27.5391C220.969 28.3047 221.266 29.3698 221.266 30.7344V30.8672ZM219.82 30.7031C219.82 29.75 219.617 28.9974 219.211 28.4453C218.805 27.8932 218.247 27.6172 217.539 27.6172C216.664 27.6172 216.008 28.0052 215.57 28.7812V32.8203C216.003 33.5911 216.664 33.9766 217.555 33.9766C218.247 33.9766 218.797 33.7031 219.203 33.1562C219.615 32.6042 219.82 31.7865 219.82 30.7031ZM222.727 30.6953C222.727 29.8672 222.888 29.1224 223.211 28.4609C223.539 27.7995 223.992 27.2891 224.57 26.9297C225.154 26.5703 225.818 26.3906 226.562 26.3906C227.714 26.3906 228.643 26.7891 229.352 27.5859C230.065 28.3828 230.422 29.4427 230.422 30.7656V30.8672C230.422 31.6901 230.263 32.4297 229.945 33.0859C229.633 33.737 229.182 34.2448 228.594 34.6094C228.01 34.974 227.339 35.1562 226.578 35.1562C225.432 35.1562 224.503 34.7578 223.789 33.9609C223.081 33.1641 222.727 32.1094 222.727 30.7969V30.6953ZM224.18 30.8672C224.18 31.8047 224.396 32.5573 224.828 33.125C225.266 33.6927 225.849 33.9766 226.578 33.9766C227.312 33.9766 227.896 33.6901 228.328 33.1172C228.76 32.5391 228.977 31.7318 228.977 30.6953C228.977 29.7682 228.755 29.0182 228.312 28.4453C227.875 27.8672 227.292 27.5781 226.562 27.5781C225.849 27.5781 225.273 27.862 224.836 28.4297C224.398 28.9974 224.18 29.8099 224.18 30.8672ZM237.156 32.7578C237.156 32.3672 237.008 32.0651 236.711 31.8516C236.419 31.6328 235.906 31.4453 235.172 31.2891C234.443 31.1328 233.862 30.9453 233.43 30.7266C233.003 30.5078 232.685 30.2474 232.477 29.9453C232.273 29.6432 232.172 29.2839 232.172 28.8672C232.172 28.1745 232.464 27.5885 233.047 27.1094C233.635 26.6302 234.385 26.3906 235.297 26.3906C236.255 26.3906 237.031 26.638 237.625 27.1328C238.224 27.6276 238.523 28.2604 238.523 29.0312H237.07C237.07 28.6354 236.901 28.2943 236.562 28.0078C236.229 27.7214 235.807 27.5781 235.297 27.5781C234.771 27.5781 234.359 27.6927 234.062 27.9219C233.766 28.151 233.617 28.4505 233.617 28.8203C233.617 29.1693 233.755 29.4323 234.031 29.6094C234.307 29.7865 234.805 29.9557 235.523 30.1172C236.247 30.2786 236.833 30.4714 237.281 30.6953C237.729 30.9193 238.06 31.1901 238.273 31.5078C238.492 31.8203 238.602 32.2031 238.602 32.6562C238.602 33.4115 238.299 34.0182 237.695 34.4766C237.091 34.9297 236.307 35.1562 235.344 35.1562C234.667 35.1562 234.068 35.0365 233.547 34.7969C233.026 34.5573 232.617 34.224 232.32 33.7969C232.029 33.3646 231.883 32.8984 231.883 32.3984H233.328C233.354 32.8828 233.547 33.2682 233.906 33.5547C234.271 33.8359 234.75 33.9766 235.344 33.9766C235.891 33.9766 236.328 33.8672 236.656 33.6484C236.99 33.4245 237.156 33.1276 237.156 32.7578ZM245.703 34.1641C245.141 34.8255 244.315 35.1562 243.227 35.1562C242.326 35.1562 241.638 34.8958 241.164 34.375C240.695 33.849 240.458 33.0729 240.453 32.0469V26.5469H241.898V32.0078C241.898 33.2891 242.419 33.9297 243.461 33.9297C244.565 33.9297 245.299 33.5182 245.664 32.6953V26.5469H247.109V35H245.734L245.703 34.1641ZM253.398 27.8438C253.18 27.8073 252.943 27.7891 252.688 27.7891C251.74 27.7891 251.096 28.1927 250.758 29V35H249.312V26.5469H250.719L250.742 27.5234C251.216 26.7682 251.888 26.3906 252.758 26.3906C253.039 26.3906 253.253 26.4271 253.398 26.5V27.8438ZM258.086 35.1562C256.94 35.1562 256.008 34.7812 255.289 34.0312C254.57 33.276 254.211 32.2682 254.211 31.0078V30.7422C254.211 29.9036 254.37 29.1562 254.688 28.5C255.01 27.8385 255.458 27.3229 256.031 26.9531C256.609 26.5781 257.234 26.3906 257.906 26.3906C259.005 26.3906 259.859 26.7526 260.469 27.4766C261.078 28.2005 261.383 29.237 261.383 30.5859V31.1875H255.656C255.677 32.0208 255.919 32.6953 256.383 33.2109C256.852 33.7214 257.445 33.9766 258.164 33.9766C258.674 33.9766 259.107 33.8724 259.461 33.6641C259.815 33.4557 260.125 33.1797 260.391 32.8359L261.273 33.5234C260.565 34.612 259.503 35.1562 258.086 35.1562ZM257.906 27.5781C257.323 27.5781 256.833 27.7917 256.438 28.2188C256.042 28.6406 255.797 29.2344 255.703 30H259.938V29.8906C259.896 29.1562 259.698 28.5885 259.344 28.1875C258.99 27.7812 258.51 27.5781 257.906 27.5781Z" fill="white"/>
    <path d="M298.82 15.5469V20H297.32V8.625H301.516C302.76 8.625 303.734 8.94271 304.438 9.57812C305.146 10.2135 305.5 11.0547 305.5 12.1016C305.5 13.2057 305.154 14.0573 304.461 14.6562C303.773 15.25 302.786 15.5469 301.5 15.5469H298.82ZM298.82 14.3203H301.516C302.318 14.3203 302.932 14.1328 303.359 13.7578C303.786 13.3776 304 12.8307 304 12.1172C304 11.4401 303.786 10.8984 303.359 10.4922C302.932 10.0859 302.346 9.875 301.602 9.85938H298.82V14.3203ZM311.273 12.8438C311.055 12.8073 310.818 12.7891 310.562 12.7891C309.615 12.7891 308.971 13.1927 308.633 14V20H307.188V11.5469H308.594L308.617 12.5234C309.091 11.7682 309.763 11.3906 310.633 11.3906C310.914 11.3906 311.128 11.4271 311.273 11.5V12.8438ZM312.07 15.6953C312.07 14.8672 312.232 14.1224 312.555 13.4609C312.883 12.7995 313.336 12.2891 313.914 11.9297C314.497 11.5703 315.161 11.3906 315.906 11.3906C317.057 11.3906 317.987 11.7891 318.695 12.5859C319.409 13.3828 319.766 14.4427 319.766 15.7656V15.8672C319.766 16.6901 319.607 17.4297 319.289 18.0859C318.977 18.737 318.526 19.2448 317.938 19.6094C317.354 19.974 316.682 20.1562 315.922 20.1562C314.776 20.1562 313.846 19.7578 313.133 18.9609C312.424 18.1641 312.07 17.1094 312.07 15.7969V15.6953ZM313.523 15.8672C313.523 16.8047 313.74 17.5573 314.172 18.125C314.609 18.6927 315.193 18.9766 315.922 18.9766C316.656 18.9766 317.24 18.6901 317.672 18.1172C318.104 17.5391 318.32 16.7318 318.32 15.6953C318.32 14.7682 318.099 14.0182 317.656 13.4453C317.219 12.8672 316.635 12.5781 315.906 12.5781C315.193 12.5781 314.617 12.862 314.18 13.4297C313.742 13.9974 313.523 14.8099 313.523 15.8672ZM322.062 20V12.6641H320.727V11.5469H322.062V10.8281C322.062 9.88542 322.331 9.15104 322.867 8.625C323.409 8.09896 324.172 7.83594 325.156 7.83594C325.74 7.83594 326.477 7.99479 327.367 8.3125L327.125 9.53125C326.474 9.27083 325.854 9.14062 325.266 9.14062C324.646 9.14062 324.198 9.28125 323.922 9.5625C323.651 9.83854 323.516 10.2552 323.516 10.8125V11.5469H325.242V12.6641H323.516V20H322.062ZM328.086 20H326.633V11.5469H328.086V20ZM332.398 9.5V11.5469H333.977V12.6641H332.398V17.9062C332.398 18.2448 332.469 18.5 332.609 18.6719C332.75 18.8385 332.99 18.9219 333.328 18.9219C333.495 18.9219 333.724 18.8906 334.016 18.8281V20C333.635 20.1042 333.266 20.1562 332.906 20.1562C332.26 20.1562 331.773 19.9609 331.445 19.5703C331.117 19.1797 330.953 18.625 330.953 17.9062V12.6641H329.414V11.5469H330.953V9.5H332.398Z" fill="white"/>
    <path d="M225.5 57.5H341.083" stroke="white" stroke-width="0.5" stroke-linecap="square"/>
    <path d="M225.5 67C230.747 67 235 62.7467 235 57.5C235 52.2533 230.747 48 225.5 48C220.253 48 216 52.2533 216 57.5C216 62.7467 220.253 67 225.5 67Z" fill="white" fill-opacity="0.24"/>
    <path d="M225.5 62C227.985 62 230 59.9853 230 57.5C230 55.0147 227.985 53 225.5 53C223.015 53 221 55.0147 221 57.5C221 59.9853 223.015 62 225.5 62Z" fill="white"/>
    <path d="M40 190V207H134" stroke="white" stroke-width="0.5"/>
    <defs>
        <linearGradient id="paint0_linear" x1="440.419" y1="274.586" x2="217.776" y2="67.9638" gradientUnits="userSpaceOnUse">
            <stop stop-opacity="0"/>
            <stop offset="1" stop-color="#11A4E4"/>
        </linearGradient>
        <linearGradient id="paint1_linear" x1="173.187" y1="170.422" x2="136.872" y2="227.764" gradientUnits="userSpaceOnUse">
            <stop stop-color="#FB2F63" stop-opacity="0"/>
            <stop offset="1" stop-color="#C40528"/>
        </linearGradient>
    </defs>
</svg>