<svg width="308" height="185" viewBox="0 0 308 185" fill="none" xmlns="http://www.w3.org/2000/svg">
<path d="M144.5 56.0294L307.5 156V53H144.5V56.0294Z" fill="url(#paint0_linear)"/>
<path d="M0.5 2L8.53019 21L21.5792 2L29.1075 11.5L41.1528 14.5L59.7226 33L80.3 39.5L99.8736 30.5L118.945 33L133.5 51V174H0.5V2Z" fill="url(#paint1_linear)"/>
<path d="M141 55.4949L307.5 155.505" stroke="#007CC3" stroke-linejoin="round" stroke-dasharray="2 2"/>
<path d="M140 57.495L307.5 157.5" stroke="white" stroke-linejoin="round" stroke-dasharray="2 2"/>
<path d="M0.5 2L8.53019 21L21.5792 2L29.1075 11.5L41.1528 14.5L59.7226 33L80.3 39.5L99.8736 30.5L118.945 33L133.5 51" stroke="white"/>
<path d="M0.5 0L8.53019 19L21.5792 0L29.1075 9.5L41.1528 12.5L59.7226 31L80.3 37.5L99.8736 28.5L118.945 31L133.5 49" stroke="#007CC3"/>
<path d="M136.5 44C140.918 44 144.5 47.5817 144.5 52C144.5 56.4183 140.918 60 136.5 60C132.082 60 128.5 56.4183 128.5 52C128.5 47.5817 132.082 44 136.5 44Z" fill="black" stroke="white" stroke-width="3"/>
<path d="M270.823 180V170.758H274.06C275.182 170.758 276.032 170.974 276.612 171.405C277.192 171.833 277.482 172.461 277.482 173.291C277.482 173.743 277.365 174.143 277.133 174.49C276.9 174.833 276.576 175.085 276.161 175.246C276.635 175.364 277.008 175.603 277.279 175.963C277.554 176.323 277.691 176.763 277.691 177.283C277.691 178.172 277.408 178.845 276.841 179.302C276.273 179.759 275.465 179.992 274.416 180H270.823ZM272.727 175.976V178.47H274.359C274.807 178.47 275.156 178.364 275.406 178.153C275.66 177.937 275.787 177.641 275.787 177.264C275.787 176.418 275.349 175.988 274.473 175.976H272.727ZM272.727 174.63H274.136C275.097 174.613 275.577 174.23 275.577 173.481C275.577 173.062 275.455 172.762 275.209 172.58C274.968 172.393 274.585 172.3 274.06 172.3H272.727V174.63ZM286.121 170.758V176.845C286.121 177.857 285.803 178.656 285.169 179.245C284.538 179.833 283.675 180.127 282.579 180.127C281.5 180.127 280.643 179.841 280.008 179.27C279.373 178.699 279.049 177.914 279.037 176.915V170.758H280.941V176.858C280.941 177.463 281.085 177.905 281.373 178.185C281.665 178.46 282.067 178.597 282.579 178.597C283.649 178.597 284.193 178.034 284.21 176.909V170.758H286.121ZM290.869 174.922L292.792 170.758H294.874L291.84 176.648V180H289.904V176.648L286.87 170.758H288.958L290.869 174.922Z" fill="#077BBD"/>
<path d="M305.5 165.5H257.5C256.395 165.5 255.5 166.395 255.5 167.5V182.5C255.5 183.605 256.395 184.5 257.5 184.5H305.5C306.605 184.5 307.5 183.605 307.5 182.5V167.5C307.5 166.395 306.605 165.5 305.5 165.5Z" stroke="#007CC3"/>
<path d="M165.626 32.5752C165.626 32.2155 165.499 31.9404 165.245 31.75C164.991 31.5553 164.534 31.3522 163.874 31.1406C163.213 30.9248 162.691 30.7132 162.306 30.5059C161.256 29.9388 160.732 29.175 160.732 28.2144C160.732 27.715 160.871 27.2707 161.15 26.8813C161.434 26.4878 161.838 26.181 162.363 25.9609C162.892 25.7409 163.484 25.6309 164.14 25.6309C164.8 25.6309 165.389 25.7515 165.905 25.9927C166.421 26.2297 166.821 26.5661 167.105 27.002C167.392 27.4378 167.536 27.9329 167.536 28.4873H165.632C165.632 28.0641 165.499 27.7362 165.232 27.5034C164.965 27.2664 164.591 27.1479 164.108 27.1479C163.643 27.1479 163.281 27.2474 163.023 27.4463C162.765 27.641 162.636 27.8991 162.636 28.2207C162.636 28.5212 162.786 28.7729 163.087 28.9761C163.391 29.1792 163.838 29.3696 164.426 29.5474C165.509 29.8732 166.298 30.2773 166.794 30.7598C167.289 31.2422 167.536 31.8431 167.536 32.5625C167.536 33.3623 167.234 33.9907 166.629 34.4478C166.023 34.9006 165.209 35.127 164.185 35.127C163.474 35.127 162.826 34.9979 162.242 34.7397C161.658 34.4774 161.212 34.1198 160.903 33.667C160.598 33.2142 160.446 32.6895 160.446 32.0928H162.357C162.357 33.1126 162.966 33.6226 164.185 33.6226C164.637 33.6226 164.991 33.5316 165.245 33.3496C165.499 33.1634 165.626 32.9053 165.626 32.5752ZM174.392 30.9946H170.735V33.4702H175.026V35H168.831V25.7578H175.014V27.3003H170.735V29.5029H174.392V30.9946ZM178.048 33.4702H182.091V35H176.144V25.7578H178.048V33.4702ZM185.094 33.4702H189.137V35H183.19V25.7578H185.094V33.4702Z" fill="white"/>
<path d="M198 22.5H150C148.895 22.5 148 23.3954 148 24.5V39.5C148 40.6046 148.895 41.5 150 41.5H198C199.105 41.5 200 40.6046 200 39.5V24.5C200 23.3954 199.105 22.5 198 22.5Z" stroke="white"/>
<path d="M261.029 92.3818V96H259.81V86.7578H263.219C264.23 86.7578 265.021 87.016 265.593 87.5322C266.168 88.0485 266.456 88.7319 266.456 89.5825C266.456 90.4797 266.175 91.1715 265.612 91.6582C265.053 92.1406 264.251 92.3818 263.206 92.3818H261.029ZM261.029 91.3853H263.219C263.87 91.3853 264.37 91.2329 264.717 90.9282C265.064 90.6193 265.237 90.175 265.237 89.5952C265.237 89.0451 265.064 88.605 264.717 88.2749C264.37 87.9448 263.894 87.7734 263.288 87.7607H261.029V91.3853ZM271.147 90.1855C270.969 90.1559 270.777 90.1411 270.569 90.1411C269.799 90.1411 269.276 90.4691 269.001 91.125V96H267.827V89.1318H268.97L268.989 89.9253C269.374 89.3117 269.92 89.0049 270.626 89.0049C270.855 89.0049 271.028 89.0345 271.147 89.0938V90.1855ZM271.794 92.5024C271.794 91.8296 271.926 91.2244 272.188 90.687C272.454 90.1496 272.823 89.7349 273.292 89.4429C273.766 89.1509 274.306 89.0049 274.911 89.0049C275.846 89.0049 276.602 89.3286 277.177 89.9761C277.757 90.6235 278.047 91.4847 278.047 92.5596V92.6421C278.047 93.3107 277.918 93.9116 277.66 94.4448C277.406 94.9738 277.04 95.3864 276.561 95.6826C276.087 95.9788 275.542 96.127 274.924 96.127C273.993 96.127 273.237 95.8032 272.658 95.1558C272.082 94.5083 271.794 93.6514 271.794 92.585V92.5024ZM272.975 92.6421C272.975 93.4038 273.151 94.0153 273.502 94.4766C273.857 94.9378 274.331 95.1685 274.924 95.1685C275.52 95.1685 275.994 94.9357 276.346 94.4702C276.697 94.0005 276.872 93.3446 276.872 92.5024C276.872 91.7492 276.693 91.1398 276.333 90.6743C275.977 90.2046 275.503 89.9697 274.911 89.9697C274.331 89.9697 273.864 90.2004 273.508 90.6616C273.153 91.1229 272.975 91.783 272.975 92.6421ZM279.913 96V90.0396H278.828V89.1318H279.913V88.5479C279.913 87.7819 280.131 87.1852 280.567 86.7578C281.007 86.3304 281.627 86.1167 282.427 86.1167C282.901 86.1167 283.499 86.2458 284.223 86.5039L284.026 87.4941C283.497 87.2826 282.994 87.1768 282.516 87.1768C282.012 87.1768 281.648 87.291 281.424 87.5195C281.204 87.7438 281.094 88.0824 281.094 88.5352V89.1318H282.496V90.0396H281.094V96H279.913ZM284.807 96H283.626V89.1318H284.807V96ZM288.311 87.4688V89.1318H289.593V90.0396H288.311V94.2988C288.311 94.5739 288.368 94.7812 288.482 94.9209C288.597 95.0563 288.791 95.124 289.066 95.124C289.202 95.124 289.388 95.0986 289.625 95.0479V96C289.316 96.0846 289.016 96.127 288.724 96.127C288.199 96.127 287.803 95.9683 287.537 95.6509C287.27 95.3335 287.137 94.8828 287.137 94.2988V90.0396H285.886V89.1318H287.137V87.4688H288.311Z" fill="white"/>
<path d="M27.0877 64.7578L30.1092 72.2988L33.1306 64.7578H34.7112V74H33.4925V70.4009L33.6067 66.5161L30.5725 74H29.6394L26.6116 66.5352L26.7322 70.4009V74H25.5135V64.7578H27.0877ZM40.9192 74C40.8515 73.8646 40.7965 73.6234 40.7542 73.2764C40.2083 73.8434 39.5566 74.127 38.7991 74.127C38.122 74.127 37.5655 73.9365 37.1297 73.5557C36.698 73.1706 36.4822 72.6839 36.4822 72.0957C36.4822 71.3805 36.753 70.8262 37.2947 70.4326C37.8406 70.0348 38.6066 69.8359 39.5926 69.8359H40.7351V69.2964C40.7351 68.8859 40.6124 68.5601 40.367 68.3188C40.1215 68.0734 39.7597 67.9507 39.2815 67.9507C38.8626 67.9507 38.5113 68.0565 38.2278 68.2681C37.9443 68.4797 37.8025 68.7357 37.8025 69.0361H36.6219C36.6219 68.6934 36.7425 68.3633 36.9837 68.0459C37.2291 67.7243 37.5592 67.4704 37.9739 67.2842C38.3929 67.098 38.852 67.0049 39.3513 67.0049C40.1427 67.0049 40.7626 67.2038 41.2112 67.6016C41.6598 67.9951 41.8925 68.5389 41.9095 69.2329V72.394C41.9095 73.0246 41.9899 73.526 42.1507 73.8984V74H40.9192ZM38.9705 73.105C39.3387 73.105 39.6878 73.0098 40.0179 72.8193C40.3479 72.6289 40.587 72.3813 40.7351 72.0767V70.6675H39.8147C38.3759 70.6675 37.6565 71.0885 37.6565 71.9307C37.6565 72.2988 37.7792 72.5866 38.0247 72.7939C38.2701 73.0013 38.5854 73.105 38.9705 73.105ZM47.0701 68.1855C46.8924 68.1559 46.6998 68.1411 46.4925 68.1411C45.7223 68.1411 45.1997 68.4691 44.9246 69.125V74H43.7503V67.1318H44.8929L44.9119 67.9253C45.297 67.3117 45.8429 67.0049 46.5496 67.0049C46.7781 67.0049 46.9516 67.0345 47.0701 67.0938V68.1855ZM50.0725 70.8198L49.3362 71.5879V74H48.1619V64.25H49.3362V70.147L49.9646 69.3916L52.1038 67.1318H53.532L50.8596 70.001L53.843 74H52.4656L50.0725 70.8198ZM57.4676 74.127C56.5366 74.127 55.7791 73.8223 55.1951 73.2129C54.6111 72.5993 54.3191 71.7804 54.3191 70.7563V70.5405C54.3191 69.8592 54.4482 69.252 54.7063 68.7188C54.9687 68.1813 55.3326 67.7624 55.7981 67.4619C56.2679 67.1572 56.7757 67.0049 57.3216 67.0049C58.2145 67.0049 58.9085 67.299 59.4036 67.8872C59.8987 68.4754 60.1463 69.3175 60.1463 70.4136V70.9023H55.4934C55.5104 71.5794 55.7071 72.1274 56.0838 72.5464C56.4646 72.9611 56.9471 73.1685 57.531 73.1685C57.9457 73.1685 58.297 73.0838 58.5847 72.9146C58.8725 72.7453 59.1243 72.521 59.3401 72.2417L60.0574 72.8003C59.4819 73.6847 58.6186 74.127 57.4676 74.127ZM57.3216 67.9697C56.8476 67.9697 56.4498 68.1432 56.1282 68.4902C55.8066 68.833 55.6077 69.3154 55.5315 69.9375H58.972V69.8486C58.9381 69.252 58.7773 68.7907 58.4895 68.4648C58.2018 68.1348 57.8124 67.9697 57.3216 67.9697ZM63.1043 65.4688V67.1318H64.3865V68.0396H63.1043V72.2988C63.1043 72.5739 63.1614 72.7812 63.2757 72.9209C63.3899 73.0563 63.5846 73.124 63.8596 73.124C63.9951 73.124 64.1813 73.0986 64.4182 73.0479V74C64.1093 74.0846 63.8089 74.127 63.5169 74.127C62.9921 74.127 62.5965 73.9683 62.3299 73.6509C62.0633 73.3335 61.93 72.8828 61.93 72.2988V68.0396H60.6795V67.1318H61.93V65.4688H63.1043ZM74.7903 70.6421C74.7903 71.6873 74.5512 72.5295 74.073 73.1685C73.5948 73.8075 72.9474 74.127 72.1306 74.127C71.297 74.127 70.6411 73.8625 70.1629 73.3335V76.6406H68.9886V67.1318H70.0613L70.1184 67.8936C70.5966 67.3011 71.261 67.0049 72.1116 67.0049C72.9368 67.0049 73.5885 67.3159 74.0667 67.938C74.5491 68.5601 74.7903 69.4255 74.7903 70.5342V70.6421ZM73.616 70.5088C73.616 69.7344 73.451 69.1229 73.1209 68.6743C72.7908 68.2257 72.338 68.0015 71.7625 68.0015C71.0515 68.0015 70.5183 68.3167 70.1629 68.9473V72.229C70.5141 72.8553 71.0515 73.1685 71.7752 73.1685C72.338 73.1685 72.7845 72.9463 73.1145 72.502C73.4488 72.0534 73.616 71.389 73.616 70.5088ZM79.6082 68.1855C79.4305 68.1559 79.2379 68.1411 79.0305 68.1411C78.2604 68.1411 77.7377 68.4691 77.4627 69.125V74H76.2884V67.1318H77.4309L77.45 67.9253C77.8351 67.3117 78.381 67.0049 79.0877 67.0049C79.3162 67.0049 79.4897 67.0345 79.6082 67.0938V68.1855ZM81.9695 74H80.7952V67.1318H81.9695V74ZM80.7 65.3101C80.7 65.1196 80.7571 64.9588 80.8714 64.8276C80.9899 64.6965 81.1634 64.6309 81.3919 64.6309C81.6204 64.6309 81.7939 64.6965 81.9124 64.8276C82.0309 64.9588 82.0901 65.1196 82.0901 65.3101C82.0901 65.5005 82.0309 65.6592 81.9124 65.7861C81.7939 65.9131 81.6204 65.9766 81.3919 65.9766C81.1634 65.9766 80.9899 65.9131 80.8714 65.7861C80.7571 65.6592 80.7 65.5005 80.7 65.3101ZM86.6096 73.1685C87.0286 73.1685 87.3946 73.0415 87.7078 72.7876C88.0209 72.5337 88.1944 72.2163 88.2283 71.8354H89.3391C89.318 72.229 89.1826 72.6035 88.9329 72.959C88.6832 73.3145 88.3489 73.598 87.93 73.8096C87.5152 74.0212 87.0751 74.127 86.6096 74.127C85.6744 74.127 84.9296 73.8159 84.3753 73.1938C83.8251 72.5675 83.5501 71.7127 83.5501 70.6294V70.4326C83.5501 69.764 83.6728 69.1694 83.9182 68.6489C84.1637 68.1284 84.5149 67.7243 84.972 67.4365C85.4332 67.1488 85.977 67.0049 86.6033 67.0049C87.3735 67.0049 88.0125 67.2355 88.5203 67.6968C89.0323 68.158 89.3053 68.7568 89.3391 69.4932H88.2283C88.1944 69.0488 88.0252 68.6849 87.7205 68.4014C87.42 68.1136 87.0476 67.9697 86.6033 67.9697C86.0066 67.9697 85.5432 68.1855 85.2132 68.6172C84.8873 69.0446 84.7244 69.6646 84.7244 70.4771V70.6992C84.7244 71.4906 84.8873 72.0999 85.2132 72.5273C85.539 72.9548 86.0045 73.1685 86.6096 73.1685ZM93.5096 74.127C92.5786 74.127 91.8211 73.8223 91.2371 73.2129C90.6531 72.5993 90.3611 71.7804 90.3611 70.7563V70.5405C90.3611 69.8592 90.4902 69.252 90.7483 68.7188C91.0107 68.1813 91.3746 67.7624 91.8401 67.4619C92.3098 67.1572 92.8177 67.0049 93.3636 67.0049C94.2565 67.0049 94.9505 67.299 95.4456 67.8872C95.9407 68.4754 96.1883 69.3175 96.1883 70.4136V70.9023H91.5354C91.5524 71.5794 91.7491 72.1274 92.1258 72.5464C92.5066 72.9611 92.989 73.1685 93.573 73.1685C93.9877 73.1685 94.339 73.0838 94.6267 72.9146C94.9145 72.7453 95.1663 72.521 95.3821 72.2417L96.0994 72.8003C95.5239 73.6847 94.6606 74.127 93.5096 74.127ZM93.3636 67.9697C92.8896 67.9697 92.4918 68.1432 92.1702 68.4902C91.8486 68.833 91.6497 69.3154 91.5735 69.9375H95.0139V69.8486C94.9801 69.252 94.8193 68.7907 94.5315 68.4648C94.2438 68.1348 93.8544 67.9697 93.3636 67.9697Z" fill="white"/>
<defs>
<linearGradient id="paint0_linear" x1="226" y1="60.6649" x2="226" y2="143.888" gradientUnits="userSpaceOnUse">
<stop stop-color="#052D3F" stop-opacity="0"/>
<stop offset="1" stop-color="#01B529"/>
</linearGradient>
<linearGradient id="paint1_linear" x1="67" y1="136.863" x2="67" y2="2" gradientUnits="userSpaceOnUse">
<stop stop-opacity="0"/>
<stop offset="0.107698" stop-color="#031F2B" stop-opacity="0.18775"/>
<stop offset="1" stop-color="#11A4E4"/>
</linearGradient>
</defs>
</svg>
