<svg width="425" height="289" viewBox="0 0 425 289" fill="none" xmlns="http://www.w3.org/2000/svg">
<path d="M8 0L134.88 123.726L197.28 61.343L424 288V1.0397L8 0Z" fill="url(#paint0_linear)"/>
<path d="M8 1.09506L135.92 124.797L198.32 62.9459L424 288" stroke="white"/>
<path d="M91.5491 135.5H268.902" stroke="white" stroke-linecap="square"/>
<path d="M89 118H6C2.68629 118 0 120.686 0 124V148C0 151.314 2.68629 154 6 154H89C92.3137 154 95 151.314 95 148V124C95 120.686 92.3137 118 89 118Z" fill="#9F082C"/>
<path d="M14.0156 137.758C14.0156 137.367 13.8672 137.065 13.5703 136.852C13.2786 136.633 12.7656 136.445 12.0312 136.289C11.3021 136.133 10.7214 135.945 10.2891 135.727C9.86198 135.508 9.54427 135.247 9.33594 134.945C9.13281 134.643 9.03125 134.284 9.03125 133.867C9.03125 133.174 9.32292 132.589 9.90625 132.109C10.4948 131.63 11.2448 131.391 12.1562 131.391C13.1146 131.391 13.8906 131.638 14.4844 132.133C15.0833 132.628 15.3828 133.26 15.3828 134.031H13.9297C13.9297 133.635 13.7604 133.294 13.4219 133.008C13.0885 132.721 12.6667 132.578 12.1562 132.578C11.6302 132.578 11.2188 132.693 10.9219 132.922C10.625 133.151 10.4766 133.451 10.4766 133.82C10.4766 134.169 10.6146 134.432 10.8906 134.609C11.1667 134.786 11.6641 134.956 12.3828 135.117C13.1068 135.279 13.6927 135.471 14.1406 135.695C14.5885 135.919 14.9193 136.19 15.1328 136.508C15.3516 136.82 15.4609 137.203 15.4609 137.656C15.4609 138.411 15.1589 139.018 14.5547 139.477C13.9505 139.93 13.1667 140.156 12.2031 140.156C11.526 140.156 10.9271 140.036 10.4062 139.797C9.88542 139.557 9.47656 139.224 9.17969 138.797C8.88802 138.365 8.74219 137.898 8.74219 137.398H10.1875C10.2135 137.883 10.4062 138.268 10.7656 138.555C11.1302 138.836 11.6094 138.977 12.2031 138.977C12.75 138.977 13.1875 138.867 13.5156 138.648C13.849 138.424 14.0156 138.128 14.0156 137.758ZM20.8516 140.156C19.7057 140.156 18.7734 139.781 18.0547 139.031C17.3359 138.276 16.9766 137.268 16.9766 136.008V135.742C16.9766 134.904 17.1354 134.156 17.4531 133.5C17.776 132.839 18.224 132.323 18.7969 131.953C19.375 131.578 20 131.391 20.6719 131.391C21.7708 131.391 22.625 131.753 23.2344 132.477C23.8438 133.201 24.1484 134.237 24.1484 135.586V136.188H18.4219C18.4427 137.021 18.6849 137.695 19.1484 138.211C19.6172 138.721 20.2109 138.977 20.9297 138.977C21.4401 138.977 21.8724 138.872 22.2266 138.664C22.5807 138.456 22.8906 138.18 23.1562 137.836L24.0391 138.523C23.3307 139.612 22.2682 140.156 20.8516 140.156ZM20.6719 132.578C20.0885 132.578 19.599 132.792 19.2031 133.219C18.8073 133.641 18.5625 134.234 18.4688 135H22.7031V134.891C22.6615 134.156 22.4635 133.589 22.1094 133.188C21.7552 132.781 21.276 132.578 20.6719 132.578ZM27.3984 140H25.9531V128H27.3984V140ZM31.2891 140H29.8438V128H31.2891V140ZM43.1719 137.07C43.1719 136.591 43.0026 136.188 42.6641 135.859C42.3307 135.531 41.7656 135.234 40.9688 134.969C39.8594 134.63 39.0495 134.19 38.5391 133.648C38.0339 133.102 37.7812 132.409 37.7812 131.57C37.7812 130.716 38.0286 130.016 38.5234 129.469C39.0234 128.922 39.7083 128.596 40.5781 128.492V126.781H41.7422V128.5C42.6172 128.62 43.2969 128.987 43.7812 129.602C44.2708 130.216 44.5156 131.057 44.5156 132.125H43.0781C43.0781 131.391 42.9036 130.807 42.5547 130.375C42.2057 129.943 41.7344 129.727 41.1406 129.727C40.5208 129.727 40.0469 129.888 39.7188 130.211C39.3906 130.529 39.2266 130.974 39.2266 131.547C39.2266 132.078 39.3984 132.503 39.7422 132.82C40.0911 133.133 40.6615 133.419 41.4531 133.68C42.25 133.935 42.8698 134.219 43.3125 134.531C43.7604 134.839 44.0885 135.198 44.2969 135.609C44.5104 136.021 44.6172 136.503 44.6172 137.055C44.6172 137.935 44.3516 138.643 43.8203 139.18C43.2943 139.716 42.5547 140.034 41.6016 140.133V141.625H40.4453V140.133C39.4766 140.044 38.7161 139.701 38.1641 139.102C37.6172 138.497 37.3438 137.68 37.3438 136.648H38.7891C38.7891 137.372 38.9792 137.93 39.3594 138.32C39.7396 138.711 40.2786 138.906 40.9766 138.906C41.6589 138.906 42.1953 138.742 42.5859 138.414C42.9766 138.086 43.1719 137.638 43.1719 137.07ZM53.7578 129.438L49.0469 140H47.5312L52.2266 129.812H46.0703V128.625H53.7578V129.438ZM55.5 142.266L54.6797 141.703C55.1693 141.021 55.4245 140.318 55.4453 139.594V138.289H56.8594V139.422C56.8594 139.948 56.7292 140.474 56.4688 141C56.2135 141.526 55.8906 141.948 55.5 142.266ZM64.6406 136.18H66.2188V137.359H64.6406V140H63.1875V137.359H58.0078V136.508L63.1016 128.625H64.6406V136.18ZM59.6484 136.18H63.1875V130.602L63.0156 130.914L59.6484 136.18ZM74.6562 135.148C74.6562 136.841 74.3672 138.099 73.7891 138.922C73.2109 139.745 72.3073 140.156 71.0781 140.156C69.8646 140.156 68.9661 139.755 68.3828 138.953C67.7995 138.146 67.4974 136.943 67.4766 135.344V133.414C67.4766 131.742 67.7656 130.5 68.3438 129.688C68.9219 128.875 69.8281 128.469 71.0625 128.469C72.2865 128.469 73.1875 128.862 73.7656 129.648C74.3438 130.43 74.6406 131.638 74.6562 133.273V135.148ZM73.2109 133.172C73.2109 131.948 73.0391 131.057 72.6953 130.5C72.3516 129.938 71.8073 129.656 71.0625 129.656C70.3229 129.656 69.7839 129.935 69.4453 130.492C69.1068 131.049 68.9323 131.906 68.9219 133.062V135.375C68.9219 136.604 69.099 137.513 69.4531 138.102C69.8125 138.685 70.3542 138.977 71.0781 138.977C71.7917 138.977 72.3203 138.701 72.6641 138.148C73.013 137.596 73.1953 136.727 73.2109 135.539V133.172ZM83.6406 135.148C83.6406 136.841 83.3516 138.099 82.7734 138.922C82.1953 139.745 81.2917 140.156 80.0625 140.156C78.849 140.156 77.9505 139.755 77.3672 138.953C76.7839 138.146 76.4818 136.943 76.4609 135.344V133.414C76.4609 131.742 76.75 130.5 77.3281 129.688C77.9062 128.875 78.8125 128.469 80.0469 128.469C81.2708 128.469 82.1719 128.862 82.75 129.648C83.3281 130.43 83.625 131.638 83.6406 133.273V135.148ZM82.1953 133.172C82.1953 131.948 82.0234 131.057 81.6797 130.5C81.3359 129.938 80.7917 129.656 80.0469 129.656C79.3073 129.656 78.7682 129.935 78.4297 130.492C78.0911 131.049 77.9167 131.906 77.9062 133.062V135.375C77.9062 136.604 78.0833 137.513 78.4375 138.102C78.7969 138.685 79.3385 138.977 80.0625 138.977C80.776 138.977 81.3047 138.701 81.6484 138.148C81.9974 137.596 82.1797 136.727 82.1953 135.539V133.172Z" fill="white"/>
<path d="M165.549 210.5H342.902" stroke="white" stroke-linecap="square"/>
<path d="M164 194H81C77.6863 194 75 196.686 75 200V224C75 227.314 77.6863 230 81 230H164C167.314 230 170 227.314 170 224V200C170 196.686 167.314 194 164 194Z" fill="#0174BE"/>
<path d="M91.25 211.867C91.25 213.159 90.9531 214.198 90.3594 214.984C89.7656 215.766 88.9688 216.156 87.9688 216.156C86.901 216.156 86.0755 215.779 85.4922 215.023L85.4219 216H84.0938V204H85.5391V208.477C86.1224 207.753 86.9271 207.391 87.9531 207.391C88.9792 207.391 89.7839 207.779 90.3672 208.555C90.9557 209.331 91.25 210.393 91.25 211.742V211.867ZM89.8047 211.703C89.8047 210.719 89.6146 209.958 89.2344 209.422C88.8542 208.885 88.3073 208.617 87.5938 208.617C86.6406 208.617 85.9557 209.06 85.5391 209.945V213.602C85.9818 214.487 86.6719 214.93 87.6094 214.93C88.3021 214.93 88.8411 214.661 89.2266 214.125C89.612 213.589 89.8047 212.781 89.8047 211.703ZM98.2969 215.164C97.7344 215.826 96.9089 216.156 95.8203 216.156C94.9193 216.156 94.2318 215.896 93.7578 215.375C93.2891 214.849 93.0521 214.073 93.0469 213.047V207.547H94.4922V213.008C94.4922 214.289 95.013 214.93 96.0547 214.93C97.1589 214.93 97.8932 214.518 98.2578 213.695V207.547H99.7031V216H98.3281L98.2969 215.164ZM104.672 213.883L106.641 207.547H108.188L104.789 217.305C104.263 218.711 103.427 219.414 102.281 219.414L102.008 219.391L101.469 219.289V218.117L101.859 218.148C102.349 218.148 102.729 218.049 103 217.852C103.276 217.654 103.503 217.292 103.68 216.766L104 215.906L100.984 207.547H102.562L104.672 213.883ZM119.047 213.07C119.047 212.591 118.878 212.188 118.539 211.859C118.206 211.531 117.641 211.234 116.844 210.969C115.734 210.63 114.924 210.19 114.414 209.648C113.909 209.102 113.656 208.409 113.656 207.57C113.656 206.716 113.904 206.016 114.398 205.469C114.898 204.922 115.583 204.596 116.453 204.492V202.781H117.617V204.5C118.492 204.62 119.172 204.987 119.656 205.602C120.146 206.216 120.391 207.057 120.391 208.125H118.953C118.953 207.391 118.779 206.807 118.43 206.375C118.081 205.943 117.609 205.727 117.016 205.727C116.396 205.727 115.922 205.888 115.594 206.211C115.266 206.529 115.102 206.974 115.102 207.547C115.102 208.078 115.273 208.503 115.617 208.82C115.966 209.133 116.536 209.419 117.328 209.68C118.125 209.935 118.745 210.219 119.188 210.531C119.635 210.839 119.964 211.198 120.172 211.609C120.385 212.021 120.492 212.503 120.492 213.055C120.492 213.935 120.227 214.643 119.695 215.18C119.169 215.716 118.43 216.034 117.477 216.133V217.625H116.32V216.133C115.352 216.044 114.591 215.701 114.039 215.102C113.492 214.497 113.219 213.68 113.219 212.648H114.664C114.664 213.372 114.854 213.93 115.234 214.32C115.615 214.711 116.154 214.906 116.852 214.906C117.534 214.906 118.07 214.742 118.461 214.414C118.852 214.086 119.047 213.638 119.047 213.07ZM129.633 205.438L124.922 216H123.406L128.102 205.812H121.945V204.625H129.633V205.438ZM131.375 218.266L130.555 217.703C131.044 217.021 131.299 216.318 131.32 215.594V214.289H132.734V215.422C132.734 215.948 132.604 216.474 132.344 217C132.089 217.526 131.766 217.948 131.375 218.266ZM136.516 209.609H137.602C138.284 209.599 138.82 209.419 139.211 209.07C139.602 208.721 139.797 208.25 139.797 207.656C139.797 206.323 139.133 205.656 137.805 205.656C137.18 205.656 136.68 205.836 136.305 206.195C135.935 206.549 135.75 207.021 135.75 207.609H134.305C134.305 206.708 134.633 205.961 135.289 205.367C135.951 204.768 136.789 204.469 137.805 204.469C138.878 204.469 139.719 204.753 140.328 205.32C140.938 205.888 141.242 206.677 141.242 207.688C141.242 208.182 141.081 208.661 140.758 209.125C140.44 209.589 140.005 209.935 139.453 210.164C140.078 210.362 140.56 210.69 140.898 211.148C141.242 211.607 141.414 212.167 141.414 212.828C141.414 213.849 141.081 214.659 140.414 215.258C139.747 215.857 138.88 216.156 137.812 216.156C136.745 216.156 135.875 215.867 135.203 215.289C134.536 214.711 134.203 213.948 134.203 213H135.656C135.656 213.599 135.852 214.078 136.242 214.438C136.633 214.797 137.156 214.977 137.812 214.977C138.51 214.977 139.044 214.794 139.414 214.43C139.784 214.065 139.969 213.542 139.969 212.859C139.969 212.198 139.766 211.69 139.359 211.336C138.953 210.982 138.367 210.799 137.602 210.789H136.516V209.609ZM144.062 210.297L144.641 204.625H150.469V205.961H145.867L145.523 209.062C146.081 208.734 146.714 208.57 147.422 208.57C148.458 208.57 149.281 208.914 149.891 209.602C150.5 210.284 150.805 211.208 150.805 212.375C150.805 213.547 150.487 214.471 149.852 215.148C149.221 215.82 148.339 216.156 147.203 216.156C146.198 216.156 145.378 215.878 144.742 215.32C144.107 214.763 143.745 213.992 143.656 213.008H145.023C145.112 213.659 145.344 214.151 145.719 214.484C146.094 214.812 146.589 214.977 147.203 214.977C147.875 214.977 148.401 214.747 148.781 214.289C149.167 213.831 149.359 213.198 149.359 212.391C149.359 211.63 149.151 211.021 148.734 210.562C148.323 210.099 147.773 209.867 147.086 209.867C146.456 209.867 145.961 210.005 145.602 210.281L145.219 210.594L144.062 210.297ZM158.484 212.18H160.062V213.359H158.484V216H157.031V213.359H151.852V212.508L156.945 204.625H158.484V212.18ZM153.492 212.18H157.031V206.602L156.859 206.914L153.492 212.18Z" fill="white"/>
<path d="M343 228C353.493 228 362 219.493 362 209C362 198.507 353.493 190 343 190C332.507 190 324 198.507 324 209C324 219.493 332.507 228 343 228Z" fill="white" fill-opacity="0.24"/>
<path d="M343 218C347.971 218 352 213.971 352 209C352 204.029 347.971 200 343 200C338.029 200 334 204.029 334 209C334 213.971 338.029 218 343 218Z" fill="#0174BE" stroke="white"/>
<path d="M269 154C279.493 154 288 145.493 288 135C288 124.507 279.493 116 269 116C258.507 116 250 124.507 250 135C250 145.493 258.507 154 269 154Z" fill="white" fill-opacity="0.24"/>
<path d="M268 145C272.971 145 277 140.971 277 136C277 131.029 272.971 127 268 127C263.029 127 259 131.029 259 136C259 140.971 263.029 145 268 145Z" fill="#D8013E" stroke="white"/>
<defs>
<linearGradient id="paint0_linear" x1="216" y1="-46.251" x2="216" y2="254.132" gradientUnits="userSpaceOnUse">
<stop stop-opacity="0"/>
<stop offset="0.274603" stop-color="#052D3F" stop-opacity="0.274412"/>
<stop offset="1" stop-color="#11A4E4"/>
</linearGradient>
</defs>
</svg>
