<svg width="537" height="278" viewBox="0 0 537 278" fill="none" xmlns="http://www.w3.org/2000/svg">
<path d="M180 109H290.451" stroke="white" stroke-linecap="square"/>
<path d="M173 89H90C86.6863 89 84 91.6863 84 95V119C84 122.314 86.6863 125 90 125H173C176.314 125 179 122.314 179 119V95C179 91.6863 176.314 89 173 89Z" fill="#0079C1"/>
<path d="M290.488 127.409C301.103 127.409 309.707 118.796 309.707 108.173C309.707 97.5488 301.103 88.9365 290.488 88.9365C279.873 88.9365 271.269 97.5488 271.269 108.173C271.269 118.796 279.873 127.409 290.488 127.409Z" fill="white" fill-opacity="0.24"/>
<path d="M0.549133 276.901L123.477 157.944L183.441 217.422L400.313 1" stroke="white"/>
<path d="M1.6474 278L123.575 159L183.54 219L401.412 1V277L1.6474 278Z" fill="url(#paint0_linear)"/>
<path d="M289.939 117.516C294.791 117.516 298.725 113.579 298.725 108.722C298.725 103.866 294.791 99.9286 289.939 99.9286C285.086 99.9286 281.153 103.866 281.153 108.722C281.153 113.579 285.086 117.516 289.939 117.516Z" fill="#0174BE" stroke="white"/>
<path d="M352.539 48.2659H502.694" stroke="white" stroke-linecap="square"/>
<path d="M351.99 66.9524C362.605 66.9524 371.21 58.3401 371.21 47.7163C371.21 37.0925 362.605 28.4802 351.99 28.4802C341.376 28.4802 332.771 37.0925 332.771 47.7163C332.771 58.3401 341.376 66.9524 351.99 66.9524Z" fill="white" fill-opacity="0.24"/>
<path d="M352.539 57.0595C357.392 57.0595 361.325 53.1225 361.325 48.2659C361.325 43.4093 357.392 39.4722 352.539 39.4722C347.687 39.4722 343.753 43.4093 343.753 48.2659C343.753 53.1225 347.687 57.0595 352.539 57.0595Z" fill="#D8013E" stroke="white"/>
<path d="M100.25 107.867C100.25 109.159 99.9531 110.198 99.3594 110.984C98.7656 111.766 97.9688 112.156 96.9688 112.156C95.901 112.156 95.0755 111.779 94.4922 111.023L94.4219 112H93.0938V100H94.5391V104.477C95.1224 103.753 95.9271 103.391 96.9531 103.391C97.9792 103.391 98.7839 103.779 99.3672 104.555C99.9557 105.331 100.25 106.393 100.25 107.742V107.867ZM98.8047 107.703C98.8047 106.719 98.6146 105.958 98.2344 105.422C97.8542 104.885 97.3073 104.617 96.5938 104.617C95.6406 104.617 94.9557 105.06 94.5391 105.945V109.602C94.9818 110.487 95.6719 110.93 96.6094 110.93C97.3021 110.93 97.8411 110.661 98.2266 110.125C98.612 109.589 98.8047 108.781 98.8047 107.703ZM107.297 111.164C106.734 111.826 105.909 112.156 104.82 112.156C103.919 112.156 103.232 111.896 102.758 111.375C102.289 110.849 102.052 110.073 102.047 109.047V103.547H103.492V109.008C103.492 110.289 104.013 110.93 105.055 110.93C106.159 110.93 106.893 110.518 107.258 109.695V103.547H108.703V112H107.328L107.297 111.164ZM113.672 109.883L115.641 103.547H117.188L113.789 113.305C113.263 114.711 112.427 115.414 111.281 115.414L111.008 115.391L110.469 115.289V114.117L110.859 114.148C111.349 114.148 111.729 114.049 112 113.852C112.276 113.654 112.503 113.292 112.68 112.766L113 111.906L109.984 103.547H111.562L113.672 109.883ZM128.047 109.07C128.047 108.591 127.878 108.188 127.539 107.859C127.206 107.531 126.641 107.234 125.844 106.969C124.734 106.63 123.924 106.19 123.414 105.648C122.909 105.102 122.656 104.409 122.656 103.57C122.656 102.716 122.904 102.016 123.398 101.469C123.898 100.922 124.583 100.596 125.453 100.492V98.7812H126.617V100.5C127.492 100.62 128.172 100.987 128.656 101.602C129.146 102.216 129.391 103.057 129.391 104.125H127.953C127.953 103.391 127.779 102.807 127.43 102.375C127.081 101.943 126.609 101.727 126.016 101.727C125.396 101.727 124.922 101.888 124.594 102.211C124.266 102.529 124.102 102.974 124.102 103.547C124.102 104.078 124.273 104.503 124.617 104.82C124.966 105.133 125.536 105.419 126.328 105.68C127.125 105.935 127.745 106.219 128.188 106.531C128.635 106.839 128.964 107.198 129.172 107.609C129.385 108.021 129.492 108.503 129.492 109.055C129.492 109.935 129.227 110.643 128.695 111.18C128.169 111.716 127.43 112.034 126.477 112.133V113.625H125.32V112.133C124.352 112.044 123.591 111.701 123.039 111.102C122.492 110.497 122.219 109.68 122.219 108.648H123.664C123.664 109.372 123.854 109.93 124.234 110.32C124.615 110.711 125.154 110.906 125.852 110.906C126.534 110.906 127.07 110.742 127.461 110.414C127.852 110.086 128.047 109.638 128.047 109.07ZM133.391 105.609H134.477C135.159 105.599 135.695 105.419 136.086 105.07C136.477 104.721 136.672 104.25 136.672 103.656C136.672 102.323 136.008 101.656 134.68 101.656C134.055 101.656 133.555 101.836 133.18 102.195C132.81 102.549 132.625 103.021 132.625 103.609H131.18C131.18 102.708 131.508 101.961 132.164 101.367C132.826 100.768 133.664 100.469 134.68 100.469C135.753 100.469 136.594 100.753 137.203 101.32C137.812 101.888 138.117 102.677 138.117 103.688C138.117 104.182 137.956 104.661 137.633 105.125C137.315 105.589 136.88 105.935 136.328 106.164C136.953 106.362 137.435 106.69 137.773 107.148C138.117 107.607 138.289 108.167 138.289 108.828C138.289 109.849 137.956 110.659 137.289 111.258C136.622 111.857 135.755 112.156 134.688 112.156C133.62 112.156 132.75 111.867 132.078 111.289C131.411 110.711 131.078 109.948 131.078 109H132.531C132.531 109.599 132.727 110.078 133.117 110.438C133.508 110.797 134.031 110.977 134.688 110.977C135.385 110.977 135.919 110.794 136.289 110.43C136.659 110.065 136.844 109.542 136.844 108.859C136.844 108.198 136.641 107.69 136.234 107.336C135.828 106.982 135.242 106.799 134.477 106.789H133.391V105.609ZM145.023 112H143.57V102.367L140.656 103.438V102.125L144.797 100.57H145.023V112ZM155.359 108.18H156.938V109.359H155.359V112H153.906V109.359H148.727V108.508L153.82 100.625H155.359V108.18ZM150.367 108.18H153.906V102.602L153.734 102.914L150.367 108.18ZM158.422 111.242C158.422 110.992 158.495 110.784 158.641 110.617C158.792 110.451 159.016 110.367 159.312 110.367C159.609 110.367 159.833 110.451 159.984 110.617C160.141 110.784 160.219 110.992 160.219 111.242C160.219 111.482 160.141 111.682 159.984 111.844C159.833 112.005 159.609 112.086 159.312 112.086C159.016 112.086 158.792 112.005 158.641 111.844C158.495 111.682 158.422 111.482 158.422 111.242ZM169.805 101.438L165.094 112H163.578L168.273 101.812H162.117V100.625H169.805V101.438Z" fill="white"/>
<path d="M531 29H448C444.686 29 442 31.6863 442 35V59C442 62.3137 444.686 65 448 65H531C534.314 65 537 62.3137 537 59V35C537 31.6863 534.314 29 531 29Z" fill="#9F082C"/>
<path d="M455.016 48.7578C455.016 48.3672 454.867 48.0651 454.57 47.8516C454.279 47.6328 453.766 47.4453 453.031 47.2891C452.302 47.1328 451.721 46.9453 451.289 46.7266C450.862 46.5078 450.544 46.2474 450.336 45.9453C450.133 45.6432 450.031 45.2839 450.031 44.8672C450.031 44.1745 450.323 43.5885 450.906 43.1094C451.495 42.6302 452.245 42.3906 453.156 42.3906C454.115 42.3906 454.891 42.638 455.484 43.1328C456.083 43.6276 456.383 44.2604 456.383 45.0312H454.93C454.93 44.6354 454.76 44.2943 454.422 44.0078C454.089 43.7214 453.667 43.5781 453.156 43.5781C452.63 43.5781 452.219 43.6927 451.922 43.9219C451.625 44.151 451.477 44.4505 451.477 44.8203C451.477 45.1693 451.615 45.4323 451.891 45.6094C452.167 45.7865 452.664 45.9557 453.383 46.1172C454.107 46.2786 454.693 46.4714 455.141 46.6953C455.589 46.9193 455.919 47.1901 456.133 47.5078C456.352 47.8203 456.461 48.2031 456.461 48.6562C456.461 49.4115 456.159 50.0182 455.555 50.4766C454.951 50.9297 454.167 51.1562 453.203 51.1562C452.526 51.1562 451.927 51.0365 451.406 50.7969C450.885 50.5573 450.477 50.224 450.18 49.7969C449.888 49.3646 449.742 48.8984 449.742 48.3984H451.188C451.214 48.8828 451.406 49.2682 451.766 49.5547C452.13 49.8359 452.609 49.9766 453.203 49.9766C453.75 49.9766 454.188 49.8672 454.516 49.6484C454.849 49.4245 455.016 49.1276 455.016 48.7578ZM461.852 51.1562C460.706 51.1562 459.773 50.7812 459.055 50.0312C458.336 49.276 457.977 48.2682 457.977 47.0078V46.7422C457.977 45.9036 458.135 45.1562 458.453 44.5C458.776 43.8385 459.224 43.3229 459.797 42.9531C460.375 42.5781 461 42.3906 461.672 42.3906C462.771 42.3906 463.625 42.7526 464.234 43.4766C464.844 44.2005 465.148 45.237 465.148 46.5859V47.1875H459.422C459.443 48.0208 459.685 48.6953 460.148 49.2109C460.617 49.7214 461.211 49.9766 461.93 49.9766C462.44 49.9766 462.872 49.8724 463.227 49.6641C463.581 49.4557 463.891 49.1797 464.156 48.8359L465.039 49.5234C464.331 50.612 463.268 51.1562 461.852 51.1562ZM461.672 43.5781C461.089 43.5781 460.599 43.7917 460.203 44.2188C459.807 44.6406 459.562 45.2344 459.469 46H463.703V45.8906C463.661 45.1562 463.464 44.5885 463.109 44.1875C462.755 43.7812 462.276 43.5781 461.672 43.5781ZM468.398 51H466.953V39H468.398V51ZM472.289 51H470.844V39H472.289V51ZM484.172 48.0703C484.172 47.5911 484.003 47.1875 483.664 46.8594C483.331 46.5312 482.766 46.2344 481.969 45.9688C480.859 45.6302 480.049 45.1901 479.539 44.6484C479.034 44.1016 478.781 43.4089 478.781 42.5703C478.781 41.7161 479.029 41.0156 479.523 40.4688C480.023 39.9219 480.708 39.5964 481.578 39.4922V37.7812H482.742V39.5C483.617 39.6198 484.297 39.987 484.781 40.6016C485.271 41.2161 485.516 42.0573 485.516 43.125H484.078C484.078 42.3906 483.904 41.8073 483.555 41.375C483.206 40.9427 482.734 40.7266 482.141 40.7266C481.521 40.7266 481.047 40.888 480.719 41.2109C480.391 41.5286 480.227 41.974 480.227 42.5469C480.227 43.0781 480.398 43.5026 480.742 43.8203C481.091 44.1328 481.661 44.4193 482.453 44.6797C483.25 44.9349 483.87 45.2188 484.312 45.5312C484.76 45.8385 485.089 46.1979 485.297 46.6094C485.51 47.0208 485.617 47.5026 485.617 48.0547C485.617 48.9349 485.352 49.6432 484.82 50.1797C484.294 50.7161 483.555 51.0339 482.602 51.1328V52.625H481.445V51.1328C480.477 51.0443 479.716 50.7005 479.164 50.1016C478.617 49.4974 478.344 48.6797 478.344 47.6484H479.789C479.789 48.3724 479.979 48.9297 480.359 49.3203C480.74 49.7109 481.279 49.9062 481.977 49.9062C482.659 49.9062 483.195 49.7422 483.586 49.4141C483.977 49.0859 484.172 48.638 484.172 48.0703ZM489.516 44.6094H490.602C491.284 44.599 491.82 44.4193 492.211 44.0703C492.602 43.7214 492.797 43.25 492.797 42.6562C492.797 41.3229 492.133 40.6562 490.805 40.6562C490.18 40.6562 489.68 40.8359 489.305 41.1953C488.935 41.5495 488.75 42.0208 488.75 42.6094H487.305C487.305 41.7083 487.633 40.9609 488.289 40.3672C488.951 39.7682 489.789 39.4688 490.805 39.4688C491.878 39.4688 492.719 39.7526 493.328 40.3203C493.938 40.888 494.242 41.6771 494.242 42.6875C494.242 43.1823 494.081 43.6615 493.758 44.125C493.44 44.5885 493.005 44.9349 492.453 45.1641C493.078 45.362 493.56 45.6901 493.898 46.1484C494.242 46.6068 494.414 47.1667 494.414 47.8281C494.414 48.849 494.081 49.6589 493.414 50.2578C492.747 50.8568 491.88 51.1562 490.812 51.1562C489.745 51.1562 488.875 50.8672 488.203 50.2891C487.536 49.7109 487.203 48.9479 487.203 48H488.656C488.656 48.599 488.852 49.0781 489.242 49.4375C489.633 49.7969 490.156 49.9766 490.812 49.9766C491.51 49.9766 492.044 49.7943 492.414 49.4297C492.784 49.0651 492.969 48.5417 492.969 47.8594C492.969 47.1979 492.766 46.6901 492.359 46.3359C491.953 45.9818 491.367 45.7995 490.602 45.7891H489.516V44.6094ZM497.062 45.2969L497.641 39.625H503.469V40.9609H498.867L498.523 44.0625C499.081 43.7344 499.714 43.5703 500.422 43.5703C501.458 43.5703 502.281 43.9141 502.891 44.6016C503.5 45.2839 503.805 46.2083 503.805 47.375C503.805 48.5469 503.487 49.4714 502.852 50.1484C502.221 50.8203 501.339 51.1562 500.203 51.1562C499.198 51.1562 498.378 50.8776 497.742 50.3203C497.107 49.763 496.745 48.9922 496.656 48.0078H498.023C498.112 48.6589 498.344 49.151 498.719 49.4844C499.094 49.8125 499.589 49.9766 500.203 49.9766C500.875 49.9766 501.401 49.7474 501.781 49.2891C502.167 48.8307 502.359 48.1979 502.359 47.3906C502.359 46.6302 502.151 46.0208 501.734 45.5625C501.323 45.099 500.773 44.8672 500.086 44.8672C499.456 44.8672 498.961 45.0052 498.602 45.2812L498.219 45.5938L497.062 45.2969ZM511.484 47.1797H513.062V48.3594H511.484V51H510.031V48.3594H504.852V47.5078L509.945 39.625H511.484V47.1797ZM506.492 47.1797H510.031V41.6016L509.859 41.9141L506.492 47.1797ZM514.547 50.2422C514.547 49.9922 514.62 49.7839 514.766 49.6172C514.917 49.4505 515.141 49.3672 515.438 49.3672C515.734 49.3672 515.958 49.4505 516.109 49.6172C516.266 49.7839 516.344 49.9922 516.344 50.2422C516.344 50.4818 516.266 50.6823 516.109 50.8438C515.958 51.0052 515.734 51.0859 515.438 51.0859C515.141 51.0859 514.917 51.0052 514.766 50.8438C514.62 50.6823 514.547 50.4818 514.547 50.2422ZM526.039 51H518.586V49.9609L522.523 45.5859C523.107 44.9245 523.508 44.388 523.727 43.9766C523.951 43.5599 524.062 43.1302 524.062 42.6875C524.062 42.0938 523.883 41.6068 523.523 41.2266C523.164 40.8464 522.685 40.6562 522.086 40.6562C521.367 40.6562 520.807 40.862 520.406 41.2734C520.01 41.6797 519.812 42.2474 519.812 42.9766H518.367C518.367 41.9297 518.703 41.0833 519.375 40.4375C520.052 39.7917 520.956 39.4688 522.086 39.4688C523.143 39.4688 523.979 39.7474 524.594 40.3047C525.208 40.8568 525.516 41.5938 525.516 42.5156C525.516 43.6354 524.802 44.9688 523.375 46.5156L520.328 49.8203H526.039V51Z" fill="white"/>
<defs>
<linearGradient id="paint0_linear" x1="201.529" y1="322.484" x2="201.529" y2="33.5742" gradientUnits="userSpaceOnUse">
<stop stop-opacity="0"/>
<stop offset="0.274603" stop-color="#052D3F" stop-opacity="0.274412"/>
<stop offset="1" stop-color="#11A4E4"/>
</linearGradient>
</defs>
</svg>
