<svg width="670" height="507" fill="none" xmlns="http://www.w3.org/2000/svg"><path fill="#fff" d="M0 0h669.88v507H0z"/><path d="M233.188 58h-1.61V36.656h-7.422v-1.5h16.453v1.5h-7.421V58zm17.124-17.313c.719 0 1.49.073 2.313.22l-.297 1.484a9.049 9.049 0 0 0-2.203-.266c-1.448 0-2.635.615-3.563 1.844-.927 1.229-1.39 2.781-1.39 4.656V58h-1.547V41.016h1.313l.156 3.062h.109c.698-1.25 1.443-2.125 2.235-2.625.791-.51 1.75-.766 2.874-.766zM266.406 58l-.39-2.688h-.125c-.855 1.094-1.735 1.87-2.641 2.329-.896.448-1.958.672-3.188.672-1.666 0-2.963-.428-3.89-1.282-.927-.854-1.391-2.036-1.391-3.547 0-1.656.688-2.942 2.063-3.859 1.385-.917 3.385-1.401 6-1.453l3.234-.094v-1.125c0-1.614-.328-2.833-.984-3.656-.656-.823-1.714-1.234-3.172-1.234-1.573 0-3.203.437-4.891 1.312l-.578-1.344c1.865-.875 3.708-1.312 5.531-1.312 1.865 0 3.256.484 4.172 1.453.927.969 1.391 2.479 1.391 4.531V58h-1.141zm-6.25-1.094c1.813 0 3.24-.515 4.282-1.547 1.052-1.041 1.578-2.484 1.578-4.328V49.36l-2.969.125c-2.386.115-4.089.49-5.109 1.125-1.011.625-1.516 1.605-1.516 2.938 0 1.062.323 1.89.969 2.484.656.584 1.578.875 2.765.875zm19.125-16.218c1.229 0 2.292.223 3.188.671.896.448 1.698 1.214 2.406 2.297h.094a80.497 80.497 0 0 1-.094-3.86v-6.108h1.531V58h-1.015L285 55.406h-.125c-1.292 1.938-3.146 2.907-5.563 2.907-2.343 0-4.135-.73-5.374-2.188-1.24-1.458-1.86-3.583-1.86-6.375 0-2.938.615-5.182 1.844-6.734 1.229-1.552 3.016-2.328 5.359-2.328zm0 1.406c-1.854 0-3.25.65-4.187 1.953-.927 1.302-1.391 3.193-1.391 5.672 0 4.812 1.87 7.218 5.609 7.218 1.917 0 3.323-.557 4.219-1.671.896-1.115 1.344-2.953 1.344-5.516v-.266c0-2.625-.443-4.51-1.328-5.656-.875-1.156-2.297-1.734-4.266-1.734zm19.703 16.218c-2.468 0-4.395-.76-5.781-2.28-1.375-1.522-2.062-3.652-2.062-6.391 0-2.709.666-4.875 2-6.5 1.333-1.636 3.13-2.453 5.39-2.453 2 0 3.578.697 4.735 2.093 1.156 1.396 1.734 3.292 1.734 5.688v1.25h-12.234c.02 2.333.562 4.114 1.625 5.343 1.073 1.23 2.604 1.844 4.593 1.844.969 0 1.818-.067 2.547-.203.74-.135 1.672-.427 2.797-.875v1.406c-.958.417-1.844.698-2.656.844-.813.156-1.708.234-2.688.234zm-.453-16.25c-1.635 0-2.948.542-3.937 1.626-.99 1.072-1.568 2.624-1.735 4.656h10.5c0-1.969-.427-3.505-1.281-4.61-.854-1.114-2.036-1.672-3.547-1.672zM330.875 58h-12.484V35.156h12.484v1.469h-10.891v8.64h10.282v1.47h-10.282v9.796h10.891V58zm8.953-8.734-5.922-8.25h1.782l5.062 7.156 5.016-7.156h1.703l-5.828 8.25 6.25 8.734h-1.797l-5.344-7.578L335.375 58h-1.703l6.156-8.734zM361.906 58l-.39-2.688h-.125c-.855 1.094-1.735 1.87-2.641 2.329-.896.448-1.958.672-3.188.672-1.666 0-2.963-.428-3.89-1.282-.927-.854-1.391-2.036-1.391-3.547 0-1.656.688-2.942 2.063-3.859 1.385-.917 3.385-1.401 6-1.453l3.234-.094v-1.125c0-1.614-.328-2.833-.984-3.656-.656-.823-1.714-1.234-3.172-1.234-1.573 0-3.203.437-4.891 1.312l-.578-1.344c1.865-.875 3.708-1.312 5.531-1.312 1.865 0 3.256.484 4.172 1.453.927.969 1.391 2.479 1.391 4.531V58h-1.141zm-6.25-1.094c1.813 0 3.24-.515 4.282-1.547 1.052-1.041 1.578-2.484 1.578-4.328V49.36l-2.969.125c-2.386.115-4.089.49-5.109 1.125-1.011.625-1.516 1.605-1.516 2.938 0 1.062.323 1.89.969 2.484.656.584 1.578.875 2.765.875zM389.781 58V46.86c0-1.657-.323-2.865-.969-3.626-.645-.76-1.635-1.14-2.968-1.14-1.74 0-3.026.479-3.86 1.437-.833.959-1.25 2.464-1.25 4.516V58h-1.578V46.39c0-2.864-1.312-4.296-3.937-4.296-1.781 0-3.078.52-3.891 1.562-.812 1.032-1.219 2.688-1.219 4.969V58h-1.547V41.016h1.282l.328 2.328h.094a4.813 4.813 0 0 1 2-1.953c.864-.47 1.817-.703 2.859-.703 2.677 0 4.396 1.005 5.156 3.015h.063c.552-.969 1.291-1.713 2.218-2.234.938-.521 2-.782 3.188-.782 1.854 0 3.245.495 4.172 1.485.927.99 1.39 2.562 1.39 4.719V58h-1.531zm14.297.313c-2.614 0-4.521-.98-5.719-2.938h-.109l.047 1.313c.042.77.062 1.614.062 2.53v6.47h-1.547V41.016h1.313l.297 2.422h.094c1.166-1.834 3.031-2.75 5.593-2.75 2.292 0 4.037.755 5.235 2.265 1.208 1.5 1.812 3.688 1.812 6.563 0 2.791-.635 4.958-1.906 6.5-1.26 1.53-2.984 2.297-5.172 2.297zm-.031-1.376c1.739 0 3.083-.645 4.031-1.937.958-1.292 1.438-3.099 1.438-5.422 0-4.99-1.802-7.484-5.407-7.484-1.979 0-3.432.547-4.359 1.64-.927 1.084-1.391 2.855-1.391 5.313v.5c0 2.656.443 4.552 1.329 5.687.895 1.136 2.348 1.703 4.359 1.703zM417.422 58h-1.547V33.687h1.547V58zm12.562.313c-2.468 0-4.395-.76-5.781-2.282-1.375-1.52-2.062-3.65-2.062-6.39 0-2.709.666-4.875 2-6.5 1.333-1.636 3.13-2.453 5.39-2.453 2 0 3.578.697 4.735 2.093 1.156 1.396 1.734 3.292 1.734 5.688v1.25h-12.234c.02 2.333.562 4.114 1.625 5.343 1.073 1.23 2.604 1.844 4.593 1.844.969 0 1.818-.067 2.547-.203.74-.135 1.672-.427 2.797-.875v1.406c-.958.417-1.844.698-2.656.844-.813.156-1.708.234-2.688.234zm-.453-16.25c-1.635 0-2.948.541-3.937 1.624-.99 1.073-1.568 2.626-1.735 4.657h10.5c0-1.969-.427-3.505-1.281-4.61-.854-1.114-2.036-1.672-3.547-1.672z" fill="#000" fill-opacity=".65"/><rect x="442" y="102" width="53" height="34" rx="4" fill="#48A6EB" fill-opacity=".05"/><path d="M454.101 125h-1.722v-6.914c0-.825.02-1.48.059-1.963a5.602 5.602 0 0 1-.417.388c-.162.142-.709.591-1.641 1.348l-.864-1.091 3.149-2.476h1.436V125zm16.875-5.457c0 1.768-.491 3.121-1.473 4.058-.981.933-2.395 1.399-4.24 1.399h-2.996v-10.708h3.311c1.704 0 3.029.459 3.977 1.377.947.918 1.421 2.209 1.421 3.874zm-1.846.059c0-2.563-1.199-3.845-3.596-3.845h-1.516v7.771h1.245c2.578 0 3.867-1.309 3.867-3.926zm9.038 5.398-.344-1.128h-.059c-.39.493-.784.83-1.179 1.011-.396.176-.903.263-1.524.263-.795 0-1.418-.214-1.867-.644-.445-.43-.667-1.038-.667-1.824 0-.835.31-1.465.93-1.889.621-.425 1.565-.657 2.835-.696l1.399-.044v-.432c0-.518-.122-.904-.366-1.158-.24-.258-.613-.388-1.121-.388-.415 0-.813.061-1.194.183a8.95 8.95 0 0 0-1.098.433l-.557-1.231c.439-.229.92-.403 1.443-.52a6.51 6.51 0 0 1 1.479-.183c1.031 0 1.807.225 2.329.674.528.449.791 1.155.791 2.116V125h-1.23zm-2.564-1.172c.625 0 1.126-.173 1.502-.52.381-.351.571-.842.571-1.472v-.703l-1.04.044c-.81.029-1.401.166-1.772.41-.366.239-.55.608-.55 1.106 0 .361.108.642.323.842.215.195.537.293.966.293zm4.966-6.929h1.875l1.648 4.593c.249.654.415 1.269.498 1.845h.059c.044-.268.124-.593.242-.974.117-.385.737-2.207 1.86-5.464h1.86l-3.464 9.178c-.63 1.684-1.68 2.527-3.149 2.527-.381 0-.752-.042-1.114-.125v-1.362c.259.058.554.088.886.088.831 0 1.414-.481 1.751-1.443l.3-.762-3.252-8.101z" fill="#48A6EB"/><path d="M454.101 125v1h1v-1h-1zm-1.722 0h-1v1h1v-1zm.059-8.877.997.081.226-2.803-1.945 2.03.722.692zm-.417.388-.649-.761-.006.005-.006.005.661.751zm-1.641 1.348-.784.621.628.793.786-.638-.63-.776zm-.864-1.091-.618-.787-.789.621.623.786.784-.62zm3.149-2.476v-1h-.346l-.272.214.618.786zm1.436 0h1v-1h-1v1zm0 9.708h-1.722v2h1.722v-2zm-.722 1v-6.914h-2V125h2zm0-6.914c0-.814.02-1.438.056-1.882l-1.994-.161a26.691 26.691 0 0 0-.062 2.043h2zm-1.663-2.655a4.64 4.64 0 0 1-.344.319l1.297 1.522c.184-.156.349-.309.491-.457l-1.444-1.384zm-.356.329c-.142.125-.669.558-1.61 1.322l1.26 1.553a88.542 88.542 0 0 0 1.671-1.373l-1.321-1.502zm-.196 1.478-.864-1.091-1.568 1.241.864 1.092 1.568-1.242zm-1.03.316 3.149-2.476-1.236-1.572-3.149 2.475 1.236 1.573zm2.531-2.262h1.436v-2h-1.436v2zm.436-1V125h2v-10.708h-2zm16.402 9.309.689.725.002-.002-.691-.723zM462.267 125h-1v1h1v-1zm0-10.708v-1h-1v1h1zm7.288 1.377-.696.718.696-.718zm-5.537.088v-1h-1v1h1zm0 7.771h-1v1h1v-1zm5.958-3.985c0 1.582-.434 2.639-1.163 3.335l1.381 1.446c1.234-1.178 1.782-2.826 1.782-4.781h-2zm-1.161 3.333c-.737.7-1.868 1.124-3.552 1.124v2c2.007 0 3.703-.509 4.929-1.674l-1.377-1.45zM465.263 124h-2.996v2h2.996v-2zm-1.996 1v-10.708h-2V125h2zm-1-9.708h3.311v-2h-3.311v2zm3.311 0c1.523 0 2.57.406 3.281 1.095l1.392-1.436c-1.184-1.147-2.788-1.659-4.673-1.659v2zm3.281 1.095c.705.683 1.117 1.687 1.117 3.156h2c0-1.86-.536-3.439-1.725-4.592l-1.392 1.436zm1.271 3.215c0-1.42-.331-2.671-1.169-3.567-.85-.909-2.057-1.278-3.427-1.278v2c1.026 0 1.618.271 1.966.644.361.386.63 1.057.63 2.201h2zm-4.596-4.845h-1.516v2h1.516v-2zm-2.516 1v7.771h2v-7.771h-2zm1 8.771h1.245v-2h-1.245v2zm1.245 0c1.447 0 2.715-.369 3.612-1.28.895-.908 1.255-2.187 1.255-3.646h-2c0 1.158-.285 1.842-.679 2.243-.392.397-1.057.683-2.188.683v2zm12.905.472-.956.292.216.708h.74v-1zm-.344-1.128.956-.292-.216-.708h-.74v1zm-.059 0v-1h-.483l-.301.379.784.621zm-1.179 1.011.406.914.009-.005-.415-.909zm-3.391-.381-.695.719.004.004.691-.723zm3.098-4.409.031.999-.031-.999zm1.399-.044.031.999.969-.03v-.969h-1zm-.366-1.59-.735.679.007.008.007.007.721-.694zm-3.413.228-.912.412.419.926.92-.434-.427-.904zm-.557-1.231-.463-.886-.838.437.39.861.911-.412zm1.443-.52.219.976.008-.002-.227-.974zm3.808.491-.652.758.004.003.648-.761zm.791 7.573v1h1v-1h-1zm-2.292-1.692.678.735-.678-.735zm.571-2.175h1v-1.043l-1.042.044.042.999zm-1.04.044.036.999h.006l-.042-.999zm-1.772.41.547.837.002-.002-.549-.835zm-.227 1.948-.682.732.009.008.673-.74zm4.486 1.173-.344-1.128-1.913.584.345 1.128 1.912-.584zm-1.3-1.836h-.059v2h.059v-2zm-.843.379c-.333.421-.609.63-.811.722l.831 1.819c.59-.269 1.1-.733 1.548-1.299l-1.568-1.242zm-.801.718c-.225.1-.581.177-1.118.177v2c.705 0 1.364-.098 1.93-.349l-.812-1.828zm-1.118.177c-.613 0-.961-.161-1.176-.367l-1.382 1.446c.683.653 1.58.921 2.558.921v-2zm-1.172-.363c-.2-.193-.362-.512-.362-1.105h-2c0 .98.283 1.877.972 2.543l1.39-1.438zm-.362-1.105c0-.548.181-.849.496-1.064l-1.131-1.65c-.925.634-1.365 1.592-1.365 2.714h2zm.496-1.064c.387-.266 1.104-.485 2.3-.522l-.062-1.999c-1.343.042-2.516.286-3.369.871l1.131 1.65zm2.3-.522 1.399-.044-.063-1.999-1.398.044.062 1.999zm2.368-1.043v-.432h-2v.432h2zm0-.432c0-.656-.153-1.339-.645-1.851l-1.442 1.387c.001 0 .02.02.042.088.023.072.045.192.045.376h2zm-.632-1.836c-.499-.54-1.193-.71-1.855-.71v2c.354 0 .407.09.386.067l1.469-1.357zm-1.855-.71a4.88 4.88 0 0 0-1.499.231l.61 1.905c.279-.09.574-.136.889-.136v-2zm-1.499.231c-.421.135-.828.295-1.22.48l.854 1.809c.311-.147.636-.275.976-.384l-.61-1.905zm.118.972-.557-1.23-1.822.824.556 1.231 1.823-.825zm-1.005.068a4.848 4.848 0 0 1 1.199-.43l-.438-1.952a6.891 6.891 0 0 0-1.687.61l.926 1.772zm1.207-.432c.46-.107.876-.157 1.252-.157v-2c-.551 0-1.121.072-1.707.209l.455 1.948zm1.252-.157c.906 0 1.408.2 1.677.432l1.304-1.516c-.775-.667-1.826-.916-2.981-.916v2zm1.681.435c.227.194.439.568.439 1.355h2c0-1.135-.315-2.173-1.142-2.877l-1.297 1.522zm.439 1.355V125h2v-5.457h-2zm1 4.457h-1.23v2h1.23v-2zm-3.794.828c.818 0 1.58-.232 2.18-.785l-1.356-1.47c-.152.14-.391.255-.824.255v2zm2.18-.785c.629-.581.893-1.363.893-2.207h-2c0 .416-.117.615-.249.737l1.356 1.47zm.893-2.207v-.703h-2v.703h2zm-1.042-1.702-1.04.044.084 1.998 1.04-.044-.084-1.998zm-1.034.043c-.864.032-1.681.177-2.286.574l1.099 1.671c.138-.09.502-.219 1.259-.246l-.072-1.999zm-2.283.573c-.692.452-1.003 1.162-1.003 1.943h2c0-.127.023-.185.033-.205a.164.164 0 0 1 .064-.064l-1.094-1.674zm-1.003 1.943c0 .57.178 1.142.641 1.574l1.363-1.463a.038.038 0 0 1 .008.009c.004.005.004.007.003.004-.002-.006-.015-.042-.015-.124h-2zm.65 1.582c.47.428 1.078.553 1.639.553v-2c-.297 0-.334-.07-.294-.033l-1.345 1.48zm6.605-7.376v-1h-1.479l.551 1.373.928-.373zm1.875 0 .942-.337-.238-.663h-.704v1zm1.648 4.593-.941.337.003.009.004.009.934-.355zm.498 1.845-.989.143.123.857h.866v-1zm.059 0v1h.85l.137-.838-.987-.162zm.242-.974.955.294.001-.003-.956-.291zm1.86-5.464v-1h-.713l-.232.674.945.326zm1.86 0 .936.354.511-1.354h-1.447v1zm-3.464 9.178-.936-.354-.001.003.937.351zm-4.263 2.402h-1v.796l.776.179.224-.975zm0-1.362.221-.976-1.221-.276v1.252h1zm2.637-1.355-.93-.367-.007.018-.007.018.944.331zm.3-.762.931.367.145-.37-.148-.37-.928.373zm-3.252-7.101h1.875v-2h-1.875v2zm.934-.662 1.648 4.592 1.882-.675-1.647-4.592-1.883.675zm1.655 4.61a7.75 7.75 0 0 1 .443 1.633l1.979-.285a9.697 9.697 0 0 0-.553-2.059l-1.869.711zm1.432 2.49h.059v-2h-.059v2zm1.046-.838c.034-.208.101-.486.21-.842l-1.911-.588a8.6 8.6 0 0 0-.273 1.107l1.974.323zm.211-.845c.111-.363.721-2.158 1.849-5.429l-1.89-.652c-1.119 3.243-1.748 5.091-1.872 5.5l1.913.581zm.904-4.755h1.86v-2h-1.86v2zm.925-1.353-3.465 9.177 1.872.707 3.464-9.177-1.871-.707zm-3.466 9.18c-.272.729-.604 1.189-.949 1.466-.33.265-.734.412-1.263.412v2c.94 0 1.796-.275 2.515-.852.705-.566 1.213-1.369 1.571-2.325l-1.874-.701zm-2.212 1.878c-.308 0-.604-.034-.89-.1l-.448 1.95c.437.1.883.15 1.338.15v-2zm-.114.875v-1.362h-2v1.362h2zm-1.221-.387a5 5 0 0 0 1.107.113v-2a3.02 3.02 0 0 1-.665-.064l-.442 1.951zm1.107.113c.623 0 1.208-.187 1.697-.589.473-.391.789-.928.998-1.524l-1.888-.661c-.128.367-.272.551-.382.641-.095.078-.217.133-.425.133v2zm2.681-2.077.301-.761-1.861-.734-.3.762 1.86.733zm.298-1.501-3.252-8.1-1.856.745 3.252 8.101 1.856-.746z" fill="#48A6EB" fill-opacity=".05"/><rect x="506" y="102" width="73" height="34" rx="4" fill="#48A6EB" fill-opacity=".05"/><g opacity=".15"><path d="M518 125h-1.721v-6.914c0-.825.02-1.48.059-1.963a5.636 5.636 0 0 1-.418.388 91.25 91.25 0 0 1-1.64 1.348l-.864-1.091 3.149-2.476H518V125zm12.796 0-3.106-8.943h-.058c.083 1.328.124 2.573.124 3.735V125h-1.589v-10.708h2.468l2.974 8.518h.044l3.061-8.518h2.476V125h-1.685v-5.295c0-.533.013-1.226.037-2.08.029-.855.054-1.373.073-1.553h-.058L532.341 125h-1.545zm16.216-4.065c0 1.323-.34 2.356-1.018 3.098-.679.742-1.624 1.113-2.835 1.113-.757 0-1.426-.17-2.007-.512a3.392 3.392 0 0 1-1.34-1.472c-.312-.64-.469-1.382-.469-2.227 0-1.313.337-2.339 1.011-3.076.674-.737 1.624-1.106 2.849-1.106 1.172 0 2.1.378 2.783 1.135.684.752 1.026 1.768 1.026 3.047zm-5.896 0c0 1.87.691 2.805 2.072 2.805 1.368 0 2.051-.935 2.051-2.805 0-1.851-.688-2.776-2.065-2.776-.723 0-1.248.239-1.575.718-.322.478-.483 1.165-.483 2.058zM556.123 125h-1.728v-4.98c0-.625-.127-1.092-.381-1.399-.249-.308-.647-.462-1.194-.462-.728 0-1.26.215-1.597.645-.337.429-.505 1.15-.505 2.16V125h-1.721v-8.101h1.347l.242 1.062h.088a2.4 2.4 0 0 1 1.04-.893c.449-.21.947-.315 1.494-.315 1.943 0 2.915.989 2.915 2.966V125zm5.413-1.245c.42 0 .839-.066 1.259-.198v1.297c-.19.083-.437.151-.739.205a4.861 4.861 0 0 1-.931.087c-1.63 0-2.446-.859-2.446-2.578v-4.365h-1.106v-.762l1.187-.629.586-1.714h1.062v1.801h2.307v1.304h-2.307v4.336c0 .415.102.723.307.923.21.195.484.293.821.293zM571.548 125h-1.729v-4.98c0-.625-.127-1.092-.381-1.399-.249-.308-.646-.462-1.193-.462-.723 0-1.255.217-1.597.652-.337.43-.505 1.152-.505 2.168V125h-1.722v-11.396h1.722v2.893c0 .463-.03.959-.088 1.486h.11c.234-.39.559-.693.974-.908.42-.215.908-.322 1.465-.322 1.962 0 2.944.989 2.944 2.966V125z" fill="#000" fill-opacity=".65"/><path d="M518 125v1h1v-1h-1zm-1.721 0h-1v1h1v-1zm.059-8.877.997.081.226-2.803-1.945 2.03.722.692zm-.418.388-.649-.761-.005.005-.006.005.66.751zm-1.64 1.348-.784.621.628.793.786-.638-.63-.776zm-.864-1.091-.618-.787-.79.621.624.786.784-.62zm3.149-2.476v-1h-.346l-.272.214.618.786zm1.435 0h1v-1h-1v1zm0 9.708h-1.721v2H518v-2zm-.721 1v-6.914h-2V125h2zm0-6.914c0-.814.02-1.438.056-1.882l-1.994-.161a26.691 26.691 0 0 0-.062 2.043h2zm-1.663-2.655a4.489 4.489 0 0 1-.345.319l1.298 1.522c.184-.156.349-.309.491-.457l-1.444-1.384zm-.356.329c-.142.125-.669.558-1.61 1.322l1.26 1.553a88.542 88.542 0 0 0 1.671-1.373l-1.321-1.502zm-.196 1.478-.865-1.091-1.567 1.241.864 1.092 1.568-1.242zm-1.03.316 3.149-2.476-1.236-1.572-3.149 2.475 1.236 1.573zm2.531-2.262H518v-2h-1.435v2zm.435-1V125h2v-10.708h-2zM530.796 125l-.945.328.234.672h.711v-1zm-3.106-8.943.945-.328-.233-.672h-.712v1zm-.058 0v-1h-1.065l.067 1.063.998-.063zm.124 8.943v1h1v-1h-1zm-1.589 0h-1v1h1v-1zm0-10.708v-1h-1v1h1zm2.468 0 .944-.33-.234-.67h-.71v1zm2.974 8.518-.944.33.234.67h.71v-1zm.044 0v1h.703l.238-.662-.941-.338zm3.061-8.518v-1h-.703l-.238.662.941.338zm2.476 0h1v-1h-1v1zm0 10.708v1h1v-1h-1zm-1.685 0h-1v1h1v-1zm.037-7.375-.999-.035-.001.006 1 .029zm.073-1.553.994.107.12-1.107h-1.114v1zm-.058 0v-1h-.703l-.238.661.941.339zM532.341 125v1h.703l.238-.661-.941-.339zm-.6-.328-3.106-8.943-1.889.656 3.105 8.943 1.89-.656zm-4.051-9.615h-.058v2h.058v-2zm-1.056 1.063c.082 1.31.122 2.534.122 3.672h2c0-1.185-.042-2.451-.126-3.797l-1.996.125zm.122 3.672V125h2v-5.208h-2zm1 4.208h-1.589v2h1.589v-2zm-.589 1v-10.708h-2V125h2zm-1-9.708h2.468v-2h-2.468v2zm1.524-.67 2.974 8.518 1.888-.66-2.974-8.518-1.888.66zm3.918 9.188h.044v-2h-.044v2zm.985-.662 3.061-8.518-1.882-.676-3.061 8.518 1.882.676zm2.12-7.856h2.476v-2h-2.476v2zm1.476-1V125h2v-10.708h-2zm1 9.708h-1.685v2h1.685v-2zm-.685 1v-5.295h-2V125h2zm0-5.295c0-.519.012-1.202.037-2.052l-2-.057a79.15 79.15 0 0 0-.037 2.109h2zm.036-2.046c.03-.872.054-1.345.068-1.48l-1.988-.215c-.024.227-.05.789-.078 1.626l1.998.069zm-.926-2.587h-.058v2h.058v-2zm-.999.661-3.216 8.928 1.882.678 3.215-8.928-1.881-.678zM532.341 124h-1.545v2h1.545v-2zm13.645-6.112-.742.67.002.003.74-.673zm-4.387.989-.825-.564-.004.005.829.559zm4.413 2.058c0 1.154-.294 1.917-.756 2.423l1.476 1.35c.894-.978 1.28-2.281 1.28-3.773h-2zm-.756 2.423c-.451.494-1.104.788-2.097.788v2c1.43 0 2.666-.447 3.573-1.438l-1.476-1.35zm-2.097.788c-.601 0-1.09-.133-1.5-.374l-1.014 1.724c.753.443 1.601.65 2.514.65v-2zm-1.5-.374a2.388 2.388 0 0 1-.948-1.049l-1.797.878a4.381 4.381 0 0 0 1.731 1.895l1.014-1.724zm-.948-1.049c-.235-.48-.368-1.067-.368-1.788h-2c0 .969.18 1.866.571 2.666l1.797-.878zm-.368-1.788c0-1.144.291-1.9.749-2.401l-1.476-1.35c-.89.974-1.273 2.268-1.273 3.751h2zm.749-2.401c.443-.485 1.098-.781 2.111-.781v-2c-1.438 0-2.682.441-3.587 1.431l1.476 1.35zm2.111-.781c.936 0 1.576.291 2.041.805l1.484-1.34c-.902-.999-2.117-1.465-3.525-1.465v2zm2.043.808c.477.524.766 1.277.766 2.374h2c0-1.461-.395-2.739-1.286-3.719l-1.48 1.345zm-5.13 2.374c0 1.029.185 1.982.714 2.698.571.773 1.418 1.107 2.358 1.107v-2c-.441 0-.63-.133-.75-.295-.162-.219-.322-.669-.322-1.51h-2zm3.072 3.805c.938 0 1.78-.337 2.346-1.111.523-.715.705-1.667.705-2.694h-2c0 .843-.159 1.294-.32 1.514-.118.161-.301.291-.731.291v2zm3.051-3.805c0-1.02-.184-1.967-.714-2.679-.571-.767-1.416-1.097-2.351-1.097v2c.441 0 .629.133.747.291.159.214.318.655.318 1.485h2zm-3.065-3.776c-.961 0-1.84.334-2.4 1.154l1.651 1.128c.094-.138.264-.282.749-.282v-2zm-2.404 1.159c-.479.712-.654 1.626-.654 2.617h2c0-.796.147-1.254.313-1.499l-1.659-1.118zM556.123 125v1h1v-1h-1zm-1.728 0h-1v1h1v-1zm-.381-6.379-.778.629.006.007.772-.636zM550.718 125v1h1v-1h-1zm-1.721 0h-1v1h1v-1zm0-8.101v-1h-1v1h1zm1.347 0 .975-.221-.177-.779h-.798v1zm.242 1.062-.975.222.177.778h.798v-1zm.088 0v1h.55l.295-.465-.845-.535zm1.04-.893-.424-.906.424.906zm4.409 6.932h-1.728v2h1.728v-2zm-.728 1v-4.98h-2V125h2zm0-4.98c0-.733-.145-1.472-.61-2.036l-1.543 1.273c.043.052.153.245.153.763h2zm-.604-2.029c-.504-.622-1.244-.832-1.971-.832v2c.183 0 .291.026.348.048.049.019.062.035.068.043l1.555-1.259zm-1.971-.832c-.925 0-1.799.281-2.384 1.028l1.574 1.234c.089-.113.28-.262.81-.262v-2zm-2.384 1.028c-.551.702-.718 1.709-.718 2.777h2c0-.953.169-1.386.292-1.543l-1.574-1.234zm-.718 2.777V125h2v-4.036h-2zm1 3.036h-1.721v2h1.721v-2zm-.721 1v-8.101h-2V125h2zm-1-7.101h1.347v-2h-1.347v2zm.372-.778.242 1.062 1.95-.443-.242-1.062-1.95.443zm1.217 1.84h.088v-2h-.088v2zm.933-.465a1.4 1.4 0 0 1 .618-.522l-.847-1.812a3.401 3.401 0 0 0-1.461 1.265l1.69 1.069zm.618-.522a2.488 2.488 0 0 1 1.071-.221v-2c-.678 0-1.323.131-1.918.409l.847 1.812zm1.071-.221c.813 0 1.24.205 1.473.442.236.241.442.685.442 1.524h2c0-1.138-.28-2.177-1.015-2.925-.739-.752-1.77-1.041-2.9-1.041v2zm1.915 1.966V125h2v-5.281h-2zm7.672 3.838h1v-1.362l-1.299.408.299.954zm0 1.297.4.916.6-.262v-.654h-1zm-.739.205-.175-.985-.009.002-.009.001.193.982zm-3.377-6.856h1v-1h-1v1zm-1.106 0h-1v1h1v-1zm0-.762-.469-.883-.531.282v.601h1zm1.187-.629.469.883.349-.186.128-.374-.946-.323zm.586-1.714v-1h-.715l-.232.676.947.324zm1.062 0h1v-1h-1v1zm0 1.801h-1v1h1v-1zm2.307 0h1v-1h-1v1zm0 1.304v1h1v-1h-1zm-2.307 0v-1h-1v1h1zm.307 5.259-.698.715.008.009.009.008.681-.732zm.821 1.293c.526 0 1.047-.083 1.559-.244l-.599-1.908a3.185 3.185 0 0 1-.96.152v2zm.259-1.198v1.297h2v-1.297h-2zm.601.38c-.093.04-.256.091-.515.137l.349 1.969c.347-.061.677-.147.965-.273l-.799-1.833zm-.533.14a3.768 3.768 0 0 1-.738.069v2c.384 0 .758-.034 1.124-.106l-.386-1.963zm-.738.069c-.647 0-.952-.168-1.109-.332-.166-.175-.337-.528-.337-1.246h-2c0 1.001.237 1.938.886 2.622.659.695 1.577.956 2.56.956v-2zm-1.446-1.578v-4.365h-2v4.365h2zm-1-5.365h-1.106v2h1.106v-2zm-.106 1v-.762h-2v.762h2zm-.531.122 1.187-.63-.938-1.767-1.187.63.938 1.767zm1.664-1.19.586-1.714-1.893-.647-.585 1.714 1.892.647zm-.36-1.037h1.062v-2h-1.062v2zm.062-1v1.801h2v-1.801h-2zm1 2.801h2.307v-2h-2.307v2zm1.307-1v1.304h2v-1.304h-2zm1 .304h-2.307v2h2.307v-2zm-3.307 1v4.336h2v-4.336h-2zm0 4.336c0 .563.139 1.179.609 1.638l1.397-1.431c.026.025.027.042.019.019a.772.772 0 0 1-.025-.226h-2zm.626 1.655c.427.397.959.561 1.502.561v-2a.365.365 0 0 1-.122-.015.057.057 0 0 1-.018-.01l-1.362 1.464zm11.514.806v1h1v-1h-1zm-1.729 0h-1v1h1v-1zm-.381-6.379-.777.629.006.007.771-.636zm-2.79.19-.786-.618-.001.001.787.617zm-.505 6.189v1h1v-1h-1zm-1.722 0h-1v1h1v-1zm0-11.396v-1h-1v1h1zm1.722 0h1v-1h-1v1zm-.088 4.379-.994-.11-.124 1.11h1.118v-1zm.11 0v1h.566l.291-.485-.857-.515zm.974-.908-.456-.89-.004.002.46.888zm4.409 6.925h-1.729v2h1.729v-2zm-.729 1v-4.98h-2V125h2zm0-4.98c0-.733-.144-1.472-.609-2.036l-1.543 1.273c.043.052.152.245.152.763h2zm-.603-2.029c-.504-.622-1.244-.832-1.971-.832v2c.183 0 .291.026.348.048.049.019.062.035.068.043l1.555-1.259zm-1.971-.832c-.928 0-1.796.288-2.383 1.034l1.572 1.236c.097-.123.293-.27.811-.27v-2zm-2.384 1.035c-.551.703-.718 1.713-.718 2.785h2c0-.959.169-1.395.292-1.551l-1.574-1.234zm-.718 2.785V125h2v-4.021h-2zm1 3.021h-1.722v2h1.722v-2zm-.722 1v-11.396h-2V125h2zm-1-10.396h1.722v-2h-1.722v2zm.722-1v2.893h2v-2.893h-2zm0 2.893c0 .422-.027.88-.082 1.376l1.988.221c.062-.559.094-1.092.094-1.597h-2zm.912 2.486h.11v-2h-.11v2zm.967-.485c.136-.227.322-.403.576-.535l-.919-1.776a3.396 3.396 0 0 0-1.372 1.282l1.715 1.029zm.572-.533c.256-.13.583-.212 1.01-.212v-2c-.687 0-1.337.133-1.921.432l.911 1.78zm1.01-.212c.825 0 1.261.207 1.498.446.239.24.446.684.446 1.52h2c0-1.141-.284-2.181-1.027-2.929-.744-.75-1.78-1.037-2.917-1.037v2zm1.944 1.966V125h2v-5.281h-2z" fill="#48A6EB" fill-opacity=".05"/></g><rect x="590" y="102" width="58" height="34" rx="4" fill="#48A6EB" fill-opacity=".05"/><g opacity=".15"><path d="M602.132 125h-1.721v-6.914c0-.825.02-1.48.059-1.963a5.844 5.844 0 0 1-.418.388 91.25 91.25 0 0 1-1.64 1.348l-.865-1.091 3.15-2.476h1.435V125zm11.192-5.823 2.534-4.885h1.904l-3.567 6.555V125h-1.757v-4.094l-3.553-6.614h1.905l2.534 4.885zm9.206 5.969c-1.259 0-2.246-.366-2.959-1.098-.708-.737-1.062-1.751-1.062-3.04 0-1.323.33-2.363.989-3.12.659-.757 1.565-1.135 2.717-1.135 1.07 0 1.914.325 2.535.974.62.649.93 1.543.93 2.681v.93h-5.398c.024.786.237 1.391.637 1.816.4.42.964.63 1.692.63.478 0 .923-.044 1.333-.132a7.132 7.132 0 0 0 1.333-.454v1.399c-.42.2-.845.342-1.275.425a7.81 7.81 0 0 1-1.472.124zm-.315-7.089c-.547 0-.986.173-1.318.52-.327.346-.522.852-.586 1.516h3.677c-.01-.669-.171-1.175-.484-1.516-.312-.347-.742-.52-1.289-.52zM632.704 125l-.345-1.128h-.058c-.391.493-.784.83-1.179 1.011-.396.176-.904.263-1.524.263-.796 0-1.418-.214-1.868-.644-.444-.43-.666-1.038-.666-1.824 0-.835.31-1.465.93-1.889.62-.425 1.565-.657 2.835-.696l1.399-.044v-.432c0-.518-.123-.904-.367-1.158-.239-.258-.612-.388-1.12-.388-.415 0-.813.061-1.194.183a9.028 9.028 0 0 0-1.099.433l-.556-1.231a5.89 5.89 0 0 1 1.442-.52 6.524 6.524 0 0 1 1.48-.183c1.03 0 1.807.225 2.329.674.527.449.791 1.155.791 2.116V125h-1.23zm-2.564-1.172c.625 0 1.126-.173 1.502-.52.38-.351.571-.842.571-1.472v-.703l-1.04.044c-.811.029-1.402.166-1.773.41-.366.239-.549.608-.549 1.106 0 .361.107.642.322.842.215.195.537.293.967.293zm10.305-7.075c.347 0 .633.024.857.073l-.168 1.604a3.284 3.284 0 0 0-.762-.088c-.688 0-1.247.225-1.677.674-.425.449-.637 1.033-.637 1.751V125h-1.722v-8.101h1.348l.227 1.429h.088a3.225 3.225 0 0 1 1.047-1.15 2.519 2.519 0 0 1 1.399-.425z" fill="#000" fill-opacity=".65"/><path d="M602.132 125v1h1v-1h-1zm-1.721 0h-1v1h1v-1zm.059-8.877.996.081.227-2.803-1.945 2.03.722.692zm-.418.388-.649-.761-.005.005-.006.005.66.751zm-1.64 1.348-.784.621.628.793.786-.638-.63-.776zm-.865-1.091-.618-.787-.789.621.623.786.784-.62zm3.15-2.476v-1h-.346l-.272.214.618.786zm1.435 0h1v-1h-1v1zm0 9.708h-1.721v2h1.721v-2zm-.721 1v-6.914h-2V125h2zm0-6.914c0-.814.02-1.438.055-1.882l-1.993-.161a26.691 26.691 0 0 0-.062 2.043h2zm-1.663-2.655a4.489 4.489 0 0 1-.345.319l1.298 1.522c.184-.156.349-.309.491-.457l-1.444-1.384zm-.356.329c-.142.125-.669.558-1.611 1.322l1.261 1.553a90.542 90.542 0 0 0 1.67-1.373l-1.32-1.502zm-.196 1.478-.865-1.091-1.568 1.241.865 1.092 1.568-1.242zm-1.031.316 3.15-2.476-1.236-1.572-3.15 2.475 1.236 1.573zm2.532-2.262h1.435v-2h-1.435v2zm.435-1V125h2v-10.708h-2zm12.192 4.885-.888.461.888 1.711.887-1.711-.887-.461zm2.534-4.885v-1h-.608l-.28.54.888.46zm1.904 0 .879.478.804-1.478h-1.683v1zm-3.567 6.555-.878-.478-.122.224v.254h1zm0 4.153v1h1v-1h-1zm-1.757 0h-1v1h1v-1zm0-4.094h1v-.252l-.12-.221-.88.473zm-3.553-6.614v-1h-1.672l.791 1.473.881-.473zm1.905 0 .887-.46-.28-.54h-.607v1zm3.421 5.346 2.535-4.886-1.776-.92-2.534 4.885 1.775.921zm1.647-4.346h1.904v-2h-1.904v2zm1.026-1.478-3.567 6.555 1.757.956 3.567-6.555-1.757-.956zm-3.689 7.033V125h2v-4.153h-2zm1 3.153h-1.757v2h1.757v-2zm-.757 1v-4.094h-2V125h2zm-.12-4.567-3.552-6.614-1.762.946 3.553 6.614 1.761-.946zm-4.433-5.141h1.905v-2h-1.905v2zm1.017-.54 2.534 4.886 1.775-.921-2.534-4.885-1.775.92zm9.669 9.296-.721.692.005.005.716-.697zm-.073-6.16-.754-.657.754.657zm5.252-.161-.724.691.724-.691zm.93 3.611v1h1v-1h-1zm-5.398 0v-1h-1.032l.032 1.031 1-.031zm.637 1.816-.728.686.004.004.724-.69zm3.025.498.209.978.009-.002-.218-.976zm1.333-.454h1v-1.537l-1.405.623.405.914zm0 1.399.43.903.57-.272v-.631h-1zm-4.38-6.02-.722-.692-.005.005.727.687zm-.586 1.516-.995-.095-.105 1.095h1.1v-1zm3.677 0v1h1.014l-.014-1.015-1 .015zm-.484-1.516-.742.669.004.005.738-.674zm-.974 5.569c-1.056 0-1.76-.3-2.242-.796l-1.433 1.395c.943.969 2.212 1.401 3.675 1.401v-2zm-2.237-.791c-.486-.506-.784-1.245-.784-2.347h-2c0 1.477.411 2.764 1.341 3.732l1.443-1.385zm-.784-2.347c0-1.16.287-1.94.743-2.463l-1.508-1.314c-.863.991-1.235 2.291-1.235 3.777h2zm.743-2.463c.44-.505 1.053-.792 1.963-.792v-2c-1.394 0-2.593.47-3.471 1.478l1.508 1.314zm1.963-.792c.853 0 1.416.25 1.811.665l1.447-1.382c-.845-.884-1.971-1.283-3.258-1.283v2zm1.811.665c.399.417.654 1.038.654 1.99h2c0-1.323-.365-2.49-1.207-3.372l-1.447 1.382zm.654 1.99v.93h2v-.93h-2zm1-.07h-5.398v2h5.398v-2zm-6.398 1.031c.03.944.291 1.815.909 2.471l1.456-1.372c-.182-.193-.346-.533-.366-1.161l-1.999.062zm.913 2.475c.635.666 1.489.94 2.416.94v-2c-.528 0-.802-.146-.968-.32l-1.448 1.38zm2.416.94c.539 0 1.055-.049 1.542-.154l-.419-1.955a5.373 5.373 0 0 1-1.123.109v2zm1.551-.156c.491-.11.999-.284 1.52-.516l-.81-1.828a6.14 6.14 0 0 1-1.146.392l.436 1.952zm.115-1.43v1.399h2v-1.399h-2zm.57.497a4.348 4.348 0 0 1-1.034.345l.379 1.964c.518-.1 1.024-.27 1.515-.504l-.86-1.805zm-1.034.345a6.862 6.862 0 0 1-1.283.106v2c.6 0 1.156-.044 1.662-.142l-.379-1.964zm-1.598-6.983c-.778 0-1.493.256-2.04.828l1.444 1.383c.117-.121.281-.211.596-.211v-2zm-2.045.833c-.531.562-.778 1.309-.854 2.108l1.99.19c.051-.529.194-.794.318-.925l-1.454-1.373zm.141 3.203h3.677v-2h-3.677v2zm4.677-1.015c-.012-.806-.208-1.588-.746-2.176l-1.476 1.349c.087.096.214.325.222.856l2-.029zm-.741-2.171c-.535-.594-1.255-.85-2.032-.85v2c.317 0 .457.089.547.189l1.485-1.339zm8.457 7.093-.957.292.216.708h.741v-1zm-.345-1.128.957-.292-.216-.708h-.741v1zm-.058 0v-1h-.484l-.3.379.784.621zm-1.179 1.011.406.914.009-.005-.415-.909zm-3.392-.381-.695.719.004.004.691-.723zm3.099-4.409.03.999h.001l-.031-.999zm1.399-.044.031.999.969-.03v-.969h-1zm-.367-1.59-.734.679.007.008.006.007.721-.694zm-3.413.228-.911.412.419.926.919-.434-.427-.904zm-.556-1.231-.463-.886-.838.437.389.861.912-.412zm1.442-.52.219.976.009-.002-.228-.974zm3.809.491-.652.758.004.003.648-.761zm.791 7.573v1h1v-1h-1zm-2.292-1.692.677.735h.001l-.678-.735zm.571-2.175h1v-1.043l-1.042.044.042.999zm-1.04.044.036.999h.006l-.042-.999zm-1.773.41.547.837.003-.002-.55-.835zm-.227 1.948-.681.732.009.008.672-.74zm4.487 1.173-.344-1.128-1.913.584.344 1.128 1.913-.584zm-1.301-1.836h-.058v2h.058v-2zm-.842.379c-.333.421-.609.63-.811.722l.831 1.819c.589-.269 1.1-.733 1.548-1.299l-1.568-1.242zm-.802.718c-.224.1-.581.177-1.117.177v2c.704 0 1.364-.098 1.93-.349l-.813-1.828zm-1.117.177c-.613 0-.961-.161-1.176-.367l-1.383 1.446c.684.653 1.581.921 2.559.921v-2zm-1.172-.363c-.2-.193-.362-.512-.362-1.105h-2c0 .98.283 1.877.971 2.543l1.391-1.438zm-.362-1.105c0-.548.181-.849.495-1.064l-1.13-1.65c-.926.634-1.365 1.592-1.365 2.714h2zm.495-1.064c.388-.266 1.105-.485 2.3-.522l-.061-1.999c-1.344.042-2.516.286-3.369.871l1.13 1.65zm2.301-.522 1.399-.044-.063-1.999-1.399.044.063 1.999zm2.368-1.043v-.432h-2v.432h2zm0-.432c0-.656-.154-1.339-.646-1.851l-1.442 1.387c.001 0 .021.02.043.088.023.072.045.192.045.376h2zm-.632-1.836c-.5-.54-1.194-.71-1.855-.71v2c.354 0 .407.09.386.067l1.469-1.357zm-1.855-.71a4.88 4.88 0 0 0-1.499.231l.61 1.905c.279-.09.573-.136.889-.136v-2zm-1.499.231a9.987 9.987 0 0 0-1.221.48l.854 1.809c.311-.147.637-.275.977-.384l-.61-1.905zm.117.972-.556-1.23-1.823.824.557 1.231 1.822-.825zm-1.004.068a4.855 4.855 0 0 1 1.198-.43l-.437-1.952a6.877 6.877 0 0 0-1.687.61l.926 1.772zm1.207-.432a5.538 5.538 0 0 1 1.252-.157v-2c-.551 0-1.121.072-1.707.209l.455 1.948zm1.252-.157c.906 0 1.407.2 1.677.432l1.304-1.516c-.775-.667-1.826-.916-2.981-.916v2zm1.681.435c.227.194.439.568.439 1.355h2c0-1.135-.315-2.173-1.142-2.877l-1.297 1.522zm.439 1.355V125h2v-5.457h-2zm1 4.457h-1.23v2h1.23v-2zm-3.794.828c.818 0 1.58-.232 2.179-.785l-1.355-1.47c-.153.14-.391.255-.824.255v2zm2.18-.785c.629-.581.893-1.363.893-2.207h-2c0 .416-.117.615-.25.737l1.357 1.47zm.893-2.207v-.703h-2v.703h2zm-1.042-1.702-1.04.044.084 1.998 1.04-.044-.084-1.998zm-1.034.043c-.865.032-1.682.177-2.286.574l1.099 1.671c.138-.09.502-.219 1.259-.246l-.072-1.999zm-2.284.573c-.691.452-1.002 1.162-1.002 1.943h2c0-.127.023-.185.033-.205.007-.015.02-.035.063-.064l-1.094-1.674zm-1.002 1.943c0 .57.177 1.142.641 1.574l1.363-1.463a.038.038 0 0 1 .008.009c.003.005.004.007.003.004a.346.346 0 0 1-.015-.124h-2zm.65 1.582c.47.428 1.078.553 1.639.553v-2c-.298 0-.335-.07-.294-.033l-1.345 1.48zm12.801-7.449.995.105.093-.892-.875-.19-.213.977zm-.168 1.604-.234.973 1.109.266.119-1.134-.994-.105zm-2.439.586-.723-.691-.004.004.727.687zm-.637 5.984v1h1v-1h-1zm-1.722 0h-1v1h1v-1zm0-8.101v-1h-1v1h1zm1.348 0 .988-.157-.134-.843h-.854v1zm.227 1.429-.987.157.134.843h.853v-1zm.088 0v1h.588l.286-.515-.874-.485zm1.047-1.15-.546-.838-.004.003.55.835zm1.399.575c.308 0 .516.022.645.05l.425-1.954a5.093 5.093 0 0 0-1.07-.096v2zm-.137-1.031-.169 1.604 1.989.209.169-1.604-1.989-.209zm1.059.736a4.244 4.244 0 0 0-.995-.116v2c.189 0 .364.021.528.061l.467-1.945zm-.995-.116c-.929 0-1.76.314-2.4.983l1.445 1.382c.22-.229.507-.365.955-.365v-2zm-2.404.987c-.628.665-.91 1.508-.91 2.438h2c0-.507.142-.83.363-1.064l-1.453-1.374zm-.91 2.438V125h2v-4.233h-2zm1 3.233h-1.722v2h1.722v-2zm-.722 1v-8.101h-2V125h2zm-1-7.101h1.348v-2h-1.348v2zm.36-.843.228 1.429 1.975-.314-.227-1.429-1.976.314zm1.215 2.272h.088v-2h-.088v2zm.962-.515c.196-.353.438-.612.724-.8l-1.101-1.67a4.223 4.223 0 0 0-1.371 1.499l1.748.971zm.719-.797c.28-.182.557-.263.853-.263v-2c-.7 0-1.355.203-1.945.587l1.092 1.676z" fill="#48A6EB" fill-opacity=".05"/></g><g clip-path="url(#a)"><path opacity=".3" stroke="#000" d="M648 445.5H54"/><g opacity=".2" stroke="#000" stroke-width=".3"><path d="M648 411.15H54M648 373.15H54M648 335.15H54M648 297.15H54M648 259.15H54M648 221.15H54M648 183.15H54"/></g><g opacity=".2" stroke="#000" stroke-width=".3"><path d="M584.15 154v305M481.15 154v305M378.15 154v305M275.15 154v305M172.15 154v305"/></g><path opacity=".3" stroke="#000" d="M71.541 154v305"/><g clip-path="url(#b)"><path d="M61.816 329.516 55 321.898V463.5h593V192.39h-34.932l-12.781 6.771h-31.524l-29.82 7.619-6.817-2.54-3.408 4.232-7.668-5.925-11.076 4.233-4.26-28.78-21.3 40.63h-9.372l-5.964-3.386-5.112 3.386-7.466 17.87L441 241l-5.151 49.579-5.112 9.311-7.668-11.851h-4.26l-11.076 25.394-5.964-25.394-5.964 27.087h-6.817l-3.408 52.48-11.928 15.237L367.688 393l-5.112-14.39-5.964 7.618-7.668-3.385h-5.112L339.572 393l-11.076-29.626-6.816 19.469-4.26 3.385-5.113-40.63h-5.964l-5.964-11.85-11.928 16.083-5.112-24.548-6.816 5.926-5.964 21.161-5.112-11.004-13.632 22.008-8.52-11.004-10.225 33.858-7.668-3.385-5.112 3.385-5.112-3.385-5.112 8.464-6.816-23.701-5.964 9.311-5.112-35.551-5.964 8.465-6.816-41.477-9.372 22.855-5.965 22.854-4.26 7.618-13.632-48.248-4.26 8.465-7.668-24.548-11.928 27.933-4.26-8.464-6.816-33.012-9.372-11.85-6.817 27.086-4.26-1.693-8.52 16.083-4.26-5.079-5.112-1.693-11.076 22.855z" fill="url(#c)"/><g clip-path="url(#d)"><path d="M61.816 329.516 55 321.898V463.5h593V192.39h-34.932l-12.781 6.771h-31.524l-29.82 7.619-6.817-2.54-3.408 4.232-7.668-5.925-11.076 4.233-4.26-28.78-21.3 40.63h-9.372l-5.964-3.386-5.112 3.386-7.466 17.87L441 241l-5.151 49.579-5.112 9.311-7.668-11.851h-4.26l-11.076 25.394-5.964-25.394-5.964 27.087h-6.817l-3.408 52.48-11.928 15.237L367.688 393l-5.112-14.39-5.964 7.618-7.668-3.385h-5.112L339.572 393l-11.076-29.626-6.816 19.469-4.26 3.385-5.113-40.63h-5.964l-5.964-11.85-11.928 16.083-5.112-24.548-6.816 5.926-5.964 21.161-5.112-11.004-13.632 22.008-8.52-11.004-10.225 33.858-7.668-3.385-5.112 3.385-5.112-3.385-5.112 8.464-6.816-23.701-5.964 9.311-5.112-35.551-5.964 8.465-6.816-41.477-9.372 22.855-5.965 22.854-4.26 7.618-13.632-48.248-4.26 8.465-7.668-24.548-11.928 27.933-4.26-8.464-6.816-33.012-9.372-11.85-6.817 27.086-4.26-1.693-8.52 16.083-4.26-5.079-5.112-1.693-11.076 22.855z" fill="url(#e)"/><path d="M61.816 329.516 55 321.898V463.5h593V192.39h-34.932l-12.781 6.771h-31.524l-29.82 7.619-6.817-2.54-3.408 4.232-7.668-5.925-11.076 4.233-4.26-28.78-21.3 40.63h-9.372l-5.964-3.386-5.112 3.386-7.466 17.87L441 241l-5.151 49.579-5.112 9.311-7.668-11.851h-4.26l-11.076 25.394-5.964-25.394-5.964 27.087h-6.817l-3.408 52.48-11.928 15.237L367.688 393l-5.112-14.39-5.964 7.618-7.668-3.385h-5.112L339.572 393l-11.076-29.626-6.816 19.469-4.26 3.385-5.113-40.63h-5.964l-5.964-11.85-11.928 16.083-5.112-24.548-6.816 5.926-5.964 21.161-5.112-11.004-13.632 22.008-8.52-11.004-10.225 33.858-7.668-3.385-5.112 3.385-5.112-3.385-5.112 8.464-6.816-23.701-5.964 9.311-5.112-35.551-5.964 8.465-6.816-41.477-9.372 22.855-5.965 22.854-4.26 7.618-13.632-48.248-4.26 8.465-7.668-24.548-11.928 27.933-4.26-8.464-6.816-33.012-9.372-11.85-6.817 27.086-4.26-1.693-8.52 16.083-4.26-5.079-5.112-1.693-11.076 22.855z" fill="url(#f)"/><path d="M61.816 329.516 55 321.898V463.5h593V192.39h-34.932l-12.781 6.771h-31.524l-29.82 7.619-6.817-2.54-3.408 4.232-7.668-5.925-11.076 4.233-4.26-28.78-21.3 40.63h-9.372l-5.964-3.386-5.112 3.386-7.466 17.87L441 241l-5.151 49.579-5.112 9.311-7.668-11.851h-4.26l-11.076 25.394-5.964-25.394-5.964 27.087h-6.817l-3.408 52.48-11.928 15.237L367.688 393l-5.112-14.39-5.964 7.618-7.668-3.385h-5.112L339.572 393l-11.076-29.626-6.816 19.469-4.26 3.385-5.113-40.63h-5.964l-5.964-11.85-11.928 16.083-5.112-24.548-6.816 5.926-5.964 21.161-5.112-11.004-13.632 22.008-8.52-11.004-10.225 33.858-7.668-3.385-5.112 3.385-5.112-3.385-5.112 8.464-6.816-23.701-5.964 9.311-5.112-35.551-5.964 8.465-6.816-41.477-9.372 22.855-5.965 22.854-4.26 7.618-13.632-48.248-4.26 8.465-7.668-24.548-11.928 27.933-4.26-8.464-6.816-33.012-9.372-11.85-6.817 27.086-4.26-1.693-8.52 16.083-4.26-5.079-5.112-1.693-11.076 22.855z" fill="url(#g)"/><path d="M61.816 329.516 55 321.898V463.5h593V192.39h-34.932l-12.781 6.771h-31.524l-29.82 7.619-6.817-2.54-3.408 4.232-7.668-5.925-11.076 4.233-4.26-28.78-21.3 40.63h-9.372l-5.964-3.386-5.112 3.386-7.466 17.87L441 241l-5.151 49.579-5.112 9.311-7.668-11.851h-4.26l-11.076 25.394-5.964-25.394-5.964 27.087h-6.817l-3.408 52.48-11.928 15.237L367.688 393l-5.112-14.39-5.964 7.618-7.668-3.385h-5.112L339.572 393l-11.076-29.626-6.816 19.469-4.26 3.385-5.113-40.63h-5.964l-5.964-11.85-11.928 16.083-5.112-24.548-6.816 5.926-5.964 21.161-5.112-11.004-13.632 22.008-8.52-11.004-10.225 33.858-7.668-3.385-5.112 3.385-5.112-3.385-5.112 8.464-6.816-23.701-5.964 9.311-5.112-35.551-5.964 8.465-6.816-41.477-9.372 22.855-5.965 22.854-4.26 7.618-13.632-48.248-4.26 8.465-7.668-24.548-11.928 27.933-4.26-8.464-6.816-33.012-9.372-11.85-6.817 27.086-4.26-1.693-8.52 16.083-4.26-5.079-5.112-1.693-11.076 22.855z" fill="url(#h)"/></g><g filter="url(#i)"><path d="m55 321.898 6.816 7.618 11.076-22.855 5.112 1.693 4.26 5.079 8.52-16.083 4.26 1.693 6.817-27.086 9.372 11.85 6.816 33.012 4.26 8.464 11.928-27.933 7.668 24.548 4.26-8.465 13.632 48.248 4.26-7.618 5.965-22.854 9.372-22.855 6.816 41.477 5.964-8.465 5.112 35.551 5.964-9.311 6.816 23.701 5.112-8.464 5.112 3.385 5.112-3.385 7.668 3.385 10.225-33.858 8.52 11.004 13.632-22.008 5.112 11.004 5.964-21.161 6.816-5.926 5.112 24.548 11.928-16.083 5.964 11.85h5.964l5.113 40.63 4.26-3.385 6.816-19.469L339.572 393l4.26-10.157h5.112l7.668 3.385 5.964-7.618 5.112 14.39 5.964-10.157 11.928-15.237 3.408-52.48h6.817l5.964-27.087 5.964 25.394 11.076-25.394h4.26l7.668 11.851 5.112-9.311 5.279-49.347L456.5 236.5l7.466-17.87 5.112-3.386 5.964 3.386h9.372l21.3-40.63 4.26 28.78 11.076-4.233 7.668 5.925 3.408-4.232 6.817 2.54 29.82-7.619h31.524l12.781-6.771H648" stroke="#48A6EB" stroke-width="1.5" stroke-linecap="round"/></g><g filter="url(#j)"><path fill-rule="evenodd" clip-rule="evenodd" d="M215 273a4 4 0 0 0-4 4v28a4 4 0 0 0 4 4h54.767c.023.085.057.169.104.25l4.763 8.25a1 1 0 0 0 1.732 0l4.763-8.25c.047-.081.081-.165.104-.25H292a4 4 0 0 0 4-4v-28a4 4 0 0 0-4-4h-77z" fill="#2DA36A"/></g><path d="M217.625 286.006h3.11c1.418 0 2.445.203 3.083.608.643.401.964 1.042.964 1.921 0 .597-.141 1.087-.424 1.47a1.663 1.663 0 0 1-1.114.69v.069c.634.141 1.089.405 1.367.793.283.387.424.902.424 1.545 0 .911-.33 1.622-.991 2.132-.656.511-1.55.766-2.68.766h-3.739v-9.994zm2.119 3.958h1.231c.574 0 .989-.089 1.244-.267.26-.177.389-.471.389-.882 0-.382-.141-.656-.423-.82-.278-.169-.72-.253-1.327-.253h-1.114v2.222zm0 1.682v2.604h1.381c.583 0 1.014-.112 1.292-.335.278-.223.417-.565.417-1.025 0-.83-.592-1.244-1.777-1.244h-1.313zM232.281 296l-.28-.978h-.109c-.224.356-.54.632-.951.828-.41.191-.877.287-1.401.287-.898 0-1.575-.24-2.03-.718-.456-.483-.684-1.176-.684-2.078v-4.984h2.085v4.464c0 .552.098.966.294 1.244.196.274.508.411.937.411.583 0 1.004-.194 1.264-.581.26-.392.39-1.04.39-1.942v-3.596h2.085V296h-1.6zm2.694-7.643h2.283l1.442 4.3c.123.374.208.816.253 1.326h.041c.05-.469.148-.911.294-1.326l1.415-4.3h2.235l-3.233 8.621c-.296.797-.72 1.394-1.271 1.791-.547.396-1.188.594-1.921.594-.36 0-.714-.038-1.06-.116v-1.654c.251.059.524.089.82.089.37 0 .691-.114.964-.342.278-.223.495-.563.65-1.019l.123-.376-3.035-7.588zm19.072 4.519c0 .725-.262 1.308-.786 1.75-.524.437-1.258.7-2.201.786v1.401h-.937v-1.374c-1.112-.022-2.087-.218-2.926-.587v-1.805c.397.196.873.369 1.429.519.561.151 1.06.24 1.497.267v-2.119l-.458-.178c-.902-.355-1.543-.74-1.921-1.155-.374-.419-.56-.937-.56-1.552 0-.661.257-1.203.772-1.627.52-.428 1.242-.688 2.167-.779v-1.046h.937v1.019c1.043.045 1.987.255 2.83.628l-.643 1.6a7.385 7.385 0 0 0-2.187-.533v2.016c.888.342 1.519.638 1.893.889.378.251.654.526.827.827.178.301.267.652.267 1.053zm-2.058.103a.614.614 0 0 0-.232-.486c-.155-.132-.388-.269-.697-.41v1.702c.619-.105.929-.374.929-.806zm-2.748-4.15c0 .201.069.367.205.499.142.128.367.26.677.397v-1.607c-.588.087-.882.324-.882.711zm6.891 7.171 3.753-8.203h-4.929v-1.777h7.171v1.326l-3.78 8.654h-2.215zm9.584-1.47c-.237.921-.638 2.012-1.203 3.275h-1.504c.296-1.213.526-2.356.69-3.432h1.914l.103.157zm8.415-3.527c0 1.745-.287 3.037-.861 3.876-.57.838-1.45 1.258-2.639 1.258-1.153 0-2.024-.433-2.611-1.299-.584-.866-.875-2.144-.875-3.835 0-1.764.284-3.063.854-3.897.57-.838 1.447-1.257 2.632-1.257 1.153 0 2.023.437 2.611 1.312.593.875.889 2.156.889 3.842zm-4.888 0c0 1.226.105 2.105.315 2.639.214.528.572.793 1.073.793.492 0 .848-.269 1.066-.807.219-.538.328-1.413.328-2.625 0-1.226-.111-2.106-.335-2.639-.218-.538-.572-.806-1.059-.806-.497 0-.852.268-1.067.806-.214.533-.321 1.413-.321 2.639zm12.886 0c0 1.745-.287 3.037-.861 3.876-.57.838-1.45 1.258-2.639 1.258-1.153 0-2.024-.433-2.611-1.299-.584-.866-.875-2.144-.875-3.835 0-1.764.284-3.063.854-3.897.57-.838 1.447-1.257 2.632-1.257 1.153 0 2.023.437 2.611 1.312.593.875.889 2.156.889 3.842zm-4.888 0c0 1.226.105 2.105.315 2.639.214.528.572.793 1.073.793.492 0 .848-.269 1.066-.807.219-.538.328-1.413.328-2.625 0-1.226-.111-2.106-.335-2.639-.218-.538-.571-.806-1.059-.806-.497 0-.852.268-1.067.806-.214.533-.321 1.413-.321 2.639zm12.886 0c0 1.745-.287 3.037-.861 3.876-.57.838-1.45 1.258-2.639 1.258-1.153 0-2.023-.433-2.611-1.299-.584-.866-.875-2.144-.875-3.835 0-1.764.284-3.063.854-3.897.57-.838 1.447-1.257 2.632-1.257 1.153 0 2.023.437 2.611 1.312.593.875.889 2.156.889 3.842zm-4.888 0c0 1.226.105 2.105.315 2.639.214.528.572.793 1.073.793.492 0 .848-.269 1.066-.807.219-.538.328-1.413.328-2.625 0-1.226-.111-2.106-.334-2.639-.219-.538-.572-.806-1.06-.806-.497 0-.852.268-1.066.806-.215.533-.322 1.413-.322 2.639z" fill="#fff"/><g filter="url(#k)"><g opacity=".9"><circle cx="276" cy="334" r="7" fill="#fff"/><circle cx="276" cy="334" r="6.95" stroke="#000" stroke-opacity=".2" stroke-width=".1"/></g><circle cx="276" cy="334" r="4" fill="#2DA36A"/></g></g><path d="M24.704 410.654c0-1.021.137-1.878.413-2.573.28-.698.673-1.216 1.182-1.552.512-.337 1.128-.505 1.848-.505.336 0 .644.041.923.123v.473a2.725 2.725 0 0 0-.945-.145c-.884 0-1.574.319-2.068.956-.49.638-.766 1.565-.827 2.782h.07c.272-.351.584-.616.934-.795.351-.179.722-.268 1.112-.268.734 0 1.307.209 1.719.628.415.419.623.998.623 1.735 0 .802-.218 1.436-.655 1.902-.434.461-1.019.692-1.757.692-.795 0-1.423-.302-1.885-.907-.458-.609-.687-1.458-.687-2.546zm2.572 2.981c.588 0 1.044-.185 1.37-.553.326-.369.489-.896.489-1.58 0-.601-.161-1.07-.484-1.407-.322-.336-.76-.505-1.316-.505-.365 0-.705.081-1.02.242-.312.161-.56.376-.747.645-.186.265-.279.537-.279.816 0 .397.088.781.263 1.149.18.366.42.656.72.87.304.215.64.323 1.004.323zm11.43-4.157c0 1.031-.136 1.894-.408 2.588-.269.695-.663 1.209-1.182 1.542-.515.333-1.14.499-1.874.499-.373 0-.716-.046-1.032-.139v-.462c.154.05.339.089.554.118.218.025.385.038.5.038.884 0 1.576-.319 2.078-.956.501-.641.78-1.574.838-2.799h-.065a2.742 2.742 0 0 1-.934.795c-.362.183-.74.274-1.134.274-.726 0-1.294-.2-1.702-.601-.405-.402-.607-.971-.607-1.708 0-.788.222-1.426.666-1.913.447-.487 1.027-.73 1.74-.73.516 0 .967.136 1.354.408.386.269.684.664.891 1.187.211.523.317 1.142.317 1.859zm-2.562-2.981c-.566 0-1.017.191-1.353.574-.337.38-.505.901-.505 1.563 0 .623.155 1.096.467 1.418.312.323.757.484 1.337.484.362 0 .699-.081 1.01-.242.315-.161.564-.374.747-.639.186-.269.279-.541.279-.817 0-.419-.084-.811-.252-1.176a1.994 1.994 0 0 0-.699-.854 1.753 1.753 0 0 0-1.031-.311zm6.166 2.782c.838 0 1.497.202 1.977.607.483.404.725.961.725 1.67 0 .806-.25 1.432-.752 1.88-.502.448-1.193.671-2.073.671-.39 0-.761-.037-1.112-.112a2.952 2.952 0 0 1-.881-.333v-.554c.387.197.73.335 1.031.414.3.075.621.113.962.113.687 0 1.239-.181 1.654-.543.415-.365.623-.857.623-1.477 0-.583-.202-1.042-.607-1.375-.405-.333-.954-.499-1.649-.499-.465 0-.953.07-1.46.209l-.323-.209.311-3.594h3.782v.516H41.24L41 409.435c.56-.104.996-.156 1.311-.156zm9.066.773c0 1.379-.21 2.399-.633 3.062-.42.662-1.055.993-1.907.993-.82 0-1.443-.34-1.87-1.02-.425-.684-.638-1.696-.638-3.035 0-1.368.205-2.381.617-3.04.416-.659 1.046-.988 1.89-.988.828 0 1.458.342 1.892 1.026.433.68.65 1.681.65 3.002zm-4.468 0c0 1.218.16 2.118.478 2.702.318.58.802.87 1.45.87.677 0 1.169-.301 1.477-.902.311-.602.467-1.492.467-2.67 0-1.16-.156-2.041-.467-2.642-.308-.602-.8-.903-1.477-.903s-1.167.301-1.472.903c-.304.601-.456 1.482-.456 2.642zM58.663 471h-.526v-5.72c0-.519.021-1.058.064-1.617-.053.054-.109.106-.166.156-.058.05-.61.485-1.66 1.305l-.306-.381 2.132-1.596h.462V471zm8.143 0H61.89v-.473l2.09-2.18c.587-.609.998-1.075 1.235-1.397.236-.322.41-.63.52-.924.112-.293.167-.601.167-.923 0-.47-.154-.851-.462-1.145-.308-.293-.707-.44-1.197-.44-.656 0-1.282.238-1.88.714l-.29-.37c.655-.552 1.382-.827 2.18-.827.684 0 1.221.182 1.612.548.394.365.59.868.59 1.509 0 .519-.132 1.022-.397 1.509-.261.483-.741 1.081-1.44 1.794l-2.014 2.068v.021h4.2V471zm1.633-.419c0-.351.143-.526.43-.526.293 0 .44.175.44.526 0 .351-.147.526-.44.526-.287 0-.43-.175-.43-.526zm0-4.796c0-.351.143-.527.43-.527.293 0 .44.176.44.527 0 .189-.043.326-.13.408a.423.423 0 0 1-.31.123.417.417 0 0 1-.307-.123c-.082-.082-.123-.219-.123-.408zm7.417 1.267c0 1.379-.211 2.399-.634 3.062-.419.662-1.054.993-1.907.993-.82 0-1.443-.34-1.869-1.02-.426-.684-.639-1.696-.639-3.035 0-1.368.206-2.381.618-3.04.415-.659 1.045-.988 1.89-.988.828 0 1.458.342 1.891 1.026.433.68.65 1.681.65 3.002zm-4.469 0c0 1.218.16 2.118.478 2.702.319.58.802.87 1.45.87.677 0 1.17-.301 1.478-.902.311-.602.467-1.492.467-2.67 0-1.16-.156-2.041-.468-2.642-.308-.602-.8-.903-1.477-.903-.676 0-1.167.301-1.471.903-.305.601-.457 1.482-.457 2.642zm10.753 0c0 1.379-.211 2.399-.634 3.062-.419.662-1.054.993-1.906.993-.82 0-1.443-.34-1.87-1.02-.426-.684-.639-1.696-.639-3.035 0-1.368.206-2.381.618-3.04.415-.659 1.046-.988 1.89-.988.828 0 1.458.342 1.891 1.026.434.68.65 1.681.65 3.002zm-4.469 0c0 1.218.16 2.118.478 2.702.32.58.802.87 1.45.87.677 0 1.17-.301 1.478-.902.311-.602.467-1.492.467-2.67 0-1.16-.156-2.041-.467-2.642-.308-.602-.8-.903-1.477-.903s-1.168.301-1.472.903c-.304.601-.457 1.482-.457 2.642zM161.663 471h-.526v-5.72c0-.519.021-1.058.064-1.617a3.482 3.482 0 0 1-.166.156c-.058.05-.611.485-1.66 1.305l-.306-.381 2.132-1.596h.462V471zm8.143 0h-4.915v-.473l2.089-2.18c.588-.609.999-1.075 1.236-1.397.236-.322.41-.63.521-.924.111-.293.166-.601.166-.923 0-.47-.154-.851-.462-1.145-.308-.293-.707-.44-1.197-.44-.656 0-1.282.238-1.88.714l-.29-.37c.655-.552 1.382-.827 2.18-.827.684 0 1.221.182 1.612.548.394.365.591.868.591 1.509a3.12 3.12 0 0 1-.398 1.509c-.261.483-.741 1.081-1.439 1.794l-2.015 2.068v.021h4.201V471zm1.632-.419c0-.351.144-.526.43-.526.294 0 .441.175.441.526 0 .351-.147.526-.441.526-.286 0-.43-.175-.43-.526zm0-4.796c0-.351.144-.527.43-.527.294 0 .441.176.441.527 0 .189-.043.326-.129.408a.426.426 0 0 1-.312.123.415.415 0 0 1-.306-.123c-.082-.082-.124-.219-.124-.408zm7.01-.79c0 .487-.154.897-.462 1.23-.305.333-.715.546-1.23.639v.032c.63.079 1.11.28 1.439.602.33.322.494.756.494 1.3 0 .734-.25 1.303-.751 1.708-.498.401-1.216.601-2.154.601-.799 0-1.495-.148-2.09-.445v-.532c.301.157.638.281 1.01.37.376.09.729.135 1.058.135.792 0 1.386-.16 1.783-.478.398-.323.597-.775.597-1.359 0-.519-.204-.919-.613-1.198-.404-.279-1.001-.419-1.788-.419h-.849v-.515h.859c.652 0 1.168-.154 1.547-.462.383-.312.575-.733.575-1.263 0-.436-.156-.786-.467-1.047-.308-.265-.713-.397-1.214-.397-.39 0-.747.055-1.069.166-.322.108-.684.294-1.085.559l-.263-.36a3.426 3.426 0 0 1 1.101-.602c.43-.15.865-.225 1.305-.225.723 0 1.282.172 1.676.515.394.34.591.822.591 1.445zm6.692 2.057c0 1.379-.211 2.399-.634 3.062-.419.662-1.054.993-1.906.993-.82 0-1.443-.34-1.87-1.02-.426-.684-.639-1.696-.639-3.035 0-1.368.206-2.381.618-3.04.415-.659 1.046-.988 1.891-.988.827 0 1.457.342 1.89 1.026.434.68.65 1.681.65 3.002zm-4.469 0c0 1.218.16 2.118.478 2.702.319.58.802.87 1.451.87.676 0 1.169-.301 1.477-.902.311-.602.467-1.492.467-2.67 0-1.16-.156-2.041-.467-2.642-.308-.602-.801-.903-1.477-.903-.677 0-1.168.301-1.472.903-.304.601-.457 1.482-.457 2.642zM264.663 471h-.526v-5.72c0-.519.021-1.058.064-1.617a3.482 3.482 0 0 1-.166.156c-.058.05-.611.485-1.66 1.305l-.306-.381 2.132-1.596h.462V471zm7.879-6.005c0 .487-.153.897-.461 1.23-.305.333-.715.546-1.23.639v.032c.63.079 1.11.28 1.439.602.329.322.494.756.494 1.3 0 .734-.25 1.303-.752 1.708-.497.401-1.215.601-2.154.601-.798 0-1.495-.148-2.089-.445v-.532c.301.157.637.281 1.01.37.376.09.729.135 1.058.135.791 0 1.386-.16 1.783-.478.398-.323.596-.775.596-1.359 0-.519-.204-.919-.612-1.198-.405-.279-1.001-.419-1.789-.419h-.848v-.515h.859c.652 0 1.168-.154 1.547-.462.383-.312.575-.733.575-1.263 0-.436-.156-.786-.468-1.047-.307-.265-.712-.397-1.213-.397-.391 0-.747.055-1.069.166-.322.108-.684.294-1.085.559l-.263-.36a3.426 3.426 0 0 1 1.101-.602c.429-.15.864-.225 1.305-.225.723 0 1.282.172 1.676.515.394.34.59.822.59 1.445zm1.896 5.586c0-.351.144-.526.43-.526.294 0 .441.175.441.526 0 .351-.147.526-.441.526-.286 0-.43-.175-.43-.526zm0-4.796c0-.351.144-.527.43-.527.294 0 .441.176.441.527 0 .189-.043.326-.129.408a.426.426 0 0 1-.312.123.415.415 0 0 1-.306-.123c-.082-.082-.124-.219-.124-.408zm7.418 1.267c0 1.379-.211 2.399-.634 3.062-.419.662-1.054.993-1.907.993-.82 0-1.443-.34-1.869-1.02-.426-.684-.639-1.696-.639-3.035 0-1.368.206-2.381.618-3.04.415-.659 1.045-.988 1.89-.988.828 0 1.458.342 1.891 1.026.433.68.65 1.681.65 3.002zm-4.469 0c0 1.218.16 2.118.478 2.702.319.58.802.87 1.45.87.677 0 1.17-.301 1.477-.902.312-.602.468-1.492.468-2.67 0-1.16-.156-2.041-.468-2.642-.307-.602-.8-.903-1.477-.903-.676 0-1.167.301-1.471.903-.305.601-.457 1.482-.457 2.642zm10.753 0c0 1.379-.211 2.399-.634 3.062-.419.662-1.054.993-1.906.993-.82 0-1.443-.34-1.87-1.02-.426-.684-.639-1.696-.639-3.035 0-1.368.206-2.381.618-3.04.415-.659 1.046-.988 1.891-.988.827 0 1.457.342 1.89 1.026.434.68.65 1.681.65 3.002zm-4.469 0c0 1.218.16 2.118.478 2.702.319.58.802.87 1.451.87.676 0 1.169-.301 1.477-.902.311-.602.467-1.492.467-2.67 0-1.16-.156-2.041-.467-2.642-.308-.602-.801-.903-1.477-.903-.677 0-1.168.301-1.472.903-.304.601-.457 1.482-.457 2.642zM367.663 471h-.526v-5.72c0-.519.021-1.058.064-1.617a3.482 3.482 0 0 1-.166.156c-.058.05-.611.485-1.66 1.305l-.306-.381 2.132-1.596h.462V471zm7.879-6.005c0 .487-.153.897-.461 1.23-.305.333-.715.546-1.23.639v.032c.63.079 1.11.28 1.439.602.329.322.494.756.494 1.3 0 .734-.25 1.303-.752 1.708-.497.401-1.215.601-2.154.601-.798 0-1.495-.148-2.089-.445v-.532c.301.157.637.281 1.01.37.376.09.729.135 1.058.135.791 0 1.386-.16 1.783-.478.398-.323.596-.775.596-1.359 0-.519-.204-.919-.612-1.198-.405-.279-1.001-.419-1.789-.419h-.848v-.515h.859c.652 0 1.168-.154 1.547-.462.383-.312.575-.733.575-1.263 0-.436-.156-.786-.468-1.047-.307-.265-.712-.397-1.213-.397-.391 0-.747.055-1.069.166-.322.108-.684.294-1.085.559l-.263-.36a3.426 3.426 0 0 1 1.101-.602c.429-.15.864-.225 1.305-.225.723 0 1.282.172 1.676.515.394.34.59.822.59 1.445zm1.896 5.586c0-.351.144-.526.43-.526.294 0 .441.175.441.526 0 .351-.147.526-.441.526-.286 0-.43-.175-.43-.526zm0-4.796c0-.351.144-.527.43-.527.294 0 .441.176.441.527 0 .189-.043.326-.129.408a.426.426 0 0 1-.312.123.415.415 0 0 1-.306-.123c-.082-.082-.124-.219-.124-.408zm7.01-.79c0 .487-.154.897-.462 1.23-.305.333-.715.546-1.23.639v.032c.63.079 1.11.28 1.439.602.33.322.494.756.494 1.3 0 .734-.25 1.303-.751 1.708-.498.401-1.216.601-2.154.601-.799 0-1.495-.148-2.09-.445v-.532c.301.157.638.281 1.01.37.376.09.729.135 1.058.135.792 0 1.386-.16 1.783-.478.398-.323.597-.775.597-1.359 0-.519-.204-.919-.613-1.198-.404-.279-1.001-.419-1.788-.419h-.849v-.515h.859c.652 0 1.168-.154 1.547-.462.383-.312.575-.733.575-1.263 0-.436-.156-.786-.467-1.047-.308-.265-.713-.397-1.214-.397-.39 0-.747.055-1.069.166-.322.108-.684.294-1.085.559l-.263-.36a3.426 3.426 0 0 1 1.101-.602c.43-.15.865-.225 1.305-.225.723 0 1.282.172 1.676.515.394.34.591.822.591 1.445zm6.692 2.057c0 1.379-.211 2.399-.634 3.062-.419.662-1.054.993-1.906.993-.82 0-1.443-.34-1.87-1.02-.426-.684-.639-1.696-.639-3.035 0-1.368.206-2.381.618-3.04.415-.659 1.046-.988 1.891-.988.827 0 1.457.342 1.89 1.026.434.68.65 1.681.65 3.002zm-4.469 0c0 1.218.16 2.118.478 2.702.319.58.802.87 1.451.87.676 0 1.169-.301 1.477-.902.311-.602.467-1.492.467-2.67 0-1.16-.156-2.041-.467-2.642-.308-.602-.801-.903-1.477-.903-.677 0-1.168.301-1.472.903-.304.601-.457 1.482-.457 2.642zM470.663 471h-.526v-5.72c0-.519.021-1.058.064-1.617a3.482 3.482 0 0 1-.166.156c-.058.05-.611.485-1.66 1.305l-.306-.381 2.132-1.596h.462V471zm8.75-2.003h-1.354V471h-.505v-2.003h-4.039v-.36l3.894-5.533h.65v5.431h1.354v.462zm-1.859-.462v-2.245c0-1.082.025-1.99.075-2.724h-.043c-.071.133-.291.469-.66 1.01l-2.772 3.959h3.4zm2.884 2.046c0-.351.144-.526.43-.526.294 0 .441.175.441.526 0 .351-.147.526-.441.526-.286 0-.43-.175-.43-.526zm0-4.796c0-.351.144-.527.43-.527.294 0 .441.176.441.527 0 .189-.043.326-.129.408a.426.426 0 0 1-.312.123.415.415 0 0 1-.306-.123c-.082-.082-.124-.219-.124-.408zm7.418 1.267c0 1.379-.211 2.399-.634 3.062-.419.662-1.054.993-1.907.993-.82 0-1.443-.34-1.869-1.02-.426-.684-.639-1.696-.639-3.035 0-1.368.206-2.381.618-3.04.415-.659 1.045-.988 1.89-.988.828 0 1.458.342 1.891 1.026.433.68.65 1.681.65 3.002zm-4.469 0c0 1.218.16 2.118.478 2.702.319.58.802.87 1.45.87.677 0 1.17-.301 1.477-.902.312-.602.468-1.492.468-2.67 0-1.16-.156-2.041-.468-2.642-.307-.602-.8-.903-1.477-.903-.676 0-1.167.301-1.471.903-.305.601-.457 1.482-.457 2.642zm10.753 0c0 1.379-.211 2.399-.634 3.062-.419.662-1.054.993-1.906.993-.82 0-1.443-.34-1.87-1.02-.426-.684-.639-1.696-.639-3.035 0-1.368.206-2.381.618-3.04.415-.659 1.046-.988 1.891-.988.827 0 1.457.342 1.89 1.026.434.68.65 1.681.65 3.002zm-4.469 0c0 1.218.16 2.118.478 2.702.319.58.802.87 1.451.87.676 0 1.169-.301 1.477-.902.311-.602.467-1.492.467-2.67 0-1.16-.156-2.041-.467-2.642-.308-.602-.801-.903-1.477-.903-.677 0-1.168.301-1.472.903-.304.601-.457 1.482-.457 2.642zM573.663 471h-.526v-5.72c0-.519.021-1.058.064-1.617a3.482 3.482 0 0 1-.166.156c-.058.05-.611.485-1.66 1.305l-.306-.381 2.132-1.596h.462V471zm8.75-2.003h-1.354V471h-.505v-2.003h-4.039v-.36l3.894-5.533h.65v5.431h1.354v.462zm-1.859-.462v-2.245c0-1.082.025-1.99.075-2.724h-.043c-.071.133-.291.469-.66 1.01l-2.772 3.959h3.4zm2.884 2.046c0-.351.144-.526.43-.526.294 0 .441.175.441.526 0 .351-.147.526-.441.526-.286 0-.43-.175-.43-.526zm0-4.796c0-.351.144-.527.43-.527.294 0 .441.176.441.527 0 .189-.043.326-.129.408a.426.426 0 0 1-.312.123.415.415 0 0 1-.306-.123c-.082-.082-.124-.219-.124-.408zm7.01-.79c0 .487-.154.897-.462 1.23-.305.333-.715.546-1.23.639v.032c.63.079 1.11.28 1.439.602.33.322.494.756.494 1.3 0 .734-.25 1.303-.751 1.708-.498.401-1.216.601-2.154.601-.799 0-1.495-.148-2.09-.445v-.532c.301.157.638.281 1.01.37.376.09.729.135 1.058.135.792 0 1.386-.16 1.783-.478.398-.323.597-.775.597-1.359 0-.519-.204-.919-.613-1.198-.404-.279-1.001-.419-1.788-.419h-.849v-.515h.859c.652 0 1.168-.154 1.547-.462.383-.312.575-.733.575-1.263 0-.436-.156-.786-.467-1.047-.308-.265-.713-.397-1.214-.397-.39 0-.747.055-1.069.166-.322.108-.684.294-1.085.559l-.263-.36a3.426 3.426 0 0 1 1.101-.602c.43-.15.865-.225 1.305-.225.723 0 1.282.172 1.676.515.394.34.591.822.591 1.445zm6.692 2.057c0 1.379-.211 2.399-.634 3.062-.419.662-1.054.993-1.906.993-.82 0-1.443-.34-1.87-1.02-.426-.684-.639-1.696-.639-3.035 0-1.368.206-2.381.618-3.04.415-.659 1.046-.988 1.891-.988.827 0 1.457.342 1.89 1.026.434.68.65 1.681.65 3.002zm-4.469 0c0 1.218.16 2.118.478 2.702.319.58.802.87 1.451.87.676 0 1.169-.301 1.477-.902.311-.602.467-1.492.467-2.67 0-1.16-.156-2.041-.467-2.642-.308-.602-.801-.903-1.477-.903-.677 0-1.168.301-1.472.903-.304.601-.457 1.482-.457 2.642zM24.704 372.654c0-1.021.137-1.878.413-2.573.28-.698.673-1.216 1.182-1.552.512-.337 1.128-.505 1.848-.505.336 0 .644.041.923.123v.473a2.725 2.725 0 0 0-.945-.145c-.884 0-1.574.319-2.068.956-.49.638-.766 1.565-.827 2.782h.07c.272-.351.584-.616.934-.795.351-.179.722-.268 1.112-.268.734 0 1.307.209 1.719.628.415.419.623.998.623 1.735 0 .802-.218 1.436-.655 1.902-.434.461-1.019.692-1.757.692-.795 0-1.423-.302-1.885-.907-.458-.609-.687-1.458-.687-2.546zm2.572 2.981c.588 0 1.044-.185 1.37-.553.326-.369.489-.896.489-1.58 0-.601-.161-1.07-.484-1.407-.322-.336-.76-.505-1.316-.505-.365 0-.705.081-1.02.242-.312.161-.56.376-.747.645-.186.265-.279.537-.279.816 0 .397.088.781.263 1.149.18.366.42.656.72.87.304.215.64.323 1.004.323zm11.43-4.157c0 1.031-.136 1.894-.408 2.588-.269.695-.663 1.209-1.182 1.542-.515.333-1.14.499-1.874.499-.373 0-.716-.046-1.032-.139v-.462c.154.05.339.089.554.118.218.025.385.038.5.038.884 0 1.576-.319 2.078-.956.501-.641.78-1.574.838-2.799h-.065a2.742 2.742 0 0 1-.934.795c-.362.183-.74.274-1.134.274-.726 0-1.294-.2-1.702-.601-.405-.402-.607-.971-.607-1.708 0-.788.222-1.426.666-1.913.447-.487 1.027-.73 1.74-.73.516 0 .967.136 1.354.408.386.269.684.664.891 1.187.211.523.317 1.142.317 1.859zm-2.562-2.981c-.566 0-1.017.191-1.353.574-.337.38-.505.901-.505 1.563 0 .623.155 1.096.467 1.418.312.323.757.484 1.337.484.362 0 .699-.081 1.01-.242.315-.161.564-.374.747-.639.186-.269.279-.541.279-.817 0-.419-.084-.811-.252-1.176a1.994 1.994 0 0 0-.699-.854 1.753 1.753 0 0 0-1.031-.311zM41.22 376l3.233-7.337h-4.442v-.516h5.081v.393L41.848 376h-.628zm7.374-4.721c.838 0 1.497.202 1.977.607.483.404.725.961.725 1.67 0 .806-.25 1.432-.752 1.88-.501.448-1.192.671-2.073.671-.39 0-.761-.037-1.112-.112a2.952 2.952 0 0 1-.881-.333v-.554c.387.197.73.335 1.031.414.301.075.621.113.962.113.687 0 1.239-.181 1.654-.543.415-.365.623-.857.623-1.477 0-.583-.202-1.042-.607-1.375-.404-.333-.954-.499-1.649-.499-.465 0-.952.07-1.46.209l-.323-.209.311-3.594h3.782v.516h-3.277l-.241 2.772c.558-.104.995-.156 1.31-.156zM25.794 338l3.233-7.337h-4.442v-.516h5.081v.393L26.422 338h-.628zm13.014-3.948c0 1.379-.211 2.399-.634 3.062-.419.662-1.054.993-1.906.993-.82 0-1.444-.34-1.87-1.02-.426-.684-.639-1.696-.639-3.035 0-1.368.206-2.381.618-3.04.415-.659 1.045-.988 1.89-.988.828 0 1.458.342 1.891 1.026.434.68.65 1.681.65 3.002zm-4.469 0c0 1.218.16 2.118.478 2.702.32.58.803.87 1.45.87.677 0 1.17-.301 1.478-.902.311-.602.467-1.492.467-2.67 0-1.16-.156-2.041-.467-2.642-.308-.602-.8-.903-1.477-.903s-1.168.301-1.472.903c-.304.601-.457 1.482-.457 2.642zm10.753 0c0 1.379-.211 2.399-.633 3.062-.42.662-1.055.993-1.907.993-.82 0-1.443-.34-1.87-1.02-.425-.684-.639-1.696-.639-3.035 0-1.368.206-2.381.618-3.04.416-.659 1.046-.988 1.89-.988.828 0 1.458.342 1.891 1.026.434.68.65 1.681.65 3.002zm-4.468 0c0 1.218.159 2.118.478 2.702.318.58.802.87 1.45.87.676 0 1.169-.301 1.477-.902.311-.602.467-1.492.467-2.67 0-1.16-.156-2.041-.467-2.642-.308-.602-.8-.903-1.477-.903s-1.168.301-1.472.903c-.304.601-.456 1.482-.456 2.642zm10.752 0c0 1.379-.21 2.399-.633 3.062-.42.662-1.055.993-1.907.993-.82 0-1.443-.34-1.87-1.02-.425-.684-.638-1.696-.638-3.035 0-1.368.205-2.381.617-3.04.416-.659 1.046-.988 1.89-.988.828 0 1.458.342 1.892 1.026.433.68.65 1.681.65 3.002zm-4.468 0c0 1.218.16 2.118.478 2.702.318.58.802.87 1.45.87.677 0 1.169-.301 1.477-.902.311-.602.467-1.492.467-2.67 0-1.16-.156-2.041-.467-2.642-.308-.602-.8-.903-1.477-.903s-1.167.301-1.472.903c-.304.601-.456 1.482-.456 2.642zM25.794 300l3.233-7.337h-4.442v-.516h5.081v.393L26.422 300h-.628zm13.014-3.948c0 1.379-.211 2.399-.634 3.062-.419.662-1.054.993-1.906.993-.82 0-1.444-.34-1.87-1.02-.426-.684-.639-1.696-.639-3.035 0-1.368.206-2.381.618-3.04.415-.659 1.045-.988 1.89-.988.828 0 1.458.342 1.891 1.026.434.68.65 1.681.65 3.002zm-4.469 0c0 1.218.16 2.118.478 2.702.32.58.803.87 1.45.87.677 0 1.17-.301 1.478-.902.311-.602.467-1.492.467-2.67 0-1.16-.156-2.041-.467-2.642-.308-.602-.8-.903-1.477-.903s-1.168.301-1.472.903c-.304.601-.457 1.482-.457 2.642zM44.947 300h-4.914v-.473l2.09-2.18c.586-.609.998-1.075 1.234-1.397.237-.322.41-.63.521-.924.111-.293.167-.601.167-.923 0-.47-.154-.851-.462-1.145-.308-.293-.707-.44-1.198-.44-.655 0-1.282.238-1.88.714l-.29-.37c.656-.552 1.382-.827 2.181-.827.684 0 1.221.182 1.611.548.394.365.591.868.591 1.509 0 .519-.132 1.022-.397 1.509-.262.483-.742 1.081-1.44 1.794l-2.014 2.068v.021h4.2V300zm3.647-4.721c.838 0 1.497.202 1.977.607.483.404.725.961.725 1.67 0 .806-.25 1.432-.752 1.88-.501.448-1.192.671-2.073.671-.39 0-.761-.037-1.112-.112a2.952 2.952 0 0 1-.881-.333v-.554c.387.197.73.335 1.031.414.301.075.621.113.962.113.687 0 1.239-.181 1.654-.543.415-.365.623-.857.623-1.477 0-.583-.202-1.042-.607-1.375-.404-.333-.954-.499-1.649-.499-.465 0-.952.07-1.46.209l-.323-.209.311-3.594h3.782v.516h-3.277l-.241 2.772c.558-.104.995-.156 1.31-.156zM25.794 262l3.233-7.337h-4.442v-.516h5.081v.393L26.422 262h-.628zm13.014-3.948c0 1.379-.211 2.399-.634 3.062-.419.662-1.054.993-1.906.993-.82 0-1.444-.34-1.87-1.02-.426-.684-.639-1.696-.639-3.035 0-1.368.206-2.381.618-3.04.415-.659 1.045-.988 1.89-.988.828 0 1.458.342 1.891 1.026.434.68.65 1.681.65 3.002zm-4.469 0c0 1.218.16 2.118.478 2.702.32.58.803.87 1.45.87.677 0 1.17-.301 1.478-.902.311-.602.467-1.492.467-2.67 0-1.16-.156-2.041-.467-2.642-.308-.602-.8-.903-1.477-.903s-1.168.301-1.472.903c-.304.601-.457 1.482-.457 2.642zm7.971-.773c.838 0 1.497.202 1.977.607.483.404.725.961.725 1.67 0 .806-.25 1.432-.752 1.88-.502.448-1.193.671-2.073.671-.39 0-.761-.037-1.112-.112a2.952 2.952 0 0 1-.881-.333v-.554c.387.197.73.335 1.031.414.3.075.621.113.962.113.687 0 1.239-.181 1.654-.543.415-.365.623-.857.623-1.477 0-.583-.202-1.042-.607-1.375-.405-.333-.954-.499-1.649-.499-.465 0-.953.07-1.46.209l-.323-.209.311-3.594h3.782v.516H41.24L41 257.435c.56-.104.996-.156 1.311-.156zm9.066.773c0 1.379-.21 2.399-.633 3.062-.42.662-1.055.993-1.907.993-.82 0-1.443-.34-1.87-1.02-.425-.684-.638-1.696-.638-3.035 0-1.368.205-2.381.617-3.04.416-.659 1.046-.988 1.89-.988.828 0 1.458.342 1.892 1.026.433.68.65 1.681.65 3.002zm-4.468 0c0 1.218.16 2.118.478 2.702.318.58.802.87 1.45.87.677 0 1.169-.301 1.477-.902.311-.602.467-1.492.467-2.67 0-1.16-.156-2.041-.467-2.642-.308-.602-.8-.903-1.477-.903s-1.167.301-1.472.903c-.304.601-.456 1.482-.456 2.642zM25.794 224l3.233-7.337h-4.442v-.516h5.081v.393L26.422 224h-.628zm13.014-3.948c0 1.379-.211 2.399-.634 3.062-.419.662-1.054.993-1.906.993-.82 0-1.444-.34-1.87-1.02-.426-.684-.639-1.696-.639-3.035 0-1.368.206-2.381.618-3.04.415-.659 1.045-.988 1.89-.988.828 0 1.458.342 1.891 1.026.434.68.65 1.681.65 3.002zm-4.469 0c0 1.218.16 2.118.478 2.702.32.58.803.87 1.45.87.677 0 1.17-.301 1.478-.902.311-.602.467-1.492.467-2.67 0-1.16-.156-2.041-.467-2.642-.308-.602-.8-.903-1.477-.903s-1.168.301-1.472.903c-.304.601-.457 1.482-.457 2.642zM41.22 224l3.234-7.337h-4.442v-.516h5.081v.393L41.848 224h-.628zm7.375-4.721c.838 0 1.497.202 1.977.607.483.404.725.961.725 1.67 0 .806-.25 1.432-.752 1.88-.501.448-1.192.671-2.073.671-.39 0-.761-.037-1.112-.112a2.952 2.952 0 0 1-.881-.333v-.554c.387.197.73.335 1.031.414.301.075.621.113.962.113.687 0 1.239-.181 1.654-.543.415-.365.623-.857.623-1.477 0-.583-.202-1.042-.607-1.375-.404-.333-.954-.499-1.649-.499-.465 0-.952.07-1.46.209l-.323-.209.311-3.594h3.782v.516h-3.277l-.241 2.772c.558-.104.995-.156 1.31-.156zM25.794 186l3.233-7.337h-4.442v-.516h5.081v.393L26.422 186h-.628zm11.01 0h-.526v-5.72c0-.519.022-1.058.065-1.617-.054.054-.11.106-.167.156-.057.05-.61.485-1.66 1.305l-.306-.381 2.133-1.596h.462V186zm8.288-3.948c0 1.379-.211 2.399-.633 3.062-.42.662-1.055.993-1.907.993-.82 0-1.443-.34-1.87-1.02-.425-.684-.639-1.696-.639-3.035 0-1.368.206-2.381.618-3.04.416-.659 1.046-.988 1.89-.988.828 0 1.458.342 1.891 1.026.434.68.65 1.681.65 3.002zm-4.468 0c0 1.218.159 2.118.478 2.702.318.58.802.87 1.45.87.676 0 1.169-.301 1.477-.902.311-.602.467-1.492.467-2.67 0-1.16-.156-2.041-.467-2.642-.308-.602-.8-.903-1.477-.903s-1.168.301-1.472.903c-.304.601-.456 1.482-.456 2.642zm10.752 0c0 1.379-.21 2.399-.633 3.062-.42.662-1.055.993-1.907.993-.82 0-1.443-.34-1.87-1.02-.425-.684-.638-1.696-.638-3.035 0-1.368.205-2.381.617-3.04.416-.659 1.046-.988 1.89-.988.828 0 1.458.342 1.892 1.026.433.68.65 1.681.65 3.002zm-4.468 0c0 1.218.16 2.118.478 2.702.318.58.802.87 1.45.87.677 0 1.169-.301 1.477-.902.311-.602.467-1.492.467-2.67 0-1.16-.156-2.041-.467-2.642-.308-.602-.8-.903-1.477-.903s-1.167.301-1.472.903c-.304.601-.456 1.482-.456 2.642z" fill="#000" fill-opacity=".65"/><path d="M30.9 143.386c0 .897-.305 1.585-.914 2.063-.61.478-1.473.717-2.59.717h-1.435V150h-.647v-9.28h2.272c2.21 0 3.314.888 3.314 2.666zm-4.939 2.221h1.276c1.046 0 1.8-.171 2.266-.514.466-.347.699-.907.699-1.682 0-.715-.22-1.244-.66-1.587-.44-.347-1.122-.52-2.044-.52H25.96v4.303zm9.516-2.64c.292 0 .605.029.939.089l-.12.603a3.674 3.674 0 0 0-.896-.108c-.588 0-1.07.249-1.447.749-.377.499-.565 1.13-.565 1.891V150h-.628v-6.9h.533l.063 1.244h.045c.283-.508.586-.863.908-1.066.321-.208.71-.311 1.168-.311zM38.454 150h-.629v-6.9h.629v6.9zm-.718-8.817c0-.406.134-.609.4-.609.131 0 .233.053.305.158.076.106.114.256.114.451 0 .191-.038.341-.114.451a.344.344 0 0 1-.305.165c-.266 0-.4-.205-.4-.616zm5.79 8.944c-.987 0-1.759-.311-2.318-.933-.558-.622-.837-1.49-.837-2.603 0-1.142.29-2.031.87-2.666.579-.639 1.372-.958 2.38-.958.596 0 1.168.103 1.713.311l-.17.558c-.598-.198-1.116-.298-1.556-.298-.846 0-1.488.262-1.923.787-.436.521-.654 1.272-.654 2.254 0 .931.218 1.661.654 2.19.435.524 1.045.787 1.828.787.626 0 1.208-.112 1.745-.337v.584c-.44.216-1.017.324-1.733.324zm6.214 0c-1.003 0-1.786-.309-2.349-.927-.558-.618-.838-1.483-.838-2.596 0-1.1.271-1.98.813-2.641.541-.664 1.271-.996 2.19-.996.812 0 1.453.283 1.923.85s.705 1.338.705 2.311v.508h-4.97c.008.948.228 1.671.66 2.171.435.499 1.057.749 1.866.749.393 0 .738-.028 1.034-.083.3-.055.68-.173 1.137-.355v.571c-.39.169-.75.283-1.08.343-.33.063-.694.095-1.091.095zm-.184-6.602c-.665 0-1.198.22-1.6.661-.402.435-.637 1.066-.705 1.891h4.266c0-.8-.173-1.424-.52-1.872-.347-.453-.828-.68-1.441-.68z" fill="#000" fill-opacity=".9"/><g filter="url(#l)"><path fill-rule="evenodd" clip-rule="evenodd" d="M377 214a4 4 0 0 0-4 4v28a4 4 0 0 0 4 4h54.767c.023.085.057.169.104.25l4.763 8.25a1 1 0 0 0 1.732 0l4.763-8.25c.047-.081.081-.165.104-.25H454a4 4 0 0 0 4-4v-28a4 4 0 0 0-4-4h-77z" fill="#F44336"/></g><path d="M386.543 234.225c0 .902-.326 1.613-.978 2.132-.647.52-1.549.78-2.707.78-1.066 0-2.009-.201-2.83-.602v-1.969c.675.301 1.244.513 1.709.636.47.123.898.185 1.285.185.465 0 .821-.089 1.067-.267.251-.178.376-.442.376-.793a.86.86 0 0 0-.164-.519 1.802 1.802 0 0 0-.486-.445c-.209-.141-.64-.367-1.292-.676-.61-.288-1.068-.563-1.374-.828a3.108 3.108 0 0 1-.731-.922c-.182-.351-.273-.762-.273-1.231 0-.884.298-1.579.895-2.085.602-.506 1.431-.759 2.488-.759.52 0 1.014.062 1.484.185.474.123.968.296 1.483.519l-.683 1.648a9.83 9.83 0 0 0-1.327-.458 4.193 4.193 0 0 0-1.025-.13c-.401 0-.709.093-.923.28a.926.926 0 0 0-.321.732c0 .187.043.351.13.492.086.137.223.271.41.403.191.128.64.36 1.347.697.934.447 1.574.896 1.92 1.347.347.447.52.996.52 1.648zm4.812-3.528c-.442 0-.788.142-1.039.424-.25.278-.394.675-.43 1.19h2.926c-.01-.515-.144-.912-.404-1.19-.26-.282-.61-.424-1.053-.424zm.294 6.44c-1.23 0-2.192-.34-2.884-1.019-.693-.679-1.039-1.64-1.039-2.885 0-1.28.319-2.269.957-2.966.642-.702 1.529-1.053 2.659-1.053 1.08 0 1.921.307 2.522.923.602.615.903 1.465.903 2.55v1.011h-4.929c.023.593.198 1.055.526 1.388.328.333.789.499 1.381.499.46 0 .896-.048 1.306-.144.41-.095.838-.248 1.285-.458v1.614a4.823 4.823 0 0 1-1.169.403c-.415.091-.921.137-1.518.137zm6.898-.137h-2.085v-10.637h2.085V237zm4.279 0h-2.085v-10.637h2.085V237zm12.202-3.124c0 .725-.262 1.308-.786 1.75-.524.437-1.258.7-2.201.786v1.401h-.937v-1.374c-1.111-.022-2.087-.218-2.925-.587v-1.805c.396.196.872.369 1.428.519.561.151 1.06.24 1.497.267v-2.119l-.458-.178c-.902-.355-1.542-.74-1.92-1.155-.374-.419-.561-.937-.561-1.552 0-.661.258-1.203.773-1.627.519-.428 1.241-.688 2.166-.779v-1.046h.937v1.019c1.044.045 1.987.255 2.83.628l-.642 1.6a7.391 7.391 0 0 0-2.188-.533v2.016c.889.342 1.52.638 1.894.889.378.251.654.526.827.827.177.301.266.652.266 1.053zm-2.057.103a.615.615 0 0 0-.233-.486c-.155-.132-.387-.269-.697-.41v1.702c.62-.105.93-.374.93-.806zm-2.748-4.15c0 .201.068.367.205.499.141.128.367.26.676.397v-1.607c-.587.087-.881.324-.881.711zm6.89 7.171 3.753-8.203h-4.928v-1.777h7.17v1.326l-3.78 8.654h-2.215zm9.584-1.47c-.237.921-.638 2.012-1.203 3.275h-1.504c.296-1.213.527-2.356.691-3.432h1.914l.102.157zm8.415-3.527c0 1.745-.287 3.037-.861 3.876-.57.838-1.449 1.258-2.639 1.258-1.153 0-2.023-.433-2.611-1.299-.583-.866-.875-2.144-.875-3.835 0-1.764.285-3.063.854-3.897.57-.838 1.447-1.257 2.632-1.257 1.153 0 2.024.437 2.612 1.312.592.875.888 2.156.888 3.842zm-4.887 0c0 1.226.104 2.105.314 2.639.214.528.572.793 1.073.793.492 0 .848-.269 1.067-.807.218-.538.328-1.413.328-2.625 0-1.226-.112-2.106-.335-2.639-.219-.538-.572-.806-1.06-.806-.496 0-.852.268-1.066.806-.214.533-.321 1.413-.321 2.639zm13.166 2.926h-1.203V237h-2.065v-2.071h-4.266v-1.47l4.382-6.453h1.949v6.282h1.203v1.641zm-3.268-1.641v-1.695c0-.283.011-.693.034-1.231.023-.537.041-.85.055-.936h-.055a7.627 7.627 0 0 1-.608 1.094l-1.832 2.768h2.406zm7.69-2.673c.967 0 1.735.271 2.304.814.574.542.862 1.285.862 2.228 0 1.117-.345 1.976-1.033 2.577-.688.602-1.672.903-2.953.903-1.112 0-2.01-.18-2.693-.54v-1.826c.36.192.779.349 1.258.472.478.119.932.178 1.36.178 1.29 0 1.935-.529 1.935-1.586 0-1.007-.668-1.511-2.003-1.511-.242 0-.509.025-.8.075a5.503 5.503 0 0 0-.711.151l-.841-.451.376-5.093h5.421v1.791h-3.568l-.185 1.962.239-.048a4.69 4.69 0 0 1 1.032-.096z" fill="#fff"/><g filter="url(#m)"><g opacity=".9"><circle cx="438" cy="270" r="7" fill="#fff"/><circle cx="438" cy="270" r="6.95" stroke="#000" stroke-opacity=".2" stroke-width=".1"/></g><circle cx="438" cy="270" r="4" fill="#F44336"/></g></g><defs><linearGradient id="e" x1="351.5" y1="178" x2="391" y2="485.5" gradientUnits="userSpaceOnUse"><stop stop-color="#48A6EB" stop-opacity=".1"/><stop offset="1" stop-color="#48A6EB" stop-opacity="0"/></linearGradient><linearGradient id="c" x1="351.5" y1="178" x2="391" y2="485.5" gradientUnits="userSpaceOnUse"><stop stop-color="#48A6EB" stop-opacity=".1"/><stop offset="1" stop-color="#48A6EB" stop-opacity="0"/></linearGradient><linearGradient id="f" x1="351.5" y1="178" x2="391" y2="485.5" gradientUnits="userSpaceOnUse"><stop stop-color="#48A6EB" stop-opacity=".1"/><stop offset="1" stop-color="#48A6EB" stop-opacity="0"/></linearGradient><linearGradient id="g" x1="351.5" y1="178" x2="391" y2="485.5" gradientUnits="userSpaceOnUse"><stop stop-color="#48A6EB" stop-opacity=".1"/><stop offset="1" stop-color="#48A6EB" stop-opacity="0"/></linearGradient><linearGradient id="h" x1="351.5" y1="178" x2="391" y2="485.5" gradientUnits="userSpaceOnUse"><stop stop-color="#48A6EB" stop-opacity=".1"/><stop offset="1" stop-color="#48A6EB" stop-opacity="0"/></linearGradient><filter id="i" x="50.25" y="173.613" width="602.5" height="227.422" filterUnits="userSpaceOnUse" color-interpolation-filters="sRGB"><feFlood flood-opacity="0" result="BackgroundImageFix"/><feColorMatrix in="SourceAlpha" values="0 0 0 0 0 0 0 0 0 0 0 0 0 0 0 0 0 0 127 0" result="hardAlpha"/><feOffset dy="2"/><feGaussianBlur stdDeviation="2"/><feColorMatrix values="0 0 0 0 0.196487 0 0 0 0 0.196487 0 0 0 0 0.279476 0 0 0 0.06 0"/><feBlend mode="multiply" in2="BackgroundImageFix" result="effect1_dropShadow_2575:20764"/><feColorMatrix in="SourceAlpha" values="0 0 0 0 0 0 0 0 0 0 0 0 0 0 0 0 0 0 127 0" result="hardAlpha"/><feOffset dy="2"/><feGaussianBlur stdDeviation="1"/><feColorMatrix values="0 0 0 0 0.196487 0 0 0 0 0.196487 0 0 0 0 0.279476 0 0 0 0.06 0"/><feBlend mode="multiply" in2="effect1_dropShadow_2575:20764" result="effect2_dropShadow_2575:20764"/><feBlend in="SourceGraphic" in2="effect2_dropShadow_2575:20764" result="shape"/></filter><filter id="j" x="203" y="269" width="101" height="61" filterUnits="userSpaceOnUse" color-interpolation-filters="sRGB"><feFlood flood-opacity="0" result="BackgroundImageFix"/><feColorMatrix in="SourceAlpha" values="0 0 0 0 0 0 0 0 0 0 0 0 0 0 0 0 0 0 127 0" result="hardAlpha"/><feOffset dy="4"/><feGaussianBlur stdDeviation="4"/><feColorMatrix values="0 0 0 0 0.196487 0 0 0 0 0.196487 0 0 0 0 0.279476 0 0 0 0.06 0"/><feBlend mode="multiply" in2="BackgroundImageFix" result="effect1_dropShadow_2575:20764"/><feColorMatrix in="SourceAlpha" values="0 0 0 0 0 0 0 0 0 0 0 0 0 0 0 0 0 0 127 0" result="hardAlpha"/><feOffset/><feGaussianBlur stdDeviation="2"/><feColorMatrix values="0 0 0 0 0.196487 0 0 0 0 0.196487 0 0 0 0 0.279476 0 0 0 0.08 0"/><feBlend mode="multiply" in2="effect1_dropShadow_2575:20764" result="effect2_dropShadow_2575:20764"/><feBlend in="SourceGraphic" in2="effect2_dropShadow_2575:20764" result="shape"/></filter><filter id="k" x="261" y="323" width="30" height="30" filterUnits="userSpaceOnUse" color-interpolation-filters="sRGB"><feFlood flood-opacity="0" result="BackgroundImageFix"/><feColorMatrix in="SourceAlpha" values="0 0 0 0 0 0 0 0 0 0 0 0 0 0 0 0 0 0 127 0" result="hardAlpha"/><feOffset dy="4"/><feGaussianBlur stdDeviation="4"/><feColorMatrix values="0 0 0 0 0.196487 0 0 0 0 0.196487 0 0 0 0 0.279476 0 0 0 0.06 0"/><feBlend mode="multiply" in2="BackgroundImageFix" result="effect1_dropShadow_2575:20764"/><feColorMatrix in="SourceAlpha" values="0 0 0 0 0 0 0 0 0 0 0 0 0 0 0 0 0 0 127 0" result="hardAlpha"/><feOffset dy="4"/><feGaussianBlur stdDeviation="2"/><feColorMatrix values="0 0 0 0 0.196487 0 0 0 0 0.196487 0 0 0 0 0.279476 0 0 0 0.08 0"/><feBlend mode="multiply" in2="effect1_dropShadow_2575:20764" result="effect2_dropShadow_2575:20764"/><feBlend in="SourceGraphic" in2="effect2_dropShadow_2575:20764" result="shape"/></filter><filter id="l" x="365" y="210" width="101" height="61" filterUnits="userSpaceOnUse" color-interpolation-filters="sRGB"><feFlood flood-opacity="0" result="BackgroundImageFix"/><feColorMatrix in="SourceAlpha" values="0 0 0 0 0 0 0 0 0 0 0 0 0 0 0 0 0 0 127 0" result="hardAlpha"/><feOffset dy="4"/><feGaussianBlur stdDeviation="4"/><feColorMatrix values="0 0 0 0 0.196487 0 0 0 0 0.196487 0 0 0 0 0.279476 0 0 0 0.06 0"/><feBlend mode="multiply" in2="BackgroundImageFix" result="effect1_dropShadow_2575:20764"/><feColorMatrix in="SourceAlpha" values="0 0 0 0 0 0 0 0 0 0 0 0 0 0 0 0 0 0 127 0" result="hardAlpha"/><feOffset/><feGaussianBlur stdDeviation="2"/><feColorMatrix values="0 0 0 0 0.196487 0 0 0 0 0.196487 0 0 0 0 0.279476 0 0 0 0.08 0"/><feBlend mode="multiply" in2="effect1_dropShadow_2575:20764" result="effect2_dropShadow_2575:20764"/><feBlend in="SourceGraphic" in2="effect2_dropShadow_2575:20764" result="shape"/></filter><filter id="m" x="423" y="259" width="30" height="30" filterUnits="userSpaceOnUse" color-interpolation-filters="sRGB"><feFlood flood-opacity="0" result="BackgroundImageFix"/><feColorMatrix in="SourceAlpha" values="0 0 0 0 0 0 0 0 0 0 0 0 0 0 0 0 0 0 127 0" result="hardAlpha"/><feOffset dy="4"/><feGaussianBlur stdDeviation="4"/><feColorMatrix values="0 0 0 0 0.196487 0 0 0 0 0.196487 0 0 0 0 0.279476 0 0 0 0.06 0"/><feBlend mode="multiply" in2="BackgroundImageFix" result="effect1_dropShadow_2575:20764"/><feColorMatrix in="SourceAlpha" values="0 0 0 0 0 0 0 0 0 0 0 0 0 0 0 0 0 0 127 0" result="hardAlpha"/><feOffset dy="4"/><feGaussianBlur stdDeviation="2"/><feColorMatrix values="0 0 0 0 0.196487 0 0 0 0 0.196487 0 0 0 0 0.279476 0 0 0 0.08 0"/><feBlend mode="multiply" in2="effect1_dropShadow_2575:20764" result="effect2_dropShadow_2575:20764"/><feBlend in="SourceGraphic" in2="effect2_dropShadow_2575:20764" result="shape"/></filter><clipPath id="a"><path fill="#fff" transform="translate(25 136)" d="M0 0h623v347H0z"/></clipPath><clipPath id="b"><path fill="#fff" transform="translate(54 154)" d="M0 0h594v329H0z"/></clipPath><clipPath id="d"><path fill="#fff" transform="translate(283 178)" d="M0 0h158v267H0z"/></clipPath></defs></svg>