<svg width="72" height="72" viewBox="0 0 72 72" fill="none" xmlns="http://www.w3.org/2000/svg">
<g clip-path="url(#clip0)">
<path d="M31.5972 3.69418C32.7821 4.7852 34.337 5.39123 35.9513 5.39123C37.5656 5.39123 39.1205 4.7852 40.3054 3.69418V3.69418C41.2515 2.82633 42.4375 2.26086 43.7099 2.07086C44.9824 1.88085 46.2829 2.07506 47.4432 2.62836C48.6036 3.18167 49.5705 4.06864 50.219 5.17461C50.8675 6.28058 51.1677 7.5547 51.0809 8.83226V8.83226C50.967 10.4358 51.4636 12.0232 52.472 13.2791C53.4804 14.5349 54.9268 15.367 56.5235 15.6102V15.6102C57.8006 15.7992 58.9907 16.367 59.9386 17.2394C60.8865 18.1118 61.5481 19.2483 61.8371 20.5006C62.1261 21.7529 62.029 23.0628 61.5586 24.2593C61.0881 25.4559 60.2661 26.4835 59.1999 27.2081V27.2081C57.8728 28.1195 56.9395 29.4951 56.586 31.0606C56.2325 32.6262 56.4848 34.2669 57.2925 35.6557V35.6557C57.9359 36.7667 58.2286 38.0447 58.1324 39.3235C58.0362 40.6023 57.5556 41.8227 56.7531 42.8261C55.9506 43.8294 54.8634 44.5693 53.6327 44.9495C52.402 45.3297 51.0849 45.3326 49.8525 44.9579V44.9579C48.3067 44.4889 46.64 44.6172 45.1851 45.3172C43.7301 46.0172 42.5939 47.2375 42.0031 48.7344V48.7344C41.5367 49.9391 40.7145 50.9749 39.645 51.7055C38.5754 52.4361 37.3085 52.8271 36.0112 52.8271C34.7139 52.8271 33.4471 52.4361 32.3775 51.7055C31.3079 50.9749 30.4858 49.9391 30.0193 48.7344V48.7344C29.4248 47.2392 28.2849 46.0226 26.8276 45.3279C25.3704 44.6332 23.7033 44.5117 22.1599 44.9877C20.9283 45.3607 19.6126 45.3573 18.3829 44.9779C17.1533 44.5985 16.0664 43.8606 15.2628 42.8597C14.4592 41.8587 13.976 40.6408 13.8757 39.3636C13.7754 38.0863 14.0625 36.8085 14.7 35.6954V35.6954C15.5142 34.2988 15.7671 32.6473 15.4077 31.0728C15.0482 29.4983 14.1032 28.1175 12.7626 27.2081V27.2081C11.7096 26.4828 10.899 25.4604 10.4352 24.2725C9.97144 23.0845 9.87575 21.7856 10.1605 20.5431C10.4452 19.3006 11.0973 18.1714 12.0328 17.3011C12.9683 16.4307 14.1442 15.8591 15.409 15.6599V15.6599C17.0058 15.412 18.4503 14.5751 19.4551 13.3155C20.4599 12.0558 20.9514 10.4659 20.8317 8.86208C20.7404 7.58391 21.0366 6.30788 21.6822 5.19916C22.3278 4.09044 23.2929 3.20009 24.4526 2.64337C25.6124 2.08664 26.9133 1.88917 28.1871 2.07651C29.4609 2.26386 30.6489 2.8274 31.5972 3.69418V3.69418Z" stroke="black" stroke-width="1.2" stroke-miterlimit="10"/>
<path d="M21.1213 21.4241C19.8953 25.1657 20.144 29.2312 21.8172 32.7972C23.4903 36.3632 26.4628 39.1631 30.1326 40.6298C33.8023 42.0965 37.8951 42.1203 41.5819 40.6965C45.2687 39.2728 48.2739 36.5077 49.9889 32.9615C51.704 29.4153 52.0006 25.353 50.8187 21.5973C49.6368 17.8416 47.0647 14.6733 43.6235 12.7341C40.1822 10.7949 36.129 10.2297 32.2847 11.1531C28.4404 12.0765 25.0925 14.4193 22.9189 17.7072" stroke="black" stroke-width="1.2" stroke-linecap="round" stroke-linejoin="round"/>
<path d="M34.7829 20.7185H34.723L32.9853 21.5533C32.759 21.659 32.5117 21.7127 32.2617 21.7105C32.0117 21.7083 31.7654 21.6502 31.541 21.5404C31.3167 21.4307 31.12 21.2722 30.9655 21.0765C30.811 20.8809 30.7026 20.6533 30.6485 20.4104V20.4104C30.5697 20.0443 30.6175 19.6625 30.7843 19.3269C30.9511 18.9913 31.227 18.7217 31.5672 18.5619L35.0625 16.9419C35.2822 16.8431 35.5205 16.7923 35.7616 16.7929H37.4293C37.869 16.7929 38.2906 16.9667 38.6015 17.2761C38.9124 17.5854 39.0871 18.0051 39.0871 18.4426V34.0656C39.0871 34.5031 38.9124 34.9227 38.6015 35.2321C38.2906 35.5415 37.869 35.7153 37.4293 35.7153H36.4307C35.991 35.7153 35.5693 35.5415 35.2584 35.2321C34.9476 34.9227 34.7729 34.5031 34.7729 34.0656L34.7829 20.7185Z" stroke="#52AFEE" stroke-width="1.2" stroke-miterlimit="10"/>
<path d="M31 57.5L25.3188 69.8013C25.1865 70.0925 24.9716 70.3384 24.7004 70.5088C24.4293 70.6793 24.1138 70.7668 23.7927 70.7606C23.4717 70.7544 23.1591 70.6548 22.8935 70.474C22.6279 70.2932 22.4208 70.0392 22.2978 69.7431L18.4636 60.4371C18.292 60.0141 17.9636 59.6727 17.5467 59.484C17.1298 59.2953 16.6566 59.2739 16.2255 59.4242L6.71272 62.6895C6.40908 62.7925 6.08154 62.8046 5.77041 62.7244C5.45928 62.6442 5.17815 62.4751 4.96162 62.238C4.74508 62.0009 4.6026 61.7061 4.55171 61.3899C4.50081 61.0737 4.54373 60.7499 4.67518 60.4583L14 40.5" stroke="black" stroke-width="1.2" stroke-linecap="round" stroke-linejoin="round"/>
<path d="M38.5 52.5L46.7117 69.8013C46.844 70.0925 47.0589 70.3384 47.3301 70.5088C47.6012 70.6793 47.9167 70.7668 48.2378 70.7606C48.5588 70.7544 48.8714 70.6548 49.137 70.474C49.4026 70.2932 49.6097 70.0392 49.7327 69.7431L53.5669 60.4371C53.7385 60.0141 54.0669 59.6727 54.4838 59.484C54.9007 59.2953 55.3739 59.2739 55.805 59.4242L65.3178 62.6895C65.6214 62.7925 65.9489 62.8046 66.2601 62.7244C66.5712 62.6442 66.8523 62.4751 67.0689 62.238C67.2854 62.0009 67.4279 61.7061 67.4788 61.3899C67.5297 61.0737 67.4867 60.7499 67.3553 60.4583L58.0657 39.985" stroke="black" stroke-width="1.2" stroke-linecap="round" stroke-linejoin="round"/>
</g>
<defs>
<clipPath id="clip0">
<rect width="72" height="72" fill="white"/>
</clipPath>
</defs>
</svg>
