<svg width="24" height="24" viewBox="0 0 24 24" fill="none" xmlns="http://www.w3.org/2000/svg">
<path d="M14.1277 7.73296C14.206 7.19893 14.5312 6.78005 14.8922 6.72617C14.9428 6.71794 14.9944 6.71794 15.045 6.72617C15.4658 6.78428 15.7458 7.33891 15.6567 7.94795L15.2489 10.6714C14.803 10.5949 14.2381 10.6324 13.6857 10.7047L14.1277 7.73296Z" fill="white"/>
<path d="M10.8996 7.02356C10.9485 7.00549 10.9997 6.99428 11.0519 6.99028C11.4172 6.97391 11.8169 7.30827 12.0034 7.81589L13.0908 10.7871C12.6732 10.8621 12.2594 10.9557 11.8506 11.0676C11.7614 11.0924 11.681 11.15 11.613 11.216L10.5592 8.32773C10.3472 7.74722 10.5 7.16143 10.8996 7.02356Z" fill="white"/>
<path d="M9.25105 10.7042C9.38481 10.5927 9.56369 10.5436 9.72681 10.5558C9.80879 10.562 9.88918 10.5842 9.96214 10.621C10.0351 10.6579 10.0997 10.7086 10.152 10.7702L11.4085 12.2064C11.5119 12.332 11.5612 12.4916 11.5459 12.6516C11.5305 12.8117 11.4519 12.9598 11.3265 13.0646C11.2011 13.1695 11.0386 13.223 10.8734 13.2139C10.7082 13.2047 10.5531 13.1337 10.4407 13.0157L9.18308 11.5795C9.12839 11.5176 9.08676 11.446 9.06058 11.3685C9.03439 11.2911 9.02416 11.2094 9.03047 11.1281C9.03678 11.0469 9.05951 10.9676 9.09736 10.8949C9.13521 10.8221 9.18743 10.7573 9.25105 10.7042Z" fill="white"/>
<path d="M12.6504 11.4319C13.2038 11.3287 13.9411 11.1911 14.5355 11.1997C14.7796 11.2039 15.0069 11.2319 15.1809 11.2984C16.1814 11.6777 15.8247 13.3432 15.5207 14.4508C14.9563 16.5104 13.9341 17.1955 12.1399 17.2736C10.3602 17.3518 9.43592 16.7037 8.70733 15.5733C8.33379 14.9917 7.71557 13.1778 8.65622 12.5857C8.71984 12.5326 8.7936 12.4921 8.87331 12.4667C8.95302 12.4413 9.03711 12.4313 9.12077 12.4374C9.20443 12.4436 9.28603 12.4657 9.3609 12.5024C9.43578 12.5392 9.50247 12.5899 9.55717 12.6517L10.3891 13.593C10.4898 13.7188 10.5368 13.8774 10.5205 14.036C10.5041 14.1945 10.4256 14.3409 10.3012 14.4448C10.1768 14.5486 10.0161 14.6021 9.85227 14.5939C9.68845 14.5858 9.53411 14.5168 9.42124 14.4012L8.58825 13.4604C8.76442 13.7827 9.11729 14.416 9.30216 14.6822C9.57402 15.072 10.2281 15.1919 10.6441 14.847C10.9882 14.5623 11.1008 14.1207 10.9502 13.7742C11.2174 13.7851 11.4788 13.6965 11.681 13.5265C11.8827 13.3595 11.9827 13.1884 12.0208 12.9655C12.1246 13.1055 12.5536 13.1678 12.8364 13.1308L13.6688 13.0146C13.6688 13.0146 11.252 14.1619 12.5476 15.7064C11.9441 14.2121 14.2974 13.2132 14.2974 13.2132L14.2468 12.553L12.5645 12.5862C12.2671 12.5905 11.9778 12.4542 11.9017 12.1732C11.8212 11.8826 11.9865 11.5504 12.2926 11.497C12.3987 11.4788 12.5194 11.4563 12.6504 11.4319Z" fill="white"/>
<path fill-rule="evenodd" clip-rule="evenodd" d="M24 12C24 18.6274 18.6274 24 12 24C5.37258 24 0 18.6274 0 12C0 5.37258 5.37258 0 12 0C18.6274 0 24 5.37258 24 12ZM22.56 12C22.56 17.8321 17.8321 22.56 12 22.56C6.16787 22.56 1.44 17.8321 1.44 12C1.44 6.16787 6.16787 1.44 12 1.44C17.8321 1.44 22.56 6.16787 22.56 12Z" fill="white"/>
</svg>
