<svg xmlns="http://www.w3.org/2000/svg" width="55" height="56" viewBox="0 0 55 56">
    <g fill="none" fill-rule="evenodd" stroke="#FFF" stroke-width=".5">
        <path fill="#000" fill-rule="nonzero" d="M54.398 40.668l-3.903-11.732a2.334 2.334 0 0 0-2.224-1.592h-7.568a2.285 2.285 0 0 0 0-1.449L36.8 14.163a2.335 2.335 0 0 0-2.224-1.592H26.16a.8.8 0 0 0-.803.795.8.8 0 0 0 .803.795h8.416c.318 0 .598.2.697.499l3.903 11.732a.734.734 0 0 1 .037.229.73.73 0 0 1-.734.722H16.52a.73.73 0 0 1-.735-.722c0-.077.013-.154.038-.23l3.902-11.731c.1-.299.38-.499.697-.499h2.522a.799.799 0 0 0 .804-.795.8.8 0 0 0-.804-.795h-2.522c-1.014 0-1.907.64-2.224 1.592-4.195 12.613-4.229 12.208-3.903 13.18h-3.375c.129-.065.388-.173.586-.488a1.191 1.191 0 0 0-.569-1.74c-2.477-.998-3.624-4.895-3.915-6.067-.236-.94-1.607-.951-1.845 0-.293 1.172-1.438 5.07-3.916 6.067-.959.385-1.015 1.721-.073 2.182.766.374 1.895 1.243 2.78 3.246L.601 40.668c-.5 1.513.647 3.038 2.224 3.038h21.959c1.588 0 2.723-1.537 2.224-3.038L25.9 37.343a.806.806 0 0 0-1.015-.508.794.794 0 0 0-.512 1.004c1.206 3.623 1.144 3.39 1.144 3.554a.73.73 0 0 1-.734.723H2.825a.728.728 0 0 1-.696-.952l2.667-8.017c.147.676.27 1.427.36 2.26.12 1.112 1.768 1.113 1.888 0 .352-3.258 1.208-5.253 2.104-6.474h11.733c.317 0 .598.2.697.5l1.792 5.386a.806.806 0 0 0 1.015.507.794.794 0 0 0 .512-1.003l-1.792-5.387-.001-.003h8.791v.003l-3.903 11.732c-.498 1.498.628 3.038 2.224 3.038h14.463c-.384.405-.824.736-1.322.936a1.16 1.16 0 0 0-.073 2.124c1.11.541 3.055 2.224 3.615 7.41.117 1.096 1.745 1.1 1.865 0 .56-5.184 2.505-6.868 3.616-7.41.91-.445.864-1.746-.073-2.124-.499-.2-.937-.531-1.322-.936h1.189c1.595 0 2.724-1.54 2.224-3.038zM6.1 31.737c-.604-2.133-1.678-4.269-3.544-5.49 1.778-1.05 2.889-3.09 3.543-4.791.655 1.7 1.766 3.742 3.544 4.79C7.78 27.47 6.709 29.6 6.1 31.737zm41.73 18.826c-.78-2.614-1.998-4.041-3.14-4.818 1.502-.927 2.492-2.612 3.14-4.234.65 1.625 1.643 3.309 3.141 4.234-1.14.778-2.359 2.206-3.14 4.818zm2.044-8.447c-.635-1.193-.992-2.447-1.133-3.01-.232-.935-1.586-.94-1.821 0-.14.563-.498 1.817-1.132 3.01H30.216a.728.728 0 0 1-.697-.952l3.903-11.732a.73.73 0 0 1 .696-.499h14.153c.319 0 .598.2.697.5l3.902 11.73c.158.47-.199.953-.696.953h-2.3z"/>
        <path fill="#51AFED" d="M40.752 11.03c1.415.692 3.896 2.828 4.603 9.37.124 1.136 1.8 1.13 1.922 0 .706-6.538 3.188-8.678 4.604-9.37.98-.48.928-1.877-.078-2.282-.563-.227-1.104-.597-1.606-1.102a.805.805 0 0 0-1.131-.008.786.786 0 0 0-.008 1.12c.48.482.996.874 1.539 1.17-1.556.96-3.284 2.888-4.281 6.742-.997-3.855-2.726-5.783-4.28-6.742 2.207-1.208 3.536-3.778 4.279-5.813.214.587.475 1.214.79 1.84a.804.804 0 0 0 1.074.355.788.788 0 0 0 .359-1.062c-.698-1.384-1.103-2.8-1.283-3.52a.965.965 0 0 0-.94-.728c-.445 0-.83.3-.938.727-.337 1.354-1.664 5.859-4.549 7.02-1.005.405-1.059 1.803-.076 2.282z"/>
    </g>
</svg>
