<svg width="10" height="10" viewBox="0 0 10 10" fill="none" xmlns="http://www.w3.org/2000/svg">
<path fill-rule="evenodd" clip-rule="evenodd" d="M0.136923 0.81159C0.0491198 0.72125 0 0.600236 0 0.474257C0 0.348278 0.0491198 0.227263 0.136923 0.136923C0.227263 0.0491198 0.348278 0 0.474257 0C0.600236 0 0.72125 0.0491198 0.81159 0.136923L4.85959 4.19226L8.91492 0.136923C9.00403 0.0495852 9.12382 0.000664741 9.24859 0.000664741C9.37336 0.000664741 9.49315 0.0495852 9.58226 0.136923C9.62705 0.180946 9.66262 0.233448 9.6869 0.291365C9.71119 0.349282 9.72369 0.411455 9.72369 0.474257C9.72369 0.537058 9.71119 0.599231 9.6869 0.657149C9.66262 0.715066 9.62705 0.767567 9.58226 0.81159L5.53548 4.86081L9.58348 8.91615C9.62827 8.96017 9.66384 9.01267 9.68812 9.07059C9.71241 9.1285 9.72491 9.19068 9.72491 9.25348C9.72491 9.31628 9.71241 9.37845 9.68812 9.43637C9.66384 9.49429 9.62827 9.54679 9.58348 9.59081C9.49438 9.67815 9.37458 9.72707 9.24981 9.72707C9.12504 9.72707 9.00525 9.67815 8.91615 9.59081L4.85959 5.53548L0.81159 9.59081C0.72125 9.67862 0.600236 9.72774 0.474257 9.72774C0.348278 9.72774 0.227263 9.67862 0.136923 9.59081C0.0491198 9.50047 0 9.37946 0 9.25348C0 9.1275 0.0491198 9.00648 0.136923 8.91615L4.18492 4.86081L0.136923 0.81159Z" fill="#595959"/>
</svg>
