<svg width="120" height="31" viewBox="0 0 120 31" fill="none" xmlns="http://www.w3.org/2000/svg">
    <path d="M4.67923 16.4629C4.67923 15.349 4.88594 14.2351 5.26176 13.1967L3.21353 12.0073C1.93573 15.1224 2.04848 18.6151 3.53298 21.6358L5.56242 20.4653C4.97989 19.2004 4.67923 17.8411 4.67923 16.4629Z" fill="white"/>
    <path d="M30.3102 11.12C30.3102 7.58953 31.945 5.83374 35.2335 5.83374C35.9288 5.83374 36.6428 5.92814 37.3005 6.13581C37.977 6.32461 38.2964 6.58892 38.2964 6.87211C38.2589 7.19306 38.1461 7.47625 37.9582 7.74056C37.7327 8.09927 37.526 8.28806 37.3569 8.28806C37.2441 8.26919 37.1502 8.21255 37.0562 8.17479C36.4737 7.92936 35.8348 7.7972 35.1959 7.81608C33.4859 7.81608 32.6403 8.92996 32.6403 11.1766C32.6403 13.4233 33.4859 14.5372 35.1583 14.5183C35.8536 14.5183 36.5489 14.3672 37.2066 14.0652C37.3193 14.0085 37.4508 13.9519 37.5824 13.9141C37.7891 13.9141 37.977 14.084 38.1649 14.4239C38.3152 14.6504 38.4092 14.9336 38.4468 15.1979C38.4468 15.5944 38.0897 15.8965 37.3569 16.123C36.6428 16.3307 35.91 16.444 35.1583 16.444C33.5047 16.444 32.2833 16.0097 31.4941 15.1413C30.686 14.2917 30.2914 12.9513 30.3102 11.12Z" fill="white"/>
    <path d="M39.6869 15.8965V11.1955C39.7057 10.6669 39.6681 10.1571 39.593 9.64737C39.5554 9.47746 39.5178 9.28866 39.499 9.11875C39.499 8.96771 39.7057 8.83556 40.1003 8.76004C40.401 8.7034 40.7017 8.64676 41.0023 8.64676C41.1338 8.62788 41.2654 8.64676 41.3969 8.7034C41.4721 8.74116 41.5285 8.81668 41.566 8.8922C41.6036 8.96771 41.6412 9.04323 41.66 9.09987C41.6788 9.19427 41.7164 9.28866 41.7352 9.38306C41.754 9.45858 41.7727 9.5341 41.7915 9.62849C42.2049 8.87332 42.7499 8.49573 43.4076 8.49573C43.727 8.49573 43.9525 8.57125 44.0653 8.74116C44.1968 8.91107 44.2532 9.09987 44.2532 9.30754C44.2532 9.57185 44.1968 9.83617 44.1216 10.0816C44.0277 10.4025 43.9337 10.5536 43.8022 10.5536C43.6894 10.5536 43.5955 10.5158 43.5015 10.4969C43.3888 10.4592 43.2572 10.4403 43.1257 10.4403C42.6371 10.4403 42.2425 10.6857 41.9419 11.1766V15.9342C41.9419 16.2552 41.6412 16.4062 41.0587 16.4062H40.6453C40.0064 16.3873 39.6869 16.2174 39.6869 15.8965Z" fill="white"/>
    <path d="M44.3281 8.89224C44.3281 8.66569 44.6288 8.57129 45.2301 8.57129H45.6999C46.1884 8.57129 46.4515 8.68457 46.5267 8.89224L47.3911 11.6298C47.485 11.9129 47.6166 12.4982 47.8045 13.4233H47.8609C48.0488 12.4793 48.1991 11.8752 48.2743 11.6298L49.1387 8.89224C49.2138 8.68457 49.4769 8.57129 49.9655 8.57129H50.3225C50.905 8.57129 51.2057 8.68457 51.2057 8.89224C51.2057 8.98664 51.1869 9.08103 51.1681 9.15655L47.7857 19.106C47.7105 19.3137 47.4287 19.4081 46.9589 19.4081H46.7146C46.1321 19.4081 45.8314 19.2948 45.8314 19.106C45.8314 19.0116 45.8502 18.9172 45.8878 18.8417L46.8273 16.3496L44.4033 9.15655C44.3657 9.06215 44.3469 8.98664 44.3281 8.89224Z" fill="white"/>
    <path d="M52.3149 18.936V11.1954C52.3337 10.6668 52.2961 10.1571 52.2209 9.64733C52.1833 9.47742 52.1457 9.28862 52.127 9.11871C52.127 8.96767 52.3337 8.83552 52.7283 8.76C53.0289 8.70336 53.3296 8.64672 53.6302 8.64672C53.7618 8.62784 53.8933 8.64672 54.0249 8.70336C54.1 8.74112 54.1564 8.81664 54.194 8.89216C54.2316 8.96767 54.2503 9.04319 54.2879 9.09983C54.3067 9.19423 54.3443 9.26974 54.3631 9.36414C54.3819 9.47742 54.4007 9.55294 54.4195 9.5907C54.6074 9.25087 54.8705 8.98655 55.2087 8.79776C55.5657 8.59009 55.9791 8.47681 56.3925 8.49569C57.1818 8.49569 57.9334 8.89216 58.3844 9.55294C58.8918 10.2515 59.1548 11.2332 59.1548 12.4792C59.1548 13.7253 58.873 14.707 58.328 15.4244C57.7831 16.1419 57.0126 16.5006 56.0355 16.5006C55.4906 16.5194 54.9644 16.3495 54.5322 16.0475V18.9738C54.5322 19.2947 54.2316 19.4458 53.649 19.4458H53.2356C52.6155 19.408 52.3149 19.2381 52.3149 18.936ZM55.5469 14.7448C56.4677 14.7448 56.9187 14.0085 56.9187 12.517C56.9187 11.0255 56.5241 10.2892 55.7161 10.2704C55.2463 10.2704 54.8329 10.5535 54.5134 11.1388V14.4427C54.8141 14.6315 55.1711 14.7259 55.5469 14.7448Z" fill="white"/>
    <path d="M63.6075 14.7259L64.0021 14.6693C64.1336 14.6693 64.2276 14.8203 64.3215 15.1035C64.3967 15.3112 64.4343 15.5189 64.4531 15.7266C64.4531 16.2174 63.9833 16.444 63.0438 16.444C61.6156 16.444 60.8828 15.651 60.8828 14.0463V10.327H60.6385C60.3378 10.327 60.1875 10.0816 60.1875 9.59074V9.34531C60.1875 8.85444 60.3378 8.60901 60.6385 8.60901H60.8828L61.0707 7.19305C61.1271 6.8721 61.3901 6.72107 61.8599 6.72107H62.3109C62.7995 6.72107 63.0438 6.8721 63.0438 7.19305V8.60901H63.7766C64.0773 8.60901 64.2276 8.85444 64.2276 9.34531V9.59074C64.2276 10.0816 64.0773 10.327 63.7766 10.327H63.0438V14.1029C63.0625 14.5183 63.2505 14.7259 63.6075 14.7259Z" fill="white"/>
    <path d="M66.3329 15.4433C65.7316 14.7637 65.4121 13.763 65.4121 12.4604C65.4121 11.1577 65.7128 10.176 66.3329 9.49629C66.953 8.81664 67.8362 8.47681 69.0012 8.47681C70.1663 8.47681 71.0682 8.81664 71.6695 9.49629C72.2709 10.176 72.5715 11.1577 72.5715 12.4604C72.5715 13.763 72.2709 14.7448 71.6695 15.4433C71.0682 16.123 70.1851 16.4817 69.0012 16.4817C67.8174 16.4817 66.9342 16.123 66.3329 15.4433ZM67.6295 12.4604C67.6295 13.9707 68.0804 14.7259 69.0012 14.7259C69.922 14.7259 70.373 13.9707 70.373 12.4604C70.373 10.95 69.922 10.1948 69.0012 10.1948C68.0804 10.1948 67.6295 10.95 67.6295 12.4604Z" fill="white"/>
    <path d="M76.8184 6.26797C76.8184 6.04142 77.119 5.94702 77.7203 5.94702H78.2089C78.6975 5.94702 78.9981 6.09806 79.0733 6.38125L81.2343 13.3289H81.2906L83.508 6.38125C83.6019 6.09806 83.9026 5.94702 84.3724 5.94702H84.8233C85.4059 5.94702 85.7065 6.0603 85.7065 6.26797C85.7065 6.36237 85.6877 6.45677 85.6689 6.53228L82.4745 16.0664C82.3993 16.2741 82.1362 16.3873 81.6477 16.3873H80.8772C80.3887 16.3873 80.1256 16.2741 80.0504 16.0664L76.8559 6.53228C76.8372 6.43789 76.8184 6.34349 76.8184 6.26797Z" fill="white"/>
    <path d="M86.4583 14.2917C86.4583 14.0463 86.4771 13.782 86.5335 13.5366C86.6086 13.2722 86.7214 13.0268 86.8717 12.8191C87.0596 12.5548 87.3039 12.3283 87.5858 12.1772C88.2811 11.7619 89.3146 11.5542 90.7051 11.5542V11.0634C90.7051 10.497 90.3293 10.2138 89.5588 10.2138C89.0139 10.2138 88.469 10.3271 87.9804 10.5725C87.8864 10.6291 87.7737 10.6669 87.6797 10.6858C87.5294 10.6858 87.3603 10.5347 87.1912 10.2327C87.0408 10.025 86.9469 9.77956 86.9093 9.51525C86.9093 9.25093 87.1724 9.0055 87.7361 8.79783C88.375 8.57127 89.0515 8.47688 89.728 8.49576C91.8514 8.49576 92.9036 9.32645 92.9036 10.969V13.7442C92.9036 14.254 92.9224 14.7826 92.9976 15.2923L93.0916 15.8965C93.0916 16.0475 92.9037 16.1797 92.4903 16.2552C92.1896 16.3118 91.8889 16.3685 91.5883 16.3685C91.4567 16.3874 91.3252 16.3685 91.1937 16.3118C91.1185 16.2552 91.0621 16.1986 91.0245 16.1042C90.987 16.0098 90.9494 15.9342 90.9306 15.8776C90.893 15.7832 90.8742 15.6888 90.8554 15.5944C90.8366 15.5189 90.8178 15.4245 90.7991 15.349C90.5736 15.7077 90.2541 15.972 89.8783 16.1419C89.4837 16.3496 89.0703 16.4629 88.6193 16.4629C87.8676 16.4629 87.3227 16.2741 86.9657 15.8587C86.6274 15.4245 86.4395 14.877 86.4583 14.2917ZM88.6381 14.0841C88.6193 14.254 88.6945 14.4428 88.826 14.5561C88.9951 14.6882 89.2018 14.7448 89.4085 14.726C89.6716 14.726 89.9535 14.6316 90.1602 14.4617C90.4044 14.2917 90.5924 14.0652 90.7051 13.8009V12.9891C89.3334 12.9891 88.6381 13.3478 88.6381 14.0841Z" fill="white"/>
    <path d="M97.545 14.726L97.9396 14.6693C98.0712 14.6693 98.1651 14.8204 98.2591 15.1035C98.3343 15.3112 98.3718 15.5189 98.3906 15.7266C98.3906 16.2174 97.9208 16.4629 96.9813 16.444C95.5344 16.444 94.8203 15.6511 94.8203 14.0463V5.64496C94.8203 5.32401 95.121 5.17297 95.7035 5.17297H96.1357C96.7182 5.17297 97.0189 5.32401 97.0189 5.64496V14.1029C97.0189 14.5183 97.188 14.726 97.545 14.726Z" fill="white"/>
    <path d="M101.923 14.726L102.318 14.6693C102.449 14.6693 102.543 14.8204 102.637 15.1035C102.712 15.3112 102.75 15.5189 102.769 15.7266C102.769 16.2174 102.299 16.4629 101.359 16.444C99.9123 16.444 99.1982 15.6511 99.1982 14.0463V5.64496C99.1982 5.32401 99.4989 5.17297 100.081 5.17297H100.495C101.077 5.17297 101.378 5.32401 101.378 5.64496V14.1029C101.397 14.5183 101.585 14.726 101.923 14.726Z" fill="white"/>
    <path d="M104.235 15.4244C103.596 14.7259 103.276 13.7253 103.276 12.4037C103.276 11.0822 103.596 10.1004 104.235 9.45854C104.874 8.81664 105.738 8.47681 106.847 8.47681C107.955 8.47681 108.763 8.83551 109.29 9.55293C109.816 10.2704 110.06 11.1954 110.06 12.3093C110.06 12.4226 109.966 12.6114 109.759 12.838C109.553 13.0645 109.402 13.1778 109.308 13.1778H105.55C105.606 13.7442 105.776 14.1406 106.057 14.3861C106.377 14.6315 106.753 14.7637 107.147 14.7448C107.58 14.7448 108.012 14.6693 108.425 14.5182C108.839 14.3672 109.026 14.2917 109.045 14.2917C109.196 14.2917 109.365 14.4427 109.534 14.7259C109.684 14.9336 109.778 15.1601 109.816 15.4244C109.816 15.7454 109.515 16.0097 108.895 16.1985C108.331 16.3873 107.749 16.4817 107.166 16.4817C105.832 16.4628 104.874 16.123 104.235 15.4244ZM107.937 11.7052C107.955 11.3276 107.861 10.95 107.673 10.6102C107.504 10.3459 107.204 10.176 106.884 10.1948C106.151 10.1948 105.719 10.6857 105.55 11.6863H107.937V11.7052Z" fill="white"/>
    <path d="M110.773 8.89224C110.773 8.66569 111.074 8.57129 111.675 8.57129H112.145C112.634 8.57129 112.897 8.68457 112.972 8.89224L113.836 11.6298C113.93 11.9129 114.062 12.4982 114.25 13.4233H114.306C114.494 12.4793 114.644 11.8752 114.72 11.6298L115.584 8.89224C115.659 8.68457 115.922 8.57129 116.411 8.57129H116.768C117.35 8.57129 117.651 8.68457 117.651 8.89224C117.651 8.98664 117.632 9.08103 117.613 9.15655L114.231 19.106C114.156 19.3137 113.874 19.4081 113.404 19.4081H113.16C112.559 19.4081 112.277 19.2948 112.277 19.106C112.277 19.0116 112.296 18.9172 112.333 18.8417L113.273 16.3685L110.849 9.17543C110.811 9.06215 110.792 8.98664 110.773 8.89224Z" fill="white"/>
    <path d="M12.7782 7.19306V4.83313C9.28309 5.19184 6.16376 7.11754 4.24707 10.0627L6.25772 11.2333C7.76101 9.02436 10.1287 7.55177 12.7782 7.19306Z" fill="white"/>
    <path d="M14.958 25.7326V28.0737C18.2089 27.7905 21.1967 26.1668 23.1885 23.5615L21.1591 22.3721C19.5994 24.2789 17.3821 25.4872 14.958 25.7326Z" fill="white"/>
    <path d="M23.1886 16.2929C23.1886 17.7089 22.8691 19.1249 22.249 20.3898L24.2785 21.5603C25.8381 18.5018 25.9509 14.8959 24.6167 11.7241L22.5685 12.9135C22.9819 13.9897 23.1886 15.1413 23.1886 16.2929Z" fill="white"/>
    <path d="M21.6288 11.1577L23.6583 9.98717C21.6852 7.0231 18.4907 5.11628 14.958 4.81421V7.17414C17.6451 7.45733 20.088 8.91104 21.6288 11.1577Z" fill="white"/>
    <path d="M6.74624 22.3154L4.7168 23.486C6.65228 26.0724 9.58369 27.7338 12.797 28.0737V25.7137C10.4105 25.4117 8.24952 24.1845 6.74624 22.3154Z" fill="white"/>
    <path d="M14.2626 20.2954C12.158 20.2954 10.4292 18.5774 10.4292 16.4629C10.4292 14.3484 12.1392 12.6115 14.2438 12.6115C15.2585 12.6115 16.2357 13.008 16.9497 13.7443L18.3591 12.3283C16.0853 10.0439 12.4023 10.0439 10.1285 12.3283C7.85482 14.6127 7.87361 18.2942 10.1473 20.5786C12.3647 22.8064 15.9538 22.863 18.2463 20.7108L16.837 19.2948C16.1229 19.9367 15.2021 20.2954 14.2626 20.2954Z" fill="white"/>
    <path d="M30.4414 21.9189H31.2306L32.8091 25.506L34.35 21.9189H35.1392V27.4129H34.3124V23.9768H34.2936L33.1473 26.6199H32.4521L31.3058 23.9768H31.287V27.4129H30.4414V21.9189Z" fill="white"/>
    <path d="M36.7924 25.7704C36.7924 26.0913 36.8863 26.3179 37.0555 26.4878C37.2246 26.6577 37.4501 26.7332 37.7131 26.7332C38.0326 26.7332 38.3145 26.6011 38.5587 26.3556L39.1225 26.8465C38.7279 27.2807 38.2581 27.4884 37.7131 27.4884C37.5064 27.4884 37.2997 27.4506 37.1118 27.394C37.0179 27.3562 36.9239 27.3185 36.83 27.2618C36.736 27.2052 36.6421 27.1486 36.5481 27.0919C36.379 26.9409 36.2474 26.7332 36.1535 26.4878C36.0407 26.2424 35.9844 25.9025 35.9844 25.5061C35.9844 25.1096 36.0407 24.7886 36.1347 24.5432C36.2287 24.2789 36.3602 24.0712 36.5105 23.9202C36.6609 23.7692 36.8488 23.6559 37.0367 23.5804C37.2246 23.5048 37.4125 23.486 37.6004 23.486C38.0514 23.486 38.4272 23.637 38.7279 23.9202C39.0473 24.2223 39.1976 24.6187 39.1976 25.1285V25.7704H36.7924ZM38.446 25.1285C38.4272 24.8264 38.352 24.5998 38.2017 24.4299C38.0514 24.2789 37.8635 24.2034 37.6192 24.2034C37.3749 24.2034 37.187 24.2789 37.0367 24.4299C36.8863 24.581 36.8112 24.8075 36.7924 25.1285H38.446Z" fill="white"/>
    <path d="M40.0996 23.5048H40.8888V23.9201H40.9076C41.1707 23.618 41.5089 23.4481 41.9223 23.4481C42.1854 23.4481 42.4109 23.5048 42.58 23.5803C42.7492 23.6747 42.8995 23.8068 43.031 23.9579C43.3317 23.618 43.7451 23.4481 44.2524 23.4481C44.5719 23.4481 44.8726 23.5614 45.1356 23.788C45.3987 24.0145 45.5302 24.3543 45.549 24.8074V27.4128H44.7598V25.0718C44.7598 24.7886 44.6846 24.5809 44.5531 24.4487C44.4028 24.2977 44.2337 24.2222 44.0082 24.2222C43.7827 24.2222 43.5948 24.2977 43.4444 24.4487C43.2941 24.5998 43.2189 24.8074 43.2189 25.0718V27.4128H42.4297V25.0718C42.4297 24.7886 42.3545 24.5809 42.223 24.4487C42.0727 24.2977 41.8848 24.2222 41.6593 24.2222C41.4338 24.2222 41.2459 24.2977 41.1143 24.4487C40.964 24.5998 40.8888 24.8074 40.8888 25.0718V27.4128H40.0996V23.5048Z" fill="white"/>
    <path d="M46.6016 21.9189H47.3908V23.9202C47.5411 23.788 47.6914 23.6747 47.8606 23.5803C48.0109 23.5048 48.1988 23.4482 48.4055 23.4482C48.8753 23.4671 49.2323 23.637 49.4578 23.9579C49.5706 24.0901 49.6457 24.2411 49.6833 24.4488C49.7209 24.6565 49.7397 24.9774 49.7397 25.4494C49.7397 25.9214 49.7209 26.2423 49.6833 26.45C49.6457 26.6577 49.5706 26.8276 49.4578 26.9598C49.3451 27.1108 49.2135 27.2241 49.0256 27.3185C48.8565 27.4129 48.6498 27.4695 48.4055 27.4695C47.9921 27.4506 47.6539 27.2996 47.3908 27.0164V27.4317H46.6016V21.9189ZM48.1612 24.26C47.9921 24.26 47.8418 24.2978 47.7478 24.3733C47.6351 24.4488 47.5599 24.5432 47.5035 24.6565C47.4472 24.7697 47.4284 24.9019 47.4096 25.0341C47.3908 25.1662 47.3908 25.3172 47.3908 25.4683C47.3908 25.6004 47.3908 25.7515 47.4096 25.8836C47.4284 26.0347 47.4472 26.1668 47.5035 26.2801C47.5599 26.3934 47.6351 26.4878 47.7478 26.5633C47.8418 26.6388 47.9921 26.6766 48.1612 26.6766C48.3491 26.6766 48.4995 26.6388 48.5934 26.5633C48.7062 26.4878 48.7813 26.3934 48.8189 26.2801C48.8753 26.1668 48.8941 26.0347 48.9129 25.8836C48.9129 25.7515 48.9129 25.6004 48.9129 25.4494C48.9129 25.2984 48.9129 25.1473 48.9129 24.9963C48.8941 24.8641 48.8565 24.732 48.8189 24.6187C48.7813 24.5054 48.7062 24.411 48.5934 24.3355C48.4995 24.2789 48.3491 24.26 48.1612 24.26Z" fill="white"/>
    <path d="M51.1869 25.7704C51.1869 26.0913 51.2809 26.3179 51.45 26.4878C51.6191 26.6577 51.8446 26.7332 52.1077 26.7332C52.4271 26.7332 52.709 26.6011 52.9533 26.3556L53.517 26.8465C53.1224 27.2807 52.6526 27.4884 52.1077 27.4884C51.901 27.4884 51.6943 27.4506 51.5064 27.394C51.4124 27.3562 51.3185 27.3185 51.2245 27.2618C51.1306 27.2052 51.0366 27.1486 50.9426 27.0919C50.7735 26.9409 50.642 26.7332 50.548 26.4878C50.4353 26.2424 50.3789 25.9025 50.3789 25.5061C50.3789 25.1096 50.4353 24.7886 50.5292 24.5432C50.6232 24.2789 50.7547 24.0712 50.9051 23.9202C51.0554 23.7692 51.2433 23.6559 51.4312 23.5804C51.6191 23.5048 51.807 23.486 51.9949 23.486C52.4459 23.486 52.8218 23.637 53.1224 23.9202C53.4419 24.2223 53.5922 24.6187 53.5922 25.1285V25.7704H51.1869ZM52.8405 25.1285C52.8218 24.8264 52.7466 24.5998 52.5963 24.4299C52.4459 24.2789 52.258 24.2034 52.0137 24.2034C51.7694 24.2034 51.5815 24.2789 51.4312 24.4299C51.2809 24.581 51.2057 24.8075 51.1869 25.1285H52.8405Z" fill="white"/>
    <path d="M54.4375 23.5048H55.2267V23.9201H55.2455C55.5086 23.618 55.8468 23.4481 56.2602 23.4481C56.5797 23.4481 56.8428 23.5614 57.087 23.7502L56.5233 24.4298C56.3542 24.2977 56.1851 24.2411 56.016 24.2411C55.8092 24.2411 55.6401 24.2977 55.5086 24.4298C55.3395 24.562 55.2643 24.7697 55.2643 25.0529V27.4128H54.4751V23.5048H54.4375Z" fill="white"/>
</svg>
