<svg xmlns="http://www.w3.org/2000/svg" width="55" height="55" viewBox="0 0 55 55">
    <g fill="none" fill-rule="evenodd" stroke-width="1.3" transform="translate(1 1)">
        <path fill="#0E2738" stroke="#FFF" d="M29.24 27.27a6.587 6.587 0 0 1-.684.035h-5.987v7.815h7.155a3.921 3.921 0 0 0 3.925-3.925 3.92 3.92 0 0 0-1.148-2.777l.003-.001a3.932 3.932 0 0 0-2.78-1.147h-.483zm-6.67-2.54h6.518a3.922 3.922 0 0 0 3.393-3.889c0-1.085-.44-2.066-1.148-2.775l.003-.003-.003-.002a3.908 3.908 0 0 0-2.777-1.145H22.57v7.815zM21.3 37.66h-2.257a1.269 1.269 0 0 1 0-2.54h.985V16.916h-.985a1.269 1.269 0 0 1 0-2.54H23.39v-2.091a1.27 1.27 0 1 1 2.54 0v2.092h2.032v-2.092a1.27 1.27 0 1 1 2.54 0v2.39c1 .318 1.897.872 2.622 1.6l.003-.004a6.44 6.44 0 0 1 1.893 4.57 6.446 6.446 0 0 1-1.893 4.572l-.184.177c.492.284.947.633 1.347 1.035l.003.002.002-.002a6.438 6.438 0 0 1 1.894 4.57 6.447 6.447 0 0 1-1.894 4.572 6.437 6.437 0 0 1-3.794 1.846v2.14a1.269 1.269 0 1 1-2.54 0l.001-2.093H25.93v2.093a1.269 1.269 0 0 1-2.54 0V37.66H21.3z"/>
        <circle cx="26.5" cy="26.5" r="21.682" stroke="#51AFED"/>
        <circle cx="26.5" cy="26.5" r="26.5" stroke="#0E2738"/>
    </g>
</svg>
