<svg width="72" height="72" viewBox="0 0 72 72" fill="none" xmlns="http://www.w3.org/2000/svg">
<path d="M7 69H65" stroke="#52AFEE" stroke-width="1.2" stroke-miterlimit="10" stroke-linecap="round"/>
<path d="M14.932 48.5987H7.86658C7.60889 48.5987 7.39999 48.8062 7.39999 49.0622V63.3449C7.39999 63.6009 7.60889 63.8084 7.86658 63.8084H14.932C15.1897 63.8084 15.3986 63.6009 15.3986 63.3449V49.0622C15.3986 48.8062 15.1897 48.5987 14.932 48.5987Z" stroke="black" stroke-width="1.2" stroke-miterlimit="10"/>
<path d="M30.9292 38.4589H23.8638C23.6061 38.4589 23.3972 38.6676 23.3972 38.9251V63.3421C23.3972 63.5996 23.6061 63.8084 23.8638 63.8084H30.9292C31.1869 63.8084 31.3958 63.5996 31.3958 63.3421V38.9251C31.3958 38.6676 31.1869 38.4589 30.9292 38.4589Z" stroke="black" stroke-width="1.2" stroke-miterlimit="10"/>
<path d="M47.9263 40.4868H40.8608C40.6031 40.4868 40.3942 40.6973 40.3942 40.9569V63.3383C40.3942 63.5979 40.6031 63.8084 40.8608 63.8084H47.9263C48.184 63.8084 48.3928 63.5979 48.3928 63.3383V40.9569C48.3928 40.6973 48.184 40.4868 47.9263 40.4868Z" stroke="black" stroke-width="1.2" stroke-miterlimit="10"/>
<path d="M63.8652 31.361H55.9166C55.6267 31.361 55.3917 31.5685 55.3917 31.8244V63.345C55.3917 63.6009 55.6267 63.8084 55.9166 63.8084H63.8652C64.1551 63.8084 64.3901 63.6009 64.3901 63.345V31.8244C64.3901 31.5685 64.1551 31.361 63.8652 31.361Z" stroke="black" stroke-width="1.2" stroke-miterlimit="10"/>
<path d="M7 42.9103L25.3968 28.826L44.1736 32.446L62.0105 5.02795" stroke="black" stroke-width="1.2" stroke-linecap="round" stroke-linejoin="round"/>
<path d="M64.2001 15.3706L62.4904 4.6731L51.7523 6.09267" stroke="black" stroke-width="1.2" stroke-linecap="round" stroke-linejoin="round"/>
<path d="M25.5369 7.77153C26.365 7.96603 27.1337 8.37488 27.7657 8.96316L27.7657 8.96319L27.7704 8.96747C28.0567 9.22722 28.4287 9.37153 28.8153 9.37095C28.8161 9.37095 28.817 9.37095 28.8178 9.37095L25.5369 7.77153ZM25.5369 7.77153V11.371C27.2541 11.5348 28.5658 11.9326 29.4684 12.6687C30.4813 13.4946 30.896 14.6746 30.896 16.1513C30.896 17.6636 30.3415 18.9054 29.3004 19.792C28.3659 20.5877 27.077 21.066 25.5369 21.2409V22.0831C25.5369 22.4824 25.3806 22.8667 25.1001 23.1512C24.8194 23.4359 24.4371 23.5971 24.0371 23.5971C23.637 23.5971 23.2548 23.4359 22.974 23.1512C22.6936 22.8667 22.5372 22.4824 22.5372 22.0831V21.2724C20.2596 21.0228 18.4659 20.1636 17.393 18.7797L17.3902 18.7762L17.3902 18.7761C17.1616 18.4757 17.0383 18.108 17.0382 17.7305C17.0293 17.4292 17.1098 17.1316 17.27 16.8761C17.4321 16.6175 17.6686 16.4138 17.949 16.2931C18.2296 16.1724 18.5401 16.1407 18.8392 16.2028C19.137 16.2645 19.4084 16.416 19.6181 16.636C20.4114 17.4501 21.4347 17.9831 22.5372 18.1669V14.2323C20.9027 14.0855 19.6469 13.706 18.7776 13.009C17.7967 12.2224 17.3881 11.0994 17.3881 9.71255C17.3881 8.28931 17.9472 7.05978 18.9453 6.15236C19.8446 5.3347 21.0786 4.79676 22.5372 4.58479V4.01398C22.5372 3.6147 22.6936 3.23038 22.974 2.94593C23.2548 2.66124 23.637 2.5 24.0371 2.5C24.4371 2.5 24.8194 2.66124 25.1001 2.94593C25.3806 3.23038 25.5369 3.6147 25.5369 4.01398V4.56602C27.1798 4.74989 28.7183 5.48977 29.8998 6.67207L29.9111 6.68344L29.9217 6.69551C30.1875 6.99804 30.3279 7.39067 30.3165 7.79257C30.3248 7.98924 30.295 8.18585 30.2287 8.37133C30.1594 8.565 30.0515 8.74271 29.9114 8.89333C29.7713 9.04397 29.6018 9.16434 29.4132 9.24664L29.2132 8.78838L25.5369 7.77153ZM22.5372 7.68968V11.1262C21.832 11.0332 21.3651 10.874 21.0694 10.6722C20.746 10.4515 20.592 10.157 20.5877 9.69022C20.5883 9.13302 20.798 8.67734 21.1929 8.32757C21.5058 8.05041 21.9523 7.82556 22.5372 7.68968ZM27.0501 17.5411C26.7016 17.8259 26.1988 18.0511 25.5369 18.1796V14.5074C26.3322 14.6126 26.8503 14.7801 27.1762 15.0051C27.5199 15.2423 27.6963 15.5762 27.6963 16.1716C27.6963 16.7404 27.4746 17.1944 27.0501 17.5411Z" stroke="#52AFEE"/>
</svg>
