<svg width="72" height="72" viewBox="0 0 72 72" fill="none" xmlns="http://www.w3.org/2000/svg">
<path d="M27.3323 63.81C20.4723 61.27 16.1523 54.89 16.1523 47.14V32.64C16.1523 32.1096 16.3631 31.6009 16.7381 31.2258C17.1132 30.8507 17.6219 30.64 18.1523 30.64H54.7723C55.3028 30.64 55.8115 30.8507 56.1866 31.2258C56.5616 31.6009 56.7723 32.1096 56.7723 32.64V47.14C56.8586 50.7384 55.8255 54.2748 53.8156 57.2609C51.8058 60.2469 48.9185 62.5353 45.5523 63.81" stroke="black" stroke-width="1.2" stroke-linecap="round" stroke-linejoin="round"/>
<path d="M55.0522 55.4H56.5922C57.9193 55.4 59.2334 55.138 60.459 54.6289C61.6845 54.1199 62.7975 53.3738 63.7341 52.4335C64.6706 51.4933 65.4123 50.3774 65.9165 49.1498C66.4207 47.9222 66.6775 46.6071 66.6722 45.28V40.78C66.6736 40.1388 66.5482 39.5036 66.3035 38.911C66.0587 38.3183 65.6993 37.7798 65.2459 37.3264C64.7925 36.873 64.254 36.5136 63.6613 36.2688C63.0686 36.024 62.4335 35.8987 61.7922 35.9H57.0422" stroke="black" stroke-width="1.2" stroke-linecap="round" stroke-linejoin="round"/>
<path fill-rule="evenodd" clip-rule="evenodd" d="M6.87234 63.8101H66.0123C67.8123 63.8101 69.1723 64.1201 68.8323 64.4601L65.8923 67.3201C65.0056 67.6937 64.0409 67.8447 63.0823 67.7601H9.79234C8.83052 67.8456 7.86238 67.6945 6.97234 67.3201L4.05234 64.4601C3.71234 64.1201 5.07234 63.8101 6.87234 63.8101Z" stroke="black" stroke-width="1.2" stroke-linecap="round" stroke-linejoin="round"/>
<path d="M29.1624 24.8C29.1624 24.8 26.1624 23.31 26.1624 18.24C26.1624 12.55 31.9124 11.51 29.1624 5" stroke="#52AFEE" stroke-width="1.2" stroke-miterlimit="10" stroke-linecap="round"/>
<path d="M37.5524 24.8C37.5524 24.8 34.5524 23.31 34.5524 18.24C34.5524 12.55 40.3024 11.51 37.5524 5" stroke="#52AFEE" stroke-width="1.2" stroke-miterlimit="10" stroke-linecap="round"/>
<path d="M45.9524 24.8C45.9524 24.8 42.9524 23.31 42.9524 18.24C42.9524 12.55 48.7024 11.51 45.9524 5" stroke="#52AFEE" stroke-width="1.2" stroke-miterlimit="10" stroke-linecap="round"/>
</svg>
