<svg xmlns="http://www.w3.org/2000/svg" xmlns:xlink="http://www.w3.org/1999/xlink" width="55" height="55" viewBox="0 0 55 55">
    <defs>
        <path id="a" d="M0 0h55v55H0z"/>
    </defs>
    <g fill="none" fill-rule="evenodd">
        <g>
            <mask id="b" fill="#fff">
                <use xlink:href="#a"/>
            </mask>
            <path fill="#000" d="M42.841 54.195h-.018c-3.054 0-5.914-1.177-8.053-3.315-2.145-2.145-3.324-5.015-3.32-8.082.003-3.06 1.18-5.918 3.313-8.048 2.131-2.128 4.99-3.3 8.048-3.3 3.073 0 5.944 1.187 8.088 3.34 2.138 2.147 3.308 5.013 3.296 8.069a11.32 11.32 0 0 1-3.338 8.015 11.296 11.296 0 0 1-8.016 3.321zm-11.055-3.9a26.018 26.018 0 0 1-4.287.357c-1.427 0-2.868-.12-4.284-.356l-1.028-.171.463-.934c2.898-5.85 2.233-10.913-1.978-15.047-4.132-4.057-9.133-4.659-14.867-1.79l-.94.47-.17-1.038c-.476-2.94-.474-5.744.007-8.573l.175-1.025.931.462c5.843 2.9 10.905 2.236 15.045-1.975 4.056-4.127 4.667-9.113 1.816-14.82l-.402-.803.854-.277c1.716-.557 6.857-.565 8.732-.014l.884.26-.41.825c-2.887 5.817-2.216 10.865 1.996 15.006 4.122 4.053 9.124 4.657 14.865 1.796l.934-.466.173 1.03c.477 2.83.478 5.713.002 8.57l-.17 1.03-.936-.464c-5.845-2.902-10.907-2.237-15.046 1.975-4.057 4.13-4.66 9.13-1.795 14.864l.467.935-1.031.173zm-11.508.533c-2.133 2.158-4.996 3.353-8.063 3.367h-.053c-3.02 0-5.857-1.166-7.988-3.283-2.142-2.129-3.34-4.987-3.371-8.049A11.197 11.197 0 0 1 4.04 34.85a11.29 11.29 0 0 1 8.027-3.399h.085c3.047 0 5.897 1.152 8.026 3.245 2.15 2.114 3.347 4.971 3.369 8.044.021 3.062-1.14 5.935-3.27 8.09zm-16.15-30.59c-2.14-2.14-3.32-5.01-3.323-8.082a11.258 11.258 0 0 1 3.322-8.018A11.261 11.261 0 0 1 12.143.805c3.073 0 5.944 1.177 8.085 3.313 2.142 2.137 3.321 5.002 3.32 8.067-.001 3.06-1.174 5.92-3.303 8.05-2.13 2.132-4.987 3.309-8.047 3.313h-.018c-3.058 0-5.918-1.175-8.053-3.31zM34.743 4.146A11.292 11.292 0 0 1 42.758.803h.047c3.04 0 5.897 1.175 8.042 3.309a11.308 11.308 0 0 1 3.348 8.06c.004 3.048-1.17 5.906-3.308 8.048-2.137 2.14-4.995 3.323-8.047 3.328h-.022c-6.356 0-11.35-4.998-11.368-11.378a11.254 11.254 0 0 1 3.294-8.024zM45.965 54.58c4.772-1.246 8.363-5.361 8.936-10.24.019-.16.054-.3.086-.425l.003-.012.01-.04v-2.152c-.036-.18-.07-.363-.103-.544-.08-.425-.16-.863-.265-1.28a11.926 11.926 0 0 0-3.29-5.718c-.45-.441-.596-.93-.457-1.539a22.84 22.84 0 0 0 0-10.26c-.138-.603.005-1.092.452-1.535 2.036-2.022 3.239-4.462 3.575-7.252.017-.142.056-.26.088-.35v-2.11c-.05-.245-.098-.492-.144-.733l-.003-.018c-.107-.562-.218-1.143-.373-1.685C53.163 4.09 49.07.636 44.294.095c-.158-.018-.291-.055-.409-.087l-.011-.003L43.857 0h-2.145l-.546.103c-.425.078-.864.16-1.279.263a11.893 11.893 0 0 0-5.68 3.253c-.475.483-.977.634-1.628.487a22.834 22.834 0 0 0-10.21.009c-.383.087-.956.14-1.501-.416-2.03-2.068-4.499-3.285-7.34-3.617A1.266 1.266 0 0 1 13.214 0h-2.086c-.299.065-.6.121-.891.176-.656.122-1.328.248-1.92.465C3.624 2.354.858 5.735.094 10.69c-.022.14-.054.271-.082.387L0 11.133v2.151c.045.22.087.441.13.662.096.508.195 1.03.332 1.517a11.878 11.878 0 0 0 3.195 5.366c.451.439.596.928.457 1.54a22.806 22.806 0 0 0 .013 10.312c.132.568-.004 1.028-.43 1.446C1.64 36.15.425 38.602.087 41.415a1.627 1.627 0 0 1-.087.35v2.111c.053.255.101.51.148.758.11.583.223 1.177.383 1.727 1.328 4.575 5.417 8.008 10.175 8.544.159.017.292.054.41.087l.012.004.016.004h2.144c.18-.035.36-.07.541-.103.427-.079.865-.16 1.282-.265a11.979 11.979 0 0 0 5.72-3.29c.442-.45.93-.596 1.539-.458 3.393.775 6.867.777 10.325.008.46-.103 1.069.078 1.413.42 2.076 2.066 4.553 3.279 7.363 3.606.127.015.235.05.315.082h2.094c.213-.041.426-.08.638-.119.483-.088.981-.178 1.447-.3z" mask="url(#b)"/>
        </g>
        <path fill="#51AFED" d="M13.294 18.12c.857-.078 1.602-.441 2.344-1.145.571-.54.872-1.576.731-2.517-.087-.581-.377-1.37-1.265-1.824-.576-.294-1.208-.529-1.82-.756a78.246 78.246 0 0 1-.455-.17c-.405-.154-.823-.3-1.228-.441-.386-.136-.786-.276-1.177-.423-.739-.277-1.082-.82-.967-1.525.11-.68.784-1.307 1.47-1.368 1.476-.131 2.718.068 3.797.608l.443.223.717-1.008c-.92-.57-1.964-.93-3.184-1.094l-.279-.038-.053-.853h-.416l-.048.745-.282.034c-1.196.144-2.024.446-2.684.977A2.74 2.74 0 0 0 7.922 9.95a2.555 2.555 0 0 0 1.352 2.041c.514.276 1.09.445 1.698.624.267.078.543.16.811.25.217.073.445.14.666.206.488.145.993.295 1.464.526.43.21.721.575.82 1.027.11.504-.04 1.06-.4 1.486-.654.777-1.495.845-2.232.81-1.205-.06-2.326-.503-3.507-1.391l-.875 1.009a7.956 7.956 0 0 0 2.934 1.428l.018.005c1.037.267 1.199.397 1.279 1.327h.43v-1.046l.291-.043.212-.033c.141-.023.274-.044.411-.057M7.72 43.98h1.653v4.498H7.861v.733h8.543v-.756h-5.867v-4.48h.64c.247 0 .493 0 .737.002h.014c.659.002 1.284.005 1.91-.012.011-.206.01-.42.008-.641H10.52v-.59c0-.307-.004-.606-.008-.9-.01-.712-.019-1.376.024-2.054.059-.919.547-1.618 1.375-1.968 1.289-.544 2.724-.259 3.656.726l.01.01.635-.498c-.99-1.191-2.49-1.634-4.259-1.247-1.5.329-2.304 1.074-2.528 2.344-.09.507-.11 1.053-.131 1.582l-.01.264c-.016.375-.012.757-.008 1.162.001.19.003.385.003.587v.59H7.72v.648zM47.1 46.28h-3.608v-.59c0-.098.002-.188.004-.273a2.717 2.717 0 0 0-.004-.358c-.046-.383.035-.689.24-.908.31-.334.767-.309.916-.3.335.018.687.013 1.027.008.162-.003.323-.005.484-.005h.928v-.562h-2.9l4.059-6.61c-.347 0-.696-.001-1.038-.015-.055-.002-.071.003-.072.004.001 0-.022.017-.076.106-.905 1.497-1.836 3.011-2.736 4.476l-.618 1.005c-.068.11-.137.208-.218.323l-.123.176-.508.739-.47-.763-.131-.209c-.077-.123-.15-.239-.22-.359l-.871-1.511a1005.19 1005.19 0 0 0-2.234-3.86 1.301 1.301 0 0 0-.064-.102 31.466 31.466 0 0 0-1.235-.015l3.973 6.653h-3.024v.527h3.56v2.445h-3.564v.539h3.615v2.37h1.318v-2.408h3.59v-.522zM48.001 16.737l-.605-.693a4.807 4.807 0 0 1-4.07 1.229c-1.457-.243-2.59-1.136-3.03-2.39l-.276-.781h4.645v-.443h-4.924l-.204-2.78h5.125v-.516h-4.874l.357-.82c.577-1.327 1.447-2.128 2.658-2.45 1.824-.483 3.429-.109 4.775 1.113l.668-.822c-1.387-1.365-3.139-1.857-5.21-1.463-1.933.369-3.339 1.586-4.179 3.62-.246.595-.671.866-1.302.827a11.735 11.735 0 0 0-.888-.013v.458h1.725v2.762h-1.606v.408l.343-.002c.304 0 .54.007.767.023.356.025.816.284.97.674 1.105 2.799 3.627 4.139 6.581 3.497 1.055-.229 1.893-.7 2.554-1.438"/>
    </g>
</svg>
