<svg width="73" height="72" viewBox="0 0 73 72" fill="none" xmlns="http://www.w3.org/2000/svg">
<path d="M7.5 69.09H65.51" stroke="#52AFEE" stroke-width="1.2" stroke-miterlimit="10" stroke-linecap="round"/>
<path d="M15.41 47.41H7.99C7.71938 47.41 7.5 47.6294 7.5 47.9V63C7.5 63.2707 7.71938 63.49 7.99 63.49H15.41C15.6806 63.49 15.9 63.2707 15.9 63V47.9C15.9 47.6294 15.6806 47.41 15.41 47.41Z" stroke="black" stroke-width="1.2" stroke-miterlimit="10"/>
<path d="M31.83 39.33H24.41C24.1394 39.33 23.92 39.5493 23.92 39.82V63C23.92 63.2706 24.1394 63.49 24.41 63.49H31.83C32.1007 63.49 32.32 63.2706 32.32 63V39.82C32.32 39.5493 32.1007 39.33 31.83 39.33Z" stroke="black" stroke-width="1.2" stroke-miterlimit="10"/>
<path d="M48.39 30.49H40.97C40.6994 30.49 40.48 30.7094 40.48 30.98V63.14C40.48 63.4106 40.6994 63.63 40.97 63.63H48.39C48.6606 63.63 48.88 63.4106 48.88 63.14V30.98C48.88 30.7094 48.6606 30.49 48.39 30.49Z" stroke="black" stroke-width="1.2" stroke-miterlimit="10"/>
<path d="M65.02 23.6801H57.6C57.3294 23.6801 57.11 23.8994 57.11 24.1701V63.0001C57.11 63.2707 57.3294 63.4901 57.6 63.4901H65.02C65.2906 63.4901 65.51 63.2707 65.51 63.0001V24.1701C65.51 23.8994 65.2906 23.6801 65.02 23.6801Z" stroke="black" stroke-width="1.2" stroke-miterlimit="10"/>
<path d="M7.5 42.36L17.76 32.31L29.09 32.22L43.7 16.16L52.54 15.99L62.52 5" stroke="black" stroke-width="1.2" stroke-linecap="round" stroke-linejoin="round"/>
<path d="M64.71 15.2L63 4.65002L52.26 6.05002" stroke="black" stroke-width="1.2" stroke-linecap="round" stroke-linejoin="round"/>
<path d="M25.54 20.54V21.82C25.54 22.0852 25.4346 22.3396 25.2471 22.5271C25.0596 22.7146 24.8052 22.82 24.54 22.82C24.2748 22.82 24.0204 22.7146 23.8329 22.5271C23.6453 22.3396 23.54 22.0852 23.54 21.82V20.57C21.13 20.4 19.32 19.57 18.29 18.26C18.1265 18.0481 18.0385 17.7876 18.04 17.52C18.0325 17.3176 18.0868 17.1177 18.1954 16.9467C18.3041 16.7758 18.4622 16.6419 18.6486 16.5627C18.8351 16.4836 19.0412 16.463 19.2396 16.5035C19.4381 16.5441 19.6195 16.644 19.76 16.79C20.7656 17.8087 22.1113 18.421 23.54 18.51V13.62C19.88 13.4 18.39 12.15 18.39 9.62C18.39 7.09 20.39 5.3 23.54 5V4C23.54 3.73478 23.6453 3.48043 23.8329 3.29289C24.0204 3.10536 24.2748 3 24.54 3C24.8052 3 25.0596 3.10536 25.2471 3.29289C25.4346 3.48043 25.54 3.73478 25.54 4V5C27.2352 5.07624 28.8421 5.77812 30.05 6.97C30.2357 7.17842 30.3326 7.45115 30.32 7.73C30.3282 7.86628 30.3084 8.0028 30.2618 8.13113C30.2152 8.25947 30.1429 8.37691 30.0492 8.47622C29.9555 8.57553 29.8425 8.6546 29.717 8.70857C29.5916 8.76253 29.4565 8.79025 29.32 8.79C29.0581 8.7908 28.8052 8.69462 28.61 8.52C27.7605 7.74033 26.6856 7.25016 25.54 7.12V11.71C29.37 11.97 30.9 13.25 30.9 15.97C30.9 18.69 28.9 20.3 25.54 20.54ZM23.54 11.54V7.04C21.67 7.26 20.59 8.22 20.59 9.6C20.6 10.8 21.46 11.41 23.55 11.56L23.54 11.54ZM25.54 18.54C27.54 18.34 28.7 17.41 28.7 15.99C28.7 14.57 27.79 13.99 25.54 13.8V18.54Z" fill="#52AFEE"/>
</svg>
