<svg xmlns="http://www.w3.org/2000/svg" width="53" height="50" viewBox="0 0 53 50">
    <g fill="none" fill-rule="evenodd" stroke="#FFF" stroke-width=".5">
        <path fill="#000" d="M8.8 25H1.86c-.475 0-.86.347-.86.775v22.45c0 .428.385.775.86.775H8.8c.475 0 .86-.347.86-.775V41.14c0-.428-.385-.775-.86-.775s-.86.347-.86.775v6.31H2.72v-20.9h5.22v12.006c0 .429.385.775.86.775s.86-.346.86-.775V25.775c0-.428-.385-.775-.86-.775z"/>
        <path fill="#000" fill-rule="nonzero" d="M19.385 32.68h-6.94c-.475 0-.86.337-.86.753v14.813c0 .416.385.754.86.754h6.94c.475 0 .86-.338.86-.754V33.433c0-.416-.385-.753-.86-.753zm-.86 14.813h-5.22V34.187h5.22v13.306zM30.932 21.16h-6.94c-.474 0-.86.335-.86.749V48.25c0 .413.386.749.86.749h6.94c.475 0 .86-.336.86-.75V21.91c0-.414-.385-.749-.86-.749zm-.86 26.342h-5.22V22.658h5.22v24.844zM40.555 25h-6.94c-.475 0-.86.33-.86.738v22.524c0 .407.385.738.86.738h6.94c.475 0 .86-.33.86-.738V25.738c0-.408-.385-.738-.86-.738zm-.86 22.524h-5.22V26.476h5.22v21.048z"/>
        <path fill="#000" d="M51.14 13.48H44.2c-.475 0-.86.342-.86.764v10.088c0 .422.385.765.86.765s.86-.343.86-.765V15.01h5.22V47.47h-5.22v-20.59c0-.423-.385-.765-.86-.765s-.86.342-.86.764v21.355c0 .423.385.765.86.765h6.94c.475 0 .86-.342.86-.765v-33.99c0-.423-.385-.765-.86-.765z"/>
        <path fill="#51AFED" fill-rule="nonzero" d="M46.043 8.082c.612.425 1.35.674 2.145.674C50.29 8.756 52 7.016 52 4.878S50.29 1 48.188 1s-3.811 1.74-3.811 3.878c0 .773.224 1.494.61 2.1l-5.498 5.453a3.744 3.744 0 0 0-2.145-.674c-1.42 0-2.66.796-3.316 1.971l-3.742-1.236a3.95 3.95 0 0 0 .026-.443c0-2.138-1.71-3.878-3.812-3.878s-3.812 1.74-3.812 3.878c0 .847.27 1.63.723 2.269l-5.779 6.37a3.743 3.743 0 0 0-1.976-.564 3.767 3.767 0 0 0-2.717 1.162l-4.583-3.03c.172-.442.267-.923.267-1.425 0-2.139-1.71-3.879-3.812-3.879C2.71 12.952 1 14.692 1 16.831c0 2.138 1.71 3.878 3.812 3.878a3.769 3.769 0 0 0 2.717-1.163l4.583 3.03a3.918 3.918 0 0 0-.268 1.426c0 2.138 1.71 3.878 3.812 3.878s3.812-1.74 3.812-3.878c0-.846-.27-1.63-.723-2.268l5.779-6.37a3.738 3.738 0 0 0 1.976.564c1.42 0 2.661-.796 3.317-1.971l3.741 1.236a3.95 3.95 0 0 0-.025.442c0 2.139 1.71 3.878 3.812 3.878 2.101 0 3.811-1.74 3.811-3.878 0-.773-.224-1.494-.61-2.099l5.497-5.454zM4.812 19.167c-1.267 0-2.297-1.048-2.297-2.336 0-1.29 1.03-2.337 2.297-2.337 1.266 0 2.296 1.048 2.296 2.337 0 1.288-1.03 2.336-2.296 2.336zm10.844 7.172c-1.267 0-2.297-1.048-2.297-2.337 0-1.289 1.03-2.337 2.297-2.337 1.266 0 2.297 1.048 2.297 2.337 0 1.289-1.03 2.337-2.297 2.337zM26.5 14.386c-1.267 0-2.297-1.048-2.297-2.337 0-1.288 1.03-2.336 2.297-2.336 1.267 0 2.297 1.048 2.297 2.336 0 1.29-1.03 2.337-2.297 2.337zM48.188 2.541c1.267 0 2.297 1.048 2.297 2.337 0 1.289-1.03 2.337-2.297 2.337-1.266 0-2.296-1.048-2.296-2.337 0-1.289 1.03-2.337 2.296-2.337zm-10.844 15.43c-1.266 0-2.297-1.047-2.297-2.336 0-1.288 1.03-2.337 2.297-2.337 1.267 0 2.297 1.049 2.297 2.337 0 1.289-1.03 2.337-2.297 2.337z"/>
    </g>
</svg>
