<?xml version="1.0" encoding="UTF-8"?>
<!DOCTYPE svg PUBLIC "-//W3C//DTD SVG 1.1//EN" "http://www.w3.org/Graphics/SVG/1.1/DTD/svg11.dtd">
<svg xmlns="http://www.w3.org/2000/svg" version="1.1" width="103px" height="13px" style="shape-rendering:geometricPrecision; text-rendering:geometricPrecision; image-rendering:optimizeQuality; fill-rule:evenodd; clip-rule:evenodd" xmlns:xlink="http://www.w3.org/1999/xlink">
<g><path style="opacity:1" fill="#40697e" d="M 32.5,3.5 C 32.5,4.83333 32.5,6.16667 32.5,7.5C 31.596,6.79105 31.2627,5.79105 31.5,4.5C 29.8333,4.5 28.1667,4.5 26.5,4.5C 26.8693,6.99349 26.2027,7.66015 24.5,6.5C 25.4315,1.18731 28.0982,0.187305 32.5,3.5 Z"/></g>
<g><path style="opacity:0.394" fill="#fefefe" d="M 32.5,3.5 C 36.3482,3.68858 40.0149,3.68858 43.5,3.5C 44.7376,7.31074 45.4042,7.31074 45.5,3.5C 55.1869,4.78905 65.5203,4.78905 76.5,3.5C 76.5,5.16667 76.5,6.83333 76.5,8.5C 72.3268,9.04364 68.4935,8.37697 65,6.5C 64.4806,7.51556 63.6473,8.18223 62.5,8.5C 53.0819,7.84592 43.0819,7.84592 32.5,8.5C 32.5,8.16667 32.5,7.83333 32.5,7.5C 32.5,6.16667 32.5,4.83333 32.5,3.5 Z"/></g>
<g><path style="opacity:1" fill="#1c2e39" d="M 32.5,7.5 C 32.5,7.83333 32.5,8.16667 32.5,8.5C 28.7282,11.6824 26.0615,11.0157 24.5,6.5C 26.2027,7.66015 26.8693,6.99349 26.5,4.5C 28.1667,4.5 29.8333,4.5 31.5,4.5C 31.2627,5.79105 31.596,6.79105 32.5,7.5 Z"/></g>
</svg>
