<svg width="72" height="72" viewBox="0 0 72 72" fill="none" xmlns="http://www.w3.org/2000/svg">
<path d="M70.5 8H1.49C1.21938 8 1 8.21938 1 8.49V58.92C1 59.1906 1.21938 59.41 1.49 59.41H70.5C70.7706 59.41 70.99 59.1906 70.99 58.92V8.49C70.99 8.21938 70.7706 8 70.5 8Z" stroke="black" stroke-width="1.2" stroke-miterlimit="10"/>
<path d="M54.7999 12.63H65.7999C65.936 12.6352 66.0647 12.6937 66.1582 12.7928C66.2517 12.8919 66.3026 13.0238 66.2999 13.16V54.66C66.3026 54.7962 66.2517 54.9281 66.1582 55.0272C66.0647 55.1263 65.936 55.1848 65.7999 55.19H13.8799" stroke="black" stroke-width="1.2" stroke-miterlimit="10" stroke-linecap="round"/>
<path d="M10.0401 55.19H6.1801C6.11311 55.1874 6.04729 55.1717 5.98639 55.1436C5.9255 55.1156 5.87073 55.0758 5.82522 55.0266C5.77971 54.9774 5.74435 54.9197 5.72117 54.8568C5.69798 54.7939 5.68743 54.727 5.6901 54.66V13.16C5.68743 13.093 5.69798 13.0262 5.72117 12.9633C5.74435 12.9004 5.77971 12.8426 5.82522 12.7934C5.87073 12.7442 5.9255 12.7044 5.98639 12.6764C6.04729 12.6483 6.11311 12.6326 6.1801 12.63H50.7701" stroke="black" stroke-width="1.2" stroke-miterlimit="10" stroke-linecap="round"/>
<path d="M19.2698 63.38H6.17984C6.04989 63.38 5.92526 63.3284 5.83336 63.2365C5.74147 63.1446 5.68985 63.02 5.68985 62.89V59.38H19.7598V62.87C19.7625 62.936 19.7519 63.0019 19.7284 63.0637C19.705 63.1254 19.6694 63.1818 19.6236 63.2295C19.5778 63.2771 19.5229 63.315 19.4621 63.3409C19.4013 63.3668 19.3359 63.3801 19.2698 63.38Z" stroke="black" stroke-width="1.2" stroke-miterlimit="10"/>
<path d="M57.6599 27.36V40.4599C57.6599 40.7306 57.8793 40.95 58.1499 40.95H61.1199C61.3905 40.95 61.6099 40.7306 61.6099 40.4599V27.36C61.6099 27.0893 61.3905 26.87 61.1199 26.87H58.1499C57.8793 26.87 57.6599 27.0893 57.6599 27.36Z" stroke="black" stroke-width="1.2" stroke-miterlimit="10"/>
<path d="M65.8099 63.38H52.7199C52.5899 63.38 52.4653 63.3284 52.3734 63.2365C52.2815 63.1446 52.2299 63.02 52.2299 62.89V59.38H66.2999V62.87C66.3026 62.936 66.2919 63.0019 66.2685 63.0637C66.2451 63.1254 66.2094 63.1818 66.1636 63.2295C66.1179 63.2771 66.0629 63.315 66.0021 63.3409C65.9413 63.3668 65.876 63.3801 65.8099 63.38Z" stroke="black" stroke-width="1.2" stroke-miterlimit="10"/>
<path d="M26.0199 22.23L23.0899 19.3C22.9042 19.114 22.6836 18.9665 22.4408 18.8658C22.198 18.7652 21.9377 18.7134 21.6749 18.7134C21.4121 18.7134 21.1518 18.7652 20.909 18.8658C20.6662 18.9665 20.4457 19.114 20.2599 19.3V19.3C20.074 19.4857 19.9264 19.7063 19.8258 19.9491C19.7251 20.1919 19.6733 20.4521 19.6733 20.715C19.6733 20.9778 19.7251 21.238 19.8258 21.4808C19.9264 21.7236 20.074 21.9442 20.2599 22.13L23.1899 25.06" stroke="black" stroke-width="1.2" stroke-linecap="round" stroke-linejoin="round"/>
<path d="M34.29 46.16C41.4918 46.16 47.33 40.3217 47.33 33.12C47.33 25.9182 41.4918 20.08 34.29 20.08C27.0882 20.08 21.25 25.9182 21.25 33.12C21.25 40.3217 27.0882 46.16 34.29 46.16Z" stroke="black" stroke-width="1.2" stroke-miterlimit="10"/>
<path d="M34.29 43.2C39.857 43.2 44.37 38.6871 44.37 33.12C44.37 27.553 39.857 23.04 34.29 23.04C28.7229 23.04 24.21 27.553 24.21 33.12C24.21 38.6871 28.7229 43.2 34.29 43.2Z" stroke="black" stroke-width="1.2" stroke-miterlimit="10"/>
<path d="M35 38.22V39.08C35.0086 39.1707 34.9978 39.2621 34.9682 39.3482C34.9386 39.4344 34.891 39.5132 34.8285 39.5795C34.7661 39.6457 34.6902 39.6979 34.6059 39.7325C34.5217 39.7671 34.431 39.7833 34.34 39.78C34.2473 39.7883 34.1539 39.7757 34.0668 39.743C33.9796 39.7103 33.901 39.6584 33.8366 39.5912C33.7723 39.524 33.7239 39.4431 33.695 39.3546C33.6662 39.2661 33.6576 39.1723 33.67 39.08V38.24C33.0083 38.2432 32.3532 38.1079 31.747 37.8426C31.1407 37.5774 30.5968 37.1882 30.15 36.7C30.0427 36.5557 29.9864 36.3798 29.99 36.2C29.9844 36.1096 29.9977 36.0191 30.0291 35.9342C30.0606 35.8492 30.1094 35.7718 30.1724 35.7068C30.2355 35.6419 30.3115 35.5908 30.3954 35.5569C30.4794 35.523 30.5695 35.507 30.66 35.51C30.84 35.5115 31.0122 35.5833 31.14 35.71C31.8096 36.3966 32.7125 36.807 33.67 36.86V33.59C31.22 33.45 30.22 32.59 30.22 30.93C30.22 29.27 31.53 28.04 33.67 27.84V27.17C33.6579 27.0773 33.6666 26.9831 33.6954 26.8942C33.7242 26.8053 33.7724 26.724 33.8365 26.656C33.9007 26.588 33.9791 26.5352 34.0662 26.5013C34.1533 26.4674 34.2468 26.4533 34.34 26.46C34.432 26.4566 34.5236 26.473 34.6086 26.5082C34.6936 26.5433 34.77 26.5964 34.8327 26.6638C34.8953 26.7312 34.9427 26.8113 34.9716 26.8987C35.0004 26.986 35.0101 27.0786 35 27.17V27.84C36.1217 27.8823 37.1889 28.3341 38 29.11C38.1214 29.2517 38.1855 29.4335 38.18 29.62C38.1856 29.7117 38.172 29.8035 38.1401 29.8897C38.1082 29.9758 38.0587 30.0543 37.9947 30.1202C37.9307 30.1861 37.8536 30.2379 37.7684 30.2723C37.6833 30.3067 37.5918 30.323 37.5 30.32C37.3265 30.3203 37.159 30.2562 37.03 30.14C36.4752 29.6312 35.7766 29.3063 35.03 29.21V32.31C37.59 32.46 38.62 33.31 38.62 35.14C38.62 36.97 37.25 38.06 35 38.22ZM33.67 32.22V29.22C32.42 29.37 31.67 30.01 31.67 30.93C31.67 31.85 32.27 32.11 33.67 32.21V32.22ZM35 36.89C36.31 36.76 37.11 36.13 37.11 35.18C37.11 34.23 36.51 33.83 35 33.72V36.89Z" fill="#52AFEE"/>
<path d="M42.26 44.13L45.2 47.07C45.3858 47.256 45.6063 47.4035 45.8491 47.5042C46.0919 47.6048 46.3522 47.6566 46.615 47.6566C46.8778 47.6566 47.1381 47.6048 47.3809 47.5042C47.6237 47.4035 47.8443 47.256 48.03 47.07C48.216 46.8843 48.3635 46.6637 48.4641 46.4209C48.5648 46.1781 48.6166 45.9179 48.6166 45.655C48.6166 45.3922 48.5648 45.132 48.4641 44.8892C48.3635 44.6464 48.216 44.4258 48.03 44.24L45.09 41.3" stroke="black" stroke-width="1.2" stroke-linecap="round" stroke-linejoin="round"/>
<path d="M23.1899 41.3L20.2599 44.24C20.074 44.4258 19.9264 44.6464 19.8258 44.8892C19.7251 45.132 19.6733 45.3922 19.6733 45.655C19.6733 45.9179 19.7251 46.1781 19.8258 46.4209C19.9264 46.6637 20.074 46.8843 20.2599 47.07C20.4457 47.256 20.6662 47.4035 20.909 47.5042C21.1518 47.6048 21.4121 47.6566 21.6749 47.6566C21.9377 47.6566 22.198 47.6048 22.4408 47.5042C22.6836 47.4035 22.9042 47.256 23.0899 47.07L26.0199 44.13" stroke="black" stroke-width="1.2" stroke-linecap="round" stroke-linejoin="round"/>
<path d="M45.09 25.06L48.03 22.13C48.216 21.9442 48.3635 21.7236 48.4641 21.4808C48.5648 21.238 48.6166 20.9778 48.6166 20.715C48.6166 20.4521 48.5648 20.1919 48.4641 19.9491C48.3635 19.7063 48.216 19.4857 48.03 19.3V19.3C47.8443 19.114 47.6237 18.9665 47.3809 18.8658C47.1381 18.7652 46.8778 18.7134 46.615 18.7134C46.3522 18.7134 46.0919 18.7652 45.8491 18.8658C45.6063 18.9665 45.3858 19.114 45.2 19.3L42.26 22.23" stroke="black" stroke-width="1.2" stroke-linecap="round" stroke-linejoin="round"/>
</svg>
