<svg xmlns="http://www.w3.org/2000/svg" viewBox="0 0 50.3 17.98">
  <defs>
    <style>
      .a {
        fill: #fff;
      }
    </style>
  </defs>
  <title>ssl_2</title>
  <g>
    <path class="a" d="M18.17,7.53a1.32,1.32,0,0,0-1.32-1.22h-.74V6c0-.65,0-1.31,0-2a4.2,4.2,0,0,0-.18-1,4.09,4.09,0,0,0-.31-.75A4.15,4.15,0,0,0,12.15,0a4.28,4.28,0,0,0-4,2.25,3.56,3.56,0,0,0-.3.75,4.13,4.13,0,0,0-.13.63A22.32,22.32,0,0,0,7.62,6c0,.11,0,.23,0,.36H7.07A1.39,1.39,0,0,0,5.53,7.86c0,2,0,3.9,0,5.84a1.42,1.42,0,0,0,1.6,1.59h9.48a1.43,1.43,0,0,0,1.6-1.6V9.37C18.21,8.76,18.22,8.14,18.17,7.53ZM8.51,6.24a18.7,18.7,0,0,1,.08-2.7A4.27,4.27,0,0,1,8.72,3a3.4,3.4,0,0,1,.41-.75A3.35,3.35,0,0,1,11.91.86,3.43,3.43,0,0,1,14.6,2.25,3.37,3.37,0,0,1,15,3a3.44,3.44,0,0,1,.17.72,22.14,22.14,0,0,1,0,2.58H8.55S8.51,6.26,8.51,6.24Zm7,3-3.63,3.62a.48.48,0,0,1-.7,0L9.45,11.13a.5.5,0,0,1,.71-.71l1.38,1.38,3.27-3.27a.5.5,0,0,1,.71.71Z"/>
    <path class="a" d="M42.43,2.25H14.6A3.37,3.37,0,0,1,15,3H42.43a7.12,7.12,0,1,1,0,14.23H7.87A7.12,7.12,0,0,1,7.81,3h.91a3.4,3.4,0,0,1,.41-.75H7.87A7.87,7.87,0,1,0,7.87,18H42.43a7.87,7.87,0,1,0,0-15.73Z"/>
    <g>
      <path class="a" d="M21.6,7.72a1,1,0,0,0,.14.5.9.9,0,0,0,.82.35A1.43,1.43,0,0,0,23,8.5.55.55,0,0,0,23.46,8a.46.46,0,0,0-.18-.41,2.09,2.09,0,0,0-.56-.22l-.47-.1A2.35,2.35,0,0,1,21.6,7a.75.75,0,0,1-.34-.67,1,1,0,0,1,.33-.8,1.31,1.31,0,0,1,.92-.31,1.49,1.49,0,0,1,.93.28,1,1,0,0,1,.39.87h-.46a.89.89,0,0,0-.15-.45.86.86,0,0,0-.72-.28.8.8,0,0,0-.59.18.58.58,0,0,0-.18.42.41.41,0,0,0,.21.39,2.68,2.68,0,0,0,.63.19l.49.12a1.35,1.35,0,0,1,.54.23.85.85,0,0,1,.33.73.92.92,0,0,1-.42.85,1.86,1.86,0,0,1-1,.26,1.42,1.42,0,0,1-1-.35,1.16,1.16,0,0,1-.37-.92Z"/>
      <path class="a" d="M24.94,7.72a.92.92,0,0,0,.14.5.88.88,0,0,0,.82.35,1.51,1.51,0,0,0,.48-.07A.55.55,0,0,0,26.79,8a.45.45,0,0,0-.17-.41,2,2,0,0,0-.57-.22l-.47-.1A2.65,2.65,0,0,1,24.93,7a.77.77,0,0,1-.33-.67,1,1,0,0,1,.33-.8,1.29,1.29,0,0,1,.92-.31,1.53,1.53,0,0,1,.93.28,1,1,0,0,1,.38.87h-.45a1.13,1.13,0,0,0-.15-.45.9.9,0,0,0-.73-.28.82.82,0,0,0-.59.18.58.58,0,0,0-.18.42.41.41,0,0,0,.21.39,3,3,0,0,0,.64.19l.48.12a1.34,1.34,0,0,1,.55.23.85.85,0,0,1,.33.73.92.92,0,0,1-.42.85,1.9,1.9,0,0,1-1,.26,1.45,1.45,0,0,1-1-.35,1.16,1.16,0,0,1-.36-.92Z"/>
      <path class="a" d="M28,5.29h.49V8.45h1.8v.43H28Z"/>
      <path class="a" d="M21.6,13.72a1,1,0,0,0,.14.5.9.9,0,0,0,.82.35A1.43,1.43,0,0,0,23,14.5a.55.55,0,0,0,.42-.55.46.46,0,0,0-.18-.41,2.09,2.09,0,0,0-.56-.22l-.47-.1A2.35,2.35,0,0,1,21.6,13a.75.75,0,0,1-.34-.67,1,1,0,0,1,.33-.8,1.31,1.31,0,0,1,.92-.31,1.49,1.49,0,0,1,.93.28,1,1,0,0,1,.39.87h-.46a.89.89,0,0,0-.15-.45.86.86,0,0,0-.72-.28.8.8,0,0,0-.59.18.58.58,0,0,0-.18.42.41.41,0,0,0,.21.39,2.68,2.68,0,0,0,.63.19l.49.12a1.35,1.35,0,0,1,.54.23.85.85,0,0,1,.33.73.92.92,0,0,1-.42.85,1.86,1.86,0,0,1-1,.26,1.42,1.42,0,0,1-1-.35,1.16,1.16,0,0,1-.37-.92Z"/>
      <path class="a" d="M24.67,11.29h2.6v.44H25.14v1.09h2v.42h-2v1.21H27.3v.43H24.67Z"/>
      <path class="a" d="M30.49,11.55a1.25,1.25,0,0,1,.41.82h-.47a.91.91,0,0,0-1-.75,1,1,0,0,0-.84.37,1.74,1.74,0,0,0-.32,1.14,1.74,1.74,0,0,0,.29,1,1,1,0,0,0,.86.39.94.94,0,0,0,.81-.41,1.64,1.64,0,0,0,.21-.58h.48a1.57,1.57,0,0,1-.42.95,1.46,1.46,0,0,1-1.14.47,1.49,1.49,0,0,1-1-.38,2,2,0,0,1-.56-1.55,2,2,0,0,1,.42-1.3,1.5,1.5,0,0,1,1.24-.55A1.49,1.49,0,0,1,30.49,11.55Z"/>
      <path class="a" d="M32.09,11.29v2.22a1.28,1.28,0,0,0,.15.65.77.77,0,0,0,.74.39.87.87,0,0,0,.84-.42,1.34,1.34,0,0,0,.12-.62V11.29h.49v2a2.33,2.33,0,0,1-.18,1,1.5,1.5,0,0,1-2.47,0,2.33,2.33,0,0,1-.18-1v-2Z"/>
      <path class="a" d="M35.23,11.29h1.63a1.64,1.64,0,0,1,.67.12.86.86,0,0,1,.49.85,1,1,0,0,1-.13.53,1.08,1.08,0,0,1-.37.33.6.6,0,0,1,.43.67l0,.48a1.68,1.68,0,0,0,0,.31.29.29,0,0,0,.15.22v.08h-.59a.34.34,0,0,1,0-.12,2.6,2.6,0,0,1,0-.28l0-.6a.49.49,0,0,0-.25-.47.93.93,0,0,0-.43-.07H35.72v1.54h-.49Zm1.58,1.65a.92.92,0,0,0,.53-.14.56.56,0,0,0,.19-.49.55.55,0,0,0-.27-.53,1,1,0,0,0-.39-.07H35.72v1.23Z"/>
      <path class="a" d="M38.83,11.29h2.61v.44H39.31v1.09h2v.42h-2v1.21h2.16v.43H38.83Z"/>
      <path class="a" d="M42.14,11.29h1.44a1.35,1.35,0,0,1,1.13.53A1.93,1.93,0,0,1,45.07,13a2.43,2.43,0,0,1-.21,1,1.31,1.31,0,0,1-1.29.82H42.14Zm1.34,3.18a1.16,1.16,0,0,0,.4-.06.87.87,0,0,0,.45-.36,1.42,1.42,0,0,0,.2-.56,1.67,1.67,0,0,0,0-.37,1.82,1.82,0,0,0-.26-1,.93.93,0,0,0-.83-.37h-.85v2.76Z"/>
    </g>
  </g>
</svg>
