<svg width="24" height="24" viewBox="0 0 24 24" fill="none" xmlns="http://www.w3.org/2000/svg">
<path fill-rule="evenodd" clip-rule="evenodd" d="M24 12C24 18.6274 18.6274 24 12 24C5.37258 24 0 18.6274 0 12C0 5.37258 5.37258 0 12 0C18.6274 0 24 5.37258 24 12ZM22.56 12C22.56 17.8321 17.8321 22.56 12 22.56C6.16787 22.56 1.44 17.8321 1.44 12C1.44 6.16787 6.16787 1.44 12 1.44C17.8321 1.44 22.56 6.16787 22.56 12ZM8.98219 12.7086L6.42487 11.7842C6.17838 11.661 6.17838 11.3221 6.42487 11.1988L16.8698 7.22422C17.0855 7.13179 17.332 7.31665 17.2704 7.56314L15.3909 16.5599C15.3601 16.7756 15.1136 16.868 14.9287 16.7448L12.3714 14.8961C12.2174 14.7729 12.0017 14.7729 11.8476 14.8961L10.4303 16.0361C10.2763 16.1594 10.0298 16.0978 9.96815 15.8821L8.98219 12.7086ZM14.7747 9.16531L9.81409 12.2156C9.59841 12.3388 9.53679 12.5545 9.5676 12.8318L10.0914 14.7113C10.1222 14.8345 10.3071 14.8037 10.3379 14.6805L10.4919 13.6329C10.5227 13.4172 10.6152 13.2324 10.7692 13.1091L14.8671 9.28855C14.9596 9.22693 14.8671 9.10369 14.7747 9.16531Z" fill="white"/>
</svg>
