<svg xmlns="http://www.w3.org/2000/svg" width="84" height="79" viewBox="0 0 84 79">
    <g fill="none" fill-rule="evenodd">
        <path fill="#000" d="M17.748 5.924a.495.495 0 0 0-.25-.924.477.477 0 0 0-.448.279c-.096.2-.05.44.113.59.163.15.404.174.592.058l-.007-.003zM26.759 5.927a.516.516 0 0 0 .206-.624.496.496 0 0 0-.468-.303.493.493 0 0 0-.457.3.507.507 0 0 0 .133.577c.164.143.4.163.586.05zM22.776 5.92a.498.498 0 0 0 .188-.6.515.515 0 0 0-.46-.32.518.518 0 0 0-.48.355c-.065.199.005.417.174.543.168.127.4.136.578.022z"/>
        <path fill="#000" fill-rule="nonzero" d="M34.928 79h5.869c.332-.002.6-.27.602-.603V66.24h37.51A5.096 5.096 0 0 0 84 61.146V5.093A5.096 5.096 0 0 0 78.908 0H16.053A5.093 5.093 0 0 0 11 5.093v22.34a.603.603 0 1 0 1.205 0V11.058h39.192v17.24a.603.603 0 0 0 .971.478L68.452 16.31a.607.607 0 0 0 .105-.851 21.202 21.202 0 0 0-3.11-3.22l-1.414-1.166h18.758v50.081a3.887 3.887 0 0 1-3.887 3.888H41.396v-7.15l.835.218a20.985 20.985 0 0 0 18.092-3.731A20.997 20.997 0 0 0 68.46 37.79a21.366 21.366 0 0 0-.389-3.958.606.606 0 0 0-1.189.226c.235 1.23.353 2.48.354 3.732a19.726 19.726 0 0 1-7.129 15.23l-.552.458-11.233-15.552 15.159-11.784.389.595a19.554 19.554 0 0 1 1.92 3.577.59.59 0 0 0 .322.326.603.603 0 0 0 .793-.778 21.035 21.035 0 0 0-2.856-4.93.61.61 0 0 0-.848-.104l-15.108 11.75V17.413a.603.603 0 0 0-.603-.602A20.99 20.99 0 0 0 27.79 30.67a20.999 20.999 0 0 0 6.291 23.255l.241.203v10.91h-4.547v-8.652a.606.606 0 0 0-.607-.606h-5.869a.606.606 0 0 0-.606.606v8.651h-4.633V31.68a.606.606 0 0 0-.607-.606h-5.869a.606.606 0 0 0-.583.606v46.718c.002.332.27.6.602.603h5.85c.334 0 .604-.27.607-.603V66.24h4.633v12.15a.606.606 0 0 0 .606.602h5.87c.333 0 .604-.269.606-.602V66.24h4.547v12.15a.607.607 0 0 0 .607.61zm31.83-63.814l.478.537L52.59 27.064V8.592l.711.047a19.619 19.619 0 0 1 13.457 6.547zm-4.84-5.322l-.147-.078a21.113 21.113 0 0 0-9.76-2.383.606.606 0 0 0-.603.602v1.859H12.186v-4.77a3.887 3.887 0 0 1 3.886-3.889h62.836a3.887 3.887 0 0 1 3.887 3.888v4.77H61.918zM40.191 77.79h-4.665V46.8h4.665v30.99zm-7.036-26.368a19.778 19.778 0 0 1-4.094-20.814 19.77 19.77 0 0 1 17.1-12.545l.711-.047V37.79a.607.607 0 0 0 .12.354l.347.482L58.564 54.18l-.602.389a19.745 19.745 0 0 1-16.096 2.204l-.478-.14V46.197a.603.603 0 0 0-.603-.603h-5.869a.602.602 0 0 0-.606.603v6.435l-1.155-1.21zM16.83 77.79h-4.664V32.3h4.664v45.49zm11.715 0h-4.664v-20.8h4.664v20.8z"/>
        <path fill="#52CEE1" d="M.6 40a.601.601 0 0 0-.6.599V78.4c.002.332.27.599.6.599h5.802a.594.594 0 0 0 .596-.599V68.175a.6.6 0 0 0-.598-.554.6.6 0 0 0-.597.554V77.8H1.19V41.201h4.612v22.757a.603.603 0 0 0 .284.562.597.597 0 0 0 .627 0 .603.603 0 0 0 .284-.562v-23.36A.597.597 0 0 0 6.402 40H.6zM65.668 59.002c-.232-.015-.455.076-.577.237a.42.42 0 0 0 0 .522c.122.16.345.252.577.237H79.43c.321-.02.569-.237.569-.498 0-.26-.248-.478-.569-.498H65.668zM69.567 53c-.313 0-.567.224-.567.5s.254.5.567.5h8.866c.313 0 .567-.224.567-.5s-.254-.5-.567-.5h-8.866z"/>
    </g>
</svg>
