<svg xmlns="http://www.w3.org/2000/svg" width="32" height="32" viewBox="0 0 32 32"><g fill="#FFF" fill-rule="evenodd"><path fill-rule="nonzero" d="M32 32h-5V9h5v23zm-1.25-1.314v-20.37h-2.495v20.37h2.495z"/><path d="M28.688 0c.714.007 1.294.597 1.312 1.334.014.727-.532 1.335-1.236 1.375a.406.406 0 0 0-.356.219c-1.684 2.437-3.37 4.871-5.06 7.301a.18.18 0 0 0-.03.194c.122.336.109.708-.037 1.034a1.32 1.32 0 0 1-.74.7c-.666.248-1.404-.09-1.672-.768a.777.777 0 0 1-.068-.227.327.327 0 0 0-.22-.3c-1.423-.724-2.84-1.45-4.253-2.177a.175.175 0 0 0-.19 0c-.307.174-.67.213-1.005.11a.173.173 0 0 0-.185.039 1307.331 1307.331 0 0 0-4.657 3.805.227.227 0 0 0-.071.162 1.32 1.32 0 0 1-.63 1.275 1.202 1.202 0 0 1-1.385-.025.201.201 0 0 0-.212-.028c-1.407.582-2.815 1.162-4.223 1.74a.277.277 0 0 0-.188.218 1.317 1.317 0 0 1-1.339 1.017 1.346 1.346 0 0 1-1.23-1.177 1.357 1.357 0 0 1 .877-1.47 1.202 1.202 0 0 1 1.138.16.188.188 0 0 0 .201.022l4.278-1.785a.185.185 0 0 0 .13-.14c.083-.366.309-.68.624-.868a1.28 1.28 0 0 1 1.04-.121.199.199 0 0 0 .158-.037c1.17-.956 2.338-1.912 3.504-2.869.377-.308.75-.619 1.127-.921a.224.224 0 0 0 .098-.233c-.03-.717.487-1.335 1.18-1.409.692-.074 1.321.42 1.435 1.129a.23.23 0 0 0 .141.196l4.332 2.216a.19.19 0 0 0 .16 0c.208-.112.44-.17.674-.168a.189.189 0 0 0 .171-.092 7843.09 7843.09 0 0 1 3.37-4.864c.574-.84 1.147-1.656 1.722-2.48.079-.091.1-.22.057-.333a1.38 1.38 0 0 1 .194-1.209A1.29 1.29 0 0 1 28.688 0z"/><path fill-rule="nonzero" d="M13 15h5v17h-5V15zm3.747 15.7V16.305h-2.491v14.393h2.49zM25 18v14h-5V18h5zm-1.259 12.663V19.331h-2.485v11.332h2.485zM7 20h5v11.83c0 .129-.023.17-.152.17H7V20zm1.252 10.65h2.49v-9.317h-2.49v9.318zM0 32v-9h5v9H0zm3.742-1.285v-6.422H1.25v6.422h2.49z"/></g></svg>