<svg xmlns="http://www.w3.org/2000/svg" width="74" height="74" viewBox="0 0 74 74">
    <g fill="none" fill-rule="nonzero">
        <path fill="#52CEE1" d="M48.523 12.477A25.366 25.366 0 0 0 30.5 5C16.44 5 5 16.44 5 30.5S16.44 56 30.5 56 56 44.56 56 30.5a25.366 25.366 0 0 0-7.477-18.023zM6.796 25.392C9.213 14.231 19.08 6.261 30.5 6.244a24.256 24.256 0 0 1 19.81 10.303l.3.427-3.824 3.825-.417-.25a4.285 4.285 0 0 0-2.186-.622 4.354 4.354 0 0 0-4.354 4.354c.006.773.22 1.53.622 2.19l.252.417-8.835 8.835-.424-.247a4.187 4.187 0 0 0-4.376 0l-.418.255-6.347-6.347.252-.417c.4-.664.613-1.424.616-2.199a4.354 4.354 0 0 0-4.338-4.353 4.341 4.341 0 0 0-4.199 3.265l-.12.466H6.634l.163-.754zm40.497-1.111a3.11 3.11 0 1 1-6.22 0 3.11 3.11 0 0 1 6.22 0zM32.366 39.207a3.11 3.11 0 1 1-6.22 0 3.11 3.11 0 0 1 6.22 0zm-12.44-12.439a3.11 3.11 0 1 1-6.219 0 3.11 3.11 0 0 1 6.22 0zm22.358 24.94a24.289 24.289 0 0 1-11.764 3.048h-.037c-13.38 0-24.23-10.843-24.24-24.223 0-.864.046-1.727.138-2.586l.059-.557h6.064l.121.467a4.354 4.354 0 0 0 4.198 3.265 4.279 4.279 0 0 0 2.19-.622l.416-.252 6.346 6.346-.25.423a4.282 4.282 0 0 0-.623 2.19 4.354 4.354 0 0 0 8.708 0 4.28 4.28 0 0 0-.622-2.19l-.252-.417 8.833-8.833.417.251c.663.4 1.422.613 2.197.616a4.354 4.354 0 0 0 4.354-4.353 4.28 4.28 0 0 0-.622-2.191l-.252-.417 3.64-3.637.4.72c6.498 11.7 2.281 26.453-9.419 32.953z"/>
        <path fill="#000" d="M68.053 74a5.95 5.95 0 0 0 4.204-10.156l-16.01-16.017.276-.425a30.67 30.67 0 0 0 0-33.358l-.276-.424 3.213-3.216.42.249c.666.404 1.428.62 2.207.627a4.39 4.39 0 0 0 4.232-3.293l.123-.47H74V6.262h-7.56l-.12-.47a4.378 4.378 0 0 0-8.622 1.098c.006.78.223 1.543.627 2.209l.254.42-3.056 3.056-.435-.567C44.767-1.435 25.443-3.977 12.005 6.342-1.433 16.662-3.975 35.99 6.34 49.434c9.752 12.707 27.625 15.79 41.068 7.083l.425-.276 16.014 16.015A5.904 5.904 0 0 0 68.053 74zM62.087 3.754a3.135 3.135 0 1 1 0 6.27 3.135 3.135 0 0 1 0-6.27zM30.737 60.19c-13.621.008-25.478-9.313-28.69-22.555-3.211-13.242 3.058-26.962 15.169-33.198 12.11-6.237 26.916-3.369 35.824 6.94 8.907 10.309 9.602 25.378 1.68 36.463-.445.627-.857 1.16-1.254 1.648-.085.102-.172.202-.262.303l-.135.156a29.555 29.555 0 0 1-3.305 3.28c-.068.059-.157.143-.246.212-.49.405-1.029.817-1.65 1.263a29.357 29.357 0 0 1-17.13 5.488zM48.89 55.52l.567-.435c.094-.072.184-.147.273-.222.09-.076.157-.13.235-.195.17-.136.369-.3.55-.453a23.8 23.8 0 0 0 .795-.688c.079-.072.157-.146.237-.221l.157-.148c.501-.47.993-.963 1.464-1.464l.142-.157.23-.245c.21-.233.435-.494.684-.784.157-.183.314-.368.453-.55.063-.079.129-.157.193-.234.064-.077.157-.179.222-.273l.435-.567 4.42 4.422-6.637 6.635-4.42-4.421zm11.944-1.33l10.535 10.538a4.696 4.696 0 0 1-3.23 8.05h-.055a4.662 4.662 0 0 1-3.28-1.337c-.023-.025-.05-.05-.075-.075L54.196 60.829l6.637-6.64z"/>
    </g>
</svg>
