<svg width="60" height="60" viewBox="0 0 60 60" fill="none" xmlns="http://www.w3.org/2000/svg">
<path d="M60 30C60 46.5685 46.5685 60 30 60C13.4315 60 0 46.5685 0 30C0 13.4315 13.4315 0 30 0C46.5685 0 60 13.4315 60 30Z" fill="#4967B8"/>
<path d="M30.0034 12.2397C30.6825 12.2397 31.2331 11.6891 31.2331 11.01C31.2331 10.3308 30.6825 9.78027 30.0034 9.78027C29.3243 9.78027 28.7737 10.3308 28.7737 11.01C28.7737 11.6891 29.3243 12.2397 30.0034 12.2397Z" fill="white"/>
<path d="M39.1072 16.6496C39.1072 17.4832 38.4313 18.159 37.5978 18.159C36.7641 18.159 36.0882 17.4832 36.0882 16.6496C36.0882 15.8159 36.7641 15.1401 37.5978 15.1401C38.4313 15.1401 39.1072 15.8159 39.1072 16.6496Z" fill="white"/>
<path d="M30.0035 19.862C30.944 19.862 31.7065 19.0995 31.7065 18.159C31.7065 17.2184 30.944 16.4559 30.0035 16.4559C29.0629 16.4559 28.3004 17.2184 28.3004 18.159C28.3004 19.0995 29.0629 19.862 30.0035 19.862Z" fill="white"/>
<path d="M33.4588 26.9098C35.0752 26.9098 36.3857 25.5994 36.3857 23.9829C36.3857 22.3664 35.0752 21.056 33.4588 21.056C31.8422 21.056 30.5318 22.3664 30.5318 23.9829C30.5318 25.5994 31.8422 26.9098 33.4588 26.9098Z" fill="white"/>
<path d="M33.4588 38.9369C35.0752 38.9369 36.3857 37.6265 36.3857 36.01C36.3857 34.3935 35.0752 33.0831 33.4588 33.0831C31.8422 33.0831 30.5318 34.3935 30.5318 36.01C30.5318 37.6265 31.8422 38.9369 33.4588 38.9369Z" fill="white"/>
<path d="M29.4675 36.01C29.4675 37.6265 28.157 38.9369 26.5406 38.9369C24.924 38.9369 23.6137 37.6265 23.6137 36.01C23.6137 34.3935 24.924 33.0831 26.5406 33.0831C28.157 33.0831 29.4675 34.3935 29.4675 36.01Z" fill="white"/>
<path d="M26.5406 26.9098C28.157 26.9098 29.4675 25.5994 29.4675 23.9829C29.4675 22.3664 28.157 21.056 26.5406 21.056C24.924 21.056 23.6137 22.3664 23.6137 23.9829C23.6137 25.5994 24.924 26.9098 26.5406 26.9098Z" fill="white"/>
<path d="M21.4201 24.1096C21.4201 25.0502 20.6576 25.8127 19.7172 25.8127C18.7766 25.8127 18.0141 25.0502 18.0141 24.1096C18.0141 23.169 18.7766 22.4066 19.7172 22.4066C20.6576 22.4066 21.4201 23.169 21.4201 24.1096Z" fill="white"/>
<path d="M31.7065 41.9602C31.7065 42.9007 30.944 43.6632 30.0035 43.6632C29.0629 43.6632 28.3004 42.9007 28.3004 41.9602C28.3004 41.0196 29.0629 40.2571 30.0035 40.2571C30.944 40.2571 31.7065 41.0196 31.7065 41.9602Z" fill="white"/>
<path d="M40.2825 25.6861C41.2229 25.6861 41.9854 24.9236 41.9854 23.983C41.9854 23.0425 41.2229 22.28 40.2825 22.28C39.3419 22.28 38.5794 23.0425 38.5794 23.983C38.5794 24.9236 39.3419 25.6861 40.2825 25.6861Z" fill="white"/>
<path d="M37.5978 44.8527C38.4313 44.8527 39.1072 44.1769 39.1072 43.3432C39.1072 42.5096 38.4313 41.8338 37.5978 41.8338C36.7641 41.8338 36.0882 42.5096 36.0882 43.3432C36.0882 44.1769 36.7641 44.8527 37.5978 44.8527Z" fill="white"/>
<path d="M23.9186 16.6496C23.9186 17.4832 23.2428 18.159 22.4092 18.159C21.5755 18.159 20.8997 17.4832 20.8997 16.6496C20.8997 15.8159 21.5755 15.1401 22.4092 15.1401C23.2428 15.1401 23.9186 15.8159 23.9186 16.6496Z" fill="white"/>
<path d="M22.4092 44.979C23.2428 44.979 23.9186 44.3032 23.9186 43.4695C23.9186 42.6359 23.2428 41.9601 22.4092 41.9601C21.5755 41.9601 20.8997 42.6359 20.8997 43.4695C20.8997 44.3032 21.5755 44.979 22.4092 44.979Z" fill="white"/>
<path d="M16.1333 29.9966C16.1333 30.8302 15.4575 31.506 14.6239 31.506C13.7902 31.506 13.1144 30.8302 13.1144 29.9966C13.1144 29.1629 13.7902 28.4871 14.6239 28.4871C15.4575 28.4871 16.1333 29.1629 16.1333 29.9966Z" fill="white"/>
<path d="M45.3755 31.506C46.2091 31.506 46.8849 30.8302 46.8849 29.9966C46.8849 29.1629 46.2091 28.4871 45.3755 28.4871C44.5418 28.4871 43.866 29.1629 43.866 29.9966C43.866 30.8302 44.5418 31.506 45.3755 31.506Z" fill="white"/>
<path d="M47.5868 20.4083C47.5868 21.0875 47.0362 21.638 46.3571 21.638C45.678 21.638 45.1274 21.0875 45.1274 20.4083C45.1274 19.7292 45.678 19.1786 46.3571 19.1786C47.0362 19.1786 47.5868 19.7292 47.5868 20.4083Z" fill="white"/>
<path d="M46.3751 40.6699C47.0542 40.6699 47.6049 40.1193 47.6049 39.4402C47.6049 38.761 47.0542 38.2105 46.3751 38.2105C45.696 38.2105 45.1454 38.761 45.1454 39.4402C45.1454 40.1193 45.696 40.6699 46.3751 40.6699Z" fill="white"/>
<path d="M14.8539 20.4083C14.8539 21.0875 14.3033 21.638 13.6242 21.638C12.9451 21.638 12.3945 21.0875 12.3945 20.4083C12.3945 19.7292 12.9451 19.1786 13.6242 19.1786C14.3033 19.1786 14.8539 19.7292 14.8539 20.4083Z" fill="white"/>
<path d="M13.6423 40.6699C14.3214 40.6699 14.872 40.1193 14.872 39.4402C14.872 38.761 14.3214 38.2105 13.6423 38.2105C12.9632 38.2105 12.4126 38.761 12.4126 39.4402C12.4126 40.1193 12.9632 40.6699 13.6423 40.6699Z" fill="white"/>
<path d="M31.2331 48.9892C31.2331 49.6683 30.6825 50.2189 30.0034 50.2189C29.3243 50.2189 28.7737 49.6683 28.7737 48.9892C28.7737 48.3101 29.3243 47.7595 30.0034 47.7595C30.6825 47.7595 31.2331 48.3101 31.2331 48.9892Z" fill="white"/>
<path d="M41.3469 11.863C41.3469 12.4017 40.9102 12.8385 40.3715 12.8385C39.8328 12.8385 39.396 12.4017 39.396 11.863C39.396 11.3243 39.8328 10.8875 40.3715 10.8875C40.9102 10.8875 41.3469 11.3243 41.3469 11.863Z" fill="white"/>
<path d="M19.4065 12.8385C19.9452 12.8385 20.3819 12.4017 20.3819 11.863C20.3819 11.3243 19.9452 10.8875 19.4065 10.8875C18.8677 10.8875 18.431 11.3243 18.431 11.863C18.431 12.4017 18.8677 12.8385 19.4065 12.8385Z" fill="white"/>
<path d="M41.3469 48.0138C41.3469 48.5525 40.9102 48.9893 40.3715 48.9893C39.8328 48.9893 39.396 48.5525 39.396 48.0138C39.396 47.4751 39.8328 47.0383 40.3715 47.0383C40.9102 47.0383 41.3469 47.4751 41.3469 48.0138Z" fill="white"/>
<path d="M19.4065 48.9893C19.9452 48.9893 20.3819 48.5525 20.3819 48.0138C20.3819 47.4751 19.9452 47.0383 19.4065 47.0383C18.8677 47.0383 18.431 47.4751 18.431 48.0138C18.431 48.5525 18.8677 48.9893 19.4065 48.9893Z" fill="white"/>
<path d="M10.1013 29.9965C10.1013 30.5352 9.66457 30.972 9.12585 30.972C8.58713 30.972 8.15039 30.5352 8.15039 29.9965C8.15039 29.4577 8.58713 29.021 9.12585 29.021C9.66457 29.021 10.1013 29.4577 10.1013 29.9965Z" fill="white"/>
<path d="M50.8738 30.972C51.4125 30.972 51.8493 30.5352 51.8493 29.9965C51.8493 29.4577 51.4125 29.021 50.8738 29.021C50.3351 29.021 49.8983 29.4577 49.8983 29.9965C49.8983 30.5352 50.3351 30.972 50.8738 30.972Z" fill="white"/>
<path d="M41.9854 36.0095C41.9854 36.9501 41.2229 37.7126 40.2825 37.7126C39.3419 37.7126 38.5794 36.9501 38.5794 36.0095C38.5794 35.069 39.3419 34.3065 40.2825 34.3065C41.2229 34.3065 41.9854 35.069 41.9854 36.0095Z" fill="white"/>
<path d="M19.7172 37.7126C20.6576 37.7126 21.4201 36.9501 21.4201 36.0095C21.4201 35.069 20.6576 34.3065 19.7172 34.3065C18.7766 34.3065 18.0141 35.069 18.0141 36.0095C18.0141 36.9501 18.7766 37.7126 19.7172 37.7126Z" fill="white"/>
<path d="M26.0083 29.9964C26.0083 31.6129 24.6978 32.9234 23.0814 32.9234C21.4648 32.9234 20.1545 31.6129 20.1545 29.9964C20.1545 28.38 21.4648 27.0695 23.0814 27.0695C24.6978 27.0695 26.0083 28.38 26.0083 29.9964Z" fill="white"/>
<path d="M36.9177 32.9234C38.5341 32.9234 39.8446 31.6129 39.8446 29.9964C39.8446 28.38 38.5341 27.0695 36.9177 27.0695C35.3012 27.0695 33.9908 28.38 33.9908 29.9964C33.9908 31.6129 35.3012 32.9234 36.9177 32.9234Z" fill="white"/>
</svg>
