<svg width="24" height="24" viewBox="0 0 24 24" fill="none" xmlns="http://www.w3.org/2000/svg">
    <path d="M16 20C20.4183 20 24 16.4183 24 12C24 7.58172 20.4183 4 16 4C11.5817 4 8 7.58172 8 12C8 16.4183 11.5817 20 16 20Z" fill="white"/>
    <path d="M16.0001 17.3334C18.9456 17.3334 21.3334 14.9455 21.3334 12C21.3334 9.0545 18.9456 6.66669 16.0001 6.66669C13.0546 6.66669 10.6667 9.0545 10.6667 12C10.6667 14.9455 13.0546 17.3334 16.0001 17.3334Z" fill="#D30000"/>
    <path d="M8 20C12.4183 20 16 16.4183 16 12C16 7.58172 12.4183 4 8 4C3.58172 4 0 7.58172 0 12C0 16.4183 3.58172 20 8 20Z" fill="#000066"/>
    <path d="M1.79607 17.0513L2.4687 16.6531L1.71558 15.5187L2.98433 16L3.40308 14.7062L3.8187 16L5.09058 15.5187L4.33745 16.6531L5.5062 17.3469L4.15308 17.4625L4.34058 18.8094L3.40308 17.825L3.00152 18.2466C2.86141 18.1343 2.72516 18.0175 2.59299 17.8962L2.65308 17.4656L2.11428 17.4184C2.00458 17.2993 1.89846 17.1769 1.79607 17.0513Z" fill="white"/>
    <path d="M12.3407 18.7211C12.0201 18.9286 11.6837 19.1137 11.3337 19.2744L11.375 18.9375L10.7875 18.8875L11.2968 18.5875L10.9687 18.0937L11.5218 18.3031L11.7031 17.7406L11.8812 18.3031L12.4375 18.0937L12.1125 18.5875L12.3407 18.7211Z" fill="white"/>
    <path d="M12.0312 10.1875L12.6187 10.1375L12.1125 9.83748L12.4375 9.34373L11.8812 9.5531L11.7031 8.9906L11.5218 9.5531L10.9687 9.34373L11.2968 9.83748L10.7875 10.1375L11.375 10.1875L11.3 10.775L11.7062 10.3469L12.1125 10.775L12.0312 10.1875Z" fill="white"/>
    <path d="M8.74995 13.7437L9.33745 13.6937L8.8312 13.3906L9.1562 12.9L8.60308 13.1094L8.42495 12.5469L8.2437 13.1094L7.69058 12.9L8.0187 13.3906L7.50933 13.6937L8.09683 13.7437L8.0187 14.3281L8.42495 13.9L8.8312 14.3281L8.74995 13.7437Z" fill="white"/>
    <path d="M14.9437 12.8687L15.5312 12.8187L15.025 12.5156L15.35 12.025L14.8 12.2344L14.6187 11.6719L14.4375 12.2344L13.8843 12.025L14.2125 12.5156L13.7031 12.8187L14.2906 12.8687L14.2125 13.4531L14.6187 13.025L15.025 13.4531L14.9437 12.8687Z" fill="white"/>
    <path d="M12.6968 15.2937L13.0187 15.0937L13.3375 15.2968L13.2468 14.9281L13.5343 14.6875L13.1562 14.6562L13.0187 14.3031L12.8718 14.6531L12.4968 14.6812L12.7875 14.925L12.6968 15.2937Z" fill="white"/>
    <path d="M8 4C3.58172 4 0 7.58172 0 12H8V4Z" fill="#000066"/>
    <path d="M6.78418 4.0918C7.18063 4.03135 7.58666 4 8 4V5L5.03125 8L8 10.9219V12H6.95312L3.96875 9.0625L1.0625 12H0C0 11.6115 0.0276882 11.2295 0.0811988 10.8559L2.90625 8.01562L1.80757 6.93466C2.12716 6.54443 2.4829 6.18495 2.8697 5.86134L3.96875 6.9375L6.78418 4.0918Z" fill="white"/>
    <path d="M7.24671 4.035C7.49469 4.01184 7.74596 4 8 4L5 7.0625L4.9375 6.375L7.24671 4.035Z" fill="#C8102E"/>
    <path d="M1.98012 6.73096C2.10202 6.5918 2.22867 6.45691 2.35981 6.32653L3.01562 6.96875L2.09375 6.84375L1.98012 6.73096Z" fill="#C8102E"/>
    <path d="M0.000135224 11.953L2.875 9.0625L3.04688 9.59375L0.65625 12H0C0 11.9843 4.51157e-05 11.9686 0.000135224 11.953Z" fill="#C8102E"/>
    <path d="M5.65625 9L4.8125 8.875L8 12V11.2969L5.65625 9Z" fill="#C8102E"/>
    <path d="M2.74991 5.96347C3.47916 5.3287 4.32452 4.82391 5.24991 4.48517V6.74997H7.99991V9.24997H5.24991V12H2.74991V9.24997H0.485107C0.823846 8.32458 1.32864 7.47922 1.96341 6.74997H2.74991V5.96347Z" fill="white"/>
    <path d="M3.25002 5.56218C3.71416 5.21916 4.2167 4.92514 4.75002 4.68774V7.25002H8.00002V8.75002H4.75002V12H3.25002V8.75002H0.687744C0.925137 8.2167 1.21916 7.71416 1.56218 7.25002H3.25002V5.56218Z" fill="#C8102E"/>
</svg>
