<svg width="24" height="24" viewBox="0 0 24 24" fill="none" xmlns="http://www.w3.org/2000/svg">
    <path d="M9.2576 7.69234C9.54045 7.25055 9.86553 6.83839 10.2271 6.46156H21.7729C22.1345 6.83839 22.4596 7.25055 22.7424 7.69234H9.2576Z" fill="#BD3D44"/>
    <path d="M8.21406 10.1539C8.31428 9.72959 8.4483 9.31833 8.6131 8.92313H23.3869C23.5517 9.31833 23.6857 9.72959 23.7859 10.1539H8.21406Z" fill="#BD3D44"/>
    <path d="M8.02332 12.6155C8.00787 12.4123 8 12.2071 8 12C8 11.793 8.00786 11.5878 8.02331 11.3847H23.9767C23.9921 11.5878 24 11.793 24 12C24 12.2071 23.9921 12.4123 23.9767 12.6155H8.02332Z" fill="#BD3D44"/>
    <path d="M8.61317 15.077C8.44835 14.6818 8.31433 14.2706 8.21409 13.8463H23.7859C23.6857 14.2706 23.5516 14.6818 23.3868 15.077H8.61317Z" fill="#BD3D44"/>
    <path d="M10.2273 17.5386C9.86566 17.1618 9.54056 16.7496 9.2577 16.3078H22.7423C22.4594 16.7496 22.1343 17.1618 21.7727 17.5386H10.2273Z" fill="#BD3D44"/>
    <path d="M20.2652 18.7694C19.0307 19.5489 17.568 20 16 20C14.432 20 12.9693 19.5489 11.7348 18.7694H20.2652Z" fill="#BD3D44"/>
    <path d="M20.2655 5.23078H11.7345C12.9692 4.45117 14.4319 4 16 4C17.5681 4 19.0308 4.45117 20.2655 5.23078Z" fill="#BD3D44"/>
    <path d="M23.7858 10.1539C23.8802 10.5534 23.9446 10.9645 23.9766 11.3847H8.02319C8.05515 10.9645 8.11957 10.5534 8.21394 10.1539H23.7858Z" fill="white"/>
    <path d="M22.7423 7.69234C22.9911 8.08096 23.2072 8.49251 23.3868 8.92312H8.61298C8.79255 8.49251 9.00867 8.08096 9.25747 7.69234H22.7423Z" fill="white"/>
    <path d="M20.2654 5.23077C20.817 5.57911 21.3231 5.99302 21.7728 6.46156H10.227C10.6766 5.99302 11.1827 5.57911 11.7344 5.23077H20.2654Z" fill="white"/>
    <path d="M23.7858 13.8462C23.8802 13.4467 23.9446 13.0356 23.9766 12.6155H8.02321C8.05517 13.0356 8.1196 13.4467 8.21398 13.8462H23.7858Z" fill="white"/>
    <path d="M23.3867 15.077H8.61306C8.79264 15.5076 9.00877 15.9192 9.25759 16.3078H22.7422C22.991 15.9192 23.2071 15.5076 23.3867 15.077Z" fill="white"/>
    <path d="M21.7726 17.5386H10.2272C10.6768 18.0071 11.183 18.421 11.7347 18.7694H20.2651C20.8168 18.421 21.3229 18.0071 21.7726 17.5386Z" fill="white"/>
    <path d="M16.8268 4.04221V12.6155H8.02332C8.00787 12.4123 8 12.2071 8 12C8 7.58172 11.5817 4 16 4C16.2792 4 16.555 4.0143 16.8268 4.04221Z" fill="#192F5D"/>
    <path d="M11.8853 5.1378C11.9205 5.11669 11.9558 5.09584 11.9913 5.07525L12.0513 5.25536L11.8853 5.1378Z" fill="white"/>
    <path d="M10.7839 5.93405C10.8318 5.89281 10.8802 5.85213 10.9291 5.81202L11.0421 6.11691L10.7839 5.93405Z" fill="white"/>
    <path d="M9.86797 6.86168C9.89596 6.82831 9.92423 6.79517 9.95275 6.76226L10.0328 6.97846L9.86797 6.86168Z" fill="white"/>
    <path d="M8.70792 8.70482C8.71125 8.69745 8.7146 8.69009 8.71796 8.68273L8.83897 9.02155H9.18358L8.9005 9.23078L9.01127 9.56309L8.71589 9.35386L8.43281 9.56309L8.54358 9.23078L8.50288 9.20195C8.52546 9.14147 8.54875 9.08133 8.57275 9.02155H8.61742L8.70792 8.70482Z" fill="white"/>
    <path d="M8.00125 12.1472L8.00203 12.1477L8.00122 12.1453L8.00125 12.1472Z" fill="white"/>
    <path d="M8.00434 11.7318C8.00572 11.6899 8.00742 11.648 8.00945 11.6062H8.17434L8.00434 11.7318Z" fill="white"/>
    <path d="M13.8975 4.71382L13.7867 4.3692L13.6636 4.71382H13.3067L13.6021 4.92305L13.4913 5.25536L13.7744 5.04613L14.0821 5.25536L13.959 4.92305L14.2544 4.71382H13.8975Z" fill="white"/>
    <path d="M15.9283 4.71382L15.8175 4.3692L15.7067 4.71382H15.3498L15.6452 4.92305L15.5221 5.25536L15.8175 5.04613L16.1129 5.25536L15.9898 4.92305L16.2852 4.71382H15.9283Z" fill="white"/>
    <path d="M12.8882 5.57537L12.7775 5.23075L12.6667 5.57537H12.3098L12.6052 5.7846L12.4821 6.11691L12.7775 5.90768L13.0729 6.11691L12.9498 5.7846L13.2452 5.57537H12.8882Z" fill="white"/>
    <path d="M14.919 5.57537L14.7959 5.23075L14.6852 5.57537H14.3159L14.6113 5.7846L14.5006 6.11691L14.7836 5.90768L15.079 6.11691L14.9683 5.7846L15.2513 5.57537H14.919Z" fill="white"/>
    <path d="M11.879 6.43691L11.7559 6.09229L11.6575 6.43691H11.2882L11.5836 6.64614L11.4728 6.97846L11.7559 6.76922L12.0513 6.97846L11.9405 6.64614L12.2236 6.43691H11.879Z" fill="white"/>
    <path d="M13.8975 6.43691L13.7867 6.09229L13.6759 6.43691H13.319L13.6144 6.64614L13.5036 6.97846L13.7867 6.76922L14.0821 6.97846L13.9713 6.64614L14.2544 6.43691H13.8975Z" fill="white"/>
    <path d="M15.9283 6.43691L15.8175 6.09229L15.7067 6.43691H15.3498L15.6452 6.64614L15.5221 6.97846L15.8175 6.76922L16.1129 6.97846L15.9898 6.64614L16.2852 6.43691H15.9283Z" fill="white"/>
    <path d="M10.8574 7.29846L10.7467 6.95384L10.6359 7.29846H10.279L10.5744 7.50769L10.4636 7.84L10.7467 7.63077L11.0421 7.84L10.9313 7.50769L11.2144 7.29846H10.8574Z" fill="white"/>
    <path d="M12.8882 7.29846L12.7775 6.95384L12.6667 7.29846H12.3098L12.6052 7.50769L12.4821 7.84L12.7775 7.63077L13.0729 7.84L12.9498 7.50769L13.2452 7.29846H12.8882Z" fill="white"/>
    <path d="M14.919 7.29846L14.7959 6.95384L14.6852 7.29846H14.3159L14.6113 7.50769L14.5006 7.84L14.7836 7.63077L15.079 7.84L14.9683 7.50769L15.2513 7.29846H14.919Z" fill="white"/>
    <path d="M9.84821 8.16L9.73744 7.81539L9.62666 8.16H9.26974L9.56513 8.36924L9.44205 8.70155L9.73744 8.49231L10.0328 8.70155L9.90974 8.36924L10.2051 8.16H9.84821Z" fill="white"/>
    <path d="M11.879 8.16L11.7559 7.81539L11.6575 8.16H11.2882L11.5836 8.36924L11.4728 8.70155L11.7559 8.49231L12.0513 8.70155L11.9405 8.36924L12.2236 8.16H11.879Z" fill="white"/>
    <path d="M13.8975 8.16L13.7867 7.81539L13.6759 8.16H13.319L13.6144 8.36924L13.5036 8.70155L13.7867 8.49231L14.0821 8.70155L13.9713 8.36924L14.2544 8.16H13.8975Z" fill="white"/>
    <path d="M15.9283 8.16L15.8175 7.81539L15.7067 8.16H15.3498L15.6452 8.36924L15.5221 8.70155L15.8175 8.49231L16.1129 8.70155L15.9898 8.36924L16.2852 8.16H15.9283Z" fill="white"/>
    <path d="M10.8574 9.02155L10.7467 8.67693L10.6359 9.02155H10.279L10.5744 9.23078L10.4636 9.56309L10.7467 9.35386L11.0421 9.56309L10.9313 9.23078L11.2144 9.02155H10.8574Z" fill="white"/>
    <path d="M12.8882 9.02155L12.7775 8.67693L12.6667 9.02155H12.3098L12.6052 9.23078L12.4821 9.56309L12.7775 9.35386L13.0729 9.56309L12.9498 9.23078L13.2452 9.02155H12.8882Z" fill="white"/>
    <path d="M14.919 9.02155L14.7959 8.67693L14.6852 9.02155H14.3159L14.6113 9.23078L14.5006 9.56309L14.7836 9.35386L15.079 9.56309L14.9683 9.23078L15.2513 9.02155H14.919Z" fill="white"/>
    <path d="M9.84821 9.88309L9.73744 9.53848L9.62666 9.88309H9.26974L9.56513 10.0923L9.44205 10.4246L9.73744 10.2154L10.0328 10.4246L9.90974 10.0923L10.2051 9.88309H9.84821Z" fill="white"/>
    <path d="M11.879 9.88309L11.7559 9.53848L11.6575 9.88309H11.2882L11.5836 10.0923L11.4728 10.4246L11.7559 10.2154L12.0513 10.4246L11.9405 10.0923L12.2236 9.88309H11.879Z" fill="white"/>
    <path d="M13.8975 9.88309L13.7867 9.53848L13.6759 9.88309H13.319L13.6144 10.0923L13.5036 10.4246L13.7867 10.2154L14.0821 10.4246L13.9713 10.0923L14.2544 9.88309H13.8975Z" fill="white"/>
    <path d="M15.9283 9.88309L15.8175 9.53848L15.7067 9.88309H15.3498L15.6452 10.0923L15.5221 10.4246L15.8175 10.2154L16.1129 10.4246L15.9898 10.0923L16.2852 9.88309H15.9283Z" fill="white"/>
    <path d="M8.83897 10.7446L8.71589 10.4L8.61742 10.7446H8.24819L8.54358 10.9539L8.43281 11.2862L8.71589 11.077L9.01127 11.2862L8.9005 10.9539L9.18358 10.7446H8.83897Z" fill="white"/>
    <path d="M10.8574 10.7446L10.7467 10.4L10.6359 10.7446H10.279L10.5744 10.9539L10.4636 11.2862L10.7467 11.077L11.0421 11.2862L10.9313 10.9539L11.2144 10.7446H10.8574Z" fill="white"/>
    <path d="M12.8882 10.7446L12.7775 10.4L12.6667 10.7446H12.3098L12.6052 10.9539L12.4821 11.2862L12.7775 11.077L13.0729 11.2862L12.9498 10.9539L13.2452 10.7446H12.8882Z" fill="white"/>
    <path d="M14.919 10.7446L14.7959 10.4L14.6852 10.7446H14.3159L14.6113 10.9539L14.5006 11.2862L14.7836 11.077L15.079 11.2862L14.9683 10.9539L15.2513 10.7446H14.919Z" fill="white"/>
    <path d="M9.84821 11.6062L9.73744 11.2616L9.62666 11.6062H9.26974L9.56513 11.8154L9.44205 12.1477L9.73744 11.9385L10.0328 12.1477L9.90974 11.8154L10.2051 11.6062H9.84821Z" fill="white"/>
    <path d="M11.879 11.6062L11.7559 11.2616L11.6575 11.6062H11.2882L11.5836 11.8154L11.4728 12.1477L11.7559 11.9385L12.0513 12.1477L11.9405 11.8154L12.2236 11.6062H11.879Z" fill="white"/>
    <path d="M13.8975 11.6062L13.7867 11.2616L13.6759 11.6062H13.319L13.6144 11.8154L13.5036 12.1477L13.7867 11.9385L14.0821 12.1477L13.9713 11.8154L14.2544 11.6062H13.8975Z" fill="white"/>
    <path d="M15.9283 11.6062L15.8175 11.2616L15.7067 11.6062H15.3498L15.6452 11.8154L15.5221 12.1477L15.8175 11.9385L16.1129 12.1477L15.9898 11.8154L16.2852 11.6062H15.9283Z" fill="white"/>
    <path d="M8 20C12.4183 20 16 16.4183 16 12C16 7.58172 12.4183 4 8 4C3.58172 4 0 7.58172 0 12C0 16.4183 3.58172 20 8 20Z" fill="#000066"/>
    <path d="M1.79607 17.0513L2.4687 16.6531L1.71558 15.5187L2.98433 16L3.40308 14.7062L3.8187 16L5.09058 15.5187L4.33745 16.6531L5.5062 17.3469L4.15308 17.4625L4.34058 18.8094L3.40308 17.825L3.00152 18.2466C2.86141 18.1343 2.72516 18.0175 2.59299 17.8962L2.65308 17.4656L2.11428 17.4184C2.00458 17.2993 1.89846 17.1769 1.79607 17.0513Z" fill="white"/>
    <path d="M12.3407 18.7211C12.0201 18.9286 11.6837 19.1137 11.3337 19.2744L11.375 18.9375L10.7875 18.8875L11.2968 18.5875L10.9687 18.0937L11.5218 18.3031L11.7031 17.7406L11.8812 18.3031L12.4375 18.0937L12.1125 18.5875L12.3407 18.7211Z" fill="white"/>
    <path d="M12.0312 10.1875L12.6187 10.1375L12.1125 9.83748L12.4375 9.34373L11.8812 9.5531L11.7031 8.9906L11.5218 9.5531L10.9687 9.34373L11.2968 9.83748L10.7875 10.1375L11.375 10.1875L11.3 10.775L11.7062 10.3469L12.1125 10.775L12.0312 10.1875Z" fill="white"/>
    <path d="M8.74995 13.7437L9.33745 13.6937L8.8312 13.3906L9.1562 12.9L8.60308 13.1094L8.42495 12.5469L8.2437 13.1094L7.69058 12.9L8.0187 13.3906L7.50933 13.6937L8.09683 13.7437L8.0187 14.3281L8.42495 13.9L8.8312 14.3281L8.74995 13.7437Z" fill="white"/>
    <path d="M14.9437 12.8687L15.5312 12.8187L15.025 12.5156L15.35 12.025L14.8 12.2344L14.6187 11.6719L14.4375 12.2344L13.8843 12.025L14.2125 12.5156L13.7031 12.8187L14.2906 12.8687L14.2125 13.4531L14.6187 13.025L15.025 13.4531L14.9437 12.8687Z" fill="white"/>
    <path d="M12.6968 15.2937L13.0187 15.0937L13.3375 15.2968L13.2468 14.9281L13.5343 14.6875L13.1562 14.6562L13.0187 14.3031L12.8718 14.6531L12.4968 14.6812L12.7875 14.925L12.6968 15.2937Z" fill="white"/>
    <path d="M8 4C3.58172 4 0 7.58172 0 12H8V4Z" fill="#000066"/>
    <path d="M6.78418 4.0918C7.18063 4.03135 7.58666 4 8 4V5L5.03125 8L8 10.9219V12H6.95312L3.96875 9.0625L1.0625 12H0C0 11.6115 0.0276882 11.2295 0.0811988 10.8559L2.90625 8.01562L1.80757 6.93466C2.12716 6.54443 2.4829 6.18495 2.8697 5.86134L3.96875 6.9375L6.78418 4.0918Z" fill="white"/>
    <path d="M7.24671 4.035C7.49469 4.01184 7.74596 4 8 4L5 7.0625L4.9375 6.375L7.24671 4.035Z" fill="#C8102E"/>
    <path d="M1.98012 6.73096C2.10202 6.5918 2.22867 6.45691 2.35981 6.32653L3.01562 6.96875L2.09375 6.84375L1.98012 6.73096Z" fill="#C8102E"/>
    <path d="M0.000135224 11.953L2.875 9.0625L3.04688 9.59375L0.65625 12H0C0 11.9843 4.51157e-05 11.9686 0.000135224 11.953Z" fill="#C8102E"/>
    <path d="M5.65625 9L4.8125 8.875L8 12V11.2969L5.65625 9Z" fill="#C8102E"/>
    <path d="M2.74991 5.96347C3.47916 5.3287 4.32452 4.82391 5.24991 4.48517V6.74997H7.99991V9.24997H5.24991V12H2.74991V9.24997H0.485107C0.823846 8.32458 1.32864 7.47922 1.96341 6.74997H2.74991V5.96347Z" fill="white"/>
    <path d="M3.25002 5.56218C3.71416 5.21916 4.2167 4.92514 4.75002 4.68774V7.25002H8.00002V8.75002H4.75002V12H3.25002V8.75002H0.687744C0.925137 8.2167 1.21916 7.71416 1.56218 7.25002H3.25002V5.56218Z" fill="#C8102E"/>
</svg>
