<svg width="24" height="24" viewBox="0 0 24 24" fill="none" xmlns="http://www.w3.org/2000/svg">
    <path d="M12 24C18.6274 24 24 18.6274 24 12C24 5.37258 18.6274 0 12 0C5.37258 0 0 5.37258 0 12C0 18.6274 5.37258 24 12 24Z" fill="#000066"/>
    <path d="M2.69422 19.577L3.70317 18.9797L2.57349 17.2781L4.47661 18L5.10474 16.0594L5.72817 18L7.63599 17.2781L6.5063 18.9797L8.25942 20.0203L6.22974 20.1938L6.51099 22.2141L5.10474 20.7375L4.5024 21.37C4.29224 21.2016 4.08786 21.0263 3.88961 20.8444L3.97974 20.1985L3.17154 20.1277C3.007 19.9491 2.84781 19.7654 2.69422 19.577Z" fill="white"/>
    <path d="M18.5112 22.0817C18.0303 22.3929 17.5257 22.6707 17.0007 22.9116L17.0625 22.4063L16.1813 22.3313L16.9454 21.8813L16.4532 21.1406L17.2829 21.4547L17.5547 20.611L17.8219 21.4547L18.6563 21.1406L18.1688 21.8813L18.5112 22.0817Z" fill="white"/>
    <path d="M18.0469 9.28127L18.9282 9.20627L18.1688 8.75627L18.6563 8.01565L17.8219 8.32971L17.5547 7.48596L17.2829 8.32971L16.4532 8.01565L16.9454 8.75627L16.1813 9.20627L17.0625 9.28127L16.95 10.1625L17.5594 9.52034L18.1688 10.1625L18.0469 9.28127Z" fill="white"/>
    <path d="M13.125 14.6156L14.0063 14.5406L13.2469 14.086L13.7344 13.35L12.9047 13.6641L12.6375 12.8203L12.3657 13.6641L11.536 13.35L12.0282 14.086L11.2641 14.5406L12.1454 14.6156L12.0282 15.4922L12.6375 14.85L13.2469 15.4922L13.125 14.6156Z" fill="white"/>
    <path d="M22.4157 13.3031L23.2969 13.2281L22.5375 12.7735L23.0251 12.0375L22.2001 12.3516L21.9282 11.5078L21.6563 12.3516L20.8266 12.0375L21.3188 12.7735L20.5547 13.2281L21.436 13.3031L21.3188 14.1797L21.9282 13.5375L22.5375 14.1797L22.4157 13.3031Z" fill="white"/>
    <path d="M19.0454 16.9406L19.5282 16.6406L20.0063 16.9453L19.8704 16.3922L20.3016 16.0313L19.7344 15.9844L19.5282 15.4547L19.3079 15.9797L18.7454 16.0219L19.1813 16.3875L19.0454 16.9406Z" fill="white"/>
    <path d="M12 0C5.37258 0 0 5.37258 0 12H12V0Z" fill="#000066"/>
    <path d="M10.1763 0.137694C10.771 0.047022 11.38 0 12 0V1.5L7.54688 6L12 10.3828V12H10.4297L5.95312 7.59375L1.59375 12H0C0 11.4173 0.0415323 10.8443 0.121798 10.2838L4.35938 6.02344L2.71135 4.402C3.19073 3.81664 3.72436 3.27742 4.30455 2.79202L5.95312 4.40625L10.1763 0.137694Z" fill="white"/>
    <path d="M10.8701 0.0525003C11.242 0.017761 11.6189 0 12 0L7.5 4.59375L7.40625 3.5625L10.8701 0.0525003Z" fill="#C8102E"/>
    <path d="M2.97017 4.09645C3.15303 3.88771 3.343 3.68536 3.53972 3.48979L4.52344 4.45312L3.14062 4.26562L2.97017 4.09645Z" fill="#C8102E"/>
    <path d="M0.000202837 11.9295L4.3125 7.59375L4.57031 8.39062L0.984375 12H0C0 11.9765 6.76736e-05 11.953 0.000202837 11.9295Z" fill="#C8102E"/>
    <path d="M8.48438 7.5L7.21875 7.3125L12 12V10.9453L8.48438 7.5Z" fill="#C8102E"/>
    <path d="M4.12499 2.94523C5.21886 1.99308 6.4869 1.23589 7.87499 0.727783V4.12499H12V7.87499H7.87499V12H4.12499V7.87499H0.727783C1.23589 6.4869 1.99308 5.21886 2.94523 4.12499H4.12499V2.94523Z" fill="white"/>
    <path d="M4.87491 2.34321C5.57112 1.82868 6.32494 1.38764 7.12491 1.03156V4.87497H11.9999V7.12497H7.12491V12H4.87491V7.12497H1.03149C1.38758 6.325 1.82862 5.57118 2.34315 4.87497H4.87491V2.34321Z" fill="#C8102E"/>
</svg>
