<svg width="24" height="24" viewBox="0 0 24 24" fill="none" xmlns="http://www.w3.org/2000/svg">
    <path fill-rule="evenodd" clip-rule="evenodd"
        d="M11.9899 24C5.36211 23.9937 -0.00631022 18.6177 5.56704e-06 11.9899C0.0050582 5.36211 5.38106 -0.00631022 12.0088 5.56704e-06C18.6328 0.0050582 24 5.37601 24 12C23.9899 18.6265 18.6177 23.9937 11.9899 24Z"
        fill="#EFA80A" />
    <path fill-rule="evenodd" clip-rule="evenodd"
        d="M12.4081 15.1949H10.9681V12.4084H12.6405C13.0309 12.4084 14.4974 12.5385 14.4974 13.5793C14.4974 14.6189 13.8026 15.205 12.4081 15.205V15.1949ZM10.9681 8.51659H11.8978C12.5471 8.51659 13.8292 8.62901 13.8292 9.68754C13.8734 10.3785 13.3744 10.9835 12.6873 11.0707H10.9681V8.51659ZM15.2313 11.4155C16.0346 10.9621 16.4679 10.0576 16.3189 9.14817C16.1332 7.74607 14.4608 7.2168 13.142 7.10565V4.99744H11.8422V7.0867H10.9681V4.99744H9.66833V7.0867H7.0498V8.43322H8.0237C8.46075 8.43322 8.67423 8.56333 8.67423 8.91575V14.7023C8.67423 15.1861 8.43423 15.3339 8.17275 15.3339H7.17865V16.7082H9.70496V18.8454H11.0149V16.7082H11.889V18.8454H13.161V16.7082H13.4389C16.1142 16.7082 17.006 15.3995 17.006 13.616C16.9845 12.565 16.2557 11.6593 15.2313 11.4155Z"
        fill="white" />
</svg>