<svg width="24" height="24" viewBox="0 0 24 24" fill="none" xmlns="http://www.w3.org/2000/svg">
    <path d="M16 20C20.4183 20 24 16.4183 24 12C24 7.58172 20.4183 4 16 4C11.5817 4 8 7.58172 8 12C8 16.4183 11.5817 20 16 20Z" fill="#D52B1E"/>
    <path d="M17.5 7H14.5V10.5H11V13.5H14.5V17H17.5V13.5H21V10.5H17.5V7Z" fill="white"/>
    <path d="M13.8563 6.54975V17.4503C12.3957 19.0189 10.3125 20 8.00008 20C5.88663 20 3.96459 19.1805 2.53442 17.8418V6.15817C3.96459 4.81954 5.88663 4 8.00008 4C10.3125 4 12.3957 4.9811 13.8563 6.54975Z" fill="white"/>
    <path d="M13.8563 6.54979C15.1863 7.97834 16 9.89415 16 12C16 14.1059 15.1863 16.0217 13.8563 17.4502V6.54979Z" fill="#D52B1E"/>
    <path d="M2.53438 6.15814V17.8419C0.974692 16.382 0 14.3048 0 12C0 9.69517 0.974692 7.61798 2.53438 6.15814Z" fill="#D52B1E"/>
    <path d="M3.79063 11.8813L4.22813 11.7313V11.7344C4.43001 11.5325 4.24419 11.0256 4.07884 10.5746C4.02151 10.4182 3.96665 10.2685 3.93125 10.1406C4.05792 10.1681 4.20433 10.2092 4.35109 10.2504C4.67143 10.3402 4.99347 10.4305 5.11563 10.3813C5.23497 10.3268 5.31643 10.1489 5.39762 9.97168C5.43761 9.88436 5.47753 9.7972 5.52188 9.72501L6.5625 10.9063C6.6625 10.9594 6.75 10.9281 6.78438 10.8344L6.33125 8.35938L7.0875 8.78438C7.1375 8.82188 7.19688 8.81563 7.25625 8.75938L8.04375 7.16876L8.80938 8.70001C8.85313 8.77501 8.91875 8.80313 8.98438 8.77501L9.77813 8.32813L9.27813 10.8188C9.30625 10.9188 9.35625 10.9688 9.475 10.9375L10.5562 9.75001L10.8656 10.3281C10.9438 10.5438 12.1344 10.1344 12.1344 10.1344C12.1135 10.3156 12.0531 10.532 11.9927 10.7483C11.8719 11.1809 11.751 11.6135 11.9469 11.7656L12.3031 11.8938L10.2594 13.5969C10.1488 14.0059 10.2314 14.1729 10.347 14.4071C10.3621 14.4377 10.3778 14.4695 10.3937 14.5031L8.16875 14.2406L8.27188 16.4563L7.80938 16.4719L7.86563 14.2375L5.64688 14.5188C5.67405 14.4695 5.70429 14.4246 5.73395 14.3807C5.85098 14.2072 5.95903 14.0471 5.83438 13.6781L3.79063 11.8813Z" fill="#D52B1E"/>
</svg>
