<svg width="24" height="24" viewBox="0 0 24 24" fill="none" xmlns="http://www.w3.org/2000/svg">
    <path d="M16 20C20.4183 20 24 16.4183 24 12C24 7.58172 20.4183 4 16 4C11.5817 4 8 7.58172 8 12C8 16.4183 11.5817 20 16 20Z" fill="white"/>
    <path d="M16.0001 17.3334C18.9456 17.3334 21.3334 14.9455 21.3334 12C21.3334 9.0545 18.9456 6.66669 16.0001 6.66669C13.0546 6.66669 10.6667 9.0545 10.6667 12C10.6667 14.9455 13.0546 17.3334 16.0001 17.3334Z" fill="#D30000"/>
    <path d="M8 20C12.4183 20 16 16.4183 16 12C16 7.58172 12.4183 4 8 4C3.58172 4 0 7.58172 0 12C0 16.4183 3.58172 20 8 20Z" fill="#D52B1E"/>
    <path d="M9.5 7H6.5V10.5H3V13.5H6.5V17H9.5V13.5H13V10.5H9.5V7Z" fill="white"/>
</svg>
