<svg width="60" height="60" viewBox="0 0 60 60" fill="none" xmlns="http://www.w3.org/2000/svg">
<path d="M30 60C46.5685 60 60 46.5685 60 30C60 13.4315 46.5685 0 30 0C13.4315 0 0 13.4315 0 30C0 46.5685 13.4315 60 30 60Z" fill="url(#paint0_linear)"/>
<path fill-rule="evenodd" clip-rule="evenodd" d="M24.2039 26.8214H33.5507V31.7744H24.2039V42.2132H30.0993C32.4327 42.2132 34.3415 41.899 35.8278 41.2664C37.3141 40.6359 38.4798 39.7627 39.3269 38.6447C40.1719 37.5289 40.7482 36.2181 41.0516 34.7123C41.3549 33.2065 41.5066 31.5815 41.5066 29.8331C41.5066 28.0846 41.3549 26.4596 41.0516 24.9538C40.7835 23.5288 40.1937 22.1838 39.3269 21.0214C38.4798 19.9034 37.312 19.0302 35.8278 18.3997C34.3415 17.7671 32.4327 17.4529 30.0993 17.4529H24.2039V26.8236V26.8214ZM18.2109 31.7744H15V26.8236H18.2109V12.5H32.4002C35.0218 12.5 37.2903 12.955 39.2078 13.8585C41.1252 14.7663 42.6895 16.0034 43.905 17.5743C45.1183 19.1429 46.0218 20.9802 46.6133 23.084C47.2048 25.1878 47.4995 27.4389 47.4995 29.8331C47.5143 32.1128 47.2154 34.3838 46.6112 36.5821C46.0218 38.6837 45.1183 40.5232 43.9029 42.0919C42.6896 43.6627 41.1252 44.8998 39.2078 45.8076C37.2903 46.7133 35.0197 47.1661 32.4002 47.1661H18.2109V31.7744Z" fill="white"/>
<defs>
<linearGradient id="paint0_linear" x1="30" y1="-10" x2="30" y2="68.75" gradientUnits="userSpaceOnUse">
<stop offset="0.251916" stop-color="#DFBD39"/>
<stop offset="1" stop-color="#846D31"/>
</linearGradient>
</defs>
</svg>
