<svg width="60" height="60" viewBox="0 0 60 60" fill="none" xmlns="http://www.w3.org/2000/svg">
<path d="M60 30C60 46.5685 46.5685 60 30 60C13.4315 60 0 46.5685 0 30C0 13.4315 13.4315 0 30 0C46.5685 0 60 13.4315 60 30Z" fill="#E3F2FF"/>
<path d="M35.8554 47.6903C35.8554 49.0868 34.7234 50.2188 33.3269 50.2188C31.9304 50.2188 30.7983 49.0868 30.7983 47.6903C30.7983 46.2938 31.9304 45.1617 33.3269 45.1617C34.7234 45.1617 35.8554 46.2938 35.8554 47.6903Z" fill="#E6007A"/>
<path fill-rule="evenodd" clip-rule="evenodd" d="M27.84 16.609C29.4035 16.2292 31.2951 16.3286 33.0782 16.915C34.8637 17.5021 36.346 18.5114 37.2424 19.7424C39.3441 22.6284 39.9467 26.8746 38.2877 29.8441C37.2771 31.653 36.3162 32.7185 35.4262 33.404C34.5421 34.0849 33.602 34.4889 32.4713 34.8119C31.9803 34.9522 31.2984 35.0669 30.3265 35.2265L30.3187 35.2278C29.429 35.374 28.3549 35.5504 27.3018 35.8151L29.6689 26.2133C29.9994 24.8728 29.1806 23.5181 27.84 23.1876C26.4994 22.8571 25.1448 23.676 24.8143 25.0165L20.5922 42.1426C20.5359 42.3017 20.4966 42.4629 20.4736 42.624L19.7604 45.5168C19.4299 46.8574 20.2487 48.2121 21.5893 48.5426C22.9299 48.8731 24.2846 48.0542 24.6151 46.7137L25.4147 43.47C25.4205 43.4502 25.4257 43.4322 25.4302 43.4166L25.434 43.4034L25.459 43.3165L25.4591 43.3165C25.4873 43.2184 25.5149 43.1225 25.5482 43.0119C25.6316 42.7355 25.7349 42.4228 25.8704 42.0975C26.0425 41.6845 26.6545 41.1379 28.4875 40.6726C29.3172 40.462 30.2037 40.3137 31.137 40.1604L31.2542 40.1412C32.0925 40.0037 33.0504 39.8466 33.845 39.6196C35.3578 39.1873 36.9353 38.5528 38.4772 37.3652C40.0131 36.1822 41.3864 34.5492 42.6526 32.2828C45.4711 27.238 44.2607 20.8863 41.2843 16.799C39.6417 14.5434 37.1901 13.0037 34.6401 12.1652C32.0878 11.3259 29.2422 11.1231 26.66 11.7502C22.2908 12.8113 18.2605 16.0909 16.6975 20.5987C15.2191 24.8623 15.8063 27.944 16.2623 30.061C16.5531 31.4107 17.883 32.2692 19.2327 31.9785C20.5825 31.6878 21.441 30.3579 21.1502 29.0081C20.7668 27.228 20.387 25.2203 21.4216 22.2367C22.3714 19.4973 24.9489 17.3111 27.84 16.609Z" fill="black"/>
</svg>
