<svg width="60" height="60" fill="none" xmlns="http://www.w3.org/2000/svg"><path d="M30 60c16.569 0 30-13.431 30-30C60 13.431 46.569 0 30 0 13.431 0 0 13.431 0 30c0 16.569 13.431 30 30 30z" fill="#908F8F"/><path fill-rule="evenodd" clip-rule="evenodd" d="M31.827 7.059h-3.465l-14.244 24.95 14.244 18.648h3.465L45.882 32.01 31.827 7.059zM27.82 25.745l-8.097 3.113L27.82 13.91v11.835zm.623 3.736v4.983l-7.474-2.492 7.474-2.491zm3.114 0l7.474 2.803-7.474 2.803V29.48zm8.097-.623l-8.097-3.076V13.91l8.097 14.948zm-9.88 18.685L20.968 35.71l8.82 3.304 8.62-3.233-8.636 11.763z" fill="#fff"/></svg>