<svg width="24" height="24" viewBox="0 0 24 24" fill="none" xmlns="http://www.w3.org/2000/svg">
    <path d="M8 12C8 7.58172 11.5817 4 16 4C20.4183 4 24 7.58172 24 12C24 16.4183 20.4183 20 16 20C11.5817 20 8 16.4183 8 12Z" fill="#012169"/>
    <path d="M22.5746 7.44057L18.0626 12L22.6232 16.4886C22.0558 17.3242 21.3344 18.0468 20.4998 18.6155L15.9376 14.125L11.4971 18.6133C10.6643 18.0451 9.94442 17.3238 9.3779 16.4898L13.8126 12.0312L9.31421 7.60537C9.87133 6.75948 10.5847 6.02559 11.4132 5.44478L15.9376 9.87499L20.4282 5.33618C21.2693 5.89623 21.9984 6.61129 22.5746 7.44057Z" fill="white"/>
    <path d="M20.905 5.67963C21.1783 5.89208 21.4375 6.12187 21.6809 6.36736L18 10.125L17.875 8.75L20.905 5.67963Z" fill="#C8102E"/>
    <path d="M9.63452 7.15359C9.85502 6.86442 10.0948 6.59072 10.3519 6.33441L14.0312 9.9375L12.1875 9.6875L9.63452 7.15359Z" fill="#C8102E"/>
    <path d="M21.6336 17.68C21.8715 17.4441 22.0946 17.1933 22.3015 16.9292L19.3125 14L17.625 13.75L21.6336 17.68Z" fill="#C8102E"/>
    <path d="M11.0311 18.2702L14.0937 15.1875L13.75 14.125L10.2903 17.6035C10.523 17.8407 10.7705 18.0634 11.0311 18.2702Z" fill="#C8102E"/>
    <path d="M23.6016 14.5C23.8601 13.7135 24 12.8731 24 12C24 11.1269 23.8601 10.2865 23.6016 9.5H18.5V4.39838C17.7135 4.13985 16.8731 4 16 4C15.1269 4 14.2865 4.13985 13.5 4.39838V9.5H8.39838C8.13985 10.2865 8 11.1269 8 12C8 12.8731 8.13985 13.7135 8.39838 14.5H13.5V19.6016C14.2865 19.8601 15.1269 20 16 20C16.8731 20 17.7135 19.8601 18.5 19.6016V14.5H23.6016Z" fill="white"/>
    <path d="M23.8596 13.5C23.9518 13.0141 24 12.5127 24 12C24 11.4873 23.9518 10.9859 23.8596 10.5H17.5V4.1404C17.0141 4.04823 16.5127 4 16 4C15.4873 4 14.9859 4.04823 14.5 4.1404V10.5H8.1404C8.04823 10.9859 8 11.4873 8 12C8 12.5127 8.04823 13.0141 8.1404 13.5H14.5V19.8596C14.9859 19.9518 15.4873 20 16 20C16.5127 20 17.0141 19.9518 17.5 19.8596V13.5H23.8596Z" fill="#C8102E"/>
    <path d="M8 20C12.4183 20 16 16.4183 16 12C16 7.58172 12.4183 4 8 4C3.58172 4 0 7.58172 0 12C0 16.4183 3.58172 20 8 20Z" fill="#003399"/>
    <path d="M8.00024 6.54511L8.16775 7.10328L8.75156 7.09001L8.27132 7.42182L8.46442 7.97347L8 7.61964L7.53584 7.97328L7.72904 7.42099L7.25 7.09001L7.83223 7.10324L8.00024 6.54511Z" fill="#FFCC00"/>
    <path d="M8.00023 16.0267L8.16781 16.5848L8.75156 16.5715L8.27132 16.9033L8.46442 17.455L8 17.1012L7.53564 17.455L7.72904 16.9025L7.25 16.5715L7.83217 16.5848L8.00023 16.0267Z" fill="#FFCC00"/>
    <path d="M2.79469 12.7143L3.2592 12.3604L3.72329 12.714L3.53048 12.1628L4.01056 11.8309L3.42704 11.8442L3.25936 11.285L3.09142 11.8442L2.50781 11.8309L2.98784 12.1627L2.79469 12.7143Z" fill="#FFCC00"/>
    <path d="M5.68743 7.21539L5.51972 7.77421L4.9375 7.76098L5.41679 8.09214L5.22347 8.64439L5.6878 8.29062L6.15218 8.64443L5.95915 8.09278L6.43937 7.76098L5.85512 7.77426L5.68743 7.21539Z" fill="#FFCC00"/>
    <path d="M3.93057 8.97388L4.09794 9.53207L4.68162 9.5188L4.20113 9.85094L4.39438 10.4012L3.93017 10.048L3.46566 10.4019L3.65915 9.8509L3.17871 9.5188L3.76248 9.53207L3.93057 8.97388Z" fill="#FFCC00"/>
    <path d="M3.93092 13.7247L4.09875 14.2839L4.6826 14.2706L4.20244 14.6025L4.39535 15.1534L3.93107 14.8001L3.4665 15.154L3.65966 14.6024L3.17969 14.2706L3.76328 14.2839L3.93092 13.7247Z" fill="#FFCC00"/>
    <path d="M5.64615 15.316L5.81345 15.8742L6.39749 15.861L5.91713 16.1929L6.10997 16.7438L5.64583 16.3905L5.1814 16.7444L5.3745 16.1927L4.89429 15.8609L5.47813 15.8742L5.64615 15.316Z" fill="#FFCC00"/>
    <path d="M12.7411 11.286L12.9086 11.8442L13.4922 11.8309L13.0122 12.1628L13.2052 12.7137L12.741 12.3604L12.2765 12.7143L12.4697 12.1628L11.9895 11.8309L12.5732 11.8442L12.7411 11.286Z" fill="#FFCC00"/>
    <path d="M9.56079 7.76093L10.0411 8.09281L9.84806 8.64436L10.3124 8.29062L10.7766 8.64434L10.5834 8.09204L11.0621 7.76128L11.0627 7.76093L10.4805 7.77416L10.3127 7.21497L10.145 7.77421L9.56079 7.76093Z" fill="#FFCC00"/>
    <path d="M12.0698 8.97284L11.9021 9.53207L11.3186 9.5188L11.799 9.8509L11.6056 10.4019L12.07 10.048L12.5344 10.4019L12.341 9.85085L12.8214 9.5188L12.2377 9.53207L12.0698 8.97284Z" fill="#FFCC00"/>
    <path d="M12.069 13.7257L11.9015 14.2839L11.3176 14.2706L11.7977 14.6025L11.6046 15.154L12.0691 14.8001L12.5332 15.1537L12.3404 14.6025L12.8205 14.2706L12.2368 14.2839L12.069 13.7257Z" fill="#FFCC00"/>
    <path d="M10.3541 15.315L10.1865 15.8742L9.60254 15.8609L10.0828 16.1927L9.88965 16.7444L10.3541 16.3905L10.8182 16.7441L10.6254 16.1929L11.1057 15.861L10.5219 15.8742L10.3541 15.315Z" fill="#FFCC00"/>
</svg>
