<svg width="24" height="24" viewBox="0 0 24 24" fill="none" xmlns="http://www.w3.org/2000/svg">
    <path d="M21.8563 6.54975V17.4503C20.3957 19.0189 18.3125 20 16.0001 20C13.8866 20 11.9646 19.1805 10.5344 17.8418V6.15817C11.9646 4.81954 13.8866 4 16.0001 4C18.3125 4 20.3957 4.9811 21.8563 6.54975Z" fill="white"/>
    <path d="M21.8563 6.54979C23.1863 7.97834 24 9.89415 24 12C24 14.1059 23.1863 16.0217 21.8563 17.4502V6.54979Z" fill="#D52B1E"/>
    <path d="M10.5344 6.15814V17.8419C8.97469 16.382 8 14.3048 8 12C8 9.69517 8.97469 7.61798 10.5344 6.15814Z" fill="#D52B1E"/>
    <path d="M11.7906 11.8813L12.2281 11.7313V11.7344C12.43 11.5325 12.2442 11.0256 12.0788 10.5746C12.0215 10.4182 11.9666 10.2685 11.9313 10.1406C12.0579 10.1681 12.2043 10.2092 12.3511 10.2504C12.6714 10.3402 12.9935 10.4305 13.1156 10.3813C13.235 10.3268 13.3164 10.1489 13.3976 9.97168C13.4376 9.88436 13.4775 9.7972 13.5219 9.72501L14.5625 10.9063C14.6625 10.9594 14.75 10.9281 14.7844 10.8344L14.3313 8.35938L15.0875 8.78438C15.1375 8.82188 15.1969 8.81563 15.2563 8.75938L16.0438 7.16876L16.8094 8.70001C16.8531 8.77501 16.9187 8.80313 16.9844 8.77501L17.7781 8.32813L17.2781 10.8188C17.3063 10.9188 17.3563 10.9688 17.475 10.9375L18.5562 9.75001L18.8656 10.3281C18.9438 10.5438 20.1344 10.1344 20.1344 10.1344C20.1135 10.3156 20.0531 10.532 19.9927 10.7483C19.8719 11.1809 19.751 11.6135 19.9469 11.7656L20.3031 11.8938L18.2594 13.5969C18.1488 14.0059 18.2314 14.1729 18.347 14.4071C18.3621 14.4377 18.3778 14.4695 18.3937 14.5031L16.1688 14.2406L16.2719 16.4563L15.8094 16.4719L15.8656 14.2375L13.6469 14.5188C13.674 14.4695 13.7043 14.4246 13.734 14.3807C13.851 14.2072 13.959 14.0471 13.8344 13.6781L11.7906 11.8813Z" fill="#D52B1E"/>
    <path d="M8 20C12.4183 20 16 16.4183 16 12C16 7.58172 12.4183 4 8 4C3.58172 4 0 7.58172 0 12C0 16.4183 3.58172 20 8 20Z" fill="#003399"/>
    <path d="M8.00024 6.54511L8.16775 7.10328L8.75156 7.09001L8.27132 7.42182L8.46442 7.97347L8 7.61964L7.53584 7.97328L7.72904 7.42099L7.25 7.09001L7.83223 7.10324L8.00024 6.54511Z" fill="#FFCC00"/>
    <path d="M8.00023 16.0267L8.16781 16.5848L8.75156 16.5715L8.27132 16.9033L8.46442 17.455L8 17.1012L7.53564 17.455L7.72904 16.9025L7.25 16.5715L7.83217 16.5848L8.00023 16.0267Z" fill="#FFCC00"/>
    <path d="M2.79469 12.7143L3.2592 12.3604L3.72329 12.714L3.53048 12.1628L4.01056 11.8309L3.42704 11.8442L3.25936 11.285L3.09142 11.8442L2.50781 11.8309L2.98784 12.1627L2.79469 12.7143Z" fill="#FFCC00"/>
    <path d="M5.68743 7.21539L5.51972 7.77421L4.9375 7.76098L5.41679 8.09214L5.22347 8.64439L5.6878 8.29062L6.15218 8.64443L5.95915 8.09278L6.43937 7.76098L5.85512 7.77426L5.68743 7.21539Z" fill="#FFCC00"/>
    <path d="M3.93057 8.97388L4.09794 9.53207L4.68162 9.5188L4.20113 9.85094L4.39438 10.4012L3.93017 10.048L3.46566 10.4019L3.65915 9.8509L3.17871 9.5188L3.76248 9.53207L3.93057 8.97388Z" fill="#FFCC00"/>
    <path d="M3.93092 13.7247L4.09875 14.2839L4.6826 14.2706L4.20244 14.6025L4.39535 15.1534L3.93107 14.8001L3.4665 15.154L3.65966 14.6024L3.17969 14.2706L3.76328 14.2839L3.93092 13.7247Z" fill="#FFCC00"/>
    <path d="M5.64615 15.316L5.81345 15.8742L6.39749 15.861L5.91713 16.1929L6.10997 16.7438L5.64583 16.3905L5.1814 16.7444L5.3745 16.1927L4.89429 15.8609L5.47813 15.8742L5.64615 15.316Z" fill="#FFCC00"/>
    <path d="M12.7411 11.286L12.9086 11.8442L13.4922 11.8309L13.0122 12.1628L13.2052 12.7137L12.741 12.3604L12.2765 12.7143L12.4697 12.1628L11.9895 11.8309L12.5732 11.8442L12.7411 11.286Z" fill="#FFCC00"/>
    <path d="M9.56079 7.76093L10.0411 8.09281L9.84806 8.64436L10.3124 8.29062L10.7766 8.64434L10.5834 8.09204L11.0621 7.76128L11.0627 7.76093L10.4805 7.77416L10.3127 7.21497L10.145 7.77421L9.56079 7.76093Z" fill="#FFCC00"/>
    <path d="M12.0698 8.97284L11.9021 9.53207L11.3186 9.5188L11.799 9.8509L11.6056 10.4019L12.07 10.048L12.5344 10.4019L12.341 9.85085L12.8214 9.5188L12.2377 9.53207L12.0698 8.97284Z" fill="#FFCC00"/>
    <path d="M12.069 13.7257L11.9015 14.2839L11.3176 14.2706L11.7977 14.6025L11.6046 15.154L12.0691 14.8001L12.5332 15.1537L12.3404 14.6025L12.8205 14.2706L12.2368 14.2839L12.069 13.7257Z" fill="#FFCC00"/>
    <path d="M10.3541 15.315L10.1865 15.8742L9.60254 15.8609L10.0828 16.1927L9.88965 16.7444L10.3541 16.3905L10.8182 16.7441L10.6254 16.1929L11.1057 15.861L10.5219 15.8742L10.3541 15.315Z" fill="#FFCC00"/>
</svg>
