<svg width="24" height="24" viewBox="0 0 24 24" fill="none" xmlns="http://www.w3.org/2000/svg">
    <path d="M8.53225 14.8753C8.18846 13.9829 8 13.0135 8 12C8 10.9876 8.18806 10.0191 8.53115 9.12756L12.8114 11.9998L8.53225 14.8753Z" fill="black"/>
    <path d="M23.5433 14.6707C22.4439 17.7758 19.4817 20 15.9999 20C14.5794 20 13.2452 19.6297 12.0889 18.9804L18.4926 14.6707H23.5433Z" fill="#0000CC"/>
    <path d="M23.5454 9.33534H18.4894C18.4894 9.33534 14.3955 6.68587 11.9136 5.12091C13.1096 4.40894 14.507 4 15.9999 4C19.4839 4 22.4477 6.22711 23.5454 9.33534Z" fill="#FF0000"/>
    <path d="M8.53186 9.126C8.65832 8.79759 8.80582 8.47963 8.97271 8.17377L14.6433 11.9998L8.97337 15.8274C8.80616 15.5211 8.65839 15.2026 8.53174 14.8737L12.8115 11.9998L8.53186 9.126Z" fill="#FFCC00"/>
    <path d="M8.97335 15.8275L14.6433 11.9999L8.97266 8.17382C9.51236 7.18467 10.2548 6.32204 11.1442 5.64178L18.134 10.373H23.8345C23.943 10.8983 24.0001 11.4425 24.0001 12C24.0001 12.5585 23.9428 13.1037 23.8339 13.6299H18.134L11.1445 18.3585C10.2554 17.6785 9.51307 16.8162 8.97335 15.8275Z" fill="#009933"/>
    <path d="M23.5454 9.33537C23.6641 9.6715 23.761 10.0179 23.8344 10.373H18.1339L11.144 5.64177C11.4422 5.41371 11.7569 5.20614 12.086 5.02118L18.4925 9.33537H23.5454Z" fill="white"/>
    <path d="M23.5433 14.6707C23.6623 14.3346 23.7595 13.9882 23.8331 13.6331H18.1339L11.145 18.3589C11.4437 18.5874 11.7591 18.7952 12.0888 18.9804L18.4925 14.6707H23.5433Z" fill="white"/>
    <path d="M8 20C12.4183 20 16 16.4183 16 12C16 7.58172 12.4183 4 8 4C3.58172 4 0 7.58172 0 12C0 16.4183 3.58172 20 8 20Z" fill="#003399"/>
    <path d="M8.00024 6.54511L8.16775 7.10328L8.75156 7.09001L8.27132 7.42182L8.46442 7.97347L8 7.61964L7.53584 7.97328L7.72904 7.42099L7.25 7.09001L7.83223 7.10324L8.00024 6.54511Z" fill="#FFCC00"/>
    <path d="M8.00023 16.0267L8.16781 16.5848L8.75156 16.5715L8.27132 16.9033L8.46442 17.455L8 17.1012L7.53564 17.455L7.72904 16.9025L7.25 16.5715L7.83217 16.5848L8.00023 16.0267Z" fill="#FFCC00"/>
    <path d="M2.79469 12.7143L3.2592 12.3604L3.72329 12.714L3.53048 12.1628L4.01056 11.8309L3.42704 11.8442L3.25936 11.285L3.09142 11.8442L2.50781 11.8309L2.98784 12.1627L2.79469 12.7143Z" fill="#FFCC00"/>
    <path d="M5.68743 7.21539L5.51972 7.77421L4.9375 7.76098L5.41679 8.09214L5.22347 8.64439L5.6878 8.29062L6.15218 8.64443L5.95915 8.09278L6.43937 7.76098L5.85512 7.77426L5.68743 7.21539Z" fill="#FFCC00"/>
    <path d="M3.93057 8.97388L4.09794 9.53207L4.68162 9.5188L4.20113 9.85094L4.39438 10.4012L3.93017 10.048L3.46566 10.4019L3.65915 9.8509L3.17871 9.5188L3.76248 9.53207L3.93057 8.97388Z" fill="#FFCC00"/>
    <path d="M3.93092 13.7247L4.09875 14.2839L4.6826 14.2706L4.20244 14.6025L4.39535 15.1534L3.93107 14.8001L3.4665 15.154L3.65966 14.6024L3.17969 14.2706L3.76328 14.2839L3.93092 13.7247Z" fill="#FFCC00"/>
    <path d="M5.64615 15.316L5.81345 15.8742L6.39749 15.861L5.91713 16.1929L6.10997 16.7438L5.64583 16.3905L5.1814 16.7444L5.3745 16.1927L4.89429 15.8609L5.47813 15.8742L5.64615 15.316Z" fill="#FFCC00"/>
    <path d="M12.7411 11.286L12.9086 11.8442L13.4922 11.8309L13.0122 12.1628L13.2052 12.7137L12.741 12.3604L12.2765 12.7143L12.4697 12.1628L11.9895 11.8309L12.5732 11.8442L12.7411 11.286Z" fill="#FFCC00"/>
    <path d="M9.56079 7.76093L10.0411 8.09281L9.84806 8.64436L10.3124 8.29062L10.7766 8.64434L10.5834 8.09204L11.0621 7.76128L11.0627 7.76093L10.4805 7.77416L10.3127 7.21497L10.145 7.77421L9.56079 7.76093Z" fill="#FFCC00"/>
    <path d="M12.0698 8.97284L11.9021 9.53207L11.3186 9.5188L11.799 9.8509L11.6056 10.4019L12.07 10.048L12.5344 10.4019L12.341 9.85085L12.8214 9.5188L12.2377 9.53207L12.0698 8.97284Z" fill="#FFCC00"/>
    <path d="M12.069 13.7257L11.9015 14.2839L11.3176 14.2706L11.7977 14.6025L11.6046 15.154L12.0691 14.8001L12.5332 15.1537L12.3404 14.6025L12.8205 14.2706L12.2368 14.2839L12.069 13.7257Z" fill="#FFCC00"/>
    <path d="M10.3541 15.315L10.1865 15.8742L9.60254 15.8609L10.0828 16.1927L9.88965 16.7444L10.3541 16.3905L10.8182 16.7441L10.6254 16.1929L11.1057 15.861L10.5219 15.8742L10.3541 15.315Z" fill="#FFCC00"/>
</svg>
