<svg width="24" height="24" viewBox="0 0 24 24" fill="none" xmlns="http://www.w3.org/2000/svg">
    <path d="M16 20C20.4183 20 24 16.4183 24 12C24 8.72039 22.0265 5.9017 19.2023 4.66669H12.7977C9.97349 5.9017 8 8.72039 8 12C8 16.4183 11.5817 20 16 20Z" fill="white"/>
    <path d="M23.9726 12.6667C23.9908 12.4468 24 12.2245 24 12C24 7.58172 20.4183 4 16 4C11.5817 4 8 7.58172 8 12C8 12.2245 8.00925 12.4468 8.02738 12.6667H23.9726Z" fill="#DF0000"/>
    <path fill-rule="evenodd" clip-rule="evenodd" d="M14.2444 6.00778C13.6128 6.14311 13.047 6.49165 12.6421 6.99487C12.2371 7.49808 12.0177 8.12532 12.0206 8.77123C12.0235 9.41714 12.2486 10.0424 12.6581 10.5419C13.0675 11.0415 13.6364 11.3849 14.2692 11.5145C13.8432 11.6392 13.394 11.6632 12.9571 11.5846C12.5201 11.5059 12.1075 11.3269 11.7516 11.0615C11.3958 10.7961 11.1064 10.4516 10.9065 10.0553C10.7065 9.65895 10.6014 9.22156 10.5994 8.77764C10.5974 8.33372 10.6986 7.89541 10.8949 7.49728C11.0913 7.09916 11.3775 6.75211 11.731 6.48352C12.0844 6.21493 12.4955 6.03214 12.9316 5.94958C13.3678 5.86702 13.8172 5.88695 14.2444 6.00778Z" fill="white"/>
    <path fill-rule="evenodd" clip-rule="evenodd" d="M13.269 8.33329L12.8423 8.02172L13.3729 8.0172L13.5354 7.51372L13.7048 8.0172H14.2331L13.8086 8.33329L13.9712 8.83678L13.5399 8.52746L13.111 8.83903L13.269 8.33329ZM13.856 10.0695L13.4271 9.75795L13.9576 9.75343L14.1224 9.24995L14.2895 9.75118H14.8201L14.3911 10.0673L14.5559 10.5708L14.127 10.2637L13.698 10.5753L13.856 10.0695ZM15.8045 10.056L15.3755 9.7444L15.9038 9.73989L16.0687 9.2364L16.2357 9.73989H16.7686L16.3418 10.056L16.5067 10.5595L16.0754 10.2501L15.6464 10.5617L15.8045 10.056ZM16.3847 8.33555L15.9558 8.02397L16.4863 8.01946L16.6489 7.51597L16.8182 8.0172H17.3466L16.9221 8.33329L17.0847 8.83678L16.6534 8.52972L16.2244 8.84129L16.3847 8.33555ZM14.8427 7.19537L14.4137 6.88379L14.9443 6.87928L15.1091 6.37579L15.2762 6.87928H15.8068L15.3778 7.19537L15.5426 7.6966L15.1136 7.38954L14.6846 7.70111L14.8427 7.19537Z" fill="white"/>
    <path d="M8 20C12.4183 20 16 16.4183 16 12C16 7.58172 12.4183 4 8 4C3.58172 4 0 7.58172 0 12C0 16.4183 3.58172 20 8 20Z" fill="#003399"/>
    <path d="M8.00024 6.54511L8.16775 7.10328L8.75156 7.09001L8.27132 7.42182L8.46442 7.97347L8 7.61964L7.53584 7.97328L7.72904 7.42099L7.25 7.09001L7.83223 7.10324L8.00024 6.54511Z" fill="#FFCC00"/>
    <path d="M8.00023 16.0267L8.16781 16.5848L8.75156 16.5715L8.27132 16.9033L8.46442 17.455L8 17.1012L7.53564 17.455L7.72904 16.9025L7.25 16.5715L7.83217 16.5848L8.00023 16.0267Z" fill="#FFCC00"/>
    <path d="M2.79469 12.7143L3.2592 12.3604L3.72329 12.714L3.53048 12.1628L4.01056 11.8309L3.42704 11.8442L3.25936 11.285L3.09142 11.8442L2.50781 11.8309L2.98784 12.1627L2.79469 12.7143Z" fill="#FFCC00"/>
    <path d="M5.68743 7.21539L5.51972 7.77421L4.9375 7.76098L5.41679 8.09214L5.22347 8.64439L5.6878 8.29062L6.15218 8.64443L5.95915 8.09278L6.43937 7.76098L5.85512 7.77426L5.68743 7.21539Z" fill="#FFCC00"/>
    <path d="M3.93057 8.97388L4.09794 9.53207L4.68162 9.5188L4.20113 9.85094L4.39438 10.4012L3.93017 10.048L3.46566 10.4019L3.65915 9.8509L3.17871 9.5188L3.76248 9.53207L3.93057 8.97388Z" fill="#FFCC00"/>
    <path d="M3.93092 13.7247L4.09875 14.2839L4.6826 14.2706L4.20244 14.6025L4.39535 15.1534L3.93107 14.8001L3.4665 15.154L3.65966 14.6024L3.17969 14.2706L3.76328 14.2839L3.93092 13.7247Z" fill="#FFCC00"/>
    <path d="M5.64615 15.316L5.81345 15.8742L6.39749 15.861L5.91713 16.1929L6.10997 16.7438L5.64583 16.3905L5.1814 16.7444L5.3745 16.1927L4.89429 15.8609L5.47813 15.8742L5.64615 15.316Z" fill="#FFCC00"/>
    <path d="M12.7411 11.286L12.9086 11.8442L13.4922 11.8309L13.0122 12.1628L13.2052 12.7137L12.741 12.3604L12.2765 12.7143L12.4697 12.1628L11.9895 11.8309L12.5732 11.8442L12.7411 11.286Z" fill="#FFCC00"/>
    <path d="M9.56079 7.76093L10.0411 8.09281L9.84806 8.64436L10.3124 8.29062L10.7766 8.64434L10.5834 8.09204L11.0621 7.76128L11.0627 7.76093L10.4805 7.77416L10.3127 7.21497L10.145 7.77421L9.56079 7.76093Z" fill="#FFCC00"/>
    <path d="M12.0698 8.97284L11.9021 9.53207L11.3186 9.5188L11.799 9.8509L11.6056 10.4019L12.07 10.048L12.5344 10.4019L12.341 9.85085L12.8214 9.5188L12.2377 9.53207L12.0698 8.97284Z" fill="#FFCC00"/>
    <path d="M12.069 13.7257L11.9015 14.2839L11.3176 14.2706L11.7977 14.6025L11.6046 15.154L12.0691 14.8001L12.5332 15.1537L12.3404 14.6025L12.8205 14.2706L12.2368 14.2839L12.069 13.7257Z" fill="#FFCC00"/>
    <path d="M10.3541 15.315L10.1865 15.8742L9.60254 15.8609L10.0828 16.1927L9.88965 16.7444L10.3541 16.3905L10.8182 16.7441L10.6254 16.1929L11.1057 15.861L10.5219 15.8742L10.3541 15.315Z" fill="#FFCC00"/>
</svg>
