<svg width="24" height="24" viewBox="0 0 24 24" fill="none" xmlns="http://www.w3.org/2000/svg">
    <path d="M16 20C20.4183 20 24 16.4183 24 12C24 7.58172 20.4183 4 16 4C11.5817 4 8 7.58172 8 12C8 16.4183 11.5817 20 16 20Z" fill="#000066"/>
    <path d="M9.79607 17.0513L10.4687 16.6531L9.71558 15.5187L10.9843 16L11.4031 14.7062L11.8187 16L13.0906 15.5187L12.3375 16.6531L13.5062 17.3469L12.1531 17.4625L12.3406 18.8094L11.4031 17.825L11.0015 18.2466C10.8614 18.1343 10.7252 18.0175 10.593 17.8962L10.6531 17.4656L10.1143 17.4184C10.0046 17.2993 9.89846 17.1769 9.79607 17.0513Z" fill="white"/>
    <path d="M20.3407 18.7211C20.0201 18.9286 19.6837 19.1137 19.3337 19.2744L19.375 18.9375L18.7875 18.8875L19.2968 18.5875L18.9687 18.0937L19.5218 18.3031L19.7031 17.7406L19.8812 18.3031L20.4375 18.0937L20.1125 18.5875L20.3407 18.7211Z" fill="white"/>
    <path d="M20.0312 10.1875L20.6187 10.1375L20.1125 9.83748L20.4375 9.34373L19.8812 9.5531L19.7031 8.9906L19.5218 9.5531L18.9687 9.34373L19.2968 9.83748L18.7875 10.1375L19.375 10.1875L19.3 10.775L19.7062 10.3469L20.1125 10.775L20.0312 10.1875Z" fill="white"/>
    <path d="M16.75 13.7437L17.3375 13.6937L16.8312 13.3906L17.1562 12.9L16.6031 13.1094L16.425 12.5469L16.2437 13.1094L15.6906 12.9L16.0187 13.3906L15.5093 13.6937L16.0968 13.7437L16.0187 14.3281L16.425 13.9L16.8312 14.3281L16.75 13.7437Z" fill="white"/>
    <path d="M22.9437 12.8687L23.5312 12.8187L23.025 12.5156L23.35 12.025L22.8 12.2344L22.6187 11.6719L22.4375 12.2344L21.8843 12.025L22.2125 12.5156L21.7031 12.8187L22.2906 12.8687L22.2125 13.4531L22.6187 13.025L23.025 13.4531L22.9437 12.8687Z" fill="white"/>
    <path d="M20.6968 15.2937L21.0187 15.0937L21.3375 15.2968L21.2468 14.9281L21.5343 14.6875L21.1562 14.6562L21.0187 14.3031L20.8718 14.6531L20.4968 14.6812L20.7875 14.925L20.6968 15.2937Z" fill="white"/>
    <path d="M16 4C11.5817 4 8 7.58172 8 12H16V4Z" fill="#000066"/>
    <path d="M14.7842 4.0918C15.1806 4.03135 15.5867 4 16 4V5L13.0312 8L16 10.9219V12H14.9531L11.9688 9.0625L9.0625 12H8C8 11.6115 8.02769 11.2295 8.0812 10.8559L10.9062 8.01562L9.80757 6.93466C10.1272 6.54443 10.4829 6.18495 10.8697 5.86134L11.9688 6.9375L14.7842 4.0918Z" fill="white"/>
    <path d="M15.2467 4.035C15.4947 4.01184 15.746 4 16 4L13 7.0625L12.9375 6.375L15.2467 4.035Z" fill="#C8102E"/>
    <path d="M9.98012 6.73096C10.102 6.5918 10.2287 6.45691 10.3598 6.32653L11.0156 6.96875L10.0938 6.84375L9.98012 6.73096Z" fill="#C8102E"/>
    <path d="M8.00014 11.953L10.875 9.0625L11.0469 9.59375L8.65625 12H8C8 11.9843 8.00005 11.9686 8.00014 11.953Z" fill="#C8102E"/>
    <path d="M13.6562 9L12.8125 8.875L16 12V11.2969L13.6562 9Z" fill="#C8102E"/>
    <path d="M10.7499 5.96347C11.4792 5.3287 12.3245 4.82391 13.2499 4.48517V6.74997H15.9999V9.24997H13.2499V12H10.7499V9.24997H8.48511C8.82385 8.32458 9.32864 7.47922 9.96341 6.74997H10.7499V5.96347Z" fill="white"/>
    <path d="M11.25 5.56218C11.7142 5.21916 12.2167 4.92514 12.75 4.68774V7.25002H16V8.75002H12.75V12H11.25V8.75002H8.68774C8.92514 8.2167 9.21916 7.71416 9.56218 7.25002H11.25V5.56218Z" fill="#C8102E"/>
    <path d="M8 20C12.4183 20 16 16.4183 16 12C16 7.58172 12.4183 4 8 4C3.58172 4 0 7.58172 0 12C0 16.4183 3.58172 20 8 20Z" fill="#003399"/>
    <path d="M8.00024 6.54511L8.16775 7.10328L8.75156 7.09001L8.27132 7.42182L8.46442 7.97347L8 7.61964L7.53584 7.97328L7.72904 7.42099L7.25 7.09001L7.83223 7.10324L8.00024 6.54511Z" fill="#FFCC00"/>
    <path d="M8.00023 16.0267L8.16781 16.5848L8.75156 16.5715L8.27132 16.9033L8.46442 17.455L8 17.1012L7.53564 17.455L7.72904 16.9025L7.25 16.5715L7.83217 16.5848L8.00023 16.0267Z" fill="#FFCC00"/>
    <path d="M2.79469 12.7143L3.2592 12.3604L3.72329 12.714L3.53048 12.1628L4.01056 11.8309L3.42704 11.8442L3.25936 11.285L3.09142 11.8442L2.50781 11.8309L2.98784 12.1627L2.79469 12.7143Z" fill="#FFCC00"/>
    <path d="M5.68743 7.21539L5.51972 7.77421L4.9375 7.76098L5.41679 8.09214L5.22347 8.64439L5.6878 8.29062L6.15218 8.64443L5.95915 8.09278L6.43937 7.76098L5.85512 7.77426L5.68743 7.21539Z" fill="#FFCC00"/>
    <path d="M3.93057 8.97388L4.09794 9.53207L4.68162 9.5188L4.20113 9.85094L4.39438 10.4012L3.93017 10.048L3.46566 10.4019L3.65915 9.8509L3.17871 9.5188L3.76248 9.53207L3.93057 8.97388Z" fill="#FFCC00"/>
    <path d="M3.93092 13.7247L4.09875 14.2839L4.6826 14.2706L4.20244 14.6025L4.39535 15.1534L3.93107 14.8001L3.4665 15.154L3.65966 14.6024L3.17969 14.2706L3.76328 14.2839L3.93092 13.7247Z" fill="#FFCC00"/>
    <path d="M5.64615 15.316L5.81345 15.8742L6.39749 15.861L5.91713 16.1929L6.10997 16.7438L5.64583 16.3905L5.1814 16.7444L5.3745 16.1927L4.89429 15.8609L5.47813 15.8742L5.64615 15.316Z" fill="#FFCC00"/>
    <path d="M12.7411 11.286L12.9086 11.8442L13.4922 11.8309L13.0122 12.1628L13.2052 12.7137L12.741 12.3604L12.2765 12.7143L12.4697 12.1628L11.9895 11.8309L12.5732 11.8442L12.7411 11.286Z" fill="#FFCC00"/>
    <path d="M9.56079 7.76093L10.0411 8.09281L9.84806 8.64436L10.3124 8.29062L10.7766 8.64434L10.5834 8.09204L11.0621 7.76128L11.0627 7.76093L10.4805 7.77416L10.3127 7.21497L10.145 7.77421L9.56079 7.76093Z" fill="#FFCC00"/>
    <path d="M12.0698 8.97284L11.9021 9.53207L11.3186 9.5188L11.799 9.8509L11.6056 10.4019L12.07 10.048L12.5344 10.4019L12.341 9.85085L12.8214 9.5188L12.2377 9.53207L12.0698 8.97284Z" fill="#FFCC00"/>
    <path d="M12.069 13.7257L11.9015 14.2839L11.3176 14.2706L11.7977 14.6025L11.6046 15.154L12.0691 14.8001L12.5332 15.1537L12.3404 14.6025L12.8205 14.2706L12.2368 14.2839L12.069 13.7257Z" fill="#FFCC00"/>
    <path d="M10.3541 15.315L10.1865 15.8742L9.60254 15.8609L10.0828 16.1927L9.88965 16.7444L10.3541 16.3905L10.8182 16.7441L10.6254 16.1929L11.1057 15.861L10.5219 15.8742L10.3541 15.315Z" fill="#FFCC00"/>
</svg>
