<svg width="24" height="24" viewBox="0 0 24 24" fill="none" xmlns="http://www.w3.org/2000/svg">
    <path d="M12 24C18.6274 24 24 18.6274 24 12C24 5.37258 18.6274 0 12 0C5.37258 0 0 5.37258 0 12C0 18.6274 5.37258 24 12 24Z" fill="#003399"/>
    <path d="M12.0004 3.81761L12.2516 4.65486L13.1273 4.63495L12.407 5.13267L12.6966 5.96014L12 5.42939L11.3038 5.95986L11.5936 5.13142L10.875 4.63495L11.7483 4.65481L12.0004 3.81761Z" fill="#FFCC00"/>
    <path d="M12.0004 18.04L12.2517 18.8772L13.1273 18.8573L12.407 19.355L12.6966 20.1825L12 19.6518L11.3035 20.1825L11.5936 19.3538L10.875 18.8573L11.7483 18.8772L12.0004 18.04Z" fill="#FFCC00"/>
    <path d="M4.19203 13.0714L4.88879 12.5406L5.58493 13.071L5.29573 12.2442L6.01584 11.7464L5.14056 11.7663L4.88904 10.9275L4.63713 11.7663L3.76172 11.7464L4.48176 12.2442L4.19203 13.0714Z" fill="#FFCC00"/>
    <path d="M8.53115 4.823L8.27958 5.66123L7.40625 5.64137L8.12519 6.13811L7.83521 6.9665L8.5317 6.43584L9.22827 6.96656L8.93872 6.13908L9.65906 5.64137L8.78267 5.6613L8.53115 4.823Z" fill="#FFCC00"/>
    <path d="M5.89585 7.46078L6.14691 8.29807L7.02243 8.27817L6.3017 8.77638L6.59156 9.60181L5.89526 9.07194L5.19849 9.60282L5.48872 8.77632L4.76807 8.27817L5.64372 8.29808L5.89585 7.46078Z" fill="#FFCC00"/>
    <path d="M5.89638 14.587L6.14812 15.4258L7.0239 15.4059L6.30367 15.9038L6.59303 16.7301L5.8966 16.2001L5.19975 16.7311L5.48949 15.9036L4.76953 15.4059L5.64492 15.4258L5.89638 14.587Z" fill="#FFCC00"/>
    <path d="M8.46935 16.9741L8.72029 17.8114L9.59636 17.7915L8.87581 18.2893L9.16508 19.1157L8.46887 18.5858L7.77222 19.1166L8.06187 18.2891L7.34155 17.7914L8.21732 17.8114L8.46935 16.9741Z" fill="#FFCC00"/>
    <path d="M19.1115 10.9291L19.3628 11.7663L20.2383 11.7464L19.5181 12.2442L19.8076 13.0705L19.1113 12.5407L18.4147 13.0714L18.7044 12.2443L17.9841 11.7464L18.8597 11.7663L19.1115 10.9291Z" fill="#FFCC00"/>
    <path d="M14.3411 5.64145L15.0616 6.13928L14.772 6.9666L15.4684 6.43599L16.1648 6.96657L15.8749 6.13812L16.593 5.64198L16.594 5.64145L15.7206 5.66131L15.4689 4.82251L15.2174 5.66137L14.3411 5.64145Z" fill="#FFCC00"/>
    <path d="M18.1046 7.45923L17.8531 8.29807L16.9778 8.27817L17.6984 8.77632L17.4082 9.60282L18.1049 9.07204L18.8015 9.60282L18.5114 8.77624L19.2319 8.27817L18.3565 8.29807L18.1046 7.45923Z" fill="#FFCC00"/>
    <path d="M18.1034 14.5886L17.8521 15.4258L16.9763 15.4059L17.6965 15.9037L17.4068 16.7311L18.1035 16.2002L18.7996 16.7306L18.5105 15.9038L19.2307 15.4059L18.355 15.4258L18.1034 14.5886Z" fill="#FFCC00"/>
    <path d="M15.5311 16.9725L15.2797 17.8114L14.4038 17.7914L15.1241 18.2891L14.8345 19.1166L15.5311 18.5858L16.2273 19.1162L15.9381 18.2893L16.6586 17.7915L15.7829 17.8114L15.5311 16.9725Z" fill="#FFCC00"/>
</svg>
