<svg width="60" height="60" fill="none" xmlns="http://www.w3.org/2000/svg"><path d="M30 60c16.569 0 30-13.431 30-30C60 13.431 46.569 0 30 0 13.431 0 0 13.431 0 30c0 16.569 13.431 30 30 30z" fill="#000"/><path d="M27.494 12.5c.632.607 1.213 1.148 1.777 1.688 2.375 2.312 4.768 4.623 6.887 7.172 2.24 2.7 4.17 5.585 5.282 8.927.922 2.784 1.384 5.653.803 8.556-.889 4.455-3.538 7.408-8.05 8.606-.12.034-.24.034-.359.051.547-.574 1.128-1.08 1.607-1.67 1.606-1.975 2.546-4.236 2.802-6.768.36-3.527-.7-6.682-2.614-9.619-1.094-1.67-2.513-3.088-3.965-4.455-.069-.068-.137-.101-.325-.253.547 4.421-.513 8.404-2.7 12.15-.325-1.755-.992-3.341-2.188-4.674-.188-.203-.393-.372-.598-.59-.069.083-.12.134-.12.185-.53 1.924-1.418 3.695-2.256 5.501-.683 1.451-1.025 2.97-.974 4.59.034 1.215.564 2.245 1.23 3.19.48.692 1.077 1.282 1.624 1.924.069.067.137.151.205.219-.017.034-.034.05-.051.084-.7-.32-1.401-.624-2.085-.978-1.88-1.013-3.47-2.363-4.563-4.202-1.094-1.84-1.436-3.831-1.35-5.94.136-3.055 1.367-5.738 2.854-8.337 1.401-2.447 2.854-4.877 4.187-7.358 1.282-2.396 2.256-4.91 2.837-7.577 0-.101.051-.22.103-.422z" fill="#fff"/></svg>