<svg width="24" height="24" viewBox="0 0 24 24" fill="none" xmlns="http://www.w3.org/2000/svg">
    <path d="M16 20C20.4183 20 24 16.4183 24 12C24 8.72039 22.0265 5.9017 19.2023 4.66669H12.7977C9.97349 5.9017 8 8.72039 8 12C8 16.4183 11.5817 20 16 20Z" fill="white"/>
    <path d="M23.9726 12.6667C23.9908 12.4468 24 12.2245 24 12C24 7.58172 20.4183 4 16 4C11.5817 4 8 7.58172 8 12C8 12.2245 8.00925 12.4468 8.02738 12.6667H23.9726Z" fill="#DF0000"/>
    <path fill-rule="evenodd" clip-rule="evenodd" d="M14.2444 6.00778C13.6128 6.14311 13.047 6.49165 12.6421 6.99487C12.2371 7.49808 12.0177 8.12532 12.0206 8.77123C12.0235 9.41714 12.2486 10.0424 12.6581 10.5419C13.0675 11.0415 13.6364 11.3849 14.2692 11.5145C13.8432 11.6392 13.394 11.6632 12.9571 11.5846C12.5201 11.5059 12.1075 11.3269 11.7516 11.0615C11.3958 10.7961 11.1064 10.4516 10.9065 10.0553C10.7065 9.65895 10.6014 9.22156 10.5994 8.77764C10.5974 8.33372 10.6986 7.89541 10.8949 7.49728C11.0913 7.09916 11.3775 6.75211 11.731 6.48352C12.0844 6.21493 12.4955 6.03214 12.9316 5.94958C13.3678 5.86702 13.8172 5.88695 14.2444 6.00778Z" fill="white"/>
    <path fill-rule="evenodd" clip-rule="evenodd" d="M13.269 8.33329L12.8423 8.02172L13.3729 8.0172L13.5354 7.51372L13.7048 8.0172H14.2331L13.8086 8.33329L13.9712 8.83678L13.5399 8.52746L13.111 8.83903L13.269 8.33329ZM13.856 10.0695L13.4271 9.75795L13.9576 9.75343L14.1224 9.24995L14.2895 9.75118H14.8201L14.3911 10.0673L14.5559 10.5708L14.127 10.2637L13.698 10.5753L13.856 10.0695ZM15.8045 10.056L15.3755 9.7444L15.9038 9.73989L16.0687 9.2364L16.2357 9.73989H16.7686L16.3418 10.056L16.5067 10.5595L16.0754 10.2501L15.6464 10.5617L15.8045 10.056ZM16.3847 8.33555L15.9558 8.02397L16.4863 8.01946L16.6489 7.51597L16.8182 8.0172H17.3466L16.9221 8.33329L17.0847 8.83678L16.6534 8.52972L16.2244 8.84129L16.3847 8.33555ZM14.8427 7.19537L14.4137 6.88379L14.9443 6.87928L15.1091 6.37579L15.2762 6.87928H15.8068L15.3778 7.19537L15.5426 7.6966L15.1136 7.38954L14.6846 7.70111L14.8427 7.19537Z" fill="white"/>
    <path d="M0 12C0 7.58172 3.58172 4 8 4C12.4183 4 16 7.58172 16 12C16 16.4183 12.4183 20 8 20C3.58172 20 0 16.4183 0 12Z" fill="#012169"/>
    <path d="M14.5746 7.44057L10.0626 12L14.6232 16.4886C14.0558 17.3242 13.3344 18.0468 12.4998 18.6155L7.93764 14.125L3.49712 18.6133C2.66435 18.0451 1.94442 17.3238 1.3779 16.4898L5.81264 12.0312L1.31421 7.60537C1.87133 6.75948 2.58468 6.02559 3.41317 5.44478L7.93764 9.87499L12.4282 5.33618C13.2693 5.89623 13.9984 6.61129 14.5746 7.44057Z" fill="white"/>
    <path d="M12.905 5.67963C13.1783 5.89208 13.4375 6.12187 13.6809 6.36736L9.99998 10.125L9.87498 8.75L12.905 5.67963Z" fill="#C8102E"/>
    <path d="M1.63452 7.15359C1.85502 6.86442 2.09478 6.59072 2.35188 6.33441L6.03123 9.9375L4.18748 9.6875L1.63452 7.15359Z" fill="#C8102E"/>
    <path d="M13.6336 17.68C13.8715 17.4441 14.0946 17.1933 14.3015 16.9292L11.3125 14L9.62498 13.75L13.6336 17.68Z" fill="#C8102E"/>
    <path d="M3.03108 18.2702L6.09373 15.1875L5.74998 14.125L2.29028 17.6035C2.52304 17.8407 2.77047 18.0634 3.03108 18.2702Z" fill="#C8102E"/>
    <path d="M15.6016 14.5C15.8601 13.7135 16 12.8731 16 12C16 11.1269 15.8601 10.2865 15.6016 9.5H10.5V4.39838C9.71345 4.13985 8.87306 4 8 4C7.12694 4 6.28655 4.13985 5.5 4.39838V9.5H0.398379C0.139853 10.2865 0 11.1269 0 12C0 12.8731 0.139853 13.7135 0.398379 14.5H5.5V19.6016C6.28655 19.8601 7.12694 20 8 20C8.87306 20 9.71345 19.8601 10.5 19.6016V14.5H15.6016Z" fill="white"/>
    <path d="M15.8596 13.5C15.9518 13.0141 16 12.5127 16 12C16 11.4873 15.9518 10.9859 15.8596 10.5H9.5V4.1404C9.01412 4.04823 8.51269 4 8 4C7.48731 4 6.98588 4.04823 6.5 4.1404V10.5H0.140396C0.0482284 10.9859 0 11.4873 0 12C0 12.5127 0.0482284 13.0141 0.140396 13.5H6.5V19.8596C6.98588 19.9518 7.48731 20 8 20C8.51269 20 9.01412 19.9518 9.5 19.8596V13.5H15.8596Z" fill="#C8102E"/>
</svg>
