<svg width="24" height="24" viewBox="0 0 24 24" fill="none" xmlns="http://www.w3.org/2000/svg">
    <path d="M16 20C20.4183 20 24 16.4183 24 12C24 7.58172 20.4183 4 16 4C11.5817 4 8 7.58172 8 12C8 16.4183 11.5817 20 16 20Z" fill="#000066"/>
    <path d="M9.79607 17.0513L10.4687 16.6531L9.71558 15.5187L10.9843 16L11.4031 14.7062L11.8187 16L13.0906 15.5187L12.3375 16.6531L13.5062 17.3469L12.1531 17.4625L12.3406 18.8094L11.4031 17.825L11.0015 18.2466C10.8614 18.1343 10.7252 18.0175 10.593 17.8962L10.6531 17.4656L10.1143 17.4184C10.0046 17.2993 9.89846 17.1769 9.79607 17.0513Z" fill="white"/>
    <path d="M20.3407 18.7211C20.0201 18.9286 19.6837 19.1137 19.3337 19.2744L19.375 18.9375L18.7875 18.8875L19.2968 18.5875L18.9687 18.0937L19.5218 18.3031L19.7031 17.7406L19.8812 18.3031L20.4375 18.0937L20.1125 18.5875L20.3407 18.7211Z" fill="white"/>
    <path d="M20.0312 10.1875L20.6187 10.1375L20.1125 9.83748L20.4375 9.34373L19.8812 9.5531L19.7031 8.9906L19.5218 9.5531L18.9687 9.34373L19.2968 9.83748L18.7875 10.1375L19.375 10.1875L19.3 10.775L19.7062 10.3469L20.1125 10.775L20.0312 10.1875Z" fill="white"/>
    <path d="M16.75 13.7437L17.3375 13.6937L16.8312 13.3906L17.1562 12.9L16.6031 13.1094L16.425 12.5469L16.2437 13.1094L15.6906 12.9L16.0187 13.3906L15.5093 13.6937L16.0968 13.7437L16.0187 14.3281L16.425 13.9L16.8312 14.3281L16.75 13.7437Z" fill="white"/>
    <path d="M22.9437 12.8687L23.5312 12.8187L23.025 12.5156L23.35 12.025L22.8 12.2344L22.6187 11.6719L22.4375 12.2344L21.8843 12.025L22.2125 12.5156L21.7031 12.8187L22.2906 12.8687L22.2125 13.4531L22.6187 13.025L23.025 13.4531L22.9437 12.8687Z" fill="white"/>
    <path d="M20.6968 15.2937L21.0187 15.0937L21.3375 15.2968L21.2468 14.9281L21.5343 14.6875L21.1562 14.6562L21.0187 14.3031L20.8718 14.6531L20.4968 14.6812L20.7875 14.925L20.6968 15.2937Z" fill="white"/>
    <path d="M16 4C11.5817 4 8 7.58172 8 12H16V4Z" fill="#000066"/>
    <path d="M14.7842 4.0918C15.1806 4.03135 15.5867 4 16 4V5L13.0312 8L16 10.9219V12H14.9531L11.9688 9.0625L9.0625 12H8C8 11.6115 8.02769 11.2295 8.0812 10.8559L10.9062 8.01562L9.80757 6.93466C10.1272 6.54443 10.4829 6.18495 10.8697 5.86134L11.9688 6.9375L14.7842 4.0918Z" fill="white"/>
    <path d="M15.2467 4.035C15.4947 4.01184 15.746 4 16 4L13 7.0625L12.9375 6.375L15.2467 4.035Z" fill="#C8102E"/>
    <path d="M9.98012 6.73096C10.102 6.5918 10.2287 6.45691 10.3598 6.32653L11.0156 6.96875L10.0938 6.84375L9.98012 6.73096Z" fill="#C8102E"/>
    <path d="M8.00014 11.953L10.875 9.0625L11.0469 9.59375L8.65625 12H8C8 11.9843 8.00005 11.9686 8.00014 11.953Z" fill="#C8102E"/>
    <path d="M13.6562 9L12.8125 8.875L16 12V11.2969L13.6562 9Z" fill="#C8102E"/>
    <path d="M10.7499 5.96347C11.4792 5.3287 12.3245 4.82391 13.2499 4.48517V6.74997H15.9999V9.24997H13.2499V12H10.7499V9.24997H8.48511C8.82385 8.32458 9.32864 7.47922 9.96341 6.74997H10.7499V5.96347Z" fill="white"/>
    <path d="M11.25 5.56218C11.7142 5.21916 12.2167 4.92514 12.75 4.68774V7.25002H16V8.75002H12.75V12H11.25V8.75002H8.68774C8.92514 8.2167 9.21916 7.71416 9.56218 7.25002H11.25V5.56218Z" fill="#C8102E"/>
    <path d="M0 12C0 7.58172 3.58172 4 8 4C12.4183 4 16 7.58172 16 12C16 16.4183 12.4183 20 8 20C3.58172 20 0 16.4183 0 12Z" fill="#012169"/>
    <path d="M14.5746 7.44057L10.0626 12L14.6232 16.4886C14.0558 17.3242 13.3344 18.0468 12.4998 18.6155L7.93764 14.125L3.49712 18.6133C2.66435 18.0451 1.94442 17.3238 1.3779 16.4898L5.81264 12.0312L1.31421 7.60537C1.87133 6.75948 2.58468 6.02559 3.41317 5.44478L7.93764 9.87499L12.4282 5.33618C13.2693 5.89623 13.9984 6.61129 14.5746 7.44057Z" fill="white"/>
    <path d="M12.905 5.67963C13.1783 5.89208 13.4375 6.12187 13.6809 6.36736L9.99998 10.125L9.87498 8.75L12.905 5.67963Z" fill="#C8102E"/>
    <path d="M1.63452 7.15359C1.85502 6.86442 2.09478 6.59072 2.35188 6.33441L6.03123 9.9375L4.18748 9.6875L1.63452 7.15359Z" fill="#C8102E"/>
    <path d="M13.6336 17.68C13.8715 17.4441 14.0946 17.1933 14.3015 16.9292L11.3125 14L9.62498 13.75L13.6336 17.68Z" fill="#C8102E"/>
    <path d="M3.03108 18.2702L6.09373 15.1875L5.74998 14.125L2.29028 17.6035C2.52304 17.8407 2.77047 18.0634 3.03108 18.2702Z" fill="#C8102E"/>
    <path d="M15.6016 14.5C15.8601 13.7135 16 12.8731 16 12C16 11.1269 15.8601 10.2865 15.6016 9.5H10.5V4.39838C9.71345 4.13985 8.87306 4 8 4C7.12694 4 6.28655 4.13985 5.5 4.39838V9.5H0.398379C0.139853 10.2865 0 11.1269 0 12C0 12.8731 0.139853 13.7135 0.398379 14.5H5.5V19.6016C6.28655 19.8601 7.12694 20 8 20C8.87306 20 9.71345 19.8601 10.5 19.6016V14.5H15.6016Z" fill="white"/>
    <path d="M15.8596 13.5C15.9518 13.0141 16 12.5127 16 12C16 11.4873 15.9518 10.9859 15.8596 10.5H9.5V4.1404C9.01412 4.04823 8.51269 4 8 4C7.48731 4 6.98588 4.04823 6.5 4.1404V10.5H0.140396C0.0482284 10.9859 0 11.4873 0 12C0 12.5127 0.0482284 13.0141 0.140396 13.5H6.5V19.8596C6.98588 19.9518 7.48731 20 8 20C8.51269 20 9.01412 19.9518 9.5 19.8596V13.5H15.8596Z" fill="#C8102E"/>
</svg>
