<svg width="25" height="24" viewBox="0 0 25 24" fill="none" xmlns="http://www.w3.org/2000/svg">
    <path d="M9.2576 7.69234C9.54045 7.25055 9.86553 6.83839 10.2271 6.46156H21.7729C22.1345 6.83839 22.4596 7.25055 22.7424 7.69234H9.2576Z" fill="#BD3D44"/>
    <path d="M8.21406 10.1539C8.31428 9.72959 8.4483 9.31833 8.6131 8.92313H23.3869C23.5517 9.31833 23.6857 9.72959 23.7859 10.1539H8.21406Z" fill="#BD3D44"/>
    <path d="M8.02332 12.6155C8.00787 12.4123 8 12.2071 8 12C8 11.793 8.00786 11.5878 8.02331 11.3847H23.9767C23.9921 11.5878 24 11.793 24 12C24 12.2071 23.9921 12.4123 23.9767 12.6155H8.02332Z" fill="#BD3D44"/>
    <path d="M8.61317 15.077C8.44835 14.6818 8.31433 14.2706 8.21409 13.8463H23.7859C23.6857 14.2706 23.5516 14.6818 23.3868 15.077H8.61317Z" fill="#BD3D44"/>
    <path d="M10.2273 17.5386C9.86566 17.1618 9.54056 16.7496 9.2577 16.3078H22.7423C22.4594 16.7496 22.1343 17.1618 21.7727 17.5386H10.2273Z" fill="#BD3D44"/>
    <path d="M20.2652 18.7694C19.0307 19.5489 17.568 20 16 20C14.432 20 12.9693 19.5489 11.7348 18.7694H20.2652Z" fill="#BD3D44"/>
    <path d="M20.2655 5.23078H11.7345C12.9692 4.45117 14.4319 4 16 4C17.5681 4 19.0308 4.45117 20.2655 5.23078Z" fill="#BD3D44"/>
    <path d="M23.7858 10.1539C23.8802 10.5534 23.9446 10.9645 23.9766 11.3847H8.02319C8.05515 10.9645 8.11957 10.5534 8.21394 10.1539H23.7858Z" fill="white"/>
    <path d="M22.7423 7.69234C22.9911 8.08096 23.2072 8.49251 23.3868 8.92312H8.61298C8.79255 8.49251 9.00867 8.08096 9.25747 7.69234H22.7423Z" fill="white"/>
    <path d="M20.2654 5.23077C20.817 5.57911 21.3231 5.99302 21.7728 6.46156H10.227C10.6766 5.99302 11.1827 5.57911 11.7344 5.23077H20.2654Z" fill="white"/>
    <path d="M23.7858 13.8462C23.8802 13.4467 23.9446 13.0356 23.9766 12.6155H8.02321C8.05517 13.0356 8.1196 13.4467 8.21398 13.8462H23.7858Z" fill="white"/>
    <path d="M23.3867 15.077H8.61306C8.79264 15.5076 9.00877 15.9192 9.25759 16.3078H22.7422C22.991 15.9192 23.2071 15.5076 23.3867 15.077Z" fill="white"/>
    <path d="M21.7726 17.5386H10.2272C10.6768 18.0071 11.183 18.421 11.7347 18.7694H20.2651C20.8168 18.421 21.3229 18.0071 21.7726 17.5386Z" fill="white"/>
    <path d="M16.8268 4.04221V12.6155H8.02332C8.00787 12.4123 8 12.2071 8 12C8 7.58172 11.5817 4 16 4C16.2792 4 16.555 4.0143 16.8268 4.04221Z" fill="#192F5D"/>
    <path d="M11.8853 5.1378C11.9205 5.11669 11.9558 5.09584 11.9913 5.07525L12.0513 5.25536L11.8853 5.1378Z" fill="white"/>
    <path d="M10.7839 5.93405C10.8318 5.89281 10.8802 5.85213 10.9291 5.81202L11.0421 6.11691L10.7839 5.93405Z" fill="white"/>
    <path d="M9.86797 6.86168C9.89596 6.82831 9.92423 6.79517 9.95275 6.76226L10.0328 6.97846L9.86797 6.86168Z" fill="white"/>
    <path d="M8.70792 8.70482C8.71125 8.69745 8.7146 8.69009 8.71796 8.68273L8.83897 9.02155H9.18358L8.9005 9.23078L9.01127 9.56309L8.71589 9.35386L8.43281 9.56309L8.54358 9.23078L8.50288 9.20195C8.52546 9.14147 8.54875 9.08133 8.57275 9.02155H8.61742L8.70792 8.70482Z" fill="white"/>
    <path d="M8.00125 12.1472L8.00203 12.1477L8.00122 12.1453L8.00125 12.1472Z" fill="white"/>
    <path d="M8.00434 11.7318C8.00572 11.6899 8.00742 11.648 8.00945 11.6062H8.17434L8.00434 11.7318Z" fill="white"/>
    <path d="M13.8975 4.71382L13.7867 4.3692L13.6636 4.71382H13.3067L13.6021 4.92305L13.4913 5.25536L13.7744 5.04613L14.0821 5.25536L13.959 4.92305L14.2544 4.71382H13.8975Z" fill="white"/>
    <path d="M15.9283 4.71382L15.8175 4.3692L15.7067 4.71382H15.3498L15.6452 4.92305L15.5221 5.25536L15.8175 5.04613L16.1129 5.25536L15.9898 4.92305L16.2852 4.71382H15.9283Z" fill="white"/>
    <path d="M12.8882 5.57537L12.7775 5.23075L12.6667 5.57537H12.3098L12.6052 5.7846L12.4821 6.11691L12.7775 5.90768L13.0729 6.11691L12.9498 5.7846L13.2452 5.57537H12.8882Z" fill="white"/>
    <path d="M14.919 5.57537L14.7959 5.23075L14.6852 5.57537H14.3159L14.6113 5.7846L14.5006 6.11691L14.7836 5.90768L15.079 6.11691L14.9683 5.7846L15.2513 5.57537H14.919Z" fill="white"/>
    <path d="M11.879 6.43691L11.7559 6.09229L11.6575 6.43691H11.2882L11.5836 6.64614L11.4728 6.97846L11.7559 6.76922L12.0513 6.97846L11.9405 6.64614L12.2236 6.43691H11.879Z" fill="white"/>
    <path d="M13.8975 6.43691L13.7867 6.09229L13.6759 6.43691H13.319L13.6144 6.64614L13.5036 6.97846L13.7867 6.76922L14.0821 6.97846L13.9713 6.64614L14.2544 6.43691H13.8975Z" fill="white"/>
    <path d="M15.9283 6.43691L15.8175 6.09229L15.7067 6.43691H15.3498L15.6452 6.64614L15.5221 6.97846L15.8175 6.76922L16.1129 6.97846L15.9898 6.64614L16.2852 6.43691H15.9283Z" fill="white"/>
    <path d="M10.8574 7.29846L10.7467 6.95384L10.6359 7.29846H10.279L10.5744 7.50769L10.4636 7.84L10.7467 7.63077L11.0421 7.84L10.9313 7.50769L11.2144 7.29846H10.8574Z" fill="white"/>
    <path d="M12.8882 7.29846L12.7775 6.95384L12.6667 7.29846H12.3098L12.6052 7.50769L12.4821 7.84L12.7775 7.63077L13.0729 7.84L12.9498 7.50769L13.2452 7.29846H12.8882Z" fill="white"/>
    <path d="M14.919 7.29846L14.7959 6.95384L14.6852 7.29846H14.3159L14.6113 7.50769L14.5006 7.84L14.7836 7.63077L15.079 7.84L14.9683 7.50769L15.2513 7.29846H14.919Z" fill="white"/>
    <path d="M9.84821 8.16L9.73744 7.81539L9.62666 8.16H9.26974L9.56513 8.36924L9.44205 8.70155L9.73744 8.49231L10.0328 8.70155L9.90974 8.36924L10.2051 8.16H9.84821Z" fill="white"/>
    <path d="M11.879 8.16L11.7559 7.81539L11.6575 8.16H11.2882L11.5836 8.36924L11.4728 8.70155L11.7559 8.49231L12.0513 8.70155L11.9405 8.36924L12.2236 8.16H11.879Z" fill="white"/>
    <path d="M13.8975 8.16L13.7867 7.81539L13.6759 8.16H13.319L13.6144 8.36924L13.5036 8.70155L13.7867 8.49231L14.0821 8.70155L13.9713 8.36924L14.2544 8.16H13.8975Z" fill="white"/>
    <path d="M15.9283 8.16L15.8175 7.81539L15.7067 8.16H15.3498L15.6452 8.36924L15.5221 8.70155L15.8175 8.49231L16.1129 8.70155L15.9898 8.36924L16.2852 8.16H15.9283Z" fill="white"/>
    <path d="M10.8574 9.02155L10.7467 8.67693L10.6359 9.02155H10.279L10.5744 9.23078L10.4636 9.56309L10.7467 9.35386L11.0421 9.56309L10.9313 9.23078L11.2144 9.02155H10.8574Z" fill="white"/>
    <path d="M12.8882 9.02155L12.7775 8.67693L12.6667 9.02155H12.3098L12.6052 9.23078L12.4821 9.56309L12.7775 9.35386L13.0729 9.56309L12.9498 9.23078L13.2452 9.02155H12.8882Z" fill="white"/>
    <path d="M14.919 9.02155L14.7959 8.67693L14.6852 9.02155H14.3159L14.6113 9.23078L14.5006 9.56309L14.7836 9.35386L15.079 9.56309L14.9683 9.23078L15.2513 9.02155H14.919Z" fill="white"/>
    <path d="M9.84821 9.88309L9.73744 9.53848L9.62666 9.88309H9.26974L9.56513 10.0923L9.44205 10.4246L9.73744 10.2154L10.0328 10.4246L9.90974 10.0923L10.2051 9.88309H9.84821Z" fill="white"/>
    <path d="M11.879 9.88309L11.7559 9.53848L11.6575 9.88309H11.2882L11.5836 10.0923L11.4728 10.4246L11.7559 10.2154L12.0513 10.4246L11.9405 10.0923L12.2236 9.88309H11.879Z" fill="white"/>
    <path d="M13.8975 9.88309L13.7867 9.53848L13.6759 9.88309H13.319L13.6144 10.0923L13.5036 10.4246L13.7867 10.2154L14.0821 10.4246L13.9713 10.0923L14.2544 9.88309H13.8975Z" fill="white"/>
    <path d="M15.9283 9.88309L15.8175 9.53848L15.7067 9.88309H15.3498L15.6452 10.0923L15.5221 10.4246L15.8175 10.2154L16.1129 10.4246L15.9898 10.0923L16.2852 9.88309H15.9283Z" fill="white"/>
    <path d="M8.83897 10.7446L8.71589 10.4L8.61742 10.7446H8.24819L8.54358 10.9539L8.43281 11.2862L8.71589 11.077L9.01127 11.2862L8.9005 10.9539L9.18358 10.7446H8.83897Z" fill="white"/>
    <path d="M10.8574 10.7446L10.7467 10.4L10.6359 10.7446H10.279L10.5744 10.9539L10.4636 11.2862L10.7467 11.077L11.0421 11.2862L10.9313 10.9539L11.2144 10.7446H10.8574Z" fill="white"/>
    <path d="M12.8882 10.7446L12.7775 10.4L12.6667 10.7446H12.3098L12.6052 10.9539L12.4821 11.2862L12.7775 11.077L13.0729 11.2862L12.9498 10.9539L13.2452 10.7446H12.8882Z" fill="white"/>
    <path d="M14.919 10.7446L14.7959 10.4L14.6852 10.7446H14.3159L14.6113 10.9539L14.5006 11.2862L14.7836 11.077L15.079 11.2862L14.9683 10.9539L15.2513 10.7446H14.919Z" fill="white"/>
    <path d="M9.84821 11.6062L9.73744 11.2616L9.62666 11.6062H9.26974L9.56513 11.8154L9.44205 12.1477L9.73744 11.9385L10.0328 12.1477L9.90974 11.8154L10.2051 11.6062H9.84821Z" fill="white"/>
    <path d="M11.879 11.6062L11.7559 11.2616L11.6575 11.6062H11.2882L11.5836 11.8154L11.4728 12.1477L11.7559 11.9385L12.0513 12.1477L11.9405 11.8154L12.2236 11.6062H11.879Z" fill="white"/>
    <path d="M13.8975 11.6062L13.7867 11.2616L13.6759 11.6062H13.319L13.6144 11.8154L13.5036 12.1477L13.7867 11.9385L14.0821 12.1477L13.9713 11.8154L14.2544 11.6062H13.8975Z" fill="white"/>
    <path d="M15.9283 11.6062L15.8175 11.2616L15.7067 11.6062H15.3498L15.6452 11.8154L15.5221 12.1477L15.8175 11.9385L16.1129 12.1477L15.9898 11.8154L16.2852 11.6062H15.9283Z" fill="white"/>
    <path d="M16 19.95C11.6093 19.95 8.05 16.3907 8.05 12H7.95C7.95 16.4459 11.5541 20.05 16 20.05V19.95ZM23.95 12C23.95 16.3907 20.3907 19.95 16 19.95V20.05C20.4459 20.05 24.05 16.4459 24.05 12H23.95ZM16 4.05C20.3907 4.05 23.95 7.60934 23.95 12H24.05C24.05 7.55411 20.4459 3.95 16 3.95V4.05ZM16 3.95C11.5541 3.95 7.95 7.55411 7.95 12H8.05C8.05 7.60934 11.6093 4.05 16 4.05V3.95Z" fill="black" fill-opacity="0.1"/>
    <path d="M0 12C0 7.58172 3.58172 4 8 4C12.4183 4 16 7.58172 16 12C16 16.4183 12.4183 20 8 20C3.58172 20 0 16.4183 0 12Z" fill="#012169"/>
    <path d="M14.5746 7.44057L10.0626 12L14.6232 16.4886C14.0558 17.3242 13.3344 18.0468 12.4998 18.6155L7.93764 14.125L3.49712 18.6133C2.66435 18.0451 1.94442 17.3238 1.3779 16.4898L5.81264 12.0312L1.31421 7.60537C1.87133 6.75948 2.58468 6.02559 3.41317 5.44478L7.93764 9.87499L12.4282 5.33618C13.2693 5.89623 13.9984 6.61129 14.5746 7.44057Z" fill="white"/>
    <path d="M12.905 5.67963C13.1783 5.89208 13.4375 6.12187 13.6809 6.36736L9.99998 10.125L9.87498 8.75L12.905 5.67963Z" fill="#C8102E"/>
    <path d="M1.63452 7.15359C1.85502 6.86442 2.09478 6.59072 2.35188 6.33441L6.03123 9.9375L4.18748 9.6875L1.63452 7.15359Z" fill="#C8102E"/>
    <path d="M13.6336 17.68C13.8715 17.4441 14.0946 17.1933 14.3015 16.9292L11.3125 14L9.62498 13.75L13.6336 17.68Z" fill="#C8102E"/>
    <path d="M3.03108 18.2702L6.09373 15.1875L5.74998 14.125L2.29028 17.6035C2.52304 17.8407 2.77047 18.0634 3.03108 18.2702Z" fill="#C8102E"/>
    <path d="M15.6016 14.5C15.8601 13.7135 16 12.8731 16 12C16 11.1269 15.8601 10.2865 15.6016 9.5H10.5V4.39838C9.71345 4.13985 8.87306 4 8 4C7.12694 4 6.28655 4.13985 5.5 4.39838V9.5H0.398379C0.139853 10.2865 0 11.1269 0 12C0 12.8731 0.139853 13.7135 0.398379 14.5H5.5V19.6016C6.28655 19.8601 7.12694 20 8 20C8.87306 20 9.71345 19.8601 10.5 19.6016V14.5H15.6016Z" fill="white"/>
    <path d="M15.8596 13.5C15.9518 13.0141 16 12.5127 16 12C16 11.4873 15.9518 10.9859 15.8596 10.5H9.5V4.1404C9.01412 4.04823 8.51269 4 8 4C7.48731 4 6.98588 4.04823 6.5 4.1404V10.5H0.140396C0.0482284 10.9859 0 11.4873 0 12C0 12.5127 0.0482284 13.0141 0.140396 13.5H6.5V19.8596C6.98588 19.9518 7.48731 20 8 20C8.51269 20 9.01412 19.9518 9.5 19.8596V13.5H15.8596Z" fill="#C8102E"/>
</svg>
