<svg width="24" height="24" viewBox="0 0 24 24" fill="none" xmlns="http://www.w3.org/2000/svg">
    <path d="M8.53225 14.8753C8.18846 13.9829 8 13.0135 8 12C8 10.9876 8.18806 10.0191 8.53115 9.12756L12.8114 11.9998L8.53225 14.8753Z" fill="black"/>
    <path d="M23.5433 14.6707C22.4439 17.7758 19.4817 20 15.9999 20C14.5794 20 13.2452 19.6297 12.0889 18.9804L18.4926 14.6707H23.5433Z" fill="#0000CC"/>
    <path d="M23.5454 9.33534H18.4894C18.4894 9.33534 14.3955 6.68587 11.9136 5.12091C13.1096 4.40894 14.507 4 15.9999 4C19.4839 4 22.4477 6.22711 23.5454 9.33534Z" fill="#FF0000"/>
    <path d="M8.53186 9.126C8.65832 8.79759 8.80582 8.47963 8.97271 8.17377L14.6433 11.9998L8.97337 15.8274C8.80616 15.5211 8.65839 15.2026 8.53174 14.8737L12.8115 11.9998L8.53186 9.126Z" fill="#FFCC00"/>
    <path d="M8.97335 15.8275L14.6433 11.9999L8.97266 8.17382C9.51236 7.18467 10.2548 6.32204 11.1442 5.64178L18.134 10.373H23.8345C23.943 10.8983 24.0001 11.4425 24.0001 12C24.0001 12.5585 23.9428 13.1037 23.8339 13.6299H18.134L11.1445 18.3585C10.2554 17.6785 9.51307 16.8162 8.97335 15.8275Z" fill="#009933"/>
    <path d="M23.5454 9.33537C23.6641 9.6715 23.761 10.0179 23.8344 10.373H18.1339L11.144 5.64177C11.4422 5.41371 11.7569 5.20614 12.086 5.02118L18.4925 9.33537H23.5454Z" fill="white"/>
    <path d="M23.5433 14.6707C23.6623 14.3346 23.7595 13.9882 23.8331 13.6331H18.1339L11.145 18.3589C11.4437 18.5874 11.7591 18.7952 12.0888 18.9804L18.4925 14.6707H23.5433Z" fill="white"/>
    <path d="M0 12C0 7.58172 3.58172 4 8 4C12.4183 4 16 7.58172 16 12C16 16.4183 12.4183 20 8 20C3.58172 20 0 16.4183 0 12Z" fill="#012169"/>
    <path d="M14.5746 7.44057L10.0626 12L14.6232 16.4886C14.0558 17.3242 13.3344 18.0468 12.4998 18.6155L7.93764 14.125L3.49712 18.6133C2.66435 18.0451 1.94442 17.3238 1.3779 16.4898L5.81264 12.0312L1.31421 7.60537C1.87133 6.75948 2.58468 6.02559 3.41317 5.44478L7.93764 9.87499L12.4282 5.33618C13.2693 5.89623 13.9984 6.61129 14.5746 7.44057Z" fill="white"/>
    <path d="M12.905 5.67963C13.1783 5.89208 13.4375 6.12187 13.6809 6.36736L9.99998 10.125L9.87498 8.75L12.905 5.67963Z" fill="#C8102E"/>
    <path d="M1.63452 7.15359C1.85502 6.86442 2.09478 6.59072 2.35188 6.33441L6.03123 9.9375L4.18748 9.6875L1.63452 7.15359Z" fill="#C8102E"/>
    <path d="M13.6336 17.68C13.8715 17.4441 14.0946 17.1933 14.3015 16.9292L11.3125 14L9.62498 13.75L13.6336 17.68Z" fill="#C8102E"/>
    <path d="M3.03108 18.2702L6.09373 15.1875L5.74998 14.125L2.29028 17.6035C2.52304 17.8407 2.77047 18.0634 3.03108 18.2702Z" fill="#C8102E"/>
    <path d="M15.6016 14.5C15.8601 13.7135 16 12.8731 16 12C16 11.1269 15.8601 10.2865 15.6016 9.5H10.5V4.39838C9.71345 4.13985 8.87306 4 8 4C7.12694 4 6.28655 4.13985 5.5 4.39838V9.5H0.398379C0.139853 10.2865 0 11.1269 0 12C0 12.8731 0.139853 13.7135 0.398379 14.5H5.5V19.6016C6.28655 19.8601 7.12694 20 8 20C8.87306 20 9.71345 19.8601 10.5 19.6016V14.5H15.6016Z" fill="white"/>
    <path d="M15.8596 13.5C15.9518 13.0141 16 12.5127 16 12C16 11.4873 15.9518 10.9859 15.8596 10.5H9.5V4.1404C9.01412 4.04823 8.51269 4 8 4C7.48731 4 6.98588 4.04823 6.5 4.1404V10.5H0.140396C0.0482284 10.9859 0 11.4873 0 12C0 12.5127 0.0482284 13.0141 0.140396 13.5H6.5V19.8596C6.98588 19.9518 7.48731 20 8 20C8.51269 20 9.01412 19.9518 9.5 19.8596V13.5H15.8596Z" fill="#C8102E"/>
</svg>
