<svg width="24" height="24" viewBox="0 0 24 24" fill="none" xmlns="http://www.w3.org/2000/svg">
    <path d="M16 4C11.5817 4 8 7.58172 8 12C8 16.4183 11.5817 20 16 20C20.4183 20 24 16.4183 24 12C24 7.58172 20.4183 4 16 4Z" fill="#BA0000"/>
    <path d="M15.7525 11.8772L15.7506 11.8763C15.7184 11.8258 15.6873 11.7822 15.6582 11.7413C15.5334 11.5662 15.4431 11.4396 15.4484 11.0262C15.4699 10.8046 15.5728 10.5989 15.7372 10.4487C15.8483 10.3473 15.974 10.2845 16.0997 10.2218C16.2017 10.1709 16.3037 10.12 16.3978 10.0484C16.5627 9.92648 16.6924 9.76311 16.7739 9.57488C16.8553 9.38665 16.8856 9.18024 16.8616 8.97656C16.8427 8.71072 16.7618 8.453 16.6253 8.22406C16.5203 8.03156 16.4634 7.83906 16.5422 7.63781C16.5816 7.52625 16.6603 7.43656 16.7566 7.34906C16.4009 7.37177 16.0488 7.43339 15.7066 7.53281C14.9759 7.85875 14.5734 8.45812 14.3459 9.33968C14.1165 11.1341 15.6878 11.8486 15.7506 11.8763L15.7525 11.8794V11.8772Z" fill="white"/>
    <path d="M15.8925 11.7568L15.8928 11.7539C15.9322 11.7081 15.9651 11.6655 15.9959 11.6255C16.1261 11.4568 16.2203 11.3345 16.6165 11.2165C16.8347 11.172 17.0616 11.2102 17.2531 11.3237C17.3823 11.4002 17.4781 11.501 17.5738 11.6016C17.6531 11.685 17.7324 11.7684 17.8306 11.8378C17.9955 11.9592 18.1895 12.0351 18.393 12.0577C18.5965 12.0804 18.8024 12.049 18.99 11.9668C19.27 11.8553 19.4669 11.7131 19.6419 11.5206C19.795 11.3653 19.9612 11.2537 20.1756 11.269C20.2959 11.2756 20.4031 11.3237 20.5147 11.3893C20.3893 11.0563 20.2279 10.738 20.0334 10.44C19.5062 9.83841 18.815 9.62841 17.905 9.66997C16.1302 9.97325 15.9026 11.6736 15.8928 11.7539L15.8903 11.7568H15.8925Z" fill="white"/>
    <path d="M18.6333 13.1328C17.7605 11.5053 16.0149 11.8859 16.0149 11.8859H16.0127C16.0706 11.9095 16.1232 11.9276 16.1724 11.9445C16.3743 12.0138 16.5208 12.0641 16.7564 12.4C16.8682 12.593 16.9041 12.8207 16.8571 13.0387C16.8259 13.1848 16.7608 13.3079 16.6956 13.431C16.6416 13.5329 16.5877 13.6348 16.553 13.7497C16.4901 13.9449 16.4799 14.1533 16.5233 14.3538C16.5667 14.5543 16.6622 14.7398 16.8002 14.8915C16.9692 15.097 17.1843 15.2597 17.428 15.3662C17.6249 15.4625 17.7846 15.585 17.8371 15.7928C17.8677 15.9065 17.8568 16.0247 17.8305 16.1516C18.1039 15.9197 18.3599 15.6791 18.5786 15.3947C18.9833 14.7034 18.9614 13.9816 18.6333 13.1328Z" fill="white"/>
    <path d="M15.9756 12.0653C15.9756 12.0653 16.8287 13.6337 15.514 14.9309C14.79 15.4822 14.1031 15.7053 13.3265 15.5106C12.9919 15.3837 12.69 15.2043 12.3903 15.0075C12.5172 14.9965 12.6353 14.9747 12.7359 14.9112C12.9197 14.8018 12.994 14.6159 13.0312 14.3993C13.0644 14.1352 13.1596 13.8826 13.309 13.6622C13.4162 13.4871 13.5677 13.3435 13.7483 13.2459C13.9289 13.1484 14.132 13.1003 14.3372 13.1065C14.456 13.1075 14.5686 13.1305 14.6814 13.1535C14.8177 13.1813 14.9544 13.2092 15.1028 13.1984C15.3257 13.1828 15.5348 13.0845 15.689 12.9228C15.9471 12.5993 15.9538 12.4444 15.963 12.2306C15.9652 12.1798 15.9675 12.1257 15.9734 12.0653H15.9756Z" fill="white"/>
    <path d="M12.9262 12.5465C14.5843 13.3581 15.7809 12.0303 15.7809 12.0303C15.7229 12.0447 15.6718 12.0601 15.6238 12.0747C15.4167 12.1374 15.2682 12.1824 14.8774 12.0456C14.6739 11.9544 14.5117 11.7906 14.4224 11.5862C14.363 11.4496 14.3443 11.313 14.3255 11.1763C14.3098 11.0614 14.294 10.9465 14.254 10.8315C14.1912 10.6364 14.0781 10.4612 13.926 10.3237C13.7739 10.1862 13.5882 10.0912 13.3878 10.0484C13.1303 9.98057 12.8605 9.97457 12.6003 10.0309C12.3859 10.0681 12.1846 10.0593 12.0206 9.92152C11.9265 9.84715 11.8696 9.74434 11.8149 9.6284C11.7296 9.97621 11.6596 10.3218 11.6509 10.6784C11.7253 11.4746 12.1649 12.0478 12.9262 12.5465Z" fill="white"/>
    <path d="M15.6453 8.83221L15.4353 8.87815L15.63 8.95909L15.6037 9.16252L15.7481 9.00721L15.945 9.08596L15.84 8.91096L15.9843 8.75565L15.7743 8.80159L15.6693 8.62659L15.6453 8.83221Z" fill="#BA0000"/>
    <path d="M15.5671 11.6615C15.258 11.3883 15.1131 10.9037 15.108 10.4235C15.1054 10.1842 15.1376 9.94813 15.2003 9.74313C15.263 9.53774 15.3556 9.3658 15.4721 9.25245L15.4248 9.20385C15.2974 9.32784 15.2002 9.51137 15.1354 9.72332C15.0706 9.93565 15.0376 10.1787 15.0402 10.4243C15.0454 10.9137 15.1926 11.4211 15.5222 11.7123L15.5671 11.6615Z" fill="#BA0000"/>
    <path d="M16.0435 11.5171C16.214 11.1413 16.6354 10.8614 17.0934 10.7159C17.3217 10.6435 17.557 10.6051 17.7714 10.6046C17.9861 10.6042 18.1775 10.6419 18.3196 10.7192L18.352 10.6596C18.1965 10.575 17.9928 10.5364 17.7712 10.5368C17.5493 10.5373 17.307 10.577 17.0729 10.6513C16.6062 10.7995 16.1635 11.0884 15.9818 11.4891L16.0435 11.5171Z" fill="#BA0000"/>
    <path d="M18.7711 10.7638L18.6661 10.5757L18.6464 10.7857L18.443 10.8207L18.6355 10.9147L18.6158 11.1247L18.7536 10.9716L18.9461 11.0657L18.8389 10.8797L18.9745 10.7266L18.7711 10.7638Z" fill="#BA0000"/>
    <path d="M17.3836 12.6937C17.1 12.3056 16.7001 11.9948 16.2894 11.9525L16.2963 11.885C16.7343 11.9302 17.1493 12.2582 17.4383 12.6537C17.5833 12.8521 17.6979 13.0692 17.7686 13.2796C17.8393 13.4896 17.867 13.6951 17.8356 13.8694L17.7689 13.8574C17.7976 13.6981 17.7728 13.5047 17.7044 13.3012C17.636 13.0981 17.5249 12.8871 17.3836 12.6937Z" fill="#BA0000"/>
    <path d="M18.0144 14.1412L17.8723 14.3009L17.9707 14.4825L17.7826 14.3994L17.6404 14.5612L17.6688 14.3491L17.4807 14.2681L17.6841 14.22L17.7126 14.0078L17.811 14.1894L18.0144 14.1412Z" fill="#BA0000"/>
    <path d="M15.9882 12.3492C16.0623 12.7547 15.8765 13.2252 15.5837 13.606C15.4378 13.7957 15.2666 13.9615 15.0907 14.0841C14.9145 14.2069 14.7356 14.285 14.5742 14.3022L14.5814 14.3697C14.758 14.3508 14.9477 14.2665 15.1295 14.1397C15.3116 14.0128 15.4878 13.842 15.6375 13.6473C15.9358 13.2592 16.1339 12.7694 16.0549 12.337L15.9882 12.3492Z" fill="#BA0000"/>
    <path d="M14.1775 14.5262L14.3722 14.6181L14.2672 14.4365L14.4137 14.2922L14.2037 14.325L14.0987 14.1412L14.0747 14.3447L13.8625 14.3775L14.0572 14.4694L14.0309 14.6728L14.1775 14.5262Z" fill="#BA0000"/>
    <path d="M12.8386 11.3675L12.8605 11.1531L12.6768 11.0656L12.8758 11.0219L12.8977 10.8075L13.0005 10.9956L13.1974 10.9519L13.0618 11.1116L13.1624 11.2997L12.9764 11.21L12.8386 11.3675Z" fill="#BA0000"/>
    <path d="M14.1971 12.1739C14.6535 12.3237 15.1591 12.343 15.5169 12.1387L15.5506 12.1976C15.169 12.4155 14.641 12.391 14.1759 12.2384C13.9426 12.1618 13.7231 12.0524 13.543 11.9228C13.3633 11.7935 13.221 11.6427 13.145 11.4827L13.2062 11.4536C13.2757 11.5998 13.4085 11.7424 13.5826 11.8678C13.7565 11.9928 13.9697 12.0993 14.1971 12.1739Z" fill="#BA0000"/>
    <path d="M0 12C0 7.58172 3.58172 4 8 4C12.4183 4 16 7.58172 16 12C16 16.4183 12.4183 20 8 20C3.58172 20 0 16.4183 0 12Z" fill="#012169"/>
    <path d="M14.5746 7.44057L10.0626 12L14.6232 16.4886C14.0558 17.3242 13.3344 18.0468 12.4998 18.6155L7.93764 14.125L3.49712 18.6133C2.66435 18.0451 1.94442 17.3238 1.3779 16.4898L5.81264 12.0312L1.31421 7.60537C1.87133 6.75948 2.58468 6.02559 3.41317 5.44478L7.93764 9.87499L12.4282 5.33618C13.2693 5.89623 13.9984 6.61129 14.5746 7.44057Z" fill="white"/>
    <path d="M12.905 5.67963C13.1783 5.89208 13.4375 6.12187 13.6809 6.36736L9.99998 10.125L9.87498 8.75L12.905 5.67963Z" fill="#C8102E"/>
    <path d="M1.63452 7.15359C1.85502 6.86442 2.09478 6.59072 2.35188 6.33441L6.03123 9.9375L4.18748 9.6875L1.63452 7.15359Z" fill="#C8102E"/>
    <path d="M13.6336 17.68C13.8715 17.4441 14.0946 17.1933 14.3015 16.9292L11.3125 14L9.62498 13.75L13.6336 17.68Z" fill="#C8102E"/>
    <path d="M3.03108 18.2702L6.09373 15.1875L5.74998 14.125L2.29028 17.6035C2.52304 17.8407 2.77047 18.0634 3.03108 18.2702Z" fill="#C8102E"/>
    <path d="M15.6016 14.5C15.8601 13.7135 16 12.8731 16 12C16 11.1269 15.8601 10.2865 15.6016 9.5H10.5V4.39838C9.71345 4.13985 8.87306 4 8 4C7.12694 4 6.28655 4.13985 5.5 4.39838V9.5H0.398379C0.139853 10.2865 0 11.1269 0 12C0 12.8731 0.139853 13.7135 0.398379 14.5H5.5V19.6016C6.28655 19.8601 7.12694 20 8 20C8.87306 20 9.71345 19.8601 10.5 19.6016V14.5H15.6016Z" fill="white"/>
    <path d="M15.8596 13.5C15.9518 13.0141 16 12.5127 16 12C16 11.4873 15.9518 10.9859 15.8596 10.5H9.5V4.1404C9.01412 4.04823 8.51269 4 8 4C7.48731 4 6.98588 4.04823 6.5 4.1404V10.5H0.140396C0.0482284 10.9859 0 11.4873 0 12C0 12.5127 0.0482284 13.0141 0.140396 13.5H6.5V19.8596C6.98588 19.9518 7.48731 20 8 20C8.51269 20 9.01412 19.9518 9.5 19.8596V13.5H15.8596Z" fill="#C8102E"/>
</svg>
