<svg width="24" height="24" viewBox="0 0 24 24" fill="none" xmlns="http://www.w3.org/2000/svg">
    <path d="M16 20C20.4183 20 24 16.4183 24 12C24 7.58172 20.4183 4 16 4C11.5817 4 8 7.58172 8 12C8 16.4183 11.5817 20 16 20Z" fill="#00247D"/>
    <path d="M20.4179 9.64445L20.6036 10.2165H21.1062L21.2654 10.1903L21.2292 10.2165H21.2467L21.1903 10.2447L20.6995 10.6003L20.853 11.0725L20.9303 11.2215L20.8925 11.194L20.8983 11.2119L20.8509 11.1638L20.3873 10.8268L19.9257 11.162L19.8765 11.2119L19.8826 11.1933L19.8437 11.2215L19.923 11.069L20.0753 10.6005L19.5832 10.244L19.5282 10.2165H19.5453L19.509 10.1903L19.6682 10.2165H20.2001L20.3618 9.71898L20.3872 9.54999L20.402 9.59543L20.4078 9.57745L20.4179 9.64445Z" fill="white"/>
    <path d="M20.4095 9.93466L20.5301 10.3041H20.8576L20.9666 10.2859L20.9416 10.3041H20.9553L20.9119 10.3258L20.5935 10.5577L20.6951 10.8708L20.7453 10.9672L20.7206 10.9493L20.7247 10.9619L20.6918 10.9284L20.3872 10.7078L20.0806 10.931L20.0502 10.9619L20.0539 10.9504L20.0287 10.9688L20.0799 10.8703L20.1814 10.5577L19.8635 10.3261L19.8194 10.3041H19.8333L19.8083 10.2859L19.9173 10.3041H20.2637L20.3689 9.98178L20.3865 9.86407L20.3969 9.896L20.4016 9.88161L20.4095 9.93466Z" fill="#CC142B"/>
    <path d="M22.6649 11.6887L22.8313 12.2003H23.272L23.4206 12.1756L23.3865 12.2003H23.403L23.3501 12.2268L22.9165 12.5416L23.0537 12.9628L23.1217 13.0938L23.0885 13.0697L23.0938 13.0859L23.0507 13.0423L22.6387 12.7433L22.2276 13.042L22.1842 13.0859L22.1896 13.0696L22.1563 13.0938L22.2244 12.9623L22.361 12.5419L21.9248 12.2253L21.875 12.2003H21.8905L21.8564 12.1756L22.005 12.2003H22.4718L22.6161 11.7572L22.6386 11.6078L22.6517 11.648L22.6565 11.6332L22.6649 11.6887Z" fill="white"/>
    <path d="M22.6557 11.9748L22.7574 12.2878H23.0302L23.1221 12.2725L23.1011 12.2878H23.1118L23.0775 12.3049L22.8105 12.4989L22.8948 12.7591L22.9368 12.84L22.9161 12.825L22.9198 12.8362L22.8903 12.8063L22.6382 12.6235L22.388 12.8049L22.3574 12.8359L22.3612 12.8243L22.3395 12.84L22.3835 12.7554L22.4667 12.4988L22.2044 12.3076L22.1654 12.2881H22.1776L22.1562 12.2725L22.2496 12.2881H22.5354L22.6243 12.0145L22.6383 11.9213L22.6464 11.9463L22.6498 11.9359L22.6557 11.9748Z" fill="#CC142B"/>
    <path d="M17.7948 12.2819L17.982 12.8578H18.4818L18.6429 12.8312L18.6063 12.8578H18.625L18.5648 12.8879L18.0767 13.2419L18.2295 13.7119L18.3077 13.8625L18.2694 13.8347L18.2754 13.8531L18.2267 13.8037L17.7649 13.4683L17.3027 13.8039L17.2543 13.8531L17.2603 13.8348L17.2221 13.8625L17.3 13.7124L17.4528 13.2418L16.9605 12.8849L16.9063 12.8578H16.9231L16.8865 12.8312L17.0477 12.8578H17.5775L17.7412 12.3542L17.7656 12.1922L17.7797 12.2357L17.7852 12.2187L17.7948 12.2819Z" fill="white"/>
    <path d="M17.7868 12.5762L17.9072 12.945H18.237L18.3438 12.9272L18.3193 12.945H18.3325L18.2904 12.966L17.9707 13.1987L18.0717 13.5099L18.1228 13.6081L18.0977 13.5899L18.1019 13.6028L18.0679 13.5684L17.7644 13.3484L17.4605 13.5686L17.4271 13.6025L17.4312 13.5898L17.4059 13.6081L17.4574 13.5091L17.5583 13.1984L17.2399 12.9665L17.1969 12.945H17.2104L17.1855 12.9269L17.2943 12.945H17.6409L17.7462 12.6223L17.7637 12.5053L17.774 12.5371L17.7788 12.5225L17.7868 12.5762Z" fill="#CC142B"/>
    <path d="M20.421 16.3669L20.6275 17.0019H21.1732L21.3614 16.9706L21.3184 17.0019H21.341L21.2688 17.038L20.7338 17.4272L20.9045 17.9494L20.9918 18.1175L20.9494 18.0867L20.956 18.1069L20.9025 18.0527L20.3878 17.6791L19.8748 18.0514L19.8202 18.1069L19.827 18.0862L19.7838 18.1175L19.8719 17.9478L20.041 17.4272L19.5063 17.0383L19.4335 17.0019H19.4563L19.4133 16.9706L19.6015 17.0019H20.1791L20.3594 16.4477L20.3872 16.2628L20.4033 16.3125L20.4098 16.2925L20.421 16.3669Z" fill="white"/>
    <path fill-rule="evenodd" clip-rule="evenodd" d="M19.9988 17.841L19.9937 17.8565L20.0347 17.8149L20.3872 17.5597L20.7419 17.8166L20.7813 17.8565L20.7764 17.8416L20.8057 17.8628L20.7459 17.7478L20.6279 17.3851L21.0021 17.1132L21.0498 17.0894H21.0349L21.0642 17.0681L20.936 17.0894H20.554L20.4112 16.65L20.4032 16.5965L20.3985 16.6109L20.3873 16.5762L20.3678 16.7055L20.2431 17.0894H19.8384L19.7102 17.0681L19.7395 17.0894H19.7249L19.7719 17.1129L20.1468 17.3853L20.0301 17.7447L19.9687 17.8628L19.9988 17.841Z" fill="#CC142B"/>
    <path d="M10.0072 6.70016L11.3241 7.69954L8.24225 10.0383C8.12916 10.4869 8.05396 10.9506 8.02026 11.4258L8.56671 12.1459L12.875 8.87642L17.1832 12.1459L18.3167 10.6523L14.4258 7.69954L18.3167 4.74681L17.9273 4.23373C17.3709 4.0961 16.7915 4.0167 16.196 4.00238L12.875 6.52265L11.4347 5.42966C10.9095 5.79526 10.4302 6.22222 10.0072 6.70016Z" fill="white"/>
    <path d="M10.2199 6.46908L11.8413 7.69953L8.13856 10.5095C8.08207 10.8092 8.0423 11.1149 8.02026 11.4255L8.378 11.8969L12.8752 8.48413L17.3724 11.8969L18.128 10.9012L13.9091 7.69953L18.128 4.49787L17.9276 4.23374C17.5226 4.13357 17.1055 4.06423 16.6789 4.02838L12.8752 6.91494L11.1707 5.62146C10.8316 5.8786 10.5136 6.16216 10.2199 6.46908Z" fill="#CC142B"/>
    <path d="M13.8253 4.29913C13.1529 4.48864 12.5165 4.76384 11.9284 5.1122V6.74998H9.96361C9.46953 7.31759 9.05419 7.95555 8.73462 8.64685H11.9284V11.3969H13.8222V8.64685H17.7534V6.7531H13.8253V4.29913Z" fill="white"/>
    <path d="M12.3063 4.90195C12.6699 4.71231 13.05 4.54981 13.4438 4.41711V7.13126H17.7563V8.26876H13.4469V11.4H12.3125V8.26876H8.92163C9.13318 7.86827 9.37773 7.4879 9.65165 7.13126H12.3063V4.90195Z" fill="#CC142B"/>
    <path d="M0 12C0 7.58172 3.58172 4 8 4C12.4183 4 16 7.58172 16 12C16 16.4183 12.4183 20 8 20C3.58172 20 0 16.4183 0 12Z" fill="#012169"/>
    <path d="M14.5746 7.44057L10.0626 12L14.6232 16.4886C14.0558 17.3242 13.3344 18.0468 12.4998 18.6155L7.93764 14.125L3.49712 18.6133C2.66435 18.0451 1.94442 17.3238 1.3779 16.4898L5.81264 12.0312L1.31421 7.60537C1.87133 6.75948 2.58468 6.02559 3.41317 5.44478L7.93764 9.87499L12.4282 5.33618C13.2693 5.89623 13.9984 6.61129 14.5746 7.44057Z" fill="white"/>
    <path d="M12.905 5.67963C13.1783 5.89208 13.4375 6.12187 13.6809 6.36736L9.99998 10.125L9.87498 8.75L12.905 5.67963Z" fill="#C8102E"/>
    <path d="M1.63452 7.15359C1.85502 6.86442 2.09478 6.59072 2.35188 6.33441L6.03123 9.9375L4.18748 9.6875L1.63452 7.15359Z" fill="#C8102E"/>
    <path d="M13.6336 17.68C13.8715 17.4441 14.0946 17.1933 14.3015 16.9292L11.3125 14L9.62498 13.75L13.6336 17.68Z" fill="#C8102E"/>
    <path d="M3.03108 18.2702L6.09373 15.1875L5.74998 14.125L2.29028 17.6035C2.52304 17.8407 2.77047 18.0634 3.03108 18.2702Z" fill="#C8102E"/>
    <path d="M15.6016 14.5C15.8601 13.7135 16 12.8731 16 12C16 11.1269 15.8601 10.2865 15.6016 9.5H10.5V4.39838C9.71345 4.13985 8.87306 4 8 4C7.12694 4 6.28655 4.13985 5.5 4.39838V9.5H0.398379C0.139853 10.2865 0 11.1269 0 12C0 12.8731 0.139853 13.7135 0.398379 14.5H5.5V19.6016C6.28655 19.8601 7.12694 20 8 20C8.87306 20 9.71345 19.8601 10.5 19.6016V14.5H15.6016Z" fill="white"/>
    <path d="M15.8596 13.5C15.9518 13.0141 16 12.5127 16 12C16 11.4873 15.9518 10.9859 15.8596 10.5H9.5V4.1404C9.01412 4.04823 8.51269 4 8 4C7.48731 4 6.98588 4.04823 6.5 4.1404V10.5H0.140396C0.0482284 10.9859 0 11.4873 0 12C0 12.5127 0.0482284 13.0141 0.140396 13.5H6.5V19.8596C6.98588 19.9518 7.48731 20 8 20C8.51269 20 9.01412 19.9518 9.5 19.8596V13.5H15.8596Z" fill="#C8102E"/>
</svg>
