<svg width="24" height="24" viewBox="0 0 24 24" fill="none" xmlns="http://www.w3.org/2000/svg">
    <path d="M21.8563 6.54975V17.4503C20.3957 19.0189 18.3125 20 16.0001 20C13.8866 20 11.9646 19.1805 10.5344 17.8418V6.15817C11.9646 4.81954 13.8866 4 16.0001 4C18.3125 4 20.3957 4.9811 21.8563 6.54975Z" fill="white"/>
    <path d="M21.8563 6.54979C23.1863 7.97834 24 9.89415 24 12C24 14.1059 23.1863 16.0217 21.8563 17.4502V6.54979Z" fill="#D52B1E"/>
    <path d="M10.5344 6.15814V17.8419C8.97469 16.382 8 14.3048 8 12C8 9.69517 8.97469 7.61798 10.5344 6.15814Z" fill="#D52B1E"/>
    <path d="M11.7906 11.8813L12.2281 11.7313V11.7344C12.43 11.5325 12.2442 11.0256 12.0788 10.5746C12.0215 10.4182 11.9666 10.2685 11.9313 10.1406C12.0579 10.1681 12.2043 10.2092 12.3511 10.2504C12.6714 10.3402 12.9935 10.4305 13.1156 10.3813C13.235 10.3268 13.3164 10.1489 13.3976 9.97168C13.4376 9.88436 13.4775 9.7972 13.5219 9.72501L14.5625 10.9063C14.6625 10.9594 14.75 10.9281 14.7844 10.8344L14.3313 8.35938L15.0875 8.78438C15.1375 8.82188 15.1969 8.81563 15.2563 8.75938L16.0438 7.16876L16.8094 8.70001C16.8531 8.77501 16.9187 8.80313 16.9844 8.77501L17.7781 8.32813L17.2781 10.8188C17.3063 10.9188 17.3563 10.9688 17.475 10.9375L18.5562 9.75001L18.8656 10.3281C18.9438 10.5438 20.1344 10.1344 20.1344 10.1344C20.1135 10.3156 20.0531 10.532 19.9927 10.7483C19.8719 11.1809 19.751 11.6135 19.9469 11.7656L20.3031 11.8938L18.2594 13.5969C18.1488 14.0059 18.2314 14.1729 18.347 14.4071C18.3621 14.4377 18.3778 14.4695 18.3937 14.5031L16.1688 14.2406L16.2719 16.4563L15.8094 16.4719L15.8656 14.2375L13.6469 14.5188C13.674 14.4695 13.7043 14.4246 13.734 14.3807C13.851 14.2072 13.959 14.0471 13.8344 13.6781L11.7906 11.8813Z" fill="#D52B1E"/>
    <path d="M0 12C0 7.58172 3.58172 4 8 4C12.4183 4 16 7.58172 16 12C16 16.4183 12.4183 20 8 20C3.58172 20 0 16.4183 0 12Z" fill="#012169"/>
    <path d="M14.5746 7.44057L10.0626 12L14.6232 16.4886C14.0558 17.3242 13.3344 18.0468 12.4998 18.6155L7.93764 14.125L3.49712 18.6133C2.66435 18.0451 1.94442 17.3238 1.3779 16.4898L5.81264 12.0312L1.31421 7.60537C1.87133 6.75948 2.58468 6.02559 3.41317 5.44478L7.93764 9.87499L12.4282 5.33618C13.2693 5.89623 13.9984 6.61129 14.5746 7.44057Z" fill="white"/>
    <path d="M12.905 5.67963C13.1783 5.89208 13.4375 6.12187 13.6809 6.36736L9.99998 10.125L9.87498 8.75L12.905 5.67963Z" fill="#C8102E"/>
    <path d="M1.63452 7.15359C1.85502 6.86442 2.09478 6.59072 2.35188 6.33441L6.03123 9.9375L4.18748 9.6875L1.63452 7.15359Z" fill="#C8102E"/>
    <path d="M13.6336 17.68C13.8715 17.4441 14.0946 17.1933 14.3015 16.9292L11.3125 14L9.62498 13.75L13.6336 17.68Z" fill="#C8102E"/>
    <path d="M3.03108 18.2702L6.09373 15.1875L5.74998 14.125L2.29028 17.6035C2.52304 17.8407 2.77047 18.0634 3.03108 18.2702Z" fill="#C8102E"/>
    <path d="M15.6016 14.5C15.8601 13.7135 16 12.8731 16 12C16 11.1269 15.8601 10.2865 15.6016 9.5H10.5V4.39838C9.71345 4.13985 8.87306 4 8 4C7.12694 4 6.28655 4.13985 5.5 4.39838V9.5H0.398379C0.139853 10.2865 0 11.1269 0 12C0 12.8731 0.139853 13.7135 0.398379 14.5H5.5V19.6016C6.28655 19.8601 7.12694 20 8 20C8.87306 20 9.71345 19.8601 10.5 19.6016V14.5H15.6016Z" fill="white"/>
    <path d="M15.8596 13.5C15.9518 13.0141 16 12.5127 16 12C16 11.4873 15.9518 10.9859 15.8596 10.5H9.5V4.1404C9.01412 4.04823 8.51269 4 8 4C7.48731 4 6.98588 4.04823 6.5 4.1404V10.5H0.140396C0.0482284 10.9859 0 11.4873 0 12C0 12.5127 0.0482284 13.0141 0.140396 13.5H6.5V19.8596C6.98588 19.9518 7.48731 20 8 20C8.51269 20 9.01412 19.9518 9.5 19.8596V13.5H15.8596Z" fill="#C8102E"/>
</svg>
