<svg width="24" height="24" viewBox="0 0 24 24" fill="none" xmlns="http://www.w3.org/2000/svg">
    <path d="M0 12C0 5.37258 5.37258 0 12 0C18.6274 0 24 5.37258 24 12C24 18.6274 18.6274 24 12 24C5.37258 24 0 18.6274 0 12Z" fill="#012169"/>
    <path d="M21.8617 5.16085L15.0938 12L21.9347 18.7329C21.0836 19.9863 20.0015 21.0701 18.7496 21.9233L11.9063 15.1875L5.24556 21.9199C3.9964 21.0677 2.91651 19.9857 2.06672 18.7347L8.71883 12.0469L1.97119 5.40805C2.80688 4.13921 3.87689 3.03839 5.11963 2.16718L11.9063 8.81248L18.6421 2.00427C19.9038 2.84434 20.9974 3.91694 21.8617 5.16085Z" fill="white"/>
    <path d="M19.3576 2.51941C19.7676 2.83808 20.1564 3.18278 20.5215 3.551L15.0001 9.18747L14.8126 7.12497L19.3576 2.51941Z" fill="#C8102E"/>
    <path d="M2.4519 4.73036C2.78266 4.2966 3.14229 3.88605 3.52795 3.50158L9.04697 8.90622L6.28135 8.53122L2.4519 4.73036Z" fill="#C8102E"/>
    <path d="M20.4505 20.52C20.8073 20.1661 21.142 19.7899 21.4523 19.3938L16.9688 15L14.4376 14.625L20.4505 20.52Z" fill="#C8102E"/>
    <path d="M4.54674 21.4052L9.14072 16.7812L8.6251 15.1875L3.43554 20.4052C3.78469 20.761 4.15582 21.095 4.54674 21.4052Z" fill="#C8102E"/>
    <path d="M23.4024 15.75C23.7902 14.5702 24 13.3096 24 12C24 10.6904 23.7902 9.42982 23.4024 8.25H15.75V0.597568C14.5702 0.20978 13.3096 0 12 0C10.6904 0 9.42982 0.20978 8.25 0.597568V8.25H0.597568C0.20978 9.42982 0 10.6904 0 12C0 13.3096 0.20978 14.5702 0.597568 15.75H8.25V23.4024C9.42982 23.7902 10.6904 24 12 24C13.3096 24 14.5702 23.7902 15.75 23.4024V15.75H23.4024Z" fill="white"/>
    <path d="M23.7894 14.25C23.9277 13.5212 24 12.769 24 12C24 11.231 23.9277 10.4788 23.7894 9.75H14.25V0.210594C13.5212 0.0723425 12.769 0 12 0C11.231 0 10.4788 0.0723425 9.75 0.210594V9.75H0.210594C0.0723425 10.4788 0 11.231 0 12C0 12.769 0.0723425 13.5212 0.210594 14.25H9.75V23.7894C10.4788 23.9277 11.231 24 12 24C12.769 24 13.5212 23.9277 14.25 23.7894V14.25H23.7894Z" fill="#C8102E"/>
</svg>
