<svg width="60" height="60" fill="none" xmlns="http://www.w3.org/2000/svg"><path d="M30 60c16.569 0 30-13.431 30-30C60 13.431 46.569 0 30 0 13.431 0 0 13.431 0 30c0 16.569 13.431 30 30 30z" fill="#F4AF3E"/><path d="M12.898 30.104a.2.2 0 01.175-.104h8.854a.2.2 0 01.175.104l5.237 9.6a.2.2 0 01-.176.296H7.837a.2.2 0 01-.176-.296l5.237-9.6zM37.898 30.104a.2.2 0 01.175-.104h8.854a.2.2 0 01.175.104l5.237 9.6a.2.2 0 01-.176.296H32.837a.2.2 0 01-.176-.296l5.237-9.6zM25.398 15.104a.2.2 0 01.175-.104h8.854a.2.2 0 01.175.104l5.237 9.6a.2.2 0 01-.176.296H20.337a.2.2 0 01-.176-.296l5.237-9.6z" fill="#fff"/></svg>