<svg width="24" height="24" viewBox="0 0 24 24" fill="none" xmlns="http://www.w3.org/2000/svg">
    <path d="M12 0C5.37258 0 0 5.37258 0 12C0 18.6274 5.37258 24 12 24C18.6274 24 24 18.6274 24 12C24 5.37258 18.6274 0 12 0Z"
          fill="#BA0000"/>
    <path d="M11.6288 11.8158L11.6259 11.8145C11.5776 11.7388 11.531 11.6734 11.4873 11.612C11.3001 11.3494 11.1647 11.1594 11.1727 10.5394C11.2048 10.207 11.3591 9.89831 11.6058 9.67315C11.7724 9.52101 11.961 9.42685 12.1496 9.33273C12.3026 9.25635 12.4556 9.17999 12.5967 9.07268C12.8441 8.88975 13.0387 8.6447 13.1608 8.36236C13.283 8.08001 13.3284 7.7704 13.2923 7.46487C13.264 7.06611 13.1426 6.67953 12.938 6.33612C12.7805 6.04737 12.6952 5.75862 12.8133 5.45675C12.8723 5.2894 12.9905 5.15487 13.1348 5.02362C12.6014 5.05769 12.0732 5.15011 11.5598 5.29925C10.4639 5.78815 9.86016 6.68721 9.51891 8.00956C9.17481 10.7012 11.5318 11.7729 11.6259 11.8145L11.6288 11.8191V11.8158Z"
          fill="white"/>
    <path d="M11.8387 11.6353L11.8392 11.6309C11.8983 11.5622 11.9476 11.4983 11.9939 11.4383C12.1891 11.1852 12.3305 11.0018 12.9248 10.8248C13.252 10.7581 13.5924 10.8154 13.8797 10.9856C14.0734 11.1004 14.2171 11.2515 14.3606 11.4024C14.4797 11.5275 14.5986 11.6526 14.7459 11.7567C14.9933 11.9389 15.2842 12.0526 15.5895 12.0866C15.8948 12.1206 16.2036 12.0736 16.485 11.9503C16.905 11.783 17.2003 11.5697 17.4628 11.2809C17.6925 11.048 17.9419 10.8806 18.2634 10.9036C18.4439 10.9134 18.6047 10.9856 18.772 11.084C18.584 10.5845 18.3419 10.107 18.0501 9.65999C17.2594 8.75764 16.2225 8.44264 14.8575 8.50499C12.1953 8.9599 11.8539 11.5105 11.8392 11.6309L11.8354 11.6353H11.8387Z"
          fill="white"/>
    <path d="M15.95 13.6992C14.6408 11.258 12.0223 11.8289 12.0223 11.8289H12.019C12.1059 11.8643 12.1848 11.8914 12.2587 11.9168C12.5614 12.0207 12.7812 12.0962 13.1347 12.6C13.3024 12.8895 13.3562 13.2311 13.2856 13.5581C13.2389 13.7772 13.1411 13.9619 13.0433 14.1466C12.9624 14.2994 12.8815 14.4522 12.8295 14.6245C12.7352 14.9174 12.7198 15.23 12.7849 15.5307C12.85 15.8315 12.9933 16.1097 13.2003 16.3374C13.4537 16.6456 13.7764 16.8895 14.142 17.0494C14.4373 17.1938 14.6769 17.3775 14.7556 17.6892C14.8015 17.8599 14.7851 18.037 14.7458 18.2274C15.1559 17.8795 15.5398 17.5186 15.8679 17.092C16.475 16.0552 16.4422 14.9724 15.95 13.6992Z"
          fill="white"/>
    <path d="M11.9634 12.098C11.9634 12.098 13.2431 14.4506 11.2711 16.3964C10.185 17.2233 9.15467 17.558 7.98982 17.2659C7.48779 17.0756 7.03498 16.8066 6.58545 16.5112C6.77576 16.4948 6.95295 16.462 7.10389 16.3669C7.37951 16.2028 7.49107 15.9239 7.54685 15.5991C7.59664 15.2028 7.73943 14.8239 7.96357 14.4933C8.12431 14.2307 8.35162 14.0153 8.62246 13.8689C8.89331 13.7226 9.19804 13.6504 9.50576 13.6598C9.68404 13.6613 9.85291 13.6958 10.0221 13.7303C10.2266 13.772 10.4316 13.8138 10.6542 13.7976C10.9886 13.7742 11.3022 13.6268 11.5336 13.3842C11.9207 12.899 11.9307 12.6666 11.9445 12.3459C11.9478 12.2698 11.9513 12.1886 11.9601 12.098H11.9634Z"
          fill="white"/>
    <path d="M7.38929 12.8198C9.87648 14.0372 11.6713 12.0454 11.6713 12.0454C11.5843 12.067 11.5077 12.0902 11.4357 12.112C11.125 12.2061 10.9023 12.2736 10.3162 12.0684C10.0109 11.9316 9.76758 11.6859 9.63366 11.3793C9.54456 11.1744 9.51643 10.9695 9.4883 10.7645C9.46464 10.5921 9.44097 10.4197 9.38101 10.2473C9.28682 9.95456 9.11711 9.69181 8.88898 9.48557C8.66085 9.27933 8.38237 9.1369 8.08163 9.07263C7.69545 8.97089 7.29069 8.96189 6.90038 9.04638C6.57882 9.10216 6.27694 9.08903 6.03085 8.88232C5.88976 8.77075 5.80444 8.61653 5.72241 8.44263C5.59444 8.96435 5.48944 9.48278 5.47632 10.0176C5.58788 11.212 6.24741 12.0717 7.38929 12.8198Z"
          fill="white"/>
    <path d="M11.4679 7.24832L11.1529 7.31722L11.4449 7.43863L11.4056 7.74379L11.6221 7.51082L11.9174 7.62894L11.7599 7.36644L11.9765 7.13347L11.6615 7.20238L11.504 6.93988L11.4679 7.24832Z"
          fill="#BA0000"/>
    <path d="M11.3507 11.4922C10.887 11.0825 10.6697 10.3556 10.662 9.63529C10.6581 9.27635 10.7065 8.9222 10.8004 8.61469C10.8945 8.30661 11.0334 8.0487 11.2081 7.87867L11.1372 7.80577C10.946 7.99176 10.8002 8.26706 10.7031 8.58497C10.6058 8.90347 10.5563 9.26812 10.5603 9.63638C10.5681 10.3705 10.7889 11.1316 11.2833 11.5685L11.3507 11.4922Z"
          fill="#BA0000"/>
    <path d="M12.0653 11.2757C12.3209 10.712 12.9531 10.2921 13.6401 10.0739C13.9825 9.9652 14.3355 9.90762 14.657 9.90696C14.9792 9.90631 15.2663 9.96278 15.4794 10.0787L15.528 9.98938C15.2948 9.86252 14.9892 9.80457 14.6568 9.80524C14.3239 9.80592 13.9606 9.86544 13.6093 9.97697C12.9093 10.1993 12.2453 10.6325 11.9727 11.2337L12.0653 11.2757Z"
          fill="#BA0000"/>
    <path d="M16.1567 10.1457L15.9992 9.86348L15.9696 10.1785L15.6645 10.231L15.9532 10.3721L15.9237 10.6871L16.1304 10.4574L16.4192 10.5985L16.2584 10.3196L16.4618 10.0899L16.1567 10.1457Z"
          fill="#BA0000"/>
    <path d="M14.0754 13.0406C13.65 12.4583 13.0502 11.9922 12.4341 11.9287L12.4445 11.8275C13.1015 11.8952 13.724 12.3873 14.1575 12.9805C14.375 13.2782 14.5468 13.6038 14.653 13.9194C14.7589 14.2344 14.8006 14.5427 14.7534 14.8042L14.6533 14.7861C14.6964 14.5472 14.6593 14.2571 14.5566 13.9518C14.4541 13.6471 14.2873 13.3307 14.0754 13.0406Z"
          fill="#BA0000"/>
    <path d="M15.0217 15.2119L14.8084 15.4514L14.956 15.7237L14.6738 15.5991L14.4606 15.8419L14.5032 15.5236L14.221 15.4022L14.5262 15.33L14.5688 15.0117L14.7165 15.2841L15.0217 15.2119Z"
          fill="#BA0000"/>
    <path d="M11.9823 12.5238C12.0935 13.132 11.8147 13.8377 11.3755 14.409C11.1567 14.6936 10.8998 14.9423 10.636 15.1262C10.3717 15.3104 10.1034 15.4275 9.8613 15.4533L9.8721 15.5545C10.137 15.5262 10.4215 15.3997 10.6942 15.2096C10.9674 15.0192 11.2317 14.763 11.4562 14.471C11.9037 13.8889 12.2009 13.1541 12.0824 12.5056L11.9823 12.5238Z"
          fill="#BA0000"/>
    <path d="M9.2662 15.7893L9.55823 15.9272L9.40073 15.6548L9.62058 15.4382L9.30558 15.4875L9.14808 15.2118L9.11198 15.517L8.7937 15.5662L9.08573 15.704L9.04636 16.0092L9.2662 15.7893Z"
          fill="#BA0000"/>
    <path d="M7.25795 11.0512L7.29076 10.7297L7.01514 10.5984L7.31373 10.5328L7.34654 10.2112L7.50076 10.4934L7.79607 10.4278L7.59264 10.6673L7.74357 10.9495L7.46467 10.815L7.25795 11.0512Z"
          fill="#BA0000"/>
    <path d="M9.29563 12.2609C9.98025 12.4856 10.7387 12.5145 11.2754 12.208L11.3258 12.2964C10.7535 12.6232 9.96153 12.5865 9.26392 12.3575C8.91394 12.2427 8.58464 12.0785 8.31456 11.8842C8.04498 11.6902 7.83152 11.4641 7.71749 11.224L7.80937 11.1804C7.91354 11.3997 8.1127 11.6137 8.37396 11.8016C8.63473 11.9893 8.9545 12.1489 9.29563 12.2609Z"
          fill="#BA0000"/>
</svg>
