<svg width="40" height="40" fill="none" xmlns="http://www.w3.org/2000/svg"><g mask="url(#prefix__clip0)"><path d="M20.006 40.013c11.05 0 20.007-8.957 20.007-20.006C40.013 8.956 31.056 0 20.007 0 8.956 0 0 8.957 0 20.006c0 11.05 8.957 20.007 20.006 20.007z" fill="#0996C7"/><mask id="prefix__a" maskUnits="userSpaceOnUse" x="19" y="9" width="14" height="17"><path fill-rule="evenodd" clip-rule="evenodd" d="M19.697 9.687h12.722v15.537H19.697V9.687z" fill="#fff"/></mask><g mask="url(#prefix__a)"><path d="M26.297 9.687l-5.373 14.775a1.04 1.04 0 01-.866.672v.013h5.683c.44 0 .827-.284.969-.685l5.373-14.775h-5.786z" fill="#fff"/></g><path d="M19.593 24.914a.99.99 0 00.8-.413c.014-.026.078-.116.13-.245L22.5 18.83l-1.15-3.164a.968.968 0 00-1.278-.517.874.874 0 00-.413.336c-.013.026-.09.142-.13.245l-1.976 5.425 1.163 3.177c.13.362.49.581.878.581z" fill="#fff"/><mask id="prefix__b" maskUnits="userSpaceOnUse" x="7" y="14" width="14" height="17"><path fill-rule="evenodd" clip-rule="evenodd" d="M7.452 14.388h12.722V30.3H7.452V14.388z" fill="#fff"/></mask><g mask="url(#prefix__b)"><path d="M20.006 14.853H14.26c-.44 0-.827.284-.969.685L7.917 30.313h5.787l5.372-14.775c.155-.4.517-.66.93-.685z" fill="#fff"/></g></g><defs><mask id="prefix__clip0"><path fill="#fff" d="M0 0h40v40H0z"/></mask></defs></svg>