<svg width="60" height="60" viewBox="0 0 60 60" fill="none" xmlns="http://www.w3.org/2000/svg">
<path d="M60 30C60 46.5685 46.5685 60 30 60C13.4315 60 0 46.5685 0 30C0 13.4315 13.4315 0 30 0C46.5685 0 60 13.4315 60 30Z" fill="#2A5ADA"/>
<path fill-rule="evenodd" clip-rule="evenodd" d="M38.6638 14.9954L30.0009 9.9469L21.3378 14.9954L12.6343 19.9735V40.0267L21.3378 45.0048L30.0009 50.0533L38.6638 45.0048L47.3674 40.0267L47.3268 30.0001L47.3674 19.9735L38.6638 14.9954ZM34.9836 21.3695L30.0007 18.4656L25.0179 21.3695L20.0116 24.2328L20.035 30L20.0116 35.7672L25.0179 38.6306L30.0007 41.5344L34.9836 38.6306L39.9898 35.7672L39.9665 30L39.9898 24.2328L34.9836 21.3695Z" fill="white"/>
</svg>
