<svg width="24" height="24" viewBox="0 0 24 24" fill="none" xmlns="http://www.w3.org/2000/svg">
    <path d="M9.2576 7.69234C9.54045 7.25055 9.86553 6.83839 10.2271 6.46156H21.7729C22.1345 6.83839 22.4596 7.25055 22.7424 7.69234H9.2576Z" fill="#BD3D44"/>
    <path d="M8.21406 10.1539C8.31428 9.72959 8.4483 9.31833 8.6131 8.92313H23.3869C23.5517 9.31833 23.6857 9.72959 23.7859 10.1539H8.21406Z" fill="#BD3D44"/>
    <path d="M8.02332 12.6155C8.00787 12.4123 8 12.2071 8 12C8 11.793 8.00786 11.5878 8.02331 11.3847H23.9767C23.9921 11.5878 24 11.793 24 12C24 12.2071 23.9921 12.4123 23.9767 12.6155H8.02332Z" fill="#BD3D44"/>
    <path d="M8.61317 15.077C8.44835 14.6818 8.31433 14.2706 8.21409 13.8463H23.7859C23.6857 14.2706 23.5516 14.6818 23.3868 15.077H8.61317Z" fill="#BD3D44"/>
    <path d="M10.2273 17.5386C9.86566 17.1618 9.54056 16.7496 9.2577 16.3078H22.7423C22.4594 16.7496 22.1343 17.1618 21.7727 17.5386H10.2273Z" fill="#BD3D44"/>
    <path d="M20.2652 18.7694C19.0307 19.5489 17.568 20 16 20C14.432 20 12.9693 19.5489 11.7348 18.7694H20.2652Z" fill="#BD3D44"/>
    <path d="M20.2655 5.23078H11.7345C12.9692 4.45117 14.4319 4 16 4C17.5681 4 19.0308 4.45117 20.2655 5.23078Z" fill="#BD3D44"/>
    <path d="M23.7858 10.1539C23.8802 10.5534 23.9446 10.9645 23.9766 11.3847H8.02319C8.05515 10.9645 8.11957 10.5534 8.21394 10.1539H23.7858Z" fill="white"/>
    <path d="M22.7423 7.69234C22.9911 8.08096 23.2072 8.49251 23.3868 8.92312H8.61298C8.79255 8.49251 9.00867 8.08096 9.25747 7.69234H22.7423Z" fill="white"/>
    <path d="M20.2654 5.23077C20.817 5.57911 21.3231 5.99302 21.7728 6.46156H10.227C10.6766 5.99302 11.1827 5.57911 11.7344 5.23077H20.2654Z" fill="white"/>
    <path d="M23.7858 13.8462C23.8802 13.4467 23.9446 13.0356 23.9766 12.6155H8.02321C8.05517 13.0356 8.1196 13.4467 8.21398 13.8462H23.7858Z" fill="white"/>
    <path d="M23.3867 15.077H8.61306C8.79264 15.5076 9.00877 15.9192 9.25759 16.3078H22.7422C22.991 15.9192 23.2071 15.5076 23.3867 15.077Z" fill="white"/>
    <path d="M21.7726 17.5386H10.2272C10.6768 18.0071 11.183 18.421 11.7347 18.7694H20.2651C20.8168 18.421 21.3229 18.0071 21.7726 17.5386Z" fill="white"/>
    <path d="M16.8268 4.04221V12.6155H8.02332C8.00787 12.4123 8 12.2071 8 12C8 7.58172 11.5817 4 16 4C16.2792 4 16.555 4.0143 16.8268 4.04221Z" fill="#192F5D"/>
    <path d="M11.8853 5.1378C11.9205 5.11669 11.9558 5.09584 11.9913 5.07525L12.0513 5.25536L11.8853 5.1378Z" fill="white"/>
    <path d="M10.7839 5.93405C10.8318 5.89281 10.8802 5.85213 10.9291 5.81202L11.0421 6.11691L10.7839 5.93405Z" fill="white"/>
    <path d="M9.86797 6.86168C9.89596 6.82831 9.92423 6.79517 9.95275 6.76226L10.0328 6.97846L9.86797 6.86168Z" fill="white"/>
    <path d="M8.70792 8.70482C8.71125 8.69745 8.7146 8.69009 8.71796 8.68273L8.83897 9.02155H9.18358L8.9005 9.23078L9.01127 9.56309L8.71589 9.35386L8.43281 9.56309L8.54358 9.23078L8.50288 9.20195C8.52546 9.14147 8.54875 9.08133 8.57275 9.02155H8.61742L8.70792 8.70482Z" fill="white"/>
    <path d="M8.00125 12.1472L8.00203 12.1477L8.00122 12.1453L8.00125 12.1472Z" fill="white"/>
    <path d="M8.00434 11.7318C8.00572 11.6899 8.00742 11.648 8.00945 11.6062H8.17434L8.00434 11.7318Z" fill="white"/>
    <path d="M13.8975 4.71382L13.7867 4.3692L13.6636 4.71382H13.3067L13.6021 4.92305L13.4913 5.25536L13.7744 5.04613L14.0821 5.25536L13.959 4.92305L14.2544 4.71382H13.8975Z" fill="white"/>
    <path d="M15.9283 4.71382L15.8175 4.3692L15.7067 4.71382H15.3498L15.6452 4.92305L15.5221 5.25536L15.8175 5.04613L16.1129 5.25536L15.9898 4.92305L16.2852 4.71382H15.9283Z" fill="white"/>
    <path d="M12.8882 5.57537L12.7775 5.23075L12.6667 5.57537H12.3098L12.6052 5.7846L12.4821 6.11691L12.7775 5.90768L13.0729 6.11691L12.9498 5.7846L13.2452 5.57537H12.8882Z" fill="white"/>
    <path d="M14.919 5.57537L14.7959 5.23075L14.6852 5.57537H14.3159L14.6113 5.7846L14.5006 6.11691L14.7836 5.90768L15.079 6.11691L14.9683 5.7846L15.2513 5.57537H14.919Z" fill="white"/>
    <path d="M11.879 6.43691L11.7559 6.09229L11.6575 6.43691H11.2882L11.5836 6.64614L11.4728 6.97846L11.7559 6.76922L12.0513 6.97846L11.9405 6.64614L12.2236 6.43691H11.879Z" fill="white"/>
    <path d="M13.8975 6.43691L13.7867 6.09229L13.6759 6.43691H13.319L13.6144 6.64614L13.5036 6.97846L13.7867 6.76922L14.0821 6.97846L13.9713 6.64614L14.2544 6.43691H13.8975Z" fill="white"/>
    <path d="M15.9283 6.43691L15.8175 6.09229L15.7067 6.43691H15.3498L15.6452 6.64614L15.5221 6.97846L15.8175 6.76922L16.1129 6.97846L15.9898 6.64614L16.2852 6.43691H15.9283Z" fill="white"/>
    <path d="M10.8574 7.29846L10.7467 6.95384L10.6359 7.29846H10.279L10.5744 7.50769L10.4636 7.84L10.7467 7.63077L11.0421 7.84L10.9313 7.50769L11.2144 7.29846H10.8574Z" fill="white"/>
    <path d="M12.8882 7.29846L12.7775 6.95384L12.6667 7.29846H12.3098L12.6052 7.50769L12.4821 7.84L12.7775 7.63077L13.0729 7.84L12.9498 7.50769L13.2452 7.29846H12.8882Z" fill="white"/>
    <path d="M14.919 7.29846L14.7959 6.95384L14.6852 7.29846H14.3159L14.6113 7.50769L14.5006 7.84L14.7836 7.63077L15.079 7.84L14.9683 7.50769L15.2513 7.29846H14.919Z" fill="white"/>
    <path d="M9.84821 8.16L9.73744 7.81539L9.62666 8.16H9.26974L9.56513 8.36924L9.44205 8.70155L9.73744 8.49231L10.0328 8.70155L9.90974 8.36924L10.2051 8.16H9.84821Z" fill="white"/>
    <path d="M11.879 8.16L11.7559 7.81539L11.6575 8.16H11.2882L11.5836 8.36924L11.4728 8.70155L11.7559 8.49231L12.0513 8.70155L11.9405 8.36924L12.2236 8.16H11.879Z" fill="white"/>
    <path d="M13.8975 8.16L13.7867 7.81539L13.6759 8.16H13.319L13.6144 8.36924L13.5036 8.70155L13.7867 8.49231L14.0821 8.70155L13.9713 8.36924L14.2544 8.16H13.8975Z" fill="white"/>
    <path d="M15.9283 8.16L15.8175 7.81539L15.7067 8.16H15.3498L15.6452 8.36924L15.5221 8.70155L15.8175 8.49231L16.1129 8.70155L15.9898 8.36924L16.2852 8.16H15.9283Z" fill="white"/>
    <path d="M10.8574 9.02155L10.7467 8.67693L10.6359 9.02155H10.279L10.5744 9.23078L10.4636 9.56309L10.7467 9.35386L11.0421 9.56309L10.9313 9.23078L11.2144 9.02155H10.8574Z" fill="white"/>
    <path d="M12.8882 9.02155L12.7775 8.67693L12.6667 9.02155H12.3098L12.6052 9.23078L12.4821 9.56309L12.7775 9.35386L13.0729 9.56309L12.9498 9.23078L13.2452 9.02155H12.8882Z" fill="white"/>
    <path d="M14.919 9.02155L14.7959 8.67693L14.6852 9.02155H14.3159L14.6113 9.23078L14.5006 9.56309L14.7836 9.35386L15.079 9.56309L14.9683 9.23078L15.2513 9.02155H14.919Z" fill="white"/>
    <path d="M9.84821 9.88309L9.73744 9.53848L9.62666 9.88309H9.26974L9.56513 10.0923L9.44205 10.4246L9.73744 10.2154L10.0328 10.4246L9.90974 10.0923L10.2051 9.88309H9.84821Z" fill="white"/>
    <path d="M11.879 9.88309L11.7559 9.53848L11.6575 9.88309H11.2882L11.5836 10.0923L11.4728 10.4246L11.7559 10.2154L12.0513 10.4246L11.9405 10.0923L12.2236 9.88309H11.879Z" fill="white"/>
    <path d="M13.8975 9.88309L13.7867 9.53848L13.6759 9.88309H13.319L13.6144 10.0923L13.5036 10.4246L13.7867 10.2154L14.0821 10.4246L13.9713 10.0923L14.2544 9.88309H13.8975Z" fill="white"/>
    <path d="M15.9283 9.88309L15.8175 9.53848L15.7067 9.88309H15.3498L15.6452 10.0923L15.5221 10.4246L15.8175 10.2154L16.1129 10.4246L15.9898 10.0923L16.2852 9.88309H15.9283Z" fill="white"/>
    <path d="M8.83897 10.7446L8.71589 10.4L8.61742 10.7446H8.24819L8.54358 10.9539L8.43281 11.2862L8.71589 11.077L9.01127 11.2862L8.9005 10.9539L9.18358 10.7446H8.83897Z" fill="white"/>
    <path d="M10.8574 10.7446L10.7467 10.4L10.6359 10.7446H10.279L10.5744 10.9539L10.4636 11.2862L10.7467 11.077L11.0421 11.2862L10.9313 10.9539L11.2144 10.7446H10.8574Z" fill="white"/>
    <path d="M12.8882 10.7446L12.7775 10.4L12.6667 10.7446H12.3098L12.6052 10.9539L12.4821 11.2862L12.7775 11.077L13.0729 11.2862L12.9498 10.9539L13.2452 10.7446H12.8882Z" fill="white"/>
    <path d="M14.919 10.7446L14.7959 10.4L14.6852 10.7446H14.3159L14.6113 10.9539L14.5006 11.2862L14.7836 11.077L15.079 11.2862L14.9683 10.9539L15.2513 10.7446H14.919Z" fill="white"/>
    <path d="M9.84821 11.6062L9.73744 11.2616L9.62666 11.6062H9.26974L9.56513 11.8154L9.44205 12.1477L9.73744 11.9385L10.0328 12.1477L9.90974 11.8154L10.2051 11.6062H9.84821Z" fill="white"/>
    <path d="M11.879 11.6062L11.7559 11.2616L11.6575 11.6062H11.2882L11.5836 11.8154L11.4728 12.1477L11.7559 11.9385L12.0513 12.1477L11.9405 11.8154L12.2236 11.6062H11.879Z" fill="white"/>
    <path d="M13.8975 11.6062L13.7867 11.2616L13.6759 11.6062H13.319L13.6144 11.8154L13.5036 12.1477L13.7867 11.9385L14.0821 12.1477L13.9713 11.8154L14.2544 11.6062H13.8975Z" fill="white"/>
    <path d="M15.9283 11.6062L15.8175 11.2616L15.7067 11.6062H15.3498L15.6452 11.8154L15.5221 12.1477L15.8175 11.9385L16.1129 12.1477L15.9898 11.8154L16.2852 11.6062H15.9283Z" fill="white"/>
    <path d="M8 20C12.4183 20 16 16.4183 16 12C16 7.58172 12.4183 4 8 4C3.58172 4 0 7.58172 0 12C0 16.4183 3.58172 20 8 20Z" fill="#00247D"/>
    <path d="M12.4179 9.64445L12.6036 10.2165H13.1062L13.2654 10.1903L13.2292 10.2165H13.2467L13.1903 10.2447L12.6995 10.6003L12.853 11.0725L12.9303 11.2215L12.8925 11.194L12.8983 11.2119L12.8509 11.1638L12.3873 10.8268L11.9257 11.162L11.8765 11.2119L11.8826 11.1933L11.8437 11.2215L11.923 11.069L12.0753 10.6005L11.5832 10.244L11.5282 10.2165H11.5453L11.509 10.1903L11.6682 10.2165H12.2001L12.3618 9.71898L12.3872 9.54999L12.402 9.59543L12.4078 9.57745L12.4179 9.64445Z" fill="white"/>
    <path d="M12.4095 9.93466L12.5301 10.3041H12.8576L12.9666 10.2859L12.9416 10.3041H12.9553L12.9119 10.3258L12.5935 10.5577L12.6951 10.8708L12.7453 10.9672L12.7206 10.9493L12.7247 10.9619L12.6918 10.9284L12.3872 10.7078L12.0806 10.931L12.0502 10.9619L12.0539 10.9504L12.0287 10.9688L12.0799 10.8703L12.1814 10.5577L11.8635 10.3261L11.8194 10.3041H11.8333L11.8083 10.2859L11.9173 10.3041H12.2637L12.3689 9.98178L12.3865 9.86407L12.3969 9.896L12.4016 9.88161L12.4095 9.93466Z" fill="#CC142B"/>
    <path d="M14.6649 11.6887L14.8313 12.2003H15.272L15.4206 12.1756L15.3865 12.2003H15.403L15.3501 12.2268L14.9165 12.5416L15.0537 12.9628L15.1217 13.0938L15.0885 13.0697L15.0938 13.0859L15.0507 13.0423L14.6387 12.7433L14.2276 13.042L14.1842 13.0859L14.1896 13.0696L14.1563 13.0938L14.2244 12.9623L14.361 12.5419L13.9248 12.2253L13.875 12.2003H13.8905L13.8564 12.1756L14.005 12.2003H14.4718L14.6161 11.7572L14.6386 11.6078L14.6517 11.648L14.6565 11.6332L14.6649 11.6887Z" fill="white"/>
    <path d="M14.6557 11.9748L14.7574 12.2878H15.0302L15.1221 12.2725L15.1011 12.2878H15.1118L15.0775 12.3049L14.8105 12.4989L14.8948 12.7591L14.9368 12.84L14.9161 12.825L14.9198 12.8362L14.8903 12.8063L14.6382 12.6235L14.388 12.8049L14.3574 12.8359L14.3612 12.8243L14.3395 12.84L14.3835 12.7554L14.4667 12.4988L14.2044 12.3076L14.1654 12.2881H14.1776L14.1562 12.2725L14.2496 12.2881H14.5354L14.6243 12.0145L14.6383 11.9213L14.6464 11.9463L14.6498 11.9359L14.6557 11.9748Z" fill="#CC142B"/>
    <path d="M9.79476 12.2819L9.98196 12.8578H10.4818L10.6429 12.8312L10.6063 12.8578H10.625L10.5648 12.8879L10.0767 13.2419L10.2295 13.7119L10.3077 13.8625L10.2694 13.8347L10.2754 13.8531L10.2267 13.8037L9.76489 13.4683L9.30272 13.8039L9.25431 13.8531L9.26027 13.8348L9.22209 13.8625L9.29999 13.7124L9.45279 13.2418L8.9605 12.8849L8.90633 12.8578H8.92313L8.88647 12.8312L9.04765 12.8578H9.57751L9.74119 12.3542L9.7656 12.1922L9.77973 12.2357L9.78524 12.2187L9.79476 12.2819Z" fill="white"/>
    <path d="M9.78681 12.5762L9.90717 12.945H10.237L10.3438 12.9272L10.3193 12.945H10.3325L10.2904 12.966L9.97075 13.1987L10.0717 13.5099L10.1228 13.6081L10.0977 13.5899L10.1019 13.6028L10.0679 13.5684L9.76436 13.3484L9.46048 13.5686L9.42708 13.6025L9.43121 13.5898L9.40592 13.6081L9.4574 13.5091L9.55827 13.1984L9.23991 12.9665L9.19694 12.945H9.2104L9.18555 12.9269L9.2943 12.945H9.64089L9.7462 12.6223L9.76367 12.5053L9.77403 12.5371L9.77879 12.5225L9.78681 12.5762Z" fill="#CC142B"/>
    <path d="M12.421 16.3669L12.6275 17.0019H13.1732L13.3614 16.9706L13.3184 17.0019H13.341L13.2688 17.038L12.7338 17.4272L12.9045 17.9494L12.9918 18.1175L12.9494 18.0867L12.956 18.1069L12.9025 18.0527L12.3878 17.6791L11.8748 18.0514L11.8202 18.1069L11.827 18.0862L11.7838 18.1175L11.8719 17.9478L12.041 17.4272L11.5063 17.0383L11.4335 17.0019H11.4563L11.4133 16.9706L11.6015 17.0019H12.1791L12.3594 16.4477L12.3872 16.2628L12.4033 16.3125L12.4098 16.2925L12.421 16.3669Z" fill="white"/>
    <path fill-rule="evenodd" clip-rule="evenodd" d="M11.9988 17.841L11.9937 17.8565L12.0347 17.8149L12.3872 17.5597L12.7419 17.8166L12.7813 17.8565L12.7764 17.8416L12.8057 17.8628L12.7459 17.7478L12.6279 17.3851L13.0021 17.1132L13.0498 17.0894H13.0349L13.0642 17.0681L12.936 17.0894H12.554L12.4112 16.65L12.4032 16.5965L12.3985 16.6109L12.3873 16.5762L12.3678 16.7055L12.2431 17.0894H11.8384L11.7102 17.0681L11.7395 17.0894H11.7249L11.7719 17.1129L12.1468 17.3853L12.0301 17.7447L11.9687 17.8628L11.9988 17.841Z" fill="#CC142B"/>
    <path d="M2.00724 6.70016L3.32415 7.69954L0.242252 10.0383C0.129161 10.4869 0.053964 10.9506 0.0202637 11.4258L0.566709 12.1459L4.87498 8.87642L9.18324 12.1459L10.3167 10.6523L6.4258 7.69954L10.3167 4.74681L9.92735 4.23373C9.37092 4.0961 8.79153 4.0167 8.19602 4.00238L4.87498 6.52265L3.43471 5.42966C2.90951 5.79526 2.43023 6.22222 2.00724 6.70016Z" fill="white"/>
    <path d="M2.21988 6.46908L3.84129 7.69953L0.13856 10.5095C0.0820682 10.8092 0.0423007 11.1149 0.0202637 11.4255L0.377999 11.8969L4.87518 8.48413L9.37235 11.8969L10.128 10.9012L5.90906 7.69953L10.128 4.49787L9.92755 4.23374C9.52262 4.13357 9.10552 4.06423 8.6789 4.02838L4.87518 6.91494L3.17071 5.62146C2.83161 5.8786 2.51364 6.16216 2.21988 6.46908Z" fill="#CC142B"/>
    <path d="M5.82531 4.29913C5.15292 4.48864 4.51645 4.76384 3.92843 5.1122V6.74998H1.96361C1.46953 7.31759 1.05419 7.95555 0.734619 8.64685H3.92843V11.3969H5.82218V8.64685H9.75343V6.7531H5.82531V4.29913Z" fill="white"/>
    <path d="M4.30627 4.90195C4.66993 4.71231 5.04999 4.54981 5.44377 4.41711V7.13126H9.75627V8.26876H5.44689V11.4H4.31252V8.26876H0.921631C1.13318 7.86827 1.37773 7.4879 1.65165 7.13126H4.30627V4.90195Z" fill="#CC142B"/>
</svg>
