<svg width="24" height="24" viewBox="0 0 24 24" fill="none" xmlns="http://www.w3.org/2000/svg">
    <path d="M21.8563 6.54975V17.4503C20.3957 19.0189 18.3125 20 16.0001 20C13.8866 20 11.9646 19.1805 10.5344 17.8418V6.15817C11.9646 4.81954 13.8866 4 16.0001 4C18.3125 4 20.3957 4.9811 21.8563 6.54975Z" fill="white"/>
    <path d="M21.8563 6.54979C23.1863 7.97834 24 9.89415 24 12C24 14.1059 23.1863 16.0217 21.8563 17.4502V6.54979Z" fill="#D52B1E"/>
    <path d="M10.5344 6.15814V17.8419C8.97469 16.382 8 14.3048 8 12C8 9.69517 8.97469 7.61798 10.5344 6.15814Z" fill="#D52B1E"/>
    <path d="M11.7906 11.8813L12.2281 11.7313V11.7344C12.43 11.5325 12.2442 11.0256 12.0788 10.5746C12.0215 10.4182 11.9666 10.2685 11.9313 10.1406C12.0579 10.1681 12.2043 10.2092 12.3511 10.2504C12.6714 10.3402 12.9935 10.4305 13.1156 10.3813C13.235 10.3268 13.3164 10.1489 13.3976 9.97168C13.4376 9.88436 13.4775 9.7972 13.5219 9.72501L14.5625 10.9063C14.6625 10.9594 14.75 10.9281 14.7844 10.8344L14.3313 8.35938L15.0875 8.78438C15.1375 8.82188 15.1969 8.81563 15.2563 8.75938L16.0438 7.16876L16.8094 8.70001C16.8531 8.77501 16.9187 8.80313 16.9844 8.77501L17.7781 8.32813L17.2781 10.8188C17.3063 10.9188 17.3563 10.9688 17.475 10.9375L18.5562 9.75001L18.8656 10.3281C18.9438 10.5438 20.1344 10.1344 20.1344 10.1344C20.1135 10.3156 20.0531 10.532 19.9927 10.7483C19.8719 11.1809 19.751 11.6135 19.9469 11.7656L20.3031 11.8938L18.2594 13.5969C18.1488 14.0059 18.2314 14.1729 18.347 14.4071C18.3621 14.4377 18.3778 14.4695 18.3937 14.5031L16.1688 14.2406L16.2719 16.4563L15.8094 16.4719L15.8656 14.2375L13.6469 14.5188C13.674 14.4695 13.7043 14.4246 13.734 14.3807C13.851 14.2072 13.959 14.0471 13.8344 13.6781L11.7906 11.8813Z" fill="#D52B1E"/>
    <path d="M8 20C12.4183 20 16 16.4183 16 12C16 7.58172 12.4183 4 8 4C3.58172 4 0 7.58172 0 12C0 16.4183 3.58172 20 8 20Z" fill="#00247D"/>
    <path d="M12.4179 9.64445L12.6036 10.2165H13.1062L13.2654 10.1903L13.2292 10.2165H13.2467L13.1903 10.2447L12.6995 10.6003L12.853 11.0725L12.9303 11.2215L12.8925 11.194L12.8983 11.2119L12.8509 11.1638L12.3873 10.8268L11.9257 11.162L11.8765 11.2119L11.8826 11.1933L11.8437 11.2215L11.923 11.069L12.0753 10.6005L11.5832 10.244L11.5282 10.2165H11.5453L11.509 10.1903L11.6682 10.2165H12.2001L12.3618 9.71898L12.3872 9.54999L12.402 9.59543L12.4078 9.57745L12.4179 9.64445Z" fill="white"/>
    <path d="M12.4095 9.93466L12.5301 10.3041H12.8576L12.9666 10.2859L12.9416 10.3041H12.9553L12.9119 10.3258L12.5935 10.5577L12.6951 10.8708L12.7453 10.9672L12.7206 10.9493L12.7247 10.9619L12.6918 10.9284L12.3872 10.7078L12.0806 10.931L12.0502 10.9619L12.0539 10.9504L12.0287 10.9688L12.0799 10.8703L12.1814 10.5577L11.8635 10.3261L11.8194 10.3041H11.8333L11.8083 10.2859L11.9173 10.3041H12.2637L12.3689 9.98178L12.3865 9.86407L12.3969 9.896L12.4016 9.88161L12.4095 9.93466Z" fill="#CC142B"/>
    <path d="M14.6649 11.6887L14.8313 12.2003H15.272L15.4206 12.1756L15.3865 12.2003H15.403L15.3501 12.2268L14.9165 12.5416L15.0537 12.9628L15.1217 13.0938L15.0885 13.0697L15.0938 13.0859L15.0507 13.0423L14.6387 12.7433L14.2276 13.042L14.1842 13.0859L14.1896 13.0696L14.1563 13.0938L14.2244 12.9623L14.361 12.5419L13.9248 12.2253L13.875 12.2003H13.8905L13.8564 12.1756L14.005 12.2003H14.4718L14.6161 11.7572L14.6386 11.6078L14.6517 11.648L14.6565 11.6332L14.6649 11.6887Z" fill="white"/>
    <path d="M14.6557 11.9748L14.7574 12.2878H15.0302L15.1221 12.2725L15.1011 12.2878H15.1118L15.0775 12.3049L14.8105 12.4989L14.8948 12.7591L14.9368 12.84L14.9161 12.825L14.9198 12.8362L14.8903 12.8063L14.6382 12.6235L14.388 12.8049L14.3574 12.8359L14.3612 12.8243L14.3395 12.84L14.3835 12.7554L14.4667 12.4988L14.2044 12.3076L14.1654 12.2881H14.1776L14.1562 12.2725L14.2496 12.2881H14.5354L14.6243 12.0145L14.6383 11.9213L14.6464 11.9463L14.6498 11.9359L14.6557 11.9748Z" fill="#CC142B"/>
    <path d="M9.79476 12.2819L9.98196 12.8578H10.4818L10.6429 12.8312L10.6063 12.8578H10.625L10.5648 12.8879L10.0767 13.2419L10.2295 13.7119L10.3077 13.8625L10.2694 13.8347L10.2754 13.8531L10.2267 13.8037L9.76489 13.4683L9.30272 13.8039L9.25431 13.8531L9.26027 13.8348L9.22209 13.8625L9.29999 13.7124L9.45279 13.2418L8.9605 12.8849L8.90633 12.8578H8.92313L8.88647 12.8312L9.04765 12.8578H9.57751L9.74119 12.3542L9.7656 12.1922L9.77973 12.2357L9.78524 12.2187L9.79476 12.2819Z" fill="white"/>
    <path d="M9.78681 12.5762L9.90717 12.945H10.237L10.3438 12.9272L10.3193 12.945H10.3325L10.2904 12.966L9.97075 13.1987L10.0717 13.5099L10.1228 13.6081L10.0977 13.5899L10.1019 13.6028L10.0679 13.5684L9.76436 13.3484L9.46048 13.5686L9.42708 13.6025L9.43121 13.5898L9.40592 13.6081L9.4574 13.5091L9.55827 13.1984L9.23991 12.9665L9.19694 12.945H9.2104L9.18555 12.9269L9.2943 12.945H9.64089L9.7462 12.6223L9.76367 12.5053L9.77403 12.5371L9.77879 12.5225L9.78681 12.5762Z" fill="#CC142B"/>
    <path d="M12.421 16.3669L12.6275 17.0019H13.1732L13.3614 16.9706L13.3184 17.0019H13.341L13.2688 17.038L12.7338 17.4272L12.9045 17.9494L12.9918 18.1175L12.9494 18.0867L12.956 18.1069L12.9025 18.0527L12.3878 17.6791L11.8748 18.0514L11.8202 18.1069L11.827 18.0862L11.7838 18.1175L11.8719 17.9478L12.041 17.4272L11.5063 17.0383L11.4335 17.0019H11.4563L11.4133 16.9706L11.6015 17.0019H12.1791L12.3594 16.4477L12.3872 16.2628L12.4033 16.3125L12.4098 16.2925L12.421 16.3669Z" fill="white"/>
    <path fill-rule="evenodd" clip-rule="evenodd" d="M11.9988 17.841L11.9937 17.8565L12.0347 17.8149L12.3872 17.5597L12.7419 17.8166L12.7813 17.8565L12.7764 17.8416L12.8057 17.8628L12.7459 17.7478L12.6279 17.3851L13.0021 17.1132L13.0498 17.0894H13.0349L13.0642 17.0681L12.936 17.0894H12.554L12.4112 16.65L12.4032 16.5965L12.3985 16.6109L12.3873 16.5762L12.3678 16.7055L12.2431 17.0894H11.8384L11.7102 17.0681L11.7395 17.0894H11.7249L11.7719 17.1129L12.1468 17.3853L12.0301 17.7447L11.9687 17.8628L11.9988 17.841Z" fill="#CC142B"/>
    <path d="M2.00724 6.70016L3.32415 7.69954L0.242252 10.0383C0.129161 10.4869 0.053964 10.9506 0.0202637 11.4258L0.566709 12.1459L4.87498 8.87642L9.18324 12.1459L10.3167 10.6523L6.4258 7.69954L10.3167 4.74681L9.92735 4.23373C9.37092 4.0961 8.79153 4.0167 8.19602 4.00238L4.87498 6.52265L3.43471 5.42966C2.90951 5.79526 2.43023 6.22222 2.00724 6.70016Z" fill="white"/>
    <path d="M2.21988 6.46908L3.84129 7.69953L0.13856 10.5095C0.0820682 10.8092 0.0423007 11.1149 0.0202637 11.4255L0.377999 11.8969L4.87518 8.48413L9.37235 11.8969L10.128 10.9012L5.90906 7.69953L10.128 4.49787L9.92755 4.23374C9.52262 4.13357 9.10552 4.06423 8.6789 4.02838L4.87518 6.91494L3.17071 5.62146C2.83161 5.8786 2.51364 6.16216 2.21988 6.46908Z" fill="#CC142B"/>
    <path d="M5.82531 4.29913C5.15292 4.48864 4.51645 4.76384 3.92843 5.1122V6.74998H1.96361C1.46953 7.31759 1.05419 7.95555 0.734619 8.64685H3.92843V11.3969H5.82218V8.64685H9.75343V6.7531H5.82531V4.29913Z" fill="white"/>
    <path d="M4.30627 4.90195C4.66993 4.71231 5.04999 4.54981 5.44377 4.41711V7.13126H9.75627V8.26876H5.44689V11.4H4.31252V8.26876H0.921631C1.13318 7.86827 1.37773 7.4879 1.65165 7.13126H4.30627V4.90195Z" fill="#CC142B"/>
</svg>
