<svg width="60" height="60" viewBox="0 0 60 60" fill="none" xmlns="http://www.w3.org/2000/svg">
<path d="M30 60C46.5685 60 60 46.5685 60 30C60 13.4315 46.5685 0 30 0C13.4315 0 0 13.4315 0 30C0 46.5685 13.4315 60 30 60Z" fill="#ABABAB"/>
<path d="M12.8977 30.1042C12.9327 30.04 13.0001 30 13.0733 30H21.9267C21.9999 30 22.0673 30.04 22.1023 30.1042L27.3387 39.7042C27.4114 39.8375 27.3149 40 27.1631 40H7.83691C7.6851 40 7.58863 39.8375 7.66133 39.7042L12.8977 30.1042Z" fill="white"/>
<path d="M37.8977 30.1042C37.9327 30.04 38.0001 30 38.0733 30H46.9267C46.9999 30 47.0673 30.04 47.1023 30.1042L52.3387 39.7042C52.4114 39.8375 52.3149 40 52.1631 40H32.8369C32.6851 40 32.5886 39.8375 32.6613 39.7042L37.8977 30.1042Z" fill="white"/>
<path d="M25.3977 15.1042C25.4327 15.04 25.5001 15 25.5733 15H34.4267C34.4999 15 34.5673 15.04 34.6023 15.1042L39.8387 24.7042C39.9114 24.8375 39.8149 25 39.6631 25H20.3369C20.1851 25 20.0886 24.8375 20.1613 24.7042L25.3977 15.1042Z" fill="white"/>
</svg>
