<svg width="60" height="60" viewBox="0 0 60 60" fill="none" xmlns="http://www.w3.org/2000/svg">
<path d="M60 30C60 46.5685 46.5685 60 30 60C13.4315 60 0 46.5685 0 30C0 13.4315 13.4315 0 30 0C46.5685 0 60 13.4315 60 30Z" fill="url(#paint0_linear)"/>
<path d="M18.7918 16.796C18.9452 16.6426 19.1534 16.5564 19.3704 16.5564H46.4116C46.9182 16.5564 47.1754 17.1658 46.822 17.5287L41.3641 23.134C41.21 23.2922 40.9987 23.3814 40.7779 23.3814L13.589 23.3813C13.0788 23.3813 12.8232 22.7643 13.1841 22.4035L18.7918 16.796Z" fill="white"/>
<path d="M18.7918 36.8582C18.9452 36.7047 19.1534 36.6185 19.3704 36.6185H46.4116C46.9182 36.6185 47.1754 37.2279 46.822 37.5909L41.3641 43.1962C41.21 43.3544 40.9987 43.4436 40.7779 43.4436L13.589 43.4434C13.0788 43.4434 12.8232 42.8265 13.1841 42.4657L18.7918 36.8582Z" fill="white"/>
<path d="M19.3704 33.4126C19.1534 33.4126 18.9452 33.3264 18.7918 33.1729L13.1841 27.5654C12.8232 27.2046 13.0788 26.5876 13.589 26.5876L40.7779 26.5875C40.9987 26.5875 41.21 26.6767 41.3641 26.8349L46.822 32.4402C47.1754 32.8032 46.9182 33.4126 46.4116 33.4126H19.3704Z" fill="white"/>
<defs>
<linearGradient id="paint0_linear" x1="52.5028" y1="2.82757" x2="3.56405" y2="54.89" gradientUnits="userSpaceOnUse">
<stop offset="0.0260417" stop-color="#18EBB6"/>
<stop offset="1" stop-color="#D046EA"/>
</linearGradient>
</defs>
</svg>
