<svg width="60" height="60" viewBox="0 0 60 60" fill="none" xmlns="http://www.w3.org/2000/svg">
<path d="M60 30C60 46.5685 46.5685 60 30 60C13.4315 60 0 46.5685 0 30C0 13.4315 13.4315 0 30 0C46.5685 0 60 13.4315 60 30Z" fill="#E3F2FF"/>
<path fill-rule="evenodd" clip-rule="evenodd" d="M23.7283 18.6353L12.5735 6.11755C13.0858 6.91963 13.8 7.97614 14.597 9.15519C17.5971 13.5936 21.771 19.7685 20.7697 20.6446C20.3907 20.9762 20.0684 21.0541 19.6721 21.1499C19.2637 21.2486 18.7767 21.3662 18.0683 21.8C17.2697 22.2889 16.8677 23.1276 16.6685 24.6198C16.4896 25.9597 16.3236 26.9731 15.5324 28.5757C14.8803 29.8967 14.3331 30.6475 13.5939 31.6617C13.2486 32.1355 12.8614 32.6668 12.402 33.3406C11.0437 35.3328 11.2859 36.5575 11.5311 37.7977C11.5464 37.8748 11.5616 37.952 11.5765 38.0293C11.8095 39.2407 13.3389 42.0195 14.1724 43.1416C15.2945 42.853 17.5151 42.2208 18.6355 41.6607C18.7064 41.6252 18.7827 41.5889 18.8628 41.5508C19.8371 41.0876 21.3765 40.3558 20.6641 37.5628C20.5126 36.9685 19.7216 36.3525 18.8919 35.7064C17.976 34.993 17.0127 34.2429 16.8105 33.4446C16.4507 32.0244 17.2111 30.4708 17.692 29.5089C18.2523 28.3882 18.4402 27.065 18.6009 25.9338C18.7375 24.972 18.8544 24.1489 19.1637 23.7069C19.5091 23.2136 20.0999 23.1039 20.8141 22.9713C21.4923 22.8454 22.2818 22.6988 23.0781 22.1835C24.3862 21.3371 24.5804 19.7713 23.7283 18.6353ZM14.541 39.5176C14.0872 39.6369 13.5681 39.1592 13.3819 38.4507C13.196 37.7422 13.413 37.0711 13.8671 36.9518C14.3209 36.8326 14.8397 37.3103 15.0259 38.0188C15.212 38.7273 14.9951 39.3984 14.541 39.5176Z" fill="#FF007A"/>
<path d="M30.5853 15.7845C29.6606 14.028 26.1866 11.15 23.8519 10.3597C26.1098 10.4323 29.8045 11.9081 33.4726 13.3732C35.2601 14.0872 37.0413 14.7987 38.6468 15.344C44.1785 17.2229 45.234 19.3514 46.524 21.953C46.6624 22.232 46.8035 22.5165 46.953 22.8066C47.1015 23.0947 47.2424 23.3741 47.3762 23.6457C45.9636 22.8488 44.3413 22.485 42.8411 22.2402C42.2633 22.1459 41.6817 22.0667 41.119 21.9913L40.958 21.9697C40.4474 21.9014 39.9543 21.8353 39.4719 21.761C38.3993 21.5956 37.4602 21.3999 36.6715 21.0965C35.3317 20.5811 33.8952 19.7392 32.6869 18.8983C32.2713 18.6091 31.8974 18.3302 31.5741 18.0754C31.2387 17.2142 30.9335 16.4459 30.5853 15.7845Z" fill="#FF007A"/>
<path d="M33.4158 22.3049C33.924 23.2809 34.5389 24.3147 35.3117 25.3966C35.598 25.7974 35.8918 26.2327 36.1901 26.6935C36.6014 27.0278 37.1755 27.4712 37.8337 27.9408C38.9781 28.7571 40.2385 29.552 41.1852 29.9438C41.7628 30.1828 42.4307 30.4016 43.1862 30.6491L43.3683 30.7088C44.1765 30.9738 45.0641 31.2698 45.9104 31.6334C47.2356 32.2028 48.65 33.0156 49.5446 34.3421C49.6814 32.7719 49.7314 31.441 49.5508 30.0463C49.1082 28.3921 48.3807 27.5892 47.7985 26.9467C47.6966 26.8343 47.5992 26.7268 47.5086 26.6205C46.4614 25.3928 44.6514 25.0687 42.4385 24.7076C41.8998 24.6197 41.3501 24.5446 40.7868 24.4691L40.6243 24.4473C40.1177 24.3795 39.5995 24.3102 39.091 24.2318C37.9716 24.0592 36.8187 23.8317 35.774 23.4299C34.9802 23.1245 34.18 22.733 33.4158 22.3049Z" fill="#FF007A"/>
<path d="M41.4001 35.9381C40.7428 34.6916 39.9701 33.2262 39.1509 31.7348C39.521 31.934 39.8842 32.111 40.2291 32.2537C40.8994 32.5312 41.6578 32.7794 42.3882 33.0184L42.5892 33.0843C43.4025 33.351 44.192 33.6161 44.9235 33.9303C46.4249 34.5754 47.3753 35.3929 47.7643 36.3061C48.3652 37.7172 48.7177 38.6524 48.2768 40.3911C46.5536 44.9428 43.821 45.9473 43.821 45.9473C43.821 45.9473 45.5713 43.2077 43.0411 38.9714C42.6874 38.3793 42.1112 37.2867 41.4001 35.9381Z" fill="#FF007A"/>
<path d="M22.5865 12.0303C22.5418 12.3547 22.483 12.7817 22.483 13.5928C22.483 15.2278 24.3424 17.9103 25.0983 18.625C25.6964 19.1905 27.6836 20.253 28.0411 19.7233C28.1612 19.5453 28.0326 19.3772 27.7884 19.0578C27.5163 18.702 27.1006 18.1584 26.7252 17.2043C26.6168 16.9289 26.5244 16.4606 26.4176 15.9191C26.1894 14.7629 25.8954 13.2734 25.2404 12.6183C24.4912 11.8692 23.6482 11.6944 22.7123 11.5004L22.636 11.4846C22.636 11.6712 22.6139 11.8315 22.5865 12.0303Z" fill="#FF007A"/>
<path d="M35.0902 46.4658C35.7281 49.3846 38.0863 49.1526 40.2319 48.5727C38.1443 50.2157 36.4578 49.537 35.5348 49.1526C34.381 48.6721 33.3902 46.4013 32.8093 45.0161C32.3068 43.8176 31.1135 42.9091 30.5671 42.9091C30.6056 42.9921 30.6468 43.0909 30.6873 43.202C30.4304 42.7492 29.8591 42.3497 29.1381 42.1754C28.0447 41.9111 27.0211 42.2647 26.8517 42.9652C26.6824 43.6657 27.4316 44.4478 28.5247 44.7121C29.6182 44.9764 30.6417 44.6228 30.8111 43.9223C30.83 43.8443 30.8374 43.7653 30.8343 43.6861C30.964 44.2151 31.0215 44.8575 30.8184 45.4027C30.6882 45.7518 30.1805 46.6204 29.1947 46.8524C28.0217 47.1284 26.8306 46.71 25.7726 45.5561C24.7146 44.4021 24.3597 44.0518 22.8352 43.2957C21.682 42.7238 19.9365 42.6192 19.9365 42.6192C19.9365 42.6192 21.9731 40.3154 25.2321 39.4101C26.9634 38.9292 29.8318 38.4907 32.2874 39.9901C33.9698 41.0173 34.2534 42.4056 34.7854 45.0104C34.8769 45.4582 34.9757 45.9418 35.0902 46.4658Z" fill="#FF007A"/>
<path d="M37.6759 28.996C37.6759 30.0557 37.6015 32.4902 36.7788 33.4625C35.7504 34.678 34.9452 35.1754 33.5427 35.3624C33.2395 35.4028 32.9148 35.4397 32.5826 35.4775C31.3784 35.6145 30.0758 35.7626 29.3431 36.129C28.5951 36.503 27.1859 37.2073 26.8432 37.2697C26.9627 37.2697 27.2707 37.2039 27.6719 37.1183C28.4216 36.9583 29.4969 36.7288 30.2765 36.7288C31.7724 36.7288 34.2762 36.7288 35.7094 35.9289C37.0384 35.1871 37.5702 34.8276 38.0759 33.4625C38.466 32.4094 38.7425 30.7626 37.6759 28.996Z" fill="#FF007A"/>
<path d="M23.9545 24.7004C24.1525 24.1878 24.789 23.3289 25.9098 23.3289C26.6331 23.3288 27.4573 23.8522 27.6859 24.1273C28.0664 24.5852 28.514 25.5468 27.4993 26.2596C27.0513 26.5743 25.7865 27.0852 24.5944 26.7127C23.4022 26.3402 23.7289 25.2845 23.9545 24.7004Z" fill="#FF007A"/>
</svg>
