<svg width="24" height="24" viewBox="0 0 24 24" fill="none" xmlns="http://www.w3.org/2000/svg">
    <path d="M16 20C20.4183 20 24 16.4183 24 12C24 7.58172 20.4183 4 16 4C11.5817 4 8 7.58172 8 12C8 16.4183 11.5817 20 16 20Z" fill="#D52B1E"/>
    <path d="M17.5 7H14.5V10.5H11V13.5H14.5V17H17.5V13.5H21V10.5H17.5V7Z" fill="white"/>
    <path d="M1.2576 7.69234C1.54045 7.25055 1.86553 6.83839 2.22714 6.46156H13.7729C14.1345 6.83839 14.4596 7.25055 14.7424 7.69234H1.2576Z" fill="#BD3D44"/>
    <path d="M0.214056 10.1539C0.314283 9.72959 0.448298 9.31833 0.613104 8.92313H15.3869C15.5517 9.31833 15.6857 9.72959 15.7859 10.1539H0.214056Z" fill="#BD3D44"/>
    <path d="M0.0233231 12.6155C0.0078686 12.4123 0 12.2071 0 12C0 11.793 0.00786456 11.5878 0.0233112 11.3847H15.9767C15.9921 11.5878 16 11.793 16 12C16 12.2071 15.9921 12.4123 15.9767 12.6155H0.0233231Z" fill="#BD3D44"/>
    <path d="M0.613169 15.077C0.448353 14.6818 0.314329 14.2706 0.214093 13.8463H15.7859C15.6857 14.2706 15.5516 14.6818 15.3868 15.077H0.613169Z" fill="#BD3D44"/>
    <path d="M2.22729 17.5386C1.86566 17.1618 1.54056 16.7496 1.2577 16.3078H14.7423C14.4594 16.7496 14.1343 17.1618 13.7727 17.5386H2.22729Z" fill="#BD3D44"/>
    <path d="M12.2652 18.7694C11.0307 19.5489 9.56801 20 8 20C6.43199 20 4.96935 19.5489 3.73477 18.7694H12.2652Z" fill="#BD3D44"/>
    <path d="M12.2655 5.23078H3.73452C4.96915 4.45117 6.43189 4 8 4C9.56811 4 11.0308 4.45117 12.2655 5.23078Z" fill="#BD3D44"/>
    <path d="M15.7858 10.1539C15.8802 10.5534 15.9446 10.9645 15.9766 11.3847H0.0231934C0.0551515 10.9645 0.119566 10.5534 0.213936 10.1539H15.7858Z" fill="white"/>
    <path d="M14.7423 7.69234C14.9911 8.08096 15.2072 8.49251 15.3868 8.92312H0.612982C0.79255 8.49251 1.00867 8.08096 1.25747 7.69234H14.7423Z" fill="white"/>
    <path d="M12.2654 5.23077C12.817 5.57911 13.3231 5.99302 13.7728 6.46156H2.22701C2.67663 5.99302 3.18274 5.57911 3.73438 5.23077H12.2654Z" fill="white"/>
    <path d="M15.7858 13.8462C15.8802 13.4467 15.9446 13.0356 15.9766 12.6155H0.0232071C0.0551749 13.0356 0.119599 13.4467 0.213979 13.8462H15.7858Z" fill="white"/>
    <path d="M15.3867 15.077H0.613057C0.792638 15.5076 1.00877 15.9192 1.25759 16.3078H14.7422C14.991 15.9192 15.2071 15.5076 15.3867 15.077Z" fill="white"/>
    <path d="M13.7726 17.5386H2.22719C2.67684 18.0071 3.18299 18.421 3.73467 18.7694H12.2651C12.8168 18.421 13.3229 18.0071 13.7726 17.5386Z" fill="white"/>
    <path d="M8.82679 4.04221V12.6155H0.0233231C0.0078686 12.4123 0 12.2071 0 12C0 7.58172 3.58172 4 8 4C8.27917 4 8.55499 4.0143 8.82679 4.04221Z" fill="#192F5D"/>
    <path d="M3.88534 5.1378C3.92047 5.11669 3.95578 5.09584 3.99127 5.07525L4.0513 5.25536L3.88534 5.1378Z" fill="white"/>
    <path d="M2.78392 5.93405C2.83183 5.89281 2.88025 5.85213 2.92914 5.81202L3.04206 6.11691L2.78392 5.93405Z" fill="white"/>
    <path d="M1.86797 6.86168C1.89596 6.82831 1.92423 6.79517 1.95275 6.76226L2.03282 6.97846L1.86797 6.86168Z" fill="white"/>
    <path d="M0.707919 8.70482C0.711254 8.69745 0.7146 8.69009 0.717957 8.68273L0.838965 9.02155H1.18358L0.900504 9.23078L1.01127 9.56309L0.715887 9.35386L0.432807 9.56309L0.543577 9.23078L0.502877 9.20195C0.52546 9.14147 0.548755 9.08133 0.57275 9.02155H0.617424L0.707919 8.70482Z" fill="white"/>
    <path d="M0.00125453 12.1472L0.00203355 12.1477L0.0012207 12.1453L0.00125453 12.1472Z" fill="white"/>
    <path d="M0.00433645 11.7318C0.00571859 11.6899 0.00742399 11.648 0.00945024 11.6062H0.174343L0.00433645 11.7318Z" fill="white"/>
    <path d="M5.89748 4.71382L5.78671 4.3692L5.66363 4.71382H5.3067L5.60209 4.92305L5.49132 5.25536L5.7744 5.04613L6.08209 5.25536L5.95902 4.92305L6.2544 4.71382H5.89748Z" fill="white"/>
    <path d="M7.92827 4.71382L7.8175 4.3692L7.70673 4.71382H7.3498L7.64519 4.92305L7.52211 5.25536L7.8175 5.04613L8.11288 5.25536L7.98981 4.92305L8.28519 4.71382H7.92827Z" fill="white"/>
    <path d="M4.88824 5.57537L4.77747 5.23075L4.6667 5.57537H4.30977L4.60516 5.7846L4.48208 6.11691L4.77747 5.90768L5.07285 6.11691L4.94978 5.7846L5.24516 5.57537H4.88824Z" fill="white"/>
    <path d="M6.91903 5.57537L6.79595 5.23075L6.68518 5.57537H6.31594L6.61133 5.7846L6.50056 6.11691L6.78364 5.90768L7.07903 6.11691L6.96826 5.7846L7.25134 5.57537H6.91903Z" fill="white"/>
    <path d="M3.879 6.43691L3.75592 6.09229L3.65745 6.43691H3.28822L3.58361 6.64614L3.47284 6.97846L3.75592 6.76922L4.0513 6.97846L3.94053 6.64614L4.22361 6.43691H3.879Z" fill="white"/>
    <path d="M5.89748 6.43691L5.78671 6.09229L5.67594 6.43691H5.31901L5.6144 6.64614L5.50363 6.97846L5.78671 6.76922L6.08209 6.97846L5.97132 6.64614L6.2544 6.43691H5.89748Z" fill="white"/>
    <path d="M7.92827 6.43691L7.8175 6.09229L7.70673 6.43691H7.3498L7.64519 6.64614L7.52211 6.97846L7.8175 6.76922L8.11288 6.97846L7.98981 6.64614L8.28519 6.43691H7.92827Z" fill="white"/>
    <path d="M2.85745 7.29846L2.74668 6.95384L2.63591 7.29846H2.27898L2.57437 7.50769L2.4636 7.84L2.74668 7.63077L3.04206 7.84L2.93129 7.50769L3.21437 7.29846H2.85745Z" fill="white"/>
    <path d="M4.88824 7.29846L4.77747 6.95384L4.6667 7.29846H4.30977L4.60516 7.50769L4.48208 7.84L4.77747 7.63077L5.07285 7.84L4.94978 7.50769L5.24516 7.29846H4.88824Z" fill="white"/>
    <path d="M6.91903 7.29846L6.79595 6.95384L6.68518 7.29846H6.31594L6.61133 7.50769L6.50056 7.84L6.78364 7.63077L7.07903 7.84L6.96826 7.50769L7.25134 7.29846H6.91903Z" fill="white"/>
    <path d="M1.84821 8.16L1.73744 7.81539L1.62666 8.16H1.26974L1.56513 8.36924L1.44205 8.70155L1.73744 8.49231L2.03282 8.70155L1.90974 8.36924L2.20513 8.16H1.84821Z" fill="white"/>
    <path d="M3.879 8.16L3.75592 7.81539L3.65745 8.16H3.28822L3.58361 8.36924L3.47284 8.70155L3.75592 8.49231L4.0513 8.70155L3.94053 8.36924L4.22361 8.16H3.879Z" fill="white"/>
    <path d="M5.89748 8.16L5.78671 7.81539L5.67594 8.16H5.31901L5.6144 8.36924L5.50363 8.70155L5.78671 8.49231L6.08209 8.70155L5.97132 8.36924L6.2544 8.16H5.89748Z" fill="white"/>
    <path d="M7.92827 8.16L7.8175 7.81539L7.70673 8.16H7.3498L7.64519 8.36924L7.52211 8.70155L7.8175 8.49231L8.11288 8.70155L7.98981 8.36924L8.28519 8.16H7.92827Z" fill="white"/>
    <path d="M2.85745 9.02155L2.74668 8.67693L2.63591 9.02155H2.27898L2.57437 9.23078L2.4636 9.56309L2.74668 9.35386L3.04206 9.56309L2.93129 9.23078L3.21437 9.02155H2.85745Z" fill="white"/>
    <path d="M4.88824 9.02155L4.77747 8.67693L4.6667 9.02155H4.30977L4.60516 9.23078L4.48208 9.56309L4.77747 9.35386L5.07285 9.56309L4.94978 9.23078L5.24516 9.02155H4.88824Z" fill="white"/>
    <path d="M6.91903 9.02155L6.79595 8.67693L6.68518 9.02155H6.31594L6.61133 9.23078L6.50056 9.56309L6.78364 9.35386L7.07903 9.56309L6.96826 9.23078L7.25134 9.02155H6.91903Z" fill="white"/>
    <path d="M1.84821 9.88309L1.73744 9.53848L1.62666 9.88309H1.26974L1.56513 10.0923L1.44205 10.4246L1.73744 10.2154L2.03282 10.4246L1.90974 10.0923L2.20513 9.88309H1.84821Z" fill="white"/>
    <path d="M3.879 9.88309L3.75592 9.53848L3.65745 9.88309H3.28822L3.58361 10.0923L3.47284 10.4246L3.75592 10.2154L4.0513 10.4246L3.94053 10.0923L4.22361 9.88309H3.879Z" fill="white"/>
    <path d="M5.89748 9.88309L5.78671 9.53848L5.67594 9.88309H5.31901L5.6144 10.0923L5.50363 10.4246L5.78671 10.2154L6.08209 10.4246L5.97132 10.0923L6.2544 9.88309H5.89748Z" fill="white"/>
    <path d="M7.92827 9.88309L7.8175 9.53848L7.70673 9.88309H7.3498L7.64519 10.0923L7.52211 10.4246L7.8175 10.2154L8.11288 10.4246L7.98981 10.0923L8.28519 9.88309H7.92827Z" fill="white"/>
    <path d="M0.838965 10.7446L0.715887 10.4L0.617424 10.7446H0.24819L0.543577 10.9539L0.432807 11.2862L0.715887 11.077L1.01127 11.2862L0.900504 10.9539L1.18358 10.7446H0.838965Z" fill="white"/>
    <path d="M2.85745 10.7446L2.74668 10.4L2.63591 10.7446H2.27898L2.57437 10.9539L2.4636 11.2862L2.74668 11.077L3.04206 11.2862L2.93129 10.9539L3.21437 10.7446H2.85745Z" fill="white"/>
    <path d="M4.88824 10.7446L4.77747 10.4L4.6667 10.7446H4.30977L4.60516 10.9539L4.48208 11.2862L4.77747 11.077L5.07285 11.2862L4.94978 10.9539L5.24516 10.7446H4.88824Z" fill="white"/>
    <path d="M6.91903 10.7446L6.79595 10.4L6.68518 10.7446H6.31594L6.61133 10.9539L6.50056 11.2862L6.78364 11.077L7.07903 11.2862L6.96826 10.9539L7.25134 10.7446H6.91903Z" fill="white"/>
    <path d="M1.84821 11.6062L1.73744 11.2616L1.62666 11.6062H1.26974L1.56513 11.8154L1.44205 12.1477L1.73744 11.9385L2.03282 12.1477L1.90974 11.8154L2.20513 11.6062H1.84821Z" fill="white"/>
    <path d="M3.879 11.6062L3.75592 11.2616L3.65745 11.6062H3.28822L3.58361 11.8154L3.47284 12.1477L3.75592 11.9385L4.0513 12.1477L3.94053 11.8154L4.22361 11.6062H3.879Z" fill="white"/>
    <path d="M5.89748 11.6062L5.78671 11.2616L5.67594 11.6062H5.31901L5.6144 11.8154L5.50363 12.1477L5.78671 11.9385L6.08209 12.1477L5.97132 11.8154L6.2544 11.6062H5.89748Z" fill="white"/>
    <path d="M7.92827 11.6062L7.8175 11.2616L7.70673 11.6062H7.3498L7.64519 11.8154L7.52211 12.1477L7.8175 11.9385L8.11288 12.1477L7.98981 11.8154L8.28519 11.6062H7.92827Z" fill="white"/>
</svg>
