<svg width="24" height="24" viewBox="0 0 24 24" fill="none" xmlns="http://www.w3.org/2000/svg">
    <path d="M1.8864 5.53852C2.31067 4.87582 2.79829 4.25758 3.34071 3.69234H20.6593C21.2017 4.25758 21.6893 4.87582 22.1136 5.53852H1.8864Z" fill="#BD3D44"/>
    <path d="M0.321084 9.23086C0.471424 8.59439 0.672446 7.9775 0.919656 7.38469H23.0803C23.3276 7.9775 23.5286 8.59439 23.6789 9.23086H0.321084Z" fill="#BD3D44"/>
    <path d="M0.0349847 12.9232C0.0118029 12.6185 0 12.3106 0 12C0 11.6894 0.0117968 11.3816 0.0349668 11.077H23.965C23.9882 11.3816 24 11.6894 24 12C24 12.3106 23.9882 12.6185 23.965 12.9232H0.0349847Z" fill="#BD3D44"/>
    <path d="M0.919754 16.6155C0.67253 16.0227 0.471493 15.4058 0.321139 14.7694H23.6789C23.5285 15.4058 23.3275 16.0227 23.0802 16.6155H0.919754Z" fill="#BD3D44"/>
    <path d="M3.34094 20.3079C2.79849 19.7427 2.31084 19.1244 1.88655 18.4617H22.1135C21.6892 19.1244 21.2015 19.7427 20.6591 20.3079H3.34094Z" fill="#BD3D44"/>
    <path d="M18.3978 22.1541C16.546 23.3233 14.352 24 12 24C9.64799 24 7.45402 23.3233 5.60215 22.1541H18.3978Z" fill="#BD3D44"/>
    <path d="M18.3982 1.84617H5.60178C7.45373 0.676754 9.64783 0 12 0C14.3522 0 16.5463 0.676754 18.3982 1.84617Z" fill="#BD3D44"/>
    <path d="M23.6789 9.23088C23.8204 9.83016 23.917 10.4468 23.965 11.0771H0.0349121C0.0828493 10.4468 0.179471 9.83016 0.321026 9.23088H23.6789Z" fill="white"/>
    <path d="M22.1136 5.53853C22.4868 6.12147 22.8109 6.73879 23.0803 7.38471H0.919595C1.18895 6.73879 1.51313 6.12147 1.88633 5.53853H22.1136Z" fill="white"/>
    <path d="M18.3982 1.84619C19.2257 2.3687 19.9848 2.98957 20.6593 3.69236H3.34064C4.01507 2.98957 4.77423 2.3687 5.6017 1.84619H18.3982Z" fill="white"/>
    <path d="M23.6788 14.7694C23.8204 14.1701 23.917 13.5535 23.965 12.9232H0.0349328C0.0828844 13.5535 0.179521 14.1701 0.32109 14.7694H23.6788Z" fill="white"/>
    <path d="M23.0802 16.6156H0.919708C1.18908 17.2615 1.51328 17.8788 1.88651 18.4617H22.1134C22.4866 17.8788 22.8108 17.2615 23.0802 16.6156Z" fill="white"/>
    <path d="M20.659 20.3079H3.3409C4.01539 21.0107 4.7746 21.6316 5.60213 22.1541H18.3978C19.2253 21.6316 19.9845 21.0107 20.659 20.3079Z" fill="white"/>
    <path d="M13.2402 0.0633075V12.9232H0.0349847C0.0118029 12.6185 0 12.3106 0 12C0 5.37258 5.37258 0 12 0C12.4187 0 12.8325 0.0214487 13.2402 0.0633075Z" fill="#192F5D"/>
    <path d="M5.82813 1.70674C5.88083 1.67507 5.9338 1.64379 5.98702 1.61291L6.07708 1.88308L5.82813 1.70674Z" fill="white"/>
    <path d="M4.176 2.90111C4.24787 2.83925 4.32049 2.77823 4.39383 2.71805L4.56322 3.17539L4.176 2.90111Z" fill="white"/>
    <path d="M2.80208 4.29256C2.84407 4.2425 2.88646 4.19278 2.92925 4.14343L3.04936 4.46771L2.80208 4.29256Z" fill="white"/>
    <path d="M1.062 7.05726C1.067 7.04621 1.07202 7.03516 1.07706 7.02412L1.25857 7.53235H1.7755L1.35088 7.8462L1.51703 8.34467L1.07395 8.03082L0.649333 8.34467L0.815488 7.8462L0.754437 7.80296C0.788312 7.71223 0.823254 7.62203 0.859247 7.53235H0.926258L1.062 7.05726Z" fill="white"/>
    <path d="M0.00200386 12.2208L0.0031724 12.2216L0.00195312 12.218L0.00200386 12.2208Z" fill="white"/>
    <path d="M0.00662674 11.5978C0.00869996 11.5348 0.0112581 11.472 0.0142974 11.4093H0.261637L0.00662674 11.5978Z" fill="white"/>
    <path d="M8.84634 1.07076L8.68018 0.553833L8.49556 1.07076H7.96017L8.40325 1.38461L8.2371 1.88308L8.66172 1.56923L9.12326 1.88308L8.93864 1.38461L9.38173 1.07076H8.84634Z" fill="white"/>
    <path d="M11.8925 1.07076L11.7264 0.553833L11.5602 1.07076H11.0248L11.4679 1.38461L11.2833 1.88308L11.7264 1.56923L12.1694 1.88308L11.9848 1.38461L12.4279 1.07076H11.8925Z" fill="white"/>
    <path d="M7.33248 2.36308L7.16632 1.84615L7.00016 2.36308H6.46477L6.90786 2.67693L6.72324 3.17539L7.16632 2.86155L7.6094 3.17539L7.42478 2.67693L7.86786 2.36308H7.33248Z" fill="white"/>
    <path d="M10.3787 2.36308L10.194 1.84615L10.0279 2.36308H9.47403L9.91712 2.67693L9.75096 3.17539L10.1756 2.86155L10.6187 3.17539L10.4525 2.67693L10.8771 2.36308H10.3787Z" fill="white"/>
    <path d="M5.81861 3.6554L5.634 3.13847L5.4863 3.6554H4.93245L5.37553 3.96925L5.20938 4.46771L5.634 4.15386L6.07708 4.46771L5.91092 3.96925L6.33554 3.6554H5.81861Z" fill="white"/>
    <path d="M8.84634 3.6554L8.68018 3.13847L8.51402 3.6554H7.97864L8.42172 3.96925L8.25556 4.46771L8.68018 4.15386L9.12326 4.46771L8.95711 3.96925L9.38173 3.6554H8.84634Z" fill="white"/>
    <path d="M11.8925 3.6554L11.7264 3.13847L11.5602 3.6554H11.0248L11.4679 3.96925L11.2833 4.46771L11.7264 4.15386L12.1694 4.46771L11.9848 3.96925L12.4279 3.6554H11.8925Z" fill="white"/>
    <path d="M4.28629 4.94772L4.12014 4.43079L3.95398 4.94772H3.41859L3.86167 5.26157L3.69552 5.76003L4.12014 5.44618L4.56322 5.76003L4.39706 5.26157L4.82168 4.94772H4.28629Z" fill="white"/>
    <path d="M7.33248 4.94772L7.16632 4.43079L7.00016 4.94772H6.46477L6.90786 5.26157L6.72324 5.76003L7.16632 5.44618L7.6094 5.76003L7.42478 5.26157L7.86786 4.94772H7.33248Z" fill="white"/>
    <path d="M10.3787 4.94772L10.194 4.43079L10.0279 4.94772H9.47403L9.91712 5.26157L9.75096 5.76003L10.1756 5.44618L10.6187 5.76003L10.4525 5.26157L10.8771 4.94772H10.3787Z" fill="white"/>
    <path d="M2.77243 6.24004L2.60628 5.72311L2.44012 6.24004H1.90473L2.34781 6.55388L2.16319 7.05235L2.60628 6.7385L3.04936 7.05235L2.86474 6.55388L3.30782 6.24004H2.77243Z" fill="white"/>
    <path d="M5.81861 6.24004L5.634 5.72311L5.4863 6.24004H4.93245L5.37553 6.55388L5.20938 7.05235L5.634 6.7385L6.07708 7.05235L5.91092 6.55388L6.33554 6.24004H5.81861Z" fill="white"/>
    <path d="M8.84634 6.24004L8.68018 5.72311L8.51402 6.24004H7.97864L8.42172 6.55388L8.25556 7.05235L8.68018 6.7385L9.12326 7.05235L8.95711 6.55388L9.38173 6.24004H8.84634Z" fill="white"/>
    <path d="M11.8925 6.24004L11.7264 5.72311L11.5602 6.24004H11.0248L11.4679 6.55388L11.2833 7.05235L11.7264 6.7385L12.1694 7.05235L11.9848 6.55388L12.4279 6.24004H11.8925Z" fill="white"/>
    <path d="M4.28629 7.53235L4.12014 7.01543L3.95398 7.53235H3.41859L3.86167 7.8462L3.69552 8.34467L4.12014 8.03082L4.56322 8.34467L4.39706 7.8462L4.82168 7.53235H4.28629Z" fill="white"/>
    <path d="M7.33248 7.53235L7.16632 7.01543L7.00016 7.53235H6.46477L6.90786 7.8462L6.72324 8.34467L7.16632 8.03082L7.6094 8.34467L7.42478 7.8462L7.86786 7.53235H7.33248Z" fill="white"/>
    <path d="M10.3787 7.53235L10.194 7.01543L10.0279 7.53235H9.47403L9.91712 7.8462L9.75096 8.34467L10.1756 8.03082L10.6187 8.34467L10.4525 7.8462L10.8771 7.53235H10.3787Z" fill="white"/>
    <path d="M2.77243 8.82467L2.60628 8.30775L2.44012 8.82467H1.90473L2.34781 9.13852L2.16319 9.63699L2.60628 9.32314L3.04936 9.63699L2.86474 9.13852L3.30782 8.82467H2.77243Z" fill="white"/>
    <path d="M5.81861 8.82467L5.634 8.30775L5.4863 8.82467H4.93245L5.37553 9.13852L5.20938 9.63699L5.634 9.32314L6.07708 9.63699L5.91092 9.13852L6.33554 8.82467H5.81861Z" fill="white"/>
    <path d="M8.84634 8.82467L8.68018 8.30775L8.51402 8.82467H7.97864L8.42172 9.13852L8.25556 9.63699L8.68018 9.32314L9.12326 9.63699L8.95711 9.13852L9.38173 8.82467H8.84634Z" fill="white"/>
    <path d="M11.8925 8.82467L11.7264 8.30775L11.5602 8.82467H11.0248L11.4679 9.13852L11.2833 9.63699L11.7264 9.32314L12.1694 9.63699L11.9848 9.13852L12.4279 8.82467H11.8925Z" fill="white"/>
    <path d="M1.25857 10.117L1.07395 9.60006L0.926258 10.117H0.372407L0.815488 10.4308L0.649333 10.9293L1.07395 10.6155L1.51703 10.9293L1.35088 10.4308L1.7755 10.117H1.25857Z" fill="white"/>
    <path d="M4.28629 10.117L4.12014 9.60006L3.95398 10.117H3.41859L3.86167 10.4308L3.69552 10.9293L4.12014 10.6155L4.56322 10.9293L4.39706 10.4308L4.82168 10.117H4.28629Z" fill="white"/>
    <path d="M7.33248 10.117L7.16632 9.60006L7.00016 10.117H6.46477L6.90786 10.4308L6.72324 10.9293L7.16632 10.6155L7.6094 10.9293L7.42478 10.4308L7.86786 10.117H7.33248Z" fill="white"/>
    <path d="M10.3787 10.117L10.194 9.60006L10.0279 10.117H9.47403L9.91712 10.4308L9.75096 10.9293L10.1756 10.6155L10.6187 10.9293L10.4525 10.4308L10.8771 10.117H10.3787Z" fill="white"/>
    <path d="M2.77243 11.4093L2.60628 10.8924L2.44012 11.4093H1.90473L2.34781 11.7232L2.16319 12.2216L2.60628 11.9078L3.04936 12.2216L2.86474 11.7232L3.30782 11.4093H2.77243Z" fill="white"/>
    <path d="M5.81861 11.4093L5.634 10.8924L5.4863 11.4093H4.93245L5.37553 11.7232L5.20938 12.2216L5.634 11.9078L6.07708 12.2216L5.91092 11.7232L6.33554 11.4093H5.81861Z" fill="white"/>
    <path d="M8.84634 11.4093L8.68018 10.8924L8.51402 11.4093H7.97864L8.42172 11.7232L8.25556 12.2216L8.68018 11.9078L9.12326 12.2216L8.95711 11.7232L9.38173 11.4093H8.84634Z" fill="white"/>
    <path d="M11.8925 11.4093L11.7264 10.8924L11.5602 11.4093H11.0248L11.4679 11.7232L11.2833 12.2216L11.7264 11.9078L12.1694 12.2216L11.9848 11.7232L12.4279 11.4093H11.8925Z" fill="white"/>
</svg>
