<svg width="24" height="24" viewBox="0 0 24 24" fill="none" xmlns="http://www.w3.org/2000/svg">
    <path d="M16 20C20.4183 20 24 16.4183 24 12C24 7.58172 20.4183 4 16 4C11.5817 4 8 7.58172 8 12C8 16.4183 11.5817 20 16 20Z" fill="#003399"/>
    <path d="M16.0002 6.54511L16.1678 7.10328L16.7516 7.09001L16.2713 7.42182L16.4644 7.97347L16 7.61964L15.5358 7.97328L15.729 7.42099L15.25 7.09001L15.8322 7.10324L16.0002 6.54511Z" fill="#FFCC00"/>
    <path d="M16.0002 16.0267L16.1678 16.5848L16.7516 16.5715L16.2713 16.9033L16.4644 17.455L16 17.1012L15.5356 17.455L15.729 16.9025L15.25 16.5715L15.8322 16.5848L16.0002 16.0267Z" fill="#FFCC00"/>
    <path d="M10.7947 12.7143L11.2592 12.3604L11.7233 12.714L11.5305 12.1628L12.0106 11.8309L11.427 11.8442L11.2594 11.285L11.0914 11.8442L10.5078 11.8309L10.9878 12.1627L10.7947 12.7143Z" fill="#FFCC00"/>
    <path d="M13.6874 7.21539L13.5197 7.77421L12.9375 7.76098L13.4168 8.09214L13.2235 8.64439L13.6878 8.29062L14.1522 8.64443L13.9591 8.09278L14.4394 7.76098L13.8551 7.77426L13.6874 7.21539Z" fill="#FFCC00"/>
    <path d="M11.9306 8.97388L12.0979 9.53207L12.6816 9.5188L12.2011 9.85094L12.3944 10.4012L11.9302 10.048L11.4657 10.4019L11.6591 9.8509L11.1787 9.5188L11.7625 9.53207L11.9306 8.97388Z" fill="#FFCC00"/>
    <path d="M11.9309 13.7247L12.0987 14.2839L12.6826 14.2706L12.2024 14.6025L12.3954 15.1534L11.9311 14.8001L11.4665 15.154L11.6597 14.6024L11.1797 14.2706L11.7633 14.2839L11.9309 13.7247Z" fill="#FFCC00"/>
    <path d="M13.6461 15.316L13.8134 15.8742L14.3975 15.861L13.9171 16.1929L14.11 16.7438L13.6458 16.3905L13.1814 16.7444L13.3745 16.1927L12.8943 15.8609L13.4781 15.8742L13.6461 15.316Z" fill="#FFCC00"/>
    <path d="M20.7411 11.286L20.9086 11.8442L21.4922 11.8309L21.0122 12.1628L21.2052 12.7137L20.741 12.3604L20.2765 12.7143L20.4697 12.1628L19.9895 11.8309L20.5732 11.8442L20.7411 11.286Z" fill="#FFCC00"/>
    <path d="M17.5608 7.76093L18.0411 8.09281L17.8481 8.64436L18.3124 8.29062L18.7766 8.64434L18.5834 8.09204L19.0621 7.76128L19.0627 7.76093L18.4805 7.77416L18.3127 7.21497L18.145 7.77421L17.5608 7.76093Z" fill="#FFCC00"/>
    <path d="M20.0698 8.97284L19.9021 9.53207L19.3186 9.5188L19.799 9.8509L19.6056 10.4019L20.07 10.048L20.5344 10.4019L20.341 9.85085L20.8214 9.5188L20.2377 9.53207L20.0698 8.97284Z" fill="#FFCC00"/>
    <path d="M20.069 13.7257L19.9015 14.2839L19.3176 14.2706L19.7977 14.6025L19.6046 15.154L20.0691 14.8001L20.5332 15.1537L20.3404 14.6025L20.8205 14.2706L20.2368 14.2839L20.069 13.7257Z" fill="#FFCC00"/>
    <path d="M18.3541 15.315L18.1865 15.8742L17.6025 15.8609L18.0828 16.1927L17.8896 16.7444L18.3541 16.3905L18.8182 16.7441L18.6254 16.1929L19.1057 15.861L18.5219 15.8742L18.3541 15.315Z" fill="#FFCC00"/>
    <path d="M8 20C12.4183 20 16 16.4183 16 12C16 7.58172 12.4183 4 8 4C3.58172 4 0 7.58172 0 12C0 16.4183 3.58172 20 8 20Z" fill="#F4AF3E"/>
    <path d="M3.39769 12.1042C3.43274 12.04 3.50008 12 3.57327 12H5.76006C5.83325 12 5.90059 12.04 5.93564 12.1042L7.172 14.3709C7.2447 14.5042 7.14824 14.6667 6.99643 14.6667H2.33691C2.1851 14.6667 2.08863 14.5042 2.16133 14.3709L3.39769 12.1042Z" fill="white"/>
    <path d="M10.0644 12.1042C10.0995 12.04 10.1668 12 10.24 12H12.4268C12.5 12 12.5673 12.04 12.6024 12.1042L13.8388 14.3709C13.9114 14.5042 13.815 14.6667 13.6632 14.6667H9.00366C8.85184 14.6667 8.75538 14.5042 8.82808 14.3709L10.0644 12.1042Z" fill="white"/>
    <path d="M6.73094 8.10423C6.76599 8.03998 6.83334 8 6.90652 8H9.09331C9.1665 8 9.23385 8.03998 9.26889 8.10423L10.5053 10.3709C10.578 10.5042 10.4815 10.6667 10.3297 10.6667H5.67016C5.51835 10.6667 5.42189 10.5042 5.49458 10.3709L6.73094 8.10423Z" fill="white"/>
</svg>
