<svg width="60" height="60" fill="none" xmlns="http://www.w3.org/2000/svg"><path fill-rule="evenodd" clip-rule="evenodd" d="M60 30c0 16.57-13.43 30-30 30S0 46.57 0 30 13.43 0 30 0s30 13.43 30 30z" fill="#2EABD9"/><path fill-rule="evenodd" clip-rule="evenodd" d="M36.704 12.632c-.55.079-1.099.16-1.645.246-1.465.22-2.69.935-3.748 1.932-1.011.957-1.674 2.132-2.044 3.484-.312 1.14-.328 2.292-.025 3.404.237.865.676 1.667 1.045 2.488.357.793.398 1.617.146 2.41-.373 1.165-1.229 1.863-2.445 2.027-1.39.19-2.57-.256-3.296-1.49-.622-1.068-1.343-2.018-2.369-2.726-2.318-1.598-4.819-1.879-7.396-.843-2.352.944-3.846 2.716-4.471 5.21-.401 1.627-.183 3.177.527 4.655.932 1.924 2.441 3.206 4.478 3.907 1.576.546 3.142.546 4.693.07 1.888-.588 3.36-1.772 4.377-3.484.4-.682.963-1.13 1.689-1.421 1.175-.47 2.792-.063 3.644.944.862 1.017.948 2.545.224 3.682-1.058 1.655-1.493 3.427-1.073 5.397.783 3.673 3.82 5.804 7.257 5.981.858.044 1.771-.167 2.599-.445 2.838-.957 4.575-2.937 5.08-5.909.354-2.08-.217-3.963-1.522-5.586-1.56-1.942-3.685-2.813-6.135-2.873-1.143-.029-2.03-.471-2.738-1.32-.66-.796-.805-1.76-.524-2.7.413-1.393 1.591-2.312 3.126-2.205.91.067 1.8-.053 2.665-.334 1.604-.518 2.96-1.387 3.98-2.764.738-1.007 1.237-2.125 1.373-3.334.1-.894-.038-1.832-.193-2.729-.202-1.137-.773-2.14-1.538-2.99-1.519-1.696-3.432-2.602-5.74-2.684z" fill="#fff"/></svg>