<svg width="72" height="72" viewBox="0 0 72 72" fill="none" xmlns="http://www.w3.org/2000/svg">
<g clip-path="url(#clip0)">
<path d="M46.4441 31.904H32.5664C32.4028 31.904 32.2459 31.839 32.1302 31.7233C32.0146 31.6077 31.9496 31.4508 31.9496 31.2872C31.9496 31.1236 32.0146 30.9667 32.1302 30.8511C32.2459 30.7354 32.4028 30.6704 32.5664 30.6704H46.4441C46.6077 30.6704 46.7646 30.7354 46.8803 30.8511C46.9959 30.9667 47.0609 31.1236 47.0609 31.2872C47.0609 31.4508 46.9959 31.6077 46.8803 31.7233C46.7646 31.839 46.6077 31.904 46.4441 31.904Z" fill="black"/>
<path d="M51.6457 36.3038H32.5664C32.4854 36.3038 32.4052 36.2878 32.3303 36.2568C32.2555 36.2258 32.1875 36.1804 32.1302 36.1231C32.0729 36.0658 32.0275 35.9978 31.9965 35.923C31.9655 35.8482 31.9496 35.768 31.9496 35.687C31.9496 35.606 31.9655 35.5258 31.9965 35.4509C32.0275 35.3761 32.0729 35.3081 32.1302 35.2508C32.1875 35.1936 32.2555 35.1481 32.3303 35.1171C32.4052 35.0861 32.4854 35.0702 32.5664 35.0702H51.6457C51.7267 35.0702 51.8069 35.0861 51.8818 35.1171C51.9566 35.1481 52.0246 35.1936 52.0819 35.2508C52.1392 35.3081 52.1846 35.3761 52.2156 35.4509C52.2466 35.5258 52.2625 35.606 52.2625 35.687C52.2625 35.768 52.2466 35.8482 52.2156 35.923C52.1846 35.9978 52.1392 36.0658 52.0819 36.1231C52.0246 36.1804 51.9566 36.2258 51.8818 36.2568C51.8069 36.2878 51.7267 36.3038 51.6457 36.3038Z" fill="black"/>
<path d="M56.5389 40.868H32.5664C32.4028 40.868 32.2459 40.803 32.1302 40.6874C32.0146 40.5717 31.9496 40.4148 31.9496 40.2512C31.9496 40.0876 32.0146 39.9308 32.1302 39.8151C32.2459 39.6994 32.4028 39.6344 32.5664 39.6344H56.5389C56.7025 39.6344 56.8594 39.6994 56.9751 39.8151C57.0908 39.9308 57.1557 40.0876 57.1557 40.2512C57.1557 40.4148 57.0908 40.5717 56.9751 40.6874C56.8594 40.803 56.7025 40.868 56.5389 40.868Z" fill="black"/>
<path d="M26.0901 40.899H17.4756C17.3425 40.9007 17.2104 40.8749 17.0878 40.8231C16.9651 40.7714 16.8545 40.6949 16.7628 40.5983C16.6711 40.5018 16.6003 40.3874 16.5549 40.2622C16.5095 40.1371 16.4905 40.0039 16.499 39.871V31.1948C16.5115 30.9399 16.6184 30.6986 16.7989 30.5181C16.9794 30.3376 17.2206 30.2307 17.4756 30.2183H26.1209C26.3759 30.2307 26.6172 30.3376 26.7977 30.5181C26.9782 30.6986 27.0851 30.9399 27.0975 31.1948V39.9224C27.099 40.0537 27.0738 40.184 27.0233 40.3052C26.9728 40.4264 26.8981 40.536 26.8039 40.6274C26.7096 40.7188 26.5977 40.79 26.475 40.8367C26.3522 40.8834 26.2213 40.9046 26.0901 40.899ZM17.7018 39.6654H25.8331V31.4416H17.7018V39.6654Z" fill="#48A6EB"/>
<path d="M17.6918 25.1195C17.5799 25.1182 17.4704 25.0871 17.3746 25.0293C17.2788 24.9714 17.2002 24.889 17.147 24.7905C17.0735 24.6455 17.0593 24.4776 17.1072 24.3222C17.1552 24.1669 17.2616 24.0363 17.404 23.9579L29.2258 17.7283L41.1196 23.0841L51.0807 14.4696C51.142 14.4159 51.2133 14.3749 51.2905 14.349C51.3677 14.323 51.4493 14.3126 51.5305 14.3183C51.6117 14.3241 51.691 14.3458 51.7638 14.3824C51.8366 14.4189 51.9014 14.4695 51.9545 14.5312C52.0603 14.6561 52.1131 14.8174 52.1016 14.9807C52.09 15.1439 52.0151 15.2962 51.8929 15.405L41.3766 24.5335L29.2669 19.1058L17.9591 25.0475C17.8773 25.0933 17.7855 25.118 17.6918 25.1195Z" fill="#48A6EB"/>
<path d="M51.9648 21.0795C51.8171 21.0674 51.6787 21.0026 51.5749 20.8969C51.4711 20.7912 51.4088 20.6517 51.3994 20.5038V15.1891H46.0436C45.88 15.1891 45.7231 15.1242 45.6075 15.0085C45.4918 14.8928 45.4268 14.7359 45.4268 14.5724C45.4268 14.4088 45.4918 14.2519 45.6075 14.1362C45.7231 14.0205 45.88 13.9556 46.0436 13.9556H52.5816V20.5038C52.5711 20.6602 52.5016 20.8067 52.387 20.9136C52.2725 21.0205 52.1215 21.0798 51.9648 21.0795Z" fill="#48A6EB"/>
<path d="M70.5604 10.1005H1.43881C1.05712 10.1005 0.691055 9.94889 0.421157 9.67899C0.151259 9.40909 -0.000368093 9.04303 -0.000368093 8.66134V3.43918C-0.000368093 3.05748 0.151259 2.69142 0.421157 2.42153C0.691055 2.15163 1.05712 2 1.43881 2H70.5604C70.935 2.0107 71.2906 2.16705 71.5516 2.43579C71.8127 2.70454 71.9587 3.0645 71.9585 3.43918V8.66134C71.9587 9.03601 71.8127 9.39597 71.5516 9.66472C71.2906 9.93347 70.935 10.0898 70.5604 10.1005ZM1.43881 3.23358C1.38428 3.23358 1.33199 3.25524 1.29343 3.2938C1.25487 3.33236 1.23321 3.38465 1.23321 3.43918V8.66134C1.23321 8.71586 1.25487 8.76816 1.29343 8.80672C1.33199 8.84527 1.38428 8.86693 1.43881 8.86693H70.5604C70.5874 8.86693 70.6142 8.86161 70.6391 8.85128C70.6641 8.84095 70.6867 8.82581 70.7058 8.80672C70.7249 8.78762 70.7401 8.76496 70.7504 8.74001C70.7607 8.71507 70.766 8.68834 70.766 8.66134V3.43918C70.766 3.41218 70.7607 3.38544 70.7504 3.3605C70.7401 3.33555 70.7249 3.31289 70.7058 3.2938C70.6867 3.27471 70.6641 3.25956 70.6391 3.24923C70.6142 3.2389 70.5874 3.23358 70.5604 3.23358H1.43881Z" fill="black"/>
<path d="M70.5605 53.317H1.43882C1.05713 53.317 0.691065 53.1653 0.421167 52.8954C0.151269 52.6255 -0.000358465 52.2595 -0.000358465 51.8778V46.6556C-0.00585865 46.4632 0.0273021 46.2716 0.097161 46.0922C0.16702 45.9129 0.272157 45.7493 0.406349 45.6113C0.54054 45.4733 0.701059 45.3636 0.878404 45.2887C1.05575 45.2138 1.24631 45.1753 1.43882 45.1753H70.5605C70.9422 45.1753 71.3082 45.327 71.5781 45.5969C71.848 45.8668 71.9996 46.2328 71.9996 46.6145V51.8367C72.0051 52.0291 71.972 52.2207 71.9021 52.4001C71.8323 52.5794 71.7271 52.743 71.5929 52.881C71.4587 53.019 71.2982 53.1287 71.1209 53.2036C70.9435 53.2785 70.753 53.317 70.5605 53.317ZM1.43882 46.45C1.38429 46.45 1.332 46.4717 1.29344 46.5103C1.25488 46.5488 1.23322 46.6011 1.23322 46.6556V51.8778C1.23322 51.9323 1.25488 51.9846 1.29344 52.0232C1.332 52.0617 1.38429 52.0834 1.43882 52.0834H70.5605C70.5875 52.0834 70.6142 52.0781 70.6391 52.0677C70.6641 52.0574 70.6867 52.0423 70.7058 52.0232C70.7249 52.0041 70.7401 51.9814 70.7504 51.9565C70.7607 51.9315 70.7661 51.9048 70.7661 51.8778V46.6556C70.7661 46.6286 70.7607 46.6019 70.7504 46.577C70.7401 46.552 70.7249 46.5293 70.7058 46.5103C70.6867 46.4912 70.6641 46.476 70.6391 46.4657C70.6142 46.4553 70.5875 46.45 70.5605 46.45H1.43882Z" fill="black"/>
<path d="M6.57875 9.8024H5.34517V45.9155H6.57875V9.8024Z" fill="black"/>
<path d="M66.3868 9.8024H65.1533V45.9155H66.3868V9.8024Z" fill="black"/>
<path d="M30.3975 52.916H29.1639V64.6248H30.3975V52.916Z" fill="black"/>
<path d="M42.8362 52.916H41.6026V64.6248H42.8362V52.916Z" fill="black"/>
<path d="M51.0907 69.518H20.9091V65.3444C20.9091 65.1972 20.9381 65.0515 20.9944 64.9156C21.0507 64.7796 21.1332 64.6561 21.2373 64.5521C21.3413 64.448 21.4648 64.3655 21.6008 64.3092C21.7367 64.2529 21.8824 64.2239 22.0296 64.2239H49.9599C50.1079 64.2225 50.2547 64.2505 50.3919 64.3062C50.529 64.3619 50.6537 64.4442 50.7589 64.5484C50.864 64.6526 50.9475 64.7766 51.0044 64.9132C51.0614 65.0498 51.0907 65.1964 51.0907 65.3444V69.518ZM22.1427 68.2844H49.8982V65.4575H22.1427V68.2844Z" fill="black"/>
</g>
<defs>
<clipPath id="clip0">
<rect width="72" height="72" fill="white"/>
</clipPath>
</defs>
</svg>
