<svg width="72" height="72" viewBox="0 0 72 72" fill="none" xmlns="http://www.w3.org/2000/svg">
<path d="M16.9743 25.7781C16.4293 25.7762 15.8971 25.6127 15.445 25.3085C14.9929 25.0044 14.6413 24.573 14.4345 24.0692C14.2278 23.5653 14.1752 23.0115 14.2835 22.4777C14.3917 21.944 14.656 21.4543 15.0428 21.0707C15.4296 20.687 15.9216 20.4265 16.4565 20.3222C16.9915 20.2179 17.5454 20.2744 18.0481 20.4847C18.5509 20.6949 18.9801 21.0494 19.2812 21.5033C19.5824 21.9571 19.7421 22.4901 19.7401 23.0347C19.7348 23.7641 19.4411 24.4619 18.923 24.9758C18.4049 25.4898 17.7044 25.7782 16.9743 25.7781ZM16.9743 21.4684C16.6643 21.4684 16.3612 21.5602 16.1034 21.7323C15.8456 21.9044 15.6447 22.1491 15.5261 22.4353C15.4074 22.7215 15.3764 23.0364 15.4369 23.3402C15.4973 23.6441 15.6466 23.9231 15.8659 24.1422C16.0851 24.3612 16.3644 24.5104 16.6685 24.5708C16.9726 24.6313 17.2878 24.6003 17.5742 24.4817C17.8607 24.3632 18.1055 24.1624 18.2778 23.9048C18.45 23.6473 18.5419 23.3444 18.5419 23.0347C18.5419 22.6193 18.3768 22.2209 18.0828 21.9271C17.7888 21.6334 17.3901 21.4684 16.9743 21.4684Z" fill="#48A6EB"/>
<path d="M17.0343 31.5444C14.3284 31.5444 11.5227 31.5444 11.5227 28.9007C11.5227 26.5363 13.9989 24.6209 17.0343 24.6209C20.0696 24.6209 22.5358 26.5363 22.5358 28.9007C22.5358 31.5444 19.7401 31.5444 17.0343 31.5444ZM17.0343 25.818C14.6579 25.818 12.7208 27.2047 12.7208 28.9007C12.7208 30.2176 13.9689 30.3473 17.0343 30.3473C20.0996 30.3473 21.3377 30.2176 21.3377 28.9007C21.3377 27.2047 19.4106 25.818 17.0343 25.818Z" fill="#48A6EB"/>
<path d="M70.6021 68.9756H1.39786C1.02713 68.9756 0.671575 68.8285 0.409425 68.5665C0.147275 68.3046 0 67.9494 0 67.5789V5.39668C0 5.02626 0.147275 4.67101 0.409425 4.40908C0.671575 4.14715 1.02713 4 1.39786 4H70.6021C70.9729 4 71.3284 4.14715 71.5906 4.40908C71.8527 4.67101 72 5.02626 72 5.39668V67.5789C72 67.9494 71.8527 68.3046 71.5906 68.5665C71.3284 68.8285 70.9729 68.9756 70.6021 68.9756ZM1.39786 5.19716C1.3449 5.19716 1.29411 5.21818 1.25666 5.2556C1.21921 5.29301 1.19817 5.34376 1.19817 5.39668V67.5789C1.19817 67.6319 1.21921 67.6826 1.25666 67.72C1.29411 67.7574 1.3449 67.7785 1.39786 67.7785H70.6021C70.6551 67.7785 70.7059 67.7574 70.7433 67.72C70.7808 67.6826 70.8018 67.6319 70.8018 67.5789V5.39668C70.8018 5.34376 70.7808 5.29301 70.7433 5.2556C70.7059 5.21818 70.6551 5.19716 70.6021 5.19716H1.39786Z" fill="black"/>
<path d="M71.4008 13.3079H0.598942V14.505H71.4008V13.3079Z" fill="black"/>
<path d="M53.5283 21.6181H26.6893C26.5304 21.6181 26.378 21.555 26.2657 21.4427C26.1533 21.3305 26.0902 21.1782 26.0902 21.0195C26.0902 20.8607 26.1533 20.7085 26.2657 20.5962C26.378 20.484 26.5304 20.4209 26.6893 20.4209H53.5283C53.607 20.4209 53.6849 20.4364 53.7576 20.4665C53.8302 20.4965 53.8963 20.5406 53.9519 20.5962C54.0076 20.6518 54.0517 20.7178 54.0818 20.7904C54.1119 20.863 54.1274 20.9409 54.1274 21.0195C54.1274 21.0981 54.1119 21.1759 54.0818 21.2485C54.0517 21.3212 54.0076 21.3872 53.9519 21.4427C53.8963 21.4983 53.8302 21.5424 53.7576 21.5725C53.6849 21.6026 53.607 21.6181 53.5283 21.6181Z" fill="black"/>
<path d="M45.231 26.2072H26.6893C26.5304 26.2072 26.378 26.1441 26.2657 26.0318C26.1533 25.9196 26.0902 25.7673 26.0902 25.6086C26.0902 25.4498 26.1533 25.2976 26.2657 25.1853C26.378 25.0731 26.5304 25.01 26.6893 25.01H45.231C45.3899 25.01 45.5422 25.0731 45.6546 25.1853C45.7669 25.2976 45.8301 25.4498 45.8301 25.6086C45.8301 25.7673 45.7669 25.9196 45.6546 26.0318C45.5422 26.1441 45.3899 26.2072 45.231 26.2072Z" fill="black"/>
<path d="M53.9676 30.8062H26.6893C26.5304 30.8062 26.378 30.7432 26.2657 30.6309C26.1533 30.5187 26.0902 30.3664 26.0902 30.2076C26.0902 30.0489 26.1533 29.8966 26.2657 29.7844C26.378 29.6721 26.5304 29.6091 26.6893 29.6091H53.9676C54.1265 29.6091 54.2789 29.6721 54.3912 29.7844C54.5036 29.8966 54.5667 30.0489 54.5667 30.2076C54.5667 30.3664 54.5036 30.5187 54.3912 30.6309C54.2789 30.7432 54.1265 30.8062 53.9676 30.8062Z" fill="black"/>
<path d="M23.3344 57.872H9.86502C9.78552 57.8733 9.70654 57.8588 9.6327 57.8293C9.55886 57.7998 9.49163 57.7559 9.43494 57.7002C9.37825 57.6445 9.33322 57.5781 9.30249 57.5048C9.27176 57.4315 9.25594 57.3529 9.25596 57.2734C9.25594 57.1939 9.27176 57.1153 9.30249 57.042C9.33322 56.9687 9.37825 56.9023 9.43494 56.8466C9.49163 56.7909 9.55886 56.747 9.6327 56.7175C9.70654 56.688 9.78552 56.6735 9.86502 56.6748H23.3344C23.4933 56.6748 23.6457 56.7379 23.7581 56.8501C23.8704 56.9624 23.9335 57.1146 23.9335 57.2734C23.9349 57.3524 23.9203 57.4308 23.8907 57.5041C23.8611 57.5773 23.817 57.6438 23.7611 57.6997C23.7052 57.7555 23.6386 57.7996 23.5653 57.8292C23.492 57.8588 23.4135 57.8733 23.3344 57.872Z" fill="#48A6EB"/>
<path d="M20.3888 53.9812H9.86491C9.78043 53.9922 9.69458 53.985 9.61309 53.9602C9.5316 53.9354 9.45634 53.8935 9.39234 53.8373C9.32834 53.7812 9.27706 53.712 9.24194 53.6344C9.20681 53.5569 9.18864 53.4728 9.18864 53.3876C9.18864 53.3025 9.20681 53.2184 9.24194 53.1408C9.27706 53.0633 9.32834 52.9941 9.39234 52.9379C9.45634 52.8818 9.5316 52.8399 9.61309 52.8151C9.69458 52.7902 9.78043 52.7831 9.86491 52.7941H20.3888C20.4733 52.7831 20.5592 52.7902 20.6407 52.8151C20.7221 52.8399 20.7974 52.8818 20.8614 52.9379C20.9254 52.9941 20.9767 53.0633 21.0118 53.1408C21.0469 53.2184 21.0651 53.3025 21.0651 53.3876C21.0651 53.4728 21.0469 53.5569 21.0118 53.6344C20.9767 53.712 20.9254 53.7812 20.8614 53.8373C20.7974 53.8935 20.7221 53.9354 20.6407 53.9602C20.5592 53.985 20.4733 53.9922 20.3888 53.9812Z" fill="#48A6EB"/>
<path d="M28.3966 61.673H9.8649C9.70601 61.673 9.55364 61.6099 9.44129 61.4976C9.32893 61.3854 9.26582 61.2331 9.26582 61.0744C9.26582 60.9156 9.32893 60.7634 9.44129 60.6511C9.55364 60.5389 9.70601 60.4758 9.8649 60.4758H28.3966C28.5555 60.4758 28.7079 60.5389 28.8202 60.6511C28.9326 60.7634 28.9957 60.9156 28.9957 61.0744C28.9957 61.2331 28.9326 61.3854 28.8202 61.4976C28.7079 61.6099 28.5555 61.673 28.3966 61.673Z" fill="#48A6EB"/>
<path d="M31.0225 48.9433H10.4439C10.1791 48.9433 9.92515 48.8382 9.7379 48.6511C9.55065 48.464 9.44545 48.2103 9.44545 47.9457V39.5257C9.44545 39.2611 9.55065 39.0074 9.7379 38.8203C9.92515 38.6332 10.1791 38.5281 10.4439 38.5281H31.0225C31.2873 38.5281 31.5413 38.6332 31.7285 38.8203C31.9158 39.0074 32.021 39.2611 32.021 39.5257V47.9856C32.0106 48.2432 31.9009 48.4868 31.7148 48.6654C31.5286 48.8439 31.2805 48.9435 31.0225 48.9433ZM10.6935 47.7462H30.7829V39.7651H10.6935V47.7462Z" fill="black"/>
<path d="M49.9238 55.7272H49.8239C49.7059 55.7082 49.5962 55.6544 49.509 55.5726C49.4218 55.4908 49.3611 55.3848 49.3347 55.2683L48.2364 50.2801L47.2379 45.292C47.2144 45.1898 47.2187 45.0832 47.2503 44.9832C47.2819 44.8832 47.3397 44.7935 47.4176 44.7233C47.4965 44.6533 47.5926 44.6053 47.696 44.5843C47.7995 44.5633 47.9067 44.5699 48.0067 44.6036L52.9192 46.0901L57.8217 47.7162C57.9364 47.7543 58.0368 47.8261 58.1099 47.9222C58.1829 48.0184 58.2252 48.1343 58.2311 48.2549C58.2357 48.3762 58.204 48.4961 58.1399 48.5992C58.0759 48.7023 57.9825 48.7839 57.8716 48.8335L53.1089 50.9485L50.423 55.4279C50.3737 55.5174 50.3015 55.5922 50.2138 55.6448C50.1261 55.6973 50.026 55.7258 49.9238 55.7272ZM48.5858 45.9803L50.1734 53.5024L52.1703 50.1803C52.2355 50.0703 52.3332 49.9832 52.4499 49.9309L55.9146 48.3647L52.4899 47.2274L48.5858 45.9803Z" fill="black"/>
<path d="M63.0837 9.85609C63.4146 9.85609 63.6828 9.5881 63.6828 9.25751C63.6828 8.92693 63.4146 8.65894 63.0837 8.65894C62.7529 8.65894 62.4847 8.92693 62.4847 9.25751C62.4847 9.5881 62.7529 9.85609 63.0837 9.85609Z" fill="#48A6EB"/>
<path d="M61.0468 9.85609C61.3777 9.85609 61.6459 9.5881 61.6459 9.25751C61.6459 8.92693 61.3777 8.65894 61.0468 8.65894C60.716 8.65894 60.4477 8.92693 60.4477 9.25751C60.4477 9.5881 60.716 9.85609 61.0468 9.85609Z" fill="black"/>
<path d="M59.0296 9.85609C59.3605 9.85609 59.6287 9.5881 59.6287 9.25751C59.6287 8.92693 59.3605 8.65894 59.0296 8.65894C58.6988 8.65894 58.4305 8.92693 58.4305 9.25751C58.4305 9.5881 58.6988 9.85609 59.0296 9.85609Z" fill="black"/>
<path d="M9.52544 18.8646L10.0247 19.8623C10.0396 19.8878 10.0598 19.9099 10.0839 19.9271C10.108 19.9443 10.1354 19.9562 10.1645 19.962L11.2927 20.1217C11.3246 20.1273 11.3543 20.1415 11.3787 20.1626C11.4032 20.1837 11.4215 20.211 11.4317 20.2416C11.4419 20.2723 11.4437 20.3051 11.4368 20.3367C11.4299 20.3682 11.4146 20.3973 11.3926 20.4209L10.5738 21.2091C10.5539 21.2301 10.539 21.2554 10.5303 21.2831C10.5217 21.3108 10.5195 21.34 10.5239 21.3687L10.7136 22.486C10.7221 22.5185 10.7208 22.5527 10.7099 22.5844C10.6989 22.616 10.6788 22.6438 10.6521 22.6641C10.6254 22.6843 10.5933 22.6963 10.5598 22.6983C10.5263 22.7004 10.493 22.6925 10.464 22.6756L9.46553 22.1468C9.44162 22.1318 9.41393 22.1238 9.38566 22.1238C9.35739 22.1238 9.32969 22.1318 9.30578 22.1468L8.3073 22.6756C8.2848 22.7179 8.24638 22.7496 8.2005 22.7636C8.15462 22.7776 8.10505 22.7729 8.06268 22.7504C8.02031 22.7279 7.98862 22.6895 7.97457 22.6437C7.96053 22.5979 7.96528 22.5483 7.98779 22.506L8.1775 21.3886C8.18195 21.36 8.17977 21.3307 8.17111 21.303C8.16246 21.2754 8.14757 21.25 8.12758 21.229L7.30883 20.4409C7.28274 20.419 7.26384 20.3898 7.25457 20.3571C7.24531 20.3244 7.24611 20.2896 7.25688 20.2573C7.26765 20.225 7.28788 20.1968 7.31495 20.1761C7.34202 20.1555 7.37468 20.1435 7.40868 20.1416L8.56691 19.962C8.59521 19.9577 8.62195 19.9463 8.64465 19.9288C8.66734 19.9114 8.68525 19.8885 8.69671 19.8623L9.20593 18.8646C9.22105 18.8353 9.24396 18.8107 9.27214 18.7936C9.30032 18.7764 9.33268 18.7673 9.36569 18.7673C9.39869 18.7673 9.43106 18.7764 9.45924 18.7936C9.48742 18.8107 9.51032 18.8353 9.52544 18.8646Z" fill="black"/>
</svg>
