<svg width="72" height="72" viewBox="0 0 72 72" fill="none" xmlns="http://www.w3.org/2000/svg">
<g clip-path="url(#clip0)">
<path d="M56.8434 45.338L55.6556 44.8819C55.8913 44.3058 56.0172 43.6908 56.0268 43.0684C56.0268 38.6247 50.2575 34.5841 41.9959 33.3114C41.4974 33.3114 40.3627 35.528 39.7581 36.7264C38.5597 39.049 37.531 41.064 36.1417 41.064C34.7524 41.064 33.4798 38.9429 32.292 36.7582C31.6026 35.4855 30.4254 33.3751 29.8739 33.4493C21.9729 34.8916 16.6596 38.752 16.6596 43.0684C16.6558 43.6881 16.7672 44.303 16.9884 44.8819L15.7263 45.338C15.4513 44.613 15.3112 43.8438 15.3127 43.0684C15.3127 38.1157 21.0396 33.7463 29.577 32.1979C31.0617 31.9221 32.1223 33.8947 33.3313 36.1537C34.1585 37.6915 35.2827 39.7913 36.0675 39.7913C36.6826 39.7913 37.8492 37.5006 38.5491 36.1431C39.7794 33.7357 40.7763 31.8373 42.1231 32.0494C51.1589 33.4811 57.2252 37.9036 57.2252 43.0684C57.237 43.8418 57.1076 44.6109 56.8434 45.338Z" fill="#48A6EB"/>
<path d="M36.1631 31.8163C35.3103 31.8986 34.4563 31.6729 33.7556 31.1799L33.6178 31.0951C27.7 29.7164 24.5608 26.3121 24.5926 21.2639C24.5926 20.5533 24.5926 19.4716 24.5926 18.3898C24.5926 17.3081 24.5926 16.2688 24.5926 15.5264C24.5863 15.4356 24.5995 15.3446 24.6314 15.2594C24.6633 15.1742 24.7131 15.0968 24.7774 15.0325C24.8418 14.9682 24.9191 14.9184 25.0043 14.8865C25.0895 14.8546 25.1806 14.8414 25.2713 14.8476C25.4402 14.8531 25.6005 14.9233 25.719 15.0437C25.8374 15.1642 25.905 15.3256 25.9076 15.4946C25.9076 16.2051 25.9076 17.2869 25.9076 18.3686C25.9076 19.4504 25.9076 20.4897 25.9076 21.2321C25.9076 25.6757 28.6014 28.571 33.989 29.8224C34.1859 29.8772 34.3698 29.971 34.5298 30.0982C35.008 30.4445 35.5968 30.603 36.1843 30.5436C36.7845 30.5707 37.3802 30.4273 37.9023 30.13C38.101 30.0171 38.3155 29.9349 38.5387 29.8861C43.8414 28.9104 46.8639 25.75 46.8639 21.2321V16.9899C46.731 15.7131 46.4608 14.4544 46.0579 13.2356C46.0233 13.0802 46.0482 12.9175 46.1277 12.7795C46.2072 12.6416 46.3355 12.5384 46.4874 12.4905C46.6392 12.4425 46.8035 12.4532 46.9478 12.5205C47.0921 12.5878 47.206 12.7067 47.2669 12.8538C47.7066 14.1967 47.9982 15.5837 48.1365 16.9899V21.2321C48.1365 26.3439 44.6368 30.0558 38.772 31.1375C38.6731 31.1628 38.5796 31.2059 38.4962 31.2648C37.7826 31.6559 36.9763 31.8464 36.1631 31.8163Z" fill="black"/>
<path d="M25.2713 21.2957C25.1478 21.2944 25.0272 21.2578 24.9238 21.1901C24.8205 21.1224 24.7387 21.0266 24.688 20.9139C24.3487 20.1291 23.9881 19.408 23.6275 18.708C22.567 16.4597 21.5064 14.328 21.6231 11.6448C21.9412 4.81493 25.2713 1.50605 33.0875 0.212192C38.2417 -0.646844 40.3946 1.27273 41.9536 2.72567C42.4056 3.24867 42.9926 3.63753 43.6505 3.84984C44.8219 3.93231 45.9603 4.27381 46.9837 4.84969C48.0071 5.42557 48.8898 6.22146 49.5683 7.17993C51.4136 10.0858 50.5334 13.925 50.0773 15.4415C49.6192 17.0218 48.9673 18.5393 48.1365 19.9594C48.0923 20.0295 48.0347 20.09 47.9669 20.1376C47.8991 20.1852 47.8225 20.2188 47.7416 20.2366C47.6607 20.2543 47.5771 20.2558 47.4956 20.241C47.4141 20.2262 47.3364 20.1954 47.2669 20.1503C47.1957 20.106 47.1339 20.0479 47.0851 19.9796C47.0364 19.9113 47.0017 19.834 46.983 19.7521C46.9642 19.6703 46.9619 19.5856 46.976 19.5029C46.9902 19.4201 47.0205 19.341 47.0654 19.2701C47.8369 17.9361 48.439 16.511 48.8577 15.0279C49.2713 13.681 50.0561 10.2767 48.4865 7.82686C47.9091 7.02458 47.1603 6.3609 46.2944 5.88396C45.4286 5.40703 44.4675 5.1288 43.4808 5.06946C42.5595 4.8443 41.73 4.34067 41.1052 3.62713C39.6522 2.35448 37.8599 0.710646 33.2996 1.46363C26.0985 2.66204 23.1502 5.52549 22.8745 11.666C22.7472 14.0204 23.6805 15.9082 24.7517 18.1035C25.1016 18.814 25.4622 19.567 25.8122 20.3624C25.8769 20.5174 25.8787 20.6915 25.8174 20.8479C25.756 21.0042 25.6363 21.1306 25.4834 21.2003C25.4183 21.2432 25.3467 21.2754 25.2713 21.2957Z" fill="black"/>
<path d="M25.2713 16.1627C25.151 16.1674 25.0322 16.134 24.932 16.0673C24.8611 16.0239 24.7995 15.9669 24.7509 15.8995C24.7023 15.8321 24.6676 15.7556 24.6488 15.6747C24.6301 15.5937 24.6276 15.5098 24.6416 15.4279C24.6557 15.346 24.6858 15.2677 24.7304 15.1976C26.5758 12.2175 29.2165 12.1857 32.027 12.1645C34.8374 12.1433 38.019 12.1008 41.0097 8.84498C41.1669 8.6696 41.3628 8.53325 41.5819 8.44674C41.8009 8.36022 42.0371 8.32591 42.2718 8.34653C44.2125 8.4844 46.6942 12.0478 47.1715 12.7266C47.2534 12.8671 47.2785 13.0336 47.2414 13.192C47.2044 13.3504 47.1081 13.4886 46.9723 13.5783C46.8366 13.6679 46.6716 13.7021 46.5114 13.6739C46.3512 13.6456 46.2079 13.5571 46.1109 13.4265C45.0504 11.8781 43.1732 9.6616 42.2187 9.58736C42.1758 9.57932 42.1315 9.58295 42.0905 9.59788C42.0494 9.6128 42.0132 9.63847 41.9854 9.6722C38.6235 13.3311 34.9965 13.3735 32.08 13.4053C29.4286 13.4053 27.3288 13.4053 25.8546 15.8339C25.7966 15.9367 25.7116 16.0217 25.6088 16.0796C25.506 16.1376 25.3893 16.1663 25.2713 16.1627Z" fill="black"/>
<path d="M36.4389 26.5136C35.2659 26.5366 34.1282 26.1119 33.2573 25.3258C33.1307 25.2133 33.054 25.0551 33.0441 24.886C33.0342 24.717 33.0918 24.5509 33.2043 24.4243C33.3168 24.2977 33.475 24.221 33.644 24.2111C33.8131 24.2012 33.9792 24.2588 34.1057 24.3713C34.7077 24.8491 35.437 25.1391 36.2028 25.2052C36.9685 25.2712 37.7367 25.1102 38.4115 24.7425C38.4801 24.6735 38.5636 24.6211 38.6555 24.5895C38.7475 24.5578 38.8455 24.5476 38.942 24.5597C39.0385 24.5718 39.1309 24.6058 39.2122 24.6592C39.2935 24.7126 39.3615 24.7839 39.4109 24.8677C39.4603 24.9515 39.4899 25.0455 39.4973 25.1424C39.5047 25.2394 39.4898 25.3368 39.4538 25.4271C39.4177 25.5174 39.3614 25.5983 39.2892 25.6634C39.217 25.7286 39.1308 25.7764 39.0373 25.803C38.2439 26.2527 37.3507 26.4969 36.4389 26.5136Z" fill="black"/>
<path d="M31.9422 19.8534C32.6334 19.8534 33.1937 19.2931 33.1937 18.6019C33.1937 17.9108 32.6334 17.3505 31.9422 17.3505C31.2511 17.3505 30.6908 17.9108 30.6908 18.6019C30.6908 19.2931 31.2511 19.8534 31.9422 19.8534Z" fill="black"/>
<path d="M40.4053 19.8534C41.0965 19.8534 41.6568 19.2931 41.6568 18.6019C41.6568 17.9108 41.0965 17.3505 40.4053 17.3505C39.7142 17.3505 39.1539 17.9108 39.1539 18.6019C39.1539 19.2931 39.7142 19.8534 40.4053 19.8534Z" fill="black"/>
<path d="M25.2713 23.4168C25.12 23.4189 24.9731 23.3662 24.8577 23.2683C22.3654 21.1472 21.2837 19.4716 21.5594 17.9656C21.6569 17.5604 21.8532 17.1856 22.1308 16.8747C22.4083 16.5638 22.7586 16.3265 23.1502 16.1839C23.2296 16.1573 23.3135 16.1467 23.397 16.1525C23.4805 16.1584 23.562 16.1807 23.6369 16.2182C23.7118 16.2556 23.7785 16.3074 23.8333 16.3707C23.8881 16.434 23.9299 16.5075 23.9563 16.5869C24.0076 16.7459 23.9954 16.9187 23.9223 17.0689C23.8491 17.2192 23.7207 17.3353 23.5639 17.3929C23.3723 17.4602 23.2004 17.5739 23.0635 17.7238C22.9265 17.8737 22.8288 18.0551 22.7791 18.252C22.6836 18.7928 22.9275 20.0337 25.6425 22.2926C25.7406 22.3744 25.8119 22.4837 25.847 22.6065C25.8821 22.7293 25.8795 22.8598 25.8394 22.981C25.7994 23.1023 25.7238 23.2087 25.6225 23.2864C25.5212 23.3641 25.3988 23.4095 25.2713 23.4168Z" fill="black"/>
<path d="M47.373 23.4168C47.2366 23.4239 47.1017 23.3869 46.988 23.3114C46.8743 23.2359 46.7879 23.1258 46.7415 22.9974C46.6951 22.8691 46.6913 22.7292 46.7305 22.5984C46.7697 22.4677 46.85 22.3531 46.9593 22.2714C49.6849 20.0019 49.9289 18.761 49.8334 18.2201C49.7796 18.0264 49.6803 17.8484 49.5438 17.7008C49.4073 17.5532 49.2375 17.4404 49.0486 17.3717C48.8901 17.3163 48.7599 17.2005 48.6864 17.0495C48.6129 16.8986 48.602 16.7246 48.6562 16.5657C48.6813 16.4854 48.7224 16.411 48.7769 16.347C48.8314 16.2829 48.8983 16.2305 48.9736 16.1929C49.0488 16.1553 49.1309 16.1332 49.2148 16.128C49.2988 16.1228 49.3829 16.1346 49.4622 16.1627C49.8701 16.3085 50.2336 16.5567 50.5178 16.8836C50.802 17.2105 50.9973 17.605 51.0848 18.0292C51.35 19.4822 50.2682 21.2109 47.776 23.3319C47.656 23.4074 47.5131 23.4375 47.373 23.4168Z" fill="black"/>
<path d="M36.4706 56.2087L37.0009 57.2692C37.0148 57.2979 37.0357 57.3226 37.0616 57.3411C37.0876 57.3597 37.1177 57.3714 37.1494 57.3753L38.3478 57.545C38.3816 57.551 38.4131 57.566 38.4391 57.5885C38.465 57.6109 38.4845 57.64 38.4953 57.6725C38.5062 57.7051 38.5081 57.74 38.5008 57.7735C38.4935 57.8071 38.4772 57.838 38.4538 57.8631L37.5842 58.7116C37.572 58.7363 37.5657 58.7635 37.5657 58.7911C37.5657 58.8187 37.572 58.8459 37.5842 58.8706L37.7857 60.069C37.7921 60.1027 37.7887 60.1376 37.776 60.1694C37.7633 60.2013 37.7417 60.2288 37.7139 60.2489C37.686 60.2689 37.6531 60.2806 37.6188 60.2826C37.5846 60.2845 37.5505 60.2767 37.5205 60.2599L36.46 59.6979C36.4054 59.6766 36.3449 59.6766 36.2903 59.6979L35.2298 60.2599C35.1998 60.2767 35.1657 60.2845 35.1315 60.2826C35.0973 60.2806 35.0643 60.2689 35.0364 60.2489C35.0086 60.2288 34.9871 60.2013 34.9743 60.1694C34.9616 60.1376 34.9583 60.1027 34.9646 60.069L35.1661 58.8706C35.1783 58.8459 35.1846 58.8187 35.1846 58.7911C35.1846 58.7635 35.1783 58.7363 35.1661 58.7116L34.2965 57.8631C34.2688 57.8399 34.2487 57.8088 34.2389 57.774C34.229 57.7392 34.2299 57.7023 34.2413 57.668C34.2528 57.6337 34.2743 57.6036 34.303 57.5816C34.3318 57.5597 34.3664 57.5469 34.4026 57.545L35.601 57.3753C35.6318 57.3729 35.6612 57.3616 35.6857 57.3428C35.7102 57.3239 35.7286 57.2984 35.7388 57.2692L36.2797 56.2087C36.3087 56.1919 36.3416 56.1831 36.3752 56.1831C36.4087 56.1831 36.4416 56.1919 36.4706 56.2087Z" fill="#48A6EB"/>
<path d="M68.9655 72.0001H3.63632C3.46756 72.0001 3.30571 71.933 3.18637 71.8137C3.06704 71.6943 3 71.5325 3 71.3637C3 71.195 3.06704 71.0331 3.18637 70.9138C3.30571 70.7944 3.46756 70.7274 3.63632 70.7274H68.9655C69.1343 70.7274 69.2961 70.7944 69.4155 70.9138C69.5348 71.0331 69.6019 71.195 69.6019 71.3637C69.6019 71.5325 69.5348 71.6943 69.4155 71.8137C69.2961 71.933 69.1343 72.0001 68.9655 72.0001Z" fill="black"/>
<path d="M58.7737 71.9152H13.8281C13.4343 71.9152 13.0567 71.7588 12.7782 71.4803C12.4998 71.2019 12.3433 70.8242 12.3433 70.4305V45.7411C12.3433 45.3473 12.4998 44.9697 12.7782 44.6912C13.0567 44.4128 13.4343 44.2563 13.8281 44.2563H58.7737C59.1675 44.2563 59.5452 44.4128 59.8236 44.6912C60.1021 44.9697 60.2585 45.3473 60.2585 45.7411V70.4305C60.2585 70.8242 60.1021 71.2019 59.8236 71.4803C59.5452 71.7588 59.1675 71.9152 58.7737 71.9152ZM13.8281 45.529C13.7718 45.529 13.7179 45.5513 13.6781 45.5911C13.6383 45.6309 13.616 45.6848 13.616 45.7411V70.4305C13.616 70.4867 13.6383 70.5407 13.6781 70.5804C13.7179 70.6202 13.7718 70.6426 13.8281 70.6426H58.7737C58.83 70.6426 58.884 70.6202 58.9237 70.5804C58.9635 70.5407 58.9859 70.4867 58.9859 70.4305V45.7411C58.9859 45.6848 58.9635 45.6309 58.9237 45.5911C58.884 45.5513 58.83 45.529 58.7737 45.529H13.8281Z" fill="black"/>
</g>
<defs>
<clipPath id="clip0">
<rect width="72" height="72" fill="white"/>
</clipPath>
</defs>
</svg>
