<svg width="72" height="72" viewBox="0 0 72 72" fill="none" xmlns="http://www.w3.org/2000/svg">
<g clip-path="url(#clip0)">
<path d="M71.0382 71.8051H32.9319C32.8096 71.8055 32.6901 71.769 32.5889 71.7003C32.4877 71.6317 32.4096 71.5341 32.3648 71.4203C32.1022 70.7281 31.9683 69.9936 31.9698 69.2533C31.9698 64.5241 37.4483 60.352 45.6002 58.8735C47.0179 58.6102 48.0205 60.4836 49.185 62.6507C49.9749 64.1191 51.0483 66.114 51.7875 66.114C52.3749 66.114 53.4888 63.9368 54.1572 62.6406C55.342 60.3419 56.2635 58.5191 57.5698 58.7317C66.1977 60.0988 72.0002 64.3216 72.0002 69.2533C71.9956 69.9931 71.862 70.7264 71.6053 71.4203C71.5593 71.5333 71.4809 71.6301 71.38 71.6986C71.2791 71.7671 71.1601 71.8041 71.0382 71.8051ZM33.4179 70.59H70.5926C70.7174 70.1552 70.7821 69.7055 70.785 69.2533C70.785 65.0102 65.2761 61.152 57.3875 59.9368C56.9116 59.9368 55.7875 62.1343 55.2407 63.1874C54.1065 65.4153 53.1141 67.3292 51.7875 67.3292C50.461 67.3292 49.2458 65.3039 48.1116 63.2786C47.4534 62.0634 46.3597 60.0077 45.8129 60.1191C38.2584 61.4963 33.185 65.1824 33.185 69.3039C33.2055 69.741 33.2838 70.1734 33.4179 70.59Z" fill="#48A6EB"/>
<path d="M52.1114 53.4354C50.9901 53.4536 49.904 53.0445 49.0734 52.2911C49.0171 52.2355 48.9723 52.1693 48.9418 52.0963C48.9113 52.0233 48.8955 51.9449 48.8955 51.8658C48.8955 51.7867 48.9113 51.7083 48.9418 51.6353C48.9723 51.5623 49.0171 51.4961 49.0734 51.4405C49.1264 51.3804 49.1908 51.3314 49.2629 51.2963C49.335 51.2612 49.4132 51.2407 49.4932 51.236C49.5733 51.2313 49.6534 51.2425 49.7291 51.2689C49.8047 51.2953 49.8744 51.3364 49.9342 51.3899C50.5089 51.8461 51.2053 52.1231 51.9365 52.1861C52.6676 52.2491 53.4012 52.0955 54.0456 51.7443C54.1136 51.7032 54.1892 51.6763 54.2679 51.6653C54.3466 51.6542 54.4267 51.6593 54.5034 51.6801C54.5801 51.7009 54.6517 51.7371 54.714 51.7864C54.7763 51.8358 54.8279 51.8972 54.8658 51.9671C54.9071 52.0359 54.9342 52.1122 54.9453 52.1917C54.9565 52.2712 54.9515 52.3521 54.9307 52.4296C54.9099 52.5071 54.8737 52.5796 54.8243 52.6428C54.7749 52.706 54.7132 52.7586 54.643 52.7974C53.8636 53.2129 52.9946 53.4319 52.1114 53.4354Z" fill="black"/>
<path d="M47.8177 47.0759C48.4776 47.0759 49.0126 46.5409 49.0126 45.881C49.0126 45.221 48.4776 44.6861 47.8177 44.6861C47.1577 44.6861 46.6227 45.221 46.6227 45.881C46.6227 46.5409 47.1577 47.0759 47.8177 47.0759Z" fill="black"/>
<path d="M55.9088 47.0759C56.5688 47.0759 57.1038 46.5409 57.1038 45.881C57.1038 45.221 56.5688 44.6861 55.9088 44.6861C55.2489 44.6861 54.7139 45.221 54.7139 45.881C54.7139 46.5409 55.2489 47.0759 55.9088 47.0759Z" fill="black"/>
<path d="M51.8482 58.5392C51.0549 58.5838 50.2698 58.359 49.6204 57.9012L49.4988 57.8101C43.8482 56.5038 40.8507 53.2531 40.871 48.4329C40.871 47.7443 40.871 46.7215 40.871 45.6886C40.871 44.6557 40.871 43.6633 40.871 42.9544C40.871 42.8746 40.8867 42.7956 40.9172 42.7219C40.9478 42.6482 40.9925 42.5812 41.049 42.5248C41.1054 42.4684 41.1724 42.4236 41.2461 42.3931C41.3198 42.3625 41.3988 42.3468 41.4786 42.3468C41.5584 42.3468 41.6374 42.3625 41.7111 42.3931C41.7848 42.4236 41.8518 42.4684 41.9082 42.5248C41.9646 42.5812 42.0094 42.6482 42.0399 42.7219C42.0705 42.7956 42.0862 42.8746 42.0862 42.9544C42.0862 43.643 42.0862 44.6759 42.0862 45.6987C42.0862 46.7215 42.0862 47.724 42.0862 48.443C42.0862 52.6861 44.6685 55.4405 49.8128 56.6456C50.0008 56.6979 50.1764 56.7874 50.3292 56.9088C50.7853 57.2319 51.3427 57.3793 51.8988 57.324C52.474 57.3501 53.0451 57.2169 53.5495 56.9392C53.7386 56.8281 53.9435 56.7461 54.1571 56.6962C59.2204 55.7645 62.1064 52.7569 62.1064 48.4329V44.3823C61.9813 43.1619 61.7197 41.9595 61.3267 40.7975C61.3332 40.6696 61.3799 40.5471 61.4602 40.4474C61.5404 40.3476 61.6501 40.2758 61.7736 40.2421C61.8971 40.2085 62.0281 40.2146 62.1479 40.2598C62.2677 40.305 62.3701 40.3868 62.4406 40.4937C62.8601 41.7795 63.1385 43.1071 63.271 44.4531V48.5038C63.271 53.3949 59.9292 56.9291 54.3191 57.962C54.229 57.9971 54.141 58.0377 54.0558 58.0835C53.3757 58.4351 52.6119 58.5928 51.8482 58.5392Z" fill="black"/>
<path d="M41.4078 48.4531C41.2896 48.4532 41.1739 48.4187 41.075 48.3539C40.9761 48.2892 40.8982 48.197 40.8509 48.0886C40.5268 47.3493 40.1926 46.6506 39.8382 45.9823C38.8256 43.8354 37.8129 41.8101 37.9243 39.2481C38.2483 32.7266 41.4281 29.5671 48.9015 28.3215C53.8332 27.5114 55.8787 29.3342 57.3673 30.7316C57.799 31.231 58.3594 31.6023 58.9876 31.805C60.105 31.8824 61.1911 32.208 62.1668 32.7581C63.1426 33.3081 63.9834 34.0688 64.6281 34.9848C66.3901 37.7494 65.5597 41.4253 65.1243 42.8734C64.692 44.3777 64.0764 45.8231 63.2914 47.1772C63.2555 47.2567 63.203 47.3276 63.1372 47.385C63.0715 47.4425 62.9942 47.485 62.9106 47.5099C62.827 47.5348 62.739 47.5413 62.6526 47.5291C62.5662 47.517 62.4834 47.4863 62.4099 47.4393C62.3364 47.3922 62.2739 47.3299 62.2267 47.2566C62.1794 47.1832 62.1485 47.1006 62.1361 47.0142C62.1236 46.9278 62.1299 46.8398 62.1545 46.7561C62.1792 46.6724 62.2215 46.595 62.2787 46.5291C63.0141 45.2534 63.5921 43.8933 64.0002 42.4785C64.385 41.1924 65.1344 37.9418 63.6458 35.5924C63.0888 34.8305 62.3709 34.2006 61.5431 33.7473C60.7153 33.294 59.7979 33.0285 58.8559 32.9696C57.9755 32.7506 57.1836 32.2663 56.5876 31.5823C55.1901 30.3671 53.4686 28.8076 49.1142 29.5266C42.2483 30.6607 39.4939 33.405 39.1597 39.3088C39.0483 41.5569 39.9294 43.3595 40.9521 45.4456C41.2863 46.1342 41.6407 46.843 41.9648 47.6025C41.9981 47.6755 42.0164 47.7544 42.0186 47.8345C42.0208 47.9147 42.0069 47.9945 41.9776 48.0691C41.9483 48.1438 41.9043 48.2118 41.8481 48.269C41.792 48.3263 41.7249 48.3717 41.6509 48.4025C41.5751 48.4385 41.4917 48.4559 41.4078 48.4531Z" fill="black"/>
<path d="M41.519 43.5316C41.4077 43.5327 41.2985 43.501 41.205 43.4405C41.1362 43.399 41.0763 43.3442 41.0287 43.2793C40.9812 43.2144 40.947 43.1407 40.9282 43.0626C40.9093 42.9844 40.9062 42.9032 40.919 42.8238C40.9317 42.7444 40.9601 42.6683 41.0025 42.6C42.7645 39.7544 45.2962 39.7342 47.9696 39.7038C50.643 39.6734 53.6911 39.7038 56.5468 36.5443C56.6975 36.3877 56.881 36.2666 57.0841 36.1895C57.2872 36.1125 57.5049 36.0815 57.7215 36.0987C59.5443 36.2405 61.9038 39.6228 62.3595 40.3013C62.4494 40.436 62.4828 40.6006 62.4525 40.7597C62.4222 40.9188 62.3306 41.0596 62.1975 41.1519C62.0631 41.2403 61.8992 41.2718 61.7416 41.2395C61.5841 41.2072 61.4457 41.1138 61.357 40.9797C60.3443 39.5013 58.5418 37.3747 57.6304 37.3139C57.5909 37.3059 57.5499 37.3092 57.5123 37.3236C57.4746 37.3379 57.4418 37.3627 57.4177 37.3949C54.1975 40.8886 50.7342 40.9291 47.9494 40.9494C45.4177 40.9494 43.4228 40.9494 42.005 43.2785C41.9495 43.3558 41.8766 43.419 41.7922 43.463C41.7077 43.5069 41.6142 43.5305 41.519 43.5316Z" fill="black"/>
<path d="M41.3977 50.4886C41.2563 50.491 41.119 50.4404 41.0129 50.3468C38.6332 48.3215 37.6003 46.7215 37.8534 45.2835C37.9424 44.8855 38.1313 44.5166 38.4024 44.2119C38.6735 43.9071 39.0178 43.6765 39.4028 43.5417C39.5546 43.49 39.7206 43.5004 39.8648 43.5706C40.0089 43.6407 40.1195 43.7651 40.1724 43.9164C40.1994 43.9915 40.2111 44.0712 40.2068 44.1509C40.2026 44.2306 40.1824 44.3086 40.1474 44.3803C40.1125 44.452 40.0636 44.516 40.0035 44.5685C39.9434 44.6211 39.8735 44.661 39.7977 44.6861C39.6167 44.7565 39.4547 44.8682 39.3246 45.0124C39.1945 45.1566 39.0999 45.3292 39.0484 45.5164C38.9572 46.0329 39.2003 47.2076 41.7927 49.3747C41.8539 49.4254 41.9043 49.4878 41.9411 49.5583C41.9779 49.6288 42.0002 49.7059 42.0068 49.7851C42.0134 49.8643 42.0042 49.944 41.9796 50.0196C41.955 50.0952 41.9155 50.1651 41.8635 50.2253C41.8129 50.3035 41.7441 50.3683 41.663 50.4142C41.5819 50.46 41.4909 50.4856 41.3977 50.4886Z" fill="black"/>
<path d="M62.5522 50.4886C62.4627 50.4894 62.3742 50.4698 62.2935 50.4311C62.2127 50.3925 62.1419 50.336 62.0864 50.2658C62.035 50.205 61.9962 50.1346 61.9725 50.0586C61.9487 49.9826 61.9403 49.9027 61.9479 49.8234C61.9554 49.7442 61.9787 49.6673 62.0164 49.5972C62.0541 49.527 62.1054 49.4652 62.1674 49.4152C64.7699 47.2481 65.0028 46.0633 64.9016 45.5468C64.849 45.3628 64.7551 45.1932 64.6269 45.0511C64.4988 44.9089 64.3399 44.7979 64.1623 44.7266C64.0786 44.7087 63.9995 44.6733 63.9304 44.6228C63.8613 44.5722 63.8036 44.5076 63.7612 44.4332C63.7188 44.3589 63.6926 44.2763 63.6843 44.1911C63.6761 44.1059 63.6859 44.0198 63.7132 43.9387C63.7405 43.8575 63.7846 43.783 63.8427 43.7201C63.9008 43.6572 63.9716 43.6073 64.0503 43.5736C64.129 43.54 64.214 43.5234 64.2996 43.5248C64.3853 43.5263 64.4696 43.5459 64.5471 43.5823C64.9321 43.717 65.2764 43.9476 65.5475 44.2524C65.8186 44.5572 66.0075 44.926 66.0965 45.324C66.3598 46.7215 65.3269 48.362 62.9471 50.3873C62.8314 50.4663 62.6916 50.5022 62.5522 50.4886Z" fill="black"/>
<path d="M26.2075 50.0329C24.6797 49.9945 23.1696 49.6966 21.7417 49.1519H21.4683C21.3071 49.1519 21.1526 49.0879 21.0386 48.9739C20.9247 48.86 20.8607 48.7054 20.8607 48.5443C20.8607 48.3832 20.9247 48.2286 21.0386 48.1147C21.1526 48.0007 21.3071 47.9367 21.4683 47.9367H21.8531C21.9197 47.9215 21.9889 47.9215 22.0556 47.9367C25.1847 49.0608 27.605 49.0608 29.2556 47.9367C30.4845 46.9798 31.2911 45.5809 31.5037 44.038C31.0172 44.125 30.5157 44.039 30.086 43.7949C28.6784 42.9544 28.2024 40.4329 28.6278 36.0785C28.9243 32.4914 27.8007 28.9314 25.4986 26.1645C24.3753 24.949 23.0034 23.9897 21.4761 23.3519C19.9489 22.7141 18.3022 22.4127 16.648 22.4683C14.8751 22.3603 13.0982 22.6034 11.4195 23.1838C9.74082 23.7643 8.19327 24.6705 6.86573 25.8506C6.04577 26.6158 5.38828 27.5383 4.93246 28.563C4.47663 29.5878 4.2318 30.6938 4.21256 31.8152C4.18231 33.8439 4.27023 35.8726 4.47585 37.8911C4.70114 39.3373 4.70114 40.8096 4.47585 42.2557C4.41702 42.6028 4.2809 42.9323 4.07758 43.2198C3.87425 43.5073 3.60891 43.7453 3.30117 43.9164C2.71839 44.1945 2.06218 44.2796 1.42775 44.1595C1.57279 44.9731 1.88994 45.7463 2.35798 46.4274C2.82602 47.1085 3.43416 47.6818 4.14168 48.1089C6.87585 49.557 10.5417 47.9266 10.5721 47.9165C10.6507 47.8772 10.7373 47.8564 10.8252 47.8557H11.3923C11.5535 47.8557 11.708 47.9197 11.8219 48.0336C11.9359 48.1476 11.9999 48.3021 11.9999 48.4633C11.9999 48.6244 11.9359 48.779 11.8219 48.8929C11.708 49.0069 11.5535 49.0709 11.3923 49.0709H10.9569C10.2176 49.3848 6.56193 50.762 3.57459 49.1823C1.7113 48.1696 0.536613 46.2557 0.0404101 43.4304C0.0223421 43.324 0.032468 43.2147 0.0697794 43.1134C0.107091 43.0121 0.170285 42.9224 0.253068 42.8532C0.33805 42.7872 0.43856 42.7441 0.544956 42.7282C0.651352 42.7122 0.760064 42.7239 0.860663 42.762C1.45382 43.019 2.12096 43.0478 2.73408 42.843C2.88471 42.752 3.01296 42.6283 3.10936 42.4811C3.20577 42.3339 3.26786 42.1668 3.29104 41.9924C3.49045 40.6665 3.49045 39.3183 3.29104 37.9924C3.0949 35.9428 3.01039 33.8841 3.03788 31.8253C3.06825 30.5448 3.3524 29.2831 3.87389 28.1133C4.39537 26.9434 5.14381 25.8887 6.07585 25.0101C7.50825 23.719 9.18093 22.7227 10.9984 22.0781C12.8158 21.4335 14.7425 21.1532 16.6683 21.2532C18.4872 21.1927 20.2981 21.5229 21.9786 22.2217C23.6591 22.9204 25.1702 23.9714 26.41 25.3038C28.9265 28.3321 30.1586 32.2246 29.8429 36.1494C29.3366 41.2835 30.2683 42.438 30.6936 42.6911C30.8863 42.77 31.0958 42.7993 31.3028 42.7763C31.5097 42.7533 31.7076 42.6787 31.8784 42.5595C31.9715 42.4996 32.0789 42.4658 32.1896 42.4617C32.3002 42.4576 32.4099 42.4833 32.5071 42.5361C32.6044 42.5888 32.6858 42.6668 32.7426 42.7618C32.7995 42.8567 32.8297 42.9653 32.8303 43.0759C32.8303 43.238 32.7189 46.9645 29.9442 48.8785C28.8496 49.6438 27.543 50.0474 26.2075 50.0329Z" fill="black"/>
<path d="M18.1468 49.7899H14.8962C13.6323 49.7904 12.3809 49.5401 11.2145 49.0533C10.048 48.5666 8.98986 47.8532 8.10125 46.9544C7.2066 46.0706 6.49759 45.0169 6.01589 43.8553C5.53418 42.6936 5.28949 41.4474 5.29619 40.1899C5.29619 39.5013 5.29619 38.4683 5.29619 37.4456C5.29619 36.4228 5.29619 35.4202 5.29619 34.7114C5.29619 34.5502 5.3602 34.3957 5.47415 34.2817C5.5881 34.1678 5.74264 34.1038 5.90378 34.1038C6.06493 34.1038 6.21947 34.1678 6.33342 34.2817C6.44736 34.3957 6.51138 34.5502 6.51138 34.7114C6.51138 35.4 6.51138 36.4329 6.51138 37.4557C6.51138 38.4785 6.51138 39.481 6.51138 40.2C6.50433 41.2946 6.71564 42.3796 7.13295 43.3916C7.55026 44.4036 8.16519 45.3222 8.94176 46.0937C9.71758 46.8862 10.644 47.5158 11.6665 47.9453C12.689 48.3748 13.7871 48.5957 14.8962 48.5949H18.1468C19.2496 48.5949 20.3416 48.3774 21.3602 47.9547C22.3788 47.5321 23.3041 46.9127 24.0829 46.1319C24.8618 45.3512 25.479 44.4244 25.8992 43.4048C26.3194 42.3852 26.5343 41.2927 26.5316 40.1899V36.1392C26.5316 34.7721 26.0861 33.2228 25.7316 33.0202C25.5936 32.9381 25.4938 32.8046 25.4539 32.6489C25.4141 32.4933 25.4375 32.3283 25.519 32.1899C25.5587 32.1205 25.6119 32.0598 25.6755 32.0114C25.7391 31.963 25.8118 31.9278 25.8892 31.908C25.9666 31.8882 26.0473 31.8841 26.1263 31.896C26.2053 31.9079 26.2812 31.9355 26.3494 31.9772C27.4937 32.6456 27.7468 35.2683 27.7468 36.1392V40.1899C27.7441 42.7351 26.7319 45.1754 24.9321 46.9751C23.1323 48.7749 20.6921 49.7872 18.1468 49.7899Z" fill="black"/>
<path d="M5.96428 35.319H5.81238C5.65674 35.2785 5.52351 35.1779 5.44189 35.0393C5.36027 34.9008 5.33691 34.7355 5.37694 34.5797C5.95416 32.3215 12.7693 30.4177 16.7795 30.9038C19.9693 31.2785 20.4655 32.9291 20.4858 33.9418C20.5364 34.0329 20.982 34.2152 21.9643 34.1038C23.5643 33.9215 25.2352 33.0911 25.4681 32.4531C25.4952 32.3779 25.537 32.3088 25.5909 32.2497C25.6448 32.1907 25.7098 32.1429 25.7823 32.109C25.8547 32.0751 25.9331 32.0559 26.013 32.0524C26.0929 32.0489 26.1727 32.0612 26.2478 32.0886C26.3227 32.1147 26.3916 32.1554 26.4506 32.2083C26.5095 32.2613 26.5574 32.3254 26.5913 32.3971C26.6252 32.4687 26.6445 32.5463 26.6482 32.6255C26.6518 32.7047 26.6396 32.7838 26.6124 32.8582C26.0352 34.519 22.5111 35.5924 20.7086 35.3088C19.4225 35.0962 19.2706 34.2962 19.2706 33.962C19.2706 32.9494 18.3693 32.3316 16.6377 32.1291C12.6377 31.6531 6.86555 33.6582 6.51112 34.9038C6.47246 35.0201 6.39956 35.1219 6.30197 35.196C6.20438 35.2701 6.08667 35.313 5.96428 35.319Z" fill="black"/>
<path d="M16.587 45.1823C15.4667 45.2063 14.3796 44.8005 13.5491 44.0481C13.489 43.9951 13.44 43.9307 13.4049 43.8586C13.3698 43.7866 13.3493 43.7083 13.3446 43.6283C13.3399 43.5482 13.3511 43.4681 13.3775 43.3924C13.4039 43.3168 13.445 43.2471 13.4984 43.1873C13.6137 43.0754 13.7681 43.0127 13.9288 43.0127C14.0895 43.0127 14.2439 43.0754 14.3592 43.1873C14.932 43.6482 15.6296 43.9272 16.3622 43.9886C17.0948 44.0499 17.8291 43.8908 18.4706 43.5316C18.6105 43.455 18.775 43.4365 18.9284 43.4801C19.0819 43.5236 19.2121 43.6258 19.2908 43.7646C19.3688 43.9048 19.3892 44.0699 19.3476 44.2249C19.306 44.3799 19.2058 44.5126 19.0681 44.5949C18.2994 44.9849 17.4489 45.1863 16.587 45.1823Z" fill="black"/>
<path d="M12.2937 38.8329C12.9537 38.8329 13.4887 38.2979 13.4887 37.638C13.4887 36.978 12.9537 36.443 12.2937 36.443C11.6338 36.443 11.0988 36.978 11.0988 37.638C11.0988 38.2979 11.6338 38.8329 12.2937 38.8329Z" fill="black"/>
<path d="M20.3849 38.8329C21.0448 38.8329 21.5798 38.2979 21.5798 37.638C21.5798 36.978 21.0448 36.443 20.3849 36.443C19.7249 36.443 19.1899 36.978 19.1899 37.638C19.1899 38.2979 19.7249 38.8329 20.3849 38.8329Z" fill="black"/>
<path d="M31.5545 61.1922H1.36712C1.24485 61.1926 1.12532 61.156 1.02415 61.0874C0.922972 61.0187 0.844865 60.9212 0.800033 60.8074C0.586787 60.2726 0.47683 59.7022 0.475983 59.1264C0.475983 55.5213 4.86079 52.3517 11.3823 51.2378C12.5772 51.0454 13.4076 52.534 14.3393 54.1239C14.9165 55.1365 15.7772 56.6353 16.3038 56.6353C16.8304 56.6353 17.6304 54.9239 18.076 54.1137C18.9975 52.4226 19.7975 50.9846 20.9013 51.1365C27.8076 52.1492 32.4456 55.3694 32.4456 59.1264C32.4448 59.7022 32.3348 60.2726 32.1216 60.8074C32.0756 60.9204 31.9972 61.0172 31.8963 61.0857C31.7953 61.1541 31.6764 61.1912 31.5545 61.1922ZM1.80256 59.977H31.1697C31.2427 59.6994 31.2802 59.4135 31.281 59.1264C31.281 56.0884 26.957 53.253 20.7798 52.3315C20.4355 52.4226 19.6557 53.8403 19.2 54.691C18.2684 56.3922 17.4785 57.8504 16.3545 57.8504C15.2304 57.8504 14.2583 56.3315 13.3165 54.7213C12.9114 54.0226 11.9595 52.3517 11.6152 52.4327C5.79244 53.4454 1.72155 56.1897 1.72155 59.1264C1.70751 59.4124 1.7348 59.6989 1.80256 59.977Z" fill="#48A6EB"/>
<path d="M24.962 19.157C24.8269 19.147 24.6993 19.0915 24.5999 18.9995C24.5006 18.9075 24.4354 18.7845 24.4151 18.6506L23.6556 13.8911H21.8733C21.4973 13.8911 21.1367 13.7418 20.8709 13.4759C20.605 13.21 20.4556 12.8494 20.4556 12.4734V2.41772C20.4556 2.04172 20.605 1.68112 20.8709 1.41524C21.1367 1.14937 21.4973 1 21.8733 1H38.6328C39.0088 1 39.3694 1.14937 39.6353 1.41524C39.9012 1.68112 40.0506 2.04172 40.0506 2.41772V12.4633C40.0506 12.8393 39.9012 13.1999 39.6353 13.4658C39.3694 13.7316 39.0088 13.881 38.6328 13.881H27.1392L25.5392 18.7316C25.5005 18.8546 25.4237 18.9621 25.32 19.0385C25.2162 19.115 25.0908 19.1565 24.962 19.157ZM21.8733 2.21519C21.8196 2.21519 21.7681 2.23653 21.7301 2.27451C21.6922 2.31249 21.6708 2.36401 21.6708 2.41772V12.4633C21.6708 12.518 21.6918 12.5706 21.7295 12.6102C21.7672 12.6498 21.8187 12.6733 21.8733 12.6759H24.1214C24.2665 12.6739 24.4075 12.7239 24.5189 12.8167C24.6303 12.9096 24.7049 13.0392 24.729 13.1823L25.1645 15.9772L26.1164 13.0911C26.1581 12.9709 26.2359 12.8665 26.3393 12.7922C26.4426 12.7179 26.5663 12.6773 26.6936 12.6759H38.6328C38.6875 12.6733 38.739 12.6498 38.7767 12.6102C38.8144 12.5706 38.8354 12.518 38.8354 12.4633V2.41772C38.8354 2.36401 38.814 2.31249 38.776 2.27451C38.7381 2.23653 38.6866 2.21519 38.6328 2.21519H21.8733Z" fill="#48A6EB"/>
<path d="M32.3037 8.09874C32.6393 8.09874 32.9113 7.82671 32.9113 7.49114C32.9113 7.15558 32.6393 6.88355 32.3037 6.88355C31.9682 6.88355 31.6961 7.15558 31.6961 7.49114C31.6961 7.82671 31.9682 8.09874 32.3037 8.09874Z" fill="#48A6EB"/>
<path d="M30.248 8.09874C30.5836 8.09874 30.8556 7.82671 30.8556 7.49114C30.8556 7.15558 30.5836 6.88355 30.248 6.88355C29.9125 6.88355 29.6404 7.15558 29.6404 7.49114C29.6404 7.82671 29.9125 8.09874 30.248 8.09874Z" fill="#48A6EB"/>
<path d="M28.2023 8.09874C28.5379 8.09874 28.8099 7.82671 28.8099 7.49114C28.8099 7.15558 28.5379 6.88355 28.2023 6.88355C27.8667 6.88355 27.5947 7.15558 27.5947 7.49114C27.5947 7.82671 27.8667 8.09874 28.2023 8.09874Z" fill="#48A6EB"/>
<path d="M46.0052 12.7365C46.3407 12.7365 46.6127 12.4645 46.6127 12.1289C46.6127 11.7934 46.3407 11.5213 46.0052 11.5213C45.6696 11.5213 45.3976 11.7934 45.3976 12.1289C45.3976 12.4645 45.6696 12.7365 46.0052 12.7365Z" fill="black"/>
<path d="M43.939 12.7365C44.2746 12.7365 44.5466 12.4645 44.5466 12.1289C44.5466 11.7934 44.2746 11.5213 43.939 11.5213C43.6034 11.5213 43.3314 11.7934 43.3314 12.1289C43.3314 12.4645 43.6034 12.7365 43.939 12.7365Z" fill="black"/>
<path d="M41.9038 12.7365C42.2393 12.7365 42.5113 12.4645 42.5113 12.1289C42.5113 11.7934 42.2393 11.5213 41.9038 11.5213C41.5682 11.5213 41.2962 11.7934 41.2962 12.1289C41.2962 12.4645 41.5682 12.7365 41.9038 12.7365Z" fill="black"/>
<path d="M49.2457 23.9973C49.1177 23.9991 48.9925 23.9597 48.8886 23.8849C48.7847 23.8102 48.7075 23.704 48.6685 23.5821L47.0583 18.7315H35.5748C35.1988 18.7315 34.8382 18.5821 34.5723 18.3162C34.3064 18.0504 34.1571 17.6898 34.1571 17.3138V15.5315C34.1571 15.3703 34.2211 15.2158 34.335 15.1018C34.449 14.9879 34.6035 14.9239 34.7647 14.9239C34.9258 14.9239 35.0803 14.9879 35.1943 15.1018C35.3082 15.2158 35.3722 15.3703 35.3722 15.5315V17.3138C35.3722 17.3675 35.3936 17.419 35.4316 17.457C35.4696 17.4949 35.5211 17.5163 35.5748 17.5163H47.5039C47.6315 17.5161 47.756 17.5561 47.8596 17.6306C47.9632 17.7052 48.0407 17.8104 48.0811 17.9315L49.033 20.8175L49.4684 18.0327C49.4924 17.8887 49.5665 17.7579 49.6777 17.6633C49.789 17.5688 49.9301 17.5167 50.076 17.5163H52.3343C52.388 17.5163 52.4395 17.4949 52.4775 17.457C52.5155 17.419 52.5368 17.3675 52.5368 17.3138V7.26818C52.5369 7.21349 52.5159 7.16088 52.4781 7.12128C52.4404 7.08168 52.3889 7.05813 52.3343 7.05552H41.6406C41.4795 7.05552 41.3249 6.99151 41.211 6.87756C41.097 6.76362 41.033 6.60907 41.033 6.44793C41.033 6.28678 41.097 6.13224 41.211 6.01829C41.3249 5.90435 41.4795 5.84033 41.6406 5.84033H52.3343C52.7112 5.84301 53.0718 5.99462 53.3374 6.2621C53.603 6.52959 53.752 6.89124 53.752 7.26818V17.3138C53.752 17.6898 53.6026 18.0504 53.3368 18.3162C53.0709 18.5821 52.7103 18.7315 52.3343 18.7315H50.633L49.8836 23.4808C49.8637 23.6158 49.7989 23.7402 49.6997 23.8339C49.6005 23.9275 49.4727 23.9851 49.3368 23.9973H49.2457Z" fill="black"/>
</g>
<defs>
<clipPath id="clip0">
<rect width="72" height="72" fill="white"/>
</clipPath>
</defs>
</svg>
