<svg width="128" height="38" viewBox="0 0 128 38" fill="none" xmlns="http://www.w3.org/2000/svg">
<g clip-path="url(#clip0)">
<path d="M121.81 20.9308V22.6217H125.078V24.3311C124.357 24.9561 123.439 25.3049 122.485 25.3152C120.318 25.3152 118.705 23.6381 118.705 21.342C118.705 19.0459 120.318 17.3827 122.485 17.3827C123.041 17.3831 123.589 17.5161 124.083 17.7709C124.578 18.0256 125.004 18.3946 125.327 18.8472L126.903 17.9602C126.419 17.2377 125.76 16.6495 124.988 16.2504C124.215 15.8513 123.354 15.6544 122.485 15.678C119.315 15.678 116.736 17.9094 116.736 21.342C116.736 24.7746 119.315 27.0245 122.485 27.0245C123.336 27.0359 124.179 26.8644 124.958 26.5217C125.737 26.1789 126.434 25.673 127 25.038V20.9308H121.81Z" fill="white"/>
<path d="M54.4286 15.678C51.1429 15.678 48.8277 18.0757 48.8277 21.342C48.8277 24.6083 51.1383 27.006 54.4286 27.006C57.7189 27.006 60.0295 24.6083 60.0295 21.342C60.0295 18.0757 57.7096 15.678 54.4286 15.678ZM54.4286 25.2967C52.2104 25.2967 50.7963 23.5919 50.7963 21.342C50.7963 19.0921 52.2104 17.3827 54.4286 17.3827C56.6467 17.3827 58.0562 19.0736 58.0562 21.342C58.0562 23.6104 56.6283 25.2967 54.4286 25.2967Z" fill="white"/>
<path d="M43.3839 17.3827C43.9442 17.3876 44.4937 17.5369 44.9794 17.8161C45.4651 18.0953 45.8706 18.495 46.1566 18.9766L47.8018 18.1404C47.3553 17.3735 46.7112 16.7404 45.9365 16.3072C45.1619 15.8741 44.2851 15.6568 43.3978 15.678C40.1629 15.678 37.649 17.9879 37.649 21.342C37.649 24.6961 40.1491 27.006 43.3839 27.006C44.2708 27.0248 45.1466 26.8064 45.9208 26.3735C46.6951 25.9406 47.3396 25.3089 47.7879 24.5436L46.1428 23.7074C45.8578 24.1897 45.4525 24.5897 44.9664 24.8683C44.4804 25.1469 43.9303 25.2945 43.37 25.2967C41.2027 25.2967 39.5945 23.6381 39.5945 21.342C39.5945 19.0459 41.2166 17.3827 43.3839 17.3827Z" fill="white"/>
<path d="M103.081 15.8582H101.158V26.8213H103.081V15.8582Z" fill="white"/>
<path d="M72.6084 26.8213H80.1132V25.1165H74.5308V22.0812H79.9977V20.3903H74.5308V17.549H80.1132V15.8582H72.6084V26.8213Z" fill="white"/>
<path d="M65.9122 24.7238L62.5942 15.8582H60.413L64.6969 26.8213H67.0953L71.3976 15.872H69.2118L65.9122 24.7238Z" fill="white"/>
<path d="M83.6993 18.7641C83.6993 17.9417 84.4202 17.3781 85.5477 17.3781C86.1322 17.3677 86.713 17.4725 87.257 17.6865C87.8009 17.9005 88.2973 18.2196 88.7179 18.6255L89.8177 17.1979C89.2683 16.6852 88.6229 16.2862 87.9186 16.0238C87.2144 15.7613 86.4652 15.6407 85.7141 15.6687C83.3157 15.6687 81.7214 17.0547 81.7214 18.8703C81.7214 22.9128 88.1125 21.4806 88.1125 23.7813C88.1125 24.502 87.4887 25.2736 85.9082 25.2736C85.2581 25.2747 84.6149 25.1411 84.0191 24.8811C83.4233 24.621 82.888 24.2403 82.4469 23.7628L81.3794 25.2412C82.3453 26.2761 83.8102 26.9829 85.8296 26.9829C88.7826 26.9829 90.0673 25.4214 90.0673 23.6011C90.0719 19.5356 83.6993 20.8153 83.6993 18.7641Z" fill="white"/>
<path d="M90.9777 17.549H94.2726V26.8213H96.195V17.5814H99.513V15.8582H90.9777V17.549Z" fill="white"/>
<path d="M112.984 23.4579L107.383 15.8582H105.41V26.8213H107.332V18.9951L113.049 26.8213H114.897V15.8582H112.975L112.984 23.4579Z" fill="white"/>
<path d="M27.8936 18.8057C27.6389 17.0784 26.9837 15.4346 25.9804 14.0056C25.7771 13.7191 25.5553 13.4327 25.3196 13.1601C24.9335 12.7096 24.5133 12.2895 24.0626 11.9035C23.7922 11.6704 23.51 11.4514 23.217 11.2475C21.7855 10.2482 20.1421 9.59356 18.4155 9.3348C18.0689 9.2886 17.7131 9.25164 17.348 9.23316C17.1447 9.23316 16.9414 9.23316 16.7473 9.23316C16.3521 9.2321 15.9572 9.25215 15.5642 9.29322C15.213 9.33018 14.8526 9.38562 14.5014 9.45492C12.8483 9.79496 11.2918 10.4988 9.94485 11.5154C9.66296 11.7325 9.3903 11.9774 9.1269 12.1992C8.69136 12.6026 8.28665 13.0381 7.91614 13.502C7.69894 13.7792 7.48637 14.0702 7.28766 14.3751C6.41328 15.7194 5.84095 17.2373 5.61016 18.8241C5.54546 19.1522 5.54546 19.5125 5.50387 19.8913C5.50387 20.0854 5.50387 20.2887 5.50387 20.4827C5.49715 20.8728 5.51104 21.2629 5.54546 21.6515C5.58705 22.0027 5.64251 22.363 5.7072 22.7141C6.01404 24.2278 6.63253 25.6611 7.52334 26.9229C7.72923 27.2171 7.94979 27.5008 8.18417 27.773C8.57137 28.2239 8.99152 28.6454 9.44114 29.0342C9.70917 29.2606 9.99568 29.4962 10.2868 29.6856C11.549 30.5762 12.9827 31.1945 14.4967 31.5012C14.8496 31.572 15.2059 31.6244 15.5642 31.6583C15.9585 31.7034 16.3551 31.725 16.7519 31.723H17.3434C17.6992 31.723 18.0597 31.6676 18.4109 31.6167C19.9982 31.386 21.5165 30.8138 22.8611 29.9397C23.1615 29.741 23.4573 29.5331 23.7345 29.3114C24.1995 28.9422 24.6352 28.5375 25.0377 28.101C25.278 27.8376 25.4998 27.5651 25.7263 27.2832C26.7404 25.9368 27.4442 24.3828 27.7873 22.7326C27.8584 22.3799 27.9109 22.0236 27.9444 21.6654C27.9894 21.2728 28.011 20.8779 28.0091 20.4827C28.0091 20.2887 28.0091 20.0946 28.0091 19.8913C27.9814 19.5171 27.9444 19.1614 27.8936 18.8057ZM26.3039 21.4806C26.2716 21.7809 26.2207 22.0904 26.1607 22.4046C25.8713 23.8149 25.2697 25.1425 24.4 26.29C24.2151 26.5302 24.021 26.7519 23.8131 26.9922C23.4708 27.3639 23.1 27.7084 22.704 28.0224C22.4632 28.2151 22.2117 28.3941 21.9507 28.5583C20.8039 29.3031 19.5098 29.7917 18.1567 29.9905C17.861 30.0321 17.5514 30.0644 17.2325 30.0829H16.7473C16.4092 30.083 16.0713 30.0644 15.7352 30.0275C15.4249 29.9976 15.1164 29.9513 14.811 29.8889C13.5198 29.6251 12.2963 29.1 11.2157 28.3458C10.9658 28.1705 10.7252 27.9824 10.4948 27.7822C10.1102 27.4532 9.75177 27.0948 9.42265 26.7104C9.22394 26.4794 9.03909 26.2484 8.85887 25.985C8.10074 24.9085 7.5751 23.686 7.31538 22.3953C7.25392 22.09 7.20918 21.7816 7.18137 21.4714C7.14439 21.1354 7.12587 20.7976 7.12591 20.4596C7.12591 20.2933 7.12591 20.127 7.12591 19.9514C7.12591 19.6419 7.17675 19.3416 7.21834 19.0274C7.43431 17.6871 7.93031 16.4073 8.67402 15.2714C8.83992 15.013 9.01883 14.7632 9.21008 14.523C9.52737 14.1241 9.87499 13.7503 10.2498 13.405C10.4717 13.2017 10.712 13.003 10.9477 12.8182C12.0929 11.9483 13.4198 11.3482 14.8295 11.0627C15.1349 11.0001 15.4434 10.9538 15.7537 10.9241C16.0898 10.8871 16.4276 10.8686 16.7657 10.8686H17.2741C17.5837 10.8686 17.8841 10.9194 18.1983 10.961C19.6727 11.1821 21.0758 11.7419 22.2973 12.5965C22.5423 12.7674 22.7918 12.9614 23.0182 13.1555C23.4043 13.486 23.7643 13.8459 24.095 14.2319C24.2891 14.4675 24.4832 14.6939 24.6541 14.9526C25.5089 16.1738 26.0689 17.5765 26.2901 19.0505C26.3316 19.3462 26.364 19.6557 26.3825 19.9745C26.3825 20.1501 26.3825 20.3164 26.3825 20.4827C26.3743 20.8165 26.3481 21.1496 26.3039 21.4806Z" fill="white"/>
<path d="M3.56297 19.7527C3.67103 19.7663 3.7807 19.7584 3.8857 19.7295C3.99069 19.7006 4.08895 19.6512 4.17482 19.5843C4.26069 19.5173 4.33249 19.434 4.3861 19.3393C4.43971 19.2445 4.47407 19.1401 4.48722 19.032C4.73161 16.9733 5.48785 15.0086 6.68691 13.3171C6.86714 13.063 7.06123 12.809 7.25532 12.578C7.58188 12.1784 7.93711 11.8032 8.31819 11.4553C8.54463 11.2428 8.78032 11.0349 9.02062 10.8409C10.6863 9.49596 12.6742 8.60896 14.7879 8.26756C14.9892 8.23058 15.1696 8.12032 15.2943 7.95808C15.419 7.79585 15.4791 7.59315 15.463 7.38918C15.4469 7.18521 15.3558 6.99445 15.2072 6.85376C15.0586 6.71307 14.8631 6.63245 14.6585 6.62748C14.6139 6.62294 14.569 6.62294 14.5245 6.62748C12.1211 7.01145 9.8602 8.01812 7.96698 9.54728C7.69433 9.7598 7.43092 10.0093 7.16751 10.2356C6.74008 10.6361 6.33875 11.0636 5.966 11.5154C5.74418 11.7787 5.52699 12.0605 5.32365 12.347C3.96208 14.259 3.10534 16.4837 2.83282 18.8149C2.81731 18.9246 2.82404 19.0364 2.85261 19.1436C2.88117 19.2507 2.931 19.351 2.99911 19.4385C3.06723 19.526 3.15225 19.5989 3.24911 19.6528C3.34598 19.7068 3.45272 19.7408 3.56297 19.7527Z" fill="white"/>
<path d="M26.0128 9.96772C25.754 9.73673 25.4813 9.50573 25.1994 9.29783C23.2115 7.79479 20.8585 6.84908 18.3831 6.55821H18.2907C18.089 6.55819 17.8943 6.6327 17.7442 6.76744C17.5941 6.90218 17.499 7.08763 17.4774 7.28816C17.4638 7.39619 17.4717 7.50583 17.5006 7.6108C17.5295 7.71576 17.5789 7.81399 17.6459 7.89984C17.7129 7.98568 17.7961 8.05747 17.8909 8.11106C17.9857 8.16465 18.0902 8.19901 18.1983 8.21215C20.3818 8.46566 22.4569 9.30183 24.2059 10.633C24.46 10.8224 24.7003 11.0211 24.9221 11.2197C25.3096 11.5585 25.6739 11.9227 26.0128 12.31C26.0853 12.3922 26.1733 12.4594 26.2717 12.5076C26.3702 12.5558 26.4772 12.5841 26.5866 12.591C26.6961 12.5978 26.8058 12.5831 26.9095 12.5476C27.0132 12.512 27.1089 12.4564 27.1912 12.3839C27.2734 12.3114 27.3405 12.2235 27.3887 12.125C27.437 12.0266 27.4653 11.9196 27.4722 11.8102C27.4791 11.7008 27.4643 11.5911 27.4288 11.4874C27.3932 11.3838 27.3376 11.2881 27.2651 11.2059C26.876 10.7654 26.4576 10.3518 26.0128 9.96772Z" fill="white"/>
<path d="M7.4817 30.9791C7.74049 31.2055 8.01776 31.4411 8.29504 31.6444C10.1238 33.0283 12.2645 33.9421 14.529 34.3055C14.7472 34.3398 14.9701 34.2861 15.1486 34.1561C15.3271 34.0261 15.4467 33.8306 15.481 33.6125C15.5153 33.3944 15.4616 33.1716 15.3316 32.9931C15.2016 32.8146 15.006 32.6951 14.7878 32.6608C12.7901 32.3409 10.9016 31.5349 9.2886 30.3139C9.04367 30.1291 8.79413 29.935 8.57231 29.7317C8.18598 29.3902 7.82172 29.0245 7.4817 28.6368C7.27386 28.4068 7.07797 28.1662 6.89481 27.9161C5.67159 26.3046 4.86521 24.4162 4.54724 22.4184C4.51347 22.2275 4.41335 22.0547 4.26454 21.9304C4.11573 21.8062 3.92779 21.7385 3.73391 21.7393H3.60451C3.39238 21.7735 3.20206 21.8893 3.07425 22.062C2.94643 22.2346 2.89128 22.4504 2.92057 22.6633C3.28049 24.9274 4.19315 27.068 5.57777 28.8955C5.79034 29.182 6.01678 29.4499 6.24784 29.7133C6.6323 30.1606 7.04439 30.5833 7.4817 30.9791Z" fill="white"/>
<path d="M26.3778 28.6692C26.2645 28.6684 26.1523 28.6909 26.0481 28.7354C25.9439 28.7799 25.8501 28.8455 25.7724 28.9279C25.4174 29.302 25.0426 29.6567 24.6495 29.9905C24.4138 30.1846 24.1642 30.3786 23.9101 30.5634C22.2198 31.7612 20.2559 32.5157 18.1983 32.7579C17.9813 32.7836 17.7835 32.8944 17.6483 33.066C17.5131 33.2375 17.4516 33.4557 17.4774 33.6726C17.5031 33.8895 17.614 34.0873 17.7856 34.2224C17.9571 34.3576 18.1754 34.4191 18.3924 34.3933C20.7237 34.1187 22.9485 33.2624 24.862 31.9032C25.1532 31.6907 25.4351 31.4735 25.7031 31.2518C26.1551 30.8809 26.5827 30.4812 26.9832 30.0552C27.1322 29.8947 27.2118 29.682 27.2049 29.4632C27.198 29.2444 27.105 29.0371 26.9462 28.8864C26.7887 28.7486 26.5871 28.6716 26.3778 28.6692Z" fill="white"/>
<path d="M25.8787 32.5176C23.6576 34.2021 21.0107 35.234 18.2353 35.4975C17.9164 35.5298 17.6022 35.5483 17.311 35.5621C16.7796 35.5621 16.2528 35.5621 15.749 35.5344C15.4348 35.5344 15.1159 35.4882 14.8248 35.442C12.1107 35.0879 9.54463 34.0001 7.40315 32.2958C7.2634 32.1749 7.08426 32.1092 6.89944 32.111C6.77477 32.1117 6.65178 32.1398 6.53918 32.1933C6.42658 32.2468 6.32712 32.3244 6.24785 32.4206C6.1122 32.5923 6.05014 32.8107 6.07526 33.0281C6.10038 33.2454 6.21063 33.4439 6.38186 33.5802C8.75284 35.4743 11.5979 36.6823 14.6076 37.0728C14.9542 37.1144 15.2962 37.1514 15.6428 37.1791C16.1973 37.2161 16.7934 37.2253 17.3711 37.2068C17.7177 37.2068 18.0643 37.1699 18.4109 37.1421C21.4741 36.835 24.3935 35.6905 26.8492 33.8343C26.9545 33.7787 27.0465 33.7011 27.119 33.6068C27.1915 33.5124 27.2428 33.4035 27.2694 33.2875C27.296 33.1715 27.2972 33.0511 27.273 32.9346C27.2487 32.8181 27.1996 32.7082 27.129 32.6124C27.0584 32.5166 26.9679 32.4371 26.8638 32.3795C26.7597 32.3218 26.6443 32.2873 26.5256 32.2783C26.4069 32.2693 26.2877 32.2861 26.176 32.3273C26.0644 32.3686 25.963 32.4335 25.8787 32.5176Z" fill="white"/>
<path d="M1.77916 22.4277C1.73295 22.1228 1.70523 21.8086 1.68674 21.5037C1.66826 21.1988 1.64977 20.8153 1.64977 20.4504C1.64977 20.2748 1.64977 20.0993 1.64977 19.9329C1.64977 19.6234 1.68212 19.3092 1.70985 19.009C1.97753 16.2339 3.00927 13.5873 4.69052 11.363C4.75884 11.2764 4.80916 11.1771 4.83852 11.0708C4.86788 10.9645 4.87568 10.8535 4.86147 10.7441C4.84726 10.6348 4.81133 10.5294 4.75578 10.4342C4.70023 10.3389 4.6262 10.2557 4.53802 10.1895C4.38996 10.0956 4.21885 10.0445 4.04356 10.0417C3.91553 10.0415 3.7892 10.071 3.67453 10.1279C3.55986 10.1849 3.45997 10.2676 3.38272 10.3697C1.51591 12.8361 0.371912 15.7729 0.0785605 18.8519C0.0508333 19.1984 0.023106 19.5402 0 19.8914C0 20.0854 0 20.2748 0 20.4642C0 20.8569 0 21.245 0.0369697 21.6192C0.0739393 21.9934 0.0924241 22.3076 0.143257 22.6633C0.538943 25.6709 1.74673 28.5138 3.63689 30.8868C3.77862 31.0412 3.97372 31.1361 4.18273 31.1522C4.39175 31.1683 4.59909 31.1045 4.76285 30.9737C4.92661 30.8428 5.03456 30.6547 5.06488 30.4473C5.09521 30.2399 5.04564 30.0288 4.92621 29.8566C3.21933 27.7134 2.13108 25.1445 1.77916 22.4277Z" fill="white"/>
<path d="M7.06583 8.88204C9.26492 7.04218 11.9441 5.86886 14.7879 5.50025C15.0975 5.45405 15.4117 5.42633 15.7121 5.40785C16.2334 5.37083 16.7564 5.36157 17.2787 5.38013C17.5883 5.38013 17.9026 5.41247 18.2029 5.44481C21.1044 5.72102 23.8629 6.83502 26.1422 8.65104C26.2257 8.72767 26.3241 8.78631 26.4313 8.82333C26.5384 8.86035 26.652 8.87495 26.7651 8.86623C26.8781 8.8575 26.9882 8.82564 27.0884 8.77263C27.1886 8.71961 27.2768 8.64657 27.3476 8.55803C27.4184 8.46949 27.4702 8.36736 27.4998 8.25796C27.5295 8.14856 27.5363 8.03424 27.5199 7.92209C27.5035 7.80994 27.4642 7.70236 27.4045 7.60602C27.3448 7.50969 27.2659 7.42665 27.1727 7.36208C24.6466 5.34821 21.5899 4.11082 18.3739 3.80011C18.0227 3.77239 17.6807 3.74467 17.3342 3.72157C17.1401 3.72157 16.9414 3.72157 16.7519 3.72157C16.3591 3.72157 15.9709 3.72157 15.5966 3.75853C15.2223 3.79549 14.9034 3.81397 14.5568 3.86479C11.4079 4.27605 8.44196 5.57751 6.00758 7.61618C5.92444 7.68534 5.85574 7.7702 5.8054 7.8659C5.75506 7.96161 5.72408 8.06629 5.71421 8.17397C5.70434 8.28165 5.71578 8.39022 5.74788 8.49348C5.77998 8.59673 5.83211 8.69266 5.90129 8.77578C5.97047 8.8589 6.05535 8.92758 6.15109 8.9779C6.24682 9.02822 6.35153 9.0592 6.45924 9.06907C6.56695 9.07894 6.67555 9.0675 6.77883 9.03541C6.88212 9.00331 6.97807 8.9512 7.06121 8.88204H7.06583Z" fill="white"/>
<path d="M13.0547 20.4457C12.8431 20.4469 12.6405 20.5315 12.4909 20.6811C12.3413 20.8308 12.2567 21.0334 12.2555 21.245V23.2177C12.2555 23.4296 12.3397 23.6329 12.4896 23.7828C12.6394 23.9327 12.8427 24.0169 13.0547 24.0169C13.2667 24.0169 13.47 23.9327 13.6199 23.7828C13.7698 23.6329 13.854 23.4296 13.854 23.2177V21.245C13.8527 21.0334 13.7682 20.8308 13.6185 20.6811C13.4689 20.5315 13.2663 20.4469 13.0547 20.4457Z" fill="white"/>
<path d="M16.1232 17.9787C16.0181 17.978 15.9138 17.9983 15.8166 18.0382C15.7194 18.0782 15.631 18.137 15.5567 18.2114C15.4823 18.2857 15.4235 18.3741 15.3835 18.4713C15.3436 18.5686 15.3233 18.6728 15.3239 18.7779V23.213C15.3156 23.3228 15.33 23.4331 15.3662 23.537C15.4025 23.641 15.4598 23.7363 15.5346 23.817C15.6095 23.8978 15.7002 23.9622 15.801 24.0062C15.9019 24.0503 16.0108 24.073 16.1209 24.073C16.2309 24.073 16.3398 24.0503 16.4407 24.0062C16.5416 23.9622 16.6323 23.8978 16.7071 23.817C16.7819 23.7363 16.8393 23.641 16.8755 23.537C16.9118 23.4331 16.9262 23.3228 16.9178 23.213V18.7779C16.9184 18.6732 16.8983 18.5693 16.8587 18.4724C16.819 18.3754 16.7606 18.2873 16.6867 18.213C16.6129 18.1387 16.5251 18.0798 16.4283 18.0396C16.3316 17.9994 16.2279 17.9786 16.1232 17.9787Z" fill="white"/>
<path d="M19.187 14.9388C18.9759 14.9388 18.7733 15.0223 18.6235 15.1712C18.4738 15.3201 18.389 15.5222 18.3878 15.7334V23.2131C18.3878 23.425 18.472 23.6283 18.6219 23.7782C18.7718 23.9281 18.9751 24.0123 19.187 24.0123C19.399 24.0123 19.6023 23.9281 19.7522 23.7782C19.9021 23.6283 19.9863 23.425 19.9863 23.2131V15.7334C19.9851 15.5222 19.9003 15.3201 19.7506 15.1712C19.6008 15.0223 19.3982 14.9388 19.187 14.9388Z" fill="white"/>
</g>
<path d="M84.8962 9.0818C84.6318 9.0818 84.4001 9.01365 84.2011 8.87736C84.0021 8.74107 83.8481 8.55027 83.7391 8.30495H83.6982L83.6818 8.46032C83.6736 8.52846 83.6587 8.62386 83.6368 8.74652C83.6178 8.86918 83.4624 9.62423 83.1707 11.0117H82.492L83.8658 4.51882H84.4341L84.3278 5.37336H84.3605C84.8485 4.75461 85.3555 4.44523 85.8815 4.44523C86.255 4.44523 86.5494 4.57879 86.7647 4.84592C86.98 5.11032 87.0877 5.48239 87.0877 5.96213C87.0877 6.54 86.9937 7.07016 86.8056 7.55263C86.6175 8.03509 86.3572 8.41125 86.0246 8.68111C85.6921 8.94823 85.3159 9.0818 84.8962 9.0818ZM85.6567 5.01356C85.395 5.01356 85.1279 5.14303 84.8553 5.40198C84.5854 5.66093 84.3701 5.98666 84.2093 6.37918C84.0512 6.77169 83.9721 7.17374 83.9721 7.58534C83.9721 7.88517 84.0471 8.1155 84.197 8.27633C84.3496 8.43442 84.5691 8.51347 84.8553 8.51347C85.1251 8.51347 85.3759 8.40307 85.6076 8.18229C85.842 7.9615 86.0301 7.64803 86.1718 7.24189C86.3136 6.83302 86.3844 6.39962 86.3844 5.94169C86.3844 5.32293 86.1419 5.01356 85.6567 5.01356ZM90.2972 4.46158C90.8151 4.46158 91.2239 4.61559 91.5238 4.9236C91.8236 5.22889 91.9735 5.65003 91.9735 6.18701C91.9735 6.69946 91.8754 7.18328 91.6791 7.63849C91.4829 8.0937 91.2171 8.44532 90.8818 8.69337C90.5466 8.94142 90.1677 9.06544 89.7452 9.06544C89.2218 9.06544 88.8116 8.91143 88.5145 8.60342C88.2174 8.29541 88.0688 7.87427 88.0688 7.34002C88.0688 6.82212 88.1683 6.33556 88.3673 5.88036C88.5663 5.42242 88.8348 5.07216 89.1728 4.82956C89.5108 4.58424 89.8856 4.46158 90.2972 4.46158ZM91.2621 6.09297C91.2621 5.7795 91.1762 5.526 91.0045 5.33247C90.8355 5.13622 90.6052 5.03809 90.3135 5.03809C90.0164 5.03809 89.7493 5.13894 89.5121 5.34065C89.2777 5.54236 89.0951 5.82311 88.9642 6.18292C88.8361 6.54 88.7721 6.93796 88.7721 7.37681C88.7721 7.73389 88.8579 8.01056 89.0297 8.20682C89.2041 8.40035 89.4535 8.49711 89.7779 8.49711C90.0614 8.49711 90.3162 8.39762 90.5425 8.19864C90.7687 7.99966 90.9445 7.71754 91.0699 7.35228C91.198 6.9843 91.2621 6.56453 91.2621 6.09297ZM95.9353 9.00002L95.8044 6.53863C95.7935 6.28241 95.7881 6.04799 95.7881 5.83538V5.19755H95.7513L95.5469 5.68001L95.2075 6.45277L94.0177 9.00002H93.1918L93.016 4.51882H93.6865L93.7601 6.9475V7.30731C93.7601 7.708 93.7492 8.07462 93.7274 8.40716H93.7519C93.88 8.06917 94.0668 7.63031 94.3121 7.09061L95.5182 4.51882H96.2624L96.4137 6.9475C96.43 7.40544 96.4382 7.76251 96.4382 8.01874V8.23544L96.43 8.40716H96.4546C96.5309 8.17275 96.644 7.87563 96.7939 7.51583C96.9438 7.1533 97.384 6.1543 98.1146 4.51882H98.8423L96.7735 9.00002H95.9353ZM100.719 9.0818C100.217 9.0818 99.8235 8.93324 99.5373 8.63613C99.251 8.33902 99.1079 7.92742 99.1079 7.40135C99.1079 6.8889 99.2088 6.39826 99.4105 5.92942C99.6149 5.45786 99.8848 5.09124 100.22 4.82956C100.555 4.56789 100.925 4.43705 101.328 4.43705C101.745 4.43705 102.059 4.52836 102.268 4.71099C102.478 4.89089 102.583 5.14303 102.583 5.4674C102.583 5.95804 102.357 6.34374 101.905 6.6245C101.452 6.90253 100.805 7.04154 99.9625 7.04154H99.8276L99.8112 7.36864C99.8112 7.72572 99.8943 8.00511 100.061 8.20682C100.23 8.4058 100.49 8.50529 100.842 8.50529C101.013 8.50529 101.189 8.48076 101.369 8.4317C101.552 8.38263 101.778 8.29268 102.048 8.16184V8.75879C101.791 8.87873 101.565 8.96186 101.369 9.0082C101.173 9.05726 100.956 9.0818 100.719 9.0818ZM101.287 5.02173C101.006 5.02173 100.742 5.14984 100.494 5.40607C100.249 5.66229 100.061 6.01801 99.9298 6.47322H99.9788C100.6 6.47322 101.076 6.3928 101.406 6.23198C101.738 6.06844 101.905 5.83265 101.905 5.52464C101.905 5.38017 101.854 5.26024 101.753 5.16484C101.655 5.06943 101.5 5.02173 101.287 5.02173ZM106.079 4.43705C106.267 4.43705 106.431 4.45613 106.57 4.49429L106.422 5.10759C106.278 5.07216 106.135 5.05444 105.993 5.05444C105.745 5.05444 105.512 5.13622 105.294 5.29976C105.079 5.46331 104.889 5.69091 104.726 5.98257C104.565 6.27151 104.446 6.59315 104.37 6.9475L103.932 9.00002H103.246L104.202 4.51882H104.771L104.681 5.34883H104.722C104.918 5.08988 105.08 4.90452 105.208 4.79277C105.336 4.67828 105.47 4.59106 105.609 4.53109C105.751 4.4684 105.907 4.43705 106.079 4.43705ZM108.503 9.0818C108.002 9.0818 107.608 8.93324 107.322 8.63613C107.036 8.33902 106.892 7.92742 106.892 7.40135C106.892 6.8889 106.993 6.39826 107.195 5.92942C107.399 5.45786 107.669 5.09124 108.005 4.82956C108.34 4.56789 108.709 4.43705 109.113 4.43705C109.53 4.43705 109.843 4.52836 110.053 4.71099C110.263 4.89089 110.368 5.14303 110.368 5.4674C110.368 5.95804 110.142 6.34374 109.689 6.6245C109.237 6.90253 108.589 7.04154 107.747 7.04154H107.612L107.596 7.36864C107.596 7.72572 107.679 8.00511 107.845 8.20682C108.014 8.4058 108.274 8.50529 108.626 8.50529C108.798 8.50529 108.974 8.48076 109.154 8.4317C109.336 8.38263 109.562 8.29268 109.832 8.16184V8.75879C109.576 8.87873 109.35 8.96186 109.154 9.0082C108.957 9.05726 108.741 9.0818 108.503 9.0818ZM109.072 5.02173C108.791 5.02173 108.527 5.14984 108.279 5.40607C108.033 5.66229 107.845 6.01801 107.714 6.47322H107.763C108.385 6.47322 108.86 6.3928 109.19 6.23198C109.523 6.06844 109.689 5.83265 109.689 5.52464C109.689 5.38017 109.639 5.26024 109.538 5.16484C109.44 5.06943 109.284 5.02173 109.072 5.02173ZM113.401 4.44523C113.93 4.44523 114.313 4.70418 114.55 5.22208H114.591C114.638 4.79958 114.699 4.42615 114.775 4.10178L115.094 2.63803H115.773L114.424 9.00002H113.855L113.945 8.14549H113.913C113.637 8.48621 113.38 8.72744 113.14 8.86918C112.9 9.01093 112.652 9.0818 112.396 9.0818C112.017 9.0818 111.721 8.94823 111.508 8.68111C111.296 8.41398 111.19 8.04327 111.19 7.56898C111.19 6.98566 111.288 6.45141 111.484 5.96622C111.68 5.48103 111.945 5.10623 112.277 4.84183C112.612 4.57743 112.987 4.44523 113.401 4.44523ZM112.625 8.51347C112.881 8.51347 113.145 8.38672 113.418 8.13322C113.69 7.877 113.906 7.55127 114.064 7.15603C114.225 6.75806 114.305 6.35328 114.305 5.94169C114.305 5.63912 114.231 5.40879 114.084 5.2507C113.937 5.0926 113.723 5.01356 113.442 5.01356C113.167 5.01356 112.911 5.12668 112.674 5.35292C112.439 5.57643 112.25 5.89262 112.105 6.30149C111.964 6.70763 111.893 7.13558 111.893 7.58534C111.893 8.20409 112.137 8.51347 112.625 8.51347ZM120.36 9.0818C120.096 9.0818 119.863 9.01229 119.661 8.87327C119.462 8.73426 119.312 8.54482 119.211 8.30495H119.17L118.884 9.00002H118.373L119.722 2.63803H120.409C120.27 3.29767 120.162 3.8033 120.086 4.15493C120.013 4.50383 119.91 4.9127 119.78 5.38154H119.816C120.07 5.05989 120.319 4.82411 120.565 4.67419C120.813 4.52155 121.067 4.44523 121.329 4.44523C121.713 4.44523 122.013 4.58015 122.229 4.85001C122.444 5.11986 122.552 5.49057 122.552 5.96213C122.552 6.53182 122.458 7.05926 122.27 7.54445C122.084 8.02692 121.824 8.40444 121.489 8.67702C121.156 8.94687 120.78 9.0818 120.36 9.0818ZM121.121 5.01356C120.859 5.01356 120.592 5.14303 120.319 5.40198C120.049 5.66093 119.834 5.98666 119.673 6.37918C119.515 6.77169 119.436 7.17374 119.436 7.58534C119.436 7.88517 119.511 8.1155 119.661 8.27633C119.814 8.43442 120.033 8.51347 120.319 8.51347C120.589 8.51347 120.84 8.40307 121.072 8.18229C121.306 7.9615 121.494 7.64803 121.636 7.24189C121.778 6.83302 121.848 6.39962 121.848 5.94169C121.848 5.32293 121.606 5.01356 121.121 5.01356ZM123.533 4.51882H124.22L124.522 6.74716C124.549 6.93524 124.575 7.21327 124.6 7.58125C124.627 7.94651 124.641 8.24089 124.641 8.46441H124.665C124.761 8.22726 124.879 7.95468 125.021 7.64667C125.163 7.33865 125.268 7.12604 125.336 7.00883L126.665 4.51882H127.392L124.547 9.76052C124.293 10.2294 124.042 10.5551 123.794 10.7377C123.546 10.9203 123.248 11.0117 122.899 11.0117C122.703 11.0117 122.512 10.983 122.327 10.9258V10.3738C122.498 10.4229 122.677 10.4474 122.862 10.4474C123.086 10.4474 123.277 10.3779 123.435 10.2389C123.595 10.1026 123.751 9.89953 123.901 9.62968L124.211 9.07362L123.533 4.51882Z" fill="white"/>
<defs>
<clipPath id="clip0">
<rect width="127" height="34.2" fill="white" transform="translate(0 3.80001)"/>
</clipPath>
</defs>
</svg>
