<svg width="72" height="72" viewBox="0 0 72 72" fill="none" xmlns="http://www.w3.org/2000/svg">
<path d="M67.327 71.999H3.74514C3.65876 71.999 3.57323 71.982 3.49343 71.9489C3.41364 71.9159 3.34113 71.8674 3.28005 71.8064C3.21898 71.7453 3.17053 71.6728 3.13747 71.593C3.10442 71.5132 3.08741 71.4277 3.08741 71.3413C3.08741 71.2549 3.10442 71.1694 3.13747 71.0896C3.17053 71.0098 3.21898 70.9373 3.28005 70.8762C3.34113 70.8151 3.41364 70.7667 3.49343 70.7336C3.57323 70.7006 3.65876 70.6836 3.74514 70.6836H67.3163C67.4026 70.6836 67.4882 70.7006 67.568 70.7336C67.6478 70.7667 67.7203 70.8151 67.7814 70.8762C67.8424 70.9373 67.8909 71.0098 67.9239 71.0896C67.957 71.1694 67.974 71.2549 67.974 71.3413C67.974 71.4277 67.957 71.5132 67.9239 71.593C67.8909 71.6728 67.8424 71.7453 67.7814 71.8064C67.7203 71.8674 67.6478 71.9159 67.568 71.9489C67.4882 71.982 67.4026 71.999 67.3163 71.999H67.327ZM23.2221 2.94711H3.74514C3.6567 2.95052 3.56848 2.93604 3.48577 2.90454C3.40306 2.87304 3.32756 2.82518 3.26379 2.76381C3.20002 2.70245 3.14928 2.62884 3.11463 2.5474C3.07998 2.46597 3.06211 2.37837 3.06211 2.28987C3.06211 2.20137 3.07998 2.11377 3.11463 2.03234C3.14928 1.9509 3.20002 1.87729 3.26379 1.81593C3.32756 1.75456 3.40306 1.7067 3.48577 1.6752C3.56848 1.6437 3.6567 1.62922 3.74514 1.63263H23.2221C23.392 1.63917 23.5528 1.71127 23.6708 1.83382C23.7887 1.95636 23.8545 2.11981 23.8545 2.28987C23.8545 2.45993 23.7887 2.62338 23.6708 2.74593C23.5528 2.86847 23.392 2.94057 23.2221 2.94711ZM23.2221 9.12938H3.74514C3.65221 9.14185 3.55769 9.1343 3.46792 9.10725C3.37815 9.08019 3.2952 9.03426 3.22463 8.97253C3.15406 8.91079 3.09751 8.83468 3.05876 8.74931C3.02002 8.66393 2.99997 8.57125 2.99997 8.47749C2.99997 8.38373 3.02002 8.29106 3.05876 8.20568C3.09751 8.1203 3.15406 8.04419 3.22463 7.98246C3.2952 7.92072 3.37815 7.87479 3.46792 7.84774C3.55769 7.82068 3.65221 7.81314 3.74514 7.8256H23.2221C23.315 7.81314 23.4096 7.82068 23.4993 7.84774C23.5891 7.87479 23.6721 7.92072 23.7426 7.98246C23.8132 8.04419 23.8697 8.1203 23.9085 8.20568C23.9472 8.29106 23.9673 8.38373 23.9673 8.47749C23.9673 8.57125 23.9472 8.66393 23.9085 8.74931C23.8697 8.83468 23.8132 8.91079 23.7426 8.97253C23.6721 9.03426 23.5891 9.08019 23.4993 9.10725C23.4096 9.1343 23.315 9.14185 23.2221 9.12938ZM13.4788 15.1248H3.74416C3.56972 15.1248 3.40243 15.0555 3.27908 14.9322C3.15573 14.8089 3.08643 14.6416 3.08643 14.4671C3.08643 14.2927 3.15573 14.1254 3.27908 14.002C3.40243 13.8787 3.56972 13.8094 3.74416 13.8094H13.4768C13.6513 13.8094 13.8185 13.8787 13.9419 14.002C14.0652 14.1254 14.1345 14.2927 14.1345 14.4671C14.1345 14.6416 14.0652 14.8089 13.9419 14.9322C13.8185 15.0555 13.6513 15.1248 13.4768 15.1248H13.4788ZM13.4788 21.4375H3.74416C3.65573 21.4409 3.56751 21.4264 3.4848 21.3949C3.40209 21.3634 3.32659 21.3156 3.26282 21.2542C3.19904 21.1928 3.14831 21.1192 3.11366 21.0378C3.079 20.9563 3.06114 20.8688 3.06114 20.7803C3.06114 20.6917 3.079 20.6042 3.11366 20.5227C3.14831 20.4413 3.19904 20.3677 3.26282 20.3063C3.32659 20.2449 3.40209 20.1971 3.4848 20.1656C3.56751 20.1341 3.65573 20.1196 3.74416 20.123H13.4768C13.6467 20.1295 13.8075 20.2017 13.9255 20.3242C14.0434 20.4467 14.1093 20.6102 14.1093 20.7803C14.1093 20.9503 14.0434 21.1138 13.9255 21.2363C13.8075 21.3588 13.6467 21.431 13.4768 21.4375H13.4788Z" fill="#48A6EB"/>
<path d="M12.4153 65.8498H4.28124C3.96654 65.8495 3.66464 65.7252 3.44111 65.5036C3.21758 65.2821 3.09048 64.9813 3.0874 64.6667V54.8017C3.08727 54.6447 3.11809 54.4893 3.17809 54.3443C3.23809 54.1993 3.3261 54.0675 3.43707 53.9565C3.54804 53.8456 3.67981 53.7576 3.82483 53.6976C3.96985 53.6376 4.12527 53.6067 4.28221 53.6069H12.4153C12.732 53.6071 13.0357 53.7331 13.2595 53.9572C13.4834 54.1812 13.6091 54.485 13.6091 54.8017V64.6667C13.6061 64.9813 13.479 65.2821 13.2554 65.5036C13.0319 65.7252 12.73 65.8495 12.4153 65.8498ZM4.40286 64.5343H12.2937V54.8893H4.40286V64.5353V64.5343ZM26.0058 65.8498H17.8844C17.5676 65.8526 17.2626 65.7297 17.0364 65.5078C16.8102 65.286 16.6812 64.9835 16.6779 64.6667V49.3219C16.6779 49.164 16.7092 49.0077 16.7699 48.862C16.8307 48.7162 16.9198 48.584 17.032 48.4729C17.1441 48.3618 17.2772 48.274 17.4236 48.2147C17.5699 48.1553 17.7265 48.1255 17.8844 48.1271H26.0058C26.1627 48.1271 26.3181 48.158 26.463 48.218C26.608 48.2781 26.7397 48.3661 26.8506 48.477C26.9616 48.588 27.0496 48.7197 27.1096 48.8647C27.1697 49.0096 27.2006 49.165 27.2006 49.3219V64.6657C27.1978 64.9807 27.0706 65.2819 26.8469 65.5036C26.6231 65.7254 26.3208 65.8498 26.0058 65.8498ZM17.9933 64.5343H25.8958V49.4104H17.9933V64.5363V64.5343ZM39.6079 65.8498H31.4758C31.161 65.8498 30.8588 65.7255 30.6351 65.504C30.4113 65.2824 30.2841 64.9815 30.281 64.6667V43.8411C30.281 43.5244 30.4068 43.2207 30.6306 42.9966C30.8545 42.7726 31.1581 42.6466 31.4749 42.6463H39.6089C39.9256 42.6466 40.2293 42.7726 40.4531 42.9966C40.677 43.2207 40.8028 43.5244 40.8028 43.8411V64.6667C40.7997 64.9815 40.6724 65.2824 40.4487 65.504C40.225 65.7255 39.9228 65.8498 39.6079 65.8498ZM31.5848 64.5343H39.4766V43.9287H31.5858V64.5363L31.5848 64.5343ZM53.1994 65.8498H45.0663C44.7514 65.8498 44.4493 65.7255 44.2256 65.504C44.0018 65.2824 43.8746 64.9815 43.8715 64.6667V38.3614C43.8715 38.0445 43.9974 37.7406 44.2215 37.5165C44.4455 37.2924 44.7494 37.1665 45.0663 37.1665H53.1994C53.5163 37.1665 53.8202 37.2924 54.0443 37.5165C54.2683 37.7406 54.3942 38.0445 54.3942 38.3614V64.6667C54.3911 64.9815 54.2639 65.2824 54.0402 65.504C53.8164 65.7255 53.5143 65.8498 53.1994 65.8498ZM45.187 64.5343H53.0778V38.4489H45.187V64.5343ZM66.7899 65.8498H58.6578C58.3429 65.8498 58.0408 65.7255 57.817 65.504C57.5933 65.2824 57.466 64.9815 57.463 64.6667V21.9201C57.463 21.6032 57.5889 21.2993 57.8129 21.0752C58.037 20.8511 58.3409 20.7253 58.6578 20.7253H66.7899C66.9468 20.7253 67.1022 20.7562 67.2471 20.8162C67.3921 20.8762 67.5238 20.9643 67.6347 21.0752C67.7457 21.1861 67.8337 21.3179 67.8937 21.4628C67.9538 21.6078 67.9847 21.7632 67.9847 21.9201V64.6667C67.9816 64.9815 67.8544 65.2824 67.6306 65.504C67.4069 65.7255 67.1048 65.8498 66.7899 65.8498ZM58.7784 64.5343H66.6595V22.0076H58.7668L58.7784 64.5353V64.5343ZM3.74513 42.7456C3.57042 42.7401 3.40455 42.6674 3.28205 42.5428C3.15954 42.4181 3.08982 42.2509 3.0874 42.0762C3.08752 41.9904 3.1047 41.9055 3.13794 41.8264C3.17118 41.7473 3.21982 41.6756 3.28103 41.6155C3.34223 41.5553 3.41479 41.508 3.49446 41.4762C3.57414 41.4444 3.65935 41.4287 3.74513 41.4301C4.11778 41.4301 21.6109 41.3095 39.7724 29.1755C58.252 16.7915 63.3709 1.09649 63.4253 0.8873C63.4503 0.804655 63.4916 0.727847 63.5468 0.661402C63.6019 0.594957 63.6698 0.540219 63.7464 0.500414C63.823 0.460608 63.9068 0.436541 63.9929 0.429628C64.0789 0.422716 64.1655 0.433099 64.2475 0.460165C64.4129 0.512938 64.5508 0.628994 64.631 0.783016C64.7112 0.937038 64.7272 1.11653 64.6756 1.28233C64.6756 1.44676 59.3924 17.6137 40.5615 30.2293C22.0273 42.5811 4.18297 42.7456 3.74416 42.7456H3.74513Z" fill="black"/>
<path d="M69.2233 11.8917C69.0987 11.889 68.9773 11.8516 68.8728 11.7837C68.7682 11.7158 68.6848 11.6201 68.6317 11.5073L63.8641 1.51198L53.5827 6.03825C53.5037 6.07427 53.4183 6.09402 53.3315 6.09632C53.2447 6.09862 53.1583 6.08344 53.0775 6.05166C52.9967 6.01988 52.9232 5.97217 52.8612 5.91136C52.7992 5.85055 52.7501 5.77789 52.7168 5.69771C52.6463 5.53917 52.6413 5.35921 52.7029 5.19702C52.7645 5.03483 52.8877 4.90355 53.0457 4.83176L63.9186 0.0554366C64.0761 -0.0130242 64.2538 -0.0182719 64.4151 0.0407812C64.5763 0.0998343 64.7086 0.21866 64.7846 0.372626L69.8265 10.9605C69.8982 11.1193 69.905 11.2998 69.8456 11.4635C69.7862 11.6272 69.6652 11.7613 69.5084 11.8372C69.4189 11.8773 69.3213 11.8963 69.2233 11.8926V11.8917Z" fill="black"/>
</svg>
