<svg width="72" height="72" viewBox="0 0 72 72" fill="none" xmlns="http://www.w3.org/2000/svg">
<g clip-path="url(#clip0)">
<path d="M11.4295 56.5365C11.2539 56.5365 11.0856 56.4669 10.9613 56.3428C10.8371 56.2188 10.7672 56.0505 10.7669 55.8749V40.5117C10.7665 40.3805 10.805 40.2521 10.8777 40.1429C10.9504 40.0337 11.0539 39.9485 11.175 39.8983C11.2962 39.848 11.4296 39.8349 11.5582 39.8606C11.6869 39.8863 11.805 39.9497 11.8975 40.0427C12.022 40.1672 12.0921 40.3346 12.0921 40.5107V55.8749C12.0921 55.9619 12.075 56.048 12.0416 56.1283C12.0083 56.2087 11.9595 56.2817 11.898 56.3431C11.8364 56.4046 11.7634 56.4533 11.683 56.4865C11.6026 56.5197 11.5165 56.5367 11.4295 56.5365ZM62.6468 62.747H60.8244C60.6937 62.7464 60.5662 62.7071 60.4577 62.6342C60.3492 62.5613 60.2647 62.458 60.2147 62.3373C60.1647 62.2165 60.1515 62.0837 60.1767 61.9555C60.2019 61.8272 60.2644 61.7093 60.3564 61.6164C60.48 61.4929 60.6483 61.4228 60.8244 61.4228H62.6468C62.8028 61.4242 62.9575 61.3948 63.102 61.3361C63.2466 61.2775 63.3781 61.1908 63.489 61.0811C63.5998 60.9714 63.6879 60.8408 63.7481 60.6969C63.8083 60.553 63.8394 60.3986 63.8397 60.2426V56.4042C63.8396 56.2732 63.8784 56.1451 63.9513 56.0362C64.0241 55.9273 64.1276 55.8424 64.2487 55.7924C64.3698 55.7424 64.503 55.7294 64.6315 55.7552C64.7599 55.781 64.8778 55.8443 64.9703 55.9372C65.0948 56.0608 65.1649 56.2291 65.1649 56.4042V60.2426C65.1623 60.9083 64.8957 61.5458 64.4236 62.0151C63.9515 62.4845 63.3125 62.7474 62.6468 62.7461V62.747ZM64.5013 51.4635C64.326 51.463 64.158 51.3931 64.034 51.2691C63.9101 51.1451 63.8402 50.9772 63.8397 50.8018V33.6941C63.8394 33.563 63.8781 33.4347 63.9509 33.3257C64.0236 33.2166 64.1271 33.1316 64.2482 33.0814C64.3694 33.0313 64.5027 33.0183 64.6312 33.044C64.7598 33.0698 64.8778 33.1331 64.9703 33.2261C65.0948 33.3496 65.1649 33.518 65.1649 33.6931V50.8009C65.1649 50.8878 65.1477 50.9739 65.1144 51.0543C65.0811 51.1346 65.0323 51.2076 64.9707 51.2691C64.9092 51.3305 64.8361 51.3792 64.7558 51.4124C64.6754 51.4456 64.5892 51.4626 64.5023 51.4625L64.5013 51.4635ZM41.4554 43.6213C41.28 43.6208 41.112 43.5509 40.9878 43.427C40.8637 43.3031 40.7936 43.1351 40.7929 42.9597V11.5813C40.7926 11.2639 40.8549 10.9495 40.9763 10.6562C41.0977 10.363 41.2757 10.0965 41.5002 9.87209C41.7247 9.64769 41.9913 9.46977 42.2846 9.3485C42.5779 9.22724 42.8923 9.16502 43.2097 9.16541H62.7344C63.3743 9.16873 63.987 9.42426 64.4397 9.87656C64.8923 10.3289 65.1484 10.9414 65.1522 11.5813V20.9559C65.1523 21.0869 65.1134 21.215 65.0406 21.3239C64.9678 21.4329 64.8643 21.5177 64.7432 21.5677C64.6221 21.6177 64.4889 21.6307 64.3604 21.6049C64.2319 21.5791 64.114 21.5158 64.0216 21.4229C63.8974 21.2992 63.8274 21.1312 63.827 20.9559V11.5813C63.8271 11.4363 63.7987 11.2927 63.7432 11.1587C63.6877 11.0247 63.6064 10.903 63.5038 10.8005C63.4012 10.698 63.2794 10.6167 63.1454 10.5614C63.0113 10.506 62.8677 10.4777 62.7227 10.4779H43.2107C42.9181 10.4782 42.6375 10.5945 42.4304 10.8013C42.2234 11.0082 42.1069 11.2887 42.1064 11.5813V43.0151C42.0926 43.1792 42.0182 43.3322 41.8976 43.4442C41.7771 43.5563 41.6191 43.6195 41.4545 43.6213H41.4554Z" fill="#48A6EB"/>
<path d="M35.1603 71.2508H70.7964C70.9399 71.2508 71.0775 71.1938 71.179 71.0924C71.2804 70.9909 71.3374 70.8533 71.3374 70.7098V1.22401C71.3406 1.15111 71.3289 1.07834 71.3031 1.01009C71.2773 0.941845 71.2379 0.879544 71.1874 0.826963C71.1368 0.774382 71.0761 0.732617 71.0089 0.704197C70.9417 0.675777 70.8694 0.661295 70.7964 0.661627H35.1603C35.0169 0.661627 34.8793 0.718622 34.7778 0.820074C34.6763 0.921526 34.6194 1.05912 34.6194 1.2026V43.0151" stroke="black" stroke-width="1.2" stroke-miterlimit="10"/>
<path d="M53.0056 40.8084C51.7637 40.808 50.5498 40.44 49.5167 39.7507C48.4837 39.0613 47.6779 38.0816 47.2009 36.935C46.725 35.7882 46.6004 34.5259 46.8429 33.3081C47.0854 32.0904 47.6841 30.9721 48.563 30.095C49.442 29.2178 50.561 28.6206 51.779 28.3787C52.997 28.1368 54.2593 28.261 55.4068 28.7357C56.5543 29.2104 57.5354 30.0143 58.2265 31.046C58.9176 32.0777 59.2877 33.291 59.29 34.5328C59.2906 35.7749 58.9222 36.9892 58.2315 38.0216C57.5409 39.0541 56.5591 39.8581 55.4108 40.3317C54.6481 40.6469 53.8309 40.8089 53.0056 40.8084ZM53.0056 29.5803C52.0254 29.5806 51.0672 29.8712 50.252 30.4155C49.4368 30.9597 48.801 31.7332 48.4249 32.6384C48.0497 33.5432 47.9515 34.5391 48.1429 35.4997C48.3343 36.4604 48.8066 37.3426 49.5 38.0345C50.1935 38.7269 51.0766 39.1984 52.0377 39.3894C52.9989 39.5804 53.9952 39.4825 54.9007 39.1079C55.8063 38.7332 56.5806 38.0988 57.1259 37.2845C57.6713 36.4703 57.9632 35.5127 57.9649 34.5328C57.976 33.5458 57.6917 32.578 57.1485 31.7539C56.6053 30.9298 55.828 30.287 54.9165 29.9082C54.3111 29.6557 53.6616 29.5257 53.0056 29.5258V29.5813V29.5803ZM64.5013 28.08C64.6768 28.0801 64.8451 28.0105 64.9693 27.8866C65.0934 27.7626 65.1633 27.5943 65.1634 27.4189C65.1635 27.2434 65.0939 27.0751 64.97 26.9509C64.846 26.8267 64.6777 26.7569 64.5023 26.7568C64.3268 26.7568 64.1585 26.8265 64.0344 26.9505C63.9103 27.0746 63.8406 27.2429 63.8406 27.4184C63.8406 27.5939 63.9103 27.7621 64.0344 27.8862C64.1585 28.0103 64.3268 28.08 64.5023 28.08H64.5013ZM30.6 43.235L16.4209 11.8566C16.3544 11.7119 16.3175 11.5555 16.3121 11.3963C16.3067 11.2372 16.3331 11.0786 16.3896 10.9298C16.4461 10.7809 16.5316 10.6448 16.6412 10.5293C16.7508 10.4138 16.8823 10.3213 17.028 10.2571L34.3557 2.81287L34.8743 4.02616L17.6702 11.4266L31.8036 42.6843L30.6 43.235Z" fill="black"/>
<path d="M34.6194 35.14C34.4905 35.1399 34.3645 35.1023 34.2567 35.0318C34.1489 34.9613 34.064 34.8609 34.0122 34.743L26.1506 16.9746C26.0835 16.8121 26.0827 16.6297 26.1486 16.4667C26.2145 16.3037 26.3416 16.173 26.5028 16.1028L34.3547 12.639C34.4343 12.6029 34.5204 12.5832 34.6077 12.5809C34.6951 12.5787 34.7821 12.5939 34.8634 12.6259C34.9448 12.6578 35.0189 12.7057 35.0815 12.7668C35.144 12.8279 35.1936 12.9009 35.2275 12.9815C35.2986 13.141 35.3037 13.3222 35.2417 13.4855C35.1798 13.6489 35.0557 13.781 34.8967 13.8533L27.6071 17.0514L35.2158 34.1913C35.2524 34.27 35.273 34.3553 35.2761 34.4421C35.2793 34.5288 35.265 34.6154 35.2342 34.6965C35.2034 34.7777 35.1566 34.8519 35.0966 34.9147C35.0366 34.9775 34.9647 35.0276 34.885 35.0621C34.8041 35.1093 34.7129 35.1361 34.6194 35.14ZM21.6555 71.9125H1.20357C0.884441 71.9122 0.578459 71.7854 0.352802 71.5597C0.127145 71.334 0.000258067 71.0281 3.9523e-07 70.7089V41.0517C-0.000127784 40.8937 0.030923 40.7372 0.0913745 40.5912C0.151826 40.4451 0.240491 40.3125 0.352291 40.2007C0.46409 40.089 0.596829 40.0005 0.742905 39.9401C0.88898 39.8798 1.04552 39.8489 1.20357 39.8491H21.6555C21.9744 39.8494 22.2803 39.9762 22.5059 40.2016C22.7315 40.427 22.8585 40.7328 22.859 41.0517V70.7099C22.859 70.8679 22.8279 71.0243 22.7674 71.1702C22.7069 71.3161 22.6182 71.4487 22.5064 71.5603C22.3946 71.6719 22.2619 71.7603 22.1159 71.8206C21.9699 71.8809 21.8134 71.9118 21.6555 71.9115V71.9125ZM1.32519 70.5873H21.5338V41.1724H1.32519V70.5893V70.5873ZM57.5445 50.7357C57.4546 50.7406 57.3647 50.7271 57.2802 50.6961C57.1957 50.665 57.1184 50.6171 57.053 50.5552C56.9876 50.4933 56.9356 50.4187 56.9 50.336C56.8644 50.2532 56.8461 50.1642 56.8461 50.0741C56.8461 49.9841 56.8644 49.895 56.9 49.8123C56.9356 49.7296 56.9876 49.655 57.053 49.5931C57.1184 49.5312 57.1957 49.4832 57.2802 49.4522C57.3647 49.4211 57.4546 49.4076 57.5445 49.4125C57.9386 49.4368 58.3334 49.3802 58.7047 49.2463C59.0761 49.1123 59.4161 48.9039 59.7039 48.6336C59.9917 48.3634 60.2212 48.0372 60.3782 47.675C60.5353 47.3129 60.6166 46.9224 60.6172 46.5276C60.6175 45.9327 60.4339 45.3523 60.0917 44.8657C59.7495 44.3791 59.2652 44.0101 58.7053 43.8091C58.3337 43.6755 57.9387 43.6192 57.5445 43.6437H31.2071C31.1172 43.6486 31.0273 43.6351 30.9428 43.6041C30.8582 43.573 30.781 43.5251 30.7156 43.4632C30.6502 43.4013 30.5982 43.3267 30.5626 43.244C30.527 43.1612 30.5086 43.0722 30.5086 42.9821C30.5086 42.8921 30.527 42.803 30.5626 42.7203C30.5982 42.6376 30.6502 42.563 30.7156 42.5011C30.781 42.4392 30.8582 42.3912 30.9428 42.3602C31.0273 42.3291 31.1172 42.3156 31.2071 42.3205H57.5455C58.1166 42.2915 58.6876 42.3788 59.2239 42.5769C59.7603 42.7751 60.2508 43.0801 60.6658 43.4735C61.2899 44.0663 61.7174 44.8361 61.891 45.6792C62.0646 46.5223 61.9759 47.3983 61.6369 48.1895C61.2971 48.9815 60.7226 49.6503 59.9908 50.1056C59.259 50.5609 58.4052 50.7809 57.5445 50.7357Z" fill="black"/>
<path d="M62.3267 57.816H41.4554C41.3655 57.8208 41.2756 57.8073 41.1911 57.7763C41.1066 57.7452 41.0293 57.6973 40.9639 57.6354C40.8985 57.5735 40.8465 57.4989 40.8109 57.4162C40.7753 57.3335 40.757 57.2444 40.757 57.1543C40.757 57.0643 40.7753 56.9752 40.8109 56.8925C40.8465 56.8098 40.8985 56.7352 40.9639 56.6733C41.0293 56.6114 41.1066 56.5634 41.1911 56.5324C41.2756 56.5013 41.3655 56.4878 41.4554 56.4927H62.3257C63.0923 56.4922 63.8274 56.1877 64.3699 55.646C64.9123 55.1043 65.2178 54.3696 65.2193 53.603C65.2196 53.2232 65.1449 52.8471 64.9996 52.4962C64.8543 52.1453 64.6412 51.8265 64.3725 51.558C64.1038 51.2896 63.7848 51.0768 63.4337 50.9319C63.0827 50.7869 62.7065 50.7126 62.3267 50.7133H41.4554C41.3655 50.7181 41.2756 50.7046 41.1911 50.6736C41.1066 50.6425 41.0293 50.5946 40.9639 50.5327C40.8985 50.4708 40.8465 50.3962 40.8109 50.3135C40.7753 50.2308 40.757 50.1417 40.757 50.0516C40.757 49.9616 40.7753 49.8725 40.8109 49.7898C40.8465 49.7071 40.8985 49.6325 40.9639 49.5706C41.0293 49.5087 41.1066 49.4607 41.1911 49.4297C41.2756 49.3986 41.3655 49.3851 41.4554 49.39H62.3257C63.4446 49.39 64.5178 49.8337 65.3089 50.6237C65.8993 51.2127 66.3015 51.9638 66.4645 52.7817C66.6276 53.5996 66.5441 54.4475 66.2247 55.2178C65.9052 55.9882 65.3643 56.6464 64.6703 57.1089C63.9763 57.5715 63.1607 57.8176 62.3267 57.816Z" fill="black"/>
<path d="M57.5445 64.908H41.4555C41.3249 64.9074 41.1974 64.8682 41.089 64.7954C40.9806 64.7227 40.896 64.6195 40.846 64.4989C40.7959 64.3783 40.7825 64.2456 40.8075 64.1175C40.8325 63.9893 40.8948 63.8714 40.9865 63.7784C41.1108 63.654 41.2795 63.584 41.4555 63.5838H57.5445C58.1381 63.62 58.7284 63.4728 59.2354 63.1621C59.7424 62.8514 60.1416 62.3923 60.3788 61.8471C60.5357 61.4849 60.6167 61.0944 60.6167 60.6997C60.6168 60.305 60.5358 59.9145 60.379 59.5523C60.2222 59.1901 59.9927 58.8639 59.7048 58.5939C59.417 58.3239 59.0768 58.1158 58.7053 57.9824C58.3337 57.8487 57.9387 57.7924 57.5445 57.817C57.4555 57.8204 57.3666 57.8058 57.2833 57.7741C57.2 57.7424 57.1239 57.6941 57.0597 57.6323C56.9955 57.5705 56.9444 57.4964 56.9094 57.4143C56.8745 57.3323 56.8566 57.2441 56.8566 57.1549C56.8566 57.0658 56.8745 56.9775 56.9094 56.8955C56.9444 56.8135 56.9955 56.7393 57.0597 56.6775C57.1239 56.6157 57.2 56.5675 57.2833 56.5357C57.3666 56.504 57.4555 56.4894 57.5445 56.4928C58.4049 56.4489 59.2581 56.6692 59.9896 57.1241C60.7211 57.5791 61.2959 58.247 61.6369 59.0381C61.863 59.5633 61.9798 60.1292 61.98 60.701C61.9802 61.2729 61.8638 61.8388 61.638 62.3642C61.4122 62.8896 61.0817 63.3634 60.6666 63.7568C60.2515 64.1502 59.7606 64.4548 59.2239 64.6522C58.6872 64.8503 58.1159 64.9373 57.5445 64.908Z" fill="black"/>
<path d="M54.3425 72H27.6071C26.8035 71.9967 26.0247 71.7205 25.3985 71.2168L21.8209 68.3057C21.7522 68.2522 21.6949 68.1855 21.6526 68.1095C21.6102 68.0334 21.5836 67.9496 21.5744 67.8631C21.5651 67.7766 21.5734 67.689 21.5987 67.6058C21.624 67.5225 21.6658 67.4452 21.7216 67.3784C21.7765 67.3099 21.8444 67.2529 21.9215 67.2108C21.9985 67.1687 22.0831 67.1423 22.1704 67.1331C22.2577 67.1238 22.346 67.132 22.4301 67.1571C22.5142 67.1821 22.5925 67.2236 22.6605 67.2792L26.2275 70.1806C26.6235 70.5026 27.1187 70.6778 27.6285 70.6768H54.3425C54.9362 70.713 55.5266 70.5657 56.0336 70.2549C56.5407 69.944 56.9398 69.4846 57.1768 68.9391C57.3338 68.5769 57.4149 68.1864 57.415 67.7917C57.4151 67.3969 57.3342 67.0064 57.1774 66.6441C57.0205 66.2819 56.791 65.9557 56.5031 65.6857C56.2151 65.4157 55.8748 65.2077 55.5032 65.0744C55.1317 64.9407 54.7366 64.8844 54.3425 64.909C54.2117 64.9085 54.084 64.8694 53.9754 64.7966C53.8668 64.7238 53.7821 64.6205 53.732 64.4997C53.6819 64.3789 53.6686 64.246 53.6938 64.1177C53.7189 63.9893 53.7815 63.8713 53.8735 63.7784C53.9981 63.6539 54.1664 63.5838 54.3425 63.5838C55.2029 63.5401 56.0561 63.7606 56.7876 64.2157C57.5191 64.6709 58.0939 65.3389 58.4348 66.1301C58.661 66.6553 58.7778 67.2211 58.778 67.793C58.7781 68.3649 58.6618 68.9308 58.436 69.4562C58.2102 69.9816 57.8796 70.4554 57.4646 70.8488C57.0495 71.2422 56.5586 71.5468 56.0218 71.7441C55.4852 71.9423 54.9138 72.0293 54.3425 72ZM11.4295 59.6579C11.6051 59.6579 11.7735 59.5881 11.8977 59.4639C12.0219 59.3398 12.0916 59.1714 12.0916 58.9958C12.0916 58.8202 12.0219 58.6517 11.8977 58.5276C11.7735 58.4034 11.6051 58.3336 11.4295 58.3336C11.2539 58.3336 11.0855 58.4034 10.9613 58.5276C10.8372 58.6517 10.7674 58.8202 10.7674 58.9958C10.7674 59.1714 10.8372 59.3398 10.9613 59.4639C11.0855 59.5881 11.2539 59.6579 11.4295 59.6579ZM29.3332 38.9189L21.8861 42.7602L22.4942 43.9366L29.9413 40.0943L29.3332 38.9189Z" fill="black"/>
</g>
<defs>
<clipPath id="clip0">
<rect width="72" height="72" fill="white"/>
</clipPath>
</defs>
</svg>
