<svg width="72" height="72" viewBox="0 0 72 72" fill="none" xmlns="http://www.w3.org/2000/svg">
<path d="M54.1135 39.6099H17.8962C17.531 39.6097 17.1808 39.4644 16.9226 39.2061C16.6644 38.9477 16.5194 38.5974 16.5194 38.2322V13.9702C16.5169 13.7881 16.5508 13.6074 16.619 13.4386C16.6872 13.2698 16.7884 13.1163 16.9168 12.9871C17.0451 12.8579 17.1979 12.7557 17.3662 12.6863C17.5345 12.6169 17.715 12.5818 17.8971 12.5831H54.1135C54.4795 12.5858 54.8297 12.7331 55.0876 12.993C55.3456 13.2528 55.4903 13.6041 55.4903 13.9702V28.4127H54.3098V13.9702C54.311 13.9436 54.3069 13.917 54.2976 13.892C54.2883 13.8671 54.2741 13.8442 54.2557 13.8249C54.2374 13.8056 54.2153 13.7902 54.1909 13.7797C54.1664 13.7692 54.1401 13.7637 54.1135 13.7636H17.8962C17.8691 13.7619 17.842 13.7662 17.8167 13.7762C17.7914 13.7861 17.7686 13.8015 17.7499 13.8211C17.7312 13.8408 17.717 13.8644 17.7084 13.8901C17.6998 13.9159 17.6969 13.9432 17.6999 13.9702V38.2322C17.6977 38.2717 17.7081 38.3109 17.7296 38.3442C17.7511 38.3775 17.7825 38.4031 17.8194 38.4174C17.8439 38.4267 17.8701 38.4308 17.8962 38.4294H54.1135C54.1647 38.4269 54.2132 38.4054 54.2495 38.3691C54.2858 38.3328 54.3073 38.2843 54.3098 38.2331V29.8006H55.4903V38.2322C55.4903 38.5974 55.3452 38.9477 55.0871 39.2061C54.8289 39.4644 54.4787 39.6097 54.1135 39.6099Z" fill="black"/>
<path d="M54.9002 16.361H17.0996V17.5415H54.9002V16.361Z" fill="black"/>
<path d="M37.967 20.9166H19.9822C19.8295 20.9108 19.6851 20.846 19.5791 20.736C19.4732 20.6259 19.414 20.4791 19.414 20.3263C19.414 20.1736 19.4732 20.0267 19.5791 19.9167C19.6851 19.8066 19.8295 19.7419 19.9822 19.7361H37.967C38.0464 19.7331 38.1256 19.7461 38.1999 19.7744C38.2741 19.8027 38.3419 19.8457 38.3991 19.9008C38.4564 19.9559 38.5019 20.022 38.533 20.0951C38.5641 20.1682 38.5802 20.2469 38.5802 20.3263C38.5802 20.4058 38.5641 20.4844 38.533 20.5575C38.5019 20.6307 38.4564 20.6968 38.3991 20.7519C38.3419 20.807 38.2741 20.85 38.1999 20.8783C38.1256 20.9066 38.0464 20.9196 37.967 20.9166ZM32.4086 25.0291H19.9822C19.8295 25.0233 19.6851 24.9586 19.5791 24.8485C19.4732 24.7385 19.414 24.5916 19.414 24.4389C19.414 24.2861 19.4732 24.1393 19.5791 24.0292C19.6851 23.9191 19.8295 23.8544 19.9822 23.8486H32.4086C32.5612 23.8544 32.7057 23.9191 32.8116 24.0292C32.9176 24.1393 32.9768 24.2861 32.9768 24.4389C32.9768 24.5916 32.9176 24.7385 32.8116 24.8485C32.7057 24.9586 32.5612 25.0233 32.4086 25.0291ZM31.4841 36.5891H20.3364C20.0757 36.5889 19.8257 36.4852 19.6414 36.3008C19.457 36.1165 19.3533 35.8665 19.3531 35.6058V31.5325C19.3531 31.2716 19.4567 31.0214 19.6411 30.8369C19.8254 30.6523 20.0756 30.5486 20.3364 30.5483H31.4841C31.7365 30.561 31.9743 30.6703 32.1483 30.8535C32.3222 31.0367 32.4191 31.2798 32.4188 31.5325V35.6152C32.4165 35.8661 32.3185 36.1066 32.1447 36.2876C31.971 36.4686 31.7347 36.5765 31.4841 36.5891ZM20.6608 35.4086H31.199V31.8082H20.5814L20.6608 35.4103V35.4086Z" fill="#48A6EB"/>
<path d="M51.555 34.1982H51.456C51.3391 34.1775 51.2309 34.1226 51.1452 34.0404C51.0595 33.9582 51.0001 33.8524 50.9746 33.7364L49.5474 26.9676C49.5181 26.8159 49.5496 26.6588 49.635 26.5301C49.7204 26.4015 49.8529 26.3115 50.0041 26.2796C50.1036 26.2572 50.2072 26.2601 50.3054 26.2881L56.8779 28.4332C56.9625 28.4609 57.0397 28.5075 57.1037 28.5694C57.1678 28.6313 57.2169 28.707 57.2474 28.7906C57.278 28.8742 57.2892 28.9637 57.2802 29.0523C57.2712 29.1409 57.2422 29.2263 57.1955 29.3021C57.1342 29.4036 57.0442 29.4847 56.9368 29.5351L53.7982 30.9418L52.0663 33.8935C52.015 33.9846 51.9407 34.0608 51.8509 34.1144C51.761 34.168 51.6588 34.1972 51.5542 34.1991L51.555 34.1982ZM50.9054 27.7247L51.8102 32.0045L52.8729 30.1847C52.9332 30.0764 53.0265 29.9903 53.1393 29.9389L55.1067 29.0725L50.9054 27.7247Z" fill="black"/>
<path d="M70.9373 54.7609H1.08233C0.940758 54.7622 0.800315 54.7355 0.669114 54.6823C0.537913 54.6291 0.418553 54.5504 0.317924 54.4508C0.217295 54.3512 0.13739 54.2327 0.0828231 54.102C0.0282556 53.9714 0.000106263 53.8312 0 53.6896L0 4.07209C0 3.78776 0.112952 3.51506 0.314008 3.31401C0.515065 3.11295 0.787755 3 1.07209 3H70.9271C71.0679 2.99989 71.2074 3.02754 71.3376 3.08136C71.4678 3.13519 71.586 3.21414 71.6857 3.31371C71.7853 3.41327 71.8644 3.5315 71.9183 3.66162C71.9722 3.79175 72 3.93123 72 4.07209V53.6888C72 53.9716 71.8884 54.2429 71.6894 54.4439C71.4904 54.6448 71.2201 54.759 70.9373 54.7617V54.7609ZM1.1805 53.5915H70.8391V4.17964H1.1805V53.5915Z" fill="black"/>
<path d="M71.4186 46.2114H0.591461V47.3919H71.4186V46.2114ZM38.6362 51.1016H33.3731C33.2204 51.0958 33.0759 51.031 32.97 50.921C32.864 50.8109 32.8048 50.6641 32.8048 50.5113C32.8048 50.3585 32.864 50.2117 32.97 50.1017C33.0759 49.9916 33.2204 49.9269 33.3731 49.9211H38.6362C38.7889 49.9269 38.9333 49.9916 39.0393 50.1017C39.1452 50.2117 39.2044 50.3585 39.2044 50.5113C39.2044 50.6641 39.1452 50.8109 39.0393 50.921C38.9333 51.031 38.7889 51.0958 38.6362 51.1016Z" fill="black"/>
<path d="M30.6374 54.5H29.4568V64.5333H30.6374V54.5ZM42.5524 54.5H41.3728V64.5333H42.5533L42.5524 54.5ZM50.4429 69.6001H21.5664V65.6156C21.565 65.4747 21.5915 65.335 21.6442 65.2044C21.6968 65.0737 21.7748 64.9547 21.8734 64.8542C21.9721 64.7537 22.0897 64.6736 22.2193 64.6185C22.349 64.5635 22.4882 64.5345 22.6291 64.5333H49.3708C49.5124 64.5333 49.6527 64.5613 49.7834 64.6159C49.9142 64.6704 50.0328 64.7503 50.1325 64.8509C50.2322 64.9515 50.311 65.0709 50.3642 65.2022C50.4175 65.3334 50.4442 65.474 50.4429 65.6156V69.6001ZM22.7477 68.4196H49.3127V65.7138H22.7469L22.7477 68.4196Z" fill="black"/>
</svg>
