<?xml version="1.0" encoding="utf-8"?>
<!-- Generator: Adobe Illustrator 22.0.1, SVG Export Plug-In . SVG Version: 6.00 Build 0)  -->
<svg version="1.1" id="Calque_1" xmlns="http://www.w3.org/2000/svg" xmlns:xlink="http://www.w3.org/1999/xlink" x="0px" y="0px"
	 viewBox="0 0 574.9 167.8" style="enable-background:new 0 0 574.9 167.8;" xml:space="preserve">
<style type="text/css">
	.st0{fill:url(#SVGID_1_);}
	.st1{fill:url(#SVGID_2_);}
	.st2{fill:url(#SVGID_3_);}
	.st3{fill:url(#SVGID_4_);}
	.st4{fill:url(#SVGID_5_);}
	.st5{fill:url(#SVGID_6_);}
	.st6{fill:url(#SVGID_7_);}
	.st7{fill:url(#SVGID_8_);}
	.st8{fill:url(#SVGID_9_);}
	.st9{fill:url(#SVGID_10_);}
	.st10{fill:url(#SVGID_11_);}
	.st11{fill:url(#SVGID_12_);}
	.st12{fill:url(#SVGID_13_);}
	.st13{fill:url(#SVGID_14_);}
</style>
<g>
	
		<linearGradient id="SVGID_1_" gradientUnits="userSpaceOnUse" x1="49.9454" y1="0.3229" x2="508.4704" y2="-1.161" gradientTransform="matrix(1 0 0 1 0 101.2296)">
		<stop  offset="0" style="stop-color:#FD6C17"/>
		<stop  offset="0.677" style="stop-color:#FD4013"/>
		<stop  offset="0.7994" style="stop-color:#FD3B13"/>
		<stop  offset="0.9496" style="stop-color:#FC2C11"/>
		<stop  offset="1" style="stop-color:#FC2511"/>
	</linearGradient>
	<rect x="151.7" y="80.4" class="st0" width="14.3" height="41.6"/>
	
		<linearGradient id="SVGID_2_" gradientUnits="userSpaceOnUse" x1="49.8416" y1="-31.7765" x2="508.3666" y2="-33.2604" gradientTransform="matrix(1 0 0 1 0 101.2296)">
		<stop  offset="0" style="stop-color:#FD6C17"/>
		<stop  offset="0.677" style="stop-color:#FD4013"/>
		<stop  offset="0.7994" style="stop-color:#FD3B13"/>
		<stop  offset="0.9496" style="stop-color:#FC2C11"/>
		<stop  offset="1" style="stop-color:#FC2511"/>
	</linearGradient>
	<rect x="151.9" y="63" class="st1" width="14.1" height="12.2"/>
	
		<linearGradient id="SVGID_3_" gradientUnits="userSpaceOnUse" x1="49.9464" y1="0.6087" x2="508.4715" y2="-0.8752" gradientTransform="matrix(1 0 0 1 0 101.2296)">
		<stop  offset="0" style="stop-color:#FD6C17"/>
		<stop  offset="0.677" style="stop-color:#FD4013"/>
		<stop  offset="0.7994" style="stop-color:#FD3B13"/>
		<stop  offset="0.9496" style="stop-color:#FC2C11"/>
		<stop  offset="1" style="stop-color:#FC2511"/>
	</linearGradient>
	<path class="st2" d="M271.1,85l-2.2-4.6h-9.6V122h14.3v-21.2c0-5.3,2.1-7.5,7.2-7.5h5.6V80.2h-3.8C277.7,80.2,274.1,81.6,271.1,85z
		"/>
	
		<linearGradient id="SVGID_4_" gradientUnits="userSpaceOnUse" x1="49.9469" y1="0.7762" x2="508.472" y2="-0.7077" gradientTransform="matrix(1 0 0 1 0 101.2296)">
		<stop  offset="0" style="stop-color:#FD6C17"/>
		<stop  offset="0.677" style="stop-color:#FD4013"/>
		<stop  offset="0.7994" style="stop-color:#FD3B13"/>
		<stop  offset="0.9496" style="stop-color:#FC2C11"/>
		<stop  offset="1" style="stop-color:#FC2511"/>
	</linearGradient>
	<rect x="291.8" y="80.4" class="st3" width="14.3" height="41.6"/>
	
		<linearGradient id="SVGID_5_" gradientUnits="userSpaceOnUse" x1="49.8431" y1="-31.3234" x2="508.3681" y2="-32.8073" gradientTransform="matrix(1 0 0 1 0 101.2296)">
		<stop  offset="0" style="stop-color:#FD6C17"/>
		<stop  offset="0.677" style="stop-color:#FD4013"/>
		<stop  offset="0.7994" style="stop-color:#FD3B13"/>
		<stop  offset="0.9496" style="stop-color:#FC2C11"/>
		<stop  offset="1" style="stop-color:#FC2511"/>
	</linearGradient>
	<rect x="291.9" y="63" class="st4" width="14.1" height="12.2"/>
	
		<linearGradient id="SVGID_6_" gradientUnits="userSpaceOnUse" x1="49.9951" y1="15.6504" x2="508.5201" y2="14.1665" gradientTransform="matrix(1 0 0 1 0 101.2296)">
		<stop  offset="0" style="stop-color:#FD6C17"/>
		<stop  offset="0.677" style="stop-color:#FD4013"/>
		<stop  offset="0.7994" style="stop-color:#FD3B13"/>
		<stop  offset="0.9496" style="stop-color:#FC2C11"/>
		<stop  offset="1" style="stop-color:#FC2511"/>
	</linearGradient>
	<rect x="515.8" y="108.7" class="st5" width="13.9" height="13.3"/>
	
		<linearGradient id="SVGID_7_" gradientUnits="userSpaceOnUse" x1="49.9444" y1="-6.595127e-03" x2="508.4695" y2="-1.4905" gradientTransform="matrix(1 0 0 1 0 101.2296)">
		<stop  offset="0" style="stop-color:#FD6C17"/>
		<stop  offset="0.677" style="stop-color:#FD4013"/>
		<stop  offset="0.7994" style="stop-color:#FD3B13"/>
		<stop  offset="0.9496" style="stop-color:#FC2C11"/>
		<stop  offset="1" style="stop-color:#FC2511"/>
	</linearGradient>
	<path class="st6" d="M80.6,104.4c-1.2,3.7-4.3,6.1-8.2,6.1c-5,0-8.6-3.9-8.6-9.3s3.6-9.3,8.6-9.3c3.7,0,6.9,2.2,8.1,5.6h14
		C92.9,86.4,84.2,79,72.5,79c-4.6,0-8.7,1.1-12.1,3v11h-9.5c-0.9,2.5-1.4,5.2-1.4,8.1c0,12.9,9.6,22.2,23,22.2l0,0
		c11.7,0,20.6-7.6,22.2-18.9H80.6z"/>
	
		<linearGradient id="SVGID_8_" gradientUnits="userSpaceOnUse" x1="49.9451" y1="0.2029" x2="508.4701" y2="-1.2809" gradientTransform="matrix(1 0 0 1 0 101.2296)">
		<stop  offset="0" style="stop-color:#FD6C17"/>
		<stop  offset="0.677" style="stop-color:#FD4013"/>
		<stop  offset="0.7994" style="stop-color:#FD3B13"/>
		<stop  offset="0.9496" style="stop-color:#FC2C11"/>
		<stop  offset="1" style="stop-color:#FC2511"/>
	</linearGradient>
	<path class="st7" d="M129.6,112.5h12.5c1.9-3.3,3-7.1,3-11.3c0-12.9-9.8-22.2-23.3-22.2c-13.6,0-23.3,9.3-23.3,22.2
		s9.8,22.2,23.3,22.2c2.8,0,5.4-0.4,7.9-1.2L129.6,112.5L129.6,112.5z M112.8,101.2c0-5.5,3.8-9.3,9-9.3s9,3.8,9,9.3s-3.8,9.3-9,9.3
		l0,0C116.5,110.5,112.8,106.7,112.8,101.2z"/>
	
		<linearGradient id="SVGID_9_" gradientUnits="userSpaceOnUse" x1="49.9268" y1="-5.4455" x2="508.4517" y2="-6.9294" gradientTransform="matrix(1 0 0 1 0 101.2296)">
		<stop  offset="0" style="stop-color:#FD6C17"/>
		<stop  offset="0.677" style="stop-color:#FD4013"/>
		<stop  offset="0.7994" style="stop-color:#FD3B13"/>
		<stop  offset="0.9496" style="stop-color:#FC2C11"/>
		<stop  offset="1" style="stop-color:#FC2511"/>
	</linearGradient>
	<path class="st8" d="M247.1,109.4c-3,0-4.8-1.8-4.8-4.8V91.4h10.1v-11h-10.5V68.2H239l-18.7,19.9v3.4h7.6v15.7c0,2,0.3,3.8,0.8,5.4
		h9.7v9c1.3,0.3,2.8,0.5,4.4,0.5h9.9v-12.7H247.1z"/>
	
		<linearGradient id="SVGID_10_" gradientUnits="userSpaceOnUse" x1="49.9251" y1="-5.9812" x2="508.4501" y2="-7.4651" gradientTransform="matrix(1 0 0 1 0 101.2296)">
		<stop  offset="0" style="stop-color:#FD6C17"/>
		<stop  offset="0.677" style="stop-color:#FD4013"/>
		<stop  offset="0.7994" style="stop-color:#FD3B13"/>
		<stop  offset="0.9496" style="stop-color:#FC2C11"/>
		<stop  offset="1" style="stop-color:#FC2511"/>
	</linearGradient>
	<path class="st9" d="M347.7,112.5h11.2c1.8-3.2,2.7-7.1,2.7-11.3c0-12.9-9.1-22.1-21.9-22.1l0,0c-3.9,0-7.4,1-10.3,2.9V65.3h-14.2
		V122h10.6l1.4-3.1c3.4,2.8,7.7,4.5,12.6,4.5c2.9,0,5.5-0.5,8-1.4v-9.5H347.7z M337.8,110.7c-5.4,0-9.3-4.1-9.3-9.5s3.9-9.5,9.3-9.5
		s9.3,4.1,9.3,9.5C347.1,106.6,343.1,110.7,337.8,110.7z"/>
	
		<linearGradient id="SVGID_11_" gradientUnits="userSpaceOnUse" x1="49.95" y1="1.732" x2="508.4751" y2="0.2481" gradientTransform="matrix(1 0 0 1 0 101.2296)">
		<stop  offset="0" style="stop-color:#FD6C17"/>
		<stop  offset="0.677" style="stop-color:#FD4013"/>
		<stop  offset="0.7994" style="stop-color:#FD3B13"/>
		<stop  offset="0.9496" style="stop-color:#FC2C11"/>
		<stop  offset="1" style="stop-color:#FC2511"/>
	</linearGradient>
	<path class="st10" d="M397.4,112.5h9.5c1.1-2.5,1.7-5.3,1.7-8.4V80.4h-14.3v23.1c0,4.4-2.3,7-6.1,7c-3.8,0-6.2-2.6-6.2-7V80.4
		h-14.3v23.8c0,11.7,8.2,19.2,20.5,19.2c3.4,0,6.5-0.6,9.3-1.7v-9.2H397.4z"/>
	
		<linearGradient id="SVGID_12_" gradientUnits="userSpaceOnUse" x1="49.9489" y1="1.385" x2="508.474" y2="-9.892337e-02" gradientTransform="matrix(1 0 0 1 0 101.2296)">
		<stop  offset="0" style="stop-color:#FD6C17"/>
		<stop  offset="0.677" style="stop-color:#FD4013"/>
		<stop  offset="0.7994" style="stop-color:#FD3B13"/>
		<stop  offset="0.9496" style="stop-color:#FC2C11"/>
		<stop  offset="1" style="stop-color:#FC2511"/>
	</linearGradient>
	<path class="st11" d="M487,79c-13.1,0-22.6,9.4-22.6,22.1c0,4.2,1.1,8.1,3,11.4h9.6v8.7c3,1.4,6.4,2.2,10.1,2.2
		c10.4,0,18.9-5.9,21.8-15.4h-14.3c-1.4,2.4-4.2,3.9-7.5,3.9c-4.5,0-7.6-2.5-8.5-7.2h30.9c0.2-1.3,0.3-2.5,0.3-3.8l0,0
		C509.8,88.6,500.5,79,487,79z M478.8,96.6c1.2-4.1,4.1-6.4,8.2-6.4c4.3,0,7.3,2.2,8.6,6.4H478.8z"/>
	
		<linearGradient id="SVGID_13_" gradientUnits="userSpaceOnUse" x1="49.9439" y1="-0.1678" x2="508.4688" y2="-1.6517" gradientTransform="matrix(1 0 0 1 0 101.2296)">
		<stop  offset="0" style="stop-color:#FD6C17"/>
		<stop  offset="0.677" style="stop-color:#FD4013"/>
		<stop  offset="0.7994" style="stop-color:#FD3B13"/>
		<stop  offset="0.9496" style="stop-color:#FC2C11"/>
		<stop  offset="1" style="stop-color:#FC2511"/>
	</linearGradient>
	<path class="st12" d="M207.3,93V80.6c-2.1-1-4.5-1.5-7.1-1.5c-5.4,0-10,2.1-13.1,5.5l-2-4.3H175v41.6h14.3V99.8
		c0-5.3,2.6-8.4,7-8.4c3.6,0,5.4,2.4,5.4,7.2V122H216V96.6c0-1.3-0.1-2.4-0.3-3.6H207.3z"/>
	
		<linearGradient id="SVGID_14_" gradientUnits="userSpaceOnUse" x1="49.9465" y1="0.6154" x2="508.4714" y2="-0.8685" gradientTransform="matrix(1 0 0 1 0 101.2296)">
		<stop  offset="0" style="stop-color:#FD6C17"/>
		<stop  offset="0.677" style="stop-color:#FD4013"/>
		<stop  offset="0.7994" style="stop-color:#FD3B13"/>
		<stop  offset="0.9496" style="stop-color:#FC2C11"/>
		<stop  offset="1" style="stop-color:#FC2511"/>
	</linearGradient>
	<path class="st13" d="M449.5,93V80.7c-2.1-1-4.6-1.6-7.3-1.6c-5.4,0-10,2.1-13.1,5.5l-2-4.3H417v41.6h14.3V99.8
		c0-5.3,2.6-8.4,7-8.4c3.6,0,5.4,2.4,5.4,7.2V122H458V96.6c0-1.3-0.1-2.4-0.3-3.6H449.5z"/>
</g>
</svg>
