<!-- Generator: Adobe Illustrator 23.0.3, SVG Export Plug-In  -->
<svg version="1.1" xmlns="http://www.w3.org/2000/svg" xmlns:xlink="http://www.w3.org/1999/xlink" x="0px" y="0px"
	 width="129.04px" height="18.83px" viewBox="0 0 129.04 18.83" style="enable-background:new 0 0 129.04 18.83;"
	 xml:space="preserve">
<style type="text/css">
	.st0{fill:#53235D;}
</style>
<defs>
</defs>
<path class="st0" d="M45.84,6.44c0.13,0.2,0.19,0.41,0.19,0.64c0,0.28-0.08,0.53-0.25,0.72c-0.17,0.2-0.39,0.3-0.67,0.3
	c-0.24,0-0.44-0.08-0.61-0.23c-0.17-0.15-0.25-0.35-0.25-0.61c0-0.35,0.18-0.65,0.55-0.88c-0.07-0.1-0.19-0.16-0.34-0.16
	c-0.43,0-0.81,0.16-1.15,0.49S42.7,7.44,42.5,7.92s-0.3,0.93-0.3,1.35v3.43c0,0.5,0.14,0.85,0.43,1.04
	c0.28,0.19,0.71,0.29,1.29,0.29v0.34c-1.33-0.04-2.16-0.06-2.49-0.06c-0.29,0-0.92,0.02-1.91,0.06v-0.34c0.3,0,0.55-0.03,0.72-0.1
	c0.18-0.07,0.3-0.19,0.39-0.35c0.08-0.17,0.12-0.4,0.12-0.7V7.8c0-0.5-0.09-0.86-0.27-1.09s-0.5-0.34-0.96-0.34V6.03
	c0.34,0.03,0.67,0.05,1,0.05c0.68,0,1.25-0.07,1.68-0.22v2.02c0.12-0.34,0.3-0.66,0.52-0.98c0.23-0.32,0.5-0.58,0.82-0.78
	c0.32-0.21,0.65-0.31,1-0.31c0.28,0,0.54,0.06,0.76,0.17C45.53,6.09,45.71,6.24,45.84,6.44 M51.66,6.03v0.32
	c0.42,0.03,0.73,0.1,0.92,0.22s0.29,0.31,0.29,0.56c0,0.18-0.06,0.43-0.17,0.74l-1.79,4.69l-1.95-4.84c-0.14-0.34-0.21-0.6-0.21-0.8
	c0-0.17,0.05-0.3,0.15-0.38c0.1-0.08,0.22-0.13,0.37-0.15c0.15-0.02,0.35-0.03,0.62-0.03V6.03c-0.94,0.07-1.64,0.1-2.1,0.1
	c-0.55,0-1.08-0.03-1.59-0.1v0.34c0.18,0,0.37,0.06,0.55,0.17c0.18,0.12,0.36,0.36,0.55,0.73l2.94,7.06l-0.58,1.48
	c-0.32,0.84-0.78,1.26-1.38,1.26c-0.04,0-0.07-0.01-0.1-0.02c0.29-0.16,0.43-0.41,0.43-0.73c0-0.24-0.08-0.43-0.23-0.56
	c-0.16-0.13-0.35-0.2-0.59-0.2c-0.27,0-0.48,0.08-0.63,0.23c-0.15,0.16-0.23,0.36-0.23,0.62c0,0.31,0.1,0.54,0.31,0.72
	c0.21,0.17,0.47,0.26,0.79,0.26c0.54,0,0.96-0.14,1.27-0.42c0.26-0.23,0.49-0.61,0.69-1.14l0.55-1.41l2.66-6.93
	c0.15-0.4,0.31-0.68,0.47-0.85c0.17-0.17,0.36-0.27,0.58-0.29V6.03c-0.34,0.03-0.75,0.05-1.23,0.05
	C52.68,6.07,52.23,6.06,51.66,6.03 M62.65,7.65c0.26,0.61,0.39,1.33,0.39,2.17c0,0.83-0.13,1.6-0.4,2.33s-0.67,1.31-1.23,1.76
	c-0.56,0.45-1.25,0.68-2.08,0.68c-0.41,0-0.78-0.08-1.12-0.24c-0.33-0.16-0.59-0.37-0.78-0.64v2.07c0,0.44,0.13,0.74,0.39,0.91
	s0.65,0.26,1.17,0.26v0.34c-0.14-0.01-0.44-0.02-0.92-0.04s-0.95-0.03-1.41-0.03c-0.34,0-0.7,0.01-1.06,0.03s-0.59,0.03-0.69,0.04
	v-0.34c0.4,0,0.67-0.07,0.83-0.22c0.16-0.15,0.24-0.41,0.24-0.79V7.8c0-0.5-0.09-0.86-0.27-1.09s-0.5-0.34-0.96-0.34V6.03
	c0.34,0.03,0.67,0.05,1,0.05c0.68,0,1.25-0.07,1.68-0.22v1.71c0.24-0.56,0.59-0.99,1.04-1.29c0.45-0.31,0.97-0.46,1.55-0.46
	c0.57,0,1.09,0.16,1.54,0.47C62.03,6.58,62.39,7.04,62.65,7.65 M61.47,10.04c0-2.5-0.63-3.75-1.88-3.75c-0.49,0-0.93,0.18-1.32,0.53
	s-0.67,0.86-0.83,1.52v4.84c0.16,0.32,0.38,0.58,0.67,0.76c0.29,0.19,0.64,0.28,1.04,0.28C60.7,14.22,61.47,12.83,61.47,10.04
	 M68.78,13.6c-0.24,0.27-0.52,0.4-0.86,0.4c-0.34,0-0.6-0.11-0.77-0.32s-0.26-0.57-0.26-1.05V6.37h2.39V6.04h-2.39v-2.7
	c-0.36,0.14-0.85,0.21-1.45,0.23v2.47h-1.56v0.32h1.56v5.42c0,0.59,0.05,1.05,0.14,1.39c0.09,0.35,0.26,0.64,0.49,0.87
	c0.18,0.18,0.39,0.32,0.63,0.41s0.54,0.13,0.9,0.13c1.14,0,1.84-0.75,2.1-2.24l-0.32-0.08C69.22,12.89,69.02,13.34,68.78,13.6
	 M77.49,7.72c0.32,0.66,0.48,1.48,0.48,2.49c0,1-0.16,1.83-0.48,2.48c-0.32,0.65-0.75,1.13-1.3,1.44s-1.18,0.46-1.89,0.46
	s-1.34-0.15-1.89-0.46s-0.98-0.79-1.3-1.44c-0.32-0.65-0.48-1.48-0.48-2.48s0.16-1.83,0.48-2.49c0.32-0.65,0.75-1.14,1.3-1.45
	S73.59,5.8,74.3,5.8s1.34,0.16,1.89,0.47C76.73,6.58,77.17,7.07,77.49,7.72 M76.39,10.21c0-1.39-0.19-2.42-0.57-3.08
	s-0.89-0.99-1.54-0.99s-1.16,0.33-1.54,0.99s-0.57,1.69-0.57,3.08s0.19,2.41,0.57,3.07s0.89,0.99,1.54,0.99s1.16-0.33,1.54-0.99
	C76.2,12.61,76.39,11.59,76.39,10.21 M3.05,12.01c-0.15,0.17-0.33,0.25-0.54,0.25s-0.37-0.07-0.48-0.2
	c-0.11-0.13-0.16-0.35-0.16-0.65V7.52h1.49v-0.2H1.87V5.64c-0.23,0.09-0.53,0.13-0.9,0.14v1.54H0v0.2h0.97v3.37
	c0,0.36,0.03,0.65,0.09,0.87c0.06,0.22,0.16,0.4,0.3,0.54c0.12,0.11,0.24,0.2,0.39,0.25s0.33,0.08,0.56,0.08
	c0.71,0,1.14-0.46,1.31-1.39l-0.2-0.05C3.32,11.57,3.19,11.85,3.05,12.01 M8.59,11.99c-0.05-0.1-0.08-0.25-0.08-0.44V8.87
	c0-0.34-0.03-0.61-0.08-0.81c-0.05-0.2-0.14-0.37-0.27-0.51C7.92,7.3,7.56,7.17,7.09,7.17c-0.37,0-0.71,0.09-1.01,0.28
	c-0.3,0.19-0.53,0.49-0.7,0.92V4.61c-0.26,0.1-0.61,0.14-1.05,0.14c-0.2,0-0.41-0.01-0.62-0.03v0.21C4,4.93,4.19,5,4.31,5.14
	C4.42,5.28,4.48,5.5,4.48,5.81v5.73c0,0.19-0.03,0.33-0.08,0.44c-0.05,0.1-0.13,0.18-0.24,0.22c-0.11,0.04-0.26,0.06-0.45,0.06v0.21
	c0.61-0.03,1.02-0.04,1.21-0.04c0.19,0,0.56,0.01,1.12,0.04v-0.21c-0.17,0-0.3-0.02-0.39-0.06c-0.09-0.03-0.16-0.11-0.2-0.21
	s-0.07-0.25-0.07-0.44V9.31c0-0.35,0.06-0.66,0.18-0.94s0.29-0.49,0.5-0.65c0.22-0.15,0.46-0.23,0.73-0.23
	c0.23,0,0.4,0.05,0.52,0.15s0.2,0.23,0.24,0.4C7.59,8.2,7.61,8.41,7.61,8.65v2.9c0,0.19-0.02,0.33-0.07,0.44
	c-0.05,0.1-0.11,0.18-0.21,0.22s-0.23,0.06-0.39,0.06v0.21c0.56-0.03,0.94-0.04,1.13-0.04c0.18,0,0.58,0.01,1.21,0.04v-0.21
	c-0.19,0-0.34-0.02-0.45-0.06C8.72,12.17,8.64,12.09,8.59,11.99 M13.87,11.2l0.2,0.08c-0.08,0.23-0.2,0.46-0.38,0.66
	c-0.17,0.21-0.38,0.37-0.64,0.5s-0.54,0.19-0.86,0.19c-0.48,0-0.89-0.11-1.24-0.33c-0.35-0.22-0.61-0.52-0.8-0.92
	c-0.18-0.39-0.27-0.85-0.27-1.36c0-0.58,0.09-1.09,0.28-1.52c0.19-0.43,0.45-0.76,0.79-0.99c0.34-0.23,0.74-0.35,1.2-0.35
	c0.6,0,1.07,0.18,1.39,0.55c0.33,0.37,0.49,0.92,0.49,1.66h-3.14c-0.02,0.17-0.03,0.39-0.03,0.64c0,0.44,0.07,0.83,0.22,1.16
	c0.15,0.33,0.34,0.58,0.57,0.76c0.24,0.18,0.48,0.27,0.75,0.27C13.07,12.2,13.56,11.87,13.87,11.2 M10.88,9.19h2.19
	c0.01-0.33-0.02-0.64-0.08-0.92c-0.07-0.28-0.18-0.5-0.33-0.66s-0.33-0.24-0.54-0.24s-0.4,0.07-0.57,0.2
	c-0.17,0.13-0.32,0.34-0.44,0.61C10.99,8.44,10.91,8.78,10.88,9.19 M86.6,13.56c-0.08-0.17-0.12-0.4-0.12-0.7V8.54
	c0-0.55-0.04-0.98-0.13-1.31s-0.23-0.6-0.43-0.82c-0.39-0.4-0.96-0.61-1.72-0.61c-0.61,0-1.15,0.15-1.63,0.46
	c-0.48,0.31-0.86,0.8-1.13,1.49v-1.9C81,6,80.44,6.07,79.76,6.07c-0.33,0-0.67-0.02-1-0.05v0.34c0.46,0,0.78,0.11,0.96,0.34
	s0.27,0.59,0.27,1.09v5.06c0,0.3-0.04,0.53-0.12,0.7s-0.21,0.29-0.39,0.35c-0.18,0.07-0.42,0.1-0.72,0.1v0.34
	c0.99-0.04,1.64-0.06,1.94-0.06c0.31,0,0.91,0.02,1.82,0.06V14c-0.27,0-0.48-0.03-0.63-0.1c-0.15-0.07-0.27-0.19-0.34-0.35
	c-0.07-0.17-0.11-0.4-0.11-0.7V9.27c0-0.55,0.1-1.05,0.28-1.5c0.19-0.45,0.46-0.8,0.8-1.06c0.35-0.26,0.74-0.39,1.18-0.39
	c0.37,0,0.65,0.08,0.84,0.24c0.19,0.16,0.32,0.38,0.38,0.64s0.09,0.59,0.09,0.98v4.68c0,0.3-0.04,0.53-0.11,0.7
	s-0.18,0.29-0.33,0.35c-0.15,0.07-0.36,0.1-0.63,0.1v0.34c0.91-0.04,1.51-0.06,1.81-0.06c0.31,0,0.95,0.02,1.94,0.06v-0.34
	c-0.31,0-0.55-0.03-0.72-0.1C86.81,13.85,86.68,13.73,86.6,13.56 M95.58,7.72c0.32,0.66,0.48,1.48,0.48,2.49
	c0,1-0.16,1.83-0.48,2.48c-0.32,0.65-0.75,1.13-1.3,1.44s-1.18,0.46-1.89,0.46s-1.34-0.15-1.89-0.46s-0.98-0.79-1.3-1.44
	c-0.32-0.65-0.48-1.48-0.48-2.48s0.16-1.83,0.48-2.49c0.32-0.65,0.75-1.14,1.3-1.45s1.18-0.47,1.89-0.47s1.34,0.16,1.89,0.47
	C94.83,6.58,95.26,7.07,95.58,7.72 M94.49,10.21c0-1.39-0.19-2.42-0.57-3.08s-0.89-0.99-1.54-0.99s-1.16,0.33-1.54,0.99
	s-0.57,1.69-0.57,3.08s0.19,2.41,0.57,3.07s0.89,0.99,1.54,0.99s1.16-0.33,1.54-0.99C94.3,12.61,94.49,11.59,94.49,10.21
	 M109.83,13.56c-0.08-0.17-0.12-0.4-0.12-0.7V8.54c0-0.53-0.04-0.96-0.12-1.3c-0.08-0.33-0.22-0.61-0.41-0.83
	c-0.39-0.4-0.95-0.61-1.68-0.61c-0.58,0-1.11,0.15-1.58,0.45c-0.47,0.3-0.85,0.79-1.11,1.47c-0.06-0.57-0.23-1.01-0.5-1.3
	c-0.39-0.4-0.95-0.61-1.68-0.61c-0.56,0-1.08,0.16-1.55,0.48s-0.84,0.81-1.11,1.47v-1.9c-0.44,0.15-1,0.22-1.68,0.22
	c-0.33,0-0.67-0.02-1-0.05v0.34c0.46,0,0.78,0.11,0.96,0.34s0.27,0.59,0.27,1.09v5.06c0,0.3-0.04,0.53-0.12,0.7
	s-0.21,0.29-0.39,0.35c-0.18,0.07-0.42,0.1-0.72,0.1v0.34c0.99-0.04,1.64-0.06,1.94-0.06c0.31,0,0.91,0.02,1.82,0.06v-0.34
	c-0.27,0-0.48-0.03-0.63-0.1c-0.15-0.07-0.26-0.19-0.34-0.35c-0.07-0.17-0.11-0.4-0.11-0.7V9.27c0-0.54,0.1-1.04,0.29-1.49
	s0.45-0.81,0.78-1.07c0.33-0.26,0.71-0.39,1.12-0.39c0.36,0,0.63,0.08,0.81,0.24s0.29,0.37,0.34,0.62c0.05,0.26,0.07,0.59,0.07,1
	v4.68c0,0.3-0.03,0.53-0.1,0.7s-0.18,0.29-0.33,0.35c-0.15,0.07-0.36,0.1-0.63,0.1v0.34c0.9-0.04,1.51-0.06,1.82-0.06
	c0.3,0,0.95,0.02,1.93,0.06v-0.34c-0.3,0-0.54-0.03-0.72-0.1c-0.17-0.07-0.3-0.19-0.38-0.35c-0.08-0.17-0.12-0.4-0.12-0.7V9.25
	c0-0.54,0.09-1.04,0.28-1.48s0.45-0.8,0.78-1.06c0.33-0.26,0.7-0.39,1.11-0.39c0.37,0,0.64,0.08,0.82,0.24s0.29,0.37,0.34,0.62
	c0.05,0.26,0.07,0.59,0.07,1v4.68c0,0.3-0.04,0.53-0.11,0.7s-0.18,0.29-0.33,0.35c-0.15,0.07-0.36,0.1-0.63,0.1v0.34
	c0.91-0.04,1.51-0.06,1.81-0.06c0.3,0,0.95,0.02,1.94,0.06v-0.34c-0.31,0-0.55-0.03-0.72-0.1
	C110.04,13.85,109.91,13.73,109.83,13.56 M114.46,13.56c-0.08-0.17-0.12-0.4-0.12-0.7V5.85c-0.44,0.15-1,0.22-1.68,0.22
	c-0.33,0-0.67-0.02-1-0.05v0.34c0.46,0,0.78,0.11,0.96,0.34s0.27,0.59,0.27,1.09v5.06c0,0.3-0.04,0.53-0.12,0.7
	s-0.21,0.29-0.39,0.35c-0.18,0.07-0.42,0.1-0.72,0.1v0.34c0.99-0.04,1.64-0.06,1.96-0.06s0.97,0.02,1.96,0.06V14
	c-0.31,0-0.55-0.03-0.72-0.1C114.67,13.85,114.54,13.73,114.46,13.56 M112.99,3.91c0.16,0.09,0.33,0.14,0.52,0.14
	c0.18,0,0.36-0.04,0.51-0.14c0.16-0.09,0.29-0.22,0.38-0.38c0.09-0.16,0.14-0.33,0.14-0.52c0-0.18-0.05-0.36-0.14-0.51
	c-0.09-0.16-0.22-0.28-0.38-0.38c-0.16-0.09-0.33-0.14-0.51-0.14s-0.36,0.05-0.52,0.14c-0.16,0.1-0.29,0.22-0.38,0.38
	s-0.14,0.33-0.14,0.51s0.05,0.36,0.14,0.52C112.7,3.7,112.83,3.82,112.99,3.91 M121.37,10.35c-0.3-0.25-0.7-0.54-1.2-0.86
	c-0.15-0.1-0.41-0.26-0.77-0.49c-0.36-0.23-0.67-0.46-0.92-0.71s-0.38-0.56-0.38-0.94c0-0.39,0.12-0.69,0.37-0.91
	s0.57-0.33,0.96-0.33c0.67,0,1.17,0.23,1.52,0.7c0.34,0.46,0.57,1.05,0.69,1.76H122c0-1.31,0.02-2.22,0.06-2.75h-0.37
	c-0.05,0.47-0.17,0.71-0.36,0.71c-0.07,0-0.17-0.04-0.28-0.13c-0.19-0.15-0.44-0.29-0.74-0.41c-0.3-0.12-0.64-0.18-1.02-0.18
	c-0.44,0-0.84,0.08-1.21,0.23c-0.36,0.15-0.65,0.39-0.86,0.7c-0.22,0.31-0.32,0.7-0.32,1.16c0,0.42,0.1,0.79,0.29,1.1
	s0.43,0.58,0.71,0.79c0.28,0.22,0.69,0.49,1.22,0.83c0.44,0.27,0.78,0.5,1.02,0.69s0.44,0.4,0.59,0.63c0.15,0.24,0.22,0.5,0.22,0.79
	c0,0.36-0.07,0.66-0.21,0.89c-0.14,0.23-0.32,0.39-0.54,0.5c-0.22,0.1-0.45,0.15-0.68,0.15c-0.52,0-0.93-0.12-1.23-0.36
	c-0.31-0.24-0.53-0.58-0.68-1.01s-0.26-0.98-0.34-1.65h-0.37c0,1.54-0.02,2.61-0.06,3.23h0.37c0.06-0.41,0.17-0.61,0.33-0.61
	c0.06,0,0.11,0.02,0.15,0.06c0.23,0.18,0.45,0.33,0.66,0.43c0.37,0.15,0.8,0.23,1.28,0.23c0.5,0,0.96-0.09,1.38-0.26
	c0.42-0.18,0.76-0.43,1.01-0.77s0.38-0.75,0.38-1.23c0-0.42-0.09-0.79-0.28-1.11C121.92,10.89,121.67,10.6,121.37,10.35
	 M128.72,12.28c-0.16,0.62-0.36,1.06-0.6,1.33c-0.24,0.27-0.52,0.4-0.86,0.4c-0.34,0-0.6-0.11-0.77-0.32s-0.26-0.57-0.26-1.05V6.37
	h2.39V6.04h-2.39v-2.7c-0.36,0.14-0.85,0.21-1.45,0.23v2.47h-1.56v0.32h1.56v5.42c0,0.59,0.05,1.05,0.14,1.39
	c0.09,0.35,0.26,0.64,0.49,0.87c0.18,0.18,0.4,0.32,0.63,0.41c0.24,0.09,0.54,0.13,0.9,0.13c1.14,0,1.84-0.75,2.1-2.24L128.72,12.28
	z M37.98,14.48c-1.61,2.51-4.38,4.21-7.55,4.34c-5.46,0.21-9.97-4.3-9.75-9.76c0.13-3.39,2.07-6.32,4.88-7.86
	c0.12-0.07,0.23,0.09,0.13,0.18c-2.18,1.99-3.37,5.06-2.72,8.37c0.27,1.39,0.88,2.66,1.73,3.73c0.26-0.48,0.77-1.08,0.78-1.87
	C25.5,9.4,25.5,7.2,25.49,4.99c0-0.37,0.1-0.63,0.39-0.87c1.63-1.34,3.24-2.7,4.87-4.03c0.12-0.1,0.4-0.12,0.54-0.04
	c1.1,0.62,5.38,2.07,5.85,2.12c0.08,0.01,0.22,0.13,0.06,0.27c0,0-1.27,1.27-1.96,1.97c-0.12,0.12-0.27,0.09-0.39,0.05
	c-0.7-0.24-1.77-0.68-2.72-1.06v5.67h0.71v0.71H32.1v7.03c2.21-0.11,4.22-1.02,5.71-2.46C37.91,14.24,38.05,14.36,37.98,14.48
	 M29.51,9.76h-1.3c-0.25,1.05-0.79,1.92-1.64,2.71c-0.28,0.26-0.99,0.94-1.34,1.28c-0.08,0.08-0.09,0.21-0.02,0.3
	c0.03,0.03,0.06,0.06,0.09,0.09c0.06,0.06,0.12,0.12,0.17,0.17c0.1,0.1,0.21,0.2,0.32,0.29c0.06,0.05,0.12,0.1,0.18,0.15
	c0.07,0.06,0.14,0.12,0.21,0.17c0.6,0.46,1.29,0.86,1.98,1.16c0.4,0.17,0.82,0.31,1.25,0.42c0.05-0.01,0.1-0.06,0.1-0.12V9.76z
	 M29.52,2.53c0-0.11-0.11-0.16-0.21-0.1c0,0-0.19,0.12-0.29,0.17c-0.5,0.3-0.69,0.77-0.67,1.37l0.02,4.2
	c0.01,0.31-0.01,0.59-0.05,0.88h1.18L29.52,2.53z M31.37,9.76h-1.14c0,2.18,0,4.35-0.01,6.34c0,0.4,0.09,0.58,0.48,0.65
	c0.23,0.02,0.45,0.04,0.67,0.05V9.76z M31.37,3.09C31.15,3,30.94,2.93,30.76,2.86c-0.04-0.01-0.14-0.05-0.18-0.06
	c-0.28-0.09-0.36,0.04-0.36,0.19c0,0.1,0,0.19,0,0.28c0,1.81,0,3.78,0,5.77h1.14V3.09H31.37z"/>
</svg>
