<svg xmlns="http://www.w3.org/2000/svg" version="1.1" style="enable-background:new 0 0 336 235.2;" width="764" height="115.60869529161641"><rect id="backgroundrect" width="100%" height="100%" x="0" y="0" fill="none" stroke="none"/><rect id="ee-background" x="0" y="0" width="865.8619384765625" height="130.89657592773438" style="fill: white; fill-opacity: 0;"/>














<g class="currentLayer" style=""><title>Layer 1</title><g id="svg_1" class=""><g id="surface1" stroke-width="0">
<path style=" stroke:none;fill-rule:nonzero;fill:rgb(2.745098%,3.529412%,3.529412%);fill-opacity:1;" d="M34.2492265847547,72.84827820635607 L34.2492265847547,73.95512099660134 L18.564457612837632,73.95512099660134 L18.564457612837632,72.84827820635607 L19.1159508342573,72.84827820635607 C21.437620065842456,72.84827820635607 22.760432132853225,68.98011493618279 22.760432132853225,66.76642935569228 L22.760432132853225,5.064778055810131 L9.948825613940977,5.064778055810131 C5.197501525099795,5.064778055810131 2.8796886409205658,9.596276520479869 2.8796886409205658,13.024788542310283 L1.7767031853693518,13.024788542310283 L1.7767031853693518,0.972931826771366 L51.37250495687714,0.972931826771366 L51.37250495687714,13.024788542310283 L50.265662166631884,13.024788542310283 C50.265662166631884,9.596276520479869 47.94784928245265,5.064778055810131 43.19652519361147,5.064778055810131 L30.161236703121865,5.064778055810131 L30.161236703121865,66.76642935569228 C30.161236703121865,68.98011493618279 31.48790511753856,72.84827820635607 33.69773336333503,72.84827820635607 zM34.2492265847547,72.84827820635607 " stroke-width="0" id="svg_2"/>
<path style=" stroke:none;fill-rule:nonzero;fill:rgb(2.745098%,3.529412%,3.529412%);fill-opacity:1;" d="M101.51594261511055,72.84827820635607 L102.07129218393614,72.84827820635607 C104.27726408232668,72.84827820635607 105.60393249674337,69.08809858727741 105.60393249674337,66.76642935569228 L105.60393249674337,36.68885072504526 L70.2582466443532,36.68885072504526 L70.2582466443532,66.76642935569228 C70.2582466443532,68.98011493618279 71.47307407298122,72.84827820635607 73.68290231877769,72.84827820635607 L74.23439554019737,72.84827820635607 L74.23439554019737,73.95512099660134 L58.76945219245173,73.95512099660134 L58.76945219245173,72.84827820635607 L59.3209454138714,72.84827820635607 C61.53077365966787,72.84827820635607 62.85744207408457,69.08809858727741 62.85744207408457,66.76642935569228 L62.85744207408457,7.826099523026265 C62.85744207408457,5.72811226301847 61.64261563274467,2.079774617016625 59.3209454138714,2.079774617016625 L58.76945219245173,2.079774617016625 L58.76945219245173,0.972931826771366 L74.23439554019737,0.972931826771366 L74.23439554019737,2.079774617016625 L73.68290231877769,2.079774617016625 C71.36123308719255,2.079774617016625 70.2582466443532,5.72811226301847 70.2582466443532,7.826099523026265 L70.2582466443532,32.81683012017794 L105.60393249674337,32.81683012017794 L105.60393249674337,7.826099523026265 C105.60393249674337,5.72811226301847 104.38910506811537,2.079774617016625 102.07129218393614,2.079774617016625 L101.51594261511055,2.079774617016625 L101.51594261511055,0.972931826771366 L116.98088596285618,0.972931826771366 L116.98088596285618,2.079774617016625 L116.42939274143653,2.079774617016625 C114.1115798572573,2.079774617016625 113.00473706701202,5.72811226301847 113.00473706701202,7.826099523026265 L113.00473706701202,66.76642935569228 C113.00473706701202,68.98011493618279 114.4432464672174,72.84827820635607 116.42939274143653,72.84827820635607 L116.98088596285618,72.84827820635607 L116.98088596285618,73.95512099660134 L101.51594261511055,73.95512099660134 zM101.51594261511055,72.84827820635607 " stroke-width="0" id="svg_3"/>
<path style=" stroke:none;fill-rule:nonzero;fill:rgb(2.745098%,3.529412%,3.529412%);fill-opacity:1;" d="M126.14801019588438,72.84827820635607 L126.69950341730407,72.84827820635607 C128.90933166310055,72.84827820635607 130.45582570168867,69.19994056035424 130.45582570168867,66.9862549798637 L130.45582570168867,7.826099523026265 C130.45582570168867,5.72811226301847 128.90933166310055,2.079774617016625 126.69950341730407,2.079774617016625 L126.14801019588438,2.079774617016625 L126.14801019588438,0.972931826771366 L168.67467499437177,0.972931826771366 L168.67467499437177,11.254612532144801 L167.57168855153242,11.254612532144801 C167.2400219415723,7.826099523026265 165.03019369577584,4.841096084232763 160.05904299547512,4.841096084232763 L137.85663027195733,4.841096084232763 L137.85663027195733,32.81683012017794 L156.1908787380137,32.81683012017794 C159.6155344124382,32.81683012017794 162.1570302554829,30.387176250210025 162.1570302554829,27.621997448299837 L163.2638730457282,27.621997448299837 L163.2638730457282,41.44403116129237 L162.1570302554829,41.44403116129237 C162.1570302554829,38.79069433245898 159.72737638551502,36.57700973925658 156.1908787380137,36.57700973925658 L137.85663027195733,36.57700973925658 L137.85663027195733,70.08310039173399 L162.04904561710015,70.08310039173399 C167.67967318991518,70.08310039173399 170.33301001874858,64.11309252685888 170.33301001874858,61.01624711498857 L171.43599646158793,61.01624711498857 L171.43599646158793,73.95512099660134 L126.14801019588438,73.95512099660134 zM126.14801019588438,72.84827820635607 " stroke-width="0" id="svg_4"/>
<path style=" stroke:none;fill-rule:nonzero;fill:rgb(2.745098%,3.529412%,3.529412%);fill-opacity:1;" d="M205.3547429432786,72.84827820635607 L205.9100925121042,72.84827820635607 C208.11606342320664,72.84827820635607 209.4427318376233,68.98011493618279 209.4427318376233,66.76642935569228 L209.4427318376233,7.826099523026265 C209.4427318376233,5.72811226301847 208.22790539628343,2.079774617016625 205.9100925121042,2.079774617016625 L205.3547429432786,2.079774617016625 L205.3547429432786,0.972931826771366 L226.67399583541663,0.972931826771366 C250.09123598756244,0.972931826771366 264.00968430943186,18.663129797225295 264.00968430943186,37.79569351529052 C264.00968430943186,55.70957345732181 250.97825216634814,73.95512099660134 225.23934179532904,73.95512099660134 L205.3547429432786,73.95512099660134 zM222.47802131540104,4.841096084232763 L216.84353640789197,4.841096084232763 L216.84353640789197,70.08310039173399 L222.69784693957246,70.08310039173399 C238.6062978830669,70.08310039173399 256.5008951007804,60.35291290778022 256.5008951007804,39.45402952695545 C256.5008951007804,20.54514778046758 242.03095355749136,4.841096084232763 222.47802131540104,4.841096084232763 zM222.47802131540104,4.841096084232763 " stroke-width="0" id="svg_5"/>
<path style=" stroke:none;fill-rule:nonzero;fill:rgb(2.745098%,3.529412%,3.529412%);fill-opacity:1;" d="M315.7034733409474,72.84827820635607 L316.2549655750789,72.84827820635607 C318.02514257253256,72.84827820635607 318.90830240391233,72.07310301335905 318.90830240391233,70.41476700169412 C318.90830240391233,69.86327476756257 318.7964614181236,69.19994056035424 318.5766357939522,68.53660635314588 L308.63433538063884,41.66385777275192 L289.305086097414,41.66385777275192 L279.6944522940608,68.09309777010897 C279.4746266698893,68.64844733893455 279.36278568410063,69.19994056035424 279.36278568410063,69.75143378177388 C279.36278568410063,71.63345176501618 280.57761311272867,72.84827820635607 281.79243955406855,72.84827820635607 L282.3439327754882,72.84827820635607 L282.3439327754882,73.95512099660134 L270.0838204652838,73.95512099660134 L270.0838204652838,72.84827820635607 L270.6353126994153,72.84827820635607 C272.5134743352517,72.84827820635607 274.50347695687674,70.1949413775227 275.7183043855047,67.09809695294051 L301.01370518619876,-0.3537365876453292 L325.7576137527613,66.43476175844404 C326.74875920981196,69.41976618452566 328.5189362072656,72.84827820635607 331.5000832986532,72.84827820635607 L332.05157553278474,72.84827820635607 L332.05157553278474,73.95512099660134 L315.7034733409474,73.95512099660134 zM290.4080715529652,37.90367815367328 L307.419508939299,37.90367815367328 L298.915717926191,14.794965539763894 zM290.4080715529652,37.90367815367328 " stroke-width="0" id="svg_6"/>
<path style=" stroke:none;fill-rule:nonzero;fill:rgb(2.745098%,3.529412%,3.529412%);fill-opacity:1;" d="M339.12071349309326,0.972931826771366 L354.91732345079896,0.972931826771366 L354.91732345079896,2.075917282322578 L354.3619738819734,2.075917282322578 C352.2639866219656,2.075917282322578 350.8293335691662,5.616271277229792 350.8293335691662,7.826099523026265 L350.8293335691662,66.76642935569228 C350.8293335691662,68.97625760148874 352.1560019835829,72.84827820635607 354.3619738819734,72.84827820635607 L354.91732345079896,72.84827820635607 L354.91732345079896,73.95512099660134 L339.12071349309326,73.95512099660134 L339.12071349309326,72.84827820635607 L339.67220572722476,72.84827820635607 C341.99001959869213,72.84827820635607 343.31668801310883,69.08809858727741 343.31668801310883,66.76642935569228 L343.31668801310883,7.826099523026265 C343.31668801310883,5.72811226301847 341.99001959869213,2.079774617016625 339.67220572722476,2.079774617016625 L339.12071349309326,2.079774617016625 zM339.12071349309326,0.972931826771366 " stroke-width="0" id="svg_7"/>
<path style=" stroke:none;fill-rule:nonzero;fill:rgb(2.745098%,3.529412%,3.529412%);fill-opacity:1;" d="M365.5191007366266,72.84827820635607 L366.07059395804635,72.84827820635607 C368.28042220384276,72.84827820635607 369.82691624243085,69.19994056035424 369.82691624243085,66.9862549798637 L369.82691624243085,7.826099523026265 C369.82691624243085,5.72811226301847 368.28042220384276,2.079774617016625 366.07059395804635,2.079774617016625 L365.5191007366266,2.079774617016625 L365.5191007366266,0.972931826771366 L381.4236953327151,0.972931826771366 L381.4236953327151,2.079774617016625 L380.8722021112954,2.079774617016625 C378.662373865499,2.079774617016625 377.2277208126995,5.72811226301847 377.2277208126995,7.826099523026265 L377.2277208126995,69.86327476756257 L401.41627981043644,69.86327476756257 C407.05076373065737,69.86327476756257 409.70024421208484,63.89326690268746 409.70024421208484,60.02124629782011 L410.8070870023302,60.02124629782011 L410.8070870023302,73.95512099660134 L365.5191007366266,73.95512099660134 zM365.5191007366266,72.84827820635607 " stroke-width="0" id="svg_8"/>
<path style=" stroke:none;fill-rule:nonzero;fill:rgb(2.745098%,3.529412%,3.529412%);fill-opacity:1;" d="M407.9223545198194,0.972931826771366 L423.1674712561055,0.972931826771366 L423.1674712561055,2.075917282322578 C422.1724694516489,2.187759255399377 421.0694839960977,2.962934448396407 421.0694839960977,4.397587501195851 C421.0694839960977,4.729254111155964 421.1774686344804,5.17276269419288 421.4011506060578,5.616271277229792 L437.96907940935466,34.698848103420225 L453.87367499273137,7.162765315817918 C454.4290245615569,5.947938874478023 454.6488501857284,5.616271277229792 454.6488501857284,4.729254111155964 C454.31718258848014,2.40758487957081 452.4390209526438,2.075917282322578 452.10735434268366,2.075917282322578 L452.10735434268366,0.972931826771366 L463.92781540454524,0.972931826771366 L463.92781540454524,2.075917282322578 C461.71798715874877,2.075917282322578 459.28833230149274,5.504430291441111 457.629997277116,8.269608106063178 L440.39873426661063,38.12736111253875 L440.39873426661063,66.76642935569228 C440.39873426661063,68.868272963106 441.8333873194102,72.84827820635607 444.0432155652066,72.84827820635607 L444.5947087866263,72.84827820635607 L444.5947087866263,73.95126464919541 L428.7980988289205,73.95126464919541 L428.7980988289205,72.84827820635607 L429.35344839774615,72.84827820635607 C431.67126128192535,72.84827820635607 432.99792969634206,69.08809858727741 432.99792969634206,66.76642935569228 L432.99792969634206,39.12236192970722 L415.2113171170112,8.601275703311416 C413.7766640642118,6.391446470226818 410.903501611207,2.079774617016625 408.47384675395097,2.079774617016625 L407.9223545198194,2.079774617016625 zM407.9223545198194,0.972931826771366 " stroke-width="0" id="svg_9"/>
<path style=" stroke:none;fill-rule:nonzero;fill:rgb(2.745098%,3.529412%,3.529412%);fill-opacity:1;" d="M540.8167352677602,72.84827820635607 L541.3682275018917,72.84827820635607 C543.5780557476883,72.84827820635607 544.900867814699,69.08809858727741 544.900867814699,66.76642935569228 L544.900867814699,36.68885072504526 L509.5551819623088,36.68885072504526 L509.5551819623088,66.76642935569228 C509.5551819623088,68.98011493618279 510.7700093909369,72.84827820635607 512.9798376367334,72.84827820635607 L513.531330858153,72.84827820635607 L513.531330858153,73.95512099660134 L498.07024385781324,73.95512099660134 L498.07024385781324,72.84827820635607 L498.62173707923296,72.84827820635607 C500.8315663123176,72.84827820635607 502.15437739204026,69.08809858727741 502.15437739204026,66.76642935569228 L502.15437739204026,7.826099523026265 C502.15437739204026,5.72811226301847 500.93954996341216,2.079774617016625 498.62173707923296,2.079774617016625 L498.07024385781324,2.079774617016625 L498.07024385781324,0.972931826771366 L513.531330858153,0.972931826771366 L513.531330858153,2.079774617016625 L512.9798376367334,2.079774617016625 C510.66202475255415,2.079774617016625 509.5551819623088,5.72811226301847 509.5551819623088,7.826099523026265 L509.5551819623088,32.81683012017794 L544.900867814699,32.81683012017794 L544.900867814699,7.826099523026265 C544.900867814699,5.72811226301847 543.6860413733592,2.079774617016625 541.3682275018917,2.079774617016625 L540.8167352677602,2.079774617016625 L540.8167352677602,0.972931826771366 L556.2816776282178,0.972931826771366 L556.2816776282178,2.079774617016625 L555.7263280593921,2.079774617016625 C553.4085151752129,2.079774617016625 552.3016723849677,5.72811226301847 552.3016723849677,7.826099523026265 L552.3016723849677,66.76642935569228 C552.3016723849677,68.98011493618279 553.740181785173,72.84827820635607 555.7263280593921,72.84827820635607 L556.2816776282178,72.84827820635607 L556.2816776282178,73.95512099660134 L540.8167352677602,73.95512099660134 zM540.8167352677602,72.84827820635607 " stroke-width="0" id="svg_10"/>
<path style=" stroke:none;fill-rule:nonzero;fill:rgb(2.745098%,3.529412%,3.529412%);fill-opacity:1;" d="M639.7846558519103,37.24034394646493 C639.7846558519103,59.35791209061176 622.3335672172337,75.05810743944066 601.1222989634783,75.05810743944066 C578.4802340043296,75.05810743944066 564.5617856824603,57.25606848319805 564.5617856824603,38.23534476363339 C564.5617856824603,19.218479366050886 578.4802340043296,-0.13391096347389608 602.6726493494724,-0.13391096347389608 C625.5345399327927,-0.13391096347389608 639.7846558519103,17.3364613828086 639.7846558519103,37.24034394646493 zM632.275866643259,38.56701236088162 C632.275866643259,22.311467443227144 620.0157543330545,3.7381096413934287 601.2341399492672,3.7381096413934287 C583.0078751343053,3.7381096413934287 571.9625892654407,21.65199057071284 571.9625892654407,36.68885072504526 C571.9625892654407,52.944395642699746 584.9978787432185,71.18994318197926 602.5608083636838,71.18994318197926 C622.3335672172337,70.30292601590544 632.275866643259,53.27606323994797 632.275866643259,38.56701236088162 zM632.275866643259,38.56701236088162 " stroke-width="0" id="svg_11"/>
<path style=" stroke:none;fill-rule:nonzero;fill:rgb(2.745098%,3.529412%,3.529412%);fill-opacity:1;" d="M649.3914323205695,72.84827820635607 L649.9429255419892,72.84827820635607 C652.1527537877856,72.84827820635607 653.4794222022023,68.98011493618279 653.4794222022023,66.76642935569228 L653.4794222022023,7.826099523026265 C653.4794222022023,5.72811226301847 652.2645947735743,2.079774617016625 649.9429255419892,2.079774617016625 L649.3914323205695,2.079774617016625 L649.3914323205695,0.972931826771366 L670.7106852127075,0.972931826771366 C694.1279253648534,0.972931826771366 708.0463736867227,18.663129797225295 708.0463736867227,37.79569351529052 C708.0463736867227,55.70957345732181 695.0110851962331,73.95512099660134 669.2760321599081,73.95512099660134 L649.3914323205695,73.95512099660134 zM666.5147106926919,4.841096084232763 L660.8802257851828,4.841096084232763 L660.8802257851828,70.08310039173399 L666.7345363168633,70.08310039173399 C682.6391309129519,70.08310039173399 700.5337281306655,60.35291290778022 700.5337281306655,39.45402952695545 C700.5337281306655,20.54514778046758 686.0637865873764,4.841096084232763 666.5147106926919,4.841096084232763 zM666.5147106926919,4.841096084232763 " stroke-width="0" id="svg_12"/>
<path style=" stroke:none;fill-rule:nonzero;fill:rgb(2.745098%,3.529412%,3.529412%);fill-opacity:1;" d="M717.5451655169991,72.84827820635607 L718.0966587384189,72.84827820635607 C720.3064869842153,72.84827820635607 721.8529810228034,69.19994056035424 721.8529810228034,66.9862549798637 L721.8529810228034,7.826099523026265 C721.8529810228034,5.72811226301847 720.3064869842153,2.079774617016625 718.0966587384189,2.079774617016625 L717.5451655169991,2.079774617016625 L717.5451655169991,0.972931826771366 L733.4497601130877,0.972931826771366 L733.4497601130877,2.079774617016625 L732.8982668916681,2.079774617016625 C730.6884386458715,2.079774617016625 729.2537855930722,5.72811226301847 729.2537855930722,7.826099523026265 L729.2537855930722,69.86327476756257 L753.4423445908091,69.86327476756257 C759.0768285110299,69.86327476756257 761.7263089924575,63.89326690268746 761.7263089924575,60.02124629782011 L762.8331517827028,60.02124629782011 L762.8331517827028,73.95512099660134 L717.5413091695933,73.95512099660134 L717.5413091695933,72.84827820635607 zM717.5451655169991,72.84827820635607 " stroke-width="0" id="svg_13"/>
<path style=" stroke:none;fill-rule:nonzero;fill:rgb(18.431373%,18.823529%,18.431373%);fill-opacity:1;" d="M21.426050036336555,110.07598302927663 L12.929973692616672,94.22152391132953 C12.98396551816399,96.342650243061 13.010961924581705,98.93042521684117 13.010961924581705,101.05155154857265 L13.010961924581705,110.07598302927663 L10.762567242861616,110.07598302927663 L10.762567242861616,92.02712204244489 L14.210362976297898,92.02712204244489 L22.706440307305904,107.88158017310386 C22.65244749447047,105.76045384137241 22.62545108805275,103.17267886759223 22.62545108805275,101.05155154857265 L22.62545108805275,92.02712204244489 L24.82371029163145,92.02712204244489 L24.87384576977284,110.07598302927663 zM21.426050036336555,110.07598302927663 " stroke-width="0" id="svg_14"/>
<path style=" stroke:none;fill-rule:nonzero;fill:rgb(18.431373%,18.823529%,18.431373%);fill-opacity:1;" d="M47.292227770056165,103.82444304529469 L37.257370082559994,103.82444304529469 C37.46562567722553,107.48820805549649 39.1933798913496,108.7184618610363 41.22966164371011,108.7184618610363 C43.03454774239328,108.7184618610363 44.49619720161045,107.59233535918518 44.808581087252804,105.60233372484826 L47.161104059949736,105.60233372484826 C46.61346718593599,108.95371386211954 43.971700386608504,110.44235874046633 41.125534340021396,110.44235874046633 C37.51961849006097,110.44235874046633 34.82771522530396,108.08983675505752 34.82771522530396,103.19581892660402 C34.82771522530396,98.69902956316383 37.62374579374968,95.84514983447677 41.41092181924604,95.84514983447677 C45.22895059856605,95.84514983447677 47.34622058289159,98.69902956316383 47.34622058289159,102.75231034356709 C47.34622058289159,102.96056593823265 47.34622058289159,103.32694263671046 47.292227770056165,103.82444304529469 zM37.28436550168959,102.09668883117062 L45.070829494753795,102.09668883117062 C44.86257390008824,99.21967003075986 43.63232009454841,97.57290404860083 41.36078634110465,97.57290404860083 C39.16638348493188,97.57290404860083 37.54661489647869,99.14253814620076 37.28436550168959,102.09668883117062 zM37.28436550168959,102.09668883117062 " stroke-width="0" id="svg_15"/>
<path style=" stroke:none;fill-rule:nonzero;fill:rgb(18.431373%,18.823529%,18.431373%);fill-opacity:1;" d="M71.46150404347533,110.07598302927663 L68.79659718513604,110.07598302927663 L65.71517913746568,98.40978474924516 L62.62990375510129,110.07598302927663 L59.964996896762,110.07598302927663 L55.54919576528687,96.21152653295458 L58.13311439166111,96.21152653295458 L61.34951348413194,107.93171565124524 L64.38079704094902,96.21152653295458 L67.17682760939473,96.21152653295458 L70.2582466443532,107.85458475397427 L73.47464573682403,96.21152653295458 L75.87730418766235,96.21152653295458 zM71.46150404347533,110.07598302927663 " stroke-width="0" id="svg_16"/>
<path style=" stroke:none;fill-rule:nonzero;fill:rgb(18.431373%,18.823529%,18.431373%);fill-opacity:1;" d="M94.21926633581873,100.160679022381 L91.87060069781586,100.160679022381 C91.55435947747944,98.54090944663969 90.56321500771692,97.57290404860083 88.94344543197559,97.57290404860083 C87.3738123216638,97.57290404860083 86.6410589247082,98.43678115566287 86.6410589247082,99.640038554785 C86.6410589247082,101.02455612944303 87.79032351099488,101.57604836357459 89.67234149423716,102.07354975944695 C92.86174516757839,102.91043046009126 94.377387439631,104.16382333735477 94.377387439631,106.5202026574576 C94.377387439631,109.13497305036736 92.15598916432863,110.44235874046633 89.22883389848838,110.44235874046633 C86.37881051720721,110.44235874046633 84.21140406745216,109.13497305036736 83.79489287812109,105.99570584245565 L86.14355851612396,105.99570584245565 C86.50993521460177,108.01270487049841 87.79032351099488,108.7184618610363 89.3869540150125,108.7184618610363 C90.87559889335928,108.7184618610363 92.0788562924814,108.03584394222209 92.0788562924814,106.70146283299354 C92.0788562924814,105.3670807364769 91.13784828814838,104.661323745939 88.81232172186918,104.03269962724835 C86.32867503906583,103.35393904312816 84.34252876484672,102.331941819542 84.34252876484672,99.90228696228596 C84.34252876484672,97.36079111924124 86.2746822262304,95.84514983447677 89.12470560751154,95.84514983447677 C92.23312006159962,95.84514983447677 93.93387885659408,97.62303952674223 94.21926633581873,100.160679022381 zM94.21926633581873,100.160679022381 " stroke-width="0" id="svg_17"/>
<path style=" stroke:none;fill-rule:nonzero;fill:rgb(18.431373%,18.823529%,18.431373%);fill-opacity:1;" d="M124.71335714308495,108.08983675505752 L123.95746467440567,109.58233896809834 C123.01645568278451,110.2341031458008 121.8131982836624,110.44235874046633 120.47881717443387,110.44235874046633 C117.97203043261874,110.44235874046633 116.01288056481734,109.05784215309639 116.01288056481734,106.49320625103988 C116.01288056481734,103.35393904312816 118.36154620282021,101.73031213269282 123.79934455788154,101.73031213269282 L124.68636073666721,101.73031213269282 L124.68636073666721,101.36393642150311 C124.68636073666721,100.76230772194207 124.68636073666721,100.21467084792833 124.63622525852583,99.69017403292638 C124.53209696754901,98.40978474924516 123.79934455788154,97.57290404860083 121.94432199376882,97.57290404860083 C120.06230401052656,97.57290404860083 119.12129600619352,98.59104492478107 118.96317490238125,100.50391566184702 L116.61065291697247,100.50391566184702 C116.818908511638,97.54590764218312 118.88604301782215,95.84514983447677 121.94432199376882,95.84514983447677 C125.2378539580869,95.84514983447677 126.62237153274494,97.23352375654075 126.8576235338282,99.50891385739044 C126.9077590119696,100.05655073140419 126.93475541838731,100.73916766293027 126.93475541838731,101.34079636249135 L126.93475541838731,106.54719906387534 C126.93475541838731,107.59233535918518 126.9848908965287,108.53334533809445 127.1970038258883,110.07598302927663 L124.9486091441682,110.07598302927663 zM124.68636073666721,104.81944484975125 L124.68636073666721,103.40793086867549 C120.87218929204127,103.1186860547568 118.46567449379702,103.9285713362715 118.46567449379702,106.31194706279206 C118.46567449379702,107.9857084640807 119.53780719552459,108.7184618610363 121.23856599051906,108.7184618610363 C123.32883956842689,108.7184618610363 124.68636073666721,107.33008793897233 124.68636073666721,104.81944484975125 zM124.68636073666721,104.81944484975125 " stroke-width="0" id="svg_18"/>
<path style=" stroke:none;fill-rule:nonzero;fill:rgb(18.431373%,18.823529%,18.431373%);fill-opacity:1;" d="M149.71951411714844,102.28180535411248 L149.71951411714844,110.07598302927663 L147.47111943542836,110.07598302927663 L147.47111943542836,102.43992547063662 C147.47111943542836,101.73031213269282 147.47111943542836,101.15567983954946 147.42098395728695,100.4499238362997 C147.28986024718054,98.82629692586436 146.4028430811067,97.62303952674223 144.25857669036344,97.62303952674223 C142.08731389320246,97.62303952674223 140.25928872279562,99.24666643717758 140.25928872279562,103.98256316181883 L140.25928872279562,110.07598302927663 L138.01089404107552,110.07598302927663 L138.01089404107552,96.21152653295458 L140.25928872279562,96.21152653295458 L140.25928872279562,98.59104492478107 L141.12316582985764,96.99441540805157 C142.29942682256205,96.08040183556002 143.3175676987423,95.84514983447677 144.72908167981808,95.84514983447677 C147.76036424934702,95.84514983447677 149.45726570964746,97.468775757624 149.66552229160112,99.89843061488004 C149.71951411714844,100.60804395282383 149.71951411714844,101.15567983954946 149.71951411714844,102.28180535411248 zM149.71951411714844,102.28180535411248 " stroke-width="0" id="svg_19"/>
<path style=" stroke:none;fill-rule:nonzero;fill:rgb(18.431373%,18.823529%,18.431373%);fill-opacity:1;" d="M172.73952481699283,110.07598302927663 L170.49113112256086,110.07598302927663 L170.49113112256086,107.85458475397427 L169.44599383996288,109.34322963232103 C168.66310496486588,109.9988501574294 167.2014555056487,110.44235874046633 165.78994251186106,110.44235874046633 C161.7366617314578,110.44235874046633 159.49212339714362,107.41107617093736 159.49212339714362,103.35393904312816 C159.49212339714362,98.22466822630328 162.67767072307893,95.84514983447677 166.2604465140276,95.84514983447677 C167.40971208760237,95.84514983447677 168.8713605595314,96.18453012653687 169.5771175500693,96.7591624196802 L170.49113112256086,98.12053993532646 L170.49113112256086,90.84700371504644 L172.73952481699283,90.84700371504644 zM170.49113112256086,103.27680715856907 L170.49113112256086,102.51705834248385 C170.49113112256086,98.9342815642471 168.2465927882467,97.57290404860083 166.2604465140276,97.57290404860083 C163.8269362966537,97.57290404860083 161.94877466081738,99.45492203184311 161.94877466081738,103.09169063562719 C161.94877466081738,106.23095784353892 163.3564313071991,108.7184618610363 166.12932280392116,108.7184618610363 C168.4278529637826,108.7184618610363 170.49113112256086,107.2529550671251 170.49113112256086,103.27680715856907 zM170.49113112256086,103.27680715856907 " stroke-width="0" id="svg_20"/>
<path style=" stroke:none;fill-rule:nonzero;fill:rgb(18.431373%,18.823529%,18.431373%);fill-opacity:1;" d="M195.5165708209421,110.07598302927663 L195.5165708209421,92.02712204244489 L197.7649655026622,92.02712204244489 L197.7649655026622,110.07598302927663 zM195.5165708209421,110.07598302927663 " stroke-width="0" id="svg_21"/>
<path style=" stroke:none;fill-rule:nonzero;fill:rgb(18.431373%,18.823529%,18.431373%);fill-opacity:1;" d="M220.57671962055292,102.28180535411248 L220.57671962055292,110.07598302927663 L218.33218227352685,110.07598302927663 L218.33218227352685,102.43992547063662 C218.33218227352685,101.73031213269282 218.33218227352685,101.15567983954946 218.27818946069144,100.4499238362997 C218.147065750585,98.82629692586436 217.26004858451114,97.62303952674223 215.1157821937679,97.62303952674223 C212.94837673130095,97.62303952674223 211.11649422620007,99.24666643717758 211.11649422620007,103.98256316181883 L211.11649422620007,110.07598302927663 L208.86809954447997,110.07598302927663 L208.86809954447997,96.21152653295458 L211.11649422620007,96.21152653295458 L211.11649422620007,98.59104492478107 L211.9803713332621,96.99441540805157 C213.1566323259665,96.08040183556002 214.17477320214678,95.84514983447677 215.58628718322254,95.84514983447677 C218.61756975275148,95.84514983447677 220.3144712130519,97.468775757624 220.5265841424115,99.89843061488004 C220.57671962055292,100.60804395282383 220.57671962055292,101.15567983954946 220.57671962055292,102.28180535411248 zM220.57671962055292,102.28180535411248 " stroke-width="0" id="svg_22"/>
<path style=" stroke:none;fill-rule:nonzero;fill:rgb(18.431373%,18.823529%,18.431373%);fill-opacity:1;" d="M240.61944056370368,100.160679022381 L238.26691759100677,100.160679022381 C237.95453370536444,98.54090944663969 236.95953190090785,97.57290404860083 235.33976232516653,97.57290404860083 C233.77012921485473,97.57290404860083 233.04123216530505,98.43678115566287 233.04123216530505,99.640038554785 C233.04123216530505,101.02455612944303 234.19049773887986,101.57604836357459 236.07251572212212,102.07354975944695 C239.25806206076933,102.91043046009126 240.77370433282195,104.16382333735477 240.77370433282195,106.5202026574576 C240.77370433282195,109.13497305036736 238.55230605751956,110.44235874046633 235.62515079167932,110.44235874046633 C232.7789837578041,110.44235874046633 230.60772096064312,109.13497305036736 230.191209771312,105.99570584245565 L232.5437317567208,105.99570584245565 C232.9101084551986,108.01270487049841 234.19049773887986,108.7184618610363 235.78327090820343,108.7184618610363 C237.2719157865502,108.7184618610363 238.4751731856723,108.03584394222209 238.4751731856723,106.70146283299354 C238.4751731856723,105.3670807364769 237.53416518133932,104.661323745939 235.2086386150601,104.03269962724835 C232.72499193225676,103.35393904312816 230.73884565803766,102.331941819542 230.73884565803766,99.90228696228596 C230.73884565803766,97.36079111924124 232.67485546682724,95.84514983447677 235.5210225007025,95.84514983447677 C238.63329428948458,95.84514983447677 240.33019574978505,97.62303952674223 240.61944056370368,100.160679022381 zM240.61944056370368,100.160679022381 " stroke-width="0" id="svg_23"/>
<path style=" stroke:none;fill-rule:nonzero;fill:rgb(18.431373%,18.823529%,18.431373%);fill-opacity:1;" d="M253.1880804121446,93.09925474417246 C253.1880804121446,93.90914002568715 252.55945629345393,94.53776414437783 251.74957101193922,94.53776414437783 C250.93968573042451,94.53776414437783 250.31106161173392,93.90914002568715 250.31106161173392,93.09925474417246 C250.31106161173392,92.2855131152518 250.93968573042451,91.66074534396708 251.74957101193922,91.66074534396708 C252.55945629345393,91.66074534396708 253.1880804121446,92.2855131152518 253.1880804121446,93.09925474417246 zM250.62344549737622,110.07598302927663 L250.62344549737622,96.21152653295458 L252.87184017909635,96.21152653295458 L252.87184017909635,110.07598302927663 zM250.62344549737622,110.07598302927663 " stroke-width="0" id="svg_24"/>
<path style=" stroke:none;fill-rule:nonzero;fill:rgb(18.431373%,18.823529%,18.431373%);fill-opacity:1;" d="M276.0769674018826,106.67832277398173 C276.0769674018826,107.53834353363786 276.0769674018826,108.61433357005949 276.04997099546483,109.37022603873876 C275.9188472853585,113.42736316654793 273.46219602168463,115.5716295572912 269.4667653888109,115.5716295572912 C265.51761289938446,115.5716295572912 263.5584620442949,113.92486357513218 263.2730745650703,110.99385196188598 L263.24607815865255,110.73160355438503 L265.51761289938446,110.73160355438503 L265.544608318514,110.96685555546827 C265.7297248414559,112.66761435046274 267.08724600969623,113.84387534316713 269.4667653888109,113.84387534316713 C272.20880314442115,113.84387534316713 273.69744901005606,112.27424124556721 273.80543364843885,109.605478039822 C273.82857272016247,108.95371386211954 273.82857272016247,108.50634893167671 273.82857272016247,108.08983675505752 L273.82857272016247,107.85458475397427 L272.7834354375645,109.34708597972697 C272.00054754975565,109.9988501574294 270.53889809053845,110.44621607516036 269.1273850967508,110.44621607516036 C265.07410431634753,110.44621607516036 262.82956598203333,107.41107617093736 262.82956598203333,103.35393904312816 C262.82956598203333,98.22852556099734 266.0151133079687,95.84514983447677 269.59788909891734,95.84514983447677 C270.747153685204,95.84514983447677 272.20880314442115,96.18453012653687 272.91456013495906,96.76301876708611 L273.82857272016247,98.12053993532646 L273.82857272016247,96.21152653295458 L276.0769674018826,96.21152653295458 zM273.82857272016247,103.27680715856907 L273.82857272016247,102.51705834248385 C273.82857272016247,98.9342815642471 271.58403537313643,97.57290404860083 269.5940327515114,97.57290404860083 C267.1643778942553,97.57290404860083 265.28235991101303,99.45492203184311 265.28235991101303,103.09169063562719 C265.28235991101303,106.23095784353892 266.69387389208885,108.7184618610363 269.4667653888109,108.7184618610363 C271.7652945613842,108.7184618610363 273.82857272016247,107.2529550671251 273.82857272016247,103.27680715856907 zM273.82857272016247,103.27680715856907 " stroke-width="0" id="svg_25"/>
<path style=" stroke:none;fill-rule:nonzero;fill:rgb(18.431373%,18.823529%,18.431373%);fill-opacity:1;" d="M298.8887225070614,102.28180535411248 L298.8887225070614,110.07598302927663 L296.64032782534133,110.07598302927663 L296.64032782534133,102.43992547063662 C296.64032782534133,101.73031213269282 296.64032782534133,101.15567983954946 296.586335999794,100.4499238362997 C296.45521130239945,98.82629692586436 295.56819512361375,97.57290404860083 293.4239277455823,97.62303952674223 C291.25652228311543,97.67703233957765 289.4284971127086,99.24666643717758 289.4284971127086,103.98256316181883 L289.4284971127086,110.07598302927663 L287.18010243098854,110.07598302927663 L287.18010243098854,90.71973635234592 L289.4284971127086,90.71973635234592 L289.4284971127086,98.59104492478107 L290.2885168850765,96.99827175545748 C291.4647788650691,96.08040183556002 292.48291974124936,95.84514983447677 293.89443273503696,95.84514983447677 C296.9257162918541,95.84514983447677 298.6264740995604,97.468775757624 298.8347296942259,99.90228696228596 C298.8887225070614,100.60804395282383 298.8887225070614,101.15567983954946 298.8887225070614,102.28180535411248 zM298.8887225070614,102.28180535411248 " stroke-width="0" id="svg_26"/>
<path style=" stroke:none;fill-rule:nonzero;fill:rgb(18.431373%,18.823529%,18.431373%);fill-opacity:1;" d="M312.4986432906943,106.02270224887336 C312.4986432906943,106.49320625103988 312.4986432906943,106.72845825212315 312.5256396971121,107.09483495060095 C312.62976798808893,108.4292170471176 313.18126022222043,108.7184618610363 314.9321544953564,108.50634893167671 L314.9321544953564,110.15697126124167 C314.2765329829598,110.26109955221851 313.6517652116751,110.2880949713481 313.0231401056963,110.2880949713481 C311.29924223897814,110.2880949713481 310.4083697127865,109.58233896809834 310.277245015392,107.85458475397427 C310.2541059436683,107.48820805549649 310.2541059436683,106.90971842765907 310.2541059436683,106.1268305398502 L310.2541059436683,98.04340903805546 L308.3990833795556,98.04340903805546 L308.3990833795556,96.3156548239314 L310.2541059436683,96.3156548239314 L310.2541059436683,93.09925474417246 L312.4986432906943,93.09925474417246 L312.4986432906943,96.3156548239314 L315.08641826447456,96.3156548239314 L315.08641826447456,98.04340903805546 L312.4986432906943,98.04340903805546 zM312.4986432906943,106.02270224887336 " stroke-width="0" id="svg_27"/>
<path style=" stroke:none;fill-rule:nonzero;fill:rgb(18.431373%,18.823529%,18.431373%);fill-opacity:1;" d="M337.28111829318044,94.95427632099701 L337.28111829318044,96.3156548239314 L340.1272843397676,96.3156548239314 L340.1272843397676,98.04340903805546 L337.28111829318044,98.04340903805546 L337.28111829318044,110.07598302927663 L335.03272361146037,110.07598302927663 L335.03272361146037,98.04340903805546 L333.54407774582546,98.04340903805546 L333.54407774582546,96.3156548239314 L335.03272361146037,96.3156548239314 L335.03272361146037,95.1663892503566 C335.03272361146037,94.64189243535466 335.05972001787813,93.96313185123448 335.1098554960195,93.49262686177984 C335.3451074971028,91.4756288210252 336.706485012749,90.35335965386813 338.76976317152725,90.35335965386813 C339.3443954646706,90.35335965386813 339.8920323386844,90.40349513200951 340.3625363408508,90.48062701656865 L340.3625363408508,92.33950592808723 C338.6656348805504,92.02712204244489 337.5395093659874,92.42049416005227 337.3582491904515,93.54276332720936 C337.3042573649041,93.90914002568715 337.28111829318044,94.56476055079551 337.28111829318044,94.95427632099701 zM337.28111829318044,94.95427632099701 " stroke-width="0" id="svg_28"/>
<path style=" stroke:none;fill-rule:nonzero;fill:rgb(18.431373%,18.823529%,18.431373%);fill-opacity:1;" d="M362.2332824544085,103.1456824611745 C362.2332824544085,107.04084312505363 360.06587600465343,110.44235874046633 355.3608320338359,110.44235874046633 C350.6596434231361,110.44235874046633 348.4883806259751,107.04084312505363 348.4883806259751,103.1456824611745 C348.4883806259751,99.21967003075986 350.6596434231361,95.84514983447677 355.3608320338359,95.84514983447677 C360.06587600465343,95.84514983447677 362.2332824544085,99.21967003075986 362.2332824544085,103.1456824611745 zM359.77663217802296,103.1456824611745 C359.77663217802296,99.87529055586823 358.1568626022816,97.57290404860083 355.3608320338359,97.57290404860083 C352.56480047810203,97.57290404860083 350.9450309023607,99.87529055586823 350.9450309023607,103.1456824611745 C350.9450309023607,106.38907796006306 352.56480047810203,108.7184618610363 355.3608320338359,108.7184618610363 C358.1568626022816,108.7184618610363 359.77663217802296,106.38907796006306 359.77663217802296,103.1456824611745 zM359.77663217802296,103.1456824611745 " stroke-width="0" id="svg_29"/>
<path style=" stroke:none;fill-rule:nonzero;fill:rgb(18.431373%,18.823529%,18.431373%);fill-opacity:1;" d="M378.46183096564533,96.08040183556002 L378.46183096564533,97.78115964326638 C376.1093079929484,97.62303952674223 374.33141830068286,99.01141344880621 374.33141830068286,102.17767805042376 L374.33141830068286,110.07598302927663 L372.08302460625094,110.07598302927663 L372.08302460625094,96.21152653295458 L374.33141830068286,96.21152653295458 L374.33141830068286,98.38278933011554 L375.58481117794645,96.52391041859693 C376.1594444583779,96.13439464839544 376.8652014489158,95.89528531261817 377.52082197402416,95.89528531261817 C377.887198672502,95.89914166002407 378.1995825581443,95.94927812545359 378.46183096564533,96.08040183556002 zM378.46183096564533,96.08040183556002 " stroke-width="0" id="svg_30"/>
<path style=" stroke:none;fill-rule:nonzero;fill:rgb(18.431373%,18.823529%,18.431373%);fill-opacity:1;" d="M402.411281614893,106.02270224887336 C402.411281614893,106.49320625103988 402.411281614893,106.72845825212315 402.4344206866167,107.09483495060095 C402.53854897759356,108.4292170471176 403.09004219901317,108.7184618610363 404.84093548486095,108.50634893167671 L404.84093548486095,110.15697126124167 C404.1853139724644,110.26109955221851 403.56054620117976,110.2880949713481 402.93192109520095,110.2880949713481 C401.20802421577093,110.2880949713481 400.32100704969713,109.58233896809834 400.18988333959066,107.85458475397427 C400.162886933173,107.48820805549649 400.162886933173,106.90971842765907 400.162886933173,106.1268305398502 L400.162886933173,98.04340903805546 L398.3078653563484,98.04340903805546 L398.3078653563484,96.3156548239314 L400.162886933173,96.3156548239314 L400.162886933173,93.09925474417246 L402.411281614893,93.09925474417246 L402.411281614893,96.3156548239314 L404.9951992539792,96.3156548239314 L404.9951992539792,98.04340903805546 L402.411281614893,98.04340903805546 zM402.411281614893,106.02270224887336 " stroke-width="0" id="svg_31"/>
<path style=" stroke:none;fill-rule:nonzero;fill:rgb(18.431373%,18.823529%,18.431373%);fill-opacity:1;" d="M426.73867701754824,102.28180535411248 L426.73867701754824,110.07598302927663 L424.4902833231163,110.07598302927663 L424.4902833231163,102.43992547063662 C424.4902833231163,101.73031213269282 424.4902833231163,101.15567983954946 424.4362905102808,100.4499238362997 C424.30516680017445,98.82629692586436 423.41814963410053,97.57290404860083 421.2738832433573,97.62303952674223 C419.1064777808904,97.67703233957765 417.2784516231954,99.24666643717758 417.2784516231954,103.98256316181883 L417.2784516231954,110.07598302927663 L415.0300579287634,110.07598302927663 L415.0300579287634,90.71973635234592 L417.2784516231954,90.71973635234592 L417.2784516231954,98.59104492478107 L418.13847238285155,96.99827175545748 C419.3147333755559,96.08040183556002 420.33287425173614,95.84514983447677 421.744388232812,95.84514983447677 C424.77567080234087,95.84514983447677 426.4764295973354,97.468775757624 426.6846851920009,99.90228696228596 C426.73867701754824,100.60804395282383 426.73867701754824,101.15567983954946 426.73867701754824,102.28180535411248 zM426.73867701754824,102.28180535411248 " stroke-width="0" id="svg_32"/>
<path style=" stroke:none;fill-rule:nonzero;fill:rgb(18.431373%,18.823529%,18.431373%);fill-opacity:1;" d="M448.97194348217783,103.82444304529469 L438.9370848073935,103.82444304529469 C439.1491977367531,107.48820805549649 440.8730956034713,108.7184618610363 442.9093773558318,108.7184618610363 C444.714263454515,108.7184618610363 446.175911926444,107.59233535918518 446.4921531467804,105.60233372484826 L448.8408187847832,105.60233372484826 C448.29318289805764,108.95371386211954 445.65527244613605,110.44235874046633 442.80524906485493,110.44235874046633 C439.19933321489447,110.44235874046633 436.5074309374256,108.08983675505752 436.5074309374256,103.19581892660402 C436.5074309374256,98.69902956316383 439.3034615058714,95.84514983447677 443.0944938787737,95.84514983447677 C446.9086653233996,95.84514983447677 449.02593530772515,98.69902956316383 449.02593530772515,102.75231034356709 C449.02593530772515,102.96056593823265 449.02593530772515,103.32694263671046 448.97194348217783,103.82444304529469 zM438.96408121381126,102.09668883117062 L446.7505452068755,102.09668883117062 C446.5422886249218,99.21967003075986 445.3158921540761,97.57290404860083 443.0405010659382,97.57290404860083 C440.8460991970535,97.57290404860083 439.22632962131223,99.14253814620076 438.96408121381126,102.09668883117062 zM438.96408121381126,102.09668883117062 " stroke-width="0" id="svg_33"/>
<path style=" stroke:none;fill-rule:nonzero;fill:rgb(18.431373%,18.823529%,18.431373%);fill-opacity:1;" d="M485.7329996630497,100.84329595390712 C485.7329996630497,106.1538259589798 482.6477242806854,109.45121427070377 478.4671761375816,109.97185473829981 C477.55316256509,110.07598302927663 477.1327940410649,110.07598302927663 476.16864597772013,110.07598302927663 L470.8118368419119,110.07598302927663 L470.8118368419119,92.02712204244489 L476.2997696878265,92.02712204244489 C477.26777508586537,92.02712204244489 477.68428726248453,92.02712204244489 478.59829984768794,92.13124934613357 C482.77884799079175,92.65188981372961 485.7329996630497,95.45177771686936 485.7329996630497,100.84329595390712 zM483.27634938666404,100.84329595390712 C483.27634938666404,96.84015163893334 481.42132682255135,94.48377231883052 478.36304784660473,93.98627092295816 C477.78841555346145,93.88214361926944 477.10965496934125,93.85514721285173 476.16864597772013,93.85514721285173 L473.06023053634385,93.85514721285173 L473.06023053634385,108.24410052417575 L476.0375212803255,108.24410052417575 C476.9785302719466,108.24410052417575 477.6572908560668,108.22096046516394 478.2319231492102,108.1129758267812 C481.29020311244506,107.6193317656029 483.27634938666404,105.1048323289759 483.27634938666404,100.84329595390712 zM483.27634938666404,100.84329595390712 " stroke-width="0" id="svg_34"/>
<path style=" stroke:none;fill-rule:nonzero;fill:rgb(18.431373%,18.823529%,18.431373%);fill-opacity:1;" d="M498.35177597692007,93.09925474417246 C498.35177597692007,93.90914002568715 497.7231508709413,94.53776414437783 496.9132665767149,94.53776414437783 C496.1033812952,94.53776414437783 495.47475618922135,93.90914002568715 495.47475618922135,93.09925474417246 C495.47475618922135,92.2855131152518 496.1033812952,91.66074534396708 496.9132665767149,91.66074534396708 C497.7231508709413,91.66074534396708 498.35177597692007,92.2855131152518 498.35177597692007,93.09925474417246 zM495.7909974095577,110.07598302927663 L495.7909974095577,96.21152653295458 L498.03939110398954,96.21152653295458 L498.03939110398954,110.07598302927663 zM495.7909974095577,110.07598302927663 " stroke-width="0" id="svg_35"/>
<path style=" stroke:none;fill-rule:nonzero;fill:rgb(18.431373%,18.823529%,18.431373%);fill-opacity:1;" d="M521.2445193140641,106.67832277398173 C521.2445193140641,107.53834353363786 521.2445193140641,108.61433357005949 521.2175229076463,109.37022603873876 C521.0863982102517,113.42736316654793 518.6297479338662,115.5716295572912 514.6304599662983,115.5716295572912 C510.6851638242778,115.5716295572912 508.7260139564764,113.92486357513218 508.43676914255764,110.99385196188598 L508.40977372342803,110.73160355438503 L510.6851638242778,110.73160355438503 L510.7083038832896,110.96685555546827 C510.89342040623137,112.66761435046274 512.2509415744718,113.84387534316713 514.6304599662983,113.84387534316713 C517.3763550566026,113.84387534316713 518.8649999349493,112.27424124556721 518.9691282259263,109.605478039822 C518.9961246323439,108.95371386211954 518.9961246323439,108.50634893167671 518.9961246323439,108.08983675505752 L518.9961246323439,107.85458475397427 L517.950987349746,109.34708597972697 C517.164242127243,109.9988501574294 515.7025936553141,110.44621607516036 514.2910796742382,110.44621607516036 C510.24165622852905,110.44621607516036 507.99326154680887,107.41107617093736 507.99326154680887,103.35393904312816 C507.99326154680887,98.22852556099734 511.18266423286195,95.84514983447677 514.7615836764047,95.84514983447677 C515.9108492499795,95.84514983447677 517.3763550566026,96.18453012653687 518.0821120471404,96.76301876708611 L518.9961246323439,98.12053993532646 L518.9961246323439,96.21152653295458 L521.2445193140641,96.21152653295458 zM518.9961246323439,103.27680715856907 L518.9961246323439,102.51705834248385 C518.9961246323439,98.9342815642471 516.7477299506239,97.57290404860083 514.7615836764047,97.57290404860083 C512.3319298064368,97.57290404860083 510.44991182319455,99.45492203184311 510.44991182319455,103.09169063562719 C510.44991182319455,106.23095784353892 511.86142481698215,108.7184618610363 514.6304599662983,108.7184618610363 C516.9289901261598,108.7184618610363 518.9961246323439,107.2529550671251 518.9961246323439,103.27680715856907 zM518.9961246323439,103.27680715856907 " stroke-width="0" id="svg_36"/>
<path style=" stroke:none;fill-rule:nonzero;fill:rgb(18.431373%,18.823529%,18.431373%);fill-opacity:1;" d="M534.9084319232442,93.09925474417246 C534.9084319232442,93.90914002568715 534.2798078045536,94.53776414437783 533.4699225230389,94.53776414437783 C532.6600382288123,94.53776414437783 532.0314131228334,93.90914002568715 532.0314131228334,93.09925474417246 C532.0314131228334,92.2855131152518 532.6600382288123,91.66074534396708 533.4699225230389,91.66074534396708 C534.2798078045536,91.66074534396708 534.9084319232442,92.2855131152518 534.9084319232442,93.09925474417246 zM532.3437970084759,110.07598302927663 L532.3437970084759,96.21152653295458 L534.5921916901959,96.21152653295458 L534.5921916901959,110.07598302927663 zM532.3437970084759,110.07598302927663 " stroke-width="0" id="svg_37"/>
<path style=" stroke:none;fill-rule:nonzero;fill:rgb(18.431373%,18.823529%,18.431373%);fill-opacity:1;" d="M548.3910853441768,106.02270224887336 C548.3910853441768,106.49320625103988 548.3910853441768,106.72845825212315 548.4142254031885,107.09483495060095 C548.5183536941653,108.4292170471176 549.0698459282968,108.7184618610363 550.8207402014327,108.50634893167671 L550.8207402014327,110.15697126124167 C550.1651196763245,110.26109955221851 549.5403509177514,110.2880949713481 548.9117258117728,110.2880949713481 C547.1878279450546,110.2880949713481 546.3008117662689,109.58233896809834 546.1696870688743,107.85458475397427 C546.1426916497447,107.48820805549649 546.1426916497447,106.90971842765907 546.1426916497447,106.1268305398502 L546.1426916497447,98.04340903805546 L544.2876690856319,98.04340903805546 L544.2876690856319,96.3156548239314 L546.1426916497447,96.3156548239314 L546.1426916497447,93.09925474417246 L548.3910853441768,93.09925474417246 L548.3910853441768,96.3156548239314 L550.975003970551,96.3156548239314 L550.975003970551,98.04340903805546 L548.3910853441768,98.04340903805546 zM548.3910853441768,106.02270224887336 " stroke-width="0" id="svg_38"/>
<path style=" stroke:none;fill-rule:nonzero;fill:rgb(18.431373%,18.823529%,18.431373%);fill-opacity:1;" d="M568.7191937665523,108.08983675505752 L567.959444950467,109.58233896809834 C567.0184359588459,110.2341031458008 565.8190349071298,110.44235874046633 564.484653797901,110.44235874046633 C561.97401070868,110.44235874046633 560.0148608408787,109.05784215309639 560.0148608408787,106.49320625103988 C560.0148608408787,103.35393904312816 562.3673828262874,101.73031213269282 567.8051811813488,101.73031213269282 L568.6921973601345,101.73031213269282 L568.6921973601345,101.36393642150311 C568.6921973601345,100.76230772194207 568.6921973601345,100.21467084792833 568.6382055345872,99.69017403292638 C568.5340772436103,98.40978474924516 567.8051811813488,97.57290404860083 565.9463022698302,97.57290404860083 C564.0681416212819,97.57290404860083 563.1271326296608,98.59104492478107 562.9690125131367,100.50391566184702 L560.6164895404397,100.50391566184702 C560.8247451351052,97.54590764218312 562.8918796412894,95.84514983447677 565.9463022698302,95.84514983447677 C569.2398342341482,95.84514983447677 570.6243518088063,97.23352375654075 570.8596038098896,99.50891385739044 C570.9135956354369,100.05655073140419 570.9405920418546,100.73916766293027 570.9405920418546,101.34079636249135 L570.9405920418546,106.54719906387534 C570.9405920418546,107.59233535918518 570.9907285072842,108.53334533809445 571.1989841019497,110.07598302927663 L568.9544467549237,110.07598302927663 zM568.6921973601345,104.81944484975125 L568.6921973601345,103.40793086867549 C564.8780259155086,103.1186860547568 562.4715111172644,103.9285713362715 562.4715111172644,106.31194706279206 C562.4715111172644,107.9857084640807 563.54364480628,108.7184618610363 565.2405462665804,108.7184618610363 C567.3346761918941,108.7184618610363 568.6921973601345,107.33008793897233 568.6921973601345,104.81944484975125 zM568.6921973601345,104.81944484975125 " stroke-width="0" id="svg_39"/>
<path style=" stroke:none;fill-rule:nonzero;fill:rgb(18.431373%,18.823529%,18.431373%);fill-opacity:1;" d="M584.1609970552861,106.0998341334325 C584.1609970552861,106.5202026574576 584.1609970552861,106.96371124049452 584.1879934617037,107.4072188362433 C584.2381289398452,108.29809234972308 584.6584984511585,108.58733716364175 585.8848949220043,108.45621246624722 L585.8848949220043,110.07598302927663 C585.3873945134198,110.15697126124167 584.8127622202767,110.18396668037128 584.2921217526806,110.18396668037128 C582.9847360625816,110.18396668037128 582.0167306645428,109.76359815634615 581.9395987799837,108.01270487049841 C581.9126033608541,107.54219988104377 581.9126033608541,106.94057118148272 581.9126033608541,106.1808223653975 L581.9126033608541,90.85086006245236 L584.1609970552861,90.85086006245236 zM584.1609970552861,106.0998341334325 " stroke-width="0" id="svg_40"/>
<path style=" stroke:none;fill-rule:nonzero;fill:rgb(18.431373%,18.823529%,18.431373%);fill-opacity:1;" d="M619.2752882412871,110.07598302927663 L607.2812796987014,110.07598302927663 L607.2812796987014,92.02712204244489 L619.0130388464978,92.02712204244489 L619.0130388464978,93.85514721285173 L609.5258180330155,93.85514721285173 L609.5258180330155,100.13753896336922 L618.230150958689,100.13753896336922 L618.230150958689,101.9694214684701 L609.5258180330155,101.9694214684701 L609.5258180330155,108.24795687158166 L619.2752882412871,108.24795687158166 zM619.2752882412871,110.07598302927663 " stroke-width="0" id="svg_41"/>
<path style=" stroke:none;fill-rule:nonzero;fill:rgb(18.431373%,18.823529%,18.431373%);fill-opacity:1;" d="M640.2821562604945,100.86643502563079 L637.9296342750857,100.86643502563079 C637.4321328792133,98.6450367503284 636.2327328147853,97.57290404860083 634.3777102506726,97.57290404860083 C632.2064484407998,97.57290404860083 630.3784222831049,99.27366185630719 630.3784222831049,103.01455875106808 C630.3784222831049,107.04084312505363 632.1563119753702,108.7184618610363 634.2195901341486,108.7184618610363 C636.0476162918435,108.7184618610363 637.3280055755247,107.66946823103241 637.7985095776912,105.65632555039556 L640.1510325503881,105.65632555039556 C639.4722719662678,108.87272563015453 637.1737418064065,110.44235874046633 634.088466424042,110.44235874046633 C630.5866788650585,110.44235874046633 627.9217720067193,108.24795687158166 627.9217720067193,103.17267886759223 C627.9217720067193,98.48691663380426 630.9530545762481,95.84514983447677 634.4278467161022,95.84514983447677 C637.7483740995499,95.84514983447677 639.8656440838754,97.8351524561018 640.2821562604945,100.86643502563079 zM640.2821562604945,100.86643502563079 " stroke-width="0" id="svg_42"/>
<path style=" stroke:none;fill-rule:nonzero;fill:rgb(18.431373%,18.823529%,18.431373%);fill-opacity:1;" d="M662.623407363507,103.1456824611745 C662.623407363507,107.04084312505363 660.4560009137518,110.44235874046633 655.7509559556462,110.44235874046633 C651.0459109975404,110.44235874046633 648.8785045477854,107.04084312505363 648.8785045477854,103.1456824611745 C648.8785045477854,99.21967003075986 651.0459109975404,95.84514983447677 655.7509559556462,95.84514983447677 C660.4560009137518,95.84514983447677 662.623407363507,99.21967003075986 662.623407363507,103.1456824611745 zM660.1667560998332,103.1456824611745 C660.1667560998332,99.87529055586823 658.5469865240918,97.57290404860083 655.7509559556462,97.57290404860083 C652.9549253872004,97.57290404860083 651.3351558114591,99.87529055586823 651.3351558114591,103.1456824611745 C651.3351558114591,106.38907796006306 652.9549253872004,108.7184618610363 655.7509559556462,108.7184618610363 C658.5469865240918,108.7184618610363 660.1667560998332,106.38907796006306 660.1667560998332,103.1456824611745 zM660.1667560998332,103.1456824611745 " stroke-width="0" id="svg_43"/>
<path style=" stroke:none;fill-rule:nonzero;fill:rgb(18.431373%,18.823529%,18.431373%);fill-opacity:1;" d="M684.181768604134,102.28180535411248 L684.181768604134,110.07598302927663 L681.933373922414,110.07598302927663 L681.933373922414,102.43992547063662 C681.933373922414,101.73031213269282 681.933373922414,101.15567983954946 681.8793820968666,100.4499238362997 C681.7482573994722,98.82629692586436 680.8612412206863,97.62303952674223 678.720831177349,97.62303952674223 C676.5495683801881,97.62303952674223 674.7215432097812,99.24666643717758 674.7215432097812,103.98256316181883 L674.7215432097812,110.07598302927663 L672.4731485280612,110.07598302927663 L672.4731485280612,96.21152653295458 L674.7215432097812,96.21152653295458 L674.7215432097812,98.59104492478107 L675.5815639694374,96.99441540805157 C676.7578249621417,96.08040183556002 677.775965838322,95.84514983447677 679.1874788321097,95.84514983447677 C682.2187623889267,95.84514983447677 683.9195201966331,97.468775757624 684.1277767785868,99.89843061488004 C684.181768604134,100.60804395282383 684.181768604134,101.15567983954946 684.181768604134,102.28180535411248 zM684.181768604134,102.28180535411248 " stroke-width="0" id="svg_44"/>
<path style=" stroke:none;fill-rule:nonzero;fill:rgb(18.431373%,18.823529%,18.431373%);fill-opacity:1;" d="M707.6992806998509,103.1456824611745 C707.6992806998509,107.04084312505363 705.5280179026898,110.44235874046633 700.8229729445841,110.44235874046633 C696.1217843338843,110.44235874046633 693.9505215367234,107.04084312505363 693.9505215367234,103.1456824611745 C693.9505215367234,99.21967003075986 696.1217843338843,95.84514983447677 700.8229729445841,95.84514983447677 C705.5280179026898,95.84514983447677 707.6992806998509,99.21967003075986 707.6992806998509,103.1456824611745 zM705.2387730887712,103.1456824611745 C705.2387730887712,99.87529055586823 703.6190035130298,97.57290404860083 700.8229729445841,97.57290404860083 C698.0269413888502,97.57290404860083 696.4071728003971,99.87529055586823 696.4071728003971,103.1456824611745 C696.4071728003971,106.38907796006306 698.0269413888502,108.7184618610363 700.8229729445841,108.7184618610363 C703.6190035130298,108.7184618610363 705.2387730887712,106.38907796006306 705.2387730887712,103.1456824611745 zM705.2387730887712,103.1456824611745 " stroke-width="0" id="svg_45"/>
<path style=" stroke:none;fill-rule:nonzero;fill:rgb(18.431373%,18.823529%,18.431373%);fill-opacity:1;" d="M736.099239607227,101.6030447699923 L736.099239607227,110.07598302927663 L733.854702260201,110.07598302927663 L733.854702260201,102.64818205259027 C733.854702260201,101.41792824705044 733.8277058537833,100.65817943096523 733.7505739692242,99.95242244042734 C733.5384610398645,98.38278933011554 732.5473165701021,97.62303952674223 730.977682472502,97.62303952674223 C729.2267891866544,97.62303952674223 727.9463999029731,99.01141344880621 727.9463999029731,103.22281434573361 L727.9463999029731,110.07598302927663 L725.701861568659,110.07598302927663 L725.701861568659,102.64818205259027 C725.701861568659,101.41792824705044 725.6748661495294,100.65817943096523 725.5938779175644,99.95242244042734 C725.3856213356107,98.38278933011554 724.3944768658482,97.62303952674223 722.8248427682482,97.62303952674223 C721.0739484951123,97.62303952674223 719.7935601987193,99.01141344880621 719.7935601987193,103.22281434573361 L719.7935601987193,110.07598302927663 L717.5490218644052,110.07598302927663 L717.5490218644052,96.21152653295458 L719.7935601987193,96.21152653295458 L719.7935601987193,98.22466822630328 L720.684432724911,96.65503511599148 C721.3901897154489,96.08040183556002 722.3813341852114,95.84514983447677 723.6115879907512,95.84514983447677 C725.7250016276707,95.84514983447677 727.0863791433171,96.91728253620434 727.6070196109131,98.43678115566287 L728.8372734164528,96.65503511599148 C729.5430304069909,96.08040183556002 730.5341748767534,95.84514983447677 731.7644286822932,95.84514983447677 C734.2480743778084,95.84514983447677 735.6557320114782,97.31065564109986 735.9719722445266,99.21967003075986 C736.0761005355034,99.92542702129775 736.099239607227,100.47691925542931 736.099239607227,101.6030447699923 zM736.099239607227,101.6030447699923 " stroke-width="0" id="svg_46"/>
<path style=" stroke:none;fill-rule:nonzero;fill:rgb(18.431373%,18.823529%,18.431373%);fill-opacity:1;" d="M752.6401729913943,111.25610036938697 C751.5140474768313,114.18325563522723 750.0254016111965,115.5716295572912 747.7770079167644,115.5716295572912 C747.2795065208921,115.5716295572912 746.9671226352497,115.5716295572912 746.6277423431897,115.51763674445579 L746.6277423431897,113.68961157404891 C746.9671226352497,113.71275064577259 747.2023746363329,113.71275064577259 747.4376276247044,113.71275064577259 C748.8221442120742,113.71275064577259 749.7361567972777,113.11112194621154 750.4419137878156,111.27924042839875 L750.6270303107575,110.78559636722045 L745.1121010584251,96.21152653295458 L747.6458832193699,96.21152653295458 L751.7762958843323,108.4022206406999 L755.8797121428769,96.21152653295458 L758.3363624192625,96.21152653295458 zM752.6401729913943,111.25610036938697 " stroke-width="0" id="svg_47"/>
</g></g></g></svg>