<svg xmlns="http://www.w3.org/2000/svg" width="110" height="45" viewBox="0 0 110 45">
    <g fill="none" fill-rule="evenodd" transform="translate(1.27 1.593)">
        <polygon fill="#FFFFFF" fill-rule="nonzero" stroke="#000000" stroke-width=".5" points="41.283 41.373 .131 41.387 .117 .109 41.269 .095"/>
        <path fill="#A4A1A1" fill-rule="nonzero" d="M0.372195122,41.1027015 C0.485059846,41.1016348 0.59755533,41.1003015 0.710420054,41.1003015 C14.0266113,41.0955015 27.3424334,41.0904348 40.6588708,41.0852348 C40.780105,41.0851015 40.9012161,41.0771015 41.0226965,41.0724348 L41.0354968,41.1443015 C27.5596703,41.1492348 14.082736,41.1541682 0.606540199,41.1553682 C0.530353433,41.1552348 0.429919828,41.2207015 0.372195122,41.1027015"/>
        <path fill="#8E8A8B" fill-rule="nonzero" d="M106.846462,36.728642 L106.795261,36.7296296 C106.706274,36.6301235 106.710951,36.5050617 106.710582,36.3839506 C106.708489,34.9402469 106.707012,33.4974074 106.709228,32.0540741 C106.70972,31.9420988 106.701104,31.825679 106.781968,31.7307407 L106.844739,31.7151852 C106.844862,33.3865432 106.846093,35.0577778 106.846462,36.728642"/>
        <path fill="#000000" d="M106.781722 31.7308642C106.785414 31.8434568 106.792307 31.9561728 106.791938 32.068642 106.793538 33.6224691 106.794645 35.1760494 106.795261 36.7293827 106.702458 36.7632099 106.606086 36.747037 106.511807 36.7465432 101.704902 36.7495062 96.8988584 36.7507407 92.0920766 36.7522222L91.9881967 36.7522222C91.7625903 36.75 91.7628365 36.7495062 91.7601287 36.5232099L91.7603749 36.4195062C91.7566825 26.062963 91.7531131 15.7074074 91.7508977 5.35111111 91.7507746 4.97950617 91.69465 5.02012346 92.0812455 5.01975309 93.6345201 5.01790123 95.1875486 5.01814815 96.7404539 5.01758112 96.8098713 5.01758112 96.8787963 5.01975309 96.9484598 5.01758112 97.026862 5.01567901 97.0550474 5.0537037 97.052832 5.12888889 97.0495088 5.20728395 97.0523397 5.28530864 97.0522166 5.36382716 97.0551705 14.0404938 97.0583706 22.7167901 97.0610784 31.392716 97.0612014 31.7269136 97.0609553 31.7274074 97.3862568 31.727284 100.42265 31.7262963 103.459167 31.7249383 106.495806 31.7241975 106.590824 31.7245679 106.686335 31.728642 106.781722 31.7308642M59.317736 20.8425926C59.316136 15.6553086 59.3141667 10.4676543 59.3133051 5.28074074 59.3129359 4.89901235 59.2717039 4.94925926 59.6458683 4.94851852 61.2424673 4.94654321 62.8386969 4.94716049 64.4354189 4.94592593 64.4957283 4.9462963 64.5575147 4.9491358 64.6175779 4.9454321 64.7134575 4.94012346 64.7655206 4.97432099 64.7592435 5.07888889 64.7553049 5.13901235 64.758628 5.20061728 64.7587511 5.26148148 64.7621974 15.6441975 64.7657667 26.0281481 64.7685976 36.4111111 64.7684745 36.7667901 64.8142604 36.7308642 64.4504347 36.7309877 62.854082 36.7325926 61.2576061 36.7333333 59.660638 36.7322222 59.282535 36.7319753 59.3237669 36.7792593 59.3231515 36.4045679 59.320813 31.2174074 59.319336 26.03 59.317736 20.8425926M82.2473679 22.7433333C82.2249673 23.742716 82.1646579 24.7419753 82.0541317 25.7360494 81.9054505 27.0667901 81.7044603 28.3879012 81.2308469 29.6503704 81.0351491 30.172963 80.7889883 30.6701235 80.439563 31.1081481 80.0042276 31.6548148 79.4675971 32.041358 78.761731 32.1574074 77.8225045 32.3119753 77.0139894 32.0606173 76.3454167 31.3788889 75.9190662 30.9446914 75.6295811 30.4216049 75.3996669 29.8645679 75.0664883 29.0580247 74.8653749 28.2153086 74.7174322 27.3582716 74.4230239 25.648642 74.3147132 23.9237037 74.2881278 22.191358 74.2811122 21.7483951 74.2861585 21.3050617 74.2860355 20.8616049 74.2779121 19.5046914 74.2966204 18.1477778 74.412439 16.7958025 74.5331809 15.3832099 74.7066012 13.978642 75.1282746 12.6180247 75.3425576 11.9260494 75.6176423 11.2625926 76.0622087 10.6833333 76.4577891 10.1671605 76.9430951 9.77716049 77.5896364 9.62283951 78.6112037 9.37938272 79.4923363 9.63308642 80.2219569 10.3875309 80.6885547 10.8696296 80.9864092 11.4582716 81.2228467 12.0793827 81.5615639 12.9682716 81.7588618 13.8930864 81.8986811 14.8308642 82.2901999 17.4555556 82.3066926 20.0985185 82.2473679 22.7433333M87.5792107 21.2324691C87.5755183 19.1625926 87.4945314 17.4523457 87.2702789 15.75 87.1107667 14.5337037 86.8804833 13.332716 86.5313042 12.1559259 86.1260005 10.7917284 85.5784158 9.49283951 84.7559925 8.32271605 83.9988019 7.24493827 83.0592062 6.37506173 81.8686495 5.79432099 80.9061608 5.3245679 79.8852089 5.08691358 78.8177326 5.03716049 77.9745088 4.99790123 77.1375621 5.03753086 76.3100926 5.22209877 74.5181651 5.62234568 73.091171 6.58654321 71.9845551 8.04358025 71.1673013 9.11925926 70.6040854 10.3259259 70.1801965 11.6033333 69.4824537 13.7054321 69.1881685 15.8793827 69.0447798 18.0801235 68.9753625 19.1476543 68.9667468 20.2175309 68.9719162 21.2876543 68.9800395 22.7855556 69.0599187 24.2776543 69.2422008 25.7648148 69.3976513 27.0346914 69.6284271 28.2888889 69.9846217 29.5182716 70.3605093 30.8169136 70.8667389 32.06 71.6113753 33.1940741 72.4449989 34.462716 73.5090289 35.4728395 74.9075915 36.0941975 75.8031244 36.4918519 76.7446895 36.695679 77.7234248 36.7419753 78.6460355 36.7854321 79.559292 36.7319753 80.4565481 36.5024691 82.1903817 36.0612346 83.5573126 35.0796296 84.6170348 33.6490123 85.4846285 32.4769136 86.0591678 31.1618519 86.4836721 29.7750617 87.0494727 27.9295062 87.322465 26.0309877 87.4658537 24.1114815 87.5453636 23.0351852 87.5869648 21.9571605 87.5792107 21.2324691M25.777343 20.6151852C25.8253444 20.7423457 25.7929743 20.872963 25.7927281 21.0017284 25.7960513 24.1680247 25.7964205 27.334321 25.7978975 30.5007407 25.7978975 30.807037 25.7978975 30.807037 25.5007814 30.807284 22.3089374 30.8079012 19.1174627 30.8088889 15.9262342 30.8103704L15.8217389 30.8102469C15.6225949 30.811358 15.6235795 30.827037 15.6232103 30.6132099 15.6223487 27.3076543 15.6205025 24.0017284 15.6191486 20.6959259L15.6315797 20.6193827C15.7295517 20.5244444 15.8558322 20.5379012 15.9753433 20.5379012 19.127063 20.5346914 22.2792751 20.5333333 25.431364 20.5341975 25.5518598 20.534321 25.6758017 20.5296296 25.777343 20.6151852"/>
        <path fill="#B41400" fill-rule="nonzero" d="M25.777343,20.6151852 L15.6315797,20.6193827 C15.627395,20.5328395 15.6205025,20.4462963 15.6203794,20.3596296 C15.618287,17.1923457 15.6176716,14.0254321 15.6164408,10.858642 L15.6158254,10.7282716 C15.5977326,10.5866667 15.665673,10.5412346 15.7960151,10.5553086 L15.9262342,10.5560494 C19.1093394,10.5553086 22.2923216,10.5534568 25.4761653,10.5532099 C25.8077439,10.5539506 25.7878049,10.5065432 25.7876818,10.8545679 C25.7886664,14.0218519 25.7902665,17.1888889 25.7905126,20.3555556 C25.7903896,20.4425926 25.7817739,20.5291358 25.777343,20.6151852"/>
    </g>
</svg>
