<?xml version="1.0" encoding="utf-8"?>
<!-- Generator: Adobe Illustrator 22.1.0, SVG Export Plug-In . SVG Version: 6.00 Build 0)  -->
<svg version="1.1" id="레이어_1" xmlns="http://www.w3.org/2000/svg" xmlns:xlink="http://www.w3.org/1999/xlink" x="0px"
	 y="0px" width="340px" height="45px" viewBox="0 0 340 45" style="enable-background:new 0 0 340 45;" xml:space="preserve">
<style type="text/css">
	.st0{fill:#008FC3;}
	.st1{fill:#C1731F;}
	.st2{fill:#007D95;}
	.st3{fill:#C0C1BE;}
	.st4{fill:#FFFFFF;}
</style>
<g>
	<g>
		<path class="st0" d="M78.1,13.3h-9V8.4c8.2,0,15.1,0,23.3,0v4.9h-9v23.5h-5.3V13.3z"/>
		<path class="st0" d="M123.1,22.8c-0.1,7.3-4.6,14.7-14.5,14.7c-10,0-14.6-7.2-14.6-14.6c0-7.4,4.8-14.9,14.6-14.9
			C118.3,7.9,123.2,15.4,123.1,22.8z M99.3,22.9c0.1,4.7,2.6,9.6,9.3,9.6c6.7,0,9.2-5,9.3-9.7c0.1-4.8-2.6-10.1-9.3-10.1
			C101.9,12.7,99.1,18.1,99.3,22.9z"/>
		<path class="st0" d="M149.3,8.6l-12.6,13.6l13.6,14.3v0.3h-6.6l-11.9-12.5v12.5h-5.3V8.4h5.3v12l10.8-12h6.6V8.6z"/>
		<path class="st0" d="M173.8,36.8h-21.2c0-9.4,0-18.9,0-28.3h21.2v5.2h-15.9v6.5h15.3v5h-15.3v6.4h15.9V36.8z"/>
		<path class="st0" d="M197,8.4h5.3v28.4H199v0l-14.9-19.1v19.1h-5.3V8.4h4.3L197,26V8.4z"/>
		<path class="st0" d="M220.1,28.4h-8v8.3h-5.3V8.4c4.4,0,8.9,0,13.4,0C234,8.4,234,28.4,220.1,28.4z M212.1,23.5h8
			c6.8,0,6.8-10,0-10h-8V23.5z"/>
		<path class="st0" d="M261.6,22.8c-0.1,7.3-4.6,14.7-14.5,14.7c-10,0-14.6-7.2-14.6-14.6c0-7.4,4.8-14.9,14.6-14.9
			C256.8,7.9,261.6,15.4,261.6,22.8z M237.7,22.9c0.1,4.7,2.6,9.6,9.3,9.6c6.7,0,9.2-5,9.3-9.7c0.1-4.8-2.6-10.1-9.3-10.1
			C240.4,12.7,237.6,18.1,237.7,22.9z"/>
		<path class="st0" d="M283.4,15.3c-1-1.6-3.6-3.2-6.7-3.2c-4,0-5.9,1.7-5.9,3.8c0,2.5,2.9,3.2,6.3,3.6c5.9,0.7,11.4,2.3,11.4,9
			c0,6.3-5.6,9-11.9,9c-5.8,0-10.2-1.8-12.3-7l4.4-2.3c1.3,3.1,4.5,4.5,8,4.5c3.4,0,6.5-1.2,6.5-4.2c0-2.7-2.8-3.8-6.6-4.2
			c-5.8-0.7-11.1-2.2-11.1-8.6c0-5.8,5.7-8.2,11-8.3c4.4,0,9,1.3,11.1,5.6L283.4,15.3z"/>
		<path class="st0" d="M299.5,13.3h-9V8.4c8.2,0,15.1,0,23.3,0v4.9h-9v23.5h-5.3V13.3z"/>
	</g>
	<g>
		<circle class="st1" cx="41" cy="22.5" r="21.8"/>
		<g>
			<path class="st2" d="M24.5,13.6L21.9,12c-0.4,0.8-0.8,1.6-1.2,2.5l2.9,1C23.9,14.9,24.2,14.2,24.5,13.6z"/>
			<path class="st2" d="M34.1,5l-1-2.9c-0.9,0.3-1.7,0.7-2.5,1.2L32.1,6C32.8,5.6,33.4,5.3,34.1,5z"/>
			<path class="st2" d="M26.3,10.8l-2.3-2c-0.6,0.7-1.1,1.5-1.6,2.2l2.6,1.5C25.4,12,25.9,11.4,26.3,10.8z"/>
			<path class="st2" d="M31.2,6.5l-1.5-2.6c-0.8,0.5-1.5,1-2.2,1.6l2,2.3C30,7.3,30.6,6.9,31.2,6.5z"/>
			<path class="st2" d="M22.5,19.8l-3-0.5c-0.1,0.9-0.2,1.8-0.2,2.7h3C22.3,21.2,22.4,20.5,22.5,19.8z"/>
			<path class="st2" d="M23.2,16.6l-2.9-1c-0.3,0.9-0.5,1.7-0.7,2.6l3,0.5C22.8,18,23,17.3,23.2,16.6z"/>
			<path class="st2" d="M27,35l-2.3,2c0.6,0.7,1.2,1.3,1.9,1.9l2-2.3C28,36,27.5,35.5,27,35z"/>
			<path class="st2" d="M29.4,37.2l-2,2.3c0.7,0.6,1.5,1.1,2.2,1.6l1.5-2.6C30.6,38.1,30,37.7,29.4,37.2z"/>
			<path class="st2" d="M22.6,26.3l-3,0.5c0.2,0.9,0.4,1.8,0.7,2.6l2.9-1C23,27.7,22.8,27,22.6,26.3z"/>
			<path class="st2" d="M23.6,29.4l-2.9,1c0.3,0.9,0.7,1.7,1.2,2.5l2.6-1.5C24.2,30.8,23.9,30.1,23.6,29.4z"/>
			<path class="st2" d="M22.3,23h-3c0,0.9,0.1,1.8,0.2,2.7l3-0.5C22.4,24.5,22.3,23.8,22.3,23z"/>
			<path class="st2" d="M25.1,32.3l-2.6,1.5c0.5,0.8,1,1.5,1.6,2.2l2.3-2C25.9,33.6,25.4,33,25.1,32.3z"/>
			<path class="st2" d="M55.1,10l2.3-2c-0.6-0.7-1.2-1.3-1.9-1.9l-2,2.3C54,8.9,54.6,9.5,55.1,10z"/>
			<path class="st2" d="M58.5,15.6l2.9-1c-0.3-0.9-0.7-1.7-1.2-2.5l-2.6,1.5C57.9,14.2,58.2,14.9,58.5,15.6z"/>
			<path class="st2" d="M57,12.6l2.6-1.5c-0.5-0.8-1-1.5-1.6-2.2l-2.3,2C56.2,11.4,56.6,12,57,12.6z"/>
			<path class="st2" d="M59.8,21.9h3c0-0.9-0.1-1.8-0.2-2.7l-3,0.5C59.7,20.5,59.8,21.2,59.8,21.9z"/>
			<path class="st2" d="M59.4,18.7l3-0.5c-0.2-0.9-0.4-1.8-0.7-2.6l-2.9,1C59.1,17.3,59.3,18,59.4,18.7z"/>
			<path class="st2" d="M43.8,3.9l0.5-3c-0.9-0.1-1.8-0.2-2.7-0.2v3C42.3,3.8,43,3.8,43.8,3.9z"/>
			<path class="st2" d="M37.2,4.1l-0.5-3c-0.9,0.2-1.8,0.4-2.6,0.7l1,2.9C35.8,4.4,36.5,4.2,37.2,4.1z"/>
			<path class="st2" d="M52.7,7.8l2-2.3c-0.7-0.6-1.5-1.1-2.2-1.6l-1.5,2.6C51.5,6.9,52.1,7.3,52.7,7.8z"/>
			<path class="st2" d="M40.5,3.7v-3c-0.9,0-1.8,0.1-2.7,0.2l0.5,3C39,3.8,39.7,3.8,40.5,3.7z"/>
			<path class="st2" d="M46.9,4.7l1-2.9c-0.9-0.3-1.7-0.5-2.6-0.7l-0.5,3C45.5,4.2,46.2,4.4,46.9,4.7z"/>
			<path class="st2" d="M49.9,6l1.5-2.6c-0.8-0.4-1.6-0.8-2.5-1.2l-1,2.9C48.6,5.3,49.3,5.6,49.9,6z"/>
			<path class="st2" d="M28.6,8.5l-2-2.3c-0.7,0.6-1.3,1.2-1.9,1.9l2.3,2C27.5,9.5,28,8.9,28.6,8.5z"/>
			<path class="st2" d="M53.5,36.5l2,2.3c0.7-0.6,1.3-1.2,1.9-1.9l-2.3-2C54.6,35.5,54,36,53.5,36.5z"/>
			<path class="st2" d="M47.9,39.9l1,2.9c0.9-0.3,1.7-0.7,2.5-1.2L49.9,39C49.3,39.3,48.6,39.7,47.9,39.9z"/>
			<path class="st2" d="M38.3,41.1l-0.5,3c0.9,0.1,1.8,0.2,2.7,0.2v-3C39.7,41.2,39,41.2,38.3,41.1z"/>
			<path class="st2" d="M44.8,40.9l0.5,3c0.9-0.2,1.8-0.4,2.6-0.7l-1-2.9C46.2,40.5,45.5,40.7,44.8,40.9z"/>
			<path class="st2" d="M50.9,38.5l1.5,2.6c0.8-0.5,1.5-1,2.2-1.6l-2-2.3C52.1,37.7,51.5,38.1,50.9,38.5z"/>
			<path class="st2" d="M55.7,34.1l2.3,2c0.6-0.7,1.1-1.5,1.6-2.2L57,32.3C56.6,33,56.2,33.6,55.7,34.1z"/>
			<path class="st2" d="M58.8,28.4l2.9,1c0.3-0.9,0.5-1.7,0.7-2.6l-3-0.5C59.3,27,59.1,27.7,58.8,28.4z"/>
			<path class="st2" d="M59.8,23c0,0.7-0.1,1.5-0.2,2.2l3,0.5c0.1-0.9,0.2-1.8,0.2-2.7H59.8z"/>
			<path class="st2" d="M57.5,31.4l2.6,1.5c0.4-0.8,0.8-1.6,1.2-2.5l-2.9-1C58.2,30.1,57.9,30.8,57.5,31.4z"/>
			<path class="st2" d="M41.6,41.2v3c0.9,0,1.8-0.1,2.7-0.2l-0.5-3C43,41.2,42.3,41.2,41.6,41.2z"/>
			<path class="st2" d="M35.1,40.3l-1,2.9c0.9,0.3,1.7,0.5,2.6,0.7l0.5-3C36.5,40.7,35.8,40.5,35.1,40.3z"/>
			<path class="st2" d="M32.1,39l-1.5,2.6c0.8,0.4,1.6,0.8,2.5,1.2l1-2.9C33.4,39.7,32.8,39.3,32.1,39z"/>
		</g>
		<path class="st0" d="M62.8,23c0-0.2,0-0.4,0-0.5c0-0.2,0-0.4,0-0.5h-3c0-0.7-0.1-1.5-0.2-2.2l3-0.5c-0.1-0.4-0.1-0.7-0.2-1.1
			l-3,0.5c-0.1-0.7-0.3-1.4-0.6-2.1l2.9-1c-0.1-0.3-0.2-0.7-0.4-1l-2.9,1c-0.3-0.7-0.6-1.4-0.9-2l2.6-1.5c-0.2-0.3-0.4-0.6-0.5-0.9
			L57,12.6c-0.4-0.6-0.8-1.2-1.3-1.8l2.3-2c-0.2-0.3-0.5-0.6-0.7-0.8l-2.3,2c-0.5-0.5-1-1.1-1.6-1.6l2-2.3c-0.3-0.2-0.5-0.5-0.8-0.7
			l-2,2.3c-0.6-0.5-1.2-0.9-1.8-1.3l1.5-2.6c-0.3-0.2-0.6-0.4-0.9-0.5L49.9,6c-0.6-0.3-1.3-0.7-2-0.9l1-2.9c-0.3-0.1-0.7-0.3-1-0.4
			l-1,2.9c-0.7-0.2-1.4-0.4-2.1-0.6l0.5-3C45,1,44.6,1,44.3,0.9l-0.5,3c-0.7-0.1-1.4-0.2-2.2-0.2v-3c-0.2,0-0.4,0-0.5,0
			c-0.2,0-0.4,0-0.5,0v3c-0.7,0-1.5,0.1-2.2,0.2l-0.5-3C37.4,1,37.1,1,36.7,1.1l0.5,3c-0.7,0.1-1.4,0.3-2.1,0.6l-1-2.9
			c-0.3,0.1-0.7,0.2-1,0.4l1,2.9c-0.7,0.3-1.4,0.6-2,0.9l-1.5-2.6c-0.3,0.2-0.6,0.4-0.9,0.5l1.5,2.6c-0.6,0.4-1.2,0.8-1.8,1.3
			l-2-2.3c-0.3,0.2-0.6,0.5-0.8,0.7l2,2.3C28,8.9,27.5,9.5,27,10l-2.3-2c-0.2,0.3-0.5,0.5-0.7,0.8l2.3,2c-0.5,0.6-0.9,1.2-1.3,1.8
			l-2.6-1.5c-0.2,0.3-0.4,0.6-0.5,0.9l2.6,1.5c-0.3,0.6-0.7,1.3-0.9,2l-2.9-1c-0.1,0.3-0.3,0.7-0.4,1l2.9,1
			c-0.2,0.7-0.4,1.4-0.6,2.1l-3-0.5c-0.1,0.3-0.1,0.7-0.2,1.1l3,0.5c-0.1,0.7-0.2,1.4-0.2,2.2h-3c0,0.2,0,0.4,0,0.5
			c0,0.2,0,0.4,0,0.5h3c0,0.7,0.1,1.5,0.2,2.2l-3,0.5c0.1,0.4,0.1,0.7,0.2,1.1l3-0.5c0.1,0.7,0.3,1.4,0.6,2.1l-2.9,1
			c0.1,0.3,0.2,0.7,0.4,1l2.9-1c0.3,0.7,0.6,1.4,0.9,2l-2.6,1.5c0.2,0.3,0.4,0.6,0.5,0.9l2.6-1.5c0.4,0.6,0.8,1.2,1.3,1.8l-2.3,2
			c0.2,0.3,0.5,0.6,0.7,0.8l2.3-2c0.5,0.5,1,1.1,1.6,1.6l-2,2.3c0.3,0.2,0.5,0.5,0.8,0.7l2-2.3c0.6,0.5,1.2,0.9,1.8,1.3l-1.5,2.6
			c0.3,0.2,0.6,0.4,0.9,0.5l1.5-2.6c0.6,0.3,1.3,0.7,2,0.9l-1,2.9c0.3,0.1,0.7,0.3,1,0.4l1-2.9c0.7,0.2,1.4,0.4,2.1,0.6l-0.5,3
			c0.3,0.1,0.7,0.1,1.1,0.2l0.5-3c0.7,0.1,1.4,0.2,2.2,0.2v3c0.2,0,0.4,0,0.5,0c0.2,0,0.4,0,0.5,0v-3c0.7,0,1.5-0.1,2.2-0.2l0.5,3
			c0.4-0.1,0.7-0.1,1.1-0.2l-0.5-3c0.7-0.1,1.4-0.3,2.1-0.6l1,2.9c0.3-0.1,0.7-0.2,1-0.4l-1-2.9c0.7-0.3,1.4-0.6,2-0.9l1.5,2.6
			c0.3-0.2,0.6-0.4,0.9-0.5l-1.5-2.6c0.6-0.4,1.2-0.8,1.8-1.3l2,2.3c0.3-0.2,0.6-0.5,0.8-0.7l-2-2.3c0.5-0.5,1.1-1,1.6-1.6l2.3,2
			c0.2-0.3,0.5-0.5,0.7-0.8l-2.3-2c0.5-0.6,0.9-1.2,1.3-1.8l2.6,1.5c0.2-0.3,0.4-0.6,0.5-0.9l-2.6-1.5c0.3-0.6,0.7-1.3,0.9-2l2.9,1
			c0.1-0.3,0.3-0.7,0.4-1l-2.9-1c0.2-0.7,0.4-1.4,0.6-2.1l3,0.5c0.1-0.3,0.1-0.7,0.2-1.1l-3-0.5c0.1-0.7,0.2-1.4,0.2-2.2H62.8z"/>
		<path class="st3" d="M55.8,16.7c-1.2-1.9-2.9-2.5-4.6-2.5c1,2.5,0.7,5.5-4.6,7l-1.9,0.6l2.4,4.3C53.2,25.5,56.6,21,55.8,16.7z"/>
		<path class="st4" d="M33.7,31.4V15.9c0-0.6,0.6-0.8,1.4-0.5l3.6,1.5c0.7,0.3,1.4,1.1,1.4,1.7v15.5c0,0.6-0.6,0.8-1.4,0.5l-3.6-1.5
			C34.3,32.7,33.7,32,33.7,31.4z"/>
		<path class="st4" d="M41.3,27.5V12c0-0.6,0.6-0.8,1.4-0.5l3.6,1.5c0.7,0.3,1.4,1.1,1.4,1.7v15.5c0,0.6-0.6,0.8-1.4,0.5l-3.6-1.5
			C41.9,28.9,41.3,28.1,41.3,27.5z"/>
		<path class="st4" d="M47.3,15.5l-14.9,6.9c-0.6,0.3-1.6,0.1-2.3-0.4l-3.3-2.3c-0.7-0.5-0.8-1.1-0.2-1.3l14.9-6.9
			c0.6-0.3,1.6-0.1,2.3,0.4l3.3,2.3C47.7,14.7,47.8,15.3,47.3,15.5z"/>
		<path class="st4" d="M53.1,12.2c-1.4-1.1-2.9-1.7-4.4-1.9c-4.6-0.6-9.2,2.1-9.2,2.1l3,5.3l3.6-2.1c0,0,2.5-1.5,5.2-1.5
			c1.6,0,3.3,0.6,4.6,2.5C55.6,15.1,54.7,13.5,53.1,12.2z"/>
		<polygon class="st3" points="40.1,18.9 33.7,21.8 40.1,23.6 		"/>
	</g>
	<g>
		<g>
			<path class="st0" d="M324.2,34.7l-1.7-2.9h-1.2v2.9h-0.9v-6.8h2.1c1.4,0,2.4,0.5,2.4,1.9c0,1.1-0.6,1.7-1.5,1.9l1.8,3H324.2z
				 M321.3,31.1h1.1c1.1,0,1.7-0.4,1.7-1.3c0-0.9-0.6-1.2-1.7-1.2h-1.1V31.1z"/>
		</g>
		<path class="st0" d="M322.3,36.8c-3,0-5.5-2.5-5.5-5.5s2.5-5.5,5.5-5.5c3,0,5.5,2.5,5.5,5.5S325.4,36.8,322.3,36.8z M322.3,26.5
			c-2.6,0-4.7,2.1-4.7,4.7s2.1,4.7,4.7,4.7c2.6,0,4.7-2.1,4.7-4.7S325,26.5,322.3,26.5z"/>
	</g>
</g>
</svg>
