<svg xmlns="http://www.w3.org/2000/svg" fill="none" viewBox="0 0 24 24"><path fill="#fff" d="M14.128 7.733c.078-.534.403-.953.764-1.007a.476.476 0 0 1 .153 0c.42.058.7.613.612 1.222l-.408 2.723c-.446-.076-1.01-.039-1.563.034l.442-2.972zM10.9 7.024c.048-.019.1-.03.152-.034.365-.016.765.318.951.826l1.088 2.971c-.418.075-.832.169-1.24.28a.575.575 0 0 0-.238.149l-1.054-2.888c-.212-.58-.059-1.167.34-1.304zM9.251 10.704a.676.676 0 0 1 .476-.148.63.63 0 0 1 .425.214l1.257 1.436a.609.609 0 0 1-.083.859.651.651 0 0 1-.885-.05L9.183 11.58a.617.617 0 0 1-.153-.45.607.607 0 0 1 .221-.425z"/><path fill="#fff" d="M12.65 11.432c.554-.103 1.291-.24 1.886-.232.244.004.47.032.645.098 1 .38.644 2.045.34 3.153-.565 2.06-1.587 2.744-3.381 2.823-1.78.078-2.704-.57-3.433-1.7-.373-.582-.991-2.396-.05-2.988a.644.644 0 0 1 .464-.149.656.656 0 0 1 .436.215l.832.941a.609.609 0 0 1-.088.852.65.65 0 0 1-.88-.044l-.833-.94c.176.322.53.955.714 1.221.272.39.926.51 1.342.165.344-.285.457-.726.306-1.073.267.011.529-.077.731-.247a.88.88 0 0 0 .34-.561c.104.14.533.202.815.165l.833-.116s-2.417 1.147-1.121 2.691c-.604-1.494 1.75-2.493 1.75-2.493l-.051-.66-1.682.033c-.298.005-.587-.132-.663-.413-.08-.29.085-.623.39-.676.107-.018.227-.04.358-.065z"/><path fill="#fff" fill-rule="evenodd" d="M24 12c0 6.627-5.373 12-12 12S0 18.627 0 12 5.373 0 12 0s12 5.373 12 12zm-1.44 0c0 5.832-4.728 10.56-10.56 10.56-5.832 0-10.56-4.728-10.56-10.56C1.44 6.168 6.168 1.44 12 1.44c5.832 0 10.56 4.728 10.56 10.56z" clip-rule="evenodd"/></svg>
