<svg xmlns="http://www.w3.org/2000/svg" fill="none" viewBox="0 0 24 24"><path fill="#fff" fill-rule="evenodd" d="M24 12c0-6.627-5.373-12-12-12S0 5.373 0 12s5.373 12 12 12 12-5.373 12-12zm-1.44 0c0-5.832-4.728-10.56-10.56-10.56C6.168 1.44 1.44 6.168 1.44 12c0 5.832 4.728 10.56 10.56 10.56 5.832 0 10.56-4.728 10.56-10.56zm-4.911 2.767a1.479 1.479 0 0 1-1.266 1.15c-1.451.163-2.92.164-4.384.163-1.463 0-2.932 0-4.384-.162a1.478 1.478 0 0 1-1.265-1.15c-.204-.887-.204-1.855-.204-2.768 0-.913.003-1.88.206-2.767a1.478 1.478 0 0 1 1.266-1.15c1.451-.163 2.92-.164 4.384-.163 1.463 0 2.932 0 4.384.162a1.478 1.478 0 0 1 1.265 1.15c.204.887.203 1.855.203 2.768 0 .913-.002 1.88-.205 2.767zM10.946 9.84l3.24 1.87-3.24 1.871V9.84z" clip-rule="evenodd"/></svg>
